G75*
G70*
%OFA0B0*%
%FSLAX24Y24*%
%IPPOS*%
%LPD*%
%AMOC8*
5,1,8,0,0,1.08239X$1,22.5*
%
%ADD10R,0.1180X0.1580*%
%ADD11R,0.1580X0.1180*%
%ADD12R,0.0631X0.0474*%
%ADD13R,0.0434X0.0356*%
%ADD14R,0.0356X0.0434*%
%ADD15R,0.1222X0.2049*%
%ADD16R,0.0356X0.0474*%
%ADD17C,0.0635*%
%ADD18R,0.0336X0.0277*%
D10*
X001480Y009680D03*
X001480Y012180D03*
X004290Y012180D03*
X004290Y009680D03*
D11*
X006580Y009570D03*
X006580Y012380D03*
X005880Y004090D03*
X005880Y001280D03*
D12*
X004713Y005406D03*
X004713Y006154D03*
X004613Y007406D03*
X004613Y008154D03*
X003747Y007780D03*
X003847Y005780D03*
X005847Y005880D03*
X006713Y005506D03*
X006713Y006254D03*
X007313Y007506D03*
X007313Y008254D03*
X006447Y007880D03*
D13*
X005280Y007624D03*
X005280Y008136D03*
X007380Y006036D03*
X007380Y005524D03*
D14*
X007336Y006880D03*
X006824Y006880D03*
X003836Y004780D03*
X003324Y004780D03*
D15*
X001880Y006780D03*
D16*
X001034Y006544D03*
X001034Y007016D03*
X001034Y007567D03*
X001034Y005993D03*
X002726Y005993D03*
X002726Y006544D03*
X002726Y007016D03*
X002726Y007567D03*
D17*
X002389Y001111D03*
X002389Y001899D03*
X002389Y002686D03*
X002389Y003474D03*
X002389Y004261D03*
X002389Y005049D03*
D18*
X003234Y004252D03*
X003234Y003937D03*
X003234Y003623D03*
X003234Y003308D03*
X003726Y003308D03*
X003726Y003623D03*
X003726Y003937D03*
X003726Y004252D03*
M02*
