G75*
G70*
%OFA0B0*%
%FSLAX24Y24*%
%IPPOS*%
%LPD*%
%AMOC8*
5,1,8,0,0,1.08239X$1,22.5*
%
%ADD10C,0.0070*%
%ADD11C,0.0040*%
%ADD12C,0.0030*%
%ADD13C,0.0050*%
%ADD14C,0.0100*%
D10*
X003115Y001089D02*
X003115Y001329D01*
X003195Y001410D01*
X003355Y001410D01*
X003435Y001329D01*
X003435Y001089D01*
X003595Y001089D02*
X003115Y001089D01*
X003435Y001249D02*
X003595Y001410D01*
X003515Y001596D02*
X003595Y001676D01*
X003595Y001836D01*
X003515Y001916D01*
X003355Y001916D01*
X003355Y001756D01*
X003195Y001596D02*
X003515Y001596D01*
X003195Y001596D02*
X003115Y001676D01*
X003115Y001836D01*
X003195Y001916D01*
X003115Y002102D02*
X003115Y002342D01*
X003195Y002422D01*
X003275Y002422D01*
X003355Y002342D01*
X003355Y002102D01*
X003355Y002342D02*
X003435Y002422D01*
X003515Y002422D01*
X003595Y002342D01*
X003595Y002102D01*
X003115Y002102D01*
X003115Y002609D02*
X003595Y002609D01*
X003435Y002769D01*
X003595Y002929D01*
X003115Y002929D01*
X003940Y002342D02*
X003940Y002102D01*
X004420Y002102D01*
X004420Y002342D01*
X004340Y002422D01*
X004020Y002422D01*
X003940Y002342D01*
X003940Y001916D02*
X003940Y001596D01*
X004420Y001596D01*
X004420Y001916D01*
X004180Y001756D02*
X004180Y001596D01*
X004420Y001410D02*
X004420Y001089D01*
X003940Y001089D01*
D11*
X007240Y000928D02*
X007300Y000928D01*
X007420Y000928D02*
X007660Y000928D01*
X007660Y000868D02*
X007660Y000988D01*
X007660Y001114D02*
X007660Y001294D01*
X007600Y001354D01*
X007540Y001294D01*
X007540Y001174D01*
X007480Y001114D01*
X007420Y001174D01*
X007420Y001354D01*
X007420Y001482D02*
X007600Y001482D01*
X007660Y001542D01*
X007660Y001722D01*
X007420Y001722D01*
X007420Y001911D02*
X007420Y002031D01*
X007480Y002091D01*
X007660Y002091D01*
X007660Y001911D01*
X007600Y001850D01*
X007540Y001911D01*
X007540Y002091D01*
X007660Y002219D02*
X007660Y002339D01*
X007660Y002279D02*
X007300Y002279D01*
X007300Y002219D01*
X007420Y002464D02*
X007420Y002524D01*
X007660Y002524D01*
X007660Y002464D02*
X007660Y002584D01*
X007600Y002710D02*
X007660Y002770D01*
X007660Y002950D01*
X007720Y002950D02*
X007420Y002950D01*
X007420Y002770D01*
X007480Y002710D01*
X007600Y002710D01*
X007780Y002830D02*
X007780Y002890D01*
X007720Y002950D01*
X007660Y003078D02*
X007300Y003078D01*
X007420Y003138D02*
X007420Y003258D01*
X007480Y003318D01*
X007660Y003318D01*
X007600Y003507D02*
X007660Y003567D01*
X007600Y003507D02*
X007360Y003507D01*
X007420Y003447D02*
X007420Y003567D01*
X007600Y003692D02*
X007600Y003752D01*
X007660Y003752D01*
X007660Y003692D01*
X007600Y003692D01*
X007600Y003876D02*
X007480Y003876D01*
X007420Y003936D01*
X007420Y004056D01*
X007480Y004116D01*
X007600Y004116D01*
X007660Y004056D01*
X007660Y003936D01*
X007600Y003876D01*
X007660Y004245D02*
X007420Y004245D01*
X007420Y004365D02*
X007420Y004425D01*
X007420Y004365D02*
X007540Y004245D01*
X007480Y004551D02*
X007600Y004551D01*
X007660Y004612D01*
X007660Y004792D01*
X007720Y004792D02*
X007420Y004792D01*
X007420Y004612D01*
X007480Y004551D01*
X007780Y004672D02*
X007780Y004732D01*
X007720Y004792D01*
X007420Y003138D02*
X007480Y003078D01*
X007300Y002524D02*
X007240Y002524D01*
X007420Y000928D02*
X007420Y000868D01*
X007420Y000740D02*
X007660Y000620D01*
X007420Y000500D01*
D12*
X004465Y002918D02*
X004218Y003042D01*
X004156Y003163D02*
X004095Y003225D01*
X004095Y003348D01*
X004156Y003410D01*
X004403Y003163D01*
X004465Y003225D01*
X004465Y003348D01*
X004403Y003410D01*
X004156Y003410D01*
X004156Y003163D02*
X004403Y003163D01*
X004465Y002918D02*
X004218Y002795D01*
X004403Y003532D02*
X004403Y003593D01*
X004465Y003593D01*
X004465Y003532D01*
X004403Y003532D01*
X004465Y003716D02*
X004218Y003963D01*
X004156Y003963D01*
X004095Y003901D01*
X004095Y003778D01*
X004156Y003716D01*
X004280Y004084D02*
X004280Y004331D01*
X004465Y004269D02*
X004095Y004269D01*
X004280Y004084D01*
X004465Y003963D02*
X004465Y003716D01*
X001865Y003565D02*
X001865Y003351D01*
X001865Y003458D02*
X001758Y003351D01*
X001705Y003351D01*
X001596Y003405D02*
X001543Y003351D01*
X001436Y003351D01*
X001383Y003405D01*
X001383Y003458D01*
X001596Y003458D01*
X001596Y003405D02*
X001596Y003512D01*
X001543Y003565D01*
X001436Y003565D01*
X001274Y003512D02*
X001274Y003405D01*
X001221Y003351D01*
X001061Y003351D01*
X001061Y003245D02*
X001061Y003565D01*
X001221Y003565D01*
X001274Y003512D01*
X001221Y004151D02*
X001114Y004151D01*
X001061Y004205D01*
X001061Y004258D01*
X001274Y004258D01*
X001274Y004205D02*
X001221Y004151D01*
X001274Y004205D02*
X001274Y004312D01*
X001221Y004365D01*
X001114Y004365D01*
X000952Y004312D02*
X000952Y004205D01*
X000899Y004151D01*
X000792Y004151D01*
X000738Y004205D01*
X000738Y004258D01*
X000952Y004258D01*
X000952Y004312D02*
X000899Y004365D01*
X000792Y004365D01*
X000630Y004365D02*
X000630Y004151D01*
X000469Y004151D01*
X000416Y004205D01*
X000416Y004365D01*
X000631Y004951D02*
X000577Y005005D01*
X000577Y005058D01*
X000791Y005058D01*
X000791Y005005D02*
X000737Y004951D01*
X000631Y004951D01*
X000791Y005005D02*
X000791Y005112D01*
X000737Y005165D01*
X000631Y005165D01*
X000899Y005165D02*
X000952Y005112D01*
X000952Y004898D01*
X000899Y004951D02*
X001006Y004951D01*
X001167Y004951D02*
X001167Y005165D01*
X001220Y005165D02*
X001114Y005165D01*
X001329Y005165D02*
X001329Y005005D01*
X001383Y004951D01*
X001489Y004951D01*
X001543Y005005D01*
X001651Y004951D02*
X001651Y005112D01*
X001705Y005165D01*
X001758Y005112D01*
X001812Y005165D01*
X001865Y005112D01*
X001865Y004951D01*
X001758Y004472D02*
X001705Y004472D01*
X001651Y004418D01*
X001651Y004151D01*
X001812Y004151D01*
X001865Y004205D01*
X001865Y004312D01*
X001812Y004365D01*
X001651Y004365D01*
X001543Y004365D02*
X001543Y004151D01*
X001543Y004258D02*
X001436Y004151D01*
X001383Y004151D01*
X001167Y004791D02*
X001167Y004845D01*
X001167Y004951D02*
X001220Y004951D01*
X001543Y004845D02*
X001543Y005165D01*
X001543Y002765D02*
X001436Y002765D01*
X001489Y002765D02*
X001489Y002445D01*
X001543Y002445D01*
X001651Y002605D02*
X001705Y002551D01*
X001865Y002551D01*
X001865Y002445D02*
X001865Y002765D01*
X001705Y002765D01*
X001651Y002712D01*
X001651Y002605D01*
X001328Y002551D02*
X001328Y002712D01*
X001274Y002765D01*
X001114Y002765D01*
X001114Y002551D01*
X001006Y002605D02*
X000952Y002551D01*
X000845Y002551D01*
X000792Y002605D01*
X000792Y002658D01*
X001006Y002658D01*
X001006Y002605D02*
X001006Y002712D01*
X000952Y002765D01*
X000845Y002765D01*
X001007Y001965D02*
X001167Y001965D01*
X001220Y001912D01*
X001220Y001805D01*
X001167Y001751D01*
X001007Y001751D01*
X001329Y001751D02*
X001489Y001751D01*
X001543Y001805D01*
X001543Y001912D01*
X001489Y001965D01*
X001329Y001965D01*
X001651Y001751D02*
X001758Y001965D01*
X001865Y001751D01*
X001758Y001272D02*
X001705Y001272D01*
X001651Y001218D01*
X001651Y000951D01*
X001812Y000951D01*
X001865Y001005D01*
X001865Y001112D01*
X001812Y001165D01*
X001651Y001165D01*
X001543Y001165D02*
X001543Y000951D01*
X001383Y000951D01*
X001329Y001005D01*
X001329Y001165D01*
X001220Y001112D02*
X001220Y001005D01*
X001167Y000951D01*
X001007Y000951D01*
X001007Y000845D02*
X001007Y001165D01*
X001167Y001165D01*
X001220Y001112D01*
D13*
X004680Y000280D02*
X005630Y000280D01*
X006130Y000280D01*
X007080Y000280D01*
X007080Y005090D01*
X004680Y005090D01*
X004680Y000280D01*
X005630Y000280D02*
X005632Y000310D01*
X005637Y000340D01*
X005646Y000369D01*
X005659Y000396D01*
X005674Y000422D01*
X005693Y000446D01*
X005714Y000467D01*
X005738Y000486D01*
X005764Y000501D01*
X005791Y000514D01*
X005820Y000523D01*
X005850Y000528D01*
X005880Y000530D01*
X005910Y000528D01*
X005940Y000523D01*
X005969Y000514D01*
X005996Y000501D01*
X006022Y000486D01*
X006046Y000467D01*
X006067Y000446D01*
X006086Y000422D01*
X006101Y000396D01*
X006114Y000369D01*
X006123Y000340D01*
X006128Y000310D01*
X006130Y000280D01*
X005290Y008480D02*
X000480Y008480D01*
X000480Y009430D01*
X000480Y009930D01*
X000480Y010880D01*
X005290Y010880D01*
X005290Y008480D01*
X005380Y008570D02*
X005380Y013380D01*
X006330Y013380D01*
X006830Y013380D01*
X007780Y013380D01*
X007780Y008570D01*
X005380Y008570D01*
X005290Y010980D02*
X000480Y010980D01*
X000480Y011930D01*
X000480Y012430D01*
X000480Y013380D01*
X005290Y013380D01*
X005290Y010980D01*
X006330Y013380D02*
X006332Y013350D01*
X006337Y013320D01*
X006346Y013291D01*
X006359Y013264D01*
X006374Y013238D01*
X006393Y013214D01*
X006414Y013193D01*
X006438Y013174D01*
X006464Y013159D01*
X006491Y013146D01*
X006520Y013137D01*
X006550Y013132D01*
X006580Y013130D01*
X006610Y013132D01*
X006640Y013137D01*
X006669Y013146D01*
X006696Y013159D01*
X006722Y013174D01*
X006746Y013193D01*
X006767Y013214D01*
X006786Y013238D01*
X006801Y013264D01*
X006814Y013291D01*
X006823Y013320D01*
X006828Y013350D01*
X006830Y013380D01*
X000480Y012430D02*
X000510Y012428D01*
X000540Y012423D01*
X000569Y012414D01*
X000596Y012401D01*
X000622Y012386D01*
X000646Y012367D01*
X000667Y012346D01*
X000686Y012322D01*
X000701Y012296D01*
X000714Y012269D01*
X000723Y012240D01*
X000728Y012210D01*
X000730Y012180D01*
X000728Y012150D01*
X000723Y012120D01*
X000714Y012091D01*
X000701Y012064D01*
X000686Y012038D01*
X000667Y012014D01*
X000646Y011993D01*
X000622Y011974D01*
X000596Y011959D01*
X000569Y011946D01*
X000540Y011937D01*
X000510Y011932D01*
X000480Y011930D01*
X000480Y009930D02*
X000510Y009928D01*
X000540Y009923D01*
X000569Y009914D01*
X000596Y009901D01*
X000622Y009886D01*
X000646Y009867D01*
X000667Y009846D01*
X000686Y009822D01*
X000701Y009796D01*
X000714Y009769D01*
X000723Y009740D01*
X000728Y009710D01*
X000730Y009680D01*
X000728Y009650D01*
X000723Y009620D01*
X000714Y009591D01*
X000701Y009564D01*
X000686Y009538D01*
X000667Y009514D01*
X000646Y009493D01*
X000622Y009474D01*
X000596Y009459D01*
X000569Y009446D01*
X000540Y009437D01*
X000510Y009432D01*
X000480Y009430D01*
D14*
X000263Y000324D02*
X003097Y000324D01*
X003097Y000915D01*
X002625Y000915D01*
X000263Y000324D02*
X000263Y005836D01*
X003097Y005836D01*
X003097Y005245D01*
X002625Y005245D01*
M02*
