G75*
G70*
%OFA0B0*%
%FSLAX24Y24*%
%IPPOS*%
%LPD*%
%AMOC8*
5,1,8,0,0,1.08239X$1,22.5*
%
%ADD10C,0.0020*%
%ADD11C,0.0030*%
%ADD12C,0.0160*%
%ADD13C,0.0080*%
%ADD14C,0.0050*%
%ADD15R,0.0280X0.0160*%
%ADD16R,0.0160X0.0280*%
%ADD17C,0.0100*%
D10*
X017252Y002026D02*
X017330Y002104D01*
X017382Y002104D01*
X017486Y002001D01*
X017486Y001949D01*
X017408Y001871D01*
X017252Y002026D01*
X017435Y002157D02*
X017435Y002209D01*
X017486Y002261D01*
X017538Y002261D01*
X017564Y002235D01*
X017564Y002027D01*
X017668Y002131D01*
X017721Y002183D02*
X017669Y002443D01*
X017747Y002469D02*
X017773Y002443D01*
X017825Y002443D01*
X017877Y002495D01*
X017929Y002495D01*
X017955Y002469D01*
X017955Y002417D01*
X017903Y002366D01*
X017851Y002366D01*
X017747Y002469D02*
X017747Y002521D01*
X017799Y002573D01*
X017851Y002573D01*
X017877Y002652D02*
X017955Y002729D01*
X018007Y002729D01*
X018111Y002626D01*
X018111Y002574D01*
X018033Y002496D01*
X017877Y002652D01*
X018086Y002756D02*
X018086Y002860D01*
X018189Y002860D01*
X018293Y002756D01*
X018215Y002834D02*
X018111Y002730D01*
X018086Y002756D02*
X018189Y002652D01*
X017606Y003145D02*
X017503Y003249D01*
X017555Y003301D02*
X017555Y003093D01*
X017503Y003145D02*
X017606Y003249D01*
X017658Y003197D02*
X017451Y003197D01*
X017398Y003145D02*
X017424Y003119D01*
X017424Y003067D01*
X017476Y003067D01*
X017502Y003041D01*
X017502Y002989D01*
X017450Y002937D01*
X017398Y002937D01*
X017346Y002885D02*
X017242Y002988D01*
X017190Y002988D01*
X017112Y002910D01*
X017268Y002755D01*
X017346Y002833D01*
X017346Y002885D01*
X017295Y003041D02*
X017295Y003093D01*
X017346Y003145D01*
X017398Y003145D01*
X017424Y003067D02*
X017398Y003041D01*
X017737Y003224D02*
X017685Y003483D01*
X017763Y003510D02*
X017789Y003484D01*
X017841Y003484D01*
X017893Y003536D01*
X017945Y003536D01*
X017971Y003510D01*
X017971Y003458D01*
X017919Y003406D01*
X017867Y003406D01*
X017763Y003510D02*
X017763Y003561D01*
X017815Y003613D01*
X017867Y003613D01*
X017920Y003666D02*
X018023Y003562D01*
X018075Y003562D01*
X018127Y003614D01*
X018127Y003666D01*
X018206Y003692D02*
X018050Y003848D01*
X018023Y003770D02*
X017971Y003770D01*
X017920Y003718D01*
X017920Y003666D01*
X018206Y003692D02*
X018309Y003796D01*
X017746Y004181D02*
X017746Y004233D01*
X017720Y004259D01*
X017668Y004259D01*
X017590Y004181D01*
X017642Y004129D01*
X017694Y004129D01*
X017746Y004181D01*
X017799Y004285D02*
X017799Y004493D01*
X017850Y004441D02*
X017747Y004337D01*
X017695Y004389D02*
X017902Y004389D01*
X017850Y004337D02*
X017747Y004441D01*
X017616Y004363D02*
X017590Y004285D01*
X017590Y004181D01*
X017590Y004077D02*
X017486Y004180D01*
X017434Y004180D01*
X017356Y004102D01*
X017512Y003947D01*
X017590Y004025D01*
X017590Y004077D01*
X017981Y004416D02*
X017929Y004675D01*
X018033Y004676D02*
X018137Y004572D01*
X018059Y004650D02*
X018163Y004753D01*
X018137Y004779D02*
X018241Y004676D01*
X018293Y004728D02*
X018267Y004754D01*
X018267Y004962D01*
X018241Y004988D01*
X018138Y004884D01*
X018137Y004779D02*
X018033Y004779D01*
X018033Y004676D01*
X018008Y005579D02*
X017904Y005683D01*
X017904Y005786D01*
X018008Y005786D01*
X018112Y005683D01*
X018138Y005761D02*
X018138Y005969D01*
X018242Y005865D01*
X018242Y005813D01*
X018190Y005761D01*
X018138Y005761D01*
X018035Y005865D01*
X018035Y005917D01*
X018086Y005969D01*
X018138Y005969D01*
X018034Y005760D02*
X017930Y005657D01*
X017960Y006587D02*
X017856Y006691D01*
X017856Y006794D01*
X017960Y006794D01*
X018064Y006691D01*
X018116Y006743D02*
X018220Y006847D01*
X018168Y006795D02*
X018012Y006951D01*
X018012Y006847D01*
X017986Y006768D02*
X017882Y006665D01*
X018036Y008247D02*
X018114Y008325D01*
X018114Y008377D01*
X018010Y008480D01*
X017958Y008480D01*
X017880Y008402D01*
X018036Y008247D01*
X018166Y008429D02*
X018218Y008429D01*
X018270Y008481D01*
X018270Y008533D01*
X018218Y008585D01*
X018166Y008585D01*
X018140Y008559D01*
X018114Y008481D01*
X018037Y008559D01*
X018140Y008663D01*
X018219Y008689D02*
X018426Y008689D01*
X018374Y008637D02*
X018271Y008741D01*
X018323Y008793D02*
X018323Y008585D01*
X018271Y008637D02*
X018374Y008741D01*
X018036Y009035D02*
X018114Y009113D01*
X018114Y009165D01*
X018010Y009268D01*
X017958Y009268D01*
X017880Y009190D01*
X018036Y009035D01*
X018166Y009217D02*
X018218Y009217D01*
X018270Y009269D01*
X018270Y009321D01*
X018166Y009425D01*
X018114Y009425D01*
X018063Y009373D01*
X018063Y009321D01*
X018088Y009295D01*
X018140Y009295D01*
X018218Y009373D01*
X018271Y009425D02*
X018374Y009529D01*
X018323Y009581D02*
X018323Y009373D01*
X018374Y009425D02*
X018271Y009529D01*
X018219Y009477D02*
X018426Y009477D01*
X018104Y009871D02*
X018208Y009975D01*
X018156Y009923D02*
X018000Y010079D01*
X018000Y009975D01*
X017922Y009948D02*
X018026Y009845D01*
X018026Y009793D01*
X017948Y009715D01*
X017792Y009870D01*
X017870Y009948D01*
X017922Y009948D01*
X018131Y010157D02*
X018131Y010209D01*
X018183Y010261D01*
X018235Y010261D01*
X018235Y010053D01*
X018286Y010053D01*
X018338Y010105D01*
X018338Y010157D01*
X018235Y010261D01*
X018287Y010313D02*
X018495Y010313D01*
X018443Y010261D02*
X018339Y010365D01*
X018391Y010417D02*
X018391Y010210D01*
X018339Y010261D02*
X018443Y010365D01*
X018235Y010053D02*
X018131Y010157D01*
X017940Y010535D02*
X018018Y010613D01*
X018018Y010665D01*
X017914Y010768D01*
X017862Y010768D01*
X017784Y010690D01*
X017940Y010535D01*
X018096Y010691D02*
X018200Y010795D01*
X018148Y010743D02*
X017992Y010899D01*
X017992Y010795D01*
X018123Y010977D02*
X018123Y011029D01*
X018175Y011081D01*
X018227Y011081D01*
X018253Y011055D01*
X018253Y011003D01*
X018304Y011003D01*
X018330Y010977D01*
X018330Y010925D01*
X018278Y010873D01*
X018227Y010873D01*
X018227Y010977D02*
X018253Y011003D01*
X018331Y011081D02*
X018435Y011185D01*
X018487Y011133D02*
X018279Y011133D01*
X018331Y011185D02*
X018435Y011081D01*
X018383Y011030D02*
X018383Y011237D01*
X018026Y011429D02*
X018026Y011481D01*
X017896Y011610D01*
X017975Y011637D02*
X018000Y011611D01*
X018052Y011611D01*
X018104Y011663D01*
X018156Y011663D01*
X018182Y011637D01*
X018182Y011585D01*
X018130Y011533D01*
X018078Y011533D01*
X018026Y011429D02*
X017974Y011377D01*
X017922Y011377D01*
X017792Y011506D01*
X017975Y011637D02*
X017975Y011689D01*
X018026Y011741D01*
X018078Y011741D01*
X018105Y011819D02*
X018183Y011897D01*
X018235Y011897D01*
X018261Y011871D01*
X018261Y011819D01*
X018183Y011741D01*
X018261Y011663D02*
X018105Y011819D01*
X018261Y011819D02*
X018312Y011819D01*
X018338Y011793D01*
X018338Y011741D01*
X018261Y011663D01*
X018339Y011897D02*
X018443Y012001D01*
X018339Y012001D02*
X018443Y011897D01*
X018050Y012221D02*
X017998Y012169D01*
X017946Y012169D01*
X017842Y012273D01*
X017842Y012324D01*
X017894Y012376D01*
X017946Y012376D01*
X017998Y012324D02*
X017946Y012273D01*
X017998Y012324D02*
X018050Y012273D01*
X018050Y012221D01*
X018128Y012299D02*
X017973Y012455D01*
X018232Y012403D01*
X018076Y012559D01*
X018129Y012611D02*
X018207Y012689D01*
X018259Y012689D01*
X018362Y012585D01*
X018362Y012533D01*
X018285Y012455D01*
X018129Y012611D01*
X018147Y001917D02*
X018095Y001917D01*
X018017Y001839D01*
X018173Y001683D01*
X018250Y001761D01*
X018250Y001813D01*
X018147Y001917D01*
X017964Y001787D02*
X018120Y001631D01*
X017861Y001683D01*
X018016Y001527D01*
X017938Y001501D02*
X017886Y001552D01*
X017834Y001501D01*
X017834Y001604D02*
X017782Y001604D01*
X017730Y001552D01*
X017730Y001501D01*
X017834Y001397D01*
X017886Y001397D01*
X017938Y001449D01*
X017938Y001501D01*
X018272Y000999D02*
X018324Y000843D01*
X018168Y000895D01*
X018142Y000816D02*
X018194Y000765D01*
X018194Y000713D01*
X018142Y000661D01*
X018090Y000661D01*
X018038Y000713D02*
X018064Y000790D01*
X018090Y000816D01*
X018142Y000816D01*
X018064Y000894D02*
X017960Y000790D01*
X018038Y000713D01*
D11*
X015994Y000711D02*
X015941Y000764D01*
X015834Y000764D01*
X015781Y000711D01*
X015781Y000497D01*
X015834Y000444D01*
X015941Y000444D01*
X015994Y000497D01*
X015994Y000604D01*
X015887Y000604D01*
X015672Y000604D02*
X015618Y000550D01*
X015458Y000550D01*
X015458Y000444D02*
X015458Y000764D01*
X015618Y000764D01*
X015672Y000711D01*
X015672Y000604D01*
X015565Y000550D02*
X015672Y000444D01*
X015350Y000497D02*
X015350Y000711D01*
X015296Y000764D01*
X015189Y000764D01*
X015136Y000711D01*
X015136Y000497D01*
X015189Y000444D01*
X015296Y000444D01*
X015350Y000497D01*
X015028Y000497D02*
X015028Y000444D01*
X014975Y000444D01*
X014975Y000497D01*
X015028Y000497D01*
X014759Y000444D02*
X014759Y000764D01*
X014653Y000764D02*
X014866Y000764D01*
X014856Y000948D02*
X014952Y001141D01*
X015054Y001190D02*
X015054Y000996D01*
X015247Y001190D01*
X015247Y000996D01*
X015199Y000948D01*
X015102Y000948D01*
X015054Y000996D01*
X014856Y000948D02*
X014759Y001141D01*
X015054Y001190D02*
X015102Y001238D01*
X015199Y001238D01*
X015247Y001190D01*
X015496Y001190D02*
X015544Y001238D01*
X015641Y001238D01*
X015689Y001190D01*
X015689Y001141D01*
X015641Y001093D01*
X015689Y001044D01*
X015689Y000996D01*
X015641Y000948D01*
X015544Y000948D01*
X015496Y000996D01*
X015397Y000996D02*
X015397Y000948D01*
X015348Y000948D01*
X015348Y000996D01*
X015397Y000996D01*
X015592Y001093D02*
X015641Y001093D01*
X015790Y001141D02*
X015790Y001190D01*
X015839Y001238D01*
X015935Y001238D01*
X015984Y001190D01*
X015984Y001141D01*
X015935Y001093D01*
X015839Y001093D01*
X015790Y001141D01*
X015839Y001093D02*
X015790Y001044D01*
X015790Y000996D01*
X015839Y000948D01*
X015935Y000948D01*
X015984Y000996D01*
X015984Y001044D01*
X015935Y001093D01*
X014544Y000764D02*
X014544Y000444D01*
X014544Y000604D02*
X014330Y000604D01*
X014222Y000604D02*
X014222Y000497D01*
X014168Y000444D01*
X014061Y000444D01*
X014008Y000497D01*
X014008Y000711D01*
X014061Y000764D01*
X014168Y000764D01*
X014222Y000711D01*
X014222Y000604D02*
X014115Y000604D01*
X013900Y000764D02*
X013793Y000764D01*
X013847Y000764D02*
X013847Y000444D01*
X013900Y000444D02*
X013793Y000444D01*
X013684Y000444D02*
X013471Y000444D01*
X013471Y000764D01*
X013362Y000657D02*
X013362Y000444D01*
X013362Y000604D02*
X013149Y000604D01*
X013149Y000657D02*
X013255Y000764D01*
X013362Y000657D01*
X013149Y000657D02*
X013149Y000444D01*
X013040Y000497D02*
X013040Y000764D01*
X012826Y000764D02*
X012826Y000497D01*
X012880Y000444D01*
X012987Y000444D01*
X013040Y000497D01*
X012718Y000497D02*
X012664Y000444D01*
X012558Y000444D01*
X012504Y000497D01*
X012558Y000604D02*
X012504Y000657D01*
X012504Y000711D01*
X012558Y000764D01*
X012664Y000764D01*
X012718Y000711D01*
X012664Y000604D02*
X012718Y000550D01*
X012718Y000497D01*
X012664Y000604D02*
X012558Y000604D01*
X012396Y000764D02*
X012289Y000764D01*
X012343Y000764D02*
X012343Y000444D01*
X012396Y000444D02*
X012289Y000444D01*
X012181Y000550D02*
X012181Y000764D01*
X011967Y000764D02*
X011967Y000550D01*
X012074Y000444D01*
X012181Y000550D01*
X010698Y000469D02*
X010408Y000469D01*
X010408Y000372D02*
X010408Y000566D01*
X010408Y000667D02*
X010698Y000860D01*
X010698Y000667D02*
X010408Y000860D01*
X014330Y000764D02*
X014330Y000444D01*
X007528Y011764D02*
X007238Y011764D01*
X007238Y011909D01*
X007286Y011958D01*
X007383Y011958D01*
X007431Y011909D01*
X007431Y011764D01*
X007480Y012059D02*
X007528Y012107D01*
X007528Y012204D01*
X007480Y012253D01*
X007286Y012253D01*
X007238Y012204D01*
X007238Y012107D01*
X007286Y012059D01*
X007480Y012059D01*
X007528Y012354D02*
X007238Y012354D01*
X007238Y012547D02*
X007528Y012547D01*
X007431Y012450D01*
X007528Y012354D01*
X007528Y012648D02*
X007238Y012648D01*
X007238Y012842D01*
X007238Y012943D02*
X007238Y013088D01*
X007286Y013136D01*
X007383Y013136D01*
X007431Y013088D01*
X007431Y012943D01*
X007431Y013040D02*
X007528Y013136D01*
X007528Y012943D02*
X007238Y012943D01*
X007383Y012745D02*
X007383Y012648D01*
X007528Y012648D02*
X007528Y012842D01*
D12*
X010100Y010813D02*
X010100Y010789D01*
X010100Y010313D02*
X010100Y010289D01*
X012700Y009613D02*
X012700Y009589D01*
X013688Y009601D02*
X013712Y009601D01*
X013000Y011589D02*
X013000Y011613D01*
X014588Y002001D02*
X014612Y002001D01*
X011412Y001501D02*
X011388Y001501D01*
D13*
X007177Y002601D02*
X016823Y002601D01*
X016823Y002896D01*
X016823Y003112D01*
X016823Y002896D02*
X015839Y002896D01*
X015839Y003112D01*
X013984Y001819D02*
X013984Y001583D01*
X013236Y001071D02*
X012764Y001071D01*
X012016Y001583D02*
X012016Y001819D01*
X012764Y002331D02*
X013236Y002331D01*
X012216Y003340D02*
X011993Y003339D01*
X009539Y005785D01*
X009539Y006008D01*
X011984Y008462D01*
X012207Y008462D01*
X014661Y006016D01*
X014661Y005794D01*
X012216Y003340D01*
X010713Y001540D02*
X010532Y001540D01*
X010624Y001418D01*
X010532Y001540D02*
X010351Y001540D01*
X010446Y001418D02*
X010522Y001533D01*
X008161Y002896D02*
X008161Y003112D01*
X008161Y002896D02*
X007177Y002896D01*
X007177Y003112D01*
X007177Y002896D02*
X007177Y002601D01*
X018400Y002651D02*
X018400Y003151D01*
X018650Y003401D01*
X018400Y003651D01*
X018400Y004151D01*
X018650Y004401D01*
X018400Y004651D01*
X018400Y005151D01*
X018650Y005401D01*
X018400Y005651D01*
X018400Y006151D01*
X018650Y006401D01*
X018400Y006651D01*
X018400Y007151D01*
X018650Y007401D01*
X019150Y007401D01*
X019400Y007151D01*
X019400Y006651D01*
X019150Y006401D01*
X019400Y006151D01*
X019400Y005651D01*
X019150Y005401D01*
X019400Y005151D01*
X019400Y004651D01*
X019150Y004401D01*
X019400Y004151D01*
X019400Y003651D01*
X019150Y003401D01*
X019400Y003151D01*
X019400Y002651D01*
X019150Y002401D01*
X019400Y002151D01*
X019400Y001651D01*
X019150Y001401D01*
X019400Y001151D01*
X019400Y000651D01*
X019150Y000401D01*
X018650Y000401D01*
X018400Y000651D01*
X018400Y001151D01*
X018650Y001401D01*
X018400Y001651D01*
X018400Y002151D01*
X018650Y002401D01*
X018400Y002651D01*
X011600Y009851D02*
X011600Y010351D01*
X012016Y010228D02*
X012016Y011173D01*
X012606Y011173D01*
X013394Y011173D02*
X013827Y011173D01*
X013984Y011016D01*
X013984Y010386D01*
X013827Y010228D01*
X013394Y010228D01*
X012606Y010228D02*
X012016Y010228D01*
X011000Y010351D02*
X011000Y009851D01*
X010127Y011128D02*
X009694Y011128D01*
X010127Y011128D02*
X010284Y011286D01*
X010284Y011916D01*
X010127Y012073D01*
X009694Y012073D01*
X008906Y012073D02*
X008316Y012073D01*
X008316Y011128D01*
X008906Y011128D01*
X008161Y010967D02*
X008161Y010711D01*
X008161Y010967D02*
X007177Y010967D01*
X007177Y010711D01*
X007177Y010967D02*
X010031Y013467D01*
X013969Y013467D01*
X016823Y010967D01*
X015839Y010967D01*
X015839Y010711D01*
X016823Y010711D02*
X016823Y010967D01*
X016487Y011913D02*
X014913Y011913D01*
X014263Y012307D02*
X014263Y013488D01*
X017137Y013488D01*
X017137Y012307D01*
X011469Y012561D02*
X011131Y012561D01*
X010981Y012106D02*
X010981Y011895D01*
X011131Y011441D02*
X011469Y011441D01*
X007045Y012402D02*
X006864Y012402D01*
X006772Y012524D01*
X006683Y012402D02*
X006864Y012402D01*
X006874Y012408D02*
X006950Y012524D01*
D14*
X009450Y012001D02*
X009450Y011201D01*
X013150Y011101D02*
X013150Y010301D01*
X017752Y008138D02*
X018500Y008138D01*
X018500Y012863D01*
X017752Y012863D01*
X017752Y008138D01*
X018500Y008138D02*
X019319Y008138D01*
X019319Y008335D01*
X019201Y008453D01*
X019201Y008611D01*
X019319Y008729D01*
X019319Y009123D01*
X019201Y009241D01*
X019201Y009398D01*
X019319Y009516D01*
X019319Y009910D01*
X019201Y010028D01*
X019201Y010186D01*
X019319Y010304D01*
X019319Y010697D01*
X019201Y010816D01*
X019201Y010973D01*
X019319Y011091D01*
X019319Y011485D01*
X019201Y011603D01*
X019201Y011760D01*
X019319Y011879D01*
X019319Y012272D01*
X019201Y012390D01*
X019201Y012548D01*
X019319Y012666D01*
X019319Y012863D01*
X018500Y012863D01*
D15*
X013300Y012501D03*
D16*
X008900Y009201D03*
X008900Y008701D03*
X006300Y008201D03*
X005200Y007801D03*
X005200Y007201D03*
X005200Y006401D03*
X009000Y004301D03*
X010600Y002701D03*
D17*
X017713Y007745D02*
X019516Y007745D01*
X019516Y008335D01*
X019319Y008335D01*
X017713Y007745D02*
X017713Y013257D01*
X019516Y013257D01*
X019516Y012666D01*
X019319Y012666D01*
X011985Y008128D02*
X011987Y008148D01*
X011992Y008168D01*
X012002Y008186D01*
X012014Y008203D01*
X012029Y008217D01*
X012047Y008227D01*
X012066Y008235D01*
X012086Y008239D01*
X012106Y008239D01*
X012126Y008235D01*
X012145Y008227D01*
X012163Y008217D01*
X012178Y008203D01*
X012190Y008186D01*
X012200Y008168D01*
X012205Y008148D01*
X012207Y008128D01*
X012205Y008108D01*
X012200Y008088D01*
X012190Y008070D01*
X012178Y008053D01*
X012163Y008039D01*
X012145Y008029D01*
X012126Y008021D01*
X012106Y008017D01*
X012086Y008017D01*
X012066Y008021D01*
X012047Y008029D01*
X012029Y008039D01*
X012014Y008053D01*
X012002Y008070D01*
X011992Y008088D01*
X011987Y008108D01*
X011985Y008128D01*
M02*
