G75*
G70*
%OFA0B0*%
%FSLAX24Y24*%
%IPPOS*%
%LPD*%
%AMOC8*
5,1,8,0,0,1.08239X$1,22.5*
%
%ADD10C,0.0100*%
%ADD11C,0.0555*%
%ADD12C,0.0160*%
%ADD13C,0.0300*%
%ADD14C,0.0120*%
%ADD15C,0.0436*%
%ADD16C,0.0320*%
D10*
X005391Y000730D02*
X005658Y000730D01*
X005458Y000930D01*
X005458Y000530D01*
X005852Y000530D02*
X006119Y000530D01*
X005852Y000797D01*
X005852Y000864D01*
X005918Y000930D01*
X006052Y000930D01*
X006119Y000864D01*
X006282Y000597D02*
X006282Y000530D01*
X006349Y000530D01*
X006349Y000597D01*
X006282Y000597D01*
X006542Y000597D02*
X006609Y000530D01*
X006742Y000530D01*
X006809Y000597D01*
X006542Y000864D01*
X006542Y000597D01*
X006542Y000864D02*
X006609Y000930D01*
X006742Y000930D01*
X006809Y000864D01*
X006809Y000597D01*
X007463Y000663D02*
X007463Y000930D01*
X007463Y000663D02*
X007597Y000530D01*
X007730Y000663D01*
X007730Y000930D01*
D11*
X002389Y001111D03*
X002389Y001899D03*
X002389Y002686D03*
X002389Y003474D03*
X002389Y004261D03*
X002389Y005049D03*
D12*
X000360Y000360D02*
X000360Y013396D01*
X007770Y013396D01*
X007770Y001140D01*
X007643Y001140D01*
X007597Y001094D01*
X007550Y001140D01*
X007376Y001140D01*
X007253Y001017D01*
X007253Y000576D01*
X007376Y000453D01*
X007470Y000360D01*
X006869Y000360D01*
X006896Y000387D01*
X007019Y000510D01*
X007019Y000684D01*
X007019Y000777D01*
X007019Y000951D01*
X006952Y001017D01*
X006829Y001140D01*
X006522Y001140D01*
X006455Y001074D01*
X006332Y000951D01*
X006332Y000807D01*
X006329Y000807D01*
X006329Y000951D01*
X006139Y001140D01*
X005831Y001140D01*
X005708Y001017D01*
X005688Y000997D01*
X005545Y001140D01*
X005371Y001140D01*
X005248Y001017D01*
X005248Y000884D01*
X005181Y000817D01*
X005181Y000643D01*
X005248Y000576D01*
X005248Y000443D01*
X005331Y000360D01*
X000360Y000360D01*
X000360Y000447D02*
X005248Y000447D01*
X005220Y000605D02*
X000360Y000605D01*
X000360Y000764D02*
X002090Y000764D01*
X002091Y000763D02*
X002149Y000720D01*
X002213Y000688D01*
X002282Y000665D01*
X002353Y000654D01*
X002389Y000654D01*
X002425Y000654D01*
X002496Y000665D01*
X002564Y000688D01*
X002628Y000720D01*
X002687Y000763D01*
X002738Y000813D01*
X002780Y000872D01*
X002813Y000936D01*
X002835Y001004D01*
X002846Y001075D01*
X002846Y001111D01*
X002389Y001111D01*
X002389Y000654D01*
X002389Y001111D01*
X002389Y001111D01*
X002389Y001112D01*
X002846Y001112D01*
X002846Y001148D01*
X002835Y001219D01*
X002813Y001287D01*
X002780Y001351D01*
X002738Y001410D01*
X002687Y001460D01*
X002628Y001503D01*
X002605Y001515D01*
X002636Y001528D01*
X002760Y001651D01*
X002826Y001812D01*
X002826Y001986D01*
X002760Y002147D01*
X002636Y002270D01*
X002581Y002293D01*
X002636Y002315D01*
X002760Y002438D01*
X002826Y002599D01*
X002826Y002773D01*
X002760Y002934D01*
X002636Y003057D01*
X002581Y003080D01*
X002636Y003103D01*
X002760Y003226D01*
X002826Y003387D01*
X002826Y003561D01*
X002760Y003722D01*
X002636Y003845D01*
X002581Y003867D01*
X002636Y003890D01*
X002760Y004013D01*
X002826Y004174D01*
X002826Y004348D01*
X002760Y004509D01*
X002636Y004632D01*
X002581Y004655D01*
X002636Y004678D01*
X002760Y004801D01*
X002826Y004961D01*
X002826Y005136D01*
X002760Y005296D01*
X002636Y005419D01*
X002476Y005486D01*
X002302Y005486D01*
X002141Y005419D01*
X002018Y005296D01*
X001951Y005136D01*
X001951Y004961D01*
X002018Y004801D01*
X002141Y004678D01*
X002196Y004655D01*
X002141Y004632D01*
X002018Y004509D01*
X001951Y004348D01*
X001951Y004174D01*
X002018Y004013D01*
X002141Y003890D01*
X002196Y003867D01*
X002141Y003845D01*
X002018Y003722D01*
X001951Y003561D01*
X001951Y003387D01*
X002018Y003226D01*
X002141Y003103D01*
X002196Y003080D01*
X002141Y003057D01*
X002018Y002934D01*
X001951Y002773D01*
X001951Y002599D01*
X002018Y002438D01*
X002141Y002315D01*
X002196Y002293D01*
X002141Y002270D01*
X002018Y002147D01*
X001951Y001986D01*
X001951Y001812D01*
X002018Y001651D01*
X002141Y001528D01*
X002173Y001515D01*
X002149Y001503D01*
X002091Y001460D01*
X002040Y001410D01*
X001997Y001351D01*
X001965Y001287D01*
X001942Y001219D01*
X001931Y001148D01*
X001931Y001112D01*
X002389Y001112D01*
X002389Y001111D01*
X001931Y001111D01*
X001931Y001075D01*
X001942Y001004D01*
X001965Y000936D01*
X001997Y000872D01*
X002040Y000813D01*
X002091Y000763D01*
X001972Y000922D02*
X000360Y000922D01*
X000360Y001081D02*
X001931Y001081D01*
X001949Y001239D02*
X000360Y001239D01*
X000360Y001398D02*
X002031Y001398D01*
X002113Y001556D02*
X000360Y001556D01*
X000360Y001715D02*
X001992Y001715D01*
X001951Y001873D02*
X000360Y001873D01*
X000360Y002032D02*
X001970Y002032D01*
X002061Y002190D02*
X000360Y002190D01*
X000360Y002349D02*
X002108Y002349D01*
X001989Y002507D02*
X000360Y002507D01*
X000360Y002666D02*
X001951Y002666D01*
X001972Y002824D02*
X000360Y002824D01*
X000360Y002983D02*
X002066Y002983D01*
X002103Y003141D02*
X000360Y003141D01*
X000360Y003300D02*
X001987Y003300D01*
X001951Y003458D02*
X000360Y003458D01*
X000360Y003617D02*
X001974Y003617D01*
X002071Y003775D02*
X000360Y003775D01*
X000360Y003934D02*
X002098Y003934D01*
X001985Y004092D02*
X000360Y004092D01*
X000360Y004251D02*
X001951Y004251D01*
X001976Y004409D02*
X000360Y004409D01*
X000360Y004568D02*
X002076Y004568D01*
X002092Y004726D02*
X000360Y004726D01*
X000360Y004885D02*
X001983Y004885D01*
X001951Y005043D02*
X000360Y005043D01*
X000360Y005202D02*
X001979Y005202D01*
X002081Y005360D02*
X000360Y005360D01*
X000360Y005519D02*
X003830Y005519D01*
X003889Y005460D02*
X004470Y004879D01*
X004470Y004818D01*
X004517Y004704D01*
X004604Y004617D01*
X004718Y004570D01*
X004842Y004570D01*
X004956Y004617D01*
X005043Y004704D01*
X005090Y004818D01*
X005090Y004942D01*
X005043Y005056D01*
X004956Y005143D01*
X004842Y005190D01*
X004781Y005190D01*
X004200Y005771D01*
X004200Y006962D01*
X004243Y007004D01*
X004290Y007118D01*
X004290Y007242D01*
X004243Y007356D01*
X004156Y007443D01*
X004042Y007490D01*
X003918Y007490D01*
X003804Y007443D01*
X003717Y007356D01*
X003670Y007242D01*
X003670Y007118D01*
X003717Y007004D01*
X003760Y006962D01*
X003760Y005589D01*
X003889Y005460D01*
X003989Y005360D02*
X002696Y005360D01*
X002799Y005202D02*
X004147Y005202D01*
X004306Y005043D02*
X002826Y005043D01*
X002794Y004885D02*
X004464Y004885D01*
X004508Y004726D02*
X002685Y004726D01*
X002701Y004568D02*
X003964Y004568D01*
X004018Y004590D02*
X003904Y004543D01*
X003817Y004456D01*
X003770Y004342D01*
X003770Y004218D01*
X003817Y004104D01*
X003904Y004017D01*
X004018Y003970D01*
X004142Y003970D01*
X004256Y004017D01*
X004298Y004060D01*
X005371Y004060D01*
X006271Y004960D01*
X006400Y005089D01*
X006400Y006289D01*
X006800Y006689D01*
X006800Y006871D01*
X006800Y007062D01*
X006843Y007104D01*
X006890Y007218D01*
X006890Y007342D01*
X006843Y007456D01*
X006756Y007543D01*
X006642Y007590D01*
X006518Y007590D01*
X006404Y007543D01*
X006317Y007456D01*
X006270Y007342D01*
X006270Y007218D01*
X006317Y007104D01*
X006360Y007062D01*
X006360Y006871D01*
X005960Y006471D01*
X005960Y005271D01*
X005189Y004500D01*
X004298Y004500D01*
X004256Y004543D01*
X004142Y004590D01*
X004018Y004590D01*
X004196Y004568D02*
X005256Y004568D01*
X005415Y004726D02*
X005052Y004726D01*
X005090Y004885D02*
X005573Y004885D01*
X005732Y005043D02*
X005048Y005043D01*
X004770Y005202D02*
X005890Y005202D01*
X005960Y005360D02*
X004611Y005360D01*
X004453Y005519D02*
X005960Y005519D01*
X005960Y005677D02*
X004294Y005677D01*
X004200Y005836D02*
X005960Y005836D01*
X005960Y005994D02*
X004200Y005994D01*
X004200Y006153D02*
X005960Y006153D01*
X005960Y006311D02*
X004200Y006311D01*
X004200Y006470D02*
X005960Y006470D01*
X006117Y006628D02*
X004200Y006628D01*
X004200Y006787D02*
X006275Y006787D01*
X006360Y006945D02*
X004200Y006945D01*
X004284Y007104D02*
X006318Y007104D01*
X006270Y007262D02*
X004282Y007262D01*
X004178Y007421D02*
X006303Y007421D01*
X006492Y007579D02*
X000360Y007579D01*
X000360Y007738D02*
X007770Y007738D01*
X007770Y007896D02*
X006331Y007896D01*
X006361Y007909D02*
X006244Y007860D01*
X003095Y007860D01*
X003094Y007859D01*
X002955Y007802D01*
X002805Y007802D01*
X002666Y007859D01*
X002559Y007966D01*
X002502Y008105D01*
X002502Y008255D01*
X002559Y008394D01*
X002666Y008501D01*
X002805Y008558D01*
X002955Y008558D01*
X003094Y008501D01*
X003095Y008500D01*
X005345Y008500D01*
X005302Y008605D01*
X005302Y008606D01*
X005199Y008709D01*
X005109Y008799D01*
X005060Y008916D01*
X005060Y010665D01*
X005059Y010666D01*
X005002Y010805D01*
X005002Y010955D01*
X005059Y011094D01*
X005166Y011201D01*
X005305Y011258D01*
X005455Y011258D01*
X005594Y011201D01*
X005701Y011094D01*
X005758Y010955D01*
X005758Y010805D01*
X005701Y010666D01*
X005700Y010665D01*
X005700Y009113D01*
X005754Y009058D01*
X005755Y009058D01*
X005894Y009001D01*
X006001Y008894D01*
X006058Y008755D01*
X006058Y008605D01*
X006015Y008500D01*
X006047Y008500D01*
X006102Y008554D01*
X006102Y008555D01*
X006159Y008694D01*
X006266Y008801D01*
X006405Y008858D01*
X006555Y008858D01*
X006694Y008801D01*
X006801Y008694D01*
X006858Y008555D01*
X006858Y008405D01*
X006801Y008266D01*
X006694Y008159D01*
X006555Y008102D01*
X006554Y008102D01*
X006361Y007909D01*
X006507Y008055D02*
X007770Y008055D01*
X007770Y008213D02*
X006748Y008213D01*
X006844Y008372D02*
X007770Y008372D01*
X007770Y008530D02*
X006858Y008530D01*
X006803Y008689D02*
X007770Y008689D01*
X007770Y008847D02*
X006582Y008847D01*
X006378Y008847D02*
X006020Y008847D01*
X006058Y008689D02*
X006157Y008689D01*
X006077Y008530D02*
X006027Y008530D01*
X005882Y009006D02*
X007770Y009006D01*
X007770Y009164D02*
X005700Y009164D01*
X005700Y009323D02*
X007770Y009323D01*
X007770Y009481D02*
X005700Y009481D01*
X005700Y009640D02*
X007770Y009640D01*
X007770Y009798D02*
X005700Y009798D01*
X005700Y009957D02*
X007770Y009957D01*
X007770Y010115D02*
X005700Y010115D01*
X005700Y010274D02*
X007770Y010274D01*
X007770Y010432D02*
X005700Y010432D01*
X005700Y010591D02*
X007770Y010591D01*
X007770Y010749D02*
X005735Y010749D01*
X005758Y010908D02*
X007770Y010908D01*
X007770Y011066D02*
X005712Y011066D01*
X005536Y011225D02*
X007770Y011225D01*
X007770Y011383D02*
X000360Y011383D01*
X000360Y011225D02*
X005224Y011225D01*
X005048Y011066D02*
X000360Y011066D01*
X000360Y010908D02*
X005002Y010908D01*
X005025Y010749D02*
X000360Y010749D01*
X000360Y010591D02*
X005060Y010591D01*
X005060Y010432D02*
X000360Y010432D01*
X000360Y010274D02*
X005060Y010274D01*
X005060Y010115D02*
X000360Y010115D01*
X000360Y009957D02*
X005060Y009957D01*
X005060Y009798D02*
X000360Y009798D01*
X000360Y009640D02*
X005060Y009640D01*
X005060Y009481D02*
X000360Y009481D01*
X000360Y009323D02*
X005060Y009323D01*
X005060Y009164D02*
X000360Y009164D01*
X000360Y009006D02*
X005060Y009006D01*
X005089Y008847D02*
X000360Y008847D01*
X000360Y008689D02*
X005219Y008689D01*
X005333Y008530D02*
X003023Y008530D01*
X002737Y008530D02*
X000360Y008530D01*
X000360Y008372D02*
X002550Y008372D01*
X002502Y008213D02*
X000360Y008213D01*
X000360Y008055D02*
X002523Y008055D01*
X002629Y007896D02*
X000360Y007896D01*
X000360Y007421D02*
X003782Y007421D01*
X003678Y007262D02*
X000360Y007262D01*
X000360Y007104D02*
X003676Y007104D01*
X003760Y006945D02*
X000360Y006945D01*
X000360Y006787D02*
X003760Y006787D01*
X003760Y006628D02*
X000360Y006628D01*
X000360Y006470D02*
X003760Y006470D01*
X003760Y006311D02*
X000360Y006311D01*
X000360Y006153D02*
X003760Y006153D01*
X003760Y005994D02*
X000360Y005994D01*
X000360Y005836D02*
X003760Y005836D01*
X003760Y005677D02*
X000360Y005677D01*
X002680Y003934D02*
X007770Y003934D01*
X007770Y004092D02*
X005403Y004092D01*
X005562Y004251D02*
X007770Y004251D01*
X007770Y004409D02*
X005720Y004409D01*
X005879Y004568D02*
X007770Y004568D01*
X007770Y004726D02*
X006037Y004726D01*
X006196Y004885D02*
X007770Y004885D01*
X007770Y005043D02*
X006354Y005043D01*
X006400Y005202D02*
X007770Y005202D01*
X007770Y005360D02*
X006400Y005360D01*
X006400Y005519D02*
X007770Y005519D01*
X007770Y005677D02*
X006400Y005677D01*
X006400Y005836D02*
X007770Y005836D01*
X007770Y005994D02*
X006400Y005994D01*
X006400Y006153D02*
X007770Y006153D01*
X007770Y006311D02*
X006422Y006311D01*
X006581Y006470D02*
X007770Y006470D01*
X007770Y006628D02*
X006739Y006628D01*
X006800Y006787D02*
X007770Y006787D01*
X007770Y006945D02*
X006800Y006945D01*
X006842Y007104D02*
X007770Y007104D01*
X007770Y007262D02*
X006890Y007262D01*
X006857Y007421D02*
X007770Y007421D01*
X007770Y007579D02*
X006668Y007579D01*
X007770Y003775D02*
X002706Y003775D01*
X002803Y003617D02*
X007770Y003617D01*
X007770Y003458D02*
X002826Y003458D01*
X002790Y003300D02*
X007770Y003300D01*
X007770Y003141D02*
X002675Y003141D01*
X002711Y002983D02*
X007770Y002983D01*
X007770Y002824D02*
X002805Y002824D01*
X002826Y002666D02*
X007770Y002666D01*
X007770Y002507D02*
X002788Y002507D01*
X002670Y002349D02*
X007770Y002349D01*
X007770Y002190D02*
X002716Y002190D01*
X002807Y002032D02*
X007770Y002032D01*
X007770Y001873D02*
X002826Y001873D01*
X002786Y001715D02*
X007770Y001715D01*
X007770Y001556D02*
X002664Y001556D01*
X002746Y001398D02*
X007770Y001398D01*
X007770Y001239D02*
X002828Y001239D01*
X002846Y001081D02*
X005311Y001081D01*
X005248Y000922D02*
X002806Y000922D01*
X002688Y000764D02*
X005181Y000764D01*
X005605Y001081D02*
X005772Y001081D01*
X006199Y001081D02*
X006462Y001081D01*
X006455Y001074D02*
X006455Y001074D01*
X006332Y000922D02*
X006329Y000922D01*
X006889Y001081D02*
X007316Y001081D01*
X007253Y000922D02*
X007019Y000922D01*
X007019Y000764D02*
X007253Y000764D01*
X007253Y000605D02*
X007019Y000605D01*
X006956Y000447D02*
X007383Y000447D01*
X003830Y004092D02*
X002792Y004092D01*
X002826Y004251D02*
X003770Y004251D01*
X003798Y004409D02*
X002801Y004409D01*
X002389Y001081D02*
X002389Y001081D01*
X002389Y000922D02*
X002389Y000922D01*
X002389Y000764D02*
X002389Y000764D01*
X000360Y011542D02*
X007770Y011542D01*
X007770Y011700D02*
X000360Y011700D01*
X000360Y011859D02*
X007770Y011859D01*
X007770Y012017D02*
X000360Y012017D01*
X000360Y012176D02*
X007770Y012176D01*
X007770Y012334D02*
X000360Y012334D01*
X000360Y012493D02*
X007770Y012493D01*
X007770Y012651D02*
X000360Y012651D01*
X000360Y012810D02*
X007770Y012810D01*
X007770Y012968D02*
X000360Y012968D01*
X000360Y013127D02*
X007770Y013127D01*
X007770Y013285D02*
X000360Y013285D01*
D13*
X003980Y007180D03*
X003280Y005280D03*
X004080Y004280D03*
X004780Y004880D03*
X006580Y007280D03*
D14*
X006580Y006780D01*
X006180Y006380D01*
X006180Y005180D01*
X005280Y004280D01*
X004080Y004280D01*
X004780Y004880D02*
X003980Y005680D01*
X003980Y007180D01*
D15*
X002880Y008180D03*
X005380Y010880D03*
X005680Y008680D03*
X006480Y008480D03*
D16*
X006180Y008180D01*
X002880Y008180D01*
X005380Y008980D02*
X005380Y010880D01*
X005380Y008980D02*
X005680Y008680D01*
M02*
