G75*
G70*
%OFA0B0*%
%FSLAX24Y24*%
%IPPOS*%
%LPD*%
%AMOC8*
5,1,8,0,0,1.08239X$1,22.5*
%
%ADD10R,0.0056X0.0008*%
%ADD11R,0.0008X0.0008*%
%ADD12R,0.0024X0.0008*%
%ADD13R,0.0088X0.0008*%
%ADD14R,0.0024X0.0008*%
%ADD15R,0.0152X0.0008*%
%ADD16R,0.0184X0.0008*%
%ADD17R,0.0248X0.0008*%
%ADD18R,0.0104X0.0008*%
%ADD19R,0.0096X0.0008*%
%ADD20R,0.0064X0.0008*%
%ADD21R,0.0064X0.0008*%
%ADD22R,0.0048X0.0008*%
%ADD23R,0.0016X0.0008*%
%ADD24R,0.0072X0.0008*%
%ADD25R,0.0112X0.0008*%
%ADD26R,0.0168X0.0008*%
%ADD27R,0.0216X0.0008*%
%ADD28R,0.0208X0.0008*%
%ADD29R,0.0072X0.0008*%
%ADD30R,0.0040X0.0008*%
%ADD31R,0.0336X0.0008*%
%ADD32R,0.0344X0.0008*%
%ADD33R,0.0352X0.0008*%
%ADD34R,0.0120X0.0008*%
%ADD35R,0.0136X0.0008*%
%ADD36R,0.0312X0.0008*%
%ADD37R,0.0416X0.0008*%
%ADD38R,0.0080X0.0008*%
%ADD39R,0.0240X0.0008*%
%ADD40R,0.0104X0.0008*%
%ADD41R,0.0424X0.0008*%
%ADD42R,0.0360X0.0008*%
%ADD43R,0.0352X0.0008*%
%ADD44R,0.0232X0.0008*%
%ADD45R,0.0112X0.0008*%
%ADD46R,0.0376X0.0008*%
%ADD47R,0.0280X0.0008*%
%ADD48R,0.0424X0.0008*%
%ADD49R,0.0296X0.0008*%
%ADD50R,0.0408X0.0008*%
%ADD51R,0.0312X0.0008*%
%ADD52R,0.0392X0.0008*%
%ADD53R,0.0328X0.0008*%
%ADD54R,0.0264X0.0008*%
%ADD55R,0.0368X0.0008*%
%ADD56R,0.0128X0.0008*%
%ADD57R,0.0256X0.0008*%
%ADD58R,0.0344X0.0008*%
%ADD59R,0.0400X0.0008*%
%ADD60R,0.0384X0.0008*%
%ADD61R,0.0384X0.0008*%
%ADD62R,0.0264X0.0008*%
%ADD63R,0.0320X0.0008*%
%ADD64R,0.0152X0.0008*%
D10*
X004260Y006661D03*
X004260Y006725D03*
X004260Y006789D03*
X004260Y006853D03*
X004260Y006917D03*
X004260Y006981D03*
X004260Y007045D03*
X004260Y007109D03*
X004660Y007109D03*
X004660Y007125D03*
X004660Y007093D03*
X004660Y007077D03*
X004660Y007061D03*
X004660Y007045D03*
X004660Y007029D03*
X004660Y007013D03*
X004660Y006997D03*
X004660Y006981D03*
X004660Y006965D03*
X004660Y006949D03*
X004660Y006933D03*
X004660Y006917D03*
X004660Y006901D03*
X004660Y006885D03*
X004660Y006869D03*
X004660Y006853D03*
X004660Y006837D03*
X004660Y006821D03*
X004660Y006805D03*
X004660Y006789D03*
X004660Y006773D03*
X004660Y006757D03*
X004660Y006741D03*
X004660Y006725D03*
X004660Y006709D03*
X004660Y006693D03*
X004756Y006741D03*
X004820Y006853D03*
X004836Y006885D03*
X004900Y006997D03*
X004996Y006997D03*
X004996Y007013D03*
X004996Y007029D03*
X004996Y007045D03*
X004996Y006981D03*
X004996Y006965D03*
X004996Y006949D03*
X004996Y006933D03*
X004996Y006917D03*
X004996Y006901D03*
X004996Y006885D03*
X004996Y006869D03*
X004996Y006853D03*
X004996Y006837D03*
X004996Y006821D03*
X004996Y006805D03*
X004996Y006789D03*
X004996Y006773D03*
X004996Y006757D03*
X004996Y006741D03*
X004996Y006725D03*
X004996Y006709D03*
X004996Y006693D03*
X004996Y006677D03*
X004996Y006661D03*
X004996Y006645D03*
X004996Y006629D03*
X004996Y006613D03*
X005380Y006677D03*
X005380Y006693D03*
X005380Y006709D03*
X005380Y006725D03*
X005380Y006741D03*
X005380Y006757D03*
X005380Y006773D03*
X005380Y006789D03*
X005380Y006805D03*
X005380Y006821D03*
X005380Y006837D03*
X005380Y006853D03*
X005380Y006869D03*
X005380Y006885D03*
X005380Y006901D03*
X005380Y006917D03*
X005380Y006933D03*
X005380Y006949D03*
X005380Y006965D03*
X005380Y006981D03*
X005380Y006997D03*
X005380Y007013D03*
X005380Y007029D03*
X005380Y007045D03*
X005380Y007061D03*
X005700Y007109D03*
X005716Y007077D03*
X005716Y007061D03*
X006076Y007061D03*
X006076Y007077D03*
X006076Y007093D03*
X006076Y007125D03*
X006076Y007029D03*
X006076Y007013D03*
X006076Y006997D03*
X006076Y006965D03*
X006076Y006949D03*
X006076Y006933D03*
X006076Y006901D03*
X006076Y006885D03*
X006076Y006805D03*
X006076Y006773D03*
X006076Y006757D03*
X006076Y006741D03*
X006076Y006709D03*
X006076Y006693D03*
X006076Y006677D03*
X006076Y006645D03*
X006076Y006629D03*
X006076Y006613D03*
X006404Y006645D03*
X006412Y006677D03*
X006412Y006693D03*
X006412Y006709D03*
X006412Y006741D03*
X006404Y006773D03*
X006308Y006949D03*
X006324Y006981D03*
X006340Y007013D03*
X006356Y007045D03*
X006388Y007125D03*
X006820Y007125D03*
X006820Y007109D03*
X006820Y007093D03*
X006820Y007077D03*
X006820Y007061D03*
X006820Y007045D03*
X006820Y007029D03*
X006820Y007013D03*
X006820Y006997D03*
X006820Y006981D03*
X006820Y006965D03*
X006820Y006949D03*
X006820Y006933D03*
X006820Y006917D03*
X006820Y006901D03*
X006820Y006885D03*
X006820Y006805D03*
X006820Y006789D03*
X006820Y006773D03*
X006820Y006757D03*
X006820Y006741D03*
X006820Y006725D03*
X006820Y006709D03*
X006820Y006693D03*
X006820Y006677D03*
X006820Y006661D03*
X006820Y006645D03*
X006820Y006629D03*
X006820Y006613D03*
X006820Y006597D03*
X007156Y006613D03*
X007156Y006629D03*
X007156Y006645D03*
X007156Y006661D03*
X007156Y006677D03*
X007540Y006677D03*
X007540Y006693D03*
X007540Y006709D03*
X007540Y006725D03*
X007540Y006741D03*
X007540Y006757D03*
X007540Y006773D03*
X007540Y006789D03*
X007540Y006805D03*
X007540Y006821D03*
X007540Y006837D03*
X007540Y006853D03*
X007540Y006869D03*
X007540Y006885D03*
X007540Y006901D03*
X007540Y006917D03*
X007540Y006933D03*
X007540Y006949D03*
X007540Y006965D03*
X007540Y006981D03*
X007540Y006997D03*
X007540Y007013D03*
X007540Y007029D03*
X007540Y007045D03*
X007540Y007061D03*
X007540Y007077D03*
X007540Y007093D03*
X007540Y007109D03*
X007540Y007125D03*
X007860Y007093D03*
X007860Y007077D03*
X007860Y007061D03*
X007860Y007013D03*
X007860Y006997D03*
X007860Y006949D03*
X007860Y006933D03*
X007860Y006885D03*
X007860Y006869D03*
X007860Y006821D03*
X007860Y006805D03*
X007860Y006757D03*
X007860Y006741D03*
X007860Y006693D03*
X007860Y006677D03*
X007860Y006661D03*
X007860Y006645D03*
X007540Y006645D03*
X007540Y006661D03*
X007540Y006629D03*
X007540Y006613D03*
X007156Y007061D03*
X007156Y007077D03*
X007156Y007093D03*
X007156Y007109D03*
X007156Y007125D03*
X008276Y007125D03*
X008276Y007109D03*
X008276Y007093D03*
X008276Y007077D03*
X008276Y007061D03*
X008276Y007045D03*
X008276Y007029D03*
X008276Y007013D03*
X008276Y006997D03*
X008276Y006981D03*
X008276Y006965D03*
X008276Y006949D03*
X008276Y006933D03*
X008276Y006917D03*
X008276Y006901D03*
X008276Y006885D03*
X008276Y006869D03*
X008276Y006853D03*
X008276Y006837D03*
X008276Y006821D03*
X008276Y006805D03*
X008276Y006789D03*
X008276Y006773D03*
X008276Y006757D03*
X008276Y006741D03*
X008276Y006725D03*
X008276Y006709D03*
X008276Y006693D03*
X008276Y006677D03*
X008276Y006661D03*
X008276Y006645D03*
X008276Y006629D03*
X008276Y006613D03*
X008708Y006613D03*
X008708Y006629D03*
X008708Y006645D03*
X008708Y006661D03*
X008708Y006677D03*
X008708Y006693D03*
X008708Y006709D03*
X008708Y006725D03*
X008708Y006741D03*
X008708Y006757D03*
X008708Y006773D03*
X008708Y006789D03*
X008708Y006869D03*
X008708Y006885D03*
X008708Y006901D03*
X008708Y006917D03*
X008708Y006933D03*
X008708Y006949D03*
X008708Y006965D03*
X008708Y006981D03*
X008708Y006997D03*
X008708Y007013D03*
X008708Y007029D03*
X008708Y007045D03*
X008708Y007061D03*
X008708Y007077D03*
X008708Y007093D03*
X008708Y007109D03*
X008708Y007125D03*
X009028Y007109D03*
X009044Y007077D03*
X009044Y007061D03*
X009044Y007045D03*
X009044Y007029D03*
X009044Y007013D03*
X009044Y006997D03*
X009044Y006981D03*
X009044Y006965D03*
X009044Y006949D03*
X009044Y006933D03*
X009044Y006917D03*
X009044Y006741D03*
X009044Y006725D03*
X009044Y006709D03*
X009044Y006693D03*
X009044Y006677D03*
X009044Y006661D03*
X008708Y006597D03*
X009428Y006613D03*
X009428Y006629D03*
X009428Y006645D03*
X009428Y006661D03*
X009428Y006677D03*
X009428Y006693D03*
X009428Y006709D03*
X009428Y006725D03*
X009428Y006741D03*
X009428Y006757D03*
X009428Y006773D03*
X009428Y006789D03*
X009428Y006805D03*
X009428Y006821D03*
X009428Y006837D03*
X009428Y006853D03*
X009428Y006869D03*
X009428Y006885D03*
X009428Y006901D03*
X009428Y006917D03*
X009428Y006933D03*
X009428Y006949D03*
X009428Y006965D03*
X009428Y006981D03*
X009428Y006997D03*
X009428Y007013D03*
X009428Y007029D03*
X009428Y007045D03*
X009428Y007061D03*
X009428Y007077D03*
X009428Y007093D03*
X009428Y007109D03*
X009428Y007125D03*
X009772Y007125D03*
X009772Y007109D03*
X009772Y007093D03*
X009772Y007077D03*
X009772Y007061D03*
X010132Y007061D03*
X010132Y007077D03*
X010132Y007093D03*
X010132Y007109D03*
X010132Y007125D03*
X010132Y007045D03*
X010132Y007029D03*
X010132Y007013D03*
X010132Y006997D03*
X010132Y006981D03*
X010132Y006965D03*
X010132Y006949D03*
X010132Y006933D03*
X010132Y006917D03*
X010132Y006901D03*
X010132Y006885D03*
X010132Y006869D03*
X010132Y006805D03*
X010132Y006789D03*
X010132Y006773D03*
X010132Y006757D03*
X010132Y006741D03*
X010132Y006725D03*
X010132Y006709D03*
X010132Y006693D03*
X010132Y006677D03*
X010132Y006661D03*
X010132Y006645D03*
X010132Y006629D03*
X010132Y006613D03*
X010468Y006613D03*
X010468Y006629D03*
X010468Y006645D03*
X010468Y006661D03*
X010468Y006677D03*
X010468Y006597D03*
X010468Y007061D03*
X010468Y007077D03*
X010468Y007093D03*
X010468Y007109D03*
X010468Y007125D03*
X011060Y007125D03*
X011060Y007141D03*
X011060Y007157D03*
X011060Y007173D03*
X011060Y007189D03*
X011060Y007205D03*
X011060Y007221D03*
X011060Y007237D03*
X011060Y007253D03*
X011060Y007269D03*
X011060Y007285D03*
X011060Y007301D03*
X011060Y007317D03*
X011060Y007333D03*
X011060Y007349D03*
X011060Y007365D03*
X011060Y007381D03*
X011060Y007397D03*
X011060Y007413D03*
X011060Y007429D03*
X011060Y007445D03*
X011060Y007461D03*
X011060Y007477D03*
X011060Y007493D03*
X011060Y007509D03*
X011060Y007525D03*
X011060Y007541D03*
X011060Y007557D03*
X011348Y007573D03*
X011348Y007589D03*
X011348Y007605D03*
X011348Y007637D03*
X011348Y007653D03*
X011348Y007669D03*
X011348Y007701D03*
X011348Y007541D03*
X011348Y007525D03*
X011348Y007509D03*
X011348Y007477D03*
X011348Y007461D03*
X011348Y007445D03*
X011348Y007413D03*
X011348Y007397D03*
X011348Y007381D03*
X011348Y007349D03*
X011348Y007333D03*
X011348Y007317D03*
X011348Y007285D03*
X011348Y007269D03*
X011348Y007253D03*
X011348Y007221D03*
X011348Y007205D03*
X011348Y007189D03*
X011348Y007157D03*
X011348Y007141D03*
X011348Y007125D03*
X011348Y007093D03*
X011348Y007077D03*
X011348Y007061D03*
X011348Y007029D03*
X011348Y007013D03*
X011348Y006997D03*
X011348Y006965D03*
X011348Y006949D03*
X011348Y006933D03*
X011348Y006901D03*
X011348Y006885D03*
X011348Y006869D03*
X011348Y006837D03*
X011348Y006821D03*
X011348Y006805D03*
X011348Y006773D03*
X011348Y006757D03*
X011348Y006741D03*
X011348Y006709D03*
X011348Y006693D03*
X011348Y006677D03*
X011348Y006645D03*
X011348Y006629D03*
X011348Y006613D03*
X011348Y006581D03*
X011348Y006565D03*
X011348Y006549D03*
X011348Y006517D03*
X011348Y006501D03*
X011348Y006485D03*
X011348Y006453D03*
X011060Y006453D03*
X011060Y006469D03*
X011060Y006485D03*
X011060Y006501D03*
X011060Y006517D03*
X011060Y006533D03*
X011060Y006549D03*
X011060Y006565D03*
X011060Y006581D03*
X011060Y006597D03*
X011060Y006613D03*
X011060Y006629D03*
X011060Y006645D03*
X011060Y006661D03*
X011060Y006677D03*
X011060Y006693D03*
X011060Y006709D03*
X011060Y006725D03*
X011060Y006741D03*
X011060Y006757D03*
X011060Y006773D03*
X011060Y006789D03*
X011060Y006805D03*
X011060Y006821D03*
X011060Y006837D03*
X011060Y006853D03*
X011060Y006869D03*
X011060Y006885D03*
X011060Y006901D03*
X011060Y006917D03*
X011060Y006933D03*
X011060Y006949D03*
X011060Y006965D03*
X011060Y006981D03*
X011060Y006997D03*
X011060Y007013D03*
X011060Y007029D03*
X011060Y007045D03*
X011060Y007061D03*
X011060Y007077D03*
X011060Y007093D03*
X011060Y007109D03*
X011636Y007061D03*
X011812Y006901D03*
X011748Y006821D03*
X011636Y006677D03*
X011812Y006437D03*
X012100Y006437D03*
X012100Y006453D03*
X012100Y006469D03*
X012100Y006485D03*
X012100Y006501D03*
X012100Y006517D03*
X012100Y006533D03*
X012100Y006549D03*
X012100Y006565D03*
X012100Y006581D03*
X012100Y006597D03*
X012100Y006613D03*
X012100Y006629D03*
X012100Y006645D03*
X012100Y006661D03*
X012100Y006677D03*
X012100Y006693D03*
X012100Y006709D03*
X012100Y006725D03*
X012100Y006741D03*
X012036Y006917D03*
X012228Y007237D03*
X012100Y007413D03*
X012100Y007429D03*
X012100Y007445D03*
X012100Y007461D03*
X012100Y007477D03*
X012100Y007493D03*
X012100Y007509D03*
X012100Y007525D03*
X012100Y007541D03*
X012100Y007557D03*
X012100Y007573D03*
X012100Y007589D03*
X012100Y007605D03*
X012100Y007621D03*
X012100Y007637D03*
X012100Y007653D03*
X012100Y007669D03*
X012100Y007685D03*
X012100Y007701D03*
X012100Y007717D03*
X012100Y007733D03*
X012100Y007749D03*
X012100Y007765D03*
X012100Y007781D03*
X012100Y007797D03*
X012100Y007813D03*
X012100Y007829D03*
X012100Y007845D03*
X012100Y007861D03*
X012100Y007877D03*
X012100Y007893D03*
X012100Y007909D03*
X012100Y007925D03*
X012100Y007941D03*
X012100Y007957D03*
X012100Y007973D03*
X012100Y007989D03*
X012100Y008005D03*
X012100Y008021D03*
X012100Y008037D03*
X012100Y008053D03*
X012100Y008069D03*
X012100Y008085D03*
X012100Y008101D03*
X012100Y008117D03*
X012100Y008133D03*
X012100Y008149D03*
X012100Y008165D03*
X012100Y008181D03*
X012100Y008197D03*
X012100Y008213D03*
X012100Y008229D03*
X012100Y008309D03*
X012852Y007701D03*
X012852Y007685D03*
X012852Y007669D03*
X012852Y007653D03*
X012852Y007637D03*
X012852Y007621D03*
X012852Y007605D03*
X012852Y007589D03*
X012852Y007573D03*
X012852Y007557D03*
X012852Y007541D03*
X012852Y007525D03*
X012852Y007509D03*
X012852Y007493D03*
X012852Y007477D03*
X012852Y007461D03*
X012852Y007445D03*
X012852Y007429D03*
X012852Y007413D03*
X012852Y007397D03*
X012852Y007381D03*
X012852Y007365D03*
X012852Y007349D03*
X012852Y007333D03*
X012852Y007317D03*
X012852Y007301D03*
X012852Y007285D03*
X012852Y007269D03*
X012852Y007253D03*
X012852Y007237D03*
X012852Y007221D03*
X012852Y007205D03*
X012852Y007189D03*
X012852Y007173D03*
X012852Y007157D03*
X012852Y007141D03*
X012852Y007125D03*
X012852Y007109D03*
X012852Y007093D03*
X012852Y007077D03*
X012852Y007061D03*
X012852Y007045D03*
X012852Y007029D03*
X012852Y007013D03*
X012852Y006997D03*
X012852Y006981D03*
X012852Y006965D03*
X012852Y006949D03*
X012852Y006933D03*
X012852Y006917D03*
X012852Y006901D03*
X012852Y006885D03*
X012852Y006869D03*
X012852Y006853D03*
X012852Y006837D03*
X012852Y006821D03*
X012852Y006805D03*
X012852Y006789D03*
X012852Y006773D03*
X012852Y006757D03*
X012852Y006741D03*
X012852Y006725D03*
X012852Y006709D03*
X012852Y006693D03*
X012852Y006677D03*
X012852Y006661D03*
X012852Y006645D03*
X012852Y006629D03*
X012852Y006613D03*
X012852Y006597D03*
X012852Y006581D03*
X012852Y006565D03*
X012852Y006549D03*
X012852Y006533D03*
X012852Y006517D03*
X012852Y006501D03*
X012852Y006485D03*
X012852Y006469D03*
X012852Y006453D03*
X013140Y006453D03*
X013140Y006469D03*
X013140Y006485D03*
X013140Y006501D03*
X013140Y006517D03*
X013140Y006533D03*
X013140Y006549D03*
X013140Y006565D03*
X013140Y006581D03*
X013140Y006597D03*
X013140Y006613D03*
X013140Y006629D03*
X013140Y006645D03*
X013140Y006661D03*
X013140Y006677D03*
X013140Y006693D03*
X013140Y006709D03*
X013140Y006725D03*
X013140Y006741D03*
X013140Y006757D03*
X013140Y006773D03*
X013140Y006789D03*
X013140Y006805D03*
X013140Y006821D03*
X013140Y006837D03*
X013140Y006853D03*
X013140Y006869D03*
X013140Y006885D03*
X013140Y006901D03*
X013140Y006917D03*
X013140Y006933D03*
X013140Y006949D03*
X013140Y006965D03*
X013140Y006981D03*
X013140Y006997D03*
X013140Y007013D03*
X013140Y007029D03*
X013140Y007045D03*
X013140Y007061D03*
X013140Y007077D03*
X013140Y007093D03*
X013140Y007109D03*
X013140Y007125D03*
X013140Y007141D03*
X013140Y007157D03*
X013140Y007173D03*
X013140Y007189D03*
X013140Y007205D03*
X013140Y007221D03*
X013140Y007237D03*
X013140Y007253D03*
X013140Y007269D03*
X013140Y007285D03*
X013140Y007301D03*
X013140Y007317D03*
X013140Y007333D03*
X013140Y007349D03*
X013140Y007365D03*
X013140Y007381D03*
X013140Y007397D03*
X013140Y007413D03*
X013140Y007429D03*
X013140Y007445D03*
X013140Y007461D03*
X013140Y007477D03*
X013140Y007493D03*
X013140Y007509D03*
X013140Y007525D03*
X013140Y007541D03*
X013140Y007557D03*
X012580Y007557D03*
X012564Y007189D03*
X012564Y006853D03*
X012292Y006597D03*
X012356Y006517D03*
X012100Y006421D03*
X012100Y006405D03*
X012100Y006389D03*
X012100Y006373D03*
X012100Y006357D03*
X012100Y006341D03*
X012100Y006325D03*
X012100Y006309D03*
X012100Y006293D03*
X012100Y006277D03*
X012100Y006261D03*
X012100Y006245D03*
X012100Y006229D03*
X012100Y006213D03*
X012100Y006197D03*
X012100Y006181D03*
X012100Y006165D03*
X012100Y006149D03*
X012100Y006133D03*
X012100Y006117D03*
X012100Y006101D03*
X012100Y006085D03*
X012100Y006069D03*
X012100Y006053D03*
X012100Y006037D03*
X012100Y006021D03*
X012100Y006005D03*
X012100Y005989D03*
X012100Y005973D03*
X012100Y005957D03*
X012100Y005941D03*
X012100Y005925D03*
X012100Y005909D03*
X012100Y005893D03*
X012100Y005877D03*
X012100Y005477D03*
X011060Y006309D03*
X011060Y006325D03*
X011060Y006341D03*
X011060Y006357D03*
X011060Y006373D03*
X011060Y006389D03*
X011060Y006405D03*
X011060Y006421D03*
X011060Y006437D03*
X011812Y007253D03*
X011620Y007557D03*
X013140Y006437D03*
X013140Y006421D03*
X013140Y006405D03*
X013140Y006389D03*
X013140Y006373D03*
X013140Y006357D03*
X013140Y006341D03*
X013140Y006325D03*
X013140Y006309D03*
X013716Y006677D03*
X013716Y006693D03*
X013716Y006709D03*
X013716Y006741D03*
X013716Y006757D03*
X013716Y006773D03*
X013716Y006805D03*
X013716Y006821D03*
X013716Y006837D03*
X013716Y006869D03*
X013716Y006885D03*
X013716Y006901D03*
X013716Y006933D03*
X013716Y006949D03*
X013716Y006965D03*
X013716Y006997D03*
X013716Y007013D03*
X013716Y007029D03*
X013716Y007061D03*
X013716Y007077D03*
X013716Y007093D03*
X013716Y007125D03*
X013908Y006885D03*
X014004Y006741D03*
X014036Y006693D03*
X013780Y006677D03*
X014564Y006629D03*
X014580Y006661D03*
X014580Y006677D03*
X014596Y006709D03*
X014596Y006725D03*
X014612Y006757D03*
X014628Y006789D03*
X014628Y006805D03*
X014644Y006837D03*
X014644Y006853D03*
X014676Y006933D03*
X014692Y006965D03*
X014692Y006981D03*
X014708Y007013D03*
X014724Y007061D03*
X014804Y007061D03*
X014804Y007045D03*
X014820Y007013D03*
X014836Y006965D03*
X014844Y006949D03*
X014852Y006933D03*
X014852Y006917D03*
X014884Y006853D03*
X014884Y006837D03*
X014900Y006805D03*
X014916Y006757D03*
X014932Y006725D03*
X014932Y006709D03*
X014948Y006677D03*
X014948Y006661D03*
X014964Y006629D03*
X015364Y006645D03*
X015364Y006661D03*
X015364Y006677D03*
X015364Y006693D03*
X015364Y006709D03*
X015364Y006725D03*
X015364Y006741D03*
X015364Y006757D03*
X015364Y006773D03*
X015364Y006789D03*
X015364Y006805D03*
X015364Y006821D03*
X015364Y006837D03*
X015364Y006853D03*
X015364Y006869D03*
X015364Y006885D03*
X015364Y006901D03*
X015364Y006917D03*
X015364Y006933D03*
X015364Y006949D03*
X015364Y006965D03*
X015364Y006981D03*
X015364Y006997D03*
X015364Y007013D03*
X015364Y007029D03*
X015364Y007045D03*
X015364Y007061D03*
X015364Y007077D03*
X015684Y007077D03*
X015684Y007093D03*
X016076Y007093D03*
X016076Y007077D03*
X016076Y007061D03*
X016076Y007029D03*
X016076Y007013D03*
X016076Y006997D03*
X016076Y006965D03*
X016076Y006949D03*
X016076Y006933D03*
X016076Y006901D03*
X016076Y006885D03*
X016076Y006805D03*
X016076Y006773D03*
X016076Y006757D03*
X016076Y006741D03*
X016076Y006709D03*
X016076Y006693D03*
X016076Y006677D03*
X016076Y006645D03*
X016076Y006629D03*
X016076Y006613D03*
X015684Y006645D03*
X015684Y006661D03*
X016076Y007125D03*
X016428Y007125D03*
X016428Y007109D03*
X016428Y007093D03*
X016428Y007077D03*
X016428Y007061D03*
X016428Y007045D03*
X016428Y007029D03*
X016428Y007013D03*
X016428Y006997D03*
X016428Y006981D03*
X016428Y006965D03*
X016428Y006949D03*
X016428Y006933D03*
X016428Y006917D03*
X016428Y006901D03*
X016428Y006885D03*
X016428Y006805D03*
X016428Y006789D03*
X016428Y006773D03*
X016428Y006757D03*
X016428Y006741D03*
X016428Y006725D03*
X016428Y006709D03*
X016428Y006693D03*
X016428Y006677D03*
X016428Y006661D03*
X016428Y006645D03*
X016428Y006629D03*
X016428Y006613D03*
X016852Y006613D03*
X016852Y006629D03*
X016852Y006645D03*
X016852Y006661D03*
X016852Y006677D03*
X016852Y006693D03*
X016852Y006709D03*
X016852Y006725D03*
X016852Y006741D03*
X016852Y006757D03*
X016852Y006773D03*
X016852Y006789D03*
X016852Y006805D03*
X016852Y006821D03*
X016852Y006837D03*
X016852Y006853D03*
X016852Y006869D03*
X016852Y006885D03*
X016852Y006901D03*
X016852Y006917D03*
X016852Y006933D03*
X016852Y006949D03*
X016852Y006965D03*
X016852Y006981D03*
X016852Y006997D03*
X016852Y007013D03*
X016852Y007029D03*
X016852Y007045D03*
X016852Y007061D03*
X016852Y007077D03*
X016852Y007093D03*
X016852Y007109D03*
X016852Y007125D03*
X017284Y007125D03*
X017284Y007109D03*
X017284Y007093D03*
X017284Y007077D03*
X017284Y007061D03*
X017284Y007045D03*
X017284Y007029D03*
X017284Y007013D03*
X017284Y006997D03*
X017284Y006981D03*
X017284Y006965D03*
X017284Y006949D03*
X017284Y006933D03*
X017284Y006917D03*
X017284Y006901D03*
X017284Y006885D03*
X017284Y006869D03*
X017284Y006853D03*
X017284Y006837D03*
X017284Y006821D03*
X017284Y006805D03*
X017284Y006789D03*
X017284Y006773D03*
X017284Y006757D03*
X017284Y006741D03*
X017284Y006725D03*
X017284Y006709D03*
X017364Y006725D03*
X017380Y006757D03*
X017444Y006869D03*
X017508Y006981D03*
X017524Y007013D03*
X017540Y007045D03*
X017604Y007045D03*
X017604Y007029D03*
X017604Y007013D03*
X017604Y006997D03*
X017604Y006981D03*
X017604Y006965D03*
X017604Y006949D03*
X017604Y006933D03*
X017604Y006917D03*
X017604Y006901D03*
X017604Y006885D03*
X017604Y006869D03*
X017604Y006853D03*
X017604Y006837D03*
X017604Y006821D03*
X017604Y006805D03*
X017604Y006789D03*
X017604Y006773D03*
X017604Y006757D03*
X017604Y006741D03*
X017604Y006725D03*
X017604Y006709D03*
X017604Y006693D03*
X017604Y006677D03*
X017604Y006661D03*
X017604Y006645D03*
X017604Y006629D03*
X017604Y006613D03*
X018356Y006613D03*
X018356Y006629D03*
X018356Y006645D03*
X018356Y006661D03*
X018356Y006677D03*
X018724Y006677D03*
X018724Y006693D03*
X018724Y006709D03*
X018724Y006725D03*
X018724Y006741D03*
X018724Y006757D03*
X018740Y006789D03*
X018724Y006661D03*
X018740Y006629D03*
X019124Y006629D03*
X019140Y006661D03*
X019140Y006933D03*
X019140Y006949D03*
X019140Y006965D03*
X019140Y006981D03*
X019140Y006997D03*
X019140Y007013D03*
X019140Y007029D03*
X019140Y007045D03*
X019140Y007061D03*
X018724Y007061D03*
X018356Y007061D03*
X018356Y007077D03*
X018356Y007093D03*
X018356Y007109D03*
X018356Y007125D03*
X005716Y006661D03*
X005700Y006629D03*
X005396Y006629D03*
D11*
X005412Y006637D03*
X005412Y006653D03*
X005428Y006621D03*
X005452Y006613D03*
X005460Y006605D03*
X005444Y006557D03*
X005452Y006549D03*
X005396Y006589D03*
X005380Y006605D03*
X005380Y006621D03*
X005364Y006637D03*
X005364Y006653D03*
X005364Y006701D03*
X005364Y006717D03*
X005364Y006765D03*
X005364Y006781D03*
X005364Y006829D03*
X005364Y006845D03*
X005364Y006893D03*
X005364Y006909D03*
X005364Y006957D03*
X005364Y006973D03*
X005364Y007021D03*
X005364Y007037D03*
X005364Y007085D03*
X005364Y007101D03*
X005380Y007117D03*
X005396Y007149D03*
X005428Y007165D03*
X005484Y007189D03*
X005500Y007189D03*
X005516Y007189D03*
X005532Y007189D03*
X005548Y007189D03*
X005564Y007189D03*
X005580Y007189D03*
X005596Y007189D03*
X005612Y007189D03*
X005604Y007133D03*
X005588Y007133D03*
X005572Y007133D03*
X005556Y007133D03*
X005540Y007133D03*
X005524Y007133D03*
X005508Y007133D03*
X005492Y007133D03*
X005412Y007085D03*
X005412Y007021D03*
X005412Y006957D03*
X005412Y006893D03*
X005412Y006829D03*
X005412Y006765D03*
X005412Y006701D03*
X005636Y006605D03*
X005668Y006621D03*
X005684Y006637D03*
X005684Y006653D03*
X005692Y006677D03*
X005708Y006677D03*
X005724Y006677D03*
X005740Y006677D03*
X005732Y006653D03*
X005732Y006637D03*
X005716Y006605D03*
X005700Y006589D03*
X005668Y006557D03*
X005652Y006557D03*
X006020Y006557D03*
X006052Y006605D03*
X006052Y006621D03*
X006052Y006669D03*
X006052Y006685D03*
X006052Y006733D03*
X006052Y006749D03*
X006052Y006797D03*
X006052Y006813D03*
X006052Y006861D03*
X006052Y006877D03*
X006052Y006925D03*
X006052Y006941D03*
X006052Y006989D03*
X006052Y007005D03*
X006052Y007053D03*
X006052Y007069D03*
X006052Y007117D03*
X006052Y007133D03*
X006036Y007133D03*
X006028Y007189D03*
X006044Y007189D03*
X006060Y007189D03*
X006076Y007189D03*
X006092Y007189D03*
X006108Y007189D03*
X006124Y007189D03*
X006132Y007181D03*
X006116Y007133D03*
X006100Y007133D03*
X006100Y007117D03*
X006100Y007069D03*
X006100Y007053D03*
X006100Y007005D03*
X006100Y006989D03*
X006100Y006941D03*
X006100Y006925D03*
X006100Y006877D03*
X006100Y006813D03*
X006100Y006797D03*
X006100Y006749D03*
X006100Y006733D03*
X006100Y006685D03*
X006100Y006669D03*
X006100Y006621D03*
X006100Y006605D03*
X006340Y006605D03*
X006372Y006621D03*
X006388Y006653D03*
X006420Y006621D03*
X006404Y006589D03*
X006356Y006557D03*
X006348Y006549D03*
X006388Y006701D03*
X006388Y006717D03*
X006388Y006765D03*
X006420Y006797D03*
X006404Y006829D03*
X006356Y006861D03*
X006348Y006869D03*
X006332Y006869D03*
X006308Y006893D03*
X006324Y006925D03*
X006340Y006957D03*
X006340Y006973D03*
X006356Y006989D03*
X006356Y007005D03*
X006372Y007021D03*
X006372Y007037D03*
X006388Y007053D03*
X006388Y007069D03*
X006404Y007101D03*
X006420Y007133D03*
X006436Y007133D03*
X006452Y007133D03*
X006452Y007181D03*
X006444Y007189D03*
X006428Y007189D03*
X006412Y007189D03*
X006396Y007189D03*
X006380Y007189D03*
X006364Y007189D03*
X006356Y007165D03*
X006356Y007149D03*
X006356Y007133D03*
X006372Y007133D03*
X006356Y007101D03*
X006340Y007069D03*
X006324Y007037D03*
X006308Y007005D03*
X006308Y006989D03*
X006292Y006973D03*
X006292Y006957D03*
X006276Y006941D03*
X006276Y006925D03*
X006260Y006893D03*
X006340Y006813D03*
X006436Y006765D03*
X006436Y006717D03*
X006436Y006701D03*
X006772Y006589D03*
X006772Y006573D03*
X006804Y006637D03*
X006804Y006653D03*
X006804Y006701D03*
X006804Y006717D03*
X006804Y006765D03*
X006804Y006781D03*
X006804Y006829D03*
X006804Y006845D03*
X006804Y006893D03*
X006804Y006909D03*
X006804Y006957D03*
X006804Y006973D03*
X006804Y007021D03*
X006804Y007037D03*
X006804Y007085D03*
X006804Y007101D03*
X006788Y007133D03*
X006772Y007133D03*
X006772Y007149D03*
X006772Y007165D03*
X006780Y007189D03*
X006796Y007189D03*
X006812Y007189D03*
X006828Y007189D03*
X006844Y007189D03*
X006860Y007189D03*
X006876Y007189D03*
X006892Y007189D03*
X006908Y007189D03*
X006924Y007189D03*
X006940Y007189D03*
X006956Y007189D03*
X006972Y007189D03*
X006988Y007189D03*
X007004Y007189D03*
X007020Y007189D03*
X007036Y007189D03*
X007052Y007189D03*
X007068Y007189D03*
X007084Y007189D03*
X007100Y007189D03*
X007116Y007189D03*
X007132Y007189D03*
X007148Y007189D03*
X007164Y007189D03*
X007180Y007189D03*
X007140Y007133D03*
X007124Y007133D03*
X007108Y007133D03*
X007092Y007133D03*
X007076Y007133D03*
X007060Y007133D03*
X007044Y007133D03*
X007028Y007133D03*
X007012Y007133D03*
X006996Y007133D03*
X006980Y007133D03*
X006964Y007133D03*
X006948Y007133D03*
X006932Y007133D03*
X006916Y007133D03*
X006900Y007133D03*
X006884Y007133D03*
X006868Y007133D03*
X007140Y007117D03*
X007140Y007069D03*
X007140Y007053D03*
X007156Y007053D03*
X007172Y007053D03*
X007036Y006869D03*
X007044Y006845D03*
X007044Y006829D03*
X007140Y006685D03*
X007156Y006685D03*
X007172Y006685D03*
X007140Y006669D03*
X007140Y006621D03*
X007140Y006605D03*
X007476Y006589D03*
X007476Y006573D03*
X007524Y006605D03*
X007524Y006621D03*
X007524Y006669D03*
X007524Y006685D03*
X007524Y006733D03*
X007524Y006749D03*
X007524Y006797D03*
X007524Y006813D03*
X007524Y006861D03*
X007524Y006877D03*
X007524Y006925D03*
X007524Y006941D03*
X007524Y006989D03*
X007524Y007005D03*
X007524Y007053D03*
X007524Y007069D03*
X007524Y007117D03*
X007524Y007133D03*
X007508Y007133D03*
X007492Y007133D03*
X007476Y007133D03*
X007476Y007149D03*
X007476Y007165D03*
X007484Y007189D03*
X007500Y007189D03*
X007516Y007189D03*
X007532Y007189D03*
X007548Y007189D03*
X007564Y007189D03*
X007580Y007189D03*
X007596Y007189D03*
X007612Y007189D03*
X007628Y007189D03*
X007644Y007189D03*
X007660Y007189D03*
X007676Y007189D03*
X007692Y007189D03*
X007708Y007189D03*
X007724Y007189D03*
X007740Y007189D03*
X007756Y007189D03*
X007772Y007189D03*
X007796Y007181D03*
X007780Y007133D03*
X007788Y007125D03*
X007764Y007133D03*
X007748Y007133D03*
X007732Y007133D03*
X007716Y007133D03*
X007700Y007133D03*
X007684Y007133D03*
X007668Y007133D03*
X007652Y007133D03*
X007636Y007133D03*
X007620Y007133D03*
X007604Y007133D03*
X007588Y007133D03*
X007572Y007133D03*
X007572Y007117D03*
X007572Y007053D03*
X007572Y006989D03*
X007572Y006925D03*
X007572Y006861D03*
X007572Y006797D03*
X007572Y006733D03*
X007572Y006669D03*
X007572Y006605D03*
X007828Y006637D03*
X007844Y006669D03*
X007844Y006685D03*
X007844Y006733D03*
X007844Y006749D03*
X007844Y006797D03*
X007844Y006813D03*
X007844Y006861D03*
X007844Y006877D03*
X007844Y006925D03*
X007844Y006941D03*
X007844Y006989D03*
X007844Y007005D03*
X007844Y007053D03*
X007844Y007069D03*
X007828Y007101D03*
X007812Y007117D03*
X007844Y007149D03*
X007860Y007133D03*
X007876Y007101D03*
X007892Y007053D03*
X007892Y007005D03*
X007892Y006989D03*
X007892Y006941D03*
X007892Y006925D03*
X007892Y006877D03*
X007892Y006861D03*
X007892Y006813D03*
X007892Y006797D03*
X007892Y006749D03*
X007892Y006733D03*
X007892Y006685D03*
X007892Y006669D03*
X007844Y006573D03*
X008220Y006597D03*
X008260Y006605D03*
X008260Y006621D03*
X008260Y006669D03*
X008260Y006685D03*
X008260Y006733D03*
X008260Y006749D03*
X008260Y006797D03*
X008260Y006813D03*
X008260Y006861D03*
X008260Y006877D03*
X008260Y006925D03*
X008260Y006941D03*
X008260Y006989D03*
X008260Y007005D03*
X008260Y007053D03*
X008260Y007069D03*
X008260Y007117D03*
X008260Y007133D03*
X008244Y007133D03*
X008228Y007133D03*
X008228Y007181D03*
X008236Y007189D03*
X008252Y007189D03*
X008268Y007189D03*
X008284Y007189D03*
X008300Y007189D03*
X008316Y007189D03*
X008332Y007189D03*
X008324Y007165D03*
X008324Y007149D03*
X008324Y007133D03*
X008308Y007133D03*
X008652Y007189D03*
X008668Y007189D03*
X008684Y007189D03*
X008700Y007189D03*
X008716Y007189D03*
X008732Y007189D03*
X008748Y007189D03*
X008764Y007189D03*
X008780Y007189D03*
X008796Y007189D03*
X008812Y007189D03*
X008828Y007189D03*
X008844Y007189D03*
X008860Y007189D03*
X008876Y007189D03*
X008892Y007189D03*
X008908Y007189D03*
X008924Y007189D03*
X008940Y007189D03*
X008956Y007189D03*
X008972Y007189D03*
X008980Y007181D03*
X008964Y007133D03*
X008972Y007125D03*
X008996Y007117D03*
X009012Y007101D03*
X009012Y007085D03*
X009060Y007085D03*
X009060Y007101D03*
X009044Y007133D03*
X009028Y007149D03*
X009060Y007037D03*
X009060Y007021D03*
X009060Y006973D03*
X009060Y006957D03*
X009060Y006909D03*
X009060Y006893D03*
X009044Y006861D03*
X009028Y006845D03*
X008996Y006877D03*
X009012Y006893D03*
X009012Y006909D03*
X008964Y006861D03*
X008964Y006797D03*
X009012Y006765D03*
X009044Y006797D03*
X009060Y006765D03*
X009060Y006717D03*
X009060Y006701D03*
X009060Y006653D03*
X009060Y006637D03*
X009044Y006605D03*
X009028Y006589D03*
X008996Y006621D03*
X009012Y006637D03*
X009012Y006653D03*
X008996Y006557D03*
X008980Y006557D03*
X008692Y006637D03*
X008692Y006653D03*
X008692Y006701D03*
X008692Y006717D03*
X008692Y006765D03*
X008692Y006781D03*
X008692Y006829D03*
X008692Y006845D03*
X008692Y006893D03*
X008692Y006909D03*
X008692Y006957D03*
X008692Y006973D03*
X008692Y007021D03*
X008692Y007037D03*
X008692Y007085D03*
X008692Y007101D03*
X008660Y007149D03*
X008660Y007165D03*
X008332Y006597D03*
X008324Y006589D03*
X008324Y006573D03*
X008228Y006557D03*
X008660Y006573D03*
X008660Y006589D03*
X009380Y006557D03*
X009412Y006605D03*
X009412Y006621D03*
X009412Y006669D03*
X009412Y006685D03*
X009412Y006733D03*
X009412Y006749D03*
X009412Y006797D03*
X009412Y006813D03*
X009412Y006861D03*
X009412Y006877D03*
X009412Y006925D03*
X009412Y006941D03*
X009412Y006989D03*
X009412Y007005D03*
X009412Y007053D03*
X009412Y007069D03*
X009412Y007117D03*
X009412Y007133D03*
X009396Y007133D03*
X009380Y007133D03*
X009380Y007181D03*
X009388Y007189D03*
X009404Y007189D03*
X009420Y007189D03*
X009436Y007189D03*
X009452Y007189D03*
X009468Y007189D03*
X009484Y007189D03*
X009500Y007189D03*
X009516Y007189D03*
X009532Y007189D03*
X009548Y007189D03*
X009564Y007189D03*
X009580Y007189D03*
X009596Y007189D03*
X009612Y007189D03*
X009628Y007189D03*
X009644Y007189D03*
X009660Y007189D03*
X009676Y007189D03*
X009692Y007189D03*
X009708Y007189D03*
X009724Y007189D03*
X009740Y007189D03*
X009756Y007189D03*
X009772Y007189D03*
X009788Y007189D03*
X009796Y007165D03*
X009796Y007149D03*
X009796Y007101D03*
X009796Y007085D03*
X009796Y007053D03*
X009780Y007053D03*
X009764Y007053D03*
X009748Y007053D03*
X009748Y007085D03*
X009748Y007101D03*
X009732Y007133D03*
X009716Y007133D03*
X009700Y007133D03*
X009684Y007133D03*
X009668Y007133D03*
X009652Y007133D03*
X009636Y007133D03*
X009620Y007133D03*
X009604Y007133D03*
X009588Y007133D03*
X009572Y007133D03*
X009556Y007133D03*
X009540Y007133D03*
X009524Y007133D03*
X009508Y007133D03*
X009492Y007133D03*
X009476Y007133D03*
X009460Y007133D03*
X009460Y007117D03*
X009460Y007053D03*
X009460Y006989D03*
X009460Y006925D03*
X009460Y006861D03*
X009460Y006797D03*
X009460Y006733D03*
X009460Y006669D03*
X009460Y006605D03*
X009484Y006597D03*
X010076Y006597D03*
X010084Y006557D03*
X010148Y006637D03*
X010148Y006653D03*
X010148Y006701D03*
X010148Y006717D03*
X010148Y006765D03*
X010148Y006781D03*
X010148Y006893D03*
X010148Y006909D03*
X010148Y006957D03*
X010148Y006973D03*
X010148Y007021D03*
X010148Y007037D03*
X010148Y007085D03*
X010148Y007101D03*
X010164Y007133D03*
X010180Y007133D03*
X010196Y007133D03*
X010212Y007133D03*
X010228Y007133D03*
X010244Y007133D03*
X010260Y007133D03*
X010276Y007133D03*
X010292Y007133D03*
X010308Y007133D03*
X010324Y007133D03*
X010340Y007133D03*
X010356Y007133D03*
X010372Y007133D03*
X010388Y007133D03*
X010404Y007133D03*
X010420Y007133D03*
X010436Y007133D03*
X010484Y007133D03*
X010484Y007117D03*
X010484Y007069D03*
X010484Y007053D03*
X010468Y007053D03*
X010452Y007053D03*
X010484Y007181D03*
X010476Y007189D03*
X010460Y007189D03*
X010444Y007189D03*
X010428Y007189D03*
X010412Y007189D03*
X010396Y007189D03*
X010380Y007189D03*
X010364Y007189D03*
X010348Y007189D03*
X010332Y007189D03*
X010316Y007189D03*
X010300Y007189D03*
X010284Y007189D03*
X010268Y007189D03*
X010252Y007189D03*
X010236Y007189D03*
X010220Y007189D03*
X010204Y007189D03*
X010188Y007189D03*
X010172Y007189D03*
X010156Y007189D03*
X010140Y007189D03*
X010124Y007189D03*
X010108Y007189D03*
X010092Y007189D03*
X010084Y007181D03*
X010084Y007133D03*
X010452Y006685D03*
X010468Y006685D03*
X010484Y006685D03*
X010484Y006669D03*
X010484Y006621D03*
X010484Y006605D03*
X010484Y006557D03*
X011044Y006557D03*
X011044Y006541D03*
X011076Y006525D03*
X011076Y006509D03*
X011044Y006493D03*
X011044Y006477D03*
X011076Y006461D03*
X011076Y006445D03*
X011044Y006429D03*
X011044Y006413D03*
X011076Y006397D03*
X011076Y006381D03*
X011044Y006365D03*
X011044Y006349D03*
X011076Y006333D03*
X011076Y006317D03*
X011044Y006301D03*
X011044Y006285D03*
X011044Y006237D03*
X011108Y006253D03*
X011140Y006269D03*
X011156Y006285D03*
X011188Y006301D03*
X011204Y006317D03*
X011236Y006333D03*
X011252Y006349D03*
X011284Y006365D03*
X011300Y006381D03*
X011332Y006397D03*
X011300Y006429D03*
X011316Y006445D03*
X011364Y006445D03*
X011364Y006461D03*
X011364Y006509D03*
X011364Y006525D03*
X011364Y006573D03*
X011364Y006589D03*
X011364Y006637D03*
X011364Y006653D03*
X011364Y006701D03*
X011364Y006717D03*
X011364Y006765D03*
X011364Y006781D03*
X011364Y006829D03*
X011364Y006845D03*
X011364Y006893D03*
X011364Y006909D03*
X011364Y006957D03*
X011364Y006973D03*
X011364Y007021D03*
X011364Y007037D03*
X011364Y007085D03*
X011364Y007101D03*
X011364Y007149D03*
X011364Y007165D03*
X011364Y007213D03*
X011364Y007229D03*
X011364Y007277D03*
X011364Y007293D03*
X011364Y007341D03*
X011364Y007357D03*
X011364Y007405D03*
X011364Y007421D03*
X011364Y007469D03*
X011364Y007485D03*
X011364Y007533D03*
X011364Y007549D03*
X011364Y007597D03*
X011364Y007613D03*
X011364Y007661D03*
X011364Y007677D03*
X011396Y007693D03*
X011428Y007725D03*
X011380Y007757D03*
X011340Y007781D03*
X011332Y007773D03*
X011300Y007757D03*
X011284Y007741D03*
X011252Y007725D03*
X011236Y007709D03*
X011212Y007701D03*
X011204Y007693D03*
X011188Y007677D03*
X011156Y007661D03*
X011140Y007645D03*
X011116Y007637D03*
X011108Y007629D03*
X011092Y007613D03*
X011060Y007597D03*
X011044Y007581D03*
X011044Y007565D03*
X011076Y007549D03*
X011076Y007533D03*
X011092Y007565D03*
X011124Y007581D03*
X011172Y007613D03*
X011188Y007629D03*
X011220Y007645D03*
X011236Y007661D03*
X011268Y007677D03*
X011284Y007693D03*
X011444Y007661D03*
X011476Y007693D03*
X011524Y007661D03*
X011492Y007629D03*
X011540Y007597D03*
X011572Y007629D03*
X011620Y007597D03*
X011636Y007581D03*
X011604Y007549D03*
X011604Y007533D03*
X011588Y007565D03*
X011652Y007533D03*
X011652Y007469D03*
X011604Y007469D03*
X011604Y007485D03*
X011604Y007421D03*
X011604Y007405D03*
X011652Y007405D03*
X011652Y007341D03*
X011604Y007341D03*
X011604Y007357D03*
X011604Y007293D03*
X011604Y007277D03*
X011652Y007277D03*
X011652Y007213D03*
X011604Y007213D03*
X011604Y007229D03*
X011604Y007165D03*
X011604Y007149D03*
X011652Y007149D03*
X011604Y007101D03*
X011604Y007085D03*
X011604Y007037D03*
X011604Y007021D03*
X011652Y007021D03*
X011668Y007069D03*
X011684Y007085D03*
X011732Y007133D03*
X011748Y007149D03*
X011716Y007181D03*
X011796Y007165D03*
X011796Y007149D03*
X011796Y007101D03*
X011796Y007085D03*
X011796Y007037D03*
X011796Y007021D03*
X011796Y006973D03*
X011796Y006957D03*
X011796Y006909D03*
X011748Y006861D03*
X011732Y006829D03*
X011716Y006813D03*
X011748Y006781D03*
X011764Y006813D03*
X011780Y006829D03*
X011796Y006829D03*
X011796Y006781D03*
X011796Y006765D03*
X011796Y006717D03*
X011796Y006701D03*
X011796Y006653D03*
X011796Y006637D03*
X011796Y006589D03*
X011796Y006573D03*
X011796Y006525D03*
X011796Y006509D03*
X011796Y006461D03*
X011796Y006445D03*
X011780Y006429D03*
X011732Y006381D03*
X011716Y006365D03*
X011748Y006333D03*
X011764Y006349D03*
X011796Y006333D03*
X011796Y006317D03*
X011796Y006269D03*
X011796Y006253D03*
X011796Y006205D03*
X011796Y006189D03*
X011796Y006141D03*
X011796Y006125D03*
X011796Y006077D03*
X011796Y006061D03*
X011796Y006013D03*
X011796Y005997D03*
X011796Y005949D03*
X011796Y005933D03*
X011796Y005885D03*
X011796Y005869D03*
X011796Y005821D03*
X011796Y005805D03*
X011796Y005757D03*
X011796Y005741D03*
X011796Y005693D03*
X011796Y005677D03*
X011812Y005661D03*
X011860Y005629D03*
X011908Y005597D03*
X011956Y005565D03*
X012004Y005533D03*
X012052Y005501D03*
X012100Y005469D03*
X012132Y005485D03*
X012132Y005533D03*
X012148Y005549D03*
X012180Y005565D03*
X012196Y005581D03*
X012228Y005597D03*
X012244Y005613D03*
X012276Y005629D03*
X012292Y005645D03*
X012324Y005661D03*
X012340Y005677D03*
X012372Y005645D03*
X012324Y005613D03*
X012276Y005581D03*
X012228Y005549D03*
X012180Y005517D03*
X012292Y005709D03*
X012324Y005741D03*
X012276Y005773D03*
X012244Y005741D03*
X012196Y005773D03*
X012228Y005805D03*
X012180Y005837D03*
X012148Y005805D03*
X012132Y005869D03*
X012116Y005901D03*
X012116Y005917D03*
X012084Y005933D03*
X012084Y005949D03*
X012116Y005965D03*
X012116Y005981D03*
X012084Y005997D03*
X012084Y006013D03*
X012116Y006029D03*
X012116Y006045D03*
X012084Y006061D03*
X012084Y006077D03*
X012116Y006093D03*
X012116Y006109D03*
X012084Y006125D03*
X012084Y006141D03*
X012116Y006157D03*
X012116Y006173D03*
X012084Y006189D03*
X012084Y006205D03*
X012116Y006221D03*
X012116Y006237D03*
X012084Y006253D03*
X012084Y006269D03*
X012116Y006285D03*
X012116Y006301D03*
X012084Y006317D03*
X012084Y006333D03*
X012116Y006349D03*
X012116Y006365D03*
X012084Y006381D03*
X012084Y006397D03*
X012116Y006413D03*
X012116Y006429D03*
X012084Y006445D03*
X012084Y006461D03*
X012116Y006477D03*
X012116Y006493D03*
X012084Y006509D03*
X012084Y006525D03*
X012116Y006541D03*
X012116Y006557D03*
X012084Y006573D03*
X012084Y006589D03*
X012116Y006605D03*
X012116Y006621D03*
X012084Y006637D03*
X012084Y006653D03*
X012116Y006669D03*
X012116Y006685D03*
X012084Y006701D03*
X012084Y006717D03*
X012116Y006733D03*
X012116Y006749D03*
X012084Y006765D03*
X012084Y006781D03*
X012132Y006829D03*
X012148Y006813D03*
X012212Y006733D03*
X012228Y006717D03*
X012244Y006685D03*
X012196Y006685D03*
X012180Y006701D03*
X012260Y006605D03*
X012276Y006589D03*
X012276Y006573D03*
X012292Y006557D03*
X012324Y006589D03*
X012308Y006605D03*
X012292Y006637D03*
X012388Y006509D03*
X012404Y006493D03*
X012420Y006461D03*
X012356Y006477D03*
X012404Y006365D03*
X012404Y006349D03*
X012436Y006381D03*
X012452Y006365D03*
X012500Y006365D03*
X012468Y006413D03*
X012548Y006317D03*
X012564Y006285D03*
X012532Y006269D03*
X012516Y006285D03*
X012548Y006237D03*
X012596Y006205D03*
X012628Y006237D03*
X012644Y006269D03*
X012612Y006301D03*
X012660Y006333D03*
X012692Y006301D03*
X012740Y006333D03*
X012708Y006365D03*
X012756Y006397D03*
X012788Y006365D03*
X012836Y006397D03*
X012804Y006429D03*
X012836Y006477D03*
X012836Y006493D03*
X012836Y006541D03*
X012836Y006557D03*
X012836Y006605D03*
X012836Y006621D03*
X012836Y006669D03*
X012836Y006685D03*
X012836Y006733D03*
X012836Y006749D03*
X012836Y006797D03*
X012836Y006813D03*
X012836Y006861D03*
X012836Y006877D03*
X012836Y006925D03*
X012836Y006941D03*
X012836Y006989D03*
X012836Y007005D03*
X012836Y007053D03*
X012836Y007069D03*
X012836Y007117D03*
X012836Y007133D03*
X012836Y007181D03*
X012836Y007197D03*
X012836Y007245D03*
X012836Y007261D03*
X012836Y007309D03*
X012836Y007325D03*
X012836Y007373D03*
X012836Y007389D03*
X012836Y007437D03*
X012836Y007453D03*
X012836Y007501D03*
X012836Y007517D03*
X012836Y007565D03*
X012836Y007581D03*
X012836Y007629D03*
X012836Y007645D03*
X012836Y007693D03*
X012836Y007709D03*
X012820Y007709D03*
X012788Y007741D03*
X012796Y007749D03*
X012836Y007773D03*
X012844Y007781D03*
X012860Y007781D03*
X012772Y007677D03*
X012740Y007709D03*
X012700Y007685D03*
X012692Y007677D03*
X012724Y007645D03*
X012676Y007613D03*
X012644Y007645D03*
X012604Y007621D03*
X012596Y007613D03*
X012628Y007581D03*
X012596Y007517D03*
X012596Y007501D03*
X012548Y007501D03*
X012548Y007517D03*
X012548Y007565D03*
X012556Y007589D03*
X012548Y007453D03*
X012548Y007437D03*
X012596Y007437D03*
X012596Y007453D03*
X012596Y007389D03*
X012596Y007373D03*
X012548Y007373D03*
X012548Y007389D03*
X012548Y007325D03*
X012548Y007309D03*
X012516Y007277D03*
X012532Y007261D03*
X012548Y007261D03*
X012596Y007261D03*
X012596Y007245D03*
X012596Y007197D03*
X012596Y007181D03*
X012548Y007181D03*
X012548Y007133D03*
X012548Y007117D03*
X012596Y007117D03*
X012596Y007133D03*
X012596Y007069D03*
X012596Y007053D03*
X012548Y007053D03*
X012548Y007069D03*
X012548Y007005D03*
X012548Y006989D03*
X012516Y006957D03*
X012548Y006941D03*
X012596Y006941D03*
X012596Y006925D03*
X012596Y006877D03*
X012596Y006861D03*
X012564Y006845D03*
X012500Y006909D03*
X012484Y006925D03*
X012436Y006973D03*
X012420Y006989D03*
X012452Y007021D03*
X012468Y007005D03*
X012404Y007069D03*
X012356Y007069D03*
X012340Y007085D03*
X012372Y007117D03*
X012324Y007165D03*
X012308Y007181D03*
X012276Y007149D03*
X012292Y007133D03*
X012260Y007229D03*
X012244Y007245D03*
X012212Y007229D03*
X012196Y007245D03*
X012148Y007293D03*
X012132Y007309D03*
X012164Y007341D03*
X012180Y007325D03*
X012084Y007405D03*
X012084Y007421D03*
X012116Y007437D03*
X012116Y007453D03*
X012084Y007469D03*
X012084Y007485D03*
X012116Y007501D03*
X012116Y007517D03*
X012084Y007533D03*
X012084Y007549D03*
X012116Y007565D03*
X012116Y007581D03*
X012084Y007597D03*
X012084Y007613D03*
X012116Y007629D03*
X012116Y007645D03*
X012084Y007661D03*
X012084Y007677D03*
X012116Y007693D03*
X012116Y007709D03*
X012084Y007725D03*
X012084Y007741D03*
X012116Y007757D03*
X012116Y007773D03*
X012084Y007789D03*
X012084Y007805D03*
X012116Y007821D03*
X012116Y007837D03*
X012084Y007853D03*
X012084Y007869D03*
X012116Y007885D03*
X012116Y007901D03*
X012084Y007917D03*
X012084Y007933D03*
X012116Y007949D03*
X012116Y007965D03*
X012084Y007981D03*
X012084Y007997D03*
X012116Y008013D03*
X012116Y008029D03*
X012084Y008045D03*
X012084Y008061D03*
X012116Y008077D03*
X012116Y008093D03*
X012084Y008109D03*
X012084Y008125D03*
X012116Y008141D03*
X012116Y008157D03*
X012084Y008173D03*
X012084Y008189D03*
X012116Y008205D03*
X012116Y008221D03*
X012084Y008237D03*
X012148Y008237D03*
X012164Y008221D03*
X012196Y008205D03*
X012212Y008189D03*
X012244Y008173D03*
X012260Y008157D03*
X012292Y008141D03*
X012308Y008125D03*
X012340Y008109D03*
X012356Y008093D03*
X012388Y008125D03*
X012372Y008141D03*
X012340Y008157D03*
X012324Y008173D03*
X012292Y008189D03*
X012276Y008205D03*
X012244Y008221D03*
X012228Y008237D03*
X012196Y008253D03*
X012180Y008269D03*
X012148Y008285D03*
X012132Y008301D03*
X011796Y008109D03*
X011796Y008061D03*
X011796Y008045D03*
X011796Y007997D03*
X011796Y007981D03*
X011796Y007933D03*
X011796Y007917D03*
X011796Y007869D03*
X011796Y007853D03*
X011796Y007805D03*
X011796Y007789D03*
X011796Y007741D03*
X011796Y007725D03*
X011796Y007677D03*
X011796Y007661D03*
X011796Y007613D03*
X011796Y007597D03*
X011796Y007549D03*
X011796Y007533D03*
X011796Y007485D03*
X011796Y007469D03*
X011796Y007421D03*
X011796Y007405D03*
X011796Y007357D03*
X011796Y007341D03*
X011796Y007293D03*
X011796Y007277D03*
X011780Y007245D03*
X011876Y007149D03*
X011892Y007133D03*
X011908Y007101D03*
X011860Y007101D03*
X011924Y007021D03*
X011940Y007005D03*
X011988Y007005D03*
X011956Y007053D03*
X012004Y006925D03*
X012020Y006909D03*
X012020Y006893D03*
X012036Y006877D03*
X012068Y006909D03*
X012052Y006925D03*
X011700Y006733D03*
X011684Y006701D03*
X011668Y006685D03*
X011628Y006645D03*
X011604Y006701D03*
X011604Y006717D03*
X011604Y006765D03*
X011604Y006781D03*
X011604Y006829D03*
X011604Y006845D03*
X011604Y006893D03*
X011604Y006909D03*
X011604Y006957D03*
X011604Y006973D03*
X011652Y006957D03*
X011652Y006893D03*
X011652Y006829D03*
X011652Y006765D03*
X011412Y006413D03*
X011380Y006381D03*
X011428Y006349D03*
X011460Y006381D03*
X011508Y006349D03*
X011476Y006317D03*
X011524Y006285D03*
X011556Y006317D03*
X011604Y006285D03*
X011572Y006253D03*
X011556Y006221D03*
X011588Y006189D03*
X011636Y006221D03*
X011684Y006269D03*
X011700Y006285D03*
X011668Y006317D03*
X011652Y006301D03*
X011508Y006189D03*
X011540Y006157D03*
X011492Y006125D03*
X011460Y006157D03*
X011412Y006125D03*
X011444Y006093D03*
X011396Y006061D03*
X011364Y006093D03*
X011204Y006365D03*
X011220Y006381D03*
X011252Y006397D03*
X011268Y006413D03*
X011172Y006349D03*
X011156Y006333D03*
X011124Y006317D03*
X011108Y006301D03*
X011076Y006573D03*
X011076Y006589D03*
X011044Y006605D03*
X011044Y006621D03*
X011076Y006637D03*
X011076Y006653D03*
X011044Y006669D03*
X011044Y006685D03*
X011076Y006701D03*
X011076Y006717D03*
X011044Y006733D03*
X011044Y006749D03*
X011076Y006765D03*
X011076Y006781D03*
X011044Y006797D03*
X011044Y006813D03*
X011076Y006829D03*
X011076Y006845D03*
X011044Y006861D03*
X011044Y006877D03*
X011076Y006893D03*
X011076Y006909D03*
X011044Y006925D03*
X011044Y006941D03*
X011076Y006957D03*
X011076Y006973D03*
X011044Y006989D03*
X011044Y007005D03*
X011076Y007021D03*
X011076Y007037D03*
X011044Y007053D03*
X011044Y007069D03*
X011076Y007085D03*
X011076Y007101D03*
X011044Y007117D03*
X011044Y007133D03*
X011076Y007149D03*
X011076Y007165D03*
X011044Y007181D03*
X011044Y007197D03*
X011076Y007213D03*
X011076Y007229D03*
X011044Y007245D03*
X011044Y007261D03*
X011076Y007277D03*
X011076Y007293D03*
X011044Y007309D03*
X011044Y007325D03*
X011076Y007341D03*
X011076Y007357D03*
X011044Y007373D03*
X011044Y007389D03*
X011076Y007405D03*
X011076Y007421D03*
X011044Y007437D03*
X011044Y007453D03*
X011076Y007469D03*
X011076Y007485D03*
X011044Y007501D03*
X011044Y007517D03*
X012404Y007517D03*
X012404Y007501D03*
X012404Y007453D03*
X012404Y007437D03*
X012404Y007389D03*
X012452Y007341D03*
X012468Y007325D03*
X012436Y007293D03*
X012420Y007309D03*
X012484Y007245D03*
X012500Y007229D03*
X012596Y007309D03*
X012596Y007325D03*
X012404Y007565D03*
X012404Y007581D03*
X012404Y007629D03*
X012404Y007645D03*
X012404Y007693D03*
X012404Y007709D03*
X012404Y007757D03*
X012404Y007773D03*
X012404Y007821D03*
X012404Y007837D03*
X012404Y007885D03*
X012404Y007901D03*
X012404Y007949D03*
X012404Y007965D03*
X012404Y008013D03*
X012404Y008029D03*
X012404Y008077D03*
X012404Y008093D03*
X013124Y007517D03*
X013124Y007501D03*
X013156Y007485D03*
X013156Y007469D03*
X013124Y007453D03*
X013124Y007437D03*
X013156Y007421D03*
X013156Y007405D03*
X013124Y007389D03*
X013124Y007373D03*
X013156Y007357D03*
X013156Y007341D03*
X013124Y007325D03*
X013124Y007309D03*
X013156Y007293D03*
X013156Y007277D03*
X013124Y007261D03*
X013124Y007245D03*
X013156Y007229D03*
X013156Y007213D03*
X013124Y007197D03*
X013124Y007181D03*
X013156Y007165D03*
X013156Y007149D03*
X013124Y007133D03*
X013124Y007117D03*
X013156Y007101D03*
X013156Y007085D03*
X013124Y007069D03*
X013124Y007053D03*
X013156Y007037D03*
X013156Y007021D03*
X013124Y007005D03*
X013124Y006989D03*
X013156Y006973D03*
X013156Y006957D03*
X013124Y006941D03*
X013124Y006925D03*
X013156Y006909D03*
X013156Y006893D03*
X013124Y006877D03*
X013124Y006861D03*
X013156Y006845D03*
X013156Y006829D03*
X013124Y006813D03*
X013124Y006797D03*
X013156Y006781D03*
X013156Y006765D03*
X013124Y006749D03*
X013124Y006733D03*
X013156Y006717D03*
X013156Y006701D03*
X013124Y006685D03*
X013124Y006669D03*
X013156Y006653D03*
X013156Y006637D03*
X013124Y006621D03*
X013124Y006605D03*
X013156Y006589D03*
X013156Y006573D03*
X013124Y006557D03*
X013124Y006541D03*
X013156Y006525D03*
X013156Y006509D03*
X013124Y006493D03*
X013124Y006477D03*
X013156Y006461D03*
X013156Y006445D03*
X013124Y006429D03*
X013124Y006413D03*
X013156Y006397D03*
X013156Y006381D03*
X013124Y006365D03*
X013124Y006349D03*
X013156Y006333D03*
X013156Y006317D03*
X013124Y006301D03*
X013156Y006269D03*
X013156Y006253D03*
X013140Y006221D03*
X013092Y006237D03*
X013060Y006221D03*
X013044Y006205D03*
X013012Y006189D03*
X012996Y006173D03*
X012964Y006157D03*
X012948Y006141D03*
X012916Y006125D03*
X012900Y006109D03*
X012868Y006093D03*
X012900Y006061D03*
X012884Y006045D03*
X012836Y006045D03*
X012788Y006077D03*
X012820Y006109D03*
X012772Y006141D03*
X012740Y006109D03*
X012692Y006141D03*
X012724Y006173D03*
X012676Y006205D03*
X012644Y006173D03*
X012404Y006173D03*
X012404Y006157D03*
X012404Y006109D03*
X012404Y006093D03*
X012404Y006045D03*
X012404Y006029D03*
X012404Y005981D03*
X012404Y005965D03*
X012404Y005917D03*
X012404Y005901D03*
X012404Y005853D03*
X012404Y005837D03*
X012404Y005789D03*
X012404Y005773D03*
X012404Y005725D03*
X012404Y005709D03*
X012068Y005821D03*
X012036Y005853D03*
X012084Y005885D03*
X011988Y005821D03*
X012020Y005789D03*
X011972Y005757D03*
X011940Y005789D03*
X011892Y005757D03*
X011924Y005725D03*
X011876Y005693D03*
X012404Y006221D03*
X012404Y006237D03*
X012404Y006285D03*
X012404Y006301D03*
X012932Y006077D03*
X012948Y006093D03*
X012980Y006109D03*
X012996Y006125D03*
X013028Y006141D03*
X013044Y006157D03*
X013092Y006189D03*
X013652Y006573D03*
X013652Y006589D03*
X013660Y006613D03*
X013676Y006613D03*
X013684Y006637D03*
X013684Y006653D03*
X013684Y006701D03*
X013684Y006717D03*
X013684Y006765D03*
X013684Y006781D03*
X013684Y006829D03*
X013684Y006845D03*
X013684Y006893D03*
X013684Y006909D03*
X013684Y006957D03*
X013684Y006973D03*
X013684Y007021D03*
X013684Y007037D03*
X013684Y007085D03*
X013684Y007101D03*
X013732Y007101D03*
X013732Y007085D03*
X013732Y007037D03*
X013732Y007021D03*
X013732Y006973D03*
X013732Y006957D03*
X013732Y006909D03*
X013732Y006893D03*
X013732Y006845D03*
X013732Y006829D03*
X013732Y006781D03*
X013732Y006765D03*
X013732Y006717D03*
X013732Y006701D03*
X013764Y006685D03*
X013780Y006717D03*
X013796Y006749D03*
X013812Y006765D03*
X013828Y006797D03*
X013844Y006829D03*
X013860Y006765D03*
X013844Y006733D03*
X013828Y006717D03*
X013828Y006701D03*
X013812Y006685D03*
X013796Y006653D03*
X013732Y006557D03*
X013700Y006557D03*
X013668Y006557D03*
X014004Y006701D03*
X014020Y006685D03*
X014020Y006669D03*
X014036Y006653D03*
X014052Y006621D03*
X014068Y006685D03*
X014052Y006717D03*
X014036Y006733D03*
X014020Y006765D03*
X014100Y006765D03*
X014100Y006781D03*
X014100Y006829D03*
X014100Y006845D03*
X014100Y006893D03*
X014100Y006909D03*
X014100Y006957D03*
X014100Y006973D03*
X014100Y007021D03*
X014100Y007037D03*
X014100Y007085D03*
X014100Y007101D03*
X014148Y007101D03*
X014148Y007085D03*
X014148Y007037D03*
X014148Y007021D03*
X014148Y006973D03*
X014148Y006957D03*
X014148Y006909D03*
X014148Y006893D03*
X014148Y006845D03*
X014148Y006829D03*
X014148Y006781D03*
X014148Y006765D03*
X014148Y006717D03*
X014148Y006701D03*
X014100Y006701D03*
X014100Y006717D03*
X014148Y006653D03*
X014148Y006637D03*
X014172Y006613D03*
X014180Y006573D03*
X014148Y006557D03*
X014116Y006557D03*
X013924Y006813D03*
X013956Y006845D03*
X013940Y006877D03*
X013924Y006909D03*
X013908Y006909D03*
X013908Y006925D03*
X013764Y007149D03*
X013764Y007165D03*
X013756Y007189D03*
X014068Y007165D03*
X014068Y007149D03*
X014172Y007189D03*
X014644Y006909D03*
X014660Y006941D03*
X014708Y006941D03*
X014708Y006861D03*
X014692Y006861D03*
X014676Y006861D03*
X014660Y006829D03*
X014628Y006861D03*
X014628Y006877D03*
X014612Y006829D03*
X014596Y006797D03*
X014612Y006685D03*
X014596Y006653D03*
X014596Y006637D03*
X014580Y006621D03*
X014604Y006613D03*
X014596Y006589D03*
X014596Y006573D03*
X014596Y006557D03*
X014564Y006557D03*
X014532Y006557D03*
X014500Y006557D03*
X014500Y006605D03*
X014492Y006613D03*
X014508Y006613D03*
X014532Y006621D03*
X014548Y006653D03*
X014564Y006685D03*
X014724Y006861D03*
X014740Y006861D03*
X014756Y006861D03*
X014772Y006861D03*
X014788Y006861D03*
X014804Y006861D03*
X014820Y006861D03*
X014836Y006861D03*
X014852Y006861D03*
X014868Y006829D03*
X014900Y006861D03*
X014900Y006877D03*
X014884Y006893D03*
X014884Y006909D03*
X014868Y006941D03*
X014820Y006941D03*
X014740Y007053D03*
X014708Y007085D03*
X014724Y007117D03*
X014724Y007133D03*
X014804Y007117D03*
X014820Y007149D03*
X014812Y007189D03*
X014820Y007085D03*
X014692Y007053D03*
X014916Y006829D03*
X014916Y006685D03*
X014932Y006653D03*
X014932Y006637D03*
X014948Y006621D03*
X014932Y006589D03*
X014932Y006573D03*
X014948Y006557D03*
X014980Y006557D03*
X015012Y006557D03*
X015028Y006605D03*
X015020Y006613D03*
X015036Y006613D03*
X014996Y006621D03*
X014980Y006653D03*
X014964Y006685D03*
X015332Y006685D03*
X015332Y006669D03*
X015348Y006637D03*
X015380Y006669D03*
X015380Y006685D03*
X015380Y006733D03*
X015380Y006749D03*
X015380Y006797D03*
X015380Y006813D03*
X015380Y006861D03*
X015380Y006877D03*
X015380Y006925D03*
X015380Y006941D03*
X015380Y006989D03*
X015380Y007005D03*
X015380Y007053D03*
X015380Y007069D03*
X015396Y007101D03*
X015412Y007117D03*
X015380Y007149D03*
X015364Y007133D03*
X015348Y007101D03*
X015332Y007053D03*
X015332Y007005D03*
X015332Y006989D03*
X015332Y006941D03*
X015332Y006925D03*
X015332Y006877D03*
X015332Y006861D03*
X015332Y006813D03*
X015332Y006797D03*
X015332Y006749D03*
X015332Y006733D03*
X015396Y006637D03*
X015380Y006573D03*
X015468Y006597D03*
X015484Y006597D03*
X015500Y006597D03*
X015516Y006597D03*
X015532Y006597D03*
X015548Y006597D03*
X015564Y006597D03*
X015580Y006597D03*
X015620Y006605D03*
X015652Y006621D03*
X015668Y006653D03*
X015700Y006621D03*
X015684Y006589D03*
X015636Y006557D03*
X016020Y006573D03*
X016020Y006589D03*
X016036Y006605D03*
X016052Y006637D03*
X016052Y006653D03*
X016052Y006701D03*
X016052Y006717D03*
X016052Y006765D03*
X016052Y006781D03*
X016052Y006829D03*
X016052Y006845D03*
X016052Y006893D03*
X016052Y006909D03*
X016052Y006957D03*
X016052Y006973D03*
X016052Y007021D03*
X016052Y007037D03*
X016052Y007085D03*
X016052Y007101D03*
X016100Y007101D03*
X016100Y007085D03*
X016100Y007037D03*
X016100Y007021D03*
X016100Y006973D03*
X016100Y006957D03*
X016100Y006909D03*
X016100Y006893D03*
X016124Y006821D03*
X016140Y006821D03*
X016156Y006821D03*
X016172Y006821D03*
X016188Y006821D03*
X016204Y006821D03*
X016220Y006821D03*
X016236Y006821D03*
X016252Y006821D03*
X016268Y006821D03*
X016284Y006821D03*
X016300Y006821D03*
X016316Y006821D03*
X016332Y006821D03*
X016348Y006821D03*
X016364Y006821D03*
X016380Y006821D03*
X016404Y006781D03*
X016404Y006765D03*
X016452Y006765D03*
X016452Y006781D03*
X016452Y006829D03*
X016452Y006845D03*
X016452Y006893D03*
X016452Y006909D03*
X016452Y006957D03*
X016452Y006973D03*
X016452Y007021D03*
X016452Y007037D03*
X016452Y007085D03*
X016452Y007101D03*
X016404Y007101D03*
X016404Y007085D03*
X016404Y007037D03*
X016404Y007021D03*
X016404Y006973D03*
X016404Y006957D03*
X016404Y006909D03*
X016404Y006893D03*
X016372Y007149D03*
X016372Y007165D03*
X016476Y007189D03*
X016484Y007149D03*
X016124Y007189D03*
X016020Y007165D03*
X016020Y007149D03*
X015716Y007053D03*
X015700Y007053D03*
X015684Y007053D03*
X015668Y007053D03*
X015700Y007117D03*
X015652Y007165D03*
X015620Y007181D03*
X015604Y007181D03*
X015428Y007181D03*
X016100Y006781D03*
X016100Y006765D03*
X016100Y006717D03*
X016100Y006701D03*
X016100Y006653D03*
X016100Y006637D03*
X016116Y006605D03*
X016108Y006549D03*
X016092Y006549D03*
X016076Y006549D03*
X016060Y006549D03*
X016044Y006549D03*
X016028Y006549D03*
X016124Y006549D03*
X016372Y006573D03*
X016372Y006589D03*
X016388Y006605D03*
X016404Y006637D03*
X016404Y006653D03*
X016404Y006701D03*
X016404Y006717D03*
X016452Y006717D03*
X016452Y006701D03*
X016452Y006653D03*
X016452Y006637D03*
X016468Y006605D03*
X016484Y006573D03*
X016476Y006549D03*
X016460Y006549D03*
X016444Y006549D03*
X016428Y006549D03*
X016412Y006549D03*
X016396Y006549D03*
X016380Y006549D03*
X016804Y006557D03*
X016812Y006549D03*
X016828Y006549D03*
X016844Y006549D03*
X016860Y006549D03*
X016876Y006549D03*
X016892Y006549D03*
X016908Y006549D03*
X016900Y006573D03*
X016900Y006589D03*
X016836Y006605D03*
X016836Y006621D03*
X016836Y006669D03*
X016836Y006685D03*
X016836Y006733D03*
X016836Y006749D03*
X016836Y006797D03*
X016836Y006813D03*
X016836Y006861D03*
X016836Y006877D03*
X016836Y006925D03*
X016836Y006941D03*
X016836Y006989D03*
X016836Y007005D03*
X016836Y007053D03*
X016836Y007069D03*
X016836Y007117D03*
X016836Y007133D03*
X016804Y007181D03*
X016900Y007165D03*
X016900Y007149D03*
X017228Y007189D03*
X017252Y007133D03*
X017252Y007117D03*
X017300Y007117D03*
X017300Y007133D03*
X017332Y007181D03*
X017300Y007069D03*
X017300Y007053D03*
X017252Y007053D03*
X017252Y007069D03*
X017252Y007005D03*
X017252Y006989D03*
X017300Y006989D03*
X017300Y007005D03*
X017300Y006941D03*
X017300Y006925D03*
X017252Y006925D03*
X017252Y006941D03*
X017252Y006877D03*
X017252Y006861D03*
X017300Y006861D03*
X017300Y006877D03*
X017300Y006813D03*
X017300Y006797D03*
X017252Y006797D03*
X017252Y006813D03*
X017252Y006749D03*
X017252Y006733D03*
X017300Y006733D03*
X017300Y006749D03*
X017332Y006717D03*
X017348Y006749D03*
X017364Y006781D03*
X017380Y006797D03*
X017380Y006813D03*
X017396Y006829D03*
X017412Y006861D03*
X017428Y006893D03*
X017444Y006925D03*
X017460Y006957D03*
X017460Y006861D03*
X017444Y006829D03*
X017428Y006797D03*
X017412Y006765D03*
X017396Y006749D03*
X017396Y006733D03*
X017380Y006717D03*
X017380Y006701D03*
X017364Y006685D03*
X017348Y006653D03*
X017332Y006621D03*
X017316Y006589D03*
X017292Y006549D03*
X017276Y006549D03*
X017260Y006549D03*
X017244Y006549D03*
X017228Y006549D03*
X017252Y006605D03*
X017252Y006621D03*
X017252Y006669D03*
X017252Y006685D03*
X017300Y006685D03*
X017316Y006685D03*
X017556Y006589D03*
X017556Y006573D03*
X017564Y006549D03*
X017580Y006549D03*
X017596Y006549D03*
X017612Y006549D03*
X017628Y006549D03*
X017644Y006549D03*
X017660Y006549D03*
X017636Y006637D03*
X017588Y006637D03*
X017588Y006653D03*
X017588Y006701D03*
X017588Y006717D03*
X017588Y006765D03*
X017588Y006781D03*
X017588Y006829D03*
X017588Y006845D03*
X017588Y006893D03*
X017588Y006909D03*
X017588Y006957D03*
X017588Y006973D03*
X017588Y007021D03*
X017588Y007037D03*
X017636Y007021D03*
X017636Y007085D03*
X017572Y007133D03*
X017588Y007165D03*
X017660Y007189D03*
X017636Y006957D03*
X017636Y006893D03*
X017636Y006829D03*
X017636Y006765D03*
X017636Y006701D03*
X017972Y006589D03*
X017972Y006573D03*
X017980Y006549D03*
X017996Y006549D03*
X018012Y006549D03*
X018028Y006549D03*
X018044Y006549D03*
X018060Y006549D03*
X018076Y006549D03*
X018092Y006549D03*
X018108Y006549D03*
X018124Y006549D03*
X018140Y006549D03*
X018156Y006549D03*
X018172Y006549D03*
X018188Y006549D03*
X018204Y006549D03*
X018220Y006549D03*
X018236Y006549D03*
X018252Y006549D03*
X018268Y006549D03*
X018284Y006549D03*
X018300Y006549D03*
X018316Y006549D03*
X018332Y006549D03*
X018348Y006549D03*
X018364Y006549D03*
X018380Y006549D03*
X018388Y006605D03*
X018340Y006605D03*
X018340Y006621D03*
X018340Y006669D03*
X018340Y006685D03*
X018348Y006693D03*
X018364Y006693D03*
X018380Y006693D03*
X018388Y006669D03*
X018252Y006821D03*
X018244Y006829D03*
X018236Y006821D03*
X018220Y006821D03*
X018204Y006821D03*
X018188Y006821D03*
X018172Y006821D03*
X018156Y006821D03*
X018140Y006821D03*
X018124Y006821D03*
X018108Y006821D03*
X018092Y006821D03*
X018076Y006821D03*
X018052Y006781D03*
X018052Y006765D03*
X018004Y006765D03*
X018004Y006781D03*
X018004Y006829D03*
X018004Y006845D03*
X018004Y006893D03*
X018004Y006909D03*
X018004Y006957D03*
X018004Y006973D03*
X018004Y007021D03*
X018004Y007037D03*
X018004Y007085D03*
X018004Y007101D03*
X018052Y007101D03*
X018052Y007085D03*
X018052Y007037D03*
X018052Y007021D03*
X018052Y006973D03*
X018052Y006957D03*
X018052Y006909D03*
X018052Y006893D03*
X018244Y006845D03*
X018052Y006717D03*
X018052Y006701D03*
X018004Y006701D03*
X018004Y006717D03*
X018004Y006653D03*
X018004Y006637D03*
X018052Y006637D03*
X018052Y006653D03*
X017972Y007149D03*
X017972Y007165D03*
X018340Y007133D03*
X018340Y007117D03*
X018388Y007117D03*
X018388Y007181D03*
X018340Y007069D03*
X018708Y007085D03*
X018708Y007101D03*
X018724Y007117D03*
X018724Y007133D03*
X018740Y007149D03*
X018772Y007165D03*
X018804Y007181D03*
X018820Y007181D03*
X018756Y007085D03*
X018740Y007053D03*
X018724Y007053D03*
X018708Y007053D03*
X018740Y006829D03*
X018724Y006813D03*
X018708Y006781D03*
X018708Y006765D03*
X018756Y006765D03*
X018756Y006781D03*
X018772Y006797D03*
X018828Y006821D03*
X018844Y006821D03*
X018860Y006821D03*
X018876Y006821D03*
X018892Y006821D03*
X018908Y006821D03*
X018924Y006821D03*
X018940Y006821D03*
X018956Y006821D03*
X018972Y006821D03*
X018988Y006821D03*
X019004Y006821D03*
X019020Y006821D03*
X019036Y006821D03*
X019052Y006821D03*
X019076Y006829D03*
X019108Y006845D03*
X019124Y006861D03*
X019092Y006893D03*
X019108Y006925D03*
X019156Y006925D03*
X019156Y006941D03*
X019156Y006989D03*
X019156Y007005D03*
X019156Y007053D03*
X019156Y007069D03*
X019108Y007069D03*
X019076Y007117D03*
X019052Y007125D03*
X019060Y007181D03*
X019044Y006877D03*
X019156Y006669D03*
X019076Y006605D03*
X019036Y006597D03*
X019020Y006597D03*
X019004Y006597D03*
X018988Y006597D03*
X018972Y006597D03*
X018956Y006597D03*
X018940Y006597D03*
X018924Y006597D03*
X018908Y006597D03*
X018892Y006597D03*
X018876Y006597D03*
X018860Y006597D03*
X018844Y006597D03*
X018828Y006597D03*
X018772Y006621D03*
X018756Y006637D03*
X018756Y006653D03*
X018708Y006653D03*
X018708Y006637D03*
X018724Y006605D03*
X018740Y006589D03*
X018708Y006701D03*
X018708Y006717D03*
X019084Y006549D03*
X019092Y006557D03*
X019108Y006573D03*
X013156Y007533D03*
X013156Y007549D03*
X012596Y007005D03*
X012596Y006989D03*
X005732Y007085D03*
X005732Y007101D03*
X005716Y007117D03*
X005716Y007133D03*
X005700Y007149D03*
X005684Y007165D03*
X005668Y007165D03*
X005636Y007133D03*
X005620Y007133D03*
X005668Y007117D03*
X005684Y007101D03*
X005684Y007085D03*
X005044Y007133D03*
X005028Y007133D03*
X005012Y007133D03*
X005012Y007117D03*
X005012Y007069D03*
X005012Y007053D03*
X005012Y007005D03*
X005012Y006989D03*
X004964Y006989D03*
X004964Y007005D03*
X004916Y006989D03*
X004900Y006957D03*
X004884Y006925D03*
X004868Y006893D03*
X004852Y006877D03*
X004852Y006861D03*
X004836Y006845D03*
X004836Y006829D03*
X004820Y006813D03*
X004804Y006781D03*
X004788Y006749D03*
X004772Y006717D03*
X004740Y006749D03*
X004756Y006781D03*
X004772Y006813D03*
X004788Y006845D03*
X004804Y006877D03*
X004820Y006893D03*
X004820Y006909D03*
X004836Y006925D03*
X004836Y006941D03*
X004852Y006957D03*
X004868Y006989D03*
X004884Y007021D03*
X004900Y007053D03*
X004916Y007085D03*
X004972Y007189D03*
X004988Y007189D03*
X005004Y007189D03*
X005020Y007189D03*
X005036Y007189D03*
X005044Y007181D03*
X005012Y006941D03*
X005012Y006925D03*
X004964Y006925D03*
X004964Y006941D03*
X004964Y006877D03*
X004964Y006861D03*
X005012Y006861D03*
X005012Y006877D03*
X005012Y006813D03*
X005012Y006797D03*
X004964Y006797D03*
X004964Y006813D03*
X004964Y006749D03*
X004964Y006733D03*
X005012Y006733D03*
X005012Y006749D03*
X005012Y006685D03*
X005012Y006669D03*
X004964Y006669D03*
X004964Y006685D03*
X004964Y006621D03*
X004964Y006605D03*
X005012Y006605D03*
X005012Y006621D03*
X005036Y006597D03*
X005044Y006557D03*
X004644Y006605D03*
X004644Y006621D03*
X004604Y006597D03*
X004612Y006557D03*
X004644Y006669D03*
X004644Y006685D03*
X004644Y006733D03*
X004644Y006749D03*
X004644Y006797D03*
X004644Y006813D03*
X004644Y006861D03*
X004644Y006877D03*
X004644Y006925D03*
X004644Y006941D03*
X004644Y006989D03*
X004644Y007005D03*
X004644Y007053D03*
X004644Y007069D03*
X004644Y007117D03*
X004644Y007133D03*
X004628Y007133D03*
X004612Y007133D03*
X004612Y007181D03*
X004620Y007189D03*
X004636Y007189D03*
X004652Y007189D03*
X004668Y007189D03*
X004684Y007189D03*
X004700Y007189D03*
X004716Y007189D03*
X004708Y007165D03*
X004708Y007149D03*
X004708Y007133D03*
X004692Y007133D03*
X004308Y007133D03*
X004292Y007133D03*
X004276Y007133D03*
X004276Y007117D03*
X004228Y007117D03*
X004228Y007133D03*
X004212Y007133D03*
X004204Y007189D03*
X004220Y007189D03*
X004236Y007189D03*
X004252Y007189D03*
X004268Y007189D03*
X004284Y007189D03*
X004300Y007189D03*
X004308Y007181D03*
X004276Y007069D03*
X004276Y007053D03*
X004228Y007053D03*
X004228Y007069D03*
X004228Y007005D03*
X004228Y006989D03*
X004276Y006989D03*
X004276Y007005D03*
X004276Y006941D03*
X004276Y006925D03*
X004228Y006925D03*
X004228Y006941D03*
X004228Y006877D03*
X004228Y006861D03*
X004276Y006861D03*
X004276Y006877D03*
X004276Y006813D03*
X004276Y006797D03*
X004228Y006797D03*
X004228Y006813D03*
X004228Y006749D03*
X004228Y006733D03*
X004276Y006733D03*
X004276Y006749D03*
X004276Y006685D03*
X004276Y006669D03*
X004228Y006669D03*
X004228Y006685D03*
X004228Y006621D03*
X004228Y006605D03*
X004276Y006605D03*
X004276Y006621D03*
X004300Y006597D03*
X004308Y006557D03*
D12*
X004220Y006557D03*
X004236Y006573D03*
X004236Y006589D03*
X004252Y006605D03*
X004252Y006621D03*
X004236Y006637D03*
X004236Y006653D03*
X004252Y006669D03*
X004252Y006685D03*
X004236Y006701D03*
X004236Y006717D03*
X004252Y006733D03*
X004252Y006749D03*
X004236Y006765D03*
X004236Y006781D03*
X004252Y006797D03*
X004252Y006813D03*
X004236Y006829D03*
X004236Y006845D03*
X004252Y006861D03*
X004252Y006877D03*
X004236Y006893D03*
X004236Y006909D03*
X004252Y006925D03*
X004252Y006941D03*
X004236Y006957D03*
X004236Y006973D03*
X004252Y006989D03*
X004252Y007005D03*
X004236Y007021D03*
X004236Y007037D03*
X004252Y007053D03*
X004252Y007069D03*
X004236Y007085D03*
X004236Y007101D03*
X004252Y007117D03*
X004252Y007133D03*
X004236Y007149D03*
X004236Y007165D03*
X004220Y007181D03*
X004252Y007181D03*
X004268Y007165D03*
X004268Y007149D03*
X004300Y007149D03*
X004300Y007165D03*
X004268Y007101D03*
X004268Y007085D03*
X004268Y007037D03*
X004268Y007021D03*
X004268Y006973D03*
X004268Y006957D03*
X004268Y006909D03*
X004268Y006893D03*
X004268Y006845D03*
X004268Y006829D03*
X004268Y006781D03*
X004268Y006765D03*
X004268Y006717D03*
X004268Y006701D03*
X004268Y006653D03*
X004268Y006637D03*
X004268Y006589D03*
X004268Y006573D03*
X004252Y006557D03*
X004300Y006573D03*
X004300Y006589D03*
X004620Y006589D03*
X004620Y006573D03*
X004636Y006557D03*
X004652Y006573D03*
X004652Y006589D03*
X004668Y006605D03*
X004668Y006621D03*
X004652Y006637D03*
X004652Y006653D03*
X004668Y006669D03*
X004668Y006685D03*
X004652Y006701D03*
X004652Y006717D03*
X004668Y006733D03*
X004668Y006749D03*
X004652Y006765D03*
X004652Y006781D03*
X004668Y006797D03*
X004668Y006813D03*
X004652Y006829D03*
X004652Y006845D03*
X004668Y006861D03*
X004668Y006877D03*
X004652Y006893D03*
X004652Y006909D03*
X004668Y006925D03*
X004668Y006941D03*
X004652Y006957D03*
X004652Y006973D03*
X004668Y006989D03*
X004668Y007005D03*
X004652Y007021D03*
X004652Y007037D03*
X004668Y007053D03*
X004668Y007069D03*
X004652Y007085D03*
X004652Y007101D03*
X004668Y007117D03*
X004668Y007133D03*
X004652Y007149D03*
X004652Y007165D03*
X004636Y007181D03*
X004620Y007165D03*
X004620Y007149D03*
X004668Y007181D03*
X004700Y007181D03*
X004940Y007101D03*
X004940Y007085D03*
X004956Y007069D03*
X004956Y007053D03*
X004940Y007037D03*
X004908Y007037D03*
X004908Y007021D03*
X004892Y007005D03*
X004892Y006989D03*
X004876Y006973D03*
X004876Y006957D03*
X004860Y006941D03*
X004860Y006925D03*
X004892Y006941D03*
X004908Y006973D03*
X004972Y006957D03*
X004988Y006941D03*
X004988Y006925D03*
X004972Y006893D03*
X004988Y006877D03*
X004988Y006861D03*
X004972Y006829D03*
X004988Y006813D03*
X004988Y006797D03*
X004972Y006765D03*
X004988Y006749D03*
X004988Y006733D03*
X004972Y006701D03*
X004988Y006685D03*
X004988Y006669D03*
X004972Y006637D03*
X004988Y006621D03*
X004988Y006605D03*
X004972Y006589D03*
X004972Y006573D03*
X004956Y006557D03*
X004988Y006557D03*
X005020Y006557D03*
X005036Y006573D03*
X005036Y006589D03*
X004748Y006701D03*
X004748Y006717D03*
X004732Y006733D03*
X004748Y006765D03*
X004780Y006765D03*
X004780Y006781D03*
X004796Y006797D03*
X004796Y006813D03*
X004812Y006829D03*
X004812Y006845D03*
X004828Y006861D03*
X004828Y006877D03*
X004988Y006989D03*
X004988Y007005D03*
X004972Y007021D03*
X004988Y007053D03*
X004988Y007069D03*
X004972Y007085D03*
X004972Y007101D03*
X004956Y007117D03*
X004956Y007133D03*
X004972Y007149D03*
X004972Y007165D03*
X004988Y007181D03*
X005020Y007181D03*
X005036Y007165D03*
X005036Y007149D03*
X004988Y007133D03*
X004988Y007117D03*
X005372Y007069D03*
X005372Y007053D03*
X005388Y007037D03*
X005388Y007021D03*
X005372Y007005D03*
X005372Y006989D03*
X005388Y006973D03*
X005388Y006957D03*
X005372Y006941D03*
X005372Y006925D03*
X005388Y006909D03*
X005388Y006893D03*
X005372Y006877D03*
X005372Y006861D03*
X005388Y006845D03*
X005388Y006829D03*
X005372Y006813D03*
X005372Y006797D03*
X005388Y006781D03*
X005388Y006765D03*
X005372Y006749D03*
X005372Y006733D03*
X005388Y006717D03*
X005388Y006701D03*
X005372Y006685D03*
X005372Y006669D03*
X005388Y006653D03*
X005388Y006637D03*
X005436Y006605D03*
X005420Y006589D03*
X005420Y006573D03*
X005452Y006573D03*
X005452Y006589D03*
X005468Y006557D03*
X005500Y006557D03*
X005516Y006573D03*
X005516Y006589D03*
X005548Y006589D03*
X005556Y006597D03*
X005580Y006589D03*
X005588Y006597D03*
X005612Y006589D03*
X005612Y006573D03*
X005596Y006557D03*
X005580Y006573D03*
X005548Y006573D03*
X005532Y006557D03*
X005628Y006557D03*
X005676Y006573D03*
X005676Y006589D03*
X005660Y006605D03*
X005692Y006605D03*
X005692Y006621D03*
X005708Y006637D03*
X005708Y006653D03*
X006028Y006589D03*
X006028Y006573D03*
X006060Y006573D03*
X006060Y006589D03*
X006076Y006605D03*
X006076Y006621D03*
X006060Y006637D03*
X006060Y006653D03*
X006076Y006669D03*
X006076Y006685D03*
X006060Y006701D03*
X006060Y006717D03*
X006076Y006733D03*
X006076Y006749D03*
X006060Y006765D03*
X006060Y006781D03*
X006076Y006797D03*
X006076Y006813D03*
X006060Y006829D03*
X006060Y006845D03*
X006076Y006861D03*
X006076Y006877D03*
X006060Y006893D03*
X006060Y006909D03*
X006076Y006925D03*
X006076Y006941D03*
X006060Y006957D03*
X006060Y006973D03*
X006076Y006989D03*
X006076Y007005D03*
X006060Y007021D03*
X006060Y007037D03*
X006076Y007053D03*
X006076Y007069D03*
X006060Y007085D03*
X006060Y007101D03*
X006076Y007117D03*
X006076Y007133D03*
X006060Y007149D03*
X006060Y007165D03*
X006076Y007181D03*
X006092Y007165D03*
X006092Y007149D03*
X006108Y007181D03*
X006092Y007101D03*
X006092Y007085D03*
X006092Y007037D03*
X006092Y007021D03*
X006092Y006973D03*
X006092Y006957D03*
X006092Y006909D03*
X006092Y006893D03*
X006108Y006861D03*
X006092Y006845D03*
X006092Y006829D03*
X006092Y006781D03*
X006092Y006765D03*
X006092Y006717D03*
X006092Y006701D03*
X006092Y006653D03*
X006092Y006637D03*
X006092Y006589D03*
X006092Y006573D03*
X006076Y006557D03*
X006108Y006557D03*
X006140Y006557D03*
X006156Y006573D03*
X006156Y006589D03*
X006132Y006597D03*
X006188Y006589D03*
X006196Y006597D03*
X006220Y006589D03*
X006228Y006597D03*
X006252Y006589D03*
X006260Y006597D03*
X006252Y006573D03*
X006236Y006557D03*
X006220Y006573D03*
X006188Y006573D03*
X006172Y006557D03*
X006268Y006557D03*
X006300Y006557D03*
X006316Y006573D03*
X006316Y006589D03*
X006292Y006597D03*
X006348Y006589D03*
X006348Y006573D03*
X006332Y006557D03*
X006380Y006573D03*
X006380Y006589D03*
X006396Y006605D03*
X006396Y006621D03*
X006412Y006637D03*
X006412Y006653D03*
X006396Y006669D03*
X006396Y006685D03*
X006412Y006701D03*
X006412Y006717D03*
X006396Y006733D03*
X006396Y006749D03*
X006412Y006765D03*
X006412Y006781D03*
X006396Y006797D03*
X006396Y006813D03*
X006380Y006829D03*
X006380Y006845D03*
X006348Y006845D03*
X006348Y006829D03*
X006316Y006829D03*
X006316Y006845D03*
X006300Y006861D03*
X006300Y006877D03*
X006268Y006877D03*
X006268Y006861D03*
X006252Y006845D03*
X006252Y006829D03*
X006220Y006829D03*
X006220Y006845D03*
X006236Y006861D03*
X006212Y006869D03*
X006180Y006869D03*
X006172Y006861D03*
X006156Y006845D03*
X006156Y006829D03*
X006188Y006829D03*
X006188Y006845D03*
X006148Y006869D03*
X006140Y006861D03*
X006300Y006925D03*
X006300Y006941D03*
X006316Y006957D03*
X006316Y006973D03*
X006332Y006989D03*
X006332Y007005D03*
X006348Y007021D03*
X006348Y007037D03*
X006380Y007085D03*
X006380Y007101D03*
X006396Y007117D03*
X006396Y007133D03*
X006380Y007149D03*
X006380Y007165D03*
X006396Y007181D03*
X006412Y007165D03*
X006412Y007149D03*
X006428Y007181D03*
X006780Y007181D03*
X006796Y007165D03*
X006796Y007149D03*
X006812Y007133D03*
X006812Y007117D03*
X006828Y007101D03*
X006828Y007085D03*
X006812Y007069D03*
X006812Y007053D03*
X006828Y007037D03*
X006828Y007021D03*
X006812Y007005D03*
X006812Y006989D03*
X006828Y006973D03*
X006828Y006957D03*
X006812Y006941D03*
X006812Y006925D03*
X006828Y006909D03*
X006828Y006893D03*
X006812Y006877D03*
X006812Y006861D03*
X006828Y006845D03*
X006828Y006829D03*
X006812Y006813D03*
X006812Y006797D03*
X006828Y006781D03*
X006828Y006765D03*
X006812Y006749D03*
X006812Y006733D03*
X006828Y006717D03*
X006828Y006701D03*
X006812Y006685D03*
X006812Y006669D03*
X006828Y006653D03*
X006828Y006637D03*
X006812Y006621D03*
X006812Y006605D03*
X006796Y006589D03*
X006796Y006573D03*
X006780Y006557D03*
X006812Y006557D03*
X006828Y006573D03*
X006828Y006589D03*
X006860Y006589D03*
X006868Y006597D03*
X006892Y006589D03*
X006900Y006597D03*
X006892Y006573D03*
X006876Y006557D03*
X006860Y006573D03*
X006908Y006557D03*
X006940Y006557D03*
X006956Y006573D03*
X006956Y006589D03*
X006932Y006597D03*
X006988Y006589D03*
X006996Y006597D03*
X007020Y006589D03*
X007028Y006597D03*
X007052Y006589D03*
X007060Y006597D03*
X007052Y006573D03*
X007036Y006557D03*
X007020Y006573D03*
X006988Y006573D03*
X006972Y006557D03*
X007068Y006557D03*
X007100Y006557D03*
X007116Y006573D03*
X007116Y006589D03*
X007092Y006597D03*
X007148Y006589D03*
X007148Y006573D03*
X007132Y006557D03*
X007148Y006637D03*
X007148Y006653D03*
X007020Y006829D03*
X007020Y006845D03*
X007036Y006861D03*
X007012Y006869D03*
X006980Y006869D03*
X006972Y006861D03*
X006956Y006845D03*
X006956Y006829D03*
X006988Y006829D03*
X006988Y006845D03*
X006948Y006869D03*
X006940Y006861D03*
X006916Y006869D03*
X006908Y006861D03*
X006892Y006845D03*
X006892Y006829D03*
X006860Y006829D03*
X006860Y006845D03*
X006876Y006861D03*
X006860Y007149D03*
X006860Y007165D03*
X006876Y007181D03*
X006892Y007165D03*
X006892Y007149D03*
X006908Y007181D03*
X006940Y007181D03*
X006956Y007165D03*
X006956Y007149D03*
X006988Y007149D03*
X006988Y007165D03*
X006972Y007181D03*
X007020Y007165D03*
X007020Y007149D03*
X007052Y007149D03*
X007052Y007165D03*
X007036Y007181D03*
X007068Y007181D03*
X007100Y007181D03*
X007116Y007165D03*
X007116Y007149D03*
X007148Y007149D03*
X007148Y007165D03*
X007132Y007181D03*
X007148Y007101D03*
X007148Y007085D03*
X006828Y007149D03*
X006828Y007165D03*
X006812Y007181D03*
X006332Y006861D03*
X006428Y006749D03*
X006428Y006733D03*
X006428Y006685D03*
X006428Y006669D03*
X005708Y007085D03*
X005708Y007101D03*
X005692Y007117D03*
X005692Y007133D03*
X005676Y007149D03*
X005660Y007133D03*
X005612Y007149D03*
X005612Y007165D03*
X005596Y007181D03*
X005580Y007165D03*
X005580Y007149D03*
X005548Y007149D03*
X005548Y007165D03*
X005532Y007181D03*
X005516Y007165D03*
X005516Y007149D03*
X005500Y007181D03*
X005468Y007181D03*
X005452Y007165D03*
X005452Y007149D03*
X005436Y007133D03*
X005436Y007117D03*
X005420Y007149D03*
X005468Y007133D03*
X005388Y007101D03*
X005388Y007085D03*
X005628Y007181D03*
X004732Y006685D03*
X004732Y006669D03*
X004716Y006653D03*
X004716Y006637D03*
X004700Y006621D03*
X004700Y006605D03*
X004668Y006557D03*
X004700Y006669D03*
X004716Y006701D03*
X007500Y006589D03*
X007500Y006573D03*
X007516Y006557D03*
X007532Y006573D03*
X007532Y006589D03*
X007548Y006605D03*
X007548Y006621D03*
X007532Y006637D03*
X007532Y006653D03*
X007548Y006669D03*
X007548Y006685D03*
X007532Y006701D03*
X007532Y006717D03*
X007548Y006733D03*
X007548Y006749D03*
X007532Y006765D03*
X007532Y006781D03*
X007548Y006797D03*
X007548Y006813D03*
X007532Y006829D03*
X007532Y006845D03*
X007548Y006861D03*
X007548Y006877D03*
X007532Y006893D03*
X007532Y006909D03*
X007548Y006925D03*
X007548Y006941D03*
X007532Y006957D03*
X007532Y006973D03*
X007548Y006989D03*
X007548Y007005D03*
X007532Y007021D03*
X007532Y007037D03*
X007548Y007053D03*
X007548Y007069D03*
X007532Y007085D03*
X007532Y007101D03*
X007548Y007117D03*
X007548Y007133D03*
X007532Y007149D03*
X007532Y007165D03*
X007516Y007181D03*
X007500Y007165D03*
X007500Y007149D03*
X007548Y007181D03*
X007580Y007181D03*
X007596Y007165D03*
X007596Y007149D03*
X007628Y007149D03*
X007628Y007165D03*
X007612Y007181D03*
X007660Y007165D03*
X007660Y007149D03*
X007692Y007149D03*
X007692Y007165D03*
X007676Y007181D03*
X007708Y007181D03*
X007740Y007181D03*
X007756Y007165D03*
X007756Y007149D03*
X007788Y007149D03*
X007788Y007165D03*
X007772Y007181D03*
X007820Y007165D03*
X007820Y007149D03*
X007836Y007133D03*
X007836Y007117D03*
X007852Y007101D03*
X007852Y007085D03*
X007868Y007069D03*
X007868Y007053D03*
X007852Y007037D03*
X007852Y007021D03*
X007868Y007005D03*
X007868Y006989D03*
X007852Y006973D03*
X007852Y006957D03*
X007868Y006941D03*
X007868Y006925D03*
X007852Y006909D03*
X007852Y006893D03*
X007868Y006877D03*
X007868Y006861D03*
X007852Y006845D03*
X007852Y006829D03*
X007868Y006813D03*
X007868Y006797D03*
X007852Y006781D03*
X007852Y006765D03*
X007868Y006749D03*
X007868Y006733D03*
X007852Y006717D03*
X007852Y006701D03*
X007868Y006685D03*
X007868Y006669D03*
X007852Y006653D03*
X007852Y006637D03*
X007836Y006621D03*
X007836Y006605D03*
X007820Y006589D03*
X007820Y006573D03*
X007788Y006573D03*
X007788Y006589D03*
X007756Y006589D03*
X007756Y006573D03*
X007740Y006557D03*
X007708Y006557D03*
X007692Y006573D03*
X007692Y006589D03*
X007700Y006597D03*
X007668Y006597D03*
X007660Y006589D03*
X007660Y006573D03*
X007676Y006557D03*
X007628Y006573D03*
X007628Y006589D03*
X007636Y006597D03*
X007596Y006589D03*
X007596Y006573D03*
X007580Y006557D03*
X007548Y006557D03*
X007612Y006557D03*
X007732Y006597D03*
X007772Y006557D03*
X007852Y006589D03*
X007868Y006621D03*
X008236Y006589D03*
X008236Y006573D03*
X008252Y006557D03*
X008268Y006573D03*
X008268Y006589D03*
X008300Y006589D03*
X008300Y006573D03*
X008316Y006557D03*
X008268Y006637D03*
X008268Y006653D03*
X008268Y006701D03*
X008268Y006717D03*
X008268Y006765D03*
X008268Y006781D03*
X008268Y006829D03*
X008268Y006845D03*
X008268Y006893D03*
X008268Y006909D03*
X008268Y006957D03*
X008268Y006973D03*
X008268Y007021D03*
X008268Y007037D03*
X008268Y007085D03*
X008268Y007101D03*
X008268Y007149D03*
X008268Y007165D03*
X008252Y007181D03*
X008236Y007165D03*
X008236Y007149D03*
X008300Y007149D03*
X008300Y007165D03*
X008316Y007181D03*
X008668Y007181D03*
X008700Y007181D03*
X008716Y007165D03*
X008716Y007149D03*
X008700Y007133D03*
X008700Y007117D03*
X008716Y007101D03*
X008716Y007085D03*
X008700Y007069D03*
X008700Y007053D03*
X008716Y007037D03*
X008716Y007021D03*
X008700Y007005D03*
X008700Y006989D03*
X008716Y006973D03*
X008716Y006957D03*
X008700Y006941D03*
X008700Y006925D03*
X008716Y006909D03*
X008716Y006893D03*
X008700Y006877D03*
X008700Y006861D03*
X008716Y006845D03*
X008716Y006829D03*
X008700Y006813D03*
X008700Y006797D03*
X008716Y006781D03*
X008716Y006765D03*
X008700Y006749D03*
X008700Y006733D03*
X008716Y006717D03*
X008716Y006701D03*
X008700Y006685D03*
X008700Y006669D03*
X008716Y006653D03*
X008716Y006637D03*
X008700Y006621D03*
X008700Y006605D03*
X008716Y006589D03*
X008716Y006573D03*
X008700Y006557D03*
X008668Y006557D03*
X008660Y006597D03*
X008732Y006557D03*
X008748Y006573D03*
X008748Y006589D03*
X008756Y006597D03*
X008780Y006589D03*
X008788Y006597D03*
X008812Y006589D03*
X008820Y006597D03*
X008812Y006573D03*
X008796Y006557D03*
X008780Y006573D03*
X008828Y006557D03*
X008860Y006557D03*
X008876Y006573D03*
X008876Y006589D03*
X008852Y006597D03*
X008908Y006589D03*
X008916Y006597D03*
X008940Y006589D03*
X008940Y006573D03*
X008956Y006557D03*
X008972Y006573D03*
X008972Y006589D03*
X008988Y006605D03*
X009020Y006605D03*
X009020Y006621D03*
X009036Y006637D03*
X009036Y006653D03*
X009052Y006669D03*
X009052Y006685D03*
X009036Y006701D03*
X009036Y006717D03*
X009052Y006733D03*
X009052Y006749D03*
X009036Y006765D03*
X009036Y006781D03*
X009020Y006797D03*
X009020Y006813D03*
X008988Y006813D03*
X008988Y006797D03*
X008972Y006829D03*
X008972Y006845D03*
X008988Y006861D03*
X009020Y006861D03*
X009020Y006877D03*
X009036Y006893D03*
X009036Y006909D03*
X009052Y006925D03*
X009052Y006941D03*
X009036Y006957D03*
X009036Y006973D03*
X009052Y006989D03*
X009052Y007005D03*
X009036Y007021D03*
X009036Y007037D03*
X009052Y007053D03*
X009052Y007069D03*
X009036Y007085D03*
X009036Y007101D03*
X009020Y007117D03*
X009020Y007133D03*
X008988Y007133D03*
X008972Y007149D03*
X008972Y007165D03*
X008956Y007181D03*
X008940Y007165D03*
X008940Y007149D03*
X008908Y007149D03*
X008908Y007165D03*
X008892Y007181D03*
X008876Y007165D03*
X008876Y007149D03*
X008860Y007181D03*
X008828Y007181D03*
X008812Y007165D03*
X008812Y007149D03*
X008780Y007149D03*
X008780Y007165D03*
X008796Y007181D03*
X008748Y007165D03*
X008748Y007149D03*
X008732Y007133D03*
X008732Y007181D03*
X008748Y006845D03*
X008748Y006829D03*
X008732Y006813D03*
X008780Y006829D03*
X008780Y006845D03*
X008812Y006845D03*
X008812Y006829D03*
X008796Y006813D03*
X008828Y006813D03*
X008860Y006813D03*
X008876Y006829D03*
X008876Y006845D03*
X008908Y006845D03*
X008908Y006829D03*
X008892Y006813D03*
X008940Y006829D03*
X008940Y006845D03*
X008956Y006813D03*
X009020Y006749D03*
X009052Y006877D03*
X009052Y006621D03*
X008908Y006573D03*
X008892Y006557D03*
X009388Y006573D03*
X009388Y006589D03*
X009420Y006589D03*
X009420Y006573D03*
X009436Y006557D03*
X009452Y006573D03*
X009452Y006589D03*
X009436Y006605D03*
X009436Y006621D03*
X009420Y006637D03*
X009420Y006653D03*
X009436Y006669D03*
X009436Y006685D03*
X009420Y006701D03*
X009420Y006717D03*
X009436Y006733D03*
X009436Y006749D03*
X009420Y006765D03*
X009420Y006781D03*
X009436Y006797D03*
X009436Y006813D03*
X009420Y006829D03*
X009420Y006845D03*
X009436Y006861D03*
X009436Y006877D03*
X009420Y006893D03*
X009420Y006909D03*
X009436Y006925D03*
X009436Y006941D03*
X009420Y006957D03*
X009420Y006973D03*
X009436Y006989D03*
X009436Y007005D03*
X009420Y007021D03*
X009420Y007037D03*
X009436Y007053D03*
X009436Y007069D03*
X009420Y007085D03*
X009420Y007101D03*
X009436Y007117D03*
X009436Y007133D03*
X009420Y007149D03*
X009420Y007165D03*
X009436Y007181D03*
X009452Y007165D03*
X009452Y007149D03*
X009468Y007181D03*
X009500Y007181D03*
X009516Y007165D03*
X009516Y007149D03*
X009548Y007149D03*
X009548Y007165D03*
X009532Y007181D03*
X009580Y007165D03*
X009580Y007149D03*
X009612Y007149D03*
X009612Y007165D03*
X009596Y007181D03*
X009628Y007181D03*
X009660Y007181D03*
X009676Y007165D03*
X009676Y007149D03*
X009708Y007149D03*
X009708Y007165D03*
X009692Y007181D03*
X009740Y007165D03*
X009740Y007149D03*
X009756Y007133D03*
X009756Y007117D03*
X009772Y007101D03*
X009772Y007085D03*
X009756Y007069D03*
X009788Y007069D03*
X009788Y007117D03*
X009788Y007133D03*
X009772Y007149D03*
X009772Y007165D03*
X009756Y007181D03*
X009788Y007181D03*
X010092Y007165D03*
X010092Y007149D03*
X010108Y007133D03*
X010140Y007133D03*
X010140Y007117D03*
X010156Y007149D03*
X010156Y007165D03*
X010140Y007181D03*
X010108Y007181D03*
X010172Y007181D03*
X010188Y007165D03*
X010188Y007149D03*
X010220Y007149D03*
X010220Y007165D03*
X010236Y007181D03*
X010252Y007165D03*
X010252Y007149D03*
X010268Y007181D03*
X010300Y007181D03*
X010316Y007165D03*
X010316Y007149D03*
X010348Y007149D03*
X010348Y007165D03*
X010332Y007181D03*
X010380Y007165D03*
X010380Y007149D03*
X010412Y007149D03*
X010412Y007165D03*
X010396Y007181D03*
X010428Y007181D03*
X010460Y007181D03*
X010476Y007165D03*
X010476Y007149D03*
X010460Y007133D03*
X010460Y007117D03*
X010476Y007101D03*
X010476Y007085D03*
X010460Y007069D03*
X010140Y007069D03*
X010140Y007053D03*
X010140Y007005D03*
X010140Y006989D03*
X010140Y006941D03*
X010140Y006925D03*
X010140Y006877D03*
X010140Y006861D03*
X010156Y006845D03*
X010156Y006829D03*
X010140Y006813D03*
X010140Y006797D03*
X010140Y006749D03*
X010140Y006733D03*
X010140Y006685D03*
X010140Y006669D03*
X010140Y006621D03*
X010140Y006605D03*
X010156Y006589D03*
X010156Y006573D03*
X010140Y006557D03*
X010108Y006557D03*
X010092Y006573D03*
X010092Y006589D03*
X010172Y006557D03*
X010188Y006573D03*
X010188Y006589D03*
X010196Y006597D03*
X010220Y006589D03*
X010228Y006597D03*
X010252Y006589D03*
X010260Y006597D03*
X010252Y006573D03*
X010236Y006557D03*
X010220Y006573D03*
X010268Y006557D03*
X010300Y006557D03*
X010316Y006573D03*
X010316Y006589D03*
X010292Y006597D03*
X010348Y006589D03*
X010356Y006597D03*
X010380Y006589D03*
X010388Y006597D03*
X010412Y006589D03*
X010420Y006597D03*
X010412Y006573D03*
X010396Y006557D03*
X010380Y006573D03*
X010348Y006573D03*
X010332Y006557D03*
X010428Y006557D03*
X010460Y006557D03*
X010476Y006573D03*
X010476Y006589D03*
X010460Y006605D03*
X010460Y006621D03*
X010476Y006637D03*
X010476Y006653D03*
X010460Y006669D03*
X010316Y006829D03*
X010316Y006845D03*
X010300Y006861D03*
X010308Y006869D03*
X010332Y006861D03*
X010340Y006869D03*
X010276Y006869D03*
X010268Y006861D03*
X010252Y006845D03*
X010252Y006829D03*
X010220Y006829D03*
X010220Y006845D03*
X010236Y006861D03*
X010212Y006869D03*
X010180Y006869D03*
X010172Y006861D03*
X010188Y006845D03*
X010188Y006829D03*
X009452Y006829D03*
X009452Y006845D03*
X009452Y006893D03*
X009452Y006909D03*
X009452Y006957D03*
X009452Y006973D03*
X009452Y007021D03*
X009452Y007037D03*
X009452Y007085D03*
X009452Y007101D03*
X009388Y007149D03*
X009388Y007165D03*
X009452Y006781D03*
X009452Y006765D03*
X009452Y006717D03*
X009452Y006701D03*
X009452Y006653D03*
X009452Y006637D03*
X009468Y006557D03*
X007868Y007117D03*
X011052Y007101D03*
X011052Y007085D03*
X011068Y007069D03*
X011068Y007053D03*
X011052Y007037D03*
X011052Y007021D03*
X011068Y007005D03*
X011068Y006989D03*
X011052Y006973D03*
X011052Y006957D03*
X011068Y006941D03*
X011068Y006925D03*
X011052Y006909D03*
X011052Y006893D03*
X011068Y006877D03*
X011068Y006861D03*
X011052Y006845D03*
X011052Y006829D03*
X011068Y006813D03*
X011068Y006797D03*
X011052Y006781D03*
X011052Y006765D03*
X011068Y006749D03*
X011068Y006733D03*
X011052Y006717D03*
X011052Y006701D03*
X011068Y006685D03*
X011068Y006669D03*
X011052Y006653D03*
X011052Y006637D03*
X011068Y006621D03*
X011068Y006605D03*
X011052Y006589D03*
X011052Y006573D03*
X011068Y006557D03*
X011068Y006541D03*
X011052Y006525D03*
X011052Y006509D03*
X011068Y006493D03*
X011068Y006477D03*
X011052Y006461D03*
X011052Y006445D03*
X011068Y006429D03*
X011068Y006413D03*
X011052Y006397D03*
X011052Y006381D03*
X011068Y006365D03*
X011068Y006349D03*
X011052Y006333D03*
X011052Y006317D03*
X011068Y006301D03*
X011068Y006285D03*
X011052Y006269D03*
X011052Y006253D03*
X011068Y006237D03*
X011068Y006221D03*
X011100Y006221D03*
X011100Y006237D03*
X011116Y006269D03*
X011100Y006285D03*
X011132Y006285D03*
X011132Y006301D03*
X011148Y006317D03*
X011180Y006317D03*
X011180Y006333D03*
X011196Y006349D03*
X011212Y006333D03*
X011228Y006349D03*
X011228Y006365D03*
X011260Y006365D03*
X011276Y006381D03*
X011276Y006397D03*
X011292Y006413D03*
X011308Y006397D03*
X011356Y006413D03*
X011356Y006429D03*
X011340Y006445D03*
X011340Y006461D03*
X011356Y006477D03*
X011356Y006493D03*
X011340Y006509D03*
X011340Y006525D03*
X011356Y006541D03*
X011356Y006557D03*
X011340Y006573D03*
X011340Y006589D03*
X011356Y006605D03*
X011356Y006621D03*
X011340Y006637D03*
X011340Y006653D03*
X011356Y006669D03*
X011356Y006685D03*
X011340Y006701D03*
X011340Y006717D03*
X011356Y006733D03*
X011356Y006749D03*
X011340Y006765D03*
X011340Y006781D03*
X011356Y006797D03*
X011356Y006813D03*
X011340Y006829D03*
X011340Y006845D03*
X011356Y006861D03*
X011356Y006877D03*
X011340Y006893D03*
X011340Y006909D03*
X011356Y006925D03*
X011356Y006941D03*
X011340Y006957D03*
X011340Y006973D03*
X011356Y006989D03*
X011356Y007005D03*
X011340Y007021D03*
X011340Y007037D03*
X011356Y007053D03*
X011356Y007069D03*
X011340Y007085D03*
X011340Y007101D03*
X011356Y007117D03*
X011356Y007133D03*
X011340Y007149D03*
X011340Y007165D03*
X011356Y007181D03*
X011356Y007197D03*
X011340Y007213D03*
X011340Y007229D03*
X011356Y007245D03*
X011356Y007261D03*
X011340Y007277D03*
X011340Y007293D03*
X011356Y007309D03*
X011356Y007325D03*
X011340Y007341D03*
X011340Y007357D03*
X011356Y007373D03*
X011356Y007389D03*
X011340Y007405D03*
X011340Y007421D03*
X011356Y007437D03*
X011356Y007453D03*
X011340Y007469D03*
X011340Y007485D03*
X011356Y007501D03*
X011356Y007517D03*
X011340Y007533D03*
X011340Y007549D03*
X011356Y007565D03*
X011356Y007581D03*
X011340Y007597D03*
X011340Y007613D03*
X011356Y007629D03*
X011356Y007645D03*
X011340Y007661D03*
X011340Y007677D03*
X011356Y007693D03*
X011356Y007709D03*
X011340Y007725D03*
X011340Y007741D03*
X011356Y007757D03*
X011356Y007773D03*
X011372Y007741D03*
X011372Y007725D03*
X011388Y007709D03*
X011420Y007709D03*
X011420Y007693D03*
X011436Y007677D03*
X011452Y007693D03*
X011452Y007709D03*
X011468Y007677D03*
X011468Y007661D03*
X011500Y007661D03*
X011500Y007677D03*
X011516Y007645D03*
X011516Y007629D03*
X011532Y007613D03*
X011548Y007629D03*
X011548Y007645D03*
X011596Y007613D03*
X011596Y007597D03*
X011580Y007581D03*
X011612Y007581D03*
X011612Y007565D03*
X011628Y007549D03*
X011628Y007533D03*
X011612Y007517D03*
X011612Y007501D03*
X011628Y007485D03*
X011628Y007469D03*
X011612Y007453D03*
X011612Y007437D03*
X011628Y007421D03*
X011628Y007405D03*
X011612Y007389D03*
X011612Y007373D03*
X011628Y007357D03*
X011628Y007341D03*
X011612Y007325D03*
X011612Y007309D03*
X011628Y007293D03*
X011628Y007277D03*
X011612Y007261D03*
X011612Y007245D03*
X011628Y007229D03*
X011628Y007213D03*
X011612Y007197D03*
X011612Y007181D03*
X011628Y007165D03*
X011628Y007149D03*
X011612Y007133D03*
X011612Y007117D03*
X011628Y007101D03*
X011628Y007085D03*
X011612Y007069D03*
X011612Y007053D03*
X011628Y007037D03*
X011628Y007021D03*
X011612Y007005D03*
X011612Y006989D03*
X011628Y006973D03*
X011628Y006957D03*
X011612Y006941D03*
X011612Y006925D03*
X011628Y006909D03*
X011628Y006893D03*
X011612Y006877D03*
X011612Y006861D03*
X011628Y006845D03*
X011628Y006829D03*
X011612Y006813D03*
X011612Y006797D03*
X011628Y006781D03*
X011628Y006765D03*
X011612Y006749D03*
X011612Y006733D03*
X011628Y006717D03*
X011628Y006701D03*
X011612Y006685D03*
X011612Y006669D03*
X011628Y006653D03*
X011660Y006701D03*
X011660Y006717D03*
X011676Y006733D03*
X011676Y006749D03*
X011692Y006765D03*
X011708Y006749D03*
X011708Y006797D03*
X011740Y006797D03*
X011740Y006813D03*
X011756Y006829D03*
X011756Y006845D03*
X011772Y006861D03*
X011772Y006877D03*
X011788Y006893D03*
X011820Y006893D03*
X011820Y006909D03*
X011820Y006957D03*
X011820Y006973D03*
X011820Y007021D03*
X011820Y007037D03*
X011820Y007085D03*
X011820Y007101D03*
X011836Y007117D03*
X011836Y007133D03*
X011820Y007149D03*
X011820Y007165D03*
X011836Y007181D03*
X011836Y007197D03*
X011820Y007213D03*
X011820Y007229D03*
X011788Y007229D03*
X011788Y007213D03*
X011772Y007197D03*
X011772Y007181D03*
X011756Y007165D03*
X011740Y007181D03*
X011708Y007133D03*
X011708Y007117D03*
X011692Y007101D03*
X011676Y007117D03*
X011660Y007101D03*
X011660Y007085D03*
X011852Y007149D03*
X011852Y007165D03*
X011868Y007133D03*
X011868Y007117D03*
X011900Y007117D03*
X011916Y007085D03*
X011900Y007069D03*
X011932Y007069D03*
X011932Y007053D03*
X011916Y007037D03*
X011948Y007037D03*
X011948Y007021D03*
X011996Y006989D03*
X011980Y006973D03*
X011980Y006957D03*
X011996Y006941D03*
X012012Y006957D03*
X012012Y006973D03*
X012028Y006941D03*
X012028Y006925D03*
X012076Y006893D03*
X012060Y006877D03*
X012060Y006861D03*
X012076Y006845D03*
X012092Y006861D03*
X012092Y006877D03*
X012108Y006845D03*
X012108Y006829D03*
X012092Y006813D03*
X012092Y006797D03*
X012108Y006781D03*
X012108Y006765D03*
X012092Y006749D03*
X012092Y006733D03*
X012108Y006717D03*
X012108Y006701D03*
X012092Y006685D03*
X012092Y006669D03*
X012108Y006653D03*
X012108Y006637D03*
X012092Y006621D03*
X012092Y006605D03*
X012108Y006589D03*
X012108Y006573D03*
X012092Y006557D03*
X012092Y006541D03*
X012108Y006525D03*
X012108Y006509D03*
X012092Y006493D03*
X012092Y006477D03*
X012108Y006461D03*
X012108Y006445D03*
X012092Y006429D03*
X012092Y006413D03*
X012108Y006397D03*
X012108Y006381D03*
X012092Y006365D03*
X012092Y006349D03*
X012108Y006333D03*
X012108Y006317D03*
X012092Y006301D03*
X012092Y006285D03*
X012108Y006269D03*
X012108Y006253D03*
X012092Y006237D03*
X012092Y006221D03*
X012108Y006205D03*
X012108Y006189D03*
X012092Y006173D03*
X012092Y006157D03*
X012108Y006141D03*
X012108Y006125D03*
X012092Y006109D03*
X012092Y006093D03*
X012108Y006077D03*
X012108Y006061D03*
X012092Y006045D03*
X012092Y006029D03*
X012108Y006013D03*
X012108Y005997D03*
X012092Y005981D03*
X012092Y005965D03*
X012108Y005949D03*
X012108Y005933D03*
X012092Y005917D03*
X012092Y005901D03*
X012108Y005885D03*
X012108Y005869D03*
X012092Y005853D03*
X012092Y005837D03*
X012060Y005837D03*
X012060Y005853D03*
X012076Y005869D03*
X012028Y005837D03*
X012012Y005821D03*
X012012Y005805D03*
X011996Y005789D03*
X011996Y005773D03*
X011980Y005805D03*
X011932Y005773D03*
X011916Y005757D03*
X011916Y005741D03*
X011900Y005725D03*
X011900Y005709D03*
X011868Y005709D03*
X011868Y005725D03*
X011836Y005725D03*
X011836Y005709D03*
X011820Y005693D03*
X011820Y005677D03*
X011836Y005661D03*
X011836Y005645D03*
X011868Y005645D03*
X011868Y005661D03*
X011852Y005677D03*
X011852Y005693D03*
X011820Y005741D03*
X011820Y005757D03*
X011820Y005805D03*
X011820Y005821D03*
X011820Y005869D03*
X011820Y005885D03*
X011820Y005933D03*
X011820Y005949D03*
X011820Y005997D03*
X011820Y006013D03*
X011820Y006061D03*
X011820Y006077D03*
X011820Y006125D03*
X011820Y006141D03*
X011820Y006189D03*
X011820Y006205D03*
X011820Y006253D03*
X011820Y006269D03*
X011820Y006317D03*
X011820Y006333D03*
X011820Y006381D03*
X011820Y006397D03*
X011788Y006397D03*
X011788Y006381D03*
X011772Y006365D03*
X011756Y006381D03*
X011756Y006397D03*
X011772Y006413D03*
X011820Y006445D03*
X011820Y006461D03*
X011820Y006509D03*
X011820Y006525D03*
X011820Y006573D03*
X011820Y006589D03*
X011820Y006637D03*
X011820Y006653D03*
X011820Y006701D03*
X011820Y006717D03*
X011820Y006765D03*
X011820Y006781D03*
X011820Y006829D03*
X011820Y006845D03*
X011788Y006845D03*
X012140Y006781D03*
X012140Y006765D03*
X012156Y006749D03*
X012172Y006765D03*
X012188Y006749D03*
X012188Y006733D03*
X012172Y006717D03*
X012220Y006685D03*
X012220Y006669D03*
X012236Y006653D03*
X012236Y006637D03*
X012252Y006621D03*
X012268Y006637D03*
X012268Y006653D03*
X012252Y006669D03*
X012300Y006589D03*
X012300Y006573D03*
X012316Y006557D03*
X012316Y006541D03*
X012332Y006525D03*
X012348Y006541D03*
X012348Y006557D03*
X012332Y006573D03*
X012380Y006493D03*
X012380Y006477D03*
X012396Y006461D03*
X012396Y006445D03*
X012380Y006429D03*
X012380Y006413D03*
X012396Y006397D03*
X012396Y006381D03*
X012380Y006365D03*
X012380Y006349D03*
X012396Y006333D03*
X012396Y006317D03*
X012380Y006301D03*
X012380Y006285D03*
X012396Y006269D03*
X012396Y006253D03*
X012380Y006237D03*
X012380Y006221D03*
X012396Y006205D03*
X012396Y006189D03*
X012380Y006173D03*
X012380Y006157D03*
X012396Y006141D03*
X012396Y006125D03*
X012380Y006109D03*
X012380Y006093D03*
X012396Y006077D03*
X012396Y006061D03*
X012380Y006045D03*
X012380Y006029D03*
X012396Y006013D03*
X012396Y005997D03*
X012380Y005981D03*
X012380Y005965D03*
X012396Y005949D03*
X012396Y005933D03*
X012380Y005917D03*
X012380Y005901D03*
X012396Y005885D03*
X012396Y005869D03*
X012380Y005853D03*
X012380Y005837D03*
X012396Y005821D03*
X012396Y005805D03*
X012380Y005789D03*
X012380Y005773D03*
X012396Y005757D03*
X012396Y005741D03*
X012380Y005725D03*
X012380Y005709D03*
X012396Y005693D03*
X012396Y005677D03*
X012380Y005661D03*
X012348Y005661D03*
X012348Y005645D03*
X012332Y005629D03*
X012316Y005645D03*
X012300Y005629D03*
X012300Y005613D03*
X012268Y005613D03*
X012252Y005597D03*
X012252Y005581D03*
X012236Y005565D03*
X012220Y005581D03*
X012172Y005549D03*
X012156Y005533D03*
X012156Y005517D03*
X012140Y005501D03*
X012108Y005501D03*
X012108Y005485D03*
X012076Y005485D03*
X012076Y005501D03*
X012060Y005517D03*
X012060Y005533D03*
X012028Y005533D03*
X012028Y005517D03*
X012012Y005549D03*
X012012Y005565D03*
X011996Y005581D03*
X011980Y005565D03*
X011980Y005549D03*
X011932Y005581D03*
X011932Y005597D03*
X011916Y005613D03*
X011916Y005629D03*
X011900Y005645D03*
X011948Y005613D03*
X011948Y005741D03*
X011948Y005757D03*
X012140Y005821D03*
X012156Y005837D03*
X012156Y005853D03*
X012172Y005821D03*
X012172Y005805D03*
X012188Y005789D03*
X012220Y005789D03*
X012220Y005773D03*
X012236Y005757D03*
X012252Y005773D03*
X012252Y005789D03*
X012268Y005757D03*
X012268Y005741D03*
X012300Y005741D03*
X012300Y005757D03*
X012316Y005725D03*
X012316Y005709D03*
X012332Y005693D03*
X012348Y005709D03*
X012348Y005725D03*
X012188Y005533D03*
X012092Y005517D03*
X011500Y006141D03*
X011516Y006157D03*
X011516Y006173D03*
X011532Y006189D03*
X011532Y006205D03*
X011548Y006173D03*
X011580Y006221D03*
X011580Y006237D03*
X011596Y006253D03*
X011596Y006269D03*
X011580Y006285D03*
X011580Y006301D03*
X011548Y006301D03*
X011548Y006285D03*
X011532Y006317D03*
X011532Y006333D03*
X011500Y006333D03*
X011500Y006317D03*
X011516Y006301D03*
X011468Y006333D03*
X011452Y006349D03*
X011452Y006365D03*
X011436Y006381D03*
X011436Y006397D03*
X011420Y006365D03*
X011388Y006413D03*
X011388Y006429D03*
X011372Y006397D03*
X011180Y006189D03*
X011196Y006173D03*
X011196Y006157D03*
X011212Y006141D03*
X011212Y006125D03*
X011228Y006109D03*
X011260Y006109D03*
X011260Y006093D03*
X011276Y006077D03*
X011292Y006093D03*
X011292Y006109D03*
X011276Y006125D03*
X011228Y006157D03*
X011148Y006189D03*
X011148Y006205D03*
X011132Y006221D03*
X011116Y006205D03*
X011116Y006189D03*
X011308Y006077D03*
X011308Y006061D03*
X011340Y006061D03*
X011340Y006077D03*
X011372Y006077D03*
X011372Y006061D03*
X011356Y006045D03*
X011388Y006093D03*
X011388Y006109D03*
X011420Y006109D03*
X011420Y006093D03*
X011436Y006125D03*
X011436Y006141D03*
X011468Y006141D03*
X011468Y006125D03*
X011452Y006109D03*
X011596Y006205D03*
X011612Y006221D03*
X011612Y006237D03*
X011628Y006253D03*
X011628Y006269D03*
X011660Y006269D03*
X011660Y006253D03*
X011676Y006285D03*
X011676Y006301D03*
X011692Y006317D03*
X011692Y006333D03*
X011708Y006349D03*
X011740Y006349D03*
X011740Y006365D03*
X011708Y006301D03*
X012156Y006797D03*
X012396Y007037D03*
X012380Y007053D03*
X012380Y007069D03*
X012412Y007053D03*
X012428Y007037D03*
X012428Y007021D03*
X012476Y006989D03*
X012460Y006973D03*
X012460Y006957D03*
X012476Y006941D03*
X012492Y006957D03*
X012492Y006973D03*
X012508Y006941D03*
X012508Y006925D03*
X012540Y006925D03*
X012556Y006909D03*
X012556Y006893D03*
X012540Y006877D03*
X012572Y006877D03*
X012572Y006861D03*
X012588Y006893D03*
X012588Y006909D03*
X012572Y006925D03*
X012572Y006941D03*
X012556Y006957D03*
X012588Y006957D03*
X012588Y006973D03*
X012572Y006989D03*
X012572Y007005D03*
X012556Y007021D03*
X012588Y007021D03*
X012588Y007037D03*
X012572Y007053D03*
X012572Y007069D03*
X012556Y007085D03*
X012588Y007085D03*
X012588Y007101D03*
X012572Y007117D03*
X012572Y007133D03*
X012556Y007149D03*
X012588Y007149D03*
X012588Y007165D03*
X012572Y007181D03*
X012572Y007197D03*
X012556Y007213D03*
X012556Y007229D03*
X012540Y007245D03*
X012508Y007245D03*
X012508Y007261D03*
X012492Y007277D03*
X012492Y007293D03*
X012476Y007309D03*
X012460Y007293D03*
X012460Y007277D03*
X012476Y007261D03*
X012556Y007277D03*
X012572Y007261D03*
X012572Y007245D03*
X012588Y007229D03*
X012588Y007213D03*
X012540Y007197D03*
X012588Y007277D03*
X012588Y007293D03*
X012572Y007309D03*
X012572Y007325D03*
X012556Y007341D03*
X012588Y007341D03*
X012588Y007357D03*
X012572Y007373D03*
X012572Y007389D03*
X012556Y007405D03*
X012588Y007405D03*
X012588Y007421D03*
X012572Y007437D03*
X012572Y007453D03*
X012556Y007469D03*
X012588Y007469D03*
X012588Y007485D03*
X012572Y007501D03*
X012572Y007517D03*
X012556Y007533D03*
X012588Y007533D03*
X012588Y007549D03*
X012572Y007565D03*
X012572Y007581D03*
X012588Y007597D03*
X012620Y007597D03*
X012620Y007613D03*
X012636Y007629D03*
X012652Y007613D03*
X012652Y007597D03*
X012668Y007629D03*
X012668Y007645D03*
X012700Y007645D03*
X012700Y007629D03*
X012716Y007661D03*
X012716Y007677D03*
X012732Y007693D03*
X012748Y007677D03*
X012748Y007661D03*
X012796Y007693D03*
X012796Y007709D03*
X012780Y007725D03*
X012812Y007725D03*
X012812Y007741D03*
X012828Y007757D03*
X012860Y007757D03*
X012860Y007773D03*
X012892Y007757D03*
X012876Y007741D03*
X012876Y007725D03*
X012860Y007709D03*
X012860Y007693D03*
X012892Y007709D03*
X012908Y007725D03*
X012908Y007741D03*
X012940Y007725D03*
X012956Y007709D03*
X012956Y007693D03*
X012940Y007677D03*
X012972Y007677D03*
X012972Y007661D03*
X012988Y007645D03*
X013020Y007645D03*
X013020Y007629D03*
X013036Y007613D03*
X013052Y007629D03*
X013052Y007645D03*
X013036Y007661D03*
X012988Y007693D03*
X013068Y007613D03*
X013068Y007597D03*
X013100Y007597D03*
X013100Y007613D03*
X013132Y007597D03*
X013116Y007581D03*
X013116Y007565D03*
X013132Y007549D03*
X013132Y007533D03*
X013148Y007517D03*
X013148Y007501D03*
X013132Y007485D03*
X013132Y007469D03*
X013148Y007453D03*
X013148Y007437D03*
X013132Y007421D03*
X013132Y007405D03*
X013148Y007389D03*
X013148Y007373D03*
X013132Y007357D03*
X013132Y007341D03*
X013148Y007325D03*
X013148Y007309D03*
X013132Y007293D03*
X013132Y007277D03*
X013148Y007261D03*
X013148Y007245D03*
X013132Y007229D03*
X013132Y007213D03*
X013148Y007197D03*
X013148Y007181D03*
X013132Y007165D03*
X013132Y007149D03*
X013148Y007133D03*
X013148Y007117D03*
X013132Y007101D03*
X013132Y007085D03*
X013148Y007069D03*
X013148Y007053D03*
X013132Y007037D03*
X013132Y007021D03*
X013148Y007005D03*
X013148Y006989D03*
X013132Y006973D03*
X013132Y006957D03*
X013148Y006941D03*
X013148Y006925D03*
X013132Y006909D03*
X013132Y006893D03*
X013148Y006877D03*
X013148Y006861D03*
X013132Y006845D03*
X013132Y006829D03*
X013148Y006813D03*
X013148Y006797D03*
X013132Y006781D03*
X013132Y006765D03*
X013148Y006749D03*
X013148Y006733D03*
X013132Y006717D03*
X013132Y006701D03*
X013148Y006685D03*
X013148Y006669D03*
X013132Y006653D03*
X013132Y006637D03*
X013148Y006621D03*
X013148Y006605D03*
X013132Y006589D03*
X013132Y006573D03*
X013148Y006557D03*
X013148Y006541D03*
X013132Y006525D03*
X013132Y006509D03*
X013148Y006493D03*
X013148Y006477D03*
X013132Y006461D03*
X013132Y006445D03*
X013148Y006429D03*
X013148Y006413D03*
X013132Y006397D03*
X013132Y006381D03*
X013148Y006365D03*
X013148Y006349D03*
X013132Y006333D03*
X013132Y006317D03*
X013148Y006301D03*
X013148Y006285D03*
X013132Y006269D03*
X013132Y006253D03*
X013116Y006237D03*
X013116Y006221D03*
X013100Y006205D03*
X013068Y006205D03*
X013068Y006189D03*
X013052Y006173D03*
X013036Y006189D03*
X013020Y006173D03*
X013020Y006157D03*
X012988Y006157D03*
X012972Y006141D03*
X012972Y006125D03*
X012956Y006109D03*
X012940Y006125D03*
X012892Y006093D03*
X012876Y006077D03*
X012876Y006061D03*
X012860Y006045D03*
X012812Y006061D03*
X012812Y006077D03*
X012796Y006093D03*
X012796Y006109D03*
X012780Y006125D03*
X012748Y006125D03*
X012748Y006141D03*
X012732Y006157D03*
X012716Y006141D03*
X012716Y006125D03*
X012700Y006157D03*
X012700Y006173D03*
X012668Y006173D03*
X012668Y006157D03*
X012652Y006189D03*
X012652Y006205D03*
X012636Y006221D03*
X012620Y006205D03*
X012620Y006189D03*
X012572Y006221D03*
X012572Y006237D03*
X012556Y006253D03*
X012556Y006269D03*
X012540Y006285D03*
X012540Y006301D03*
X012508Y006301D03*
X012492Y006317D03*
X012492Y006333D03*
X012476Y006349D03*
X012476Y006365D03*
X012460Y006381D03*
X012460Y006397D03*
X012428Y006397D03*
X012412Y006413D03*
X012412Y006429D03*
X012428Y006445D03*
X012412Y006477D03*
X012508Y006349D03*
X012588Y006269D03*
X012588Y006253D03*
X012620Y006253D03*
X012620Y006269D03*
X012636Y006285D03*
X012636Y006301D03*
X012652Y006317D03*
X012668Y006301D03*
X012668Y006285D03*
X012716Y006317D03*
X012716Y006333D03*
X012700Y006349D03*
X012732Y006349D03*
X012732Y006365D03*
X012748Y006381D03*
X012780Y006381D03*
X012780Y006397D03*
X012796Y006413D03*
X012812Y006397D03*
X012812Y006381D03*
X012828Y006413D03*
X012828Y006429D03*
X012860Y006429D03*
X012860Y006413D03*
X012876Y006397D03*
X012892Y006413D03*
X012892Y006429D03*
X012876Y006445D03*
X012860Y006477D03*
X012860Y006493D03*
X012860Y006541D03*
X012860Y006557D03*
X012860Y006605D03*
X012860Y006621D03*
X012860Y006669D03*
X012860Y006685D03*
X012860Y006733D03*
X012860Y006749D03*
X012860Y006797D03*
X012860Y006813D03*
X012860Y006861D03*
X012860Y006877D03*
X012860Y006925D03*
X012860Y006941D03*
X012860Y006989D03*
X012860Y007005D03*
X012860Y007053D03*
X012860Y007069D03*
X012860Y007117D03*
X012860Y007133D03*
X012860Y007181D03*
X012860Y007197D03*
X012860Y007245D03*
X012860Y007261D03*
X012860Y007309D03*
X012860Y007325D03*
X012860Y007373D03*
X012860Y007389D03*
X012860Y007437D03*
X012860Y007453D03*
X012860Y007501D03*
X012860Y007517D03*
X012860Y007565D03*
X012860Y007581D03*
X012860Y007629D03*
X012860Y007645D03*
X013148Y007581D03*
X013148Y007565D03*
X013668Y007189D03*
X013692Y007181D03*
X013700Y007189D03*
X013708Y007165D03*
X013708Y007149D03*
X013676Y007149D03*
X013676Y007165D03*
X013692Y007117D03*
X013708Y007101D03*
X013708Y007085D03*
X013692Y007053D03*
X013708Y007037D03*
X013708Y007021D03*
X013692Y006989D03*
X013708Y006973D03*
X013708Y006957D03*
X013692Y006925D03*
X013708Y006909D03*
X013708Y006893D03*
X013692Y006861D03*
X013708Y006845D03*
X013708Y006829D03*
X013692Y006797D03*
X013708Y006781D03*
X013708Y006765D03*
X013692Y006733D03*
X013708Y006717D03*
X013708Y006701D03*
X013692Y006669D03*
X013708Y006653D03*
X013708Y006637D03*
X013740Y006637D03*
X013740Y006653D03*
X013756Y006669D03*
X013772Y006653D03*
X013772Y006637D03*
X013756Y006621D03*
X013756Y006605D03*
X013740Y006589D03*
X013708Y006589D03*
X013708Y006573D03*
X013676Y006573D03*
X013676Y006589D03*
X013660Y006605D03*
X013692Y006605D03*
X013788Y006669D03*
X013788Y006685D03*
X013772Y006701D03*
X013820Y006733D03*
X013820Y006749D03*
X013836Y006765D03*
X013836Y006781D03*
X013852Y006797D03*
X013852Y006813D03*
X013868Y006829D03*
X013868Y006845D03*
X013900Y006845D03*
X013900Y006829D03*
X013932Y006829D03*
X013932Y006845D03*
X013916Y006861D03*
X013916Y006877D03*
X013900Y006893D03*
X013948Y006861D03*
X013948Y006813D03*
X013948Y006797D03*
X013980Y006797D03*
X013980Y006813D03*
X013996Y006781D03*
X013996Y006765D03*
X013980Y006749D03*
X014012Y006749D03*
X014012Y006733D03*
X013996Y006717D03*
X014028Y006717D03*
X014028Y006701D03*
X014076Y006669D03*
X014060Y006653D03*
X014060Y006637D03*
X014076Y006621D03*
X014076Y006605D03*
X014092Y006589D03*
X014092Y006573D03*
X014108Y006605D03*
X014108Y006621D03*
X014092Y006637D03*
X014092Y006653D03*
X014108Y006669D03*
X014108Y006685D03*
X014140Y006685D03*
X014140Y006669D03*
X014140Y006621D03*
X014140Y006605D03*
X014156Y006589D03*
X014156Y006573D03*
X014172Y006605D03*
X014140Y006733D03*
X014140Y006749D03*
X014108Y006749D03*
X014108Y006733D03*
X014108Y006797D03*
X014108Y006813D03*
X014140Y006813D03*
X014140Y006797D03*
X014140Y006861D03*
X014140Y006877D03*
X014108Y006877D03*
X014108Y006861D03*
X014108Y006925D03*
X014108Y006941D03*
X014140Y006941D03*
X014140Y006925D03*
X014140Y006989D03*
X014140Y007005D03*
X014108Y007005D03*
X014108Y006989D03*
X014108Y007053D03*
X014108Y007069D03*
X014140Y007069D03*
X014140Y007053D03*
X014140Y007117D03*
X014140Y007133D03*
X014156Y007149D03*
X014156Y007165D03*
X014140Y007181D03*
X014148Y007189D03*
X014116Y007189D03*
X014108Y007181D03*
X014092Y007165D03*
X014092Y007149D03*
X014108Y007133D03*
X014108Y007117D03*
X014076Y007181D03*
X013756Y007181D03*
X013740Y007165D03*
X013740Y007149D03*
X013732Y007189D03*
X013868Y006781D03*
X013852Y006749D03*
X014508Y006589D03*
X014508Y006573D03*
X014540Y006573D03*
X014540Y006589D03*
X014556Y006605D03*
X014556Y006621D03*
X014572Y006637D03*
X014572Y006653D03*
X014588Y006669D03*
X014588Y006685D03*
X014572Y006701D03*
X014588Y006733D03*
X014588Y006749D03*
X014620Y006749D03*
X014620Y006733D03*
X014636Y006765D03*
X014636Y006781D03*
X014620Y006797D03*
X014620Y006813D03*
X014636Y006829D03*
X014636Y006845D03*
X014652Y006861D03*
X014652Y006877D03*
X014668Y006893D03*
X014668Y006909D03*
X014652Y006925D03*
X014668Y006957D03*
X014700Y006957D03*
X014700Y006973D03*
X014716Y006989D03*
X014716Y007005D03*
X014700Y007021D03*
X014700Y007037D03*
X014716Y007053D03*
X014716Y007069D03*
X014732Y007085D03*
X014732Y007101D03*
X014748Y007117D03*
X014748Y007133D03*
X014732Y007149D03*
X014732Y007165D03*
X014748Y007181D03*
X014756Y007189D03*
X014780Y007181D03*
X014788Y007189D03*
X014812Y007181D03*
X014796Y007165D03*
X014796Y007149D03*
X014780Y007133D03*
X014780Y007117D03*
X014796Y007101D03*
X014796Y007085D03*
X014780Y007069D03*
X014748Y007069D03*
X014732Y007037D03*
X014732Y007021D03*
X014796Y007021D03*
X014796Y007037D03*
X014812Y007053D03*
X014812Y007069D03*
X014828Y007037D03*
X014828Y007021D03*
X014812Y007005D03*
X014812Y006989D03*
X014828Y006973D03*
X014828Y006957D03*
X014860Y006957D03*
X014860Y006909D03*
X014860Y006893D03*
X014876Y006877D03*
X014876Y006861D03*
X014892Y006845D03*
X014892Y006829D03*
X014876Y006813D03*
X014908Y006813D03*
X014908Y006797D03*
X014892Y006781D03*
X014892Y006765D03*
X014908Y006749D03*
X014908Y006733D03*
X014940Y006733D03*
X014940Y006749D03*
X014956Y006701D03*
X014940Y006685D03*
X014940Y006669D03*
X014956Y006653D03*
X014956Y006637D03*
X014972Y006621D03*
X014972Y006605D03*
X014956Y006589D03*
X014956Y006573D03*
X014988Y006573D03*
X014988Y006589D03*
X015020Y006589D03*
X015020Y006573D03*
X014940Y006605D03*
X014972Y006669D03*
X014812Y006877D03*
X014796Y006893D03*
X014796Y006909D03*
X014828Y006909D03*
X014828Y006893D03*
X014780Y006877D03*
X014748Y006877D03*
X014732Y006893D03*
X014732Y006909D03*
X014700Y006909D03*
X014700Y006893D03*
X014716Y006877D03*
X014652Y006813D03*
X014588Y006605D03*
X014572Y006589D03*
X014572Y006573D03*
X015340Y006701D03*
X015356Y006685D03*
X015356Y006669D03*
X015372Y006653D03*
X015372Y006637D03*
X015356Y006621D03*
X015388Y006621D03*
X015388Y006605D03*
X015372Y006589D03*
X015420Y006605D03*
X015436Y006589D03*
X015436Y006573D03*
X015420Y006557D03*
X015452Y006557D03*
X015468Y006573D03*
X015468Y006589D03*
X015500Y006589D03*
X015500Y006573D03*
X015516Y006557D03*
X015532Y006573D03*
X015532Y006589D03*
X015548Y006557D03*
X015580Y006557D03*
X015596Y006573D03*
X015596Y006589D03*
X015628Y006589D03*
X015628Y006573D03*
X015612Y006557D03*
X015660Y006573D03*
X015660Y006589D03*
X015676Y006605D03*
X015676Y006621D03*
X015692Y006637D03*
X015692Y006653D03*
X015676Y006669D03*
X015708Y006669D03*
X016060Y006669D03*
X016060Y006685D03*
X016076Y006701D03*
X016076Y006717D03*
X016060Y006733D03*
X016060Y006749D03*
X016076Y006765D03*
X016076Y006781D03*
X016060Y006797D03*
X016060Y006813D03*
X016076Y006829D03*
X016076Y006845D03*
X016060Y006861D03*
X016060Y006877D03*
X016076Y006893D03*
X016076Y006909D03*
X016060Y006925D03*
X016060Y006941D03*
X016076Y006957D03*
X016076Y006973D03*
X016060Y006989D03*
X016060Y007005D03*
X016076Y007021D03*
X016076Y007037D03*
X016060Y007053D03*
X016060Y007069D03*
X016076Y007085D03*
X016076Y007101D03*
X016060Y007117D03*
X016060Y007133D03*
X016076Y007149D03*
X016076Y007165D03*
X016060Y007181D03*
X016068Y007189D03*
X016092Y007181D03*
X016100Y007189D03*
X016108Y007165D03*
X016108Y007149D03*
X016092Y007133D03*
X016092Y007117D03*
X016092Y007069D03*
X016092Y007053D03*
X016092Y007005D03*
X016092Y006989D03*
X016092Y006941D03*
X016092Y006925D03*
X016092Y006877D03*
X016092Y006861D03*
X016108Y006845D03*
X016108Y006829D03*
X016092Y006813D03*
X016092Y006797D03*
X016092Y006749D03*
X016092Y006733D03*
X016092Y006685D03*
X016092Y006669D03*
X016076Y006653D03*
X016076Y006637D03*
X016060Y006621D03*
X016060Y006605D03*
X016076Y006589D03*
X016076Y006573D03*
X016060Y006557D03*
X016092Y006557D03*
X016108Y006573D03*
X016108Y006589D03*
X016092Y006605D03*
X016092Y006621D03*
X016140Y006829D03*
X016140Y006845D03*
X016156Y006861D03*
X016172Y006845D03*
X016172Y006829D03*
X016188Y006861D03*
X016220Y006861D03*
X016236Y006845D03*
X016236Y006829D03*
X016268Y006829D03*
X016268Y006845D03*
X016252Y006861D03*
X016300Y006845D03*
X016300Y006829D03*
X016332Y006829D03*
X016332Y006845D03*
X016316Y006861D03*
X016348Y006861D03*
X016380Y006861D03*
X016396Y006845D03*
X016396Y006829D03*
X016412Y006813D03*
X016412Y006797D03*
X016428Y006781D03*
X016428Y006765D03*
X016412Y006749D03*
X016412Y006733D03*
X016428Y006717D03*
X016428Y006701D03*
X016412Y006685D03*
X016412Y006669D03*
X016428Y006653D03*
X016428Y006637D03*
X016412Y006621D03*
X016412Y006605D03*
X016396Y006589D03*
X016396Y006573D03*
X016412Y006557D03*
X016428Y006573D03*
X016428Y006589D03*
X016460Y006589D03*
X016460Y006573D03*
X016476Y006557D03*
X016428Y006829D03*
X016428Y006845D03*
X016412Y006861D03*
X016412Y006877D03*
X016428Y006893D03*
X016428Y006909D03*
X016412Y006925D03*
X016412Y006941D03*
X016428Y006957D03*
X016428Y006973D03*
X016412Y006989D03*
X016412Y007005D03*
X016428Y007021D03*
X016428Y007037D03*
X016412Y007053D03*
X016412Y007069D03*
X016428Y007085D03*
X016428Y007101D03*
X016412Y007117D03*
X016412Y007133D03*
X016396Y007149D03*
X016396Y007165D03*
X016380Y007181D03*
X016388Y007189D03*
X016412Y007181D03*
X016420Y007189D03*
X016428Y007165D03*
X016428Y007149D03*
X016460Y007149D03*
X016460Y007165D03*
X016476Y007181D03*
X016452Y007189D03*
X016812Y007165D03*
X016812Y007149D03*
X016828Y007181D03*
X016836Y007189D03*
X016860Y007181D03*
X016868Y007189D03*
X016892Y007181D03*
X016900Y007189D03*
X016876Y007165D03*
X016876Y007149D03*
X016860Y007133D03*
X016860Y007117D03*
X016860Y007069D03*
X016860Y007053D03*
X016860Y007005D03*
X016860Y006989D03*
X016860Y006941D03*
X016860Y006925D03*
X016860Y006877D03*
X016860Y006861D03*
X016860Y006813D03*
X016860Y006797D03*
X016860Y006749D03*
X016860Y006733D03*
X016860Y006685D03*
X016860Y006669D03*
X016860Y006621D03*
X016860Y006605D03*
X016876Y006589D03*
X016876Y006573D03*
X016860Y006557D03*
X016828Y006557D03*
X016812Y006573D03*
X016812Y006589D03*
X016892Y006557D03*
X017260Y006573D03*
X017260Y006589D03*
X017276Y006605D03*
X017276Y006621D03*
X017260Y006637D03*
X017292Y006637D03*
X017292Y006653D03*
X017276Y006669D03*
X017276Y006685D03*
X017260Y006701D03*
X017292Y006701D03*
X017292Y006717D03*
X017276Y006733D03*
X017276Y006749D03*
X017260Y006765D03*
X017292Y006765D03*
X017292Y006781D03*
X017276Y006797D03*
X017276Y006813D03*
X017260Y006829D03*
X017292Y006829D03*
X017292Y006845D03*
X017276Y006861D03*
X017276Y006877D03*
X017260Y006893D03*
X017292Y006893D03*
X017292Y006909D03*
X017276Y006925D03*
X017276Y006941D03*
X017260Y006957D03*
X017292Y006957D03*
X017292Y006973D03*
X017276Y006989D03*
X017276Y007005D03*
X017260Y007021D03*
X017292Y007021D03*
X017292Y007037D03*
X017276Y007053D03*
X017276Y007069D03*
X017260Y007085D03*
X017292Y007085D03*
X017292Y007101D03*
X017276Y007117D03*
X017276Y007133D03*
X017260Y007149D03*
X017260Y007165D03*
X017276Y007181D03*
X017292Y007165D03*
X017292Y007149D03*
X017308Y007181D03*
X017316Y007189D03*
X017252Y007189D03*
X017516Y007037D03*
X017516Y007021D03*
X017500Y007005D03*
X017500Y006989D03*
X017516Y006973D03*
X017516Y006957D03*
X017500Y006941D03*
X017468Y006941D03*
X017468Y006925D03*
X017452Y006909D03*
X017452Y006893D03*
X017436Y006877D03*
X017436Y006861D03*
X017420Y006845D03*
X017420Y006829D03*
X017436Y006813D03*
X017452Y006845D03*
X017468Y006877D03*
X017388Y006781D03*
X017388Y006765D03*
X017372Y006749D03*
X017372Y006733D03*
X017356Y006717D03*
X017356Y006701D03*
X017340Y006685D03*
X017340Y006669D03*
X017308Y006669D03*
X017308Y006621D03*
X017308Y006605D03*
X017292Y006589D03*
X017292Y006573D03*
X017276Y006557D03*
X017580Y006573D03*
X017580Y006589D03*
X017596Y006605D03*
X017596Y006621D03*
X017612Y006637D03*
X017612Y006653D03*
X017596Y006669D03*
X017596Y006685D03*
X017612Y006701D03*
X017612Y006717D03*
X017596Y006733D03*
X017596Y006749D03*
X017612Y006765D03*
X017612Y006781D03*
X017596Y006797D03*
X017596Y006813D03*
X017612Y006829D03*
X017612Y006845D03*
X017596Y006861D03*
X017596Y006877D03*
X017612Y006893D03*
X017612Y006909D03*
X017596Y006925D03*
X017596Y006941D03*
X017612Y006957D03*
X017612Y006973D03*
X017596Y006989D03*
X017596Y007005D03*
X017612Y007021D03*
X017612Y007037D03*
X017596Y007053D03*
X017596Y007069D03*
X017580Y007085D03*
X017580Y007101D03*
X017596Y007117D03*
X017596Y007133D03*
X017580Y007149D03*
X017612Y007149D03*
X017612Y007165D03*
X017596Y007181D03*
X017628Y007181D03*
X017636Y007189D03*
X017628Y007133D03*
X017628Y007117D03*
X017612Y007101D03*
X017612Y007085D03*
X017628Y007069D03*
X017628Y007053D03*
X017628Y007005D03*
X017628Y006989D03*
X017628Y006941D03*
X017628Y006925D03*
X017628Y006877D03*
X017628Y006861D03*
X017628Y006813D03*
X017628Y006797D03*
X017628Y006749D03*
X017628Y006733D03*
X017628Y006685D03*
X017628Y006669D03*
X017628Y006621D03*
X017628Y006605D03*
X017612Y006589D03*
X017612Y006573D03*
X017596Y006557D03*
X017628Y006557D03*
X017980Y006557D03*
X017996Y006573D03*
X017996Y006589D03*
X018012Y006605D03*
X018012Y006621D03*
X018028Y006637D03*
X018028Y006653D03*
X018012Y006669D03*
X018012Y006685D03*
X018028Y006701D03*
X018028Y006717D03*
X018012Y006733D03*
X018012Y006749D03*
X018028Y006765D03*
X018028Y006781D03*
X018012Y006797D03*
X018012Y006813D03*
X018028Y006829D03*
X018028Y006845D03*
X018012Y006861D03*
X018012Y006877D03*
X018028Y006893D03*
X018028Y006909D03*
X018012Y006925D03*
X018012Y006941D03*
X018028Y006957D03*
X018028Y006973D03*
X018012Y006989D03*
X018012Y007005D03*
X018028Y007021D03*
X018028Y007037D03*
X018012Y007053D03*
X018012Y007069D03*
X018028Y007085D03*
X018028Y007101D03*
X018012Y007117D03*
X018012Y007133D03*
X017996Y007149D03*
X017996Y007165D03*
X017980Y007181D03*
X017988Y007189D03*
X018012Y007181D03*
X018020Y007189D03*
X018028Y007165D03*
X018028Y007149D03*
X018060Y007149D03*
X018060Y007165D03*
X018076Y007181D03*
X018092Y007165D03*
X018092Y007149D03*
X018108Y007181D03*
X018116Y007189D03*
X018140Y007181D03*
X018148Y007189D03*
X018172Y007181D03*
X018180Y007189D03*
X018188Y007165D03*
X018188Y007149D03*
X018156Y007149D03*
X018156Y007165D03*
X018212Y007189D03*
X018236Y007181D03*
X018220Y007165D03*
X018220Y007149D03*
X018252Y007149D03*
X018252Y007165D03*
X018268Y007181D03*
X018276Y007189D03*
X018300Y007181D03*
X018308Y007189D03*
X018332Y007181D03*
X018340Y007189D03*
X018348Y007165D03*
X018348Y007149D03*
X018316Y007149D03*
X018316Y007165D03*
X018372Y007189D03*
X018380Y007165D03*
X018380Y007149D03*
X018380Y007101D03*
X018380Y007085D03*
X018348Y007085D03*
X018348Y007101D03*
X018052Y007189D03*
X017548Y007085D03*
X017532Y007053D03*
X017548Y007037D03*
X017548Y007021D03*
X017532Y007005D03*
X017532Y006989D03*
X018060Y006845D03*
X018060Y006829D03*
X018092Y006829D03*
X018092Y006845D03*
X018076Y006861D03*
X018108Y006861D03*
X018140Y006861D03*
X018156Y006845D03*
X018156Y006829D03*
X018188Y006829D03*
X018188Y006845D03*
X018172Y006861D03*
X018220Y006845D03*
X018220Y006829D03*
X018236Y006861D03*
X018348Y006653D03*
X018348Y006637D03*
X018380Y006637D03*
X018380Y006653D03*
X018380Y006589D03*
X018380Y006573D03*
X018348Y006573D03*
X018348Y006589D03*
X018316Y006589D03*
X018316Y006573D03*
X018300Y006557D03*
X018268Y006557D03*
X018252Y006573D03*
X018252Y006589D03*
X018220Y006589D03*
X018220Y006573D03*
X018236Y006557D03*
X018188Y006573D03*
X018188Y006589D03*
X018156Y006589D03*
X018156Y006573D03*
X018140Y006557D03*
X018108Y006557D03*
X018092Y006573D03*
X018092Y006589D03*
X018060Y006589D03*
X018060Y006573D03*
X018076Y006557D03*
X018028Y006573D03*
X018028Y006589D03*
X018012Y006557D03*
X018172Y006557D03*
X018332Y006557D03*
X018716Y006669D03*
X018716Y006685D03*
X018732Y006701D03*
X018732Y006717D03*
X018716Y006733D03*
X018716Y006749D03*
X018732Y006765D03*
X018732Y006781D03*
X018748Y006797D03*
X018748Y006813D03*
X018780Y006813D03*
X018796Y006829D03*
X018796Y006845D03*
X018780Y006861D03*
X018812Y006861D03*
X018828Y006845D03*
X018828Y006829D03*
X018860Y006829D03*
X018860Y006845D03*
X018876Y006861D03*
X018892Y006845D03*
X018892Y006829D03*
X018908Y006861D03*
X018940Y006861D03*
X018956Y006845D03*
X018956Y006829D03*
X018988Y006829D03*
X018988Y006845D03*
X018972Y006861D03*
X019020Y006845D03*
X019020Y006829D03*
X019052Y006829D03*
X019052Y006845D03*
X019036Y006861D03*
X019068Y006861D03*
X019068Y006877D03*
X019100Y006877D03*
X019100Y006861D03*
X019116Y006893D03*
X019116Y006909D03*
X019132Y006925D03*
X019132Y006941D03*
X019148Y006957D03*
X019148Y006973D03*
X019132Y006989D03*
X019132Y007005D03*
X019148Y007021D03*
X019148Y007037D03*
X019132Y007053D03*
X019132Y007069D03*
X019116Y007085D03*
X019116Y007101D03*
X019100Y007117D03*
X019100Y007133D03*
X019116Y007149D03*
X019132Y007133D03*
X019132Y007117D03*
X019148Y007101D03*
X019148Y007085D03*
X019068Y007133D03*
X019052Y007149D03*
X019052Y007165D03*
X019036Y007181D03*
X019020Y007165D03*
X019020Y007149D03*
X019036Y007133D03*
X018988Y007149D03*
X018988Y007165D03*
X018972Y007181D03*
X018956Y007165D03*
X018956Y007149D03*
X018940Y007133D03*
X018908Y007133D03*
X018892Y007149D03*
X018892Y007165D03*
X018876Y007181D03*
X018860Y007165D03*
X018860Y007149D03*
X018876Y007133D03*
X018828Y007149D03*
X018828Y007165D03*
X018796Y007165D03*
X018796Y007149D03*
X018780Y007133D03*
X018780Y007117D03*
X018748Y007117D03*
X018748Y007133D03*
X018732Y007101D03*
X018732Y007085D03*
X018716Y007069D03*
X018748Y007069D03*
X018812Y007133D03*
X018908Y007181D03*
X018940Y007181D03*
X018972Y007133D03*
X019148Y006909D03*
X019132Y006877D03*
X019132Y006669D03*
X019116Y006653D03*
X019116Y006637D03*
X019100Y006621D03*
X019100Y006605D03*
X019116Y006589D03*
X019132Y006605D03*
X019132Y006621D03*
X019148Y006637D03*
X019148Y006653D03*
X019052Y006589D03*
X019052Y006573D03*
X019036Y006557D03*
X019020Y006573D03*
X019020Y006589D03*
X018988Y006589D03*
X018988Y006573D03*
X018972Y006557D03*
X018956Y006573D03*
X018956Y006589D03*
X018940Y006557D03*
X018908Y006557D03*
X018892Y006573D03*
X018892Y006589D03*
X018860Y006589D03*
X018860Y006573D03*
X018876Y006557D03*
X018828Y006573D03*
X018828Y006589D03*
X018796Y006589D03*
X018796Y006573D03*
X018780Y006557D03*
X018812Y006557D03*
X018780Y006605D03*
X018748Y006605D03*
X018748Y006621D03*
X018732Y006637D03*
X018732Y006653D03*
X019068Y006557D03*
X016036Y007189D03*
X016028Y007181D03*
X015708Y007069D03*
X015692Y007085D03*
X015692Y007101D03*
X015676Y007117D03*
X015676Y007133D03*
X015660Y007149D03*
X015628Y007149D03*
X015628Y007165D03*
X015596Y007165D03*
X015596Y007149D03*
X015580Y007133D03*
X015548Y007133D03*
X015532Y007149D03*
X015532Y007165D03*
X015516Y007181D03*
X015500Y007165D03*
X015500Y007149D03*
X015516Y007133D03*
X015468Y007149D03*
X015468Y007165D03*
X015452Y007181D03*
X015436Y007165D03*
X015436Y007149D03*
X015420Y007133D03*
X015388Y007133D03*
X015388Y007117D03*
X015372Y007101D03*
X015372Y007085D03*
X015356Y007069D03*
X015356Y007053D03*
X015372Y007037D03*
X015372Y007021D03*
X015356Y007005D03*
X015356Y006989D03*
X015372Y006973D03*
X015372Y006957D03*
X015356Y006941D03*
X015356Y006925D03*
X015372Y006909D03*
X015372Y006893D03*
X015356Y006877D03*
X015356Y006861D03*
X015372Y006845D03*
X015372Y006829D03*
X015356Y006813D03*
X015356Y006797D03*
X015372Y006781D03*
X015372Y006765D03*
X015356Y006749D03*
X015356Y006733D03*
X015372Y006717D03*
X015372Y006701D03*
X015340Y006765D03*
X015340Y006829D03*
X015340Y006893D03*
X015340Y006957D03*
X015340Y007021D03*
X015356Y007117D03*
X015452Y007133D03*
X015548Y007181D03*
X015580Y007181D03*
X015612Y007133D03*
X015660Y007101D03*
X015676Y007069D03*
X013148Y006237D03*
X013100Y006253D03*
X013100Y006269D03*
X013116Y006285D03*
X013068Y006269D03*
X013052Y006285D03*
X013052Y006301D03*
X013036Y006317D03*
X013036Y006333D03*
X013020Y006349D03*
X012988Y006349D03*
X012988Y006365D03*
X012972Y006381D03*
X012956Y006365D03*
X012956Y006349D03*
X012972Y006333D03*
X012940Y006381D03*
X012940Y006397D03*
X012908Y006397D03*
X012908Y006381D03*
X013020Y006301D03*
X013068Y006317D03*
X012908Y006077D03*
X012828Y006093D03*
X012332Y007101D03*
X012316Y007117D03*
X012316Y007133D03*
X012300Y007149D03*
X012300Y007165D03*
X012268Y007165D03*
X012252Y007197D03*
X012236Y007213D03*
X012236Y007229D03*
X012220Y007245D03*
X012220Y007261D03*
X012188Y007261D03*
X012172Y007277D03*
X012172Y007293D03*
X012156Y007309D03*
X012156Y007325D03*
X012140Y007341D03*
X012140Y007357D03*
X012156Y007373D03*
X012156Y007389D03*
X012188Y007389D03*
X012188Y007373D03*
X012172Y007357D03*
X012220Y007373D03*
X012220Y007389D03*
X012252Y007389D03*
X012252Y007373D03*
X012236Y007357D03*
X012268Y007357D03*
X012300Y007357D03*
X012316Y007373D03*
X012316Y007389D03*
X012348Y007389D03*
X012348Y007373D03*
X012332Y007357D03*
X012380Y007373D03*
X012380Y007389D03*
X012396Y007405D03*
X012396Y007421D03*
X012380Y007437D03*
X012380Y007453D03*
X012396Y007469D03*
X012396Y007485D03*
X012380Y007501D03*
X012380Y007517D03*
X012396Y007533D03*
X012396Y007549D03*
X012380Y007565D03*
X012380Y007581D03*
X012396Y007597D03*
X012396Y007613D03*
X012380Y007629D03*
X012380Y007645D03*
X012396Y007661D03*
X012396Y007677D03*
X012380Y007693D03*
X012380Y007709D03*
X012396Y007725D03*
X012396Y007741D03*
X012380Y007757D03*
X012380Y007773D03*
X012396Y007789D03*
X012396Y007805D03*
X012380Y007821D03*
X012380Y007837D03*
X012396Y007853D03*
X012396Y007869D03*
X012380Y007885D03*
X012380Y007901D03*
X012396Y007917D03*
X012396Y007933D03*
X012380Y007949D03*
X012380Y007965D03*
X012396Y007981D03*
X012396Y007997D03*
X012380Y008013D03*
X012380Y008029D03*
X012396Y008045D03*
X012396Y008061D03*
X012380Y008077D03*
X012380Y008093D03*
X012396Y008109D03*
X012348Y008141D03*
X012332Y008125D03*
X012316Y008141D03*
X012316Y008157D03*
X012300Y008173D03*
X012268Y008173D03*
X012268Y008189D03*
X012252Y008205D03*
X012236Y008189D03*
X012220Y008205D03*
X012220Y008221D03*
X012188Y008221D03*
X012172Y008237D03*
X012172Y008253D03*
X012156Y008269D03*
X012140Y008253D03*
X012108Y008253D03*
X012108Y008237D03*
X012092Y008221D03*
X012092Y008205D03*
X012108Y008189D03*
X012108Y008173D03*
X012092Y008157D03*
X012092Y008141D03*
X012108Y008125D03*
X012108Y008109D03*
X012092Y008093D03*
X012092Y008077D03*
X012108Y008061D03*
X012108Y008045D03*
X012092Y008029D03*
X012092Y008013D03*
X012108Y007997D03*
X012108Y007981D03*
X012092Y007965D03*
X012092Y007949D03*
X012108Y007933D03*
X012108Y007917D03*
X012092Y007901D03*
X012092Y007885D03*
X012108Y007869D03*
X012108Y007853D03*
X012092Y007837D03*
X012092Y007821D03*
X012108Y007805D03*
X012108Y007789D03*
X012092Y007773D03*
X012092Y007757D03*
X012108Y007741D03*
X012108Y007725D03*
X012092Y007709D03*
X012092Y007693D03*
X012108Y007677D03*
X012108Y007661D03*
X012092Y007645D03*
X012092Y007629D03*
X012108Y007613D03*
X012108Y007597D03*
X012092Y007581D03*
X012092Y007565D03*
X012108Y007549D03*
X012108Y007533D03*
X012092Y007517D03*
X012092Y007501D03*
X012108Y007485D03*
X012108Y007469D03*
X012092Y007453D03*
X012092Y007437D03*
X012108Y007421D03*
X012108Y007405D03*
X012092Y007389D03*
X012092Y007373D03*
X012108Y007357D03*
X012108Y007341D03*
X012188Y007309D03*
X012268Y007213D03*
X012332Y007149D03*
X012348Y007133D03*
X012348Y007117D03*
X012412Y007325D03*
X012396Y007341D03*
X012396Y007357D03*
X012412Y007373D03*
X012428Y007357D03*
X012428Y007341D03*
X011820Y007341D03*
X011820Y007357D03*
X011820Y007405D03*
X011820Y007421D03*
X011820Y007469D03*
X011820Y007485D03*
X011820Y007533D03*
X011820Y007549D03*
X011820Y007597D03*
X011820Y007613D03*
X011820Y007661D03*
X011820Y007677D03*
X011820Y007725D03*
X011820Y007741D03*
X011820Y007789D03*
X011820Y007805D03*
X011820Y007853D03*
X011820Y007869D03*
X011820Y007917D03*
X011820Y007933D03*
X011820Y007981D03*
X011820Y007997D03*
X011820Y008045D03*
X011820Y008061D03*
X011836Y008093D03*
X011820Y008109D03*
X011820Y008125D03*
X011836Y008141D03*
X011852Y008125D03*
X011852Y008109D03*
X011868Y008141D03*
X011868Y008157D03*
X011900Y008157D03*
X011900Y008141D03*
X011916Y008173D03*
X011916Y008189D03*
X011932Y008205D03*
X011948Y008189D03*
X011948Y008173D03*
X011932Y008157D03*
X011980Y008189D03*
X011996Y008205D03*
X011996Y008221D03*
X011980Y008237D03*
X012012Y008237D03*
X012012Y008253D03*
X012028Y008269D03*
X012060Y008269D03*
X012060Y008285D03*
X012076Y008301D03*
X012092Y008285D03*
X012092Y008269D03*
X012076Y008253D03*
X012108Y008301D03*
X012028Y008221D03*
X011308Y007741D03*
X011308Y007725D03*
X011292Y007709D03*
X011276Y007725D03*
X011260Y007709D03*
X011260Y007693D03*
X011228Y007693D03*
X011212Y007677D03*
X011212Y007661D03*
X011196Y007645D03*
X011180Y007661D03*
X011132Y007629D03*
X011116Y007613D03*
X011116Y007597D03*
X011100Y007581D03*
X011068Y007581D03*
X011068Y007565D03*
X011052Y007549D03*
X011052Y007533D03*
X011068Y007517D03*
X011068Y007501D03*
X011052Y007485D03*
X011052Y007469D03*
X011068Y007453D03*
X011068Y007437D03*
X011052Y007421D03*
X011052Y007405D03*
X011068Y007389D03*
X011068Y007373D03*
X011052Y007357D03*
X011052Y007341D03*
X011068Y007325D03*
X011068Y007309D03*
X011052Y007293D03*
X011052Y007277D03*
X011068Y007261D03*
X011068Y007245D03*
X011052Y007229D03*
X011052Y007213D03*
X011068Y007197D03*
X011068Y007181D03*
X011052Y007165D03*
X011052Y007149D03*
X011068Y007133D03*
X011068Y007117D03*
X011148Y007613D03*
X011820Y007293D03*
X011820Y007277D03*
D13*
X011796Y007221D03*
X011588Y007589D03*
X011572Y007605D03*
X011540Y007621D03*
X011524Y007637D03*
X011476Y007669D03*
X011444Y007685D03*
X011428Y007701D03*
X011268Y007701D03*
X011236Y007685D03*
X011188Y007653D03*
X011172Y007637D03*
X011140Y007621D03*
X011092Y007589D03*
X011076Y007573D03*
X011844Y008117D03*
X011860Y008133D03*
X011908Y008165D03*
X011956Y008197D03*
X012004Y008229D03*
X012100Y008293D03*
X012196Y008229D03*
X012244Y008197D03*
X012292Y008165D03*
X012340Y008133D03*
X012356Y008117D03*
X012676Y007637D03*
X012660Y007621D03*
X012628Y007605D03*
X012612Y007589D03*
X012724Y007669D03*
X012756Y007685D03*
X012772Y007701D03*
X012932Y007701D03*
X012964Y007685D03*
X013012Y007653D03*
X013028Y007637D03*
X013060Y007621D03*
X013108Y007589D03*
X013124Y007573D03*
X013908Y006869D03*
X013732Y006629D03*
X013732Y006613D03*
X013700Y006565D03*
X014132Y006565D03*
X014764Y007125D03*
X015396Y007125D03*
X015652Y007125D03*
X017268Y006581D03*
X017300Y006629D03*
X017300Y006645D03*
X017588Y007109D03*
X017620Y007157D03*
X018772Y006821D03*
X018772Y006597D03*
X019092Y006597D03*
X019108Y006885D03*
X019108Y007125D03*
X013092Y006213D03*
X013044Y006181D03*
X012996Y006149D03*
X012948Y006117D03*
X012852Y006053D03*
X012788Y006101D03*
X012740Y006133D03*
X012692Y006165D03*
X012644Y006197D03*
X012596Y006229D03*
X012580Y006245D03*
X012644Y006293D03*
X012692Y006325D03*
X012740Y006357D03*
X012788Y006389D03*
X012852Y006437D03*
X012948Y006373D03*
X012996Y006341D03*
X013044Y006309D03*
X012404Y006437D03*
X012404Y006453D03*
X012116Y006805D03*
X011796Y006869D03*
X011796Y006405D03*
X011620Y006245D03*
X011604Y006229D03*
X011556Y006197D03*
X011508Y006165D03*
X011460Y006133D03*
X011412Y006101D03*
X011348Y006053D03*
X011252Y006117D03*
X011204Y006149D03*
X011156Y006181D03*
X011108Y006213D03*
X011156Y006309D03*
X011204Y006341D03*
X011252Y006373D03*
X011348Y006437D03*
X011412Y006389D03*
X011460Y006357D03*
X011508Y006325D03*
X011556Y006293D03*
X011924Y005749D03*
X011972Y005781D03*
X012020Y005813D03*
X012180Y005813D03*
X012228Y005781D03*
X012276Y005749D03*
X012324Y005637D03*
X012276Y005605D03*
X012228Y005573D03*
X012180Y005541D03*
X012020Y005541D03*
X011972Y005573D03*
X011924Y005605D03*
X011876Y005637D03*
X010132Y006597D03*
X009428Y006597D03*
X008276Y006597D03*
X007540Y006597D03*
X006276Y006869D03*
X006068Y006597D03*
X005684Y007125D03*
X004996Y007141D03*
X004980Y007125D03*
X004980Y007109D03*
X004980Y006597D03*
X004676Y006613D03*
X004676Y006629D03*
X004660Y006597D03*
X004644Y006565D03*
X004644Y006549D03*
X004244Y006597D03*
D14*
X004284Y006557D03*
X004684Y006573D03*
X004684Y006589D03*
X004684Y006637D03*
X004684Y006653D03*
X004764Y006733D03*
X004764Y006749D03*
X004764Y006797D03*
X004844Y006893D03*
X004844Y006909D03*
X004924Y007005D03*
X004924Y007053D03*
X004924Y007069D03*
X005004Y007085D03*
X005004Y007101D03*
X005004Y007149D03*
X005004Y007165D03*
X005004Y007037D03*
X005004Y007021D03*
X005004Y006973D03*
X005004Y006957D03*
X005004Y006909D03*
X005004Y006893D03*
X005004Y006845D03*
X005004Y006829D03*
X005004Y006781D03*
X005004Y006765D03*
X005004Y006717D03*
X005004Y006701D03*
X005004Y006653D03*
X005004Y006637D03*
X005004Y006589D03*
X005004Y006573D03*
X005404Y006605D03*
X005404Y006621D03*
X005404Y006669D03*
X005404Y006685D03*
X005404Y006733D03*
X005404Y006749D03*
X005404Y006797D03*
X005404Y006813D03*
X005404Y006861D03*
X005404Y006877D03*
X005404Y006925D03*
X005404Y006941D03*
X005404Y006989D03*
X005404Y007005D03*
X005404Y007053D03*
X005404Y007069D03*
X005404Y007117D03*
X005404Y007133D03*
X005484Y007149D03*
X005484Y007165D03*
X005564Y007181D03*
X005644Y007165D03*
X005644Y007149D03*
X005724Y007069D03*
X006044Y007181D03*
X006124Y007165D03*
X006124Y007149D03*
X006364Y007181D03*
X006444Y007165D03*
X006444Y007149D03*
X006364Y007069D03*
X006364Y007053D03*
X006284Y006909D03*
X006284Y006893D03*
X006284Y006845D03*
X006284Y006829D03*
X006364Y006813D03*
X006204Y006861D03*
X006124Y006845D03*
X006124Y006829D03*
X006164Y006597D03*
X006124Y006589D03*
X006124Y006573D03*
X006044Y006557D03*
X006204Y006557D03*
X006284Y006573D03*
X006284Y006589D03*
X006364Y006605D03*
X006844Y006557D03*
X006924Y006573D03*
X006924Y006589D03*
X006964Y006597D03*
X007004Y006557D03*
X007084Y006573D03*
X007084Y006589D03*
X007164Y006605D03*
X007164Y006621D03*
X007164Y006669D03*
X007164Y006557D03*
X007484Y006557D03*
X007564Y006573D03*
X007564Y006589D03*
X007604Y006597D03*
X007564Y006637D03*
X007564Y006653D03*
X007564Y006701D03*
X007564Y006717D03*
X007564Y006765D03*
X007564Y006781D03*
X007564Y006829D03*
X007564Y006845D03*
X007564Y006893D03*
X007564Y006909D03*
X007564Y006957D03*
X007564Y006973D03*
X007564Y007021D03*
X007564Y007037D03*
X007564Y007085D03*
X007564Y007101D03*
X007564Y007149D03*
X007564Y007165D03*
X007484Y007181D03*
X007644Y007181D03*
X007724Y007165D03*
X007724Y007149D03*
X007804Y007133D03*
X007884Y007037D03*
X007884Y007021D03*
X007884Y006973D03*
X007884Y006957D03*
X007884Y006909D03*
X007884Y006893D03*
X007884Y006845D03*
X007884Y006829D03*
X007884Y006781D03*
X007884Y006765D03*
X007884Y006717D03*
X007884Y006701D03*
X007884Y006653D03*
X007804Y006605D03*
X007804Y006557D03*
X007724Y006573D03*
X007724Y006589D03*
X007644Y006557D03*
X008284Y006557D03*
X008284Y006605D03*
X008284Y006621D03*
X008284Y006669D03*
X008284Y006685D03*
X008284Y006733D03*
X008284Y006749D03*
X008284Y006797D03*
X008284Y006813D03*
X008284Y006861D03*
X008284Y006877D03*
X008284Y006925D03*
X008284Y006941D03*
X008284Y006989D03*
X008284Y007005D03*
X008284Y007053D03*
X008284Y007069D03*
X008284Y007117D03*
X008284Y007133D03*
X008284Y007181D03*
X008684Y007165D03*
X008684Y007149D03*
X008764Y007181D03*
X008844Y007165D03*
X008844Y007149D03*
X008924Y007181D03*
X009004Y007165D03*
X009004Y007149D03*
X009004Y006845D03*
X009004Y006829D03*
X009004Y006781D03*
X008924Y006813D03*
X008844Y006829D03*
X008844Y006845D03*
X008764Y006813D03*
X008884Y006597D03*
X008844Y006589D03*
X008844Y006573D03*
X008764Y006557D03*
X008684Y006573D03*
X008684Y006589D03*
X008924Y006557D03*
X009004Y006573D03*
X009004Y006589D03*
X009404Y006557D03*
X009484Y007149D03*
X009484Y007165D03*
X009404Y007181D03*
X009564Y007181D03*
X009644Y007165D03*
X009644Y007149D03*
X009724Y007181D03*
X010124Y007165D03*
X010124Y007149D03*
X010124Y007101D03*
X010124Y007085D03*
X010124Y007037D03*
X010124Y007021D03*
X010124Y006973D03*
X010124Y006957D03*
X010124Y006909D03*
X010124Y006893D03*
X010124Y006845D03*
X010124Y006829D03*
X010124Y006781D03*
X010124Y006765D03*
X010124Y006717D03*
X010124Y006701D03*
X010124Y006653D03*
X010124Y006637D03*
X010124Y006589D03*
X010124Y006573D03*
X010204Y006557D03*
X010284Y006573D03*
X010284Y006589D03*
X010324Y006597D03*
X010364Y006557D03*
X010444Y006573D03*
X010444Y006589D03*
X010284Y006829D03*
X010284Y006845D03*
X010244Y006869D03*
X010204Y006861D03*
X010284Y007149D03*
X010284Y007165D03*
X010204Y007181D03*
X010364Y007181D03*
X010444Y007165D03*
X010444Y007149D03*
X011084Y007597D03*
X011164Y007629D03*
X011164Y007645D03*
X011244Y007677D03*
X011324Y007709D03*
X011324Y007757D03*
X011404Y007741D03*
X011404Y007725D03*
X011484Y007645D03*
X011564Y007613D03*
X011564Y007597D03*
X011644Y007565D03*
X011644Y007517D03*
X011644Y007501D03*
X011644Y007453D03*
X011644Y007437D03*
X011644Y007389D03*
X011644Y007373D03*
X011644Y007325D03*
X011644Y007309D03*
X011644Y007261D03*
X011644Y007245D03*
X011644Y007197D03*
X011644Y007181D03*
X011644Y007133D03*
X011644Y007117D03*
X011644Y007069D03*
X011644Y007053D03*
X011644Y007005D03*
X011644Y006989D03*
X011644Y006941D03*
X011644Y006925D03*
X011644Y006877D03*
X011644Y006861D03*
X011644Y006813D03*
X011644Y006797D03*
X011644Y006749D03*
X011644Y006733D03*
X011644Y006685D03*
X011644Y006669D03*
X011724Y006765D03*
X011724Y006781D03*
X011804Y006797D03*
X011804Y006813D03*
X011804Y006861D03*
X011804Y006877D03*
X011804Y006925D03*
X011804Y006941D03*
X011804Y006989D03*
X011804Y007005D03*
X011804Y007053D03*
X011804Y007069D03*
X011804Y007117D03*
X011804Y007133D03*
X011804Y007181D03*
X011804Y007197D03*
X011804Y007245D03*
X011804Y007261D03*
X011804Y007309D03*
X011804Y007325D03*
X011804Y007373D03*
X011804Y007389D03*
X011804Y007437D03*
X011804Y007453D03*
X011804Y007501D03*
X011804Y007517D03*
X011804Y007565D03*
X011804Y007581D03*
X011804Y007629D03*
X011804Y007645D03*
X011804Y007693D03*
X011804Y007709D03*
X011804Y007757D03*
X011804Y007773D03*
X011804Y007821D03*
X011804Y007837D03*
X011804Y007885D03*
X011804Y007901D03*
X011804Y007949D03*
X011804Y007965D03*
X011804Y008013D03*
X011804Y008029D03*
X011804Y008077D03*
X011804Y008093D03*
X011884Y008125D03*
X011884Y008173D03*
X011964Y008205D03*
X011964Y008221D03*
X012044Y008237D03*
X012044Y008253D03*
X012124Y008269D03*
X012124Y008285D03*
X012204Y008237D03*
X012284Y008157D03*
X012364Y008125D03*
X012364Y008109D03*
X012684Y007661D03*
X012764Y007693D03*
X012764Y007709D03*
X012844Y007725D03*
X012844Y007741D03*
X012844Y007677D03*
X012844Y007661D03*
X012844Y007613D03*
X012844Y007597D03*
X012844Y007549D03*
X012844Y007533D03*
X012844Y007485D03*
X012844Y007469D03*
X012844Y007421D03*
X012844Y007405D03*
X012844Y007357D03*
X012844Y007341D03*
X012844Y007293D03*
X012844Y007277D03*
X012844Y007229D03*
X012844Y007213D03*
X012844Y007165D03*
X012844Y007149D03*
X012844Y007101D03*
X012844Y007085D03*
X012844Y007037D03*
X012844Y007021D03*
X012844Y006973D03*
X012844Y006957D03*
X012844Y006909D03*
X012844Y006893D03*
X012844Y006845D03*
X012844Y006829D03*
X012844Y006781D03*
X012844Y006765D03*
X012844Y006717D03*
X012844Y006701D03*
X012844Y006653D03*
X012844Y006637D03*
X012844Y006589D03*
X012844Y006573D03*
X012844Y006525D03*
X012844Y006509D03*
X012844Y006461D03*
X012844Y006445D03*
X012924Y006413D03*
X012924Y006365D03*
X013004Y006333D03*
X013004Y006317D03*
X013084Y006301D03*
X013084Y006285D03*
X013084Y006221D03*
X013004Y006141D03*
X012924Y006109D03*
X012924Y006093D03*
X012844Y006077D03*
X012844Y006061D03*
X012764Y006093D03*
X012764Y006109D03*
X012684Y006189D03*
X012604Y006221D03*
X012604Y006237D03*
X012604Y006285D03*
X012524Y006317D03*
X012524Y006333D03*
X012444Y006413D03*
X012444Y006429D03*
X012364Y006509D03*
X012364Y006525D03*
X012284Y006605D03*
X012284Y006621D03*
X012204Y006701D03*
X012204Y006717D03*
X012124Y006797D03*
X012124Y006813D03*
X012044Y006893D03*
X012044Y006909D03*
X011964Y006989D03*
X011964Y007005D03*
X011884Y007085D03*
X011884Y007101D03*
X011724Y007149D03*
X011724Y007165D03*
X011804Y006749D03*
X011804Y006733D03*
X011804Y006685D03*
X011804Y006669D03*
X011804Y006621D03*
X011804Y006605D03*
X011804Y006557D03*
X011804Y006541D03*
X011804Y006493D03*
X011804Y006477D03*
X011804Y006429D03*
X011804Y006413D03*
X011804Y006365D03*
X011804Y006349D03*
X011804Y006301D03*
X011804Y006285D03*
X011804Y006237D03*
X011804Y006221D03*
X011804Y006173D03*
X011804Y006157D03*
X011804Y006109D03*
X011804Y006093D03*
X011804Y006045D03*
X011804Y006029D03*
X011804Y005981D03*
X011804Y005965D03*
X011804Y005917D03*
X011804Y005901D03*
X011804Y005853D03*
X011804Y005837D03*
X011804Y005789D03*
X011804Y005773D03*
X011804Y005725D03*
X011804Y005709D03*
X011884Y005741D03*
X011964Y005773D03*
X011964Y005789D03*
X012044Y005805D03*
X012044Y005821D03*
X012124Y005837D03*
X012124Y005853D03*
X012204Y005821D03*
X012204Y005805D03*
X012284Y005725D03*
X012364Y005693D03*
X012364Y005677D03*
X012284Y005597D03*
X012204Y005565D03*
X012204Y005549D03*
X012124Y005517D03*
X012044Y005549D03*
X011964Y005581D03*
X011964Y005597D03*
X011884Y005613D03*
X011884Y005629D03*
X011404Y006077D03*
X011324Y006093D03*
X011324Y006045D03*
X011244Y006125D03*
X011244Y006141D03*
X011164Y006157D03*
X011164Y006173D03*
X011084Y006253D03*
X011084Y006269D03*
X011164Y006301D03*
X011244Y006381D03*
X011324Y006413D03*
X011324Y006429D03*
X011404Y006397D03*
X011404Y006381D03*
X011484Y006365D03*
X011484Y006349D03*
X011564Y006269D03*
X011564Y006205D03*
X011564Y006189D03*
X011484Y006173D03*
X011484Y006157D03*
X011644Y006237D03*
X011644Y006285D03*
X011724Y006317D03*
X011724Y006333D03*
X012444Y006989D03*
X012444Y007005D03*
X012364Y007085D03*
X012364Y007101D03*
X012284Y007181D03*
X012284Y007197D03*
X012204Y007277D03*
X012204Y007293D03*
X012204Y007357D03*
X012124Y007373D03*
X012124Y007389D03*
X012124Y007325D03*
X012284Y007373D03*
X012284Y007389D03*
X012364Y007357D03*
X012444Y007325D03*
X012444Y007309D03*
X012524Y007229D03*
X012524Y007213D03*
X012524Y006909D03*
X012524Y006893D03*
X012764Y006365D03*
X012764Y006349D03*
X012684Y006333D03*
X012684Y006317D03*
X013724Y006605D03*
X013724Y006621D03*
X013724Y006669D03*
X013724Y006685D03*
X013724Y006733D03*
X013724Y006749D03*
X013724Y006797D03*
X013724Y006813D03*
X013724Y006861D03*
X013724Y006877D03*
X013724Y006925D03*
X013724Y006941D03*
X013724Y006989D03*
X013724Y007005D03*
X013724Y007053D03*
X013724Y007069D03*
X013724Y007117D03*
X013724Y007133D03*
X013724Y007181D03*
X014084Y007189D03*
X014124Y007165D03*
X014124Y007149D03*
X014124Y007101D03*
X014124Y007085D03*
X014124Y007037D03*
X014124Y007021D03*
X014124Y006973D03*
X014124Y006957D03*
X014124Y006909D03*
X014124Y006893D03*
X014124Y006845D03*
X014124Y006829D03*
X014124Y006781D03*
X014124Y006765D03*
X014124Y006717D03*
X014124Y006701D03*
X014124Y006653D03*
X014124Y006637D03*
X014124Y006589D03*
X014124Y006573D03*
X014044Y006669D03*
X014044Y006685D03*
X013964Y006765D03*
X013964Y006781D03*
X013964Y006829D03*
X013884Y006813D03*
X013884Y006861D03*
X013804Y006717D03*
X013804Y006701D03*
X014524Y006605D03*
X014604Y006701D03*
X014604Y006717D03*
X014604Y006765D03*
X014604Y006781D03*
X014684Y006877D03*
X014684Y006925D03*
X014684Y006941D03*
X014684Y006989D03*
X014684Y007005D03*
X014764Y007085D03*
X014764Y007101D03*
X014764Y007149D03*
X014764Y007165D03*
X014724Y007189D03*
X014844Y007005D03*
X014844Y006989D03*
X014844Y006941D03*
X014844Y006925D03*
X014844Y006877D03*
X014764Y006893D03*
X014764Y006909D03*
X014924Y006781D03*
X014924Y006765D03*
X014924Y006717D03*
X014924Y006701D03*
X015004Y006605D03*
X015404Y006589D03*
X015404Y006573D03*
X015484Y006557D03*
X015564Y006573D03*
X015564Y006589D03*
X015644Y006605D03*
X016044Y006589D03*
X016044Y006573D03*
X016124Y006861D03*
X016204Y006845D03*
X016204Y006829D03*
X016284Y006861D03*
X016364Y006845D03*
X016364Y006829D03*
X016444Y006813D03*
X016444Y006797D03*
X016444Y006749D03*
X016444Y006733D03*
X016444Y006685D03*
X016444Y006669D03*
X016444Y006621D03*
X016444Y006605D03*
X016444Y006557D03*
X016444Y006861D03*
X016444Y006877D03*
X016444Y006925D03*
X016444Y006941D03*
X016444Y006989D03*
X016444Y007005D03*
X016444Y007053D03*
X016444Y007069D03*
X016444Y007117D03*
X016444Y007133D03*
X016444Y007181D03*
X016044Y007165D03*
X016044Y007149D03*
X015644Y007133D03*
X015644Y007117D03*
X015564Y007149D03*
X015564Y007165D03*
X015484Y007181D03*
X015484Y007133D03*
X015404Y007149D03*
X015404Y007165D03*
X016844Y007165D03*
X016844Y007149D03*
X016844Y007101D03*
X016844Y007085D03*
X016844Y007037D03*
X016844Y007021D03*
X016844Y006973D03*
X016844Y006957D03*
X016844Y006909D03*
X016844Y006893D03*
X016844Y006845D03*
X016844Y006829D03*
X016844Y006781D03*
X016844Y006765D03*
X016844Y006717D03*
X016844Y006701D03*
X016844Y006653D03*
X016844Y006637D03*
X016844Y006589D03*
X016844Y006573D03*
X017244Y006557D03*
X017324Y006637D03*
X017324Y006653D03*
X017404Y006797D03*
X017404Y006813D03*
X017484Y006909D03*
X017484Y006957D03*
X017484Y006973D03*
X017564Y007053D03*
X017564Y007069D03*
X017564Y007117D03*
X017604Y007189D03*
X017644Y007165D03*
X017644Y007149D03*
X017324Y007149D03*
X017324Y007165D03*
X017284Y007189D03*
X017244Y007181D03*
X018044Y007181D03*
X018084Y007189D03*
X018124Y007165D03*
X018124Y007149D03*
X018044Y007133D03*
X018044Y007117D03*
X018044Y007069D03*
X018044Y007053D03*
X018044Y007005D03*
X018044Y006989D03*
X018044Y006941D03*
X018044Y006925D03*
X018044Y006877D03*
X018044Y006861D03*
X018044Y006813D03*
X018044Y006797D03*
X018044Y006749D03*
X018044Y006733D03*
X018044Y006685D03*
X018044Y006669D03*
X018044Y006621D03*
X018044Y006605D03*
X018044Y006557D03*
X018124Y006573D03*
X018124Y006589D03*
X018204Y006557D03*
X018284Y006573D03*
X018284Y006589D03*
X018364Y006605D03*
X018364Y006621D03*
X018364Y006669D03*
X018364Y006685D03*
X018364Y006557D03*
X018764Y006573D03*
X018764Y006589D03*
X018844Y006557D03*
X018924Y006573D03*
X018924Y006589D03*
X019004Y006557D03*
X019084Y006573D03*
X019084Y006589D03*
X019084Y006845D03*
X019004Y006861D03*
X018924Y006845D03*
X018924Y006829D03*
X018844Y006861D03*
X018764Y006845D03*
X018764Y006829D03*
X018844Y007133D03*
X018844Y007181D03*
X018924Y007165D03*
X018924Y007149D03*
X019004Y007133D03*
X019004Y007181D03*
X019084Y007165D03*
X019084Y007149D03*
X018764Y007149D03*
X018364Y007133D03*
X018364Y007117D03*
X018364Y007069D03*
X018364Y007181D03*
X018284Y007165D03*
X018284Y007149D03*
X018244Y007189D03*
X018204Y007181D03*
X018204Y006861D03*
X018124Y006845D03*
X018124Y006829D03*
X017644Y006589D03*
X017644Y006573D03*
X017564Y006557D03*
X013084Y007581D03*
X013084Y007629D03*
X013004Y007661D03*
X013004Y007677D03*
X012924Y007693D03*
X012924Y007709D03*
X012604Y007581D03*
X012604Y007565D03*
X007164Y007181D03*
X007164Y007133D03*
X007164Y007117D03*
X007164Y007069D03*
X007084Y007149D03*
X007084Y007165D03*
X007004Y007181D03*
X006924Y007165D03*
X006924Y007149D03*
X006844Y007133D03*
X006844Y007181D03*
X006884Y006869D03*
X006844Y006861D03*
X006924Y006845D03*
X006924Y006829D03*
X007004Y006861D03*
X005724Y006669D03*
X005644Y006589D03*
X005644Y006573D03*
X005564Y006557D03*
X005524Y006597D03*
X005484Y006589D03*
X005484Y006573D03*
X004684Y007149D03*
X004684Y007165D03*
X004284Y007181D03*
D15*
X011108Y006293D03*
X012100Y005845D03*
X012100Y005509D03*
X012100Y008277D03*
D16*
X012100Y008261D03*
X011348Y006405D03*
X011348Y006085D03*
X012852Y006085D03*
X012852Y006405D03*
X005556Y006549D03*
D17*
X006916Y006853D03*
X010228Y006853D03*
X010228Y006837D03*
X010228Y006821D03*
X012100Y008245D03*
X018124Y006853D03*
D18*
X017612Y007141D03*
X017580Y007077D03*
X017276Y007141D03*
X017308Y006661D03*
X016428Y006597D03*
X016428Y006581D03*
X016428Y006565D03*
X016076Y006565D03*
X016076Y006581D03*
X016076Y006597D03*
X016076Y007141D03*
X016076Y007157D03*
X016076Y007173D03*
X016428Y007173D03*
X016428Y007157D03*
X016428Y007141D03*
X014108Y006613D03*
X013916Y006853D03*
X013740Y006645D03*
X013116Y006261D03*
X013068Y006197D03*
X013020Y006165D03*
X012972Y006133D03*
X012716Y006149D03*
X012668Y006181D03*
X012620Y006213D03*
X012668Y006309D03*
X012716Y006341D03*
X012972Y006357D03*
X013020Y006325D03*
X012412Y006421D03*
X011788Y006389D03*
X011532Y006309D03*
X011436Y006373D03*
X011276Y006389D03*
X011228Y006357D03*
X011180Y006325D03*
X011132Y006197D03*
X011228Y006133D03*
X011276Y006101D03*
X011436Y006117D03*
X011532Y006181D03*
X011948Y005765D03*
X011996Y005797D03*
X011900Y005733D03*
X012156Y005525D03*
X012252Y005589D03*
X012300Y005621D03*
X012348Y005653D03*
X012356Y005701D03*
X011788Y006853D03*
X011652Y007093D03*
X011788Y007205D03*
X011212Y007669D03*
X011116Y007605D03*
X011932Y008181D03*
X012220Y008213D03*
X012268Y008181D03*
X012316Y008149D03*
X012700Y007653D03*
X012860Y007749D03*
X013708Y007173D03*
X012548Y006901D03*
X008988Y006597D03*
X006076Y007141D03*
X006076Y007157D03*
X006076Y007173D03*
X005660Y006597D03*
X004988Y006565D03*
X004988Y006549D03*
X004652Y006581D03*
X004252Y006565D03*
X004252Y006549D03*
X004252Y007141D03*
X004972Y007093D03*
D19*
X005000Y007157D03*
X011088Y006229D03*
X011184Y006165D03*
X011480Y006149D03*
X011576Y006213D03*
X011648Y006709D03*
X011840Y007141D03*
X012552Y007221D03*
X012984Y007669D03*
X013080Y007605D03*
X011984Y008213D03*
X011888Y008149D03*
X011496Y007653D03*
X013112Y006229D03*
X012304Y005733D03*
X012256Y005765D03*
X012160Y005829D03*
X011904Y005621D03*
X011856Y005653D03*
X011952Y005589D03*
X012000Y005557D03*
X012048Y005525D03*
X017272Y006597D03*
X017584Y007093D03*
D20*
X017488Y006949D03*
X017480Y006933D03*
X017416Y006821D03*
X017408Y006805D03*
X017400Y006789D03*
X017352Y006709D03*
X018728Y006773D03*
X018728Y006645D03*
X019136Y006645D03*
X019120Y006901D03*
X019136Y007077D03*
X019128Y007093D03*
X019120Y007109D03*
X018736Y007093D03*
X018728Y007077D03*
X016080Y006821D03*
X015680Y006629D03*
X015688Y007061D03*
X015376Y007109D03*
X015368Y007093D03*
X014912Y006773D03*
X014960Y006645D03*
X014832Y006981D03*
X014720Y007045D03*
X014712Y007029D03*
X014680Y006949D03*
X014672Y006917D03*
X014616Y006773D03*
X014568Y006645D03*
X014120Y006677D03*
X014120Y006693D03*
X014120Y006709D03*
X014120Y006741D03*
X014120Y006757D03*
X014120Y006773D03*
X014120Y006805D03*
X014120Y006821D03*
X014120Y006837D03*
X014120Y006869D03*
X014120Y006885D03*
X014120Y006901D03*
X014120Y006933D03*
X014120Y006949D03*
X014120Y006965D03*
X014120Y006997D03*
X014120Y007013D03*
X014120Y007029D03*
X014120Y007061D03*
X014120Y007077D03*
X014120Y007093D03*
X014120Y007125D03*
X013976Y006789D03*
X013872Y006821D03*
X013840Y006773D03*
X013808Y006725D03*
X012536Y006293D03*
X012496Y006341D03*
X012480Y006357D03*
X012472Y006373D03*
X012392Y006469D03*
X012280Y006613D03*
X012240Y006661D03*
X012216Y006693D03*
X012096Y006837D03*
X011968Y006997D03*
X011960Y007013D03*
X011896Y007093D03*
X011880Y007109D03*
X011736Y006805D03*
X011696Y006757D03*
X012256Y007205D03*
X012216Y007253D03*
X012376Y007077D03*
X012400Y007045D03*
X012856Y007765D03*
X012376Y008101D03*
X009040Y007093D03*
X009040Y006901D03*
X009032Y006885D03*
X009032Y006773D03*
X009040Y006757D03*
X009040Y006645D03*
X009032Y006629D03*
X006408Y006757D03*
X006400Y006629D03*
X006280Y006885D03*
X006288Y006901D03*
X006296Y006917D03*
X006320Y006965D03*
X006360Y007061D03*
X006368Y007077D03*
X006376Y007093D03*
X005712Y006645D03*
X005392Y006645D03*
X005392Y007093D03*
X004920Y007029D03*
X004880Y006965D03*
X004856Y006917D03*
X004800Y006821D03*
X004792Y006805D03*
X004776Y006773D03*
X004736Y006709D03*
X004728Y006693D03*
X004256Y006693D03*
X004256Y006709D03*
X004256Y006741D03*
X004256Y006757D03*
X004256Y006773D03*
X004256Y006805D03*
X004256Y006821D03*
X004256Y006837D03*
X004256Y006869D03*
X004256Y006885D03*
X004256Y006901D03*
X004256Y006933D03*
X004256Y006949D03*
X004256Y006965D03*
X004256Y006997D03*
X004256Y007013D03*
X004256Y007029D03*
X004256Y007061D03*
X004256Y007077D03*
X004256Y007093D03*
X004256Y007125D03*
X004256Y006677D03*
X004256Y006645D03*
X004256Y006629D03*
X004256Y006613D03*
D21*
X004784Y006789D03*
X004864Y006933D03*
X005384Y007077D03*
X005704Y007093D03*
X006304Y006933D03*
X006384Y007109D03*
X007864Y007045D03*
X007864Y007029D03*
X007864Y006981D03*
X007864Y006965D03*
X007864Y006917D03*
X007864Y006901D03*
X007864Y006853D03*
X007864Y006837D03*
X007864Y006789D03*
X007864Y006773D03*
X007864Y006725D03*
X007864Y006709D03*
X011904Y007077D03*
X011984Y006981D03*
X012024Y006933D03*
X012224Y006677D03*
X012344Y006533D03*
X011824Y008101D03*
X014584Y006693D03*
X014904Y006789D03*
X014944Y006693D03*
X014824Y006997D03*
X016424Y006821D03*
X017424Y006837D03*
X017464Y006901D03*
X018024Y006901D03*
X018024Y006885D03*
X018024Y006933D03*
X018024Y006949D03*
X018024Y006965D03*
X018024Y006997D03*
X018024Y007013D03*
X018024Y007029D03*
X018024Y007061D03*
X018024Y007077D03*
X018024Y007093D03*
X018024Y007125D03*
X018024Y006805D03*
X018024Y006773D03*
X018024Y006757D03*
X018024Y006741D03*
X018024Y006709D03*
X018024Y006693D03*
X018024Y006677D03*
X018024Y006645D03*
X018024Y006629D03*
X018024Y006613D03*
D22*
X018024Y006661D03*
X018024Y006725D03*
X018024Y006789D03*
X018024Y006917D03*
X018024Y006981D03*
X018024Y007045D03*
X018024Y007109D03*
X016072Y007109D03*
X016072Y007045D03*
X016072Y006981D03*
X016072Y006917D03*
X016072Y006789D03*
X016072Y006725D03*
X016072Y006661D03*
X014120Y006725D03*
X014120Y006789D03*
X014120Y006853D03*
X014120Y006917D03*
X014120Y006981D03*
X014120Y007045D03*
X014120Y007109D03*
X013712Y007109D03*
X013712Y007045D03*
X013712Y006981D03*
X013712Y006917D03*
X013712Y006853D03*
X013712Y006789D03*
X013712Y006725D03*
X012576Y006965D03*
X012576Y006981D03*
X012576Y007029D03*
X012576Y007045D03*
X012576Y007093D03*
X012576Y007109D03*
X012576Y007157D03*
X012576Y007173D03*
X012576Y007285D03*
X012576Y007301D03*
X012576Y007349D03*
X012576Y007365D03*
X012576Y007413D03*
X012576Y007429D03*
X012576Y007477D03*
X012576Y007493D03*
X012576Y007541D03*
X012384Y007541D03*
X012384Y007557D03*
X012384Y007573D03*
X012384Y007589D03*
X012384Y007605D03*
X012384Y007621D03*
X012384Y007637D03*
X012384Y007653D03*
X012384Y007669D03*
X012384Y007685D03*
X012384Y007701D03*
X012384Y007717D03*
X012384Y007733D03*
X012384Y007749D03*
X012384Y007765D03*
X012384Y007781D03*
X012384Y007797D03*
X012384Y007813D03*
X012384Y007829D03*
X012384Y007845D03*
X012384Y007861D03*
X012384Y007877D03*
X012384Y007893D03*
X012384Y007909D03*
X012384Y007925D03*
X012384Y007941D03*
X012384Y007957D03*
X012384Y007973D03*
X012384Y007989D03*
X012384Y008005D03*
X012384Y008021D03*
X012384Y008037D03*
X012384Y008053D03*
X012384Y008069D03*
X012384Y008085D03*
X011816Y008085D03*
X011816Y008069D03*
X011816Y008053D03*
X011816Y008037D03*
X011816Y008021D03*
X011816Y008005D03*
X011816Y007989D03*
X011816Y007973D03*
X011816Y007957D03*
X011816Y007941D03*
X011816Y007925D03*
X011816Y007909D03*
X011816Y007893D03*
X011816Y007877D03*
X011816Y007861D03*
X011816Y007845D03*
X011816Y007829D03*
X011816Y007813D03*
X011816Y007797D03*
X011816Y007781D03*
X011816Y007765D03*
X011816Y007749D03*
X011816Y007733D03*
X011816Y007717D03*
X011816Y007701D03*
X011816Y007685D03*
X011816Y007669D03*
X011816Y007653D03*
X011816Y007637D03*
X011816Y007621D03*
X011816Y007605D03*
X011816Y007589D03*
X011816Y007573D03*
X011816Y007557D03*
X011816Y007541D03*
X011816Y007525D03*
X011816Y007509D03*
X011816Y007493D03*
X011816Y007477D03*
X011816Y007461D03*
X011816Y007445D03*
X011816Y007429D03*
X011816Y007413D03*
X011816Y007397D03*
X011816Y007381D03*
X011816Y007365D03*
X011816Y007349D03*
X011816Y007333D03*
X011816Y007317D03*
X011816Y007301D03*
X011816Y007285D03*
X011816Y007269D03*
X011816Y007109D03*
X011816Y007093D03*
X011816Y007077D03*
X011816Y007061D03*
X011816Y007045D03*
X011816Y007029D03*
X011816Y007013D03*
X011816Y006997D03*
X011816Y006981D03*
X011816Y006965D03*
X011816Y006949D03*
X011816Y006933D03*
X011816Y006917D03*
X011816Y006821D03*
X011816Y006805D03*
X011816Y006789D03*
X011816Y006773D03*
X011816Y006757D03*
X011816Y006741D03*
X011816Y006725D03*
X011816Y006709D03*
X011816Y006693D03*
X011816Y006677D03*
X011816Y006661D03*
X011816Y006645D03*
X011816Y006629D03*
X011816Y006613D03*
X011816Y006597D03*
X011816Y006581D03*
X011816Y006565D03*
X011816Y006549D03*
X011816Y006533D03*
X011816Y006517D03*
X011816Y006501D03*
X011816Y006485D03*
X011816Y006469D03*
X011816Y006453D03*
X011816Y006357D03*
X011816Y006341D03*
X011816Y006325D03*
X011816Y006309D03*
X011816Y006293D03*
X011816Y006277D03*
X011816Y006261D03*
X011816Y006245D03*
X011816Y006229D03*
X011816Y006213D03*
X011816Y006197D03*
X011816Y006181D03*
X011816Y006165D03*
X011816Y006149D03*
X011816Y006133D03*
X011816Y006117D03*
X011816Y006101D03*
X011816Y006085D03*
X011816Y006069D03*
X011816Y006053D03*
X011816Y006037D03*
X011816Y006021D03*
X011816Y006005D03*
X011816Y005989D03*
X011816Y005973D03*
X011816Y005957D03*
X011816Y005941D03*
X011816Y005925D03*
X011816Y005909D03*
X011816Y005893D03*
X011816Y005877D03*
X011816Y005861D03*
X011816Y005845D03*
X011816Y005829D03*
X011816Y005813D03*
X011816Y005797D03*
X011816Y005781D03*
X011816Y005765D03*
X011816Y005749D03*
X011816Y005733D03*
X012384Y005733D03*
X012384Y005749D03*
X012384Y005765D03*
X012384Y005781D03*
X012384Y005797D03*
X012384Y005813D03*
X012384Y005829D03*
X012384Y005845D03*
X012384Y005861D03*
X012384Y005877D03*
X012384Y005893D03*
X012384Y005909D03*
X012384Y005925D03*
X012384Y005941D03*
X012384Y005957D03*
X012384Y005973D03*
X012384Y005989D03*
X012384Y006005D03*
X012384Y006021D03*
X012384Y006037D03*
X012384Y006053D03*
X012384Y006069D03*
X012384Y006085D03*
X012384Y006101D03*
X012384Y006117D03*
X012384Y006133D03*
X012384Y006149D03*
X012384Y006165D03*
X012384Y006181D03*
X012384Y006197D03*
X012384Y006213D03*
X012384Y006229D03*
X012384Y006245D03*
X012384Y006261D03*
X012384Y006277D03*
X012384Y006293D03*
X012384Y006309D03*
X012384Y006325D03*
X012384Y006341D03*
X012384Y006357D03*
X012384Y006373D03*
X012384Y006389D03*
X011624Y006773D03*
X011624Y006789D03*
X011624Y006837D03*
X011624Y006853D03*
X011624Y006901D03*
X011624Y006917D03*
X011624Y006965D03*
X011624Y006981D03*
X011624Y007029D03*
X011624Y007045D03*
X011624Y007157D03*
X011624Y007173D03*
X011624Y007221D03*
X011624Y007237D03*
X011624Y007285D03*
X011624Y007301D03*
X011624Y007349D03*
X011624Y007365D03*
X011624Y007413D03*
X011624Y007429D03*
X011624Y007477D03*
X011624Y007493D03*
X011624Y007541D03*
X011344Y007557D03*
X011344Y007621D03*
X011344Y007685D03*
X011344Y007493D03*
X011344Y007429D03*
X011344Y007365D03*
X011344Y007301D03*
X011344Y007237D03*
X011344Y007173D03*
X011344Y007109D03*
X011344Y007045D03*
X011344Y006981D03*
X011344Y006917D03*
X011344Y006853D03*
X011344Y006789D03*
X011344Y006725D03*
X011344Y006661D03*
X011344Y006597D03*
X011344Y006533D03*
X011344Y006469D03*
X012384Y007413D03*
X012384Y007429D03*
X012384Y007445D03*
X012384Y007461D03*
X012384Y007477D03*
X012384Y007493D03*
X012384Y007509D03*
X012384Y007525D03*
X006408Y006725D03*
X006408Y006661D03*
X006080Y006661D03*
X006080Y006725D03*
X006080Y006789D03*
X006080Y006917D03*
X006080Y006981D03*
X006080Y007045D03*
X006080Y007109D03*
X005384Y006661D03*
D23*
X005696Y006669D03*
X005720Y006621D03*
X005696Y007069D03*
X005416Y007101D03*
X004976Y007037D03*
X004936Y007021D03*
X004976Y006973D03*
X004976Y006909D03*
X004976Y006845D03*
X004976Y006781D03*
X004976Y006717D03*
X004976Y006653D03*
X004944Y006589D03*
X004944Y006573D03*
X004704Y006685D03*
X004680Y006701D03*
X004680Y006717D03*
X004720Y006717D03*
X004680Y006765D03*
X004680Y006781D03*
X004680Y006829D03*
X004680Y006845D03*
X004680Y006893D03*
X004680Y006909D03*
X004680Y006957D03*
X004680Y006973D03*
X004680Y007021D03*
X004680Y007037D03*
X004680Y007085D03*
X004680Y007101D03*
X004872Y006909D03*
X004800Y006861D03*
X004784Y006829D03*
X004208Y006589D03*
X004208Y006573D03*
X004208Y007149D03*
X004208Y007165D03*
X006032Y007165D03*
X006032Y007149D03*
X006320Y007021D03*
X006336Y007053D03*
X006352Y007085D03*
X006368Y007117D03*
X006328Y006941D03*
X006312Y006909D03*
X006368Y006797D03*
X006384Y006781D03*
X006384Y006637D03*
X006776Y006597D03*
X006840Y006605D03*
X006840Y006621D03*
X006840Y006669D03*
X006840Y006685D03*
X006840Y006733D03*
X006840Y006749D03*
X006840Y006797D03*
X006840Y006813D03*
X006840Y006877D03*
X006840Y006925D03*
X006840Y006941D03*
X006840Y006989D03*
X006840Y007005D03*
X006840Y007053D03*
X006840Y007069D03*
X006840Y007117D03*
X007176Y007101D03*
X007176Y007085D03*
X007176Y007149D03*
X007176Y007165D03*
X007176Y006653D03*
X007176Y006637D03*
X007176Y006589D03*
X007176Y006573D03*
X007480Y006597D03*
X007864Y006605D03*
X007880Y006637D03*
X008296Y006637D03*
X008296Y006653D03*
X008296Y006701D03*
X008296Y006717D03*
X008296Y006765D03*
X008296Y006781D03*
X008296Y006829D03*
X008296Y006845D03*
X008296Y006893D03*
X008296Y006909D03*
X008296Y006957D03*
X008296Y006973D03*
X008296Y007021D03*
X008296Y007037D03*
X008296Y007085D03*
X008296Y007101D03*
X007880Y007085D03*
X008728Y007069D03*
X008728Y007053D03*
X008728Y007005D03*
X008728Y006989D03*
X008728Y006941D03*
X008728Y006925D03*
X008728Y006877D03*
X008728Y006861D03*
X008728Y006797D03*
X008728Y006749D03*
X008728Y006733D03*
X008728Y006685D03*
X008728Y006669D03*
X008728Y006621D03*
X008728Y006605D03*
X009024Y006669D03*
X009024Y006685D03*
X009024Y006733D03*
X009024Y006925D03*
X009024Y006941D03*
X009024Y006989D03*
X009024Y007005D03*
X009024Y007053D03*
X009024Y007069D03*
X009048Y007117D03*
X008728Y007117D03*
X009480Y006589D03*
X009480Y006573D03*
X010112Y006605D03*
X010112Y006621D03*
X010112Y006669D03*
X010112Y006685D03*
X010112Y006733D03*
X010112Y006749D03*
X010112Y006797D03*
X010112Y006813D03*
X010112Y006861D03*
X010112Y006877D03*
X010112Y006925D03*
X010112Y006941D03*
X010112Y006989D03*
X010112Y007005D03*
X010112Y007053D03*
X010112Y007069D03*
X010112Y007117D03*
X010448Y007101D03*
X010448Y007085D03*
X010344Y006845D03*
X010344Y006829D03*
X010448Y006653D03*
X010448Y006637D03*
X011088Y006205D03*
X011136Y006173D03*
X011184Y006141D03*
X011328Y006477D03*
X011328Y006493D03*
X011328Y006541D03*
X011328Y006557D03*
X011328Y006605D03*
X011328Y006621D03*
X011328Y006669D03*
X011328Y006685D03*
X011328Y006733D03*
X011328Y006749D03*
X011328Y006797D03*
X011328Y006813D03*
X011328Y006861D03*
X011328Y006877D03*
X011328Y006925D03*
X011328Y006941D03*
X011328Y006989D03*
X011328Y007005D03*
X011328Y007053D03*
X011328Y007069D03*
X011328Y007117D03*
X011328Y007133D03*
X011328Y007181D03*
X011328Y007197D03*
X011328Y007245D03*
X011328Y007261D03*
X011328Y007309D03*
X011328Y007325D03*
X011328Y007373D03*
X011328Y007389D03*
X011328Y007437D03*
X011328Y007453D03*
X011328Y007501D03*
X011328Y007517D03*
X011328Y007565D03*
X011328Y007581D03*
X011328Y007629D03*
X011328Y007645D03*
X011328Y007693D03*
X011144Y007597D03*
X011744Y007197D03*
X011760Y007213D03*
X011832Y007245D03*
X011832Y007261D03*
X011832Y007309D03*
X011832Y007325D03*
X011832Y007373D03*
X011832Y007389D03*
X011832Y007437D03*
X011832Y007453D03*
X011832Y007501D03*
X011832Y007517D03*
X011832Y007565D03*
X011832Y007581D03*
X011832Y007629D03*
X011832Y007645D03*
X011832Y007693D03*
X011832Y007709D03*
X011832Y007757D03*
X011832Y007773D03*
X011832Y007821D03*
X011832Y007837D03*
X011832Y007885D03*
X011832Y007901D03*
X011832Y007949D03*
X011832Y007965D03*
X011832Y008013D03*
X011832Y008029D03*
X011832Y008077D03*
X012368Y008061D03*
X012368Y008045D03*
X012368Y007997D03*
X012368Y007981D03*
X012368Y007933D03*
X012368Y007917D03*
X012368Y007869D03*
X012368Y007853D03*
X012368Y007805D03*
X012368Y007789D03*
X012368Y007741D03*
X012368Y007725D03*
X012368Y007677D03*
X012368Y007661D03*
X012368Y007613D03*
X012368Y007597D03*
X012368Y007549D03*
X012368Y007533D03*
X012368Y007485D03*
X012368Y007469D03*
X012368Y007421D03*
X012368Y007405D03*
X012560Y007421D03*
X012560Y007485D03*
X012560Y007549D03*
X012560Y007357D03*
X012560Y007293D03*
X012560Y007165D03*
X012560Y007101D03*
X012560Y007037D03*
X012560Y006973D03*
X012544Y006861D03*
X012584Y006845D03*
X012416Y007005D03*
X012400Y007021D03*
X012392Y007085D03*
X012256Y007181D03*
X011976Y007021D03*
X011904Y007053D03*
X011832Y007053D03*
X011832Y007069D03*
X011832Y007005D03*
X011832Y006989D03*
X011832Y006941D03*
X011832Y006925D03*
X011832Y006877D03*
X011832Y006861D03*
X011832Y006813D03*
X011832Y006797D03*
X011832Y006749D03*
X011832Y006733D03*
X011832Y006685D03*
X011832Y006669D03*
X011832Y006621D03*
X011832Y006605D03*
X011832Y006557D03*
X011832Y006541D03*
X011832Y006493D03*
X011832Y006477D03*
X011832Y006429D03*
X011832Y006413D03*
X011832Y006365D03*
X011832Y006349D03*
X011832Y006301D03*
X011832Y006285D03*
X011832Y006237D03*
X011832Y006221D03*
X011832Y006173D03*
X011832Y006157D03*
X011832Y006109D03*
X011832Y006093D03*
X011832Y006045D03*
X011832Y006029D03*
X011832Y005981D03*
X011832Y005965D03*
X011832Y005917D03*
X011832Y005901D03*
X011832Y005853D03*
X011832Y005837D03*
X011832Y005789D03*
X011832Y005773D03*
X012368Y005757D03*
X012368Y005741D03*
X012368Y005805D03*
X012368Y005821D03*
X012368Y005869D03*
X012368Y005885D03*
X012368Y005933D03*
X012368Y005949D03*
X012368Y005997D03*
X012368Y006013D03*
X012368Y006061D03*
X012368Y006077D03*
X012368Y006125D03*
X012368Y006141D03*
X012368Y006189D03*
X012368Y006205D03*
X012368Y006253D03*
X012368Y006269D03*
X012368Y006317D03*
X012368Y006333D03*
X012368Y006381D03*
X012368Y006397D03*
X012368Y006445D03*
X012368Y006461D03*
X012352Y006493D03*
X012336Y006509D03*
X012488Y006381D03*
X012872Y006461D03*
X012872Y006509D03*
X012872Y006525D03*
X012872Y006573D03*
X012872Y006589D03*
X012872Y006637D03*
X012872Y006653D03*
X012872Y006701D03*
X012872Y006717D03*
X012872Y006765D03*
X012872Y006781D03*
X012872Y006829D03*
X012872Y006845D03*
X012872Y006893D03*
X012872Y006909D03*
X012872Y006957D03*
X012872Y006973D03*
X012872Y007021D03*
X012872Y007037D03*
X012872Y007085D03*
X012872Y007101D03*
X012872Y007149D03*
X012872Y007165D03*
X012872Y007213D03*
X012872Y007229D03*
X012872Y007277D03*
X012872Y007293D03*
X012872Y007341D03*
X012872Y007357D03*
X012872Y007405D03*
X012872Y007421D03*
X012872Y007469D03*
X012872Y007485D03*
X012872Y007533D03*
X012872Y007549D03*
X012872Y007597D03*
X012872Y007613D03*
X012872Y007661D03*
X012872Y007677D03*
X013664Y007181D03*
X013696Y007133D03*
X013696Y007069D03*
X013696Y007005D03*
X013696Y006941D03*
X013696Y006877D03*
X013696Y006813D03*
X013696Y006749D03*
X013696Y006685D03*
X013696Y006621D03*
X013736Y006573D03*
X013792Y006733D03*
X013880Y006797D03*
X013888Y006877D03*
X013928Y006893D03*
X013912Y006917D03*
X013984Y006733D03*
X014056Y006701D03*
X014544Y006637D03*
X014560Y006669D03*
X014576Y006717D03*
X014648Y006797D03*
X014664Y006845D03*
X014640Y006893D03*
X014672Y006973D03*
X014784Y007053D03*
X014856Y006973D03*
X014872Y006925D03*
X014864Y006845D03*
X014880Y006797D03*
X014952Y006717D03*
X014984Y006637D03*
X015344Y006653D03*
X015360Y006605D03*
X015344Y006717D03*
X015344Y006781D03*
X015344Y006845D03*
X015344Y006909D03*
X015344Y006973D03*
X015344Y007037D03*
X015344Y007085D03*
X015664Y007085D03*
X015664Y006637D03*
X016032Y006557D03*
X016120Y006557D03*
X016384Y006557D03*
X016872Y006637D03*
X016872Y006653D03*
X016872Y006701D03*
X016872Y006717D03*
X016872Y006765D03*
X016872Y006781D03*
X016872Y006829D03*
X016872Y006845D03*
X016872Y006893D03*
X016872Y006909D03*
X016872Y006957D03*
X016872Y006973D03*
X016872Y007021D03*
X016872Y007037D03*
X016872Y007085D03*
X016872Y007101D03*
X016808Y007189D03*
X017232Y007165D03*
X017232Y007149D03*
X017264Y007101D03*
X017264Y007037D03*
X017264Y006973D03*
X017264Y006909D03*
X017264Y006845D03*
X017264Y006781D03*
X017264Y006717D03*
X017264Y006653D03*
X017232Y006589D03*
X017232Y006573D03*
X017328Y006701D03*
X017344Y006733D03*
X017360Y006765D03*
X017416Y006781D03*
X017480Y006893D03*
X017496Y006925D03*
X017536Y007069D03*
X017552Y007101D03*
X017656Y007181D03*
X017656Y006557D03*
X018720Y006621D03*
X018744Y006669D03*
X018744Y006685D03*
X018744Y006733D03*
X018744Y006749D03*
X018720Y006797D03*
X018760Y007101D03*
X019120Y007037D03*
X019120Y007021D03*
X019120Y006973D03*
X019120Y006957D03*
X019144Y006893D03*
X016120Y007181D03*
X014720Y007181D03*
X014168Y007181D03*
X012232Y006701D03*
X012160Y006733D03*
X012168Y006781D03*
X012080Y006829D03*
X011696Y006781D03*
X011688Y006717D03*
X011680Y007133D03*
X011696Y007149D03*
D24*
X011708Y007141D03*
X011740Y007173D03*
X011828Y007173D03*
X011804Y007237D03*
X011644Y007077D03*
X011804Y006885D03*
X011724Y006789D03*
X011708Y006773D03*
X011644Y006693D03*
X011804Y006421D03*
X011740Y006357D03*
X011724Y006341D03*
X011708Y006325D03*
X012188Y006725D03*
X012204Y006709D03*
X012268Y006629D03*
X012300Y006581D03*
X012364Y006501D03*
X012380Y006485D03*
X012460Y006389D03*
X012508Y006325D03*
X012524Y006309D03*
X012108Y006821D03*
X012060Y006885D03*
X012044Y006901D03*
X011948Y007029D03*
X012188Y007285D03*
X012204Y007269D03*
X012244Y007221D03*
X012268Y007189D03*
X012284Y007173D03*
X012300Y007157D03*
X012348Y007109D03*
X012364Y007093D03*
X012428Y007013D03*
X012444Y006997D03*
X012460Y006981D03*
X012508Y006933D03*
X012460Y007301D03*
X012444Y007317D03*
X012428Y007333D03*
X012588Y007573D03*
X012140Y007333D03*
X012124Y007349D03*
X011340Y007765D03*
X009020Y007125D03*
X009020Y006869D03*
X009020Y006789D03*
X009020Y006613D03*
X007148Y006597D03*
X006828Y006869D03*
X006380Y006805D03*
X006348Y007029D03*
X005404Y007109D03*
X004924Y007045D03*
X004908Y007013D03*
X004844Y006901D03*
X004828Y006869D03*
X004764Y006757D03*
X004748Y006725D03*
X005404Y006613D03*
X012364Y005669D03*
X013788Y006693D03*
X013804Y006709D03*
X013820Y006741D03*
X013868Y006805D03*
X013948Y006821D03*
X013964Y006805D03*
X013980Y006773D03*
X014028Y006709D03*
X014044Y006677D03*
X014604Y006741D03*
X014700Y006997D03*
X014924Y006741D03*
X015388Y006613D03*
X017388Y006773D03*
X017468Y006917D03*
X017500Y006965D03*
X018028Y006821D03*
X018748Y006805D03*
X018748Y006613D03*
X018748Y007109D03*
D25*
X017608Y006597D03*
X017608Y006581D03*
X017608Y006565D03*
X017280Y007157D03*
X017280Y007173D03*
X014984Y006597D03*
X014984Y006581D03*
X014984Y006565D03*
X014544Y006597D03*
X014760Y007093D03*
X014120Y007157D03*
X014120Y007173D03*
X013704Y006597D03*
X013704Y006581D03*
X012584Y006261D03*
X011848Y005701D03*
X012104Y005493D03*
X011664Y006741D03*
X011784Y006837D03*
X011848Y007125D03*
X012544Y007237D03*
X012544Y006917D03*
X011344Y007749D03*
X006408Y007173D03*
X006408Y007157D03*
X006408Y007141D03*
X004968Y007077D03*
X004688Y006661D03*
D26*
X011340Y007733D03*
X012860Y007733D03*
X011612Y006277D03*
D27*
X012852Y007717D03*
X015524Y006549D03*
D28*
X011344Y007717D03*
D29*
X011612Y007573D03*
X012156Y007317D03*
X012172Y007301D03*
X012316Y007141D03*
X012332Y007125D03*
X012412Y007029D03*
X012476Y006965D03*
X012492Y006949D03*
X012556Y006869D03*
X012252Y006645D03*
X012316Y006565D03*
X012332Y006549D03*
X012172Y006741D03*
X012092Y006853D03*
X012076Y006869D03*
X012012Y006949D03*
X011996Y006965D03*
X011932Y007045D03*
X011916Y007061D03*
X011692Y007125D03*
X012412Y007349D03*
X012476Y007285D03*
X012492Y007269D03*
X012556Y007205D03*
X011692Y006309D03*
X011676Y006293D03*
X011836Y005669D03*
X013836Y006757D03*
X013852Y006789D03*
X013996Y006757D03*
X014012Y006725D03*
X014556Y006613D03*
X014636Y006821D03*
X014892Y006821D03*
X014972Y006613D03*
X015372Y006629D03*
X015676Y007109D03*
X014812Y007029D03*
X017292Y006613D03*
X017372Y006741D03*
X017436Y006853D03*
X017452Y006885D03*
X017516Y006997D03*
X017532Y007029D03*
X017596Y007125D03*
X019132Y006917D03*
X019116Y006613D03*
X007852Y006629D03*
X007852Y007109D03*
X007836Y007125D03*
X006396Y006789D03*
X006332Y006997D03*
X005692Y006613D03*
X004892Y006981D03*
X004876Y006949D03*
X004812Y006837D03*
D30*
X011340Y006037D03*
X011628Y006661D03*
X011628Y006757D03*
X011628Y006805D03*
X011628Y006821D03*
X011628Y006869D03*
X011628Y006885D03*
X011628Y006933D03*
X011628Y006949D03*
X011628Y006997D03*
X011628Y007013D03*
X011628Y007125D03*
X011628Y007141D03*
X011628Y007189D03*
X011628Y007205D03*
X011628Y007253D03*
X011628Y007269D03*
X011628Y007317D03*
X011628Y007333D03*
X011628Y007381D03*
X011628Y007397D03*
X011628Y007445D03*
X011628Y007461D03*
X011628Y007509D03*
X011628Y007525D03*
X012572Y007525D03*
X012572Y007509D03*
X012572Y007461D03*
X012572Y007445D03*
X012572Y007397D03*
X012572Y007381D03*
X012572Y007333D03*
X012572Y007317D03*
X012572Y007269D03*
X012572Y007141D03*
X012572Y007125D03*
X012572Y007077D03*
X012572Y007061D03*
X012572Y007013D03*
X012572Y006997D03*
X012572Y006949D03*
X012572Y006933D03*
X012572Y006837D03*
X012860Y006037D03*
X013916Y006901D03*
D31*
X012240Y007397D03*
D32*
X012244Y007381D03*
X018964Y006869D03*
D33*
X012256Y007365D03*
X008856Y006837D03*
D34*
X008276Y006581D03*
X008276Y006565D03*
X008276Y006549D03*
X007812Y006597D03*
X008276Y007141D03*
X008276Y007157D03*
X008276Y007173D03*
X011092Y006277D03*
X011620Y006261D03*
X011780Y006373D03*
X012132Y006757D03*
X012132Y006773D03*
X012420Y006405D03*
X013108Y006277D03*
X013748Y006661D03*
X014084Y006661D03*
X014092Y006645D03*
X014548Y006581D03*
X014548Y006565D03*
X012532Y007253D03*
X012100Y005861D03*
X016852Y006565D03*
X016852Y006581D03*
X016852Y006597D03*
X017316Y006693D03*
X017572Y007061D03*
X016852Y007141D03*
X016852Y007157D03*
X016852Y007173D03*
X005444Y006597D03*
X004964Y007061D03*
X004660Y007141D03*
X004660Y007157D03*
X004660Y007173D03*
X004692Y006677D03*
D35*
X011340Y006421D03*
X011340Y006069D03*
X011788Y007189D03*
X012860Y006421D03*
X012860Y006069D03*
X014764Y007077D03*
D36*
X018932Y007173D03*
X006212Y006853D03*
D37*
X006976Y006581D03*
X006976Y006565D03*
X006976Y006549D03*
X006976Y007141D03*
X006976Y007157D03*
X006976Y007173D03*
X009592Y007173D03*
X018176Y007173D03*
X018176Y007157D03*
X018176Y006597D03*
X018176Y006581D03*
D38*
X018760Y007125D03*
X017624Y007173D03*
X017264Y006565D03*
X015664Y006613D03*
X013128Y006245D03*
X012368Y005685D03*
X011832Y005685D03*
X011072Y006245D03*
X011728Y007157D03*
X011832Y007157D03*
X012392Y007061D03*
X012552Y006885D03*
X007840Y006613D03*
X006384Y006613D03*
X006088Y006869D03*
X005416Y007125D03*
X005008Y007173D03*
D39*
X015528Y007173D03*
D40*
X015644Y006597D03*
X015404Y006597D03*
X014764Y007109D03*
X014764Y007141D03*
X014764Y007157D03*
X014764Y007173D03*
X014124Y007141D03*
X014124Y006597D03*
X014124Y006581D03*
X012924Y006389D03*
X012764Y006373D03*
X012764Y006117D03*
X012924Y006101D03*
X012204Y005797D03*
X012044Y005829D03*
X012204Y005557D03*
X011484Y006341D03*
X011084Y006261D03*
X012124Y006789D03*
X006364Y006597D03*
X004684Y006645D03*
D41*
X010284Y006581D03*
X010284Y006565D03*
X010284Y006549D03*
X010284Y007141D03*
X010284Y007157D03*
X010284Y007173D03*
D42*
X008828Y007173D03*
X008860Y006853D03*
X008860Y006805D03*
X008828Y006565D03*
X018940Y006853D03*
D43*
X007648Y007173D03*
X006224Y006837D03*
D44*
X005548Y007173D03*
D45*
X004992Y006581D03*
X004256Y006581D03*
X004256Y007157D03*
X004256Y007173D03*
X009432Y006581D03*
X009432Y006565D03*
X009432Y006549D03*
X011656Y006725D03*
X011656Y007109D03*
X013712Y007141D03*
X013712Y007157D03*
X014096Y006629D03*
X017312Y006677D03*
D46*
X018932Y007157D03*
X008836Y007157D03*
X007660Y007157D03*
D47*
X014764Y006869D03*
X015524Y007157D03*
X015524Y006565D03*
X018932Y006549D03*
D48*
X009588Y007141D03*
X009588Y007157D03*
D49*
X005548Y007157D03*
X005548Y006581D03*
D50*
X016252Y006837D03*
X016252Y006853D03*
X016252Y006869D03*
X018180Y007141D03*
X018932Y007141D03*
X018180Y006565D03*
D51*
X015524Y006581D03*
X015524Y007141D03*
D52*
X008844Y007141D03*
X007668Y007141D03*
D53*
X008812Y006549D03*
X005548Y007141D03*
D54*
X014764Y006901D03*
X014764Y006885D03*
X018124Y006869D03*
X018124Y006837D03*
D55*
X018920Y006837D03*
X007656Y006565D03*
X006232Y006821D03*
X006200Y006565D03*
D56*
X011856Y005717D03*
X012344Y005717D03*
X013912Y006837D03*
D57*
X006920Y006837D03*
X006920Y006821D03*
D58*
X008852Y006821D03*
X018932Y006565D03*
D59*
X018936Y006581D03*
D60*
X008840Y006581D03*
X006208Y006581D03*
D61*
X007664Y006581D03*
D62*
X005548Y006565D03*
D63*
X006176Y006549D03*
X007632Y006549D03*
D64*
X012596Y006277D03*
X013092Y006293D03*
M02*
