G75*
G70*
%OFA0B0*%
%FSLAX24Y24*%
%IPPOS*%
%LPD*%
%AMOC8*
5,1,8,0,0,1.08239X$1,22.5*
%
%ADD10C,0.0640*%
%ADD11C,0.0740*%
%ADD12C,0.0866*%
%ADD13C,0.0669*%
%ADD14C,0.0476*%
%ADD15C,0.0160*%
%ADD16C,0.0436*%
%ADD17C,0.0290*%
%ADD18C,0.0240*%
D10*
X007600Y001001D03*
X008600Y001001D03*
X009600Y001001D03*
X009600Y002001D03*
X008600Y002001D03*
X007600Y002001D03*
D11*
X018900Y001901D03*
X018900Y002901D03*
X018900Y003901D03*
X018900Y004901D03*
X018900Y000901D03*
D12*
X017078Y011716D03*
X014322Y011716D03*
D13*
X014716Y012701D03*
X016684Y012701D03*
D14*
X018906Y012469D03*
X018906Y011682D03*
X018906Y010894D03*
X018906Y010107D03*
X018906Y009320D03*
X018906Y008532D03*
D15*
X006100Y004483D02*
X006100Y000483D01*
X006102Y000467D01*
X006114Y000437D01*
X006137Y000415D01*
X006167Y000402D01*
X006183Y000401D01*
X018618Y000401D01*
X018577Y000417D01*
X018417Y000578D01*
X018330Y000787D01*
X018330Y001014D01*
X018417Y001224D01*
X018577Y001384D01*
X018646Y001413D01*
X018612Y001430D01*
X018542Y001481D01*
X018480Y001542D01*
X018430Y001612D01*
X018390Y001690D01*
X018364Y001772D01*
X018350Y001857D01*
X018350Y001881D01*
X018880Y001881D01*
X018880Y001921D01*
X018350Y001921D01*
X018350Y001944D01*
X018364Y002029D01*
X018390Y002112D01*
X018430Y002189D01*
X018480Y002259D01*
X018542Y002320D01*
X018612Y002371D01*
X018646Y002389D01*
X018577Y002417D01*
X018417Y002578D01*
X018399Y002621D01*
X013144Y002621D01*
X013041Y002663D01*
X012963Y002742D01*
X011922Y003783D01*
X011817Y003783D01*
X011680Y003839D01*
X011680Y003617D01*
X012078Y003219D01*
X012183Y003219D01*
X012337Y003155D01*
X012454Y003037D01*
X012518Y002884D01*
X012518Y002717D01*
X012454Y002564D01*
X012337Y002446D01*
X012183Y002383D01*
X012017Y002383D01*
X011863Y002446D01*
X011746Y002564D01*
X011682Y002717D01*
X011682Y002823D01*
X011180Y003325D01*
X011180Y002917D01*
X011378Y002719D01*
X011483Y002719D01*
X011637Y002655D01*
X011754Y002537D01*
X011818Y002384D01*
X011818Y002217D01*
X011754Y002064D01*
X011637Y001946D01*
X011483Y001883D01*
X011317Y001883D01*
X011163Y001946D01*
X011046Y002064D01*
X010982Y002217D01*
X010982Y002323D01*
X010880Y002425D01*
X010880Y001445D01*
X010837Y001342D01*
X010337Y000842D01*
X010259Y000763D01*
X010156Y000721D01*
X010047Y000721D01*
X010041Y000706D01*
X009895Y000560D01*
X009703Y000481D01*
X009497Y000481D01*
X009305Y000560D01*
X009159Y000706D01*
X009100Y000849D01*
X009041Y000706D01*
X008895Y000560D01*
X008703Y000481D01*
X008497Y000481D01*
X008305Y000560D01*
X008159Y000706D01*
X008100Y000849D01*
X008041Y000706D01*
X007895Y000560D01*
X007703Y000481D01*
X007497Y000481D01*
X007305Y000560D01*
X007159Y000706D01*
X007080Y000897D01*
X007080Y001104D01*
X007159Y001295D01*
X007305Y001441D01*
X007480Y001514D01*
X007408Y001537D01*
X007338Y001573D01*
X007274Y001619D01*
X007219Y001675D01*
X007172Y001739D01*
X007137Y001809D01*
X007112Y001884D01*
X007100Y001961D01*
X007100Y001992D01*
X007591Y001992D01*
X007591Y002009D01*
X007100Y002009D01*
X007100Y002040D01*
X007112Y002118D01*
X007137Y002193D01*
X007172Y002263D01*
X007219Y002326D01*
X007274Y002382D01*
X007338Y002428D01*
X007408Y002464D01*
X007483Y002488D01*
X007561Y002501D01*
X007591Y002501D01*
X007591Y002009D01*
X007609Y002009D01*
X007609Y002501D01*
X007639Y002501D01*
X007717Y002488D01*
X007792Y002464D01*
X007862Y002428D01*
X007902Y002399D01*
X007941Y002438D01*
X007941Y002438D01*
X008020Y002517D01*
X006100Y002517D01*
X006100Y002675D02*
X008020Y002675D01*
X008020Y002517D02*
X008020Y003989D01*
X007946Y004064D01*
X007882Y004217D01*
X007882Y004384D01*
X007946Y004537D01*
X008063Y004655D01*
X008217Y004719D01*
X008383Y004719D01*
X008537Y004655D01*
X008620Y004572D01*
X008620Y006956D01*
X008663Y007059D01*
X008741Y007138D01*
X008782Y007178D01*
X008782Y007230D01*
X008520Y006968D01*
X008520Y005637D01*
X008471Y005519D01*
X008381Y005429D01*
X008081Y005129D01*
X007964Y005081D01*
X006171Y005081D01*
X006137Y005046D01*
X005983Y004983D01*
X005900Y004983D01*
X005900Y004601D01*
X005983Y004601D01*
X006100Y004483D01*
X006100Y004419D02*
X007896Y004419D01*
X007882Y004260D02*
X006100Y004260D01*
X006100Y004102D02*
X007930Y004102D01*
X008020Y003943D02*
X006100Y003943D01*
X006100Y003785D02*
X008020Y003785D01*
X008020Y003626D02*
X006100Y003626D01*
X006100Y003468D02*
X008020Y003468D01*
X008020Y003309D02*
X006100Y003309D01*
X006100Y003151D02*
X008020Y003151D01*
X008020Y002992D02*
X006100Y002992D01*
X006100Y002834D02*
X008020Y002834D01*
X008300Y002401D02*
X008100Y002201D01*
X008100Y001301D01*
X007600Y001001D01*
X007949Y000615D02*
X008251Y000615D01*
X008131Y000773D02*
X008069Y000773D01*
X008600Y001001D02*
X009000Y001501D01*
X010200Y001501D01*
X010200Y006301D01*
X010600Y006401D02*
X010600Y001501D01*
X010100Y001001D01*
X009600Y001001D01*
X009949Y000615D02*
X018401Y000615D01*
X018336Y000773D02*
X010269Y000773D01*
X010427Y000932D02*
X018330Y000932D01*
X018362Y001090D02*
X010586Y001090D01*
X010744Y001249D02*
X018442Y001249D01*
X018633Y001407D02*
X010864Y001407D01*
X010880Y001566D02*
X018464Y001566D01*
X018379Y001724D02*
X010880Y001724D01*
X010880Y001883D02*
X011317Y001883D01*
X011483Y001883D02*
X018880Y001883D01*
X018367Y002041D02*
X011732Y002041D01*
X011811Y002200D02*
X018437Y002200D01*
X018594Y002358D02*
X011818Y002358D01*
X011793Y002517D02*
X011763Y002517D01*
X011699Y002675D02*
X011588Y002675D01*
X011671Y002834D02*
X011263Y002834D01*
X011180Y002992D02*
X011512Y002992D01*
X011354Y003151D02*
X011180Y003151D01*
X011180Y003309D02*
X011195Y003309D01*
X011400Y003501D02*
X012100Y002801D01*
X012407Y002517D02*
X018478Y002517D01*
X018900Y002901D02*
X013200Y002901D01*
X011900Y004201D01*
X011812Y003785D02*
X011680Y003785D01*
X011680Y003626D02*
X012078Y003626D01*
X012237Y003468D02*
X011829Y003468D01*
X011987Y003309D02*
X012395Y003309D01*
X012341Y003151D02*
X012554Y003151D01*
X012473Y002992D02*
X012712Y002992D01*
X012871Y002834D02*
X012518Y002834D01*
X012501Y002675D02*
X013029Y002675D01*
X013400Y003201D02*
X013400Y003601D01*
X012000Y005001D01*
X012418Y004978D02*
X012418Y005084D01*
X012354Y005237D01*
X012237Y005355D01*
X012199Y005371D01*
X012218Y005417D01*
X012218Y005584D01*
X012154Y005737D01*
X012037Y005855D01*
X011883Y005919D01*
X011717Y005919D01*
X011563Y005855D01*
X011489Y005781D01*
X011144Y005781D01*
X011041Y005738D01*
X010880Y005577D01*
X010880Y006083D01*
X010883Y006083D01*
X011037Y006146D01*
X011154Y006264D01*
X011218Y006417D01*
X011218Y006584D01*
X011154Y006737D01*
X011037Y006855D01*
X010883Y006919D01*
X010717Y006919D01*
X010563Y006855D01*
X010446Y006737D01*
X010415Y006664D01*
X010283Y006719D01*
X010117Y006719D01*
X009963Y006655D01*
X009846Y006537D01*
X009782Y006384D01*
X009782Y006217D01*
X009846Y006064D01*
X009920Y005989D01*
X009920Y004072D01*
X009837Y004155D01*
X009683Y004219D01*
X009517Y004219D01*
X009363Y004155D01*
X009246Y004037D01*
X009182Y003884D01*
X009182Y003717D01*
X009246Y003564D01*
X009320Y003489D01*
X009320Y002447D01*
X009305Y002441D01*
X009180Y002316D01*
X009180Y006783D01*
X009283Y006783D01*
X009437Y006846D01*
X009554Y006964D01*
X009618Y007117D01*
X009618Y007284D01*
X009554Y007437D01*
X009541Y007451D01*
X009654Y007564D01*
X009718Y007717D01*
X009718Y007884D01*
X009654Y008037D01*
X009537Y008155D01*
X009383Y008219D01*
X009217Y008219D01*
X009063Y008155D01*
X008946Y008037D01*
X008939Y008021D01*
X008736Y008021D01*
X008702Y008006D01*
X009016Y008321D01*
X010089Y008321D01*
X010163Y008246D01*
X010317Y008183D01*
X010483Y008183D01*
X010637Y008246D01*
X010754Y008364D01*
X010818Y008517D01*
X010818Y008684D01*
X010754Y008837D01*
X010702Y008890D01*
X010837Y008946D01*
X010954Y009064D01*
X011018Y009217D01*
X011018Y009384D01*
X010954Y009537D01*
X010837Y009655D01*
X010683Y009719D01*
X010517Y009719D01*
X010363Y009655D01*
X010289Y009581D01*
X007644Y009581D01*
X007541Y009538D01*
X007463Y009459D01*
X005900Y007897D01*
X005900Y009001D01*
X005983Y009001D01*
X006100Y009118D01*
X006100Y013317D01*
X006102Y013332D01*
X006113Y013361D01*
X006136Y013383D01*
X006164Y013395D01*
X006180Y013397D01*
X019311Y013397D01*
X019326Y013395D01*
X019353Y013379D01*
X019368Y013353D01*
X019370Y013337D01*
X019370Y005237D01*
X019223Y005384D01*
X019013Y005471D01*
X018787Y005471D01*
X018577Y005384D01*
X018417Y005224D01*
X018399Y005181D01*
X017444Y005181D01*
X017341Y005138D01*
X017263Y005059D01*
X016084Y003881D01*
X016076Y003881D01*
X017159Y004963D01*
X017237Y005042D01*
X017280Y005145D01*
X017280Y008585D01*
X017741Y009046D01*
X018560Y009046D01*
X018658Y008948D01*
X018712Y008926D01*
X018658Y008904D01*
X018535Y008780D01*
X018468Y008619D01*
X018468Y008445D01*
X018535Y008284D01*
X018658Y008161D01*
X018819Y008094D01*
X018993Y008094D01*
X019154Y008161D01*
X019278Y008284D01*
X019344Y008445D01*
X019344Y008619D01*
X019278Y008780D01*
X019154Y008904D01*
X019101Y008926D01*
X019154Y008948D01*
X019278Y009071D01*
X019344Y009232D01*
X019344Y009407D01*
X019278Y009568D01*
X019154Y009691D01*
X019101Y009713D01*
X019154Y009736D01*
X019278Y009859D01*
X019344Y010020D01*
X019344Y010194D01*
X019278Y010355D01*
X019154Y010478D01*
X019101Y010501D01*
X019154Y010523D01*
X019278Y010646D01*
X019344Y010807D01*
X019344Y010981D01*
X019278Y011143D01*
X019154Y011266D01*
X019101Y011288D01*
X019154Y011310D01*
X019278Y011434D01*
X019344Y011595D01*
X019344Y011769D01*
X019278Y011930D01*
X019154Y012053D01*
X019075Y012086D01*
X019125Y012112D01*
X019179Y012150D01*
X019225Y012197D01*
X019264Y012250D01*
X019294Y012309D01*
X019314Y012371D01*
X019324Y012436D01*
X019324Y012469D01*
X018906Y012469D01*
X018488Y012469D01*
X018488Y012436D01*
X018498Y012371D01*
X018519Y012309D01*
X018549Y012250D01*
X018587Y012197D01*
X018634Y012150D01*
X018687Y012112D01*
X018737Y012086D01*
X018658Y012053D01*
X018626Y012021D01*
X018236Y012021D01*
X018119Y011972D01*
X018029Y011882D01*
X017692Y011546D01*
X017711Y011590D01*
X017711Y011842D01*
X017615Y012075D01*
X017437Y012253D01*
X017204Y012349D01*
X017089Y012349D01*
X017138Y012398D01*
X017219Y012594D01*
X017219Y012807D01*
X017138Y013003D01*
X016987Y013154D01*
X016791Y013235D01*
X016578Y013235D01*
X016381Y013154D01*
X016231Y013003D01*
X016150Y012807D01*
X016150Y012594D01*
X016222Y012419D01*
X014884Y011081D01*
X013744Y011081D01*
X013641Y011038D01*
X013563Y010959D01*
X012022Y009419D01*
X011917Y009419D01*
X011763Y009355D01*
X011646Y009237D01*
X011582Y009084D01*
X011582Y008917D01*
X011646Y008764D01*
X011763Y008646D01*
X011917Y008583D01*
X012083Y008583D01*
X012237Y008646D01*
X012354Y008764D01*
X012418Y008917D01*
X012418Y009023D01*
X013916Y010521D01*
X015056Y010521D01*
X015159Y010563D01*
X016450Y011855D01*
X016445Y011842D01*
X016445Y011590D01*
X016541Y011358D01*
X016719Y011180D01*
X016952Y011083D01*
X017204Y011083D01*
X017249Y011102D01*
X015629Y009482D01*
X015580Y009364D01*
X015580Y008133D01*
X015167Y007721D01*
X011671Y007721D01*
X011637Y007755D01*
X011483Y007819D01*
X011317Y007819D01*
X011163Y007755D01*
X011046Y007637D01*
X010982Y007484D01*
X010982Y007317D01*
X011046Y007164D01*
X011163Y007046D01*
X011317Y006983D01*
X011483Y006983D01*
X011637Y007046D01*
X011671Y007081D01*
X015364Y007081D01*
X015481Y007129D01*
X015920Y007568D01*
X015920Y005917D01*
X015522Y005519D01*
X015417Y005519D01*
X015263Y005455D01*
X015146Y005337D01*
X015082Y005184D01*
X015082Y005017D01*
X015146Y004864D01*
X015263Y004746D01*
X015395Y004692D01*
X015284Y004581D01*
X014808Y004581D01*
X014795Y004593D01*
X014669Y004646D01*
X014531Y004646D01*
X014405Y004593D01*
X014308Y004496D01*
X014255Y004369D01*
X014255Y004232D01*
X014308Y004105D01*
X014405Y004008D01*
X014531Y003956D01*
X014555Y003956D01*
X014555Y003881D01*
X014211Y003881D01*
X014137Y003955D01*
X013983Y004019D01*
X013817Y004019D01*
X013663Y003955D01*
X013552Y003844D01*
X012418Y004978D01*
X012418Y005053D02*
X015082Y005053D01*
X015093Y005211D02*
X012365Y005211D01*
X012202Y005370D02*
X015178Y005370D01*
X015532Y005528D02*
X012218Y005528D01*
X012176Y005687D02*
X015690Y005687D01*
X015849Y005845D02*
X012047Y005845D01*
X011800Y005501D02*
X011200Y005501D01*
X010900Y005201D01*
X010900Y002801D01*
X011400Y002301D01*
X011068Y002041D02*
X010880Y002041D01*
X010880Y002200D02*
X010989Y002200D01*
X010946Y002358D02*
X010880Y002358D01*
X009600Y002001D02*
X009600Y003801D01*
X009890Y004102D02*
X009920Y004102D01*
X009920Y004260D02*
X009180Y004260D01*
X009180Y004102D02*
X009310Y004102D01*
X009206Y003943D02*
X009180Y003943D01*
X009180Y003785D02*
X009182Y003785D01*
X009180Y003626D02*
X009220Y003626D01*
X009180Y003468D02*
X009320Y003468D01*
X009320Y003309D02*
X009180Y003309D01*
X009180Y003151D02*
X009320Y003151D01*
X009320Y002992D02*
X009180Y002992D01*
X009180Y002834D02*
X009320Y002834D01*
X009320Y002675D02*
X009180Y002675D01*
X009180Y002517D02*
X009320Y002517D01*
X009222Y002358D02*
X009180Y002358D01*
X008900Y002101D02*
X008600Y002001D01*
X008900Y002101D02*
X008900Y006901D01*
X009200Y007201D01*
X009618Y007272D02*
X011001Y007272D01*
X010982Y007430D02*
X009557Y007430D01*
X009665Y007589D02*
X011025Y007589D01*
X011155Y007747D02*
X009718Y007747D01*
X009709Y007906D02*
X015352Y007906D01*
X015194Y007747D02*
X011645Y007747D01*
X010762Y008381D02*
X015580Y008381D01*
X015580Y008223D02*
X010580Y008223D01*
X010220Y008223D02*
X008918Y008223D01*
X008972Y008064D02*
X008760Y008064D01*
X008900Y008601D02*
X010400Y008601D01*
X010735Y008857D02*
X011607Y008857D01*
X011582Y009015D02*
X010906Y009015D01*
X011000Y009174D02*
X011619Y009174D01*
X011740Y009332D02*
X011018Y009332D01*
X010974Y009491D02*
X012094Y009491D01*
X012253Y009649D02*
X010843Y009649D01*
X010357Y009649D02*
X006100Y009649D01*
X006100Y009491D02*
X007494Y009491D01*
X007336Y009332D02*
X006100Y009332D01*
X006100Y009174D02*
X007177Y009174D01*
X007019Y009015D02*
X005997Y009015D01*
X005900Y008857D02*
X006860Y008857D01*
X006702Y008698D02*
X005900Y008698D01*
X005900Y008540D02*
X006543Y008540D01*
X006385Y008381D02*
X005900Y008381D01*
X005900Y008223D02*
X006226Y008223D01*
X006068Y008064D02*
X005900Y008064D01*
X005900Y007906D02*
X005909Y007906D01*
X005700Y007301D02*
X007700Y009301D01*
X010600Y009301D01*
X010812Y008698D02*
X011711Y008698D01*
X012000Y009001D02*
X013800Y010801D01*
X015000Y010801D01*
X016684Y012485D01*
X016684Y012701D01*
X016188Y012502D02*
X015192Y012502D01*
X015193Y012503D02*
X015218Y012580D01*
X015230Y012660D01*
X015230Y012701D01*
X015230Y012741D01*
X015218Y012821D01*
X015193Y012898D01*
X015156Y012970D01*
X015108Y013036D01*
X015051Y013093D01*
X014985Y013141D01*
X014913Y013178D01*
X014836Y013203D01*
X014756Y013215D01*
X014716Y013215D01*
X014716Y012701D01*
X014716Y012701D01*
X015230Y012701D01*
X014716Y012701D01*
X014716Y012701D01*
X014716Y013215D01*
X014675Y013215D01*
X014595Y013203D01*
X014518Y013178D01*
X014446Y013141D01*
X014380Y013093D01*
X014323Y013036D01*
X014276Y012970D01*
X014239Y012898D01*
X014214Y012821D01*
X014201Y012741D01*
X014201Y012701D01*
X014716Y012701D01*
X014716Y012701D01*
X014201Y012701D01*
X014201Y012660D01*
X014214Y012580D01*
X014239Y012503D01*
X014276Y012431D01*
X014323Y012365D01*
X014339Y012349D01*
X014196Y012349D01*
X013963Y012253D01*
X013785Y012075D01*
X013689Y011842D01*
X013689Y011590D01*
X013785Y011358D01*
X013963Y011180D01*
X014196Y011083D01*
X014448Y011083D01*
X014681Y011180D01*
X014859Y011358D01*
X014955Y011590D01*
X014955Y011842D01*
X014859Y012075D01*
X014748Y012186D01*
X014756Y012186D01*
X014836Y012199D01*
X014913Y012224D01*
X014985Y012260D01*
X015051Y012308D01*
X015108Y012365D01*
X015156Y012431D01*
X015193Y012503D01*
X015230Y012661D02*
X016150Y012661D01*
X016155Y012819D02*
X015218Y012819D01*
X015151Y012978D02*
X016220Y012978D01*
X016364Y013136D02*
X014992Y013136D01*
X014716Y013136D02*
X014716Y013136D01*
X014716Y012978D02*
X014716Y012978D01*
X014716Y012819D02*
X014716Y012819D01*
X014440Y013136D02*
X006100Y013136D01*
X006100Y012978D02*
X014281Y012978D01*
X014213Y012819D02*
X006100Y012819D01*
X006100Y012661D02*
X014201Y012661D01*
X014239Y012502D02*
X006100Y012502D01*
X006100Y012344D02*
X014182Y012344D01*
X013896Y012185D02*
X006100Y012185D01*
X006100Y012027D02*
X013765Y012027D01*
X013700Y011868D02*
X006100Y011868D01*
X006100Y011710D02*
X013689Y011710D01*
X013705Y011551D02*
X006100Y011551D01*
X006100Y011393D02*
X013771Y011393D01*
X013909Y011234D02*
X006100Y011234D01*
X006100Y011076D02*
X013732Y011076D01*
X013521Y010917D02*
X006100Y010917D01*
X006100Y010759D02*
X013362Y010759D01*
X013204Y010600D02*
X006100Y010600D01*
X006100Y010442D02*
X013045Y010442D01*
X012887Y010283D02*
X006100Y010283D01*
X006100Y010125D02*
X012728Y010125D01*
X012570Y009966D02*
X006100Y009966D01*
X006100Y009808D02*
X012411Y009808D01*
X012886Y009491D02*
X015637Y009491D01*
X015580Y009332D02*
X012728Y009332D01*
X012569Y009174D02*
X015580Y009174D01*
X015580Y009015D02*
X012418Y009015D01*
X012393Y008857D02*
X015580Y008857D01*
X015580Y008698D02*
X012289Y008698D01*
X013045Y009649D02*
X015796Y009649D01*
X015954Y009808D02*
X013203Y009808D01*
X013362Y009966D02*
X016113Y009966D01*
X016271Y010125D02*
X013520Y010125D01*
X013679Y010283D02*
X016430Y010283D01*
X016588Y010442D02*
X013837Y010442D01*
X014735Y011234D02*
X015038Y011234D01*
X015196Y011393D02*
X014873Y011393D01*
X014939Y011551D02*
X015355Y011551D01*
X015513Y011710D02*
X014955Y011710D01*
X014944Y011868D02*
X015672Y011868D01*
X015830Y012027D02*
X014879Y012027D01*
X014749Y012185D02*
X015989Y012185D01*
X016147Y012344D02*
X015087Y012344D01*
X016147Y011551D02*
X016461Y011551D01*
X016445Y011710D02*
X016305Y011710D01*
X016527Y011393D02*
X015988Y011393D01*
X015830Y011234D02*
X016665Y011234D01*
X017064Y010917D02*
X015513Y010917D01*
X015671Y011076D02*
X017222Y011076D01*
X016905Y010759D02*
X015354Y010759D01*
X015196Y010600D02*
X016747Y010600D01*
X017813Y010113D02*
X018906Y010113D01*
X018906Y010107D01*
X019308Y010283D02*
X019370Y010283D01*
X019370Y010125D02*
X019344Y010125D01*
X019322Y009966D02*
X019370Y009966D01*
X019370Y009808D02*
X019227Y009808D01*
X019196Y009649D02*
X019370Y009649D01*
X019370Y009491D02*
X019310Y009491D01*
X019344Y009332D02*
X019370Y009332D01*
X019370Y009174D02*
X019320Y009174D01*
X019370Y009015D02*
X019222Y009015D01*
X019201Y008857D02*
X019370Y008857D01*
X019370Y008698D02*
X019312Y008698D01*
X019344Y008540D02*
X019370Y008540D01*
X019370Y008381D02*
X019318Y008381D01*
X019370Y008223D02*
X019216Y008223D01*
X019370Y008064D02*
X017280Y008064D01*
X017280Y007906D02*
X019370Y007906D01*
X019370Y007747D02*
X017280Y007747D01*
X017280Y007589D02*
X019370Y007589D01*
X019370Y007430D02*
X017280Y007430D01*
X017280Y007272D02*
X019370Y007272D01*
X019370Y007113D02*
X017280Y007113D01*
X017280Y006955D02*
X019370Y006955D01*
X019370Y006796D02*
X017280Y006796D01*
X017280Y006638D02*
X019370Y006638D01*
X019370Y006479D02*
X017280Y006479D01*
X017280Y006321D02*
X019370Y006321D01*
X019370Y006162D02*
X017280Y006162D01*
X017280Y006004D02*
X019370Y006004D01*
X019370Y005845D02*
X017280Y005845D01*
X017280Y005687D02*
X019370Y005687D01*
X019370Y005528D02*
X017280Y005528D01*
X017280Y005370D02*
X018563Y005370D01*
X018412Y005211D02*
X017280Y005211D01*
X017263Y005059D02*
X017263Y005059D01*
X017256Y005053D02*
X017242Y005053D01*
X017098Y004894D02*
X017090Y004894D01*
X016939Y004736D02*
X016931Y004736D01*
X016781Y004577D02*
X016773Y004577D01*
X016622Y004419D02*
X016614Y004419D01*
X016464Y004260D02*
X016456Y004260D01*
X016305Y004102D02*
X016297Y004102D01*
X016147Y003943D02*
X016139Y003943D01*
X015800Y004001D02*
X015000Y004001D01*
X014900Y003901D01*
X014555Y003943D02*
X014149Y003943D01*
X014311Y004102D02*
X013295Y004102D01*
X013136Y004260D02*
X014255Y004260D01*
X014275Y004419D02*
X012978Y004419D01*
X012819Y004577D02*
X014389Y004577D01*
X014600Y004301D02*
X015400Y004301D01*
X016600Y005501D01*
X016600Y008901D01*
X017813Y010113D01*
X017625Y009326D02*
X018906Y009326D01*
X018906Y009320D01*
X018591Y009015D02*
X017711Y009015D01*
X017552Y008857D02*
X018611Y008857D01*
X018501Y008698D02*
X017394Y008698D01*
X017280Y008540D02*
X018468Y008540D01*
X018495Y008381D02*
X017280Y008381D01*
X017280Y008223D02*
X018596Y008223D01*
X017625Y009326D02*
X017000Y008701D01*
X017000Y005201D01*
X015800Y004001D01*
X016200Y003601D02*
X017500Y004901D01*
X018900Y004901D01*
X019237Y005370D02*
X019370Y005370D01*
X018900Y003901D02*
X017500Y003901D01*
X016800Y003201D01*
X013400Y003201D01*
X013900Y003601D02*
X016200Y003601D01*
X015289Y004736D02*
X012661Y004736D01*
X012502Y004894D02*
X015133Y004894D01*
X015500Y005101D02*
X016200Y005801D01*
X016200Y009094D01*
X018006Y010901D01*
X018906Y010901D01*
X018906Y010894D01*
X019232Y010600D02*
X019370Y010600D01*
X019370Y010442D02*
X019191Y010442D01*
X019324Y010759D02*
X019370Y010759D01*
X019370Y010917D02*
X019344Y010917D01*
X019370Y011076D02*
X019305Y011076D01*
X019370Y011234D02*
X019186Y011234D01*
X019237Y011393D02*
X019370Y011393D01*
X019370Y011551D02*
X019326Y011551D01*
X019344Y011710D02*
X019370Y011710D01*
X019370Y011868D02*
X019303Y011868D01*
X019370Y012027D02*
X019181Y012027D01*
X019214Y012185D02*
X019370Y012185D01*
X019370Y012344D02*
X019305Y012344D01*
X019324Y012469D02*
X019324Y012502D01*
X019314Y012567D01*
X019294Y012630D01*
X019264Y012688D01*
X019225Y012742D01*
X019179Y012788D01*
X019125Y012827D01*
X019067Y012857D01*
X019004Y012877D01*
X018939Y012887D01*
X018906Y012887D01*
X018873Y012887D01*
X018808Y012877D01*
X018746Y012857D01*
X018687Y012827D01*
X018634Y012788D01*
X018587Y012742D01*
X018549Y012688D01*
X018519Y012630D01*
X018498Y012567D01*
X018488Y012502D01*
X018488Y012469D01*
X018906Y012469D01*
X018906Y012469D01*
X018906Y012887D01*
X018906Y012469D01*
X018906Y012469D01*
X018906Y012469D01*
X019324Y012469D01*
X019324Y012502D02*
X019370Y012502D01*
X019370Y012661D02*
X019278Y012661D01*
X019370Y012819D02*
X019136Y012819D01*
X018906Y012819D02*
X018906Y012819D01*
X018906Y012661D02*
X018906Y012661D01*
X018906Y012502D02*
X018906Y012502D01*
X018677Y012819D02*
X017214Y012819D01*
X017219Y012661D02*
X018535Y012661D01*
X018488Y012502D02*
X017181Y012502D01*
X017218Y012344D02*
X018507Y012344D01*
X018599Y012185D02*
X017504Y012185D01*
X017635Y012027D02*
X018632Y012027D01*
X018894Y011701D02*
X018894Y011694D01*
X018906Y011682D01*
X018029Y011882D02*
X018029Y011882D01*
X018015Y011868D02*
X017700Y011868D01*
X017711Y011710D02*
X017856Y011710D01*
X017698Y011551D02*
X017695Y011551D01*
X017148Y012978D02*
X019370Y012978D01*
X019370Y013136D02*
X017005Y013136D01*
X019370Y013295D02*
X006100Y013295D01*
X007800Y008701D02*
X007100Y008001D01*
X007800Y008701D02*
X008100Y008701D01*
X008900Y008601D02*
X007400Y007101D01*
X006100Y007101D01*
X005700Y007301D02*
X005700Y006801D01*
X006100Y006401D01*
X006143Y005053D02*
X008620Y005053D01*
X008620Y005211D02*
X008163Y005211D01*
X008322Y005370D02*
X008620Y005370D01*
X008620Y005528D02*
X008475Y005528D01*
X008520Y005687D02*
X008620Y005687D01*
X008620Y005845D02*
X008520Y005845D01*
X008520Y006004D02*
X008620Y006004D01*
X008620Y006162D02*
X008520Y006162D01*
X008520Y006321D02*
X008620Y006321D01*
X008620Y006479D02*
X008520Y006479D01*
X008520Y006638D02*
X008620Y006638D01*
X008620Y006796D02*
X008520Y006796D01*
X008520Y006955D02*
X008620Y006955D01*
X008665Y007113D02*
X008717Y007113D01*
X009180Y006638D02*
X009946Y006638D01*
X009821Y006479D02*
X009180Y006479D01*
X009180Y006321D02*
X009782Y006321D01*
X009805Y006162D02*
X009180Y006162D01*
X009180Y006004D02*
X009906Y006004D01*
X009920Y005845D02*
X009180Y005845D01*
X009180Y005687D02*
X009920Y005687D01*
X009920Y005528D02*
X009180Y005528D01*
X009180Y005370D02*
X009920Y005370D01*
X009920Y005211D02*
X009180Y005211D01*
X009180Y005053D02*
X009920Y005053D01*
X009920Y004894D02*
X009180Y004894D01*
X009180Y004736D02*
X009920Y004736D01*
X009920Y004577D02*
X009180Y004577D01*
X009180Y004419D02*
X009920Y004419D01*
X008620Y004577D02*
X008615Y004577D01*
X008620Y004736D02*
X005900Y004736D01*
X005900Y004894D02*
X008620Y004894D01*
X007985Y004577D02*
X006006Y004577D01*
X008300Y004301D02*
X008300Y002401D01*
X007609Y002358D02*
X007591Y002358D01*
X007591Y002200D02*
X007609Y002200D01*
X007609Y002041D02*
X007591Y002041D01*
X007250Y002358D02*
X006100Y002358D01*
X006100Y002200D02*
X007140Y002200D01*
X007100Y002041D02*
X006100Y002041D01*
X006100Y001883D02*
X007113Y001883D01*
X007183Y001724D02*
X006100Y001724D01*
X006100Y001566D02*
X007352Y001566D01*
X007271Y001407D02*
X006100Y001407D01*
X006100Y001249D02*
X007140Y001249D01*
X007080Y001090D02*
X006100Y001090D01*
X006100Y000932D02*
X007080Y000932D01*
X007131Y000773D02*
X006100Y000773D01*
X006100Y000615D02*
X007251Y000615D01*
X006106Y000456D02*
X018538Y000456D01*
X013651Y003943D02*
X013453Y003943D01*
X011400Y003501D02*
X011400Y005001D01*
X010990Y005687D02*
X010880Y005687D01*
X010880Y005845D02*
X011553Y005845D01*
X011053Y006162D02*
X015920Y006162D01*
X015920Y006004D02*
X010880Y006004D01*
X011178Y006321D02*
X015920Y006321D01*
X015920Y006479D02*
X011218Y006479D01*
X011196Y006638D02*
X015920Y006638D01*
X015920Y006796D02*
X011096Y006796D01*
X011096Y007113D02*
X009616Y007113D01*
X009545Y006955D02*
X015920Y006955D01*
X015920Y007113D02*
X015442Y007113D01*
X015624Y007272D02*
X015920Y007272D01*
X015920Y007430D02*
X015782Y007430D01*
X015511Y008064D02*
X009628Y008064D01*
X010818Y008540D02*
X015580Y008540D01*
X010800Y006501D02*
X010600Y006401D01*
X010504Y006796D02*
X009316Y006796D01*
X009131Y000773D02*
X009069Y000773D01*
X008949Y000615D02*
X009251Y000615D01*
D16*
X011400Y002301D03*
X012100Y002801D03*
X013900Y003601D03*
X012000Y005001D03*
X011400Y005001D03*
X011800Y005501D03*
X012700Y005501D03*
X011900Y004201D03*
X009600Y003801D03*
X008300Y004301D03*
X005900Y005401D03*
X006100Y006401D03*
X006100Y007101D03*
X007100Y008001D03*
X008100Y008701D03*
X009300Y007801D03*
X009200Y007201D03*
X010200Y006301D03*
X010800Y006501D03*
X011400Y007401D03*
X010400Y008601D03*
X010600Y009301D03*
X012000Y009001D03*
X015500Y005101D03*
D17*
X014600Y004301D03*
X014900Y003901D03*
D18*
X015300Y007401D02*
X011400Y007401D01*
X009300Y007801D02*
X009200Y007701D01*
X008800Y007701D01*
X008200Y007101D01*
X008200Y005701D01*
X007900Y005401D01*
X005900Y005401D01*
X015300Y007401D02*
X015900Y008001D01*
X015900Y009301D01*
X018300Y011701D01*
X018894Y011701D01*
M02*
