G75*
G70*
%OFA0B0*%
%FSLAX24Y24*%
%IPPOS*%
%LPD*%
%AMOC8*
5,1,8,0,0,1.08239X$1,22.5*
%
%ADD10C,0.0000*%
%ADD11R,0.0276X0.0354*%
%ADD12R,0.0551X0.0630*%
%ADD13R,0.0354X0.0276*%
%ADD14R,0.0315X0.0315*%
%ADD15R,0.0591X0.0197*%
%ADD16R,0.0197X0.0591*%
%ADD17R,0.0748X0.0433*%
%ADD18R,0.0709X0.0394*%
%ADD19R,0.0472X0.0217*%
%ADD20R,0.2953X0.0591*%
%ADD21R,0.2559X0.0394*%
%ADD22R,0.0669X0.0335*%
%ADD23C,0.0640*%
%ADD24C,0.0740*%
%ADD25C,0.0866*%
%ADD26C,0.0669*%
%ADD27C,0.0476*%
%ADD28C,0.0240*%
%ADD29C,0.0160*%
%ADD30C,0.0436*%
%ADD31C,0.0120*%
%ADD32C,0.0350*%
%ADD33C,0.0300*%
%ADD34C,0.0100*%
D10*
X005900Y000483D02*
X005900Y004401D01*
X000100Y004401D01*
X000100Y009201D01*
X005900Y009201D01*
X005900Y013317D01*
X005902Y013348D01*
X005907Y013379D01*
X005916Y013409D01*
X005928Y013438D01*
X005943Y013466D01*
X005961Y013492D01*
X005982Y013515D01*
X006005Y013536D01*
X006031Y013554D01*
X006059Y013569D01*
X006088Y013581D01*
X006118Y013590D01*
X006149Y013595D01*
X006180Y013597D01*
X019311Y013597D01*
X019342Y013595D01*
X019373Y013589D01*
X019403Y013580D01*
X019432Y013567D01*
X019459Y013551D01*
X019483Y013532D01*
X019506Y013509D01*
X019525Y013485D01*
X019541Y013458D01*
X019554Y013429D01*
X019563Y013399D01*
X019569Y013368D01*
X019571Y013337D01*
X019570Y013337D02*
X019570Y000463D01*
X019571Y000463D02*
X019569Y000431D01*
X019563Y000400D01*
X019554Y000370D01*
X019541Y000341D01*
X019524Y000314D01*
X019505Y000289D01*
X019482Y000266D01*
X019457Y000247D01*
X019430Y000230D01*
X019401Y000217D01*
X019371Y000208D01*
X019340Y000202D01*
X019308Y000200D01*
X019308Y000201D02*
X006183Y000201D01*
X006183Y000200D02*
X006151Y000202D01*
X006120Y000207D01*
X006090Y000216D01*
X006060Y000228D01*
X006032Y000243D01*
X006007Y000262D01*
X005983Y000283D01*
X005962Y000307D01*
X005943Y000332D01*
X005928Y000360D01*
X005916Y000390D01*
X005907Y000420D01*
X005902Y000451D01*
X005900Y000483D01*
D11*
X010344Y002701D03*
X010856Y002701D03*
X009256Y004301D03*
X008744Y004301D03*
X005456Y006401D03*
X004944Y006401D03*
X004944Y007201D03*
X005456Y007201D03*
X005456Y007801D03*
X004944Y007801D03*
X006044Y008201D03*
X006556Y008201D03*
X008644Y008701D03*
X009156Y008701D03*
X009156Y009201D03*
X008644Y009201D03*
X009844Y010301D03*
X010356Y010301D03*
X010356Y010801D03*
X009844Y010801D03*
X012444Y009601D03*
X012956Y009601D03*
X012744Y011601D03*
X013256Y011601D03*
D12*
X013551Y010701D03*
X012449Y010701D03*
X009851Y011601D03*
X008749Y011601D03*
D13*
X013300Y012245D03*
X013300Y012757D03*
X013700Y009857D03*
X013700Y009345D03*
X014600Y002257D03*
X014600Y001745D03*
X011400Y001757D03*
X011400Y001245D03*
D14*
X010532Y001177D03*
X010532Y001768D03*
X006864Y012173D03*
X006864Y012764D03*
D15*
G36*
X011733Y008351D02*
X011316Y008766D01*
X011455Y008905D01*
X011872Y008490D01*
X011733Y008351D01*
G37*
G36*
X011511Y008128D02*
X011094Y008543D01*
X011233Y008682D01*
X011650Y008267D01*
X011511Y008128D01*
G37*
G36*
X011288Y007905D02*
X010871Y008320D01*
X011010Y008459D01*
X011427Y008044D01*
X011288Y007905D01*
G37*
G36*
X011066Y007682D02*
X010649Y008097D01*
X010788Y008236D01*
X011205Y007821D01*
X011066Y007682D01*
G37*
G36*
X010844Y007459D02*
X010427Y007874D01*
X010566Y008013D01*
X010983Y007598D01*
X010844Y007459D01*
G37*
G36*
X010622Y007235D02*
X010205Y007650D01*
X010344Y007789D01*
X010761Y007374D01*
X010622Y007235D01*
G37*
G36*
X010399Y007012D02*
X009982Y007427D01*
X010121Y007566D01*
X010538Y007151D01*
X010399Y007012D01*
G37*
G36*
X010177Y006789D02*
X009760Y007204D01*
X009899Y007343D01*
X010316Y006928D01*
X010177Y006789D01*
G37*
G36*
X009955Y006566D02*
X009538Y006981D01*
X009677Y007120D01*
X010094Y006705D01*
X009955Y006566D01*
G37*
G36*
X009732Y006343D02*
X009315Y006758D01*
X009454Y006897D01*
X009871Y006482D01*
X009732Y006343D01*
G37*
G36*
X009510Y006120D02*
X009093Y006535D01*
X009232Y006674D01*
X009649Y006259D01*
X009510Y006120D01*
G37*
G36*
X013190Y003342D02*
X012773Y003757D01*
X012912Y003896D01*
X013329Y003481D01*
X013190Y003342D01*
G37*
G36*
X012967Y003119D02*
X012550Y003534D01*
X012689Y003673D01*
X013106Y003258D01*
X012967Y003119D01*
G37*
G36*
X012745Y002896D02*
X012328Y003311D01*
X012467Y003450D01*
X012884Y003035D01*
X012745Y002896D01*
G37*
G36*
X013412Y003566D02*
X012995Y003981D01*
X013134Y004120D01*
X013551Y003705D01*
X013412Y003566D01*
G37*
G36*
X013634Y003789D02*
X013217Y004204D01*
X013356Y004343D01*
X013773Y003928D01*
X013634Y003789D01*
G37*
G36*
X013856Y004012D02*
X013439Y004427D01*
X013578Y004566D01*
X013995Y004151D01*
X013856Y004012D01*
G37*
G36*
X014079Y004235D02*
X013662Y004650D01*
X013801Y004789D01*
X014218Y004374D01*
X014079Y004235D01*
G37*
G36*
X014301Y004458D02*
X013884Y004873D01*
X014023Y005012D01*
X014440Y004597D01*
X014301Y004458D01*
G37*
G36*
X014523Y004681D02*
X014106Y005096D01*
X014245Y005235D01*
X014662Y004820D01*
X014523Y004681D01*
G37*
G36*
X014746Y004904D02*
X014329Y005319D01*
X014468Y005458D01*
X014885Y005043D01*
X014746Y004904D01*
G37*
G36*
X014968Y005127D02*
X014551Y005542D01*
X014690Y005681D01*
X015107Y005266D01*
X014968Y005127D01*
G37*
D16*
G36*
X014689Y006128D02*
X014550Y006267D01*
X014965Y006684D01*
X015104Y006545D01*
X014689Y006128D01*
G37*
G36*
X014466Y006351D02*
X014327Y006490D01*
X014742Y006907D01*
X014881Y006768D01*
X014466Y006351D01*
G37*
G36*
X014243Y006573D02*
X014104Y006712D01*
X014519Y007129D01*
X014658Y006990D01*
X014243Y006573D01*
G37*
G36*
X014020Y006795D02*
X013881Y006934D01*
X014296Y007351D01*
X014435Y007212D01*
X014020Y006795D01*
G37*
G36*
X013797Y007018D02*
X013658Y007157D01*
X014073Y007574D01*
X014212Y007435D01*
X013797Y007018D01*
G37*
G36*
X013574Y007240D02*
X013435Y007379D01*
X013850Y007796D01*
X013989Y007657D01*
X013574Y007240D01*
G37*
G36*
X013351Y007462D02*
X013212Y007601D01*
X013627Y008018D01*
X013766Y007879D01*
X013351Y007462D01*
G37*
G36*
X013128Y007685D02*
X012989Y007824D01*
X013404Y008241D01*
X013543Y008102D01*
X013128Y007685D01*
G37*
G36*
X012905Y007907D02*
X012766Y008046D01*
X013181Y008463D01*
X013320Y008324D01*
X012905Y007907D01*
G37*
G36*
X012681Y008129D02*
X012542Y008268D01*
X012957Y008685D01*
X013096Y008546D01*
X012681Y008129D01*
G37*
G36*
X012458Y008352D02*
X012319Y008491D01*
X012734Y008908D01*
X012873Y008769D01*
X012458Y008352D01*
G37*
G36*
X009235Y005117D02*
X009096Y005256D01*
X009511Y005673D01*
X009650Y005534D01*
X009235Y005117D01*
G37*
G36*
X009458Y004894D02*
X009319Y005033D01*
X009734Y005450D01*
X009873Y005311D01*
X009458Y004894D01*
G37*
G36*
X009681Y004672D02*
X009542Y004811D01*
X009957Y005228D01*
X010096Y005089D01*
X009681Y004672D01*
G37*
G36*
X009904Y004450D02*
X009765Y004589D01*
X010180Y005006D01*
X010319Y004867D01*
X009904Y004450D01*
G37*
G36*
X010127Y004227D02*
X009988Y004366D01*
X010403Y004783D01*
X010542Y004644D01*
X010127Y004227D01*
G37*
G36*
X010350Y004005D02*
X010211Y004144D01*
X010626Y004561D01*
X010765Y004422D01*
X010350Y004005D01*
G37*
G36*
X010573Y003783D02*
X010434Y003922D01*
X010849Y004339D01*
X010988Y004200D01*
X010573Y003783D01*
G37*
G36*
X010796Y003561D02*
X010657Y003700D01*
X011072Y004117D01*
X011211Y003978D01*
X010796Y003561D01*
G37*
G36*
X011019Y003338D02*
X010880Y003477D01*
X011295Y003894D01*
X011434Y003755D01*
X011019Y003338D01*
G37*
G36*
X011243Y003116D02*
X011104Y003255D01*
X011519Y003672D01*
X011658Y003533D01*
X011243Y003116D01*
G37*
G36*
X011466Y002894D02*
X011327Y003033D01*
X011742Y003450D01*
X011881Y003311D01*
X011466Y002894D01*
G37*
D17*
X012272Y002153D03*
X012272Y001248D03*
X013728Y001248D03*
X013728Y002153D03*
D18*
X011300Y009549D03*
X011300Y010652D03*
D19*
X010788Y011627D03*
X011812Y011627D03*
X011812Y012001D03*
X011812Y012375D03*
X010788Y012375D03*
D20*
X002021Y008179D03*
X002021Y005423D03*
D21*
X002218Y006407D03*
X002218Y007194D03*
D22*
X007079Y007325D03*
X008260Y008112D03*
X007079Y008900D03*
X008260Y009687D03*
X007079Y010475D03*
X008260Y006538D03*
X007079Y005750D03*
X008260Y004963D03*
X007079Y004175D03*
X008260Y003388D03*
X015740Y004175D03*
X016921Y004963D03*
X015740Y005750D03*
X016921Y006538D03*
X015740Y007325D03*
X016921Y008112D03*
X015740Y008900D03*
X016921Y009687D03*
X015740Y010475D03*
X016921Y003388D03*
D23*
X009600Y002001D03*
X008600Y002001D03*
X007600Y002001D03*
X007600Y001001D03*
X008600Y001001D03*
X009600Y001001D03*
D24*
X018900Y000901D03*
X018900Y001901D03*
X018900Y002901D03*
X018900Y003901D03*
X018900Y004901D03*
X018900Y005901D03*
X018900Y006901D03*
D25*
X017078Y011716D03*
X014322Y011716D03*
D26*
X014716Y012701D03*
X016684Y012701D03*
D27*
X018906Y012469D03*
X018906Y011682D03*
X018906Y010894D03*
X018906Y010107D03*
X018906Y009320D03*
X018906Y008532D03*
D28*
X011700Y008101D02*
X011700Y007701D01*
X011400Y007401D01*
X011000Y007001D01*
X010549Y007001D01*
X010260Y007289D01*
X009805Y007745D01*
X009356Y007745D01*
X009300Y007801D01*
X011372Y008405D02*
X011396Y008405D01*
X011700Y008101D01*
X007100Y009901D02*
X005378Y008179D01*
X004800Y008179D01*
X002021Y008179D01*
X002021Y005423D02*
X005822Y005423D01*
X005900Y005401D01*
X012828Y003396D02*
X013324Y002901D01*
X015100Y002901D01*
X017100Y000901D01*
X018900Y000901D01*
D29*
X018442Y001249D02*
X017205Y001249D01*
X017233Y001221D02*
X015371Y003082D01*
X015281Y003172D01*
X015164Y003221D01*
X014075Y003221D01*
X014137Y003246D01*
X014254Y003364D01*
X014318Y003517D01*
X014318Y003621D01*
X014685Y003621D01*
X014702Y003604D01*
X014830Y003551D01*
X014970Y003551D01*
X015098Y003604D01*
X015197Y003702D01*
X015250Y003831D01*
X015250Y003881D01*
X015323Y003808D01*
X016158Y003808D01*
X016275Y003925D01*
X016275Y004426D01*
X016158Y004543D01*
X015986Y004543D01*
X016387Y004943D01*
X016387Y004713D01*
X016504Y004596D01*
X017339Y004596D01*
X017456Y004713D01*
X017456Y005070D01*
X017499Y005087D01*
X017542Y005131D01*
X017647Y005131D01*
X017801Y005194D01*
X017918Y005312D01*
X017982Y005465D01*
X017982Y005632D01*
X017918Y005785D01*
X017883Y005821D01*
X018330Y005821D01*
X018330Y005787D01*
X018417Y005578D01*
X018577Y005417D01*
X018618Y005401D01*
X018577Y005384D01*
X018417Y005224D01*
X018330Y005014D01*
X018330Y004787D01*
X018417Y004578D01*
X018577Y004417D01*
X018618Y004401D01*
X018577Y004384D01*
X018417Y004224D01*
X018330Y004014D01*
X018330Y003787D01*
X018417Y003578D01*
X018577Y003417D01*
X018618Y003401D01*
X018577Y003384D01*
X018417Y003224D01*
X018330Y003014D01*
X018330Y002787D01*
X018417Y002578D01*
X018577Y002417D01*
X018646Y002389D01*
X018612Y002371D01*
X018542Y002320D01*
X018480Y002259D01*
X018430Y002189D01*
X018390Y002112D01*
X018364Y002029D01*
X018350Y001944D01*
X018350Y001921D01*
X018880Y001921D01*
X018880Y001881D01*
X018350Y001881D01*
X018350Y001857D01*
X018364Y001772D01*
X018390Y001690D01*
X018430Y001612D01*
X018480Y001542D01*
X018542Y001481D01*
X018612Y001430D01*
X018646Y001413D01*
X018577Y001384D01*
X018417Y001224D01*
X018416Y001221D01*
X017233Y001221D01*
X017046Y001407D02*
X018633Y001407D01*
X018464Y001566D02*
X016888Y001566D01*
X016729Y001724D02*
X018379Y001724D01*
X018367Y002041D02*
X016412Y002041D01*
X016571Y001883D02*
X018880Y001883D01*
X018437Y002200D02*
X016254Y002200D01*
X016095Y002358D02*
X018594Y002358D01*
X018478Y002517D02*
X015937Y002517D01*
X015778Y002675D02*
X018376Y002675D01*
X018330Y002834D02*
X015620Y002834D01*
X015461Y002992D02*
X018330Y002992D01*
X018387Y003151D02*
X017456Y003151D01*
X017456Y003138D02*
X017456Y003638D01*
X017339Y003755D01*
X016504Y003755D01*
X016387Y003638D01*
X016387Y003138D01*
X016504Y003021D01*
X017339Y003021D01*
X017456Y003138D01*
X017456Y003309D02*
X018502Y003309D01*
X018527Y003468D02*
X017456Y003468D01*
X017456Y003626D02*
X018397Y003626D01*
X018331Y003785D02*
X015231Y003785D01*
X015120Y003626D02*
X016387Y003626D01*
X016387Y003468D02*
X014297Y003468D01*
X014200Y003309D02*
X016387Y003309D01*
X016387Y003151D02*
X015303Y003151D01*
X014967Y002581D02*
X016919Y000629D01*
X017036Y000581D01*
X018416Y000581D01*
X018417Y000578D01*
X018577Y000417D01*
X018618Y000401D01*
X006183Y000401D01*
X006167Y000402D01*
X006137Y000415D01*
X006114Y000437D01*
X006102Y000467D01*
X006100Y000483D01*
X006100Y004483D01*
X005983Y004601D01*
X005900Y004601D01*
X005900Y004983D01*
X005983Y004983D01*
X006137Y005046D01*
X006240Y005149D01*
X006240Y003649D01*
X006280Y003553D01*
X006353Y003480D01*
X006448Y003441D01*
X006552Y003441D01*
X007745Y003441D01*
X007745Y003392D01*
X008256Y003392D01*
X008256Y003441D01*
X008264Y003441D01*
X008264Y003392D01*
X008640Y003392D01*
X008640Y003384D01*
X008264Y003384D01*
X008264Y003392D01*
X008256Y003392D01*
X008256Y003384D01*
X008264Y003384D01*
X008264Y003041D01*
X008618Y003041D01*
X008664Y003053D01*
X008677Y003060D01*
X008680Y003053D01*
X008753Y002980D01*
X008848Y002941D01*
X008952Y002941D01*
X008976Y002951D01*
X010006Y002951D01*
X010006Y002441D01*
X010067Y002380D01*
X010068Y002229D01*
X010041Y002295D01*
X009895Y002441D01*
X009703Y002521D01*
X009497Y002521D01*
X009305Y002441D01*
X009159Y002295D01*
X009100Y002152D01*
X009041Y002295D01*
X008895Y002441D01*
X008703Y002521D01*
X008497Y002521D01*
X008305Y002441D01*
X008159Y002295D01*
X008087Y002120D01*
X008063Y002193D01*
X008028Y002263D01*
X007981Y002326D01*
X007926Y002382D01*
X007862Y002428D01*
X007792Y002464D01*
X007717Y002488D01*
X007639Y002501D01*
X007609Y002501D01*
X007609Y002009D01*
X007591Y002009D01*
X007591Y001992D01*
X007100Y001992D01*
X007100Y001961D01*
X007112Y001884D01*
X007137Y001809D01*
X007172Y001739D01*
X007219Y001675D01*
X007274Y001619D01*
X007338Y001573D01*
X007408Y001537D01*
X007480Y001514D01*
X007305Y001441D01*
X007159Y001295D01*
X007080Y001104D01*
X007080Y000897D01*
X007159Y000706D01*
X007305Y000560D01*
X007497Y000481D01*
X007703Y000481D01*
X007895Y000560D01*
X008041Y000706D01*
X008100Y000849D01*
X008159Y000706D01*
X008305Y000560D01*
X008497Y000481D01*
X008703Y000481D01*
X008895Y000560D01*
X009041Y000706D01*
X009100Y000849D01*
X009159Y000706D01*
X009305Y000560D01*
X009497Y000481D01*
X009703Y000481D01*
X009895Y000560D01*
X010041Y000706D01*
X010120Y000897D01*
X010120Y000908D01*
X010141Y000905D01*
X010160Y000897D01*
X010195Y000897D01*
X010217Y000894D01*
X010292Y000820D01*
X010772Y000820D01*
X010889Y000937D01*
X010889Y001418D01*
X010835Y001473D01*
X010889Y001528D01*
X010889Y002008D01*
X010772Y002125D01*
X010629Y002125D01*
X010627Y002331D01*
X010635Y002323D01*
X010982Y002323D01*
X010982Y002217D01*
X011046Y002064D01*
X011077Y002032D01*
X011023Y001977D01*
X011023Y001536D01*
X011074Y001485D01*
X011055Y001452D01*
X011043Y001406D01*
X011043Y001245D01*
X011400Y001245D01*
X011400Y001245D01*
X011043Y001245D01*
X011043Y001083D01*
X011055Y001037D01*
X011079Y000996D01*
X011112Y000963D01*
X011153Y000939D01*
X011199Y000927D01*
X011400Y000927D01*
X011601Y000927D01*
X011647Y000939D01*
X011688Y000963D01*
X011698Y000973D01*
X011698Y000948D01*
X011815Y000831D01*
X012729Y000831D01*
X012846Y000948D01*
X012846Y001547D01*
X012729Y001664D01*
X012388Y001664D01*
X012316Y001737D01*
X012729Y001737D01*
X012846Y001854D01*
X012846Y002321D01*
X013154Y002321D01*
X013154Y001854D01*
X013271Y001737D01*
X014185Y001737D01*
X014243Y001794D01*
X014243Y001745D01*
X014600Y001745D01*
X014957Y001745D01*
X014957Y001906D01*
X014945Y001952D01*
X014926Y001985D01*
X014977Y002036D01*
X014977Y002477D01*
X014874Y002581D01*
X014967Y002581D01*
X014938Y002517D02*
X015031Y002517D01*
X014977Y002358D02*
X015190Y002358D01*
X015348Y002200D02*
X014977Y002200D01*
X014977Y002041D02*
X015507Y002041D01*
X015665Y001883D02*
X014957Y001883D01*
X014957Y001745D02*
X014600Y001745D01*
X014600Y001745D01*
X014600Y001745D01*
X014243Y001745D01*
X014243Y001607D01*
X014185Y001664D01*
X013271Y001664D01*
X013154Y001547D01*
X013154Y000948D01*
X013271Y000831D01*
X014185Y000831D01*
X014302Y000948D01*
X014302Y001473D01*
X014312Y001463D01*
X014353Y001439D01*
X014399Y001427D01*
X014600Y001427D01*
X014801Y001427D01*
X014847Y001439D01*
X014888Y001463D01*
X014921Y001496D01*
X014945Y001537D01*
X014957Y001583D01*
X014957Y001745D01*
X014957Y001724D02*
X015824Y001724D01*
X015982Y001566D02*
X014952Y001566D01*
X014600Y001566D02*
X014600Y001566D01*
X014600Y001427D02*
X014600Y001745D01*
X014600Y001745D01*
X014600Y001427D01*
X014302Y001407D02*
X016141Y001407D01*
X016299Y001249D02*
X014302Y001249D01*
X014302Y001090D02*
X016458Y001090D01*
X016616Y000932D02*
X014286Y000932D01*
X013171Y000932D02*
X012829Y000932D01*
X012846Y001090D02*
X013154Y001090D01*
X013154Y001249D02*
X012846Y001249D01*
X012846Y001407D02*
X013154Y001407D01*
X013173Y001566D02*
X012827Y001566D01*
X012328Y001724D02*
X014243Y001724D01*
X014600Y001724D02*
X014600Y001724D01*
X014600Y002257D02*
X013831Y002257D01*
X013831Y002369D01*
X013600Y002601D01*
X012300Y002601D01*
X012100Y002801D01*
X012072Y003219D02*
X012082Y003229D01*
X012082Y003394D01*
X011859Y003617D01*
X011635Y003839D01*
X011554Y003921D01*
X011589Y003921D01*
X011663Y003846D01*
X011817Y003783D01*
X011983Y003783D01*
X012137Y003846D01*
X012240Y003949D01*
X012240Y003673D01*
X012280Y003577D01*
X012309Y003548D01*
X012269Y003509D01*
X012183Y003422D01*
X012159Y003381D01*
X012147Y003335D01*
X012147Y003288D01*
X012160Y003242D01*
X012173Y003219D01*
X012072Y003219D01*
X012082Y003309D02*
X012147Y003309D01*
X012228Y003468D02*
X012008Y003468D01*
X011859Y003617D02*
X011859Y003617D01*
X011849Y003626D02*
X012259Y003626D01*
X012269Y003509D02*
X012552Y003227D01*
X012552Y003227D01*
X012269Y003509D01*
X012310Y003468D02*
X012310Y003468D01*
X012470Y003309D02*
X012470Y003309D01*
X012240Y003785D02*
X011988Y003785D01*
X011812Y003785D02*
X011690Y003785D01*
X011635Y003839D02*
X011635Y003839D01*
X012234Y003943D02*
X012240Y003943D01*
X012317Y004286D02*
X012254Y004437D01*
X012137Y004555D01*
X012071Y004583D01*
X012083Y004583D01*
X012237Y004646D01*
X012354Y004764D01*
X012418Y004917D01*
X012418Y005084D01*
X012354Y005237D01*
X012237Y005355D01*
X012199Y005371D01*
X012218Y005417D01*
X012218Y005584D01*
X012154Y005737D01*
X012037Y005855D01*
X011883Y005919D01*
X011717Y005919D01*
X011563Y005855D01*
X011489Y005781D01*
X011205Y005781D01*
X011102Y005738D01*
X011023Y005659D01*
X010403Y005039D01*
X010377Y005064D01*
X010353Y005089D01*
X012085Y006820D01*
X013468Y005436D01*
X012317Y004286D01*
X012262Y004419D02*
X012450Y004419D01*
X012609Y004577D02*
X012084Y004577D01*
X012326Y004736D02*
X012767Y004736D01*
X012926Y004894D02*
X012408Y004894D01*
X012418Y005053D02*
X013084Y005053D01*
X013243Y005211D02*
X012365Y005211D01*
X012202Y005370D02*
X013401Y005370D01*
X013376Y005528D02*
X012218Y005528D01*
X012176Y005687D02*
X013218Y005687D01*
X013059Y005845D02*
X012047Y005845D01*
X011800Y005501D02*
X011260Y005501D01*
X010265Y004505D01*
X010042Y004728D02*
X010042Y004728D01*
X010377Y005064D01*
X010042Y004728D01*
X010042Y004728D01*
X009706Y004391D01*
X009681Y004416D01*
X009594Y004329D01*
X009594Y004219D01*
X009683Y004219D01*
X009837Y004155D01*
X009954Y004037D01*
X010018Y003884D01*
X010018Y003717D01*
X009990Y003651D01*
X010421Y003651D01*
X010233Y003838D01*
X010233Y003838D01*
X010010Y004060D01*
X010010Y004060D01*
X009787Y004283D01*
X009787Y004311D01*
X009706Y004391D01*
X010042Y004728D01*
X010050Y004736D02*
X010050Y004736D01*
X010208Y004894D02*
X010208Y004894D01*
X010366Y005053D02*
X010366Y005053D01*
X010389Y005053D02*
X010416Y005053D01*
X010476Y005211D02*
X010575Y005211D01*
X010634Y005370D02*
X010733Y005370D01*
X010793Y005528D02*
X010892Y005528D01*
X010951Y005687D02*
X011050Y005687D01*
X011110Y005845D02*
X011553Y005845D01*
X011268Y006004D02*
X012901Y006004D01*
X012742Y006162D02*
X011427Y006162D01*
X011585Y006321D02*
X012584Y006321D01*
X012425Y006479D02*
X011744Y006479D01*
X011902Y006638D02*
X012267Y006638D01*
X012108Y006796D02*
X012061Y006796D01*
X012583Y007113D02*
X013417Y007113D01*
X013457Y007073D02*
X013234Y007295D01*
X013234Y007295D01*
X013011Y007518D01*
X013011Y007518D01*
X012788Y007740D01*
X012788Y007740D01*
X012565Y007962D01*
X012564Y007990D01*
X012484Y008071D01*
X012819Y008407D01*
X012484Y008071D01*
X012475Y008080D01*
X012380Y007985D01*
X012380Y007317D01*
X013850Y005847D01*
X014282Y006279D01*
X014269Y006292D01*
X014604Y006629D01*
X014604Y006629D01*
X014269Y006292D01*
X014250Y006311D01*
X014219Y006279D01*
X014116Y006237D01*
X013817Y006237D01*
X013743Y006206D01*
X013593Y006206D01*
X013456Y006263D01*
X013350Y006368D01*
X013293Y006506D01*
X013293Y006655D01*
X013350Y006793D01*
X013456Y006899D01*
X013580Y006950D01*
X013457Y007073D01*
X013457Y007073D01*
X013576Y006955D02*
X012742Y006955D01*
X012900Y006796D02*
X013353Y006796D01*
X013293Y006638D02*
X013059Y006638D01*
X013217Y006479D02*
X013304Y006479D01*
X013376Y006321D02*
X013398Y006321D01*
X013534Y006162D02*
X014166Y006162D01*
X014007Y006004D02*
X013693Y006004D01*
X013800Y005501D02*
X012100Y007201D01*
X012085Y007216D01*
X012100Y007231D01*
X012100Y008101D01*
X012596Y008597D01*
X012596Y008630D01*
X012387Y008842D02*
X012418Y008917D01*
X012418Y009084D01*
X012360Y009223D01*
X012665Y009223D01*
X012716Y009275D01*
X012749Y009256D01*
X012794Y009243D01*
X012956Y009243D01*
X013117Y009243D01*
X013163Y009256D01*
X013204Y009279D01*
X013238Y009313D01*
X013261Y009354D01*
X013274Y009400D01*
X013274Y009601D01*
X013274Y009801D01*
X013261Y009847D01*
X013238Y009888D01*
X013204Y009922D01*
X013163Y009946D01*
X013117Y009958D01*
X012956Y009958D01*
X012956Y009601D01*
X012956Y009601D01*
X012956Y009958D01*
X012794Y009958D01*
X012749Y009946D01*
X012716Y009927D01*
X012665Y009978D01*
X012223Y009978D01*
X012106Y009861D01*
X012106Y009829D01*
X011854Y009829D01*
X011737Y009946D01*
X010863Y009946D01*
X010746Y009829D01*
X010746Y009693D01*
X010683Y009719D01*
X010517Y009719D01*
X010363Y009655D01*
X010246Y009537D01*
X010182Y009384D01*
X010182Y009217D01*
X010246Y009064D01*
X010298Y009011D01*
X010163Y008955D01*
X010046Y008837D01*
X009982Y008684D01*
X009982Y008517D01*
X010046Y008364D01*
X010163Y008246D01*
X010317Y008183D01*
X010322Y008183D01*
X010401Y008104D01*
X010368Y008071D01*
X010344Y008047D01*
X009980Y008411D01*
X009980Y009923D01*
X010065Y009923D01*
X010116Y009975D01*
X010149Y009956D01*
X010194Y009943D01*
X010356Y009943D01*
X010517Y009943D01*
X010563Y009956D01*
X010604Y009979D01*
X010638Y010013D01*
X010661Y010054D01*
X010674Y010100D01*
X010674Y010301D01*
X010674Y010501D01*
X010661Y010547D01*
X010659Y010551D01*
X010661Y010554D01*
X010674Y010600D01*
X010746Y010600D01*
X010674Y010600D02*
X010674Y010801D01*
X010674Y011001D01*
X010661Y011047D01*
X010638Y011088D01*
X010604Y011122D01*
X010563Y011146D01*
X010517Y011158D01*
X010356Y011158D01*
X010356Y010801D01*
X010356Y010801D01*
X010356Y011158D01*
X010282Y011158D01*
X010327Y011203D01*
X010327Y011321D01*
X010467Y011321D01*
X010469Y011318D01*
X011107Y011318D01*
X011224Y011436D01*
X011224Y011818D01*
X011107Y011935D01*
X010469Y011935D01*
X010415Y011881D01*
X010327Y011881D01*
X010327Y011998D01*
X010210Y012116D01*
X009493Y012116D01*
X009376Y011998D01*
X009376Y011203D01*
X009493Y011086D01*
X009531Y011086D01*
X009526Y011081D01*
X007349Y011081D01*
X007246Y011038D01*
X007050Y010842D01*
X006661Y010842D01*
X006544Y010725D01*
X006544Y010224D01*
X006661Y010107D01*
X007496Y010107D01*
X007613Y010224D01*
X007613Y010521D01*
X009506Y010521D01*
X009506Y010359D01*
X009463Y010315D01*
X009420Y010212D01*
X009420Y009506D01*
X009404Y009522D01*
X009363Y009546D01*
X009317Y009558D01*
X009156Y009558D01*
X009156Y009201D01*
X009156Y009201D01*
X009156Y009558D01*
X008994Y009558D01*
X008949Y009546D01*
X008916Y009527D01*
X008865Y009578D01*
X008794Y009578D01*
X008794Y009937D01*
X008677Y010055D01*
X007842Y010055D01*
X007725Y009937D01*
X007725Y009572D01*
X007570Y009444D01*
X007558Y009439D01*
X007532Y009413D01*
X007503Y009389D01*
X007497Y009378D01*
X007488Y009369D01*
X007474Y009334D01*
X007456Y009301D01*
X007455Y009289D01*
X007450Y009277D01*
X007450Y009267D01*
X006661Y009267D01*
X006544Y009150D01*
X006544Y008981D01*
X006344Y008981D01*
X006241Y008938D01*
X005900Y008597D01*
X005900Y009001D01*
X005983Y009001D01*
X006100Y009118D01*
X006100Y013317D01*
X006102Y013332D01*
X006113Y013361D01*
X006136Y013383D01*
X006164Y013395D01*
X006180Y013397D01*
X019311Y013397D01*
X019326Y013395D01*
X019353Y013379D01*
X019368Y013353D01*
X019370Y013337D01*
X019370Y007237D01*
X019223Y007384D01*
X019013Y007471D01*
X018787Y007471D01*
X018730Y007447D01*
X018660Y007477D01*
X016904Y007477D01*
X016635Y007745D01*
X017339Y007745D01*
X017456Y007862D01*
X017456Y008363D01*
X017339Y008480D01*
X016504Y008480D01*
X016387Y008363D01*
X016387Y007994D01*
X015848Y008533D01*
X016158Y008533D01*
X016275Y008650D01*
X016275Y009150D01*
X016158Y009267D01*
X015323Y009267D01*
X015206Y009150D01*
X015206Y008661D01*
X014772Y008661D01*
X014669Y008618D01*
X014591Y008539D01*
X014319Y008267D01*
X014276Y008164D01*
X014276Y007655D01*
X014190Y007741D01*
X013967Y007963D01*
X013744Y008186D01*
X013591Y008338D01*
X013861Y008608D01*
X013862Y008608D01*
X013901Y008647D01*
X013940Y008686D01*
X013940Y008687D01*
X013961Y008738D01*
X013982Y008789D01*
X013982Y008790D01*
X013982Y008790D01*
X013982Y008845D01*
X013982Y008900D01*
X013982Y008901D01*
X013981Y009028D01*
X014077Y009124D01*
X014077Y009565D01*
X014026Y009617D01*
X014045Y009649D01*
X016387Y009649D01*
X016387Y009491D02*
X014077Y009491D01*
X014077Y009332D02*
X016492Y009332D01*
X016504Y009320D02*
X017339Y009320D01*
X017456Y009437D01*
X017456Y009937D01*
X017339Y010055D01*
X016504Y010055D01*
X016387Y009937D01*
X016387Y009437D01*
X016504Y009320D01*
X016251Y009174D02*
X018493Y009174D01*
X018468Y009232D02*
X018535Y009071D01*
X018658Y008948D01*
X018712Y008926D01*
X018658Y008904D01*
X018535Y008780D01*
X018468Y008619D01*
X018468Y008445D01*
X018535Y008284D01*
X018658Y008161D01*
X018819Y008094D01*
X018993Y008094D01*
X019154Y008161D01*
X019278Y008284D01*
X019344Y008445D01*
X019344Y008619D01*
X019278Y008780D01*
X019154Y008904D01*
X019101Y008926D01*
X019154Y008948D01*
X019278Y009071D01*
X019344Y009232D01*
X019344Y009407D01*
X019278Y009568D01*
X019154Y009691D01*
X019101Y009713D01*
X019154Y009736D01*
X019278Y009859D01*
X019344Y010020D01*
X019344Y010194D01*
X019278Y010355D01*
X019154Y010478D01*
X019101Y010501D01*
X019154Y010523D01*
X019278Y010646D01*
X019344Y010807D01*
X019344Y010981D01*
X019278Y011143D01*
X019154Y011266D01*
X019101Y011288D01*
X019154Y011310D01*
X019278Y011434D01*
X019344Y011595D01*
X019344Y011769D01*
X019278Y011930D01*
X019154Y012053D01*
X019075Y012086D01*
X019125Y012112D01*
X019179Y012150D01*
X019225Y012197D01*
X019264Y012250D01*
X019294Y012309D01*
X019314Y012371D01*
X019324Y012436D01*
X019324Y012469D01*
X018906Y012469D01*
X018488Y012469D01*
X018488Y012436D01*
X018498Y012371D01*
X018519Y012309D01*
X018549Y012250D01*
X018587Y012197D01*
X018634Y012150D01*
X018687Y012112D01*
X018737Y012086D01*
X018658Y012053D01*
X018535Y011930D01*
X018468Y011769D01*
X018468Y011595D01*
X018535Y011434D01*
X018658Y011310D01*
X018712Y011288D01*
X018658Y011266D01*
X018535Y011143D01*
X018468Y010981D01*
X018468Y010807D01*
X018535Y010646D01*
X018658Y010523D01*
X018712Y010501D01*
X018658Y010478D01*
X018535Y010355D01*
X018468Y010194D01*
X018468Y010020D01*
X018535Y009859D01*
X018658Y009736D01*
X018712Y009713D01*
X018658Y009691D01*
X018535Y009568D01*
X018468Y009407D01*
X018468Y009232D01*
X018468Y009332D02*
X017351Y009332D01*
X017456Y009491D02*
X018503Y009491D01*
X018616Y009649D02*
X017456Y009649D01*
X017456Y009808D02*
X018586Y009808D01*
X018490Y009966D02*
X017427Y009966D01*
X016415Y009966D02*
X014506Y009966D01*
X014531Y010026D02*
X014531Y010175D01*
X014474Y010313D01*
X014368Y010419D01*
X014231Y010476D01*
X014172Y010476D01*
X014027Y010621D01*
X014027Y011098D01*
X013910Y011216D01*
X013831Y011216D01*
X013831Y011312D01*
X013963Y011180D01*
X014196Y011083D01*
X014448Y011083D01*
X014681Y011180D01*
X014859Y011358D01*
X014955Y011590D01*
X014955Y011842D01*
X014859Y012075D01*
X014748Y012186D01*
X014756Y012186D01*
X014836Y012199D01*
X014913Y012224D01*
X014985Y012260D01*
X015051Y012308D01*
X015108Y012365D01*
X015156Y012431D01*
X015193Y012503D01*
X015218Y012580D01*
X015230Y012660D01*
X015230Y012701D01*
X015230Y012741D01*
X015218Y012821D01*
X015193Y012898D01*
X015156Y012970D01*
X015108Y013036D01*
X015051Y013093D01*
X014985Y013141D01*
X014913Y013178D01*
X014836Y013203D01*
X014756Y013215D01*
X014716Y013215D01*
X014716Y012701D01*
X014716Y012701D01*
X015230Y012701D01*
X014716Y012701D01*
X014716Y012701D01*
X014716Y013215D01*
X014675Y013215D01*
X014595Y013203D01*
X014518Y013178D01*
X014446Y013141D01*
X014380Y013093D01*
X014323Y013036D01*
X014276Y012970D01*
X014239Y012898D01*
X014214Y012821D01*
X014201Y012741D01*
X014201Y012701D01*
X014716Y012701D01*
X014716Y012701D01*
X014201Y012701D01*
X014201Y012660D01*
X014214Y012580D01*
X014239Y012503D01*
X014276Y012431D01*
X014323Y012365D01*
X014339Y012349D01*
X014196Y012349D01*
X013963Y012253D01*
X013785Y012075D01*
X013689Y011842D01*
X013689Y011590D01*
X013708Y011545D01*
X013594Y011659D01*
X013594Y011861D01*
X013557Y011897D01*
X013558Y011907D01*
X013560Y011907D01*
X013677Y012024D01*
X013677Y012465D01*
X013642Y012501D01*
X013677Y012536D01*
X013677Y012977D01*
X013560Y013094D01*
X013040Y013094D01*
X012982Y013037D01*
X009752Y013037D01*
X007183Y013043D01*
X007104Y013121D01*
X006624Y013121D01*
X006507Y013004D01*
X006507Y012524D01*
X006576Y012454D01*
X006562Y012441D01*
X006539Y012400D01*
X006527Y012355D01*
X006527Y012173D01*
X006527Y011992D01*
X006539Y011946D01*
X006562Y011905D01*
X006596Y011872D01*
X006637Y011848D01*
X006683Y011836D01*
X006864Y011836D01*
X007045Y011836D01*
X007091Y011848D01*
X007132Y011872D01*
X007166Y011905D01*
X007189Y011946D01*
X007201Y011992D01*
X007201Y012173D01*
X006864Y012173D01*
X006864Y011836D01*
X006864Y012173D01*
X006864Y012173D01*
X006864Y012173D01*
X006527Y012173D01*
X006864Y012173D01*
X006864Y012173D01*
X007201Y012173D01*
X007201Y012355D01*
X007189Y012400D01*
X007166Y012441D01*
X007152Y012454D01*
X007181Y012483D01*
X009695Y012477D01*
X009695Y012477D01*
X009751Y012477D01*
X009806Y012476D01*
X009807Y012477D01*
X010352Y012477D01*
X010352Y012184D01*
X010469Y012066D01*
X011107Y012066D01*
X011224Y012184D01*
X011224Y012477D01*
X011376Y012477D01*
X011376Y012184D01*
X011402Y012157D01*
X011396Y012133D01*
X011396Y012001D01*
X011812Y012001D01*
X011812Y012001D01*
X011396Y012001D01*
X011396Y011869D01*
X011402Y011844D01*
X011376Y011818D01*
X011376Y011586D01*
X011063Y011273D01*
X011020Y011170D01*
X011020Y011049D01*
X010863Y011049D01*
X010746Y010932D01*
X010746Y010372D01*
X010863Y010255D01*
X011737Y010255D01*
X011854Y010372D01*
X011854Y010932D01*
X011737Y011049D01*
X011630Y011049D01*
X011900Y011318D01*
X012131Y011318D01*
X012133Y011321D01*
X012156Y011321D01*
X012259Y011363D01*
X012337Y011442D01*
X012426Y011531D01*
X012426Y011400D01*
X012439Y011354D01*
X012462Y011313D01*
X012496Y011279D01*
X012537Y011256D01*
X012583Y011243D01*
X012744Y011243D01*
X012744Y011601D01*
X012744Y011601D01*
X012744Y011243D01*
X012906Y011243D01*
X012951Y011256D01*
X012984Y011275D01*
X013035Y011223D01*
X013237Y011223D01*
X013245Y011216D01*
X013193Y011216D01*
X013076Y011098D01*
X013076Y010303D01*
X013193Y010186D01*
X013670Y010186D01*
X013682Y010174D01*
X013499Y010174D01*
X013453Y010162D01*
X013412Y010138D01*
X013379Y010105D01*
X013355Y010064D01*
X013343Y010018D01*
X013343Y009857D01*
X013700Y009857D01*
X013700Y009857D01*
X013343Y009857D01*
X013343Y009695D01*
X013355Y009649D01*
X013274Y009649D01*
X013274Y009601D02*
X012956Y009601D01*
X012956Y009601D01*
X013274Y009601D01*
X013323Y009565D02*
X013323Y009124D01*
X013421Y009026D01*
X013422Y008960D01*
X013180Y008719D01*
X013155Y008744D01*
X012819Y008407D01*
X012819Y008407D01*
X013155Y008744D01*
X013074Y008824D01*
X013074Y008853D01*
X012818Y009108D01*
X012652Y009108D01*
X012387Y008842D01*
X012393Y008857D02*
X012401Y008857D01*
X012418Y009015D02*
X012559Y009015D01*
X012381Y009174D02*
X013323Y009174D01*
X013421Y009015D02*
X012911Y009015D01*
X013070Y008857D02*
X013318Y008857D01*
X013109Y008698D02*
X013109Y008698D01*
X012951Y008540D02*
X012951Y008540D01*
X012819Y008407D02*
X012819Y008407D01*
X012793Y008381D02*
X012793Y008381D01*
X012635Y008223D02*
X012635Y008223D01*
X012491Y008064D02*
X012460Y008064D01*
X012380Y007906D02*
X012621Y007906D01*
X012780Y007747D02*
X012380Y007747D01*
X012380Y007589D02*
X012939Y007589D01*
X013098Y007430D02*
X012380Y007430D01*
X012425Y007272D02*
X013257Y007272D01*
X014158Y007087D02*
X014556Y007485D01*
X014556Y008109D01*
X014828Y008381D01*
X015604Y008381D01*
X016788Y007197D01*
X018604Y007197D01*
X018900Y006901D01*
X019335Y007272D02*
X019370Y007272D01*
X019370Y007430D02*
X019111Y007430D01*
X019370Y007589D02*
X016792Y007589D01*
X017341Y007747D02*
X019370Y007747D01*
X019370Y007906D02*
X017456Y007906D01*
X017456Y008064D02*
X019370Y008064D01*
X019370Y008223D02*
X019216Y008223D01*
X019318Y008381D02*
X019370Y008381D01*
X019370Y008540D02*
X019344Y008540D01*
X019370Y008698D02*
X019312Y008698D01*
X019370Y008857D02*
X019201Y008857D01*
X019222Y009015D02*
X019370Y009015D01*
X019370Y009174D02*
X019320Y009174D01*
X019344Y009332D02*
X019370Y009332D01*
X019370Y009491D02*
X019310Y009491D01*
X019370Y009649D02*
X019196Y009649D01*
X019227Y009808D02*
X019370Y009808D01*
X019370Y009966D02*
X019322Y009966D01*
X019344Y010125D02*
X019370Y010125D01*
X019370Y010283D02*
X019308Y010283D01*
X019370Y010442D02*
X019191Y010442D01*
X019232Y010600D02*
X019370Y010600D01*
X019370Y010759D02*
X019324Y010759D01*
X019344Y010917D02*
X019370Y010917D01*
X019370Y011076D02*
X019305Y011076D01*
X019370Y011234D02*
X019186Y011234D01*
X019237Y011393D02*
X019370Y011393D01*
X019370Y011551D02*
X019326Y011551D01*
X019344Y011710D02*
X019370Y011710D01*
X019370Y011868D02*
X019303Y011868D01*
X019370Y012027D02*
X019181Y012027D01*
X019214Y012185D02*
X019370Y012185D01*
X019370Y012344D02*
X019305Y012344D01*
X019324Y012469D02*
X019324Y012502D01*
X019314Y012567D01*
X019294Y012630D01*
X019264Y012688D01*
X019225Y012742D01*
X019179Y012788D01*
X019125Y012827D01*
X019067Y012857D01*
X019004Y012877D01*
X018939Y012887D01*
X018906Y012887D01*
X018873Y012887D01*
X018808Y012877D01*
X018746Y012857D01*
X018687Y012827D01*
X018634Y012788D01*
X018587Y012742D01*
X018549Y012688D01*
X018519Y012630D01*
X018498Y012567D01*
X018488Y012502D01*
X018488Y012469D01*
X018906Y012469D01*
X018906Y012469D01*
X018906Y012887D01*
X018906Y012469D01*
X018906Y012469D01*
X018906Y012469D01*
X019324Y012469D01*
X019324Y012502D02*
X019370Y012502D01*
X019370Y012661D02*
X019278Y012661D01*
X019370Y012819D02*
X019136Y012819D01*
X018906Y012819D02*
X018906Y012819D01*
X018906Y012661D02*
X018906Y012661D01*
X018906Y012502D02*
X018906Y012502D01*
X018677Y012819D02*
X017214Y012819D01*
X017219Y012807D02*
X017138Y013003D01*
X016987Y013154D01*
X016791Y013235D01*
X016578Y013235D01*
X016381Y013154D01*
X016231Y013003D01*
X016150Y012807D01*
X016150Y012594D01*
X016231Y012398D01*
X016381Y012247D01*
X016578Y012166D01*
X016632Y012166D01*
X016541Y012075D01*
X016445Y011842D01*
X016445Y011590D01*
X016541Y011358D01*
X016719Y011180D01*
X016952Y011083D01*
X017204Y011083D01*
X017437Y011180D01*
X017615Y011358D01*
X017711Y011590D01*
X017711Y011842D01*
X017615Y012075D01*
X017437Y012253D01*
X017204Y012349D01*
X017089Y012349D01*
X017138Y012398D01*
X017219Y012594D01*
X017219Y012807D01*
X017219Y012661D02*
X018535Y012661D01*
X018488Y012502D02*
X017181Y012502D01*
X017218Y012344D02*
X018507Y012344D01*
X018599Y012185D02*
X017504Y012185D01*
X017635Y012027D02*
X018632Y012027D01*
X018509Y011868D02*
X017700Y011868D01*
X017711Y011710D02*
X018468Y011710D01*
X018486Y011551D02*
X017695Y011551D01*
X017629Y011393D02*
X018576Y011393D01*
X018627Y011234D02*
X017491Y011234D01*
X016665Y011234D02*
X014735Y011234D01*
X014873Y011393D02*
X016527Y011393D01*
X016461Y011551D02*
X014939Y011551D01*
X014955Y011710D02*
X016445Y011710D01*
X016456Y011868D02*
X014944Y011868D01*
X014879Y012027D02*
X016521Y012027D01*
X016532Y012185D02*
X014749Y012185D01*
X015087Y012344D02*
X016285Y012344D01*
X016188Y012502D02*
X015192Y012502D01*
X015230Y012661D02*
X016150Y012661D01*
X016155Y012819D02*
X015218Y012819D01*
X015151Y012978D02*
X016220Y012978D01*
X016364Y013136D02*
X014992Y013136D01*
X014716Y013136D02*
X014716Y013136D01*
X014716Y012978D02*
X014716Y012978D01*
X014716Y012819D02*
X014716Y012819D01*
X014440Y013136D02*
X006100Y013136D01*
X006100Y012978D02*
X006507Y012978D01*
X006507Y012819D02*
X006100Y012819D01*
X006100Y012661D02*
X006507Y012661D01*
X006528Y012502D02*
X006100Y012502D01*
X006100Y012344D02*
X006527Y012344D01*
X006527Y012185D02*
X006100Y012185D01*
X006100Y012027D02*
X006527Y012027D01*
X006602Y011868D02*
X006100Y011868D01*
X006100Y011710D02*
X008293Y011710D01*
X008293Y011658D02*
X008293Y011939D01*
X008305Y011985D01*
X008329Y012026D01*
X008363Y012060D01*
X008404Y012083D01*
X008450Y012096D01*
X008691Y012096D01*
X008691Y011658D01*
X008691Y011543D01*
X008293Y011543D01*
X008293Y011262D01*
X008305Y011216D01*
X008329Y011175D01*
X008363Y011142D01*
X008404Y011118D01*
X008450Y011106D01*
X008691Y011106D01*
X008691Y011543D01*
X008807Y011543D01*
X008807Y011658D01*
X009204Y011658D01*
X009204Y011939D01*
X009192Y011985D01*
X009168Y012026D01*
X009135Y012060D01*
X009094Y012083D01*
X009048Y012096D01*
X008807Y012096D01*
X008807Y011658D01*
X008691Y011658D01*
X008293Y011658D01*
X008293Y011868D02*
X007126Y011868D01*
X007201Y012027D02*
X008330Y012027D01*
X008691Y012027D02*
X008807Y012027D01*
X008807Y011868D02*
X008691Y011868D01*
X008691Y011710D02*
X008807Y011710D01*
X008807Y011551D02*
X009376Y011551D01*
X009376Y011393D02*
X009204Y011393D01*
X009204Y011262D02*
X009204Y011543D01*
X008807Y011543D01*
X008807Y011106D01*
X009048Y011106D01*
X009094Y011118D01*
X009135Y011142D01*
X009168Y011175D01*
X009192Y011216D01*
X009204Y011262D01*
X009197Y011234D02*
X009376Y011234D01*
X009844Y011594D02*
X009844Y010801D01*
X007405Y010801D01*
X007079Y010475D01*
X007613Y010442D02*
X009506Y010442D01*
X009449Y010283D02*
X007613Y010283D01*
X007514Y010125D02*
X009420Y010125D01*
X009420Y009966D02*
X008766Y009966D01*
X008794Y009808D02*
X009420Y009808D01*
X009420Y009649D02*
X008794Y009649D01*
X009156Y009491D02*
X009156Y009491D01*
X009156Y009332D02*
X009156Y009332D01*
X008644Y009201D02*
X008644Y008701D01*
X008100Y008701D01*
X008800Y008101D02*
X009156Y008457D01*
X009156Y008701D01*
X009700Y008295D02*
X009700Y010157D01*
X009844Y010301D01*
X010107Y009966D02*
X010131Y009966D01*
X009980Y009808D02*
X010746Y009808D01*
X010581Y009966D02*
X012212Y009966D01*
X012150Y010206D02*
X012391Y010206D01*
X012391Y010643D01*
X011993Y010643D01*
X011993Y010362D01*
X012005Y010316D01*
X012029Y010275D01*
X012063Y010242D01*
X012104Y010218D01*
X012150Y010206D01*
X012025Y010283D02*
X011765Y010283D01*
X011854Y010442D02*
X011993Y010442D01*
X011993Y010600D02*
X011854Y010600D01*
X011854Y010759D02*
X011993Y010759D01*
X011993Y010758D02*
X011993Y011039D01*
X012005Y011085D01*
X012029Y011126D01*
X012063Y011160D01*
X012104Y011183D01*
X012150Y011196D01*
X012391Y011196D01*
X012391Y010758D01*
X012391Y010643D01*
X012507Y010643D01*
X012507Y010758D01*
X012904Y010758D01*
X012904Y011039D01*
X012892Y011085D01*
X012868Y011126D01*
X012835Y011160D01*
X012794Y011183D01*
X012748Y011196D01*
X012507Y011196D01*
X012507Y010758D01*
X012391Y010758D01*
X011993Y010758D01*
X011993Y010917D02*
X011854Y010917D01*
X012003Y011076D02*
X011657Y011076D01*
X011815Y011234D02*
X013025Y011234D01*
X013076Y011076D02*
X012895Y011076D01*
X012904Y010917D02*
X013076Y010917D01*
X013076Y010759D02*
X012904Y010759D01*
X012904Y010643D02*
X012507Y010643D01*
X012507Y010206D01*
X012748Y010206D01*
X012794Y010218D01*
X012835Y010242D01*
X012868Y010275D01*
X012892Y010316D01*
X012904Y010362D01*
X012904Y010643D01*
X012904Y010600D02*
X013076Y010600D01*
X013076Y010442D02*
X012904Y010442D01*
X012873Y010283D02*
X013095Y010283D01*
X013399Y010125D02*
X010674Y010125D01*
X010674Y010283D02*
X010835Y010283D01*
X010674Y010301D02*
X010356Y010301D01*
X010356Y010301D01*
X010356Y010443D01*
X010356Y010801D01*
X010674Y010801D01*
X010356Y010801D01*
X010356Y010801D01*
X010356Y010801D01*
X010356Y010301D01*
X010674Y010301D01*
X010674Y010442D02*
X010746Y010442D01*
X010356Y010442D02*
X010356Y010442D01*
X010356Y010301D02*
X010356Y010301D01*
X010356Y009943D01*
X010356Y010301D01*
X010356Y010301D01*
X010356Y010283D02*
X010356Y010283D01*
X010356Y010125D02*
X010356Y010125D01*
X010356Y009966D02*
X010356Y009966D01*
X010357Y009649D02*
X009980Y009649D01*
X009980Y009491D02*
X010226Y009491D01*
X010182Y009332D02*
X009980Y009332D01*
X009980Y009174D02*
X010200Y009174D01*
X010294Y009015D02*
X009980Y009015D01*
X009980Y008857D02*
X010065Y008857D01*
X009988Y008698D02*
X009980Y008698D01*
X009980Y008540D02*
X009982Y008540D01*
X010010Y008381D02*
X010038Y008381D01*
X010168Y008223D02*
X010220Y008223D01*
X010327Y008064D02*
X010361Y008064D01*
X010368Y008071D02*
X010705Y007736D01*
X010705Y007736D01*
X010368Y008071D01*
X010375Y008064D02*
X010375Y008064D01*
X010534Y007906D02*
X010534Y007906D01*
X010693Y007747D02*
X010693Y007747D01*
X010927Y007959D02*
X010927Y007973D01*
X010500Y008401D01*
X010400Y008601D01*
X010800Y008501D02*
X011119Y008182D01*
X011149Y008182D01*
X011372Y008405D02*
X011100Y008677D01*
X011100Y009501D01*
X011149Y009549D01*
X011300Y009549D01*
X012393Y009549D01*
X012444Y009601D01*
X012956Y009601D02*
X012956Y009243D01*
X012956Y009601D01*
X012956Y009601D01*
X012956Y009649D02*
X012956Y009649D01*
X012956Y009491D02*
X012956Y009491D01*
X012956Y009332D02*
X012956Y009332D01*
X013249Y009332D02*
X013323Y009332D01*
X013323Y009491D02*
X013274Y009491D01*
X013323Y009565D02*
X013374Y009617D01*
X013355Y009649D01*
X013343Y009808D02*
X013272Y009808D01*
X013343Y009966D02*
X012676Y009966D01*
X012956Y009808D02*
X012956Y009808D01*
X012507Y010283D02*
X012391Y010283D01*
X012391Y010442D02*
X012507Y010442D01*
X012507Y010600D02*
X012391Y010600D01*
X012391Y010759D02*
X012507Y010759D01*
X012507Y010917D02*
X012391Y010917D01*
X012391Y011076D02*
X012507Y011076D01*
X012428Y011393D02*
X012288Y011393D01*
X012337Y011442D02*
X012337Y011442D01*
X012100Y011601D02*
X011838Y011601D01*
X011812Y011627D01*
X011300Y011115D01*
X011300Y010652D01*
X010746Y010759D02*
X010674Y010759D01*
X010674Y010917D02*
X010746Y010917D01*
X010645Y011076D02*
X011020Y011076D01*
X011046Y011234D02*
X010327Y011234D01*
X010356Y011076D02*
X010356Y011076D01*
X010356Y010917D02*
X010356Y010917D01*
X010356Y010759D02*
X010356Y010759D01*
X010356Y010600D02*
X010356Y010600D01*
X011182Y011393D02*
X011182Y011393D01*
X011224Y011551D02*
X011340Y011551D01*
X011376Y011710D02*
X011224Y011710D01*
X011174Y011868D02*
X011396Y011868D01*
X011396Y012027D02*
X010299Y012027D01*
X010352Y012185D02*
X007201Y012185D01*
X006864Y012027D02*
X006864Y012027D01*
X006864Y011868D02*
X006864Y011868D01*
X007201Y012344D02*
X010352Y012344D01*
X009751Y012757D02*
X006864Y012764D01*
X006100Y013295D02*
X019370Y013295D01*
X019370Y013136D02*
X017005Y013136D01*
X017148Y012978D02*
X019370Y012978D01*
X018507Y011076D02*
X014027Y011076D01*
X014027Y010917D02*
X018468Y010917D01*
X018488Y010759D02*
X016241Y010759D01*
X016275Y010725D02*
X016158Y010842D01*
X015323Y010842D01*
X015206Y010725D01*
X015206Y010224D01*
X015323Y010107D01*
X016158Y010107D01*
X016275Y010224D01*
X016275Y010725D01*
X016275Y010600D02*
X018581Y010600D01*
X018621Y010442D02*
X016275Y010442D01*
X016275Y010283D02*
X018505Y010283D01*
X018468Y010125D02*
X016175Y010125D01*
X016387Y009808D02*
X014393Y009808D01*
X014368Y009783D02*
X014474Y009888D01*
X014531Y010026D01*
X014531Y010125D02*
X015305Y010125D01*
X015206Y010283D02*
X014486Y010283D01*
X014313Y010442D02*
X015206Y010442D01*
X015206Y010600D02*
X014048Y010600D01*
X014027Y010759D02*
X015239Y010759D01*
X014156Y010101D02*
X014151Y010101D01*
X013551Y010701D01*
X013551Y011305D01*
X013256Y011601D01*
X013300Y012245D01*
X013197Y012053D01*
X012447Y012053D01*
X012300Y012201D01*
X012300Y011801D01*
X012100Y011601D01*
X012744Y011551D02*
X012744Y011551D01*
X012744Y011393D02*
X012744Y011393D01*
X013594Y011710D02*
X013689Y011710D01*
X013700Y011868D02*
X013586Y011868D01*
X013677Y012027D02*
X013765Y012027D01*
X013677Y012185D02*
X013896Y012185D01*
X013677Y012344D02*
X014182Y012344D01*
X014239Y012502D02*
X013643Y012502D01*
X013677Y012661D02*
X014201Y012661D01*
X014213Y012819D02*
X013677Y012819D01*
X013677Y012978D02*
X014281Y012978D01*
X013300Y012757D02*
X009751Y012757D01*
X009404Y012027D02*
X009168Y012027D01*
X009204Y011868D02*
X009376Y011868D01*
X009376Y011710D02*
X009204Y011710D01*
X008807Y011393D02*
X008691Y011393D01*
X008691Y011551D02*
X006100Y011551D01*
X006100Y011393D02*
X008293Y011393D01*
X008301Y011234D02*
X006100Y011234D01*
X006100Y011076D02*
X007337Y011076D01*
X007125Y010917D02*
X006100Y010917D01*
X006100Y010759D02*
X006578Y010759D01*
X006544Y010600D02*
X006100Y010600D01*
X006100Y010442D02*
X006544Y010442D01*
X006544Y010283D02*
X006100Y010283D01*
X006100Y010125D02*
X006644Y010125D01*
X006100Y009966D02*
X007754Y009966D01*
X007725Y009808D02*
X006100Y009808D01*
X006100Y009649D02*
X007725Y009649D01*
X007627Y009491D02*
X006100Y009491D01*
X006100Y009332D02*
X007473Y009332D01*
X007079Y008900D02*
X006880Y008701D01*
X006400Y008701D01*
X006044Y008345D01*
X006044Y008201D01*
X006002Y008698D02*
X005900Y008698D01*
X005900Y008857D02*
X006160Y008857D01*
X005997Y009015D02*
X006544Y009015D01*
X006568Y009174D02*
X006100Y009174D01*
X004944Y008123D02*
X004800Y008179D01*
X004944Y008123D02*
X004944Y007801D01*
X004944Y007201D02*
X002224Y007201D01*
X002224Y006401D02*
X004944Y006401D01*
X005456Y006401D02*
X006100Y006401D01*
X006100Y007101D02*
X005900Y007201D01*
X005456Y007201D01*
X007079Y007325D02*
X007100Y007346D01*
X007100Y008001D01*
X008800Y008101D02*
X008800Y005967D01*
X009373Y005395D01*
X009819Y004950D02*
X012085Y007216D01*
X012100Y007201D02*
X012100Y007201D01*
X013043Y008185D02*
X013702Y008845D01*
X013700Y009345D01*
X014077Y009174D02*
X015229Y009174D01*
X015206Y009015D02*
X013981Y009015D01*
X013982Y008857D02*
X015206Y008857D01*
X015206Y008698D02*
X013945Y008698D01*
X013940Y008687D02*
X013940Y008687D01*
X013793Y008540D02*
X014591Y008540D01*
X014433Y008381D02*
X013635Y008381D01*
X013706Y008223D02*
X014300Y008223D01*
X014276Y008064D02*
X013866Y008064D01*
X013967Y007963D02*
X013967Y007963D01*
X014025Y007906D02*
X014276Y007906D01*
X014276Y007747D02*
X014184Y007747D01*
X014190Y007741D02*
X014190Y007741D01*
X013744Y008186D02*
X013744Y008186D01*
X015108Y007925D02*
X015108Y006709D01*
X014827Y006428D01*
X014827Y006406D01*
X014806Y006406D01*
X013900Y005501D01*
X013800Y005501D01*
X014384Y004958D02*
X014742Y004601D01*
X015648Y004601D01*
X016372Y005325D01*
X017340Y005325D01*
X017564Y005549D01*
X017959Y005687D02*
X018372Y005687D01*
X018466Y005528D02*
X017982Y005528D01*
X017942Y005370D02*
X018563Y005370D01*
X018412Y005211D02*
X017818Y005211D01*
X017456Y005053D02*
X018346Y005053D01*
X018330Y004894D02*
X017456Y004894D01*
X017456Y004736D02*
X018351Y004736D01*
X018417Y004577D02*
X016021Y004577D01*
X016275Y004419D02*
X018576Y004419D01*
X018453Y004260D02*
X016275Y004260D01*
X016275Y004102D02*
X018366Y004102D01*
X018330Y003943D02*
X016275Y003943D01*
X016179Y004736D02*
X016387Y004736D01*
X016387Y004894D02*
X016338Y004894D01*
X015500Y005101D02*
X015300Y004901D01*
X014900Y004901D01*
X014619Y005181D01*
X014607Y005181D01*
X014829Y005404D02*
X014829Y005404D01*
X015026Y005602D01*
X014800Y005827D01*
X014759Y005850D01*
X014713Y005862D01*
X014665Y005862D01*
X014655Y005860D01*
X014723Y005928D01*
X014772Y005928D01*
X015277Y006435D01*
X015229Y006319D01*
X015229Y006170D01*
X015272Y006067D01*
X015206Y006000D01*
X015206Y005500D01*
X015257Y005449D01*
X015218Y005410D01*
X015026Y005602D01*
X014829Y005404D01*
X014953Y005528D02*
X014953Y005528D01*
X015099Y005528D02*
X015206Y005528D01*
X015206Y005687D02*
X014940Y005687D01*
X014768Y005845D02*
X015206Y005845D01*
X015209Y006004D02*
X014847Y006004D01*
X015005Y006162D02*
X015232Y006162D01*
X015230Y006321D02*
X015163Y006321D01*
X015604Y006245D02*
X016236Y006245D01*
X016380Y006101D01*
X018700Y006101D01*
X018900Y005901D01*
X016387Y008064D02*
X016316Y008064D01*
X016387Y008223D02*
X016158Y008223D01*
X015999Y008381D02*
X016405Y008381D01*
X016165Y008540D02*
X018468Y008540D01*
X018495Y008381D02*
X017437Y008381D01*
X017456Y008223D02*
X018596Y008223D01*
X018501Y008698D02*
X016275Y008698D01*
X016275Y008857D02*
X018611Y008857D01*
X018591Y009015D02*
X016275Y009015D01*
X014368Y009783D02*
X014231Y009726D01*
X014081Y009726D01*
X014057Y009736D01*
X014057Y009695D01*
X014045Y009649D01*
X012000Y009001D02*
X011627Y008628D01*
X011594Y008628D01*
X010800Y008501D02*
X010800Y008901D01*
X010600Y009101D01*
X010600Y009301D01*
X009700Y008295D02*
X010483Y007512D01*
X009816Y006843D02*
X010200Y006459D01*
X010200Y006301D01*
X009593Y006620D02*
X009581Y006620D01*
X009200Y007001D01*
X009200Y007201D01*
X006240Y005053D02*
X006143Y005053D01*
X006240Y004894D02*
X005900Y004894D01*
X005900Y004736D02*
X006240Y004736D01*
X006240Y004577D02*
X006006Y004577D01*
X006100Y004419D02*
X006240Y004419D01*
X006240Y004260D02*
X006100Y004260D01*
X006100Y004102D02*
X006240Y004102D01*
X006240Y003943D02*
X006100Y003943D01*
X006100Y003785D02*
X006240Y003785D01*
X006249Y003626D02*
X006100Y003626D01*
X006100Y003468D02*
X006383Y003468D01*
X006100Y003309D02*
X007745Y003309D01*
X007745Y003384D02*
X007745Y003197D01*
X007757Y003151D01*
X007781Y003110D01*
X007815Y003077D01*
X007856Y003053D01*
X007901Y003041D01*
X008256Y003041D01*
X008256Y003384D01*
X007745Y003384D01*
X007758Y003151D02*
X006100Y003151D01*
X006100Y002992D02*
X008741Y002992D01*
X008264Y003151D02*
X008256Y003151D01*
X008256Y003309D02*
X008264Y003309D01*
X009256Y004145D02*
X009600Y003801D01*
X009994Y003943D02*
X010128Y003943D01*
X010018Y003785D02*
X010287Y003785D01*
X009969Y004102D02*
X009890Y004102D01*
X009810Y004260D02*
X009594Y004260D01*
X009734Y004419D02*
X009734Y004419D01*
X009892Y004577D02*
X009892Y004577D01*
X009819Y004950D02*
X009256Y004387D01*
X009256Y004301D01*
X009256Y004145D01*
X008744Y004301D02*
X008744Y004321D01*
X008744Y004301D02*
X008300Y004301D01*
X010488Y004289D02*
X011200Y005001D01*
X011400Y005001D01*
X011200Y004601D02*
X011600Y004601D01*
X012000Y005001D01*
X011200Y004601D02*
X010711Y004112D01*
X010711Y004061D01*
X010488Y004283D02*
X010488Y004289D01*
X010934Y003839D02*
X011296Y004201D01*
X011900Y004201D01*
X010938Y003839D02*
X010934Y003839D01*
X010006Y002834D02*
X006100Y002834D01*
X006100Y002675D02*
X010006Y002675D01*
X010006Y002517D02*
X009713Y002517D01*
X009487Y002517D02*
X008713Y002517D01*
X008487Y002517D02*
X006100Y002517D01*
X006100Y002358D02*
X007250Y002358D01*
X007274Y002382D02*
X007219Y002326D01*
X007172Y002263D01*
X007137Y002193D01*
X007112Y002118D01*
X007100Y002040D01*
X007100Y002009D01*
X007591Y002009D01*
X007591Y002501D01*
X007561Y002501D01*
X007483Y002488D01*
X007408Y002464D01*
X007338Y002428D01*
X007274Y002382D01*
X007140Y002200D02*
X006100Y002200D01*
X006100Y002041D02*
X007100Y002041D01*
X007113Y001883D02*
X006100Y001883D01*
X006100Y001724D02*
X007183Y001724D01*
X007352Y001566D02*
X006100Y001566D01*
X006100Y001407D02*
X007271Y001407D01*
X007140Y001249D02*
X006100Y001249D01*
X006100Y001090D02*
X007080Y001090D01*
X007080Y000932D02*
X006100Y000932D01*
X006100Y000773D02*
X007131Y000773D01*
X007251Y000615D02*
X006100Y000615D01*
X006106Y000456D02*
X018538Y000456D01*
X016954Y000615D02*
X009949Y000615D01*
X010069Y000773D02*
X016775Y000773D01*
X013831Y002257D02*
X013728Y002153D01*
X013154Y002200D02*
X012846Y002200D01*
X012846Y002041D02*
X013154Y002041D01*
X013154Y001883D02*
X012846Y001883D01*
X012272Y001385D02*
X011900Y001757D01*
X011400Y001757D01*
X011400Y002301D01*
X011068Y002041D02*
X010857Y002041D01*
X010889Y001883D02*
X011023Y001883D01*
X011023Y001724D02*
X010889Y001724D01*
X010532Y001768D02*
X010352Y001772D01*
X010344Y002701D01*
X010067Y002358D02*
X009978Y002358D01*
X009600Y002001D02*
X010215Y001177D01*
X010532Y001177D01*
X010889Y001249D02*
X011043Y001249D01*
X011043Y001407D02*
X010889Y001407D01*
X010889Y001566D02*
X011023Y001566D01*
X011400Y001245D02*
X011400Y001245D01*
X011400Y000927D01*
X011400Y001245D01*
X011400Y001090D02*
X011400Y001090D01*
X011400Y000932D02*
X011400Y000932D01*
X011618Y000932D02*
X011714Y000932D01*
X011182Y000932D02*
X010884Y000932D01*
X010889Y001090D02*
X011043Y001090D01*
X010120Y000908D02*
X010120Y000908D01*
X009251Y000615D02*
X008949Y000615D01*
X009069Y000773D02*
X009131Y000773D01*
X008251Y000615D02*
X007949Y000615D01*
X008069Y000773D02*
X008131Y000773D01*
X007609Y002041D02*
X007591Y002041D01*
X007591Y002200D02*
X007609Y002200D01*
X007609Y002358D02*
X007591Y002358D01*
X007950Y002358D02*
X008222Y002358D01*
X008120Y002200D02*
X008060Y002200D01*
X008978Y002358D02*
X009222Y002358D01*
X009120Y002200D02*
X009080Y002200D01*
X010628Y002200D02*
X010989Y002200D01*
X012272Y001385D02*
X012272Y001248D01*
X013900Y003601D02*
X013900Y003661D01*
X013495Y004066D01*
X013940Y004512D02*
X014200Y004252D01*
X014200Y004001D01*
X014300Y003901D01*
X014900Y003901D01*
X014600Y004301D02*
X014596Y004301D01*
X014162Y004735D01*
X014297Y006321D02*
X014297Y006321D01*
X014455Y006479D02*
X014455Y006479D01*
X014381Y006838D02*
X014060Y006517D01*
X013732Y006517D01*
X013668Y006581D01*
X014381Y006838D02*
X014381Y006851D01*
X014158Y007073D02*
X014158Y007087D01*
X013909Y011234D02*
X013831Y011234D01*
X013705Y011551D02*
X013701Y011551D01*
X012300Y012201D02*
X012126Y012375D01*
X011812Y012375D01*
X011376Y012344D02*
X011224Y012344D01*
X011224Y012185D02*
X011376Y012185D01*
X010788Y011627D02*
X010762Y011601D01*
X009851Y011601D01*
X009844Y011594D01*
X008807Y011234D02*
X008691Y011234D01*
D30*
X010600Y009301D03*
X010400Y008601D03*
X009300Y007801D03*
X009200Y007201D03*
X010200Y006301D03*
X010800Y006501D03*
X011400Y007401D03*
X012000Y009001D03*
X008100Y008701D03*
X007100Y008001D03*
X006100Y007101D03*
X006100Y006401D03*
X005900Y005401D03*
X008300Y004301D03*
X009600Y003801D03*
X011400Y005001D03*
X012000Y005001D03*
X011800Y005501D03*
X012700Y005501D03*
X011900Y004201D03*
X013900Y003601D03*
X012100Y002801D03*
X011400Y002301D03*
X015500Y005101D03*
X017564Y005549D03*
D31*
X013900Y005501D02*
X012500Y004101D01*
X012500Y003725D01*
X012828Y003396D01*
X012606Y003173D02*
X012300Y003479D01*
X012300Y004301D01*
X012900Y004901D01*
X012900Y005101D01*
X012700Y005301D01*
X012700Y005501D01*
X010800Y006301D02*
X010800Y006501D01*
X010800Y006301D02*
X010300Y005801D01*
X009867Y005901D01*
X009371Y006397D01*
X009596Y005172D02*
X009224Y004801D01*
X009000Y004801D01*
X008744Y004545D01*
X008744Y004321D01*
X008800Y003701D02*
X006500Y003701D01*
X006500Y008201D01*
X006556Y008201D01*
X006044Y008201D02*
X005644Y007801D01*
X005456Y007801D01*
X002224Y007201D02*
X002218Y007194D01*
X002218Y006407D02*
X002224Y006401D01*
X008800Y003701D02*
X008900Y003601D01*
X008900Y003201D01*
X010856Y002701D02*
X011133Y002701D01*
X011604Y003172D01*
X011381Y003394D02*
X011187Y003201D01*
D32*
X015068Y005717D03*
X015604Y006245D03*
X013668Y006581D03*
X015108Y007925D03*
X014348Y008685D03*
X014156Y010101D03*
X018156Y007789D03*
X018300Y005389D03*
D33*
X014900Y003901D03*
X014600Y004301D03*
D34*
X011157Y003616D02*
X010942Y003401D01*
X009200Y003401D01*
X009100Y003501D01*
X009100Y003701D01*
X008900Y003901D01*
X008000Y003901D01*
X007700Y004101D01*
X007700Y009227D01*
X008260Y009687D01*
X008900Y003201D02*
X011187Y003201D01*
M02*
