G75*
G70*
%OFA0B0*%
%FSLAX24Y24*%
%IPPOS*%
%LPD*%
%AMOC8*
5,1,8,0,0,1.08239X$1,22.5*
%
%ADD10C,0.0000*%
%ADD11R,0.0354X0.0276*%
%ADD12R,0.0630X0.0551*%
%ADD13R,0.0276X0.0354*%
%ADD14R,0.0315X0.0315*%
%ADD15R,0.0591X0.0197*%
%ADD16R,0.0197X0.0591*%
%ADD17R,0.0748X0.0433*%
%ADD18R,0.0394X0.0709*%
%ADD19R,0.0217X0.0472*%
%ADD20C,0.0640*%
%ADD21R,0.0118X0.0315*%
%ADD22R,0.0945X0.0866*%
%ADD23R,0.0512X0.0335*%
%ADD24R,0.0787X0.0591*%
%ADD25R,0.0787X0.1496*%
%ADD26C,0.0740*%
%ADD27C,0.0120*%
%ADD28C,0.0350*%
%ADD29C,0.0100*%
%ADD30C,0.0160*%
%ADD31C,0.0240*%
D10*
X000160Y000476D02*
X009660Y000476D01*
X009660Y013876D01*
X000160Y013876D01*
X000160Y000476D01*
D11*
X000960Y005820D03*
X000960Y006332D03*
X005860Y001932D03*
X005860Y001420D03*
X009160Y001320D03*
X009160Y001832D03*
X008160Y007920D03*
X008160Y008432D03*
X006860Y009920D03*
X006860Y010432D03*
D12*
X007760Y010428D03*
X007760Y009325D03*
X001760Y006928D03*
X001760Y005825D03*
D13*
X001904Y007676D03*
X001904Y008176D03*
X002416Y008176D03*
X002416Y007676D03*
X003004Y008776D03*
X003004Y009276D03*
X003516Y009276D03*
X003516Y008776D03*
X003116Y004076D03*
X002604Y004076D03*
X006904Y011376D03*
X007416Y011376D03*
X008604Y004476D03*
X008604Y003976D03*
X008604Y003476D03*
X008604Y002976D03*
X009116Y002976D03*
X009116Y003476D03*
X009116Y003976D03*
X009116Y004476D03*
D14*
X008555Y011376D03*
X007965Y011376D03*
D15*
G36*
X005093Y008627D02*
X004676Y009042D01*
X004815Y009181D01*
X005232Y008766D01*
X005093Y008627D01*
G37*
G36*
X004871Y008404D02*
X004454Y008819D01*
X004593Y008958D01*
X005010Y008543D01*
X004871Y008404D01*
G37*
G36*
X004648Y008180D02*
X004231Y008595D01*
X004370Y008734D01*
X004787Y008319D01*
X004648Y008180D01*
G37*
G36*
X004426Y007957D02*
X004009Y008372D01*
X004148Y008511D01*
X004565Y008096D01*
X004426Y007957D01*
G37*
G36*
X004204Y007734D02*
X003787Y008149D01*
X003926Y008288D01*
X004343Y007873D01*
X004204Y007734D01*
G37*
G36*
X003982Y007511D02*
X003565Y007926D01*
X003704Y008065D01*
X004121Y007650D01*
X003982Y007511D01*
G37*
G36*
X003759Y007288D02*
X003342Y007703D01*
X003481Y007842D01*
X003898Y007427D01*
X003759Y007288D01*
G37*
G36*
X003537Y007065D02*
X003120Y007480D01*
X003259Y007619D01*
X003676Y007204D01*
X003537Y007065D01*
G37*
G36*
X003315Y006842D02*
X002898Y007257D01*
X003037Y007396D01*
X003454Y006981D01*
X003315Y006842D01*
G37*
G36*
X003092Y006619D02*
X002675Y007034D01*
X002814Y007173D01*
X003231Y006758D01*
X003092Y006619D01*
G37*
G36*
X002870Y006396D02*
X002453Y006811D01*
X002592Y006950D01*
X003009Y006535D01*
X002870Y006396D01*
G37*
G36*
X006105Y003172D02*
X005688Y003587D01*
X005827Y003726D01*
X006244Y003311D01*
X006105Y003172D01*
G37*
G36*
X006327Y003395D02*
X005910Y003810D01*
X006049Y003949D01*
X006466Y003534D01*
X006327Y003395D01*
G37*
G36*
X006550Y003618D02*
X006133Y004033D01*
X006272Y004172D01*
X006689Y003757D01*
X006550Y003618D01*
G37*
G36*
X006772Y003841D02*
X006355Y004256D01*
X006494Y004395D01*
X006911Y003980D01*
X006772Y003841D01*
G37*
G36*
X006994Y004064D02*
X006577Y004479D01*
X006716Y004618D01*
X007133Y004203D01*
X006994Y004064D01*
G37*
G36*
X007216Y004288D02*
X006799Y004703D01*
X006938Y004842D01*
X007355Y004427D01*
X007216Y004288D01*
G37*
G36*
X007439Y004511D02*
X007022Y004926D01*
X007161Y005065D01*
X007578Y004650D01*
X007439Y004511D01*
G37*
G36*
X007661Y004734D02*
X007244Y005149D01*
X007383Y005288D01*
X007800Y004873D01*
X007661Y004734D01*
G37*
G36*
X007883Y004957D02*
X007466Y005372D01*
X007605Y005511D01*
X008022Y005096D01*
X007883Y004957D01*
G37*
G36*
X008106Y005180D02*
X007689Y005595D01*
X007828Y005734D01*
X008245Y005319D01*
X008106Y005180D01*
G37*
G36*
X008328Y005403D02*
X007911Y005818D01*
X008050Y005957D01*
X008467Y005542D01*
X008328Y005403D01*
G37*
D16*
G36*
X008049Y006404D02*
X007910Y006543D01*
X008325Y006960D01*
X008464Y006821D01*
X008049Y006404D01*
G37*
G36*
X007826Y006627D02*
X007687Y006766D01*
X008102Y007183D01*
X008241Y007044D01*
X007826Y006627D01*
G37*
G36*
X007603Y006849D02*
X007464Y006988D01*
X007879Y007405D01*
X008018Y007266D01*
X007603Y006849D01*
G37*
G36*
X007380Y007071D02*
X007241Y007210D01*
X007656Y007627D01*
X007795Y007488D01*
X007380Y007071D01*
G37*
G36*
X007157Y007294D02*
X007018Y007433D01*
X007433Y007850D01*
X007572Y007711D01*
X007157Y007294D01*
G37*
G36*
X006934Y007516D02*
X006795Y007655D01*
X007210Y008072D01*
X007349Y007933D01*
X006934Y007516D01*
G37*
G36*
X006711Y007738D02*
X006572Y007877D01*
X006987Y008294D01*
X007126Y008155D01*
X006711Y007738D01*
G37*
G36*
X006488Y007960D02*
X006349Y008099D01*
X006764Y008516D01*
X006903Y008377D01*
X006488Y007960D01*
G37*
G36*
X006265Y008183D02*
X006126Y008322D01*
X006541Y008739D01*
X006680Y008600D01*
X006265Y008183D01*
G37*
G36*
X006041Y008405D02*
X005902Y008544D01*
X006317Y008961D01*
X006456Y008822D01*
X006041Y008405D01*
G37*
G36*
X005818Y008627D02*
X005679Y008766D01*
X006094Y009183D01*
X006233Y009044D01*
X005818Y008627D01*
G37*
G36*
X003264Y004726D02*
X003125Y004865D01*
X003540Y005282D01*
X003679Y005143D01*
X003264Y004726D01*
G37*
G36*
X003487Y004503D02*
X003348Y004642D01*
X003763Y005059D01*
X003902Y004920D01*
X003487Y004503D01*
G37*
G36*
X003710Y004281D02*
X003571Y004420D01*
X003986Y004837D01*
X004125Y004698D01*
X003710Y004281D01*
G37*
G36*
X003933Y004059D02*
X003794Y004198D01*
X004209Y004615D01*
X004348Y004476D01*
X003933Y004059D01*
G37*
G36*
X004156Y003836D02*
X004017Y003975D01*
X004432Y004392D01*
X004571Y004253D01*
X004156Y003836D01*
G37*
G36*
X004379Y003614D02*
X004240Y003753D01*
X004655Y004170D01*
X004794Y004031D01*
X004379Y003614D01*
G37*
G36*
X004603Y003392D02*
X004464Y003531D01*
X004879Y003948D01*
X005018Y003809D01*
X004603Y003392D01*
G37*
G36*
X004826Y003169D02*
X004687Y003308D01*
X005102Y003725D01*
X005241Y003586D01*
X004826Y003169D01*
G37*
G36*
X003041Y004948D02*
X002902Y005087D01*
X003317Y005504D01*
X003456Y005365D01*
X003041Y004948D01*
G37*
G36*
X002818Y005170D02*
X002679Y005309D01*
X003094Y005726D01*
X003233Y005587D01*
X002818Y005170D01*
G37*
G36*
X002595Y005392D02*
X002456Y005531D01*
X002871Y005948D01*
X003010Y005809D01*
X002595Y005392D01*
G37*
D17*
X006732Y002229D03*
X006732Y001324D03*
X008188Y001324D03*
X008188Y002229D03*
D18*
X006111Y009876D03*
X005009Y009876D03*
D19*
X001934Y004988D03*
X001934Y003965D03*
X001560Y003965D03*
X001186Y003965D03*
X001186Y004988D03*
D20*
X006960Y012276D03*
X006960Y013276D03*
X007960Y013276D03*
X007960Y012276D03*
X008960Y012276D03*
X008960Y013276D03*
D21*
X004746Y011392D03*
X004549Y011392D03*
X004352Y011392D03*
X004155Y011392D03*
X003958Y011392D03*
X003762Y011392D03*
X003565Y011392D03*
X003368Y011392D03*
X003171Y011392D03*
X002974Y011392D03*
D22*
X002010Y012022D03*
X005710Y012022D03*
D23*
X005494Y012622D03*
X002226Y012622D03*
D24*
X002320Y003082D03*
X002320Y002176D03*
X002320Y001271D03*
D25*
X004800Y002176D03*
D26*
X000860Y002076D03*
X000860Y003076D03*
D27*
X001008Y002586D02*
X001149Y002644D01*
X001292Y002787D01*
X001304Y002816D01*
X001786Y002816D01*
X001786Y002729D01*
X001868Y002647D01*
X002772Y002647D01*
X002854Y002729D01*
X002854Y003435D01*
X002802Y003486D01*
X002907Y003486D01*
X002928Y003473D01*
X002940Y003476D01*
X002940Y001667D01*
X002854Y001581D01*
X002854Y001624D01*
X002772Y001706D01*
X001868Y001706D01*
X001786Y001624D01*
X001786Y000918D01*
X001868Y000836D01*
X002772Y000836D01*
X002854Y000918D01*
X002854Y001051D01*
X002946Y001051D01*
X003251Y001356D01*
X003380Y001485D01*
X003380Y003828D01*
X003394Y003841D01*
X003394Y004312D01*
X003336Y004369D01*
X003336Y004412D01*
X003080Y004667D01*
X003080Y004682D01*
X003081Y004681D01*
X003165Y004597D01*
X003202Y004576D01*
X003219Y004571D01*
X003429Y004362D01*
X003430Y004362D01*
X003430Y004361D01*
X003652Y004140D01*
X003653Y004140D01*
X003653Y004139D01*
X003875Y003918D01*
X003876Y003918D01*
X003876Y003916D01*
X004098Y003696D01*
X004099Y003696D01*
X004099Y003694D01*
X004321Y003473D01*
X004323Y003473D01*
X004323Y003472D01*
X004544Y003251D01*
X004546Y003251D01*
X004546Y003249D01*
X004711Y003084D01*
X004385Y003084D01*
X004345Y003073D01*
X004308Y003052D01*
X004278Y003023D01*
X004257Y002986D01*
X004246Y002945D01*
X004246Y002236D01*
X004740Y002236D01*
X004740Y002116D01*
X004860Y002116D01*
X004860Y001268D01*
X005215Y001268D01*
X005256Y001279D01*
X005292Y001300D01*
X005322Y001330D01*
X005343Y001367D01*
X005354Y001407D01*
X005354Y002116D01*
X004860Y002116D01*
X004860Y002236D01*
X005354Y002236D01*
X005354Y002945D01*
X005347Y002971D01*
X005438Y003009D01*
X005527Y003098D01*
X005575Y003214D01*
X005575Y003339D01*
X005527Y003455D01*
X005438Y003543D01*
X005382Y003567D01*
X005382Y003645D01*
X005183Y003843D01*
X005639Y004299D01*
X005640Y004300D01*
X005640Y003909D01*
X005711Y003838D01*
X005643Y003770D01*
X005559Y003686D01*
X005538Y003649D01*
X005527Y003609D01*
X005527Y003566D01*
X005538Y003526D01*
X005559Y003489D01*
X005783Y003266D01*
X005966Y003449D01*
X006288Y003128D01*
X005966Y003449D01*
X005966Y003449D01*
X005783Y003266D01*
X006008Y003043D01*
X006044Y003022D01*
X006057Y003018D01*
X005993Y002955D01*
X005945Y002839D01*
X005945Y002782D01*
X005923Y002791D01*
X005797Y002791D01*
X005682Y002743D01*
X005593Y002655D01*
X005545Y002539D01*
X005545Y002414D01*
X005593Y002298D01*
X005660Y002231D01*
X005660Y002210D01*
X005625Y002210D01*
X005543Y002128D01*
X005543Y001736D01*
X005590Y001689D01*
X005585Y001686D01*
X005555Y001656D01*
X005534Y001620D01*
X005523Y001579D01*
X005523Y001429D01*
X005851Y001429D01*
X005851Y001412D01*
X005523Y001412D01*
X005523Y001262D01*
X005534Y001221D01*
X005555Y001184D01*
X005585Y001155D01*
X005621Y001134D01*
X005662Y001123D01*
X005851Y001123D01*
X005851Y001412D01*
X005869Y001412D01*
X005869Y001429D01*
X006197Y001429D01*
X006197Y001576D01*
X006218Y001576D01*
X006218Y001049D01*
X006300Y000967D01*
X007164Y000967D01*
X007246Y001049D01*
X007246Y001598D01*
X007164Y001680D01*
X006739Y001680D01*
X006547Y001873D01*
X007164Y001873D01*
X007246Y001955D01*
X007246Y002504D01*
X007164Y002586D01*
X006515Y002586D01*
X006515Y002586D01*
X007562Y002586D01*
X007674Y002474D01*
X007674Y001955D01*
X007756Y001873D01*
X008262Y001873D01*
X008385Y001749D01*
X008454Y001680D01*
X007756Y001680D01*
X007674Y001598D01*
X007674Y001049D01*
X007756Y000967D01*
X008620Y000967D01*
X008702Y001049D01*
X008702Y001598D01*
X008668Y001632D01*
X008847Y001632D01*
X008890Y001589D01*
X008885Y001586D01*
X008855Y001556D01*
X008834Y001520D01*
X008823Y001479D01*
X008823Y001329D01*
X009151Y001329D01*
X009151Y001312D01*
X008823Y001312D01*
X008823Y001162D01*
X008834Y001121D01*
X008855Y001084D01*
X008885Y001055D01*
X008921Y001034D01*
X008962Y001023D01*
X009151Y001023D01*
X009151Y001312D01*
X009169Y001312D01*
X009169Y001329D01*
X009497Y001329D01*
X009497Y001479D01*
X009486Y001520D01*
X009465Y001556D01*
X009435Y001586D01*
X009430Y001589D01*
X009477Y001636D01*
X009477Y002028D01*
X009395Y002110D01*
X008925Y002110D01*
X008847Y002032D01*
X008702Y002032D01*
X008702Y002386D01*
X009039Y002386D01*
X009239Y002586D01*
X009312Y002659D01*
X009394Y002741D01*
X009394Y003212D01*
X009379Y003226D01*
X009394Y003241D01*
X009394Y003712D01*
X009379Y003726D01*
X009394Y003741D01*
X009394Y004212D01*
X009379Y004226D01*
X009394Y004241D01*
X009394Y004712D01*
X009312Y004794D01*
X009250Y004794D01*
X009250Y004855D01*
X009139Y004966D01*
X009039Y005066D01*
X008192Y005066D01*
X008373Y005248D01*
X008391Y005253D01*
X008427Y005274D01*
X008512Y005359D01*
X008596Y005443D01*
X008617Y005480D01*
X008628Y005521D01*
X008628Y005563D01*
X008617Y005603D01*
X008596Y005640D01*
X008371Y005863D01*
X008147Y006086D01*
X008111Y006107D01*
X008070Y006118D01*
X008028Y006118D01*
X007987Y006107D01*
X007968Y006096D01*
X007975Y006114D01*
X007975Y006180D01*
X007980Y006185D01*
X007980Y006185D01*
X008058Y006264D01*
X008107Y006264D01*
X008606Y006764D01*
X008605Y006880D01*
X008396Y007089D01*
X008391Y007106D01*
X008370Y007143D01*
X008286Y007227D01*
X007964Y006905D01*
X008286Y007227D01*
X008201Y007311D01*
X008164Y007332D01*
X008147Y007337D01*
X007938Y007546D01*
X007936Y007546D01*
X007936Y007547D01*
X007782Y007700D01*
X007867Y007700D01*
X007925Y007643D01*
X008395Y007643D01*
X008477Y007725D01*
X008477Y008116D01*
X008430Y008163D01*
X008435Y008166D01*
X008465Y008196D01*
X008486Y008233D01*
X008497Y008273D01*
X008497Y008423D01*
X008169Y008423D01*
X008169Y008441D01*
X008497Y008441D01*
X008497Y008591D01*
X008486Y008632D01*
X008465Y008668D01*
X008435Y008698D01*
X008399Y008719D01*
X008358Y008730D01*
X008169Y008730D01*
X008169Y008441D01*
X008151Y008441D01*
X008151Y008423D01*
X007823Y008423D01*
X007823Y008273D01*
X007834Y008233D01*
X007855Y008196D01*
X007885Y008166D01*
X007890Y008163D01*
X007887Y008160D01*
X007051Y008996D01*
X006627Y008996D01*
X006569Y008938D01*
X006501Y009006D01*
X006416Y009090D01*
X006380Y009111D01*
X006362Y009116D01*
X006331Y009146D01*
X006331Y009382D01*
X006366Y009382D01*
X006448Y009464D01*
X006448Y010253D01*
X006451Y010256D01*
X006543Y010256D01*
X006543Y010236D01*
X006590Y010189D01*
X006585Y010186D01*
X006555Y010156D01*
X006534Y010120D01*
X006523Y010079D01*
X006523Y009929D01*
X006851Y009929D01*
X006851Y009912D01*
X006523Y009912D01*
X006523Y009762D01*
X006534Y009721D01*
X006555Y009684D01*
X006585Y009655D01*
X006621Y009634D01*
X006662Y009623D01*
X006851Y009623D01*
X006851Y009912D01*
X006869Y009912D01*
X006869Y009929D01*
X007197Y009929D01*
X007197Y010079D01*
X007186Y010120D01*
X007165Y010156D01*
X007135Y010186D01*
X007130Y010189D01*
X007173Y010232D01*
X007305Y010232D01*
X007305Y010094D01*
X007387Y010012D01*
X008133Y010012D01*
X008215Y010094D01*
X008215Y010761D01*
X008133Y010843D01*
X007387Y010843D01*
X007305Y010761D01*
X007305Y010632D01*
X007173Y010632D01*
X007104Y010701D01*
X007104Y011063D01*
X007160Y011119D01*
X007220Y011059D01*
X007612Y011059D01*
X007690Y011138D01*
X007749Y011079D01*
X008180Y011079D01*
X008252Y011151D01*
X008270Y011121D01*
X008300Y011091D01*
X008336Y011070D01*
X008377Y011059D01*
X008537Y011059D01*
X008537Y011358D01*
X008574Y011358D01*
X008574Y011395D01*
X009500Y011395D01*
X009500Y011513D02*
X008873Y011513D01*
X008873Y011555D02*
X008862Y011596D01*
X008841Y011632D01*
X009500Y011632D01*
X009500Y011750D02*
X007517Y011750D01*
X007460Y011694D02*
X007660Y011894D01*
X007660Y011926D01*
X007699Y011886D01*
X007868Y011816D01*
X008051Y011816D01*
X008221Y011886D01*
X008350Y012016D01*
X008420Y012185D01*
X008420Y012368D01*
X008350Y012537D01*
X008311Y012576D01*
X008543Y012576D01*
X008660Y012694D01*
X008808Y012841D01*
X008868Y012816D01*
X009051Y012816D01*
X009221Y012886D01*
X009350Y013016D01*
X009420Y013185D01*
X009420Y013368D01*
X009350Y013537D01*
X009221Y013666D01*
X009100Y013716D01*
X009500Y013716D01*
X009500Y000636D01*
X000320Y000636D01*
X000320Y013716D01*
X006766Y013716D01*
X006708Y013687D01*
X006647Y013642D01*
X006594Y013589D01*
X006549Y013528D01*
X000320Y013528D01*
X000320Y013646D02*
X006653Y013646D01*
X006549Y013528D02*
X006515Y013461D01*
X006492Y013389D01*
X006480Y013314D01*
X006480Y013305D01*
X006931Y013305D01*
X006931Y013248D01*
X006480Y013248D01*
X006480Y013239D01*
X006492Y013164D01*
X006515Y013092D01*
X006549Y013025D01*
X006594Y012964D01*
X006647Y012910D01*
X006708Y012866D01*
X006776Y012832D01*
X006848Y012808D01*
X006922Y012796D01*
X006931Y012796D01*
X006931Y013248D01*
X006989Y013248D01*
X006989Y013305D01*
X007440Y013305D01*
X007440Y013314D01*
X007428Y013389D01*
X007405Y013461D01*
X007371Y013528D01*
X007566Y013528D01*
X007570Y013537D02*
X007500Y013368D01*
X007500Y013185D01*
X007570Y013016D01*
X007609Y012976D01*
X007477Y012976D01*
X007377Y012876D01*
X007260Y012759D01*
X007260Y012627D01*
X007221Y012666D01*
X007051Y012736D01*
X006868Y012736D01*
X006699Y012666D01*
X006570Y012537D01*
X006500Y012368D01*
X006500Y012185D01*
X006570Y012016D01*
X006699Y011886D01*
X006832Y011831D01*
X006777Y011776D01*
X006660Y011659D01*
X006660Y011645D01*
X006626Y011612D01*
X006626Y011141D01*
X006704Y011063D01*
X006704Y010710D01*
X006625Y010710D01*
X006611Y010696D01*
X006269Y010696D01*
X006140Y010567D01*
X005943Y010371D01*
X005856Y010371D01*
X005774Y010289D01*
X005774Y009464D01*
X005856Y009382D01*
X005891Y009382D01*
X005891Y009178D01*
X005538Y008824D01*
X005538Y008766D01*
X005440Y008667D01*
X005440Y008385D01*
X005952Y007873D01*
X005882Y007843D01*
X005793Y007755D01*
X005760Y007675D01*
X005727Y007755D01*
X005638Y007843D01*
X005523Y007891D01*
X005397Y007891D01*
X005282Y007843D01*
X005193Y007755D01*
X005160Y007676D01*
X005123Y007691D01*
X004997Y007691D01*
X004978Y007683D01*
X005280Y007985D01*
X005280Y008444D01*
X005195Y008529D01*
X005373Y008707D01*
X005373Y008823D01*
X004872Y009322D01*
X004756Y009322D01*
X004680Y009245D01*
X004680Y009285D01*
X004777Y009382D01*
X005264Y009382D01*
X005346Y009464D01*
X005346Y010289D01*
X005264Y010371D01*
X004966Y010371D01*
X004966Y011483D01*
X004945Y011504D01*
X004945Y011608D01*
X004863Y011690D01*
X004739Y011690D01*
X004739Y011786D01*
X004797Y011761D01*
X004923Y011761D01*
X005038Y011809D01*
X005098Y011869D01*
X005098Y011531D01*
X005180Y011449D01*
X006241Y011449D01*
X006323Y011531D01*
X006323Y012513D01*
X006241Y012595D01*
X005890Y012595D01*
X005890Y012848D01*
X005808Y012930D01*
X005180Y012930D01*
X005098Y012848D01*
X005098Y012284D01*
X005038Y012343D01*
X004923Y012391D01*
X004797Y012391D01*
X004775Y012382D01*
X004775Y012439D01*
X004727Y012555D01*
X004638Y012643D01*
X004523Y012691D01*
X004475Y012691D01*
X004475Y012739D01*
X004427Y012855D01*
X004338Y012943D01*
X004223Y012991D01*
X004175Y012991D01*
X004175Y013039D01*
X004127Y013155D01*
X004038Y013243D01*
X003923Y013291D01*
X003797Y013291D01*
X003682Y013243D01*
X003593Y013155D01*
X003545Y013039D01*
X003545Y012914D01*
X003593Y012798D01*
X003670Y012721D01*
X003670Y012435D01*
X003650Y012455D01*
X003650Y012555D01*
X003475Y012730D01*
X003475Y012839D01*
X003427Y012955D01*
X003338Y013043D01*
X003223Y013091D01*
X003097Y013091D01*
X002982Y013043D01*
X002893Y012955D01*
X002845Y012839D01*
X002845Y012714D01*
X002893Y012598D01*
X002982Y012509D01*
X003097Y012461D01*
X002622Y012461D01*
X002622Y012343D02*
X003270Y012343D01*
X003270Y012298D02*
X003381Y012186D01*
X003572Y011996D01*
X003572Y011690D01*
X003308Y011690D01*
X003292Y011699D01*
X003251Y011710D01*
X003171Y011710D01*
X003091Y011710D01*
X003050Y011699D01*
X003034Y011690D01*
X002857Y011690D01*
X002775Y011608D01*
X002775Y011504D01*
X002754Y011483D01*
X002754Y011382D01*
X002369Y010996D01*
X001269Y010996D01*
X000469Y010196D01*
X000340Y010067D01*
X000340Y003285D01*
X000379Y003247D01*
X000350Y003178D01*
X000350Y002975D01*
X000428Y002787D01*
X000571Y002644D01*
X000712Y002586D01*
X000657Y002568D01*
X000582Y002530D01*
X000515Y002481D01*
X000456Y002422D01*
X000407Y002354D01*
X000369Y002280D01*
X000343Y002200D01*
X000330Y002118D01*
X000330Y002116D01*
X000820Y002116D01*
X000820Y002036D01*
X000900Y002036D01*
X000900Y001546D01*
X000902Y001546D01*
X000984Y001559D01*
X001786Y001559D01*
X001786Y001441D02*
X000320Y001441D01*
X000320Y001559D02*
X000736Y001559D01*
X000818Y001546D01*
X000820Y001546D01*
X000820Y002036D01*
X000330Y002036D01*
X000330Y002035D01*
X000343Y001952D01*
X000369Y001873D01*
X000407Y001799D01*
X000456Y001731D01*
X000515Y001672D01*
X000582Y001623D01*
X000657Y001585D01*
X000736Y001559D01*
X000820Y001559D02*
X000900Y001559D01*
X000984Y001559D02*
X001063Y001585D01*
X001138Y001623D01*
X001205Y001672D01*
X001264Y001731D01*
X001313Y001799D01*
X001351Y001873D01*
X001377Y001952D01*
X001390Y002035D01*
X001390Y002036D01*
X000900Y002036D01*
X000900Y002116D01*
X001390Y002116D01*
X001390Y002118D01*
X001377Y002200D01*
X001351Y002280D01*
X001313Y002354D01*
X001264Y002422D01*
X001205Y002481D01*
X001138Y002530D01*
X001063Y002568D01*
X001008Y002586D01*
X001105Y002626D02*
X001884Y002626D01*
X001864Y002621D02*
X001828Y002600D01*
X001798Y002570D01*
X001777Y002533D01*
X001766Y002493D01*
X001766Y002236D01*
X002260Y002236D01*
X002260Y002116D01*
X002380Y002116D01*
X002380Y001721D01*
X002735Y001721D01*
X002775Y001732D01*
X002812Y001753D01*
X002842Y001783D01*
X002863Y001819D01*
X002874Y001860D01*
X002874Y002116D01*
X002380Y002116D01*
X002380Y002236D01*
X002874Y002236D01*
X002874Y002493D01*
X002863Y002533D01*
X002842Y002570D01*
X002812Y002600D01*
X002775Y002621D01*
X002735Y002632D01*
X002380Y002632D01*
X002380Y002236D01*
X002260Y002236D01*
X002260Y002632D01*
X001905Y002632D01*
X001864Y002621D01*
X001786Y002744D02*
X001249Y002744D01*
X001168Y002507D02*
X001770Y002507D01*
X001766Y002389D02*
X001288Y002389D01*
X001354Y002270D02*
X001766Y002270D01*
X001766Y002116D02*
X001766Y001860D01*
X001777Y001819D01*
X001798Y001783D01*
X001828Y001753D01*
X001864Y001732D01*
X001905Y001721D01*
X002260Y001721D01*
X002260Y002116D01*
X001766Y002116D01*
X001766Y002033D02*
X001390Y002033D01*
X001385Y002152D02*
X002260Y002152D01*
X002260Y002270D02*
X002380Y002270D01*
X002380Y002152D02*
X002940Y002152D01*
X002940Y002270D02*
X002874Y002270D01*
X002874Y002389D02*
X002940Y002389D01*
X002940Y002507D02*
X002870Y002507D01*
X002940Y002626D02*
X002756Y002626D01*
X002854Y002744D02*
X002940Y002744D01*
X002940Y002863D02*
X002854Y002863D01*
X002854Y002981D02*
X002940Y002981D01*
X002940Y003100D02*
X002854Y003100D01*
X002854Y003218D02*
X002940Y003218D01*
X002940Y003337D02*
X002854Y003337D01*
X002833Y003455D02*
X002940Y003455D01*
X003380Y003455D02*
X004339Y003455D01*
X004458Y003337D02*
X003380Y003337D01*
X003380Y003218D02*
X004577Y003218D01*
X004696Y003100D02*
X003380Y003100D01*
X003380Y002981D02*
X004256Y002981D01*
X004246Y002863D02*
X003380Y002863D01*
X003380Y002744D02*
X004246Y002744D01*
X004246Y002626D02*
X003380Y002626D01*
X003380Y002507D02*
X004246Y002507D01*
X004246Y002389D02*
X003380Y002389D01*
X003380Y002270D02*
X004246Y002270D01*
X004246Y002116D02*
X004246Y001407D01*
X004257Y001367D01*
X004278Y001330D01*
X004308Y001300D01*
X004345Y001279D01*
X004385Y001268D01*
X004740Y001268D01*
X004740Y002116D01*
X004246Y002116D01*
X004246Y002033D02*
X003380Y002033D01*
X003380Y001915D02*
X004246Y001915D01*
X004246Y001796D02*
X003380Y001796D01*
X003380Y001678D02*
X004246Y001678D01*
X004246Y001559D02*
X003380Y001559D01*
X003336Y001441D02*
X004246Y001441D01*
X004286Y001322D02*
X003217Y001322D01*
X003099Y001204D02*
X005544Y001204D01*
X005523Y001322D02*
X005314Y001322D01*
X005354Y001441D02*
X005523Y001441D01*
X005523Y001559D02*
X005354Y001559D01*
X005354Y001678D02*
X005576Y001678D01*
X005543Y001796D02*
X005354Y001796D01*
X005354Y001915D02*
X005543Y001915D01*
X005543Y002033D02*
X005354Y002033D01*
X005354Y002270D02*
X005620Y002270D01*
X005567Y002152D02*
X004860Y002152D01*
X004860Y002033D02*
X004740Y002033D01*
X004740Y001915D02*
X004860Y001915D01*
X004860Y001796D02*
X004740Y001796D01*
X004740Y001678D02*
X004860Y001678D01*
X004860Y001559D02*
X004740Y001559D01*
X004740Y001441D02*
X004860Y001441D01*
X004860Y001322D02*
X004740Y001322D01*
X004740Y002152D02*
X003380Y002152D01*
X002940Y002033D02*
X002874Y002033D01*
X002874Y001915D02*
X002940Y001915D01*
X002940Y001796D02*
X002849Y001796D01*
X002800Y001678D02*
X002940Y001678D01*
X002980Y001085D02*
X006218Y001085D01*
X006135Y001155D02*
X006165Y001184D01*
X006186Y001221D01*
X006197Y001262D01*
X006197Y001412D01*
X005869Y001412D01*
X005869Y001123D01*
X006058Y001123D01*
X006099Y001134D01*
X006135Y001155D01*
X006176Y001204D02*
X006218Y001204D01*
X006218Y001322D02*
X006197Y001322D01*
X006197Y001441D02*
X006218Y001441D01*
X006218Y001559D02*
X006197Y001559D01*
X006360Y001776D02*
X006732Y001405D01*
X006732Y001324D01*
X006623Y001796D02*
X008338Y001796D01*
X008585Y001832D02*
X008188Y002229D01*
X008585Y001832D02*
X009160Y001832D01*
X009477Y001796D02*
X009500Y001796D01*
X009500Y001678D02*
X009477Y001678D01*
X009462Y001559D02*
X009500Y001559D01*
X009497Y001441D02*
X009500Y001441D01*
X009500Y001322D02*
X009169Y001322D01*
X009169Y001312D02*
X009497Y001312D01*
X009497Y001162D01*
X009486Y001121D01*
X009465Y001084D01*
X009435Y001055D01*
X009399Y001034D01*
X009358Y001023D01*
X009169Y001023D01*
X009169Y001312D01*
X009151Y001322D02*
X008702Y001322D01*
X008702Y001204D02*
X008823Y001204D01*
X008854Y001085D02*
X008702Y001085D01*
X008702Y001441D02*
X008823Y001441D01*
X008858Y001559D02*
X008702Y001559D01*
X008702Y002033D02*
X008848Y002033D01*
X008702Y002152D02*
X009500Y002152D01*
X009500Y002270D02*
X008702Y002270D01*
X009041Y002389D02*
X009500Y002389D01*
X009500Y002507D02*
X009160Y002507D01*
X009278Y002626D02*
X009500Y002626D01*
X009500Y002744D02*
X009394Y002744D01*
X009312Y002659D02*
X009312Y002659D01*
X009394Y002863D02*
X009500Y002863D01*
X009500Y002981D02*
X009394Y002981D01*
X009394Y003100D02*
X009500Y003100D01*
X009500Y003218D02*
X009387Y003218D01*
X009394Y003337D02*
X009500Y003337D01*
X009500Y003455D02*
X009394Y003455D01*
X009394Y003574D02*
X009500Y003574D01*
X009500Y003692D02*
X009394Y003692D01*
X009394Y003811D02*
X009500Y003811D01*
X009500Y003929D02*
X009394Y003929D01*
X009394Y004048D02*
X009500Y004048D01*
X009500Y004166D02*
X009394Y004166D01*
X009394Y004285D02*
X009500Y004285D01*
X009500Y004403D02*
X009394Y004403D01*
X009394Y004522D02*
X009500Y004522D01*
X009500Y004640D02*
X009394Y004640D01*
X009346Y004759D02*
X009500Y004759D01*
X009500Y004877D02*
X009228Y004877D01*
X009109Y004996D02*
X009500Y004996D01*
X009500Y005114D02*
X008240Y005114D01*
X008358Y005233D02*
X009500Y005233D01*
X009500Y005351D02*
X008504Y005351D01*
X008512Y005359D02*
X008189Y005680D01*
X008189Y005680D01*
X008371Y005863D01*
X008189Y005680D01*
X008189Y005680D01*
X008512Y005359D01*
X008611Y005470D02*
X009500Y005470D01*
X009500Y005588D02*
X008621Y005588D01*
X008528Y005707D02*
X009500Y005707D01*
X009500Y005825D02*
X008409Y005825D01*
X008334Y005825D02*
X008334Y005825D01*
X008290Y005944D02*
X009500Y005944D01*
X009500Y006062D02*
X008171Y006062D01*
X007976Y006181D02*
X009500Y006181D01*
X009500Y006299D02*
X008142Y006299D01*
X008261Y006418D02*
X009500Y006418D01*
X009500Y006536D02*
X008379Y006536D01*
X008497Y006655D02*
X009500Y006655D01*
X009500Y006773D02*
X008606Y006773D01*
X008594Y006892D02*
X009500Y006892D01*
X009500Y007010D02*
X008475Y007010D01*
X008378Y007129D02*
X009500Y007129D01*
X009500Y007247D02*
X008265Y007247D01*
X008188Y007129D02*
X008188Y007129D01*
X008070Y007010D02*
X008070Y007010D01*
X007964Y006905D02*
X007964Y006905D01*
X008118Y007366D02*
X009500Y007366D01*
X009500Y007484D02*
X007999Y007484D01*
X007880Y007603D02*
X009500Y007603D01*
X009500Y007721D02*
X008474Y007721D01*
X008477Y007840D02*
X009500Y007840D01*
X009500Y007958D02*
X008477Y007958D01*
X008477Y008077D02*
X009500Y008077D01*
X009500Y008195D02*
X008464Y008195D01*
X008497Y008314D02*
X009500Y008314D01*
X009500Y008432D02*
X008169Y008432D01*
X008151Y008432D02*
X007615Y008432D01*
X007734Y008314D02*
X007823Y008314D01*
X007852Y008195D02*
X007856Y008195D01*
X007823Y008441D02*
X008151Y008441D01*
X008151Y008730D01*
X007962Y008730D01*
X007921Y008719D01*
X007885Y008698D01*
X007855Y008668D01*
X007834Y008632D01*
X007823Y008591D01*
X007823Y008441D01*
X007823Y008551D02*
X007497Y008551D01*
X007378Y008669D02*
X007856Y008669D01*
X007820Y008890D02*
X008096Y008890D01*
X008137Y008900D01*
X008173Y008922D01*
X008203Y008951D01*
X008224Y008988D01*
X008235Y009029D01*
X008235Y009265D01*
X007820Y009265D01*
X007820Y008890D01*
X007820Y008906D02*
X007700Y008906D01*
X007700Y008890D02*
X007424Y008890D01*
X007383Y008900D01*
X007347Y008922D01*
X007317Y008951D01*
X007296Y008988D01*
X007285Y009029D01*
X007285Y009265D01*
X007700Y009265D01*
X007820Y009265D01*
X007820Y009385D01*
X008235Y009385D01*
X008235Y009622D01*
X008224Y009663D01*
X008203Y009699D01*
X008173Y009729D01*
X008137Y009750D01*
X008096Y009761D01*
X007820Y009761D01*
X007820Y009385D01*
X007700Y009385D01*
X007700Y009265D01*
X007700Y008890D01*
X007700Y009025D02*
X007820Y009025D01*
X007820Y009143D02*
X007700Y009143D01*
X007700Y009262D02*
X007820Y009262D01*
X007820Y009380D02*
X009500Y009380D01*
X009500Y009262D02*
X008235Y009262D01*
X008235Y009143D02*
X009500Y009143D01*
X009500Y009025D02*
X008234Y009025D01*
X008147Y008906D02*
X009500Y008906D01*
X009500Y008788D02*
X007260Y008788D01*
X007373Y008906D02*
X007141Y008906D01*
X007286Y009025D02*
X006481Y009025D01*
X006501Y009006D02*
X006179Y008683D01*
X006179Y008683D01*
X006501Y009006D01*
X006402Y008906D02*
X006402Y008906D01*
X006284Y008788D02*
X006284Y008788D01*
X006334Y009143D02*
X007285Y009143D01*
X007285Y009262D02*
X006331Y009262D01*
X006331Y009380D02*
X007700Y009380D01*
X007700Y009385D02*
X007285Y009385D01*
X007285Y009622D01*
X007296Y009663D01*
X007317Y009699D01*
X007347Y009729D01*
X007383Y009750D01*
X007424Y009761D01*
X007700Y009761D01*
X007700Y009385D01*
X007700Y009499D02*
X007820Y009499D01*
X007820Y009617D02*
X007700Y009617D01*
X007700Y009736D02*
X007820Y009736D01*
X008161Y009736D02*
X009500Y009736D01*
X009500Y009854D02*
X007197Y009854D01*
X007197Y009912D02*
X006869Y009912D01*
X006869Y009623D01*
X007058Y009623D01*
X007099Y009634D01*
X007135Y009655D01*
X007165Y009684D01*
X007186Y009721D01*
X007197Y009762D01*
X007197Y009912D01*
X007197Y009973D02*
X009500Y009973D01*
X009500Y010091D02*
X008212Y010091D01*
X008215Y010210D02*
X009500Y010210D01*
X009500Y010328D02*
X008215Y010328D01*
X008215Y010447D02*
X009500Y010447D01*
X009500Y010565D02*
X008215Y010565D01*
X008215Y010684D02*
X009500Y010684D01*
X009500Y010802D02*
X008174Y010802D01*
X008574Y011059D02*
X008574Y011358D01*
X008873Y011358D01*
X008873Y011198D01*
X008862Y011157D01*
X008841Y011121D01*
X008811Y011091D01*
X008775Y011070D01*
X008734Y011059D01*
X008574Y011059D01*
X008574Y011158D02*
X008537Y011158D01*
X008537Y011276D02*
X008574Y011276D01*
X008574Y011395D02*
X008873Y011395D01*
X008873Y011555D01*
X008841Y011632D02*
X008811Y011662D01*
X008775Y011683D01*
X008734Y011694D01*
X008574Y011694D01*
X008574Y011395D01*
X008537Y011395D01*
X008537Y011694D01*
X008377Y011694D01*
X008336Y011683D01*
X008300Y011662D01*
X008270Y011632D01*
X008252Y011602D01*
X008180Y011674D01*
X007749Y011674D01*
X007690Y011615D01*
X007612Y011694D01*
X007460Y011694D01*
X007260Y011776D02*
X007460Y011976D01*
X007460Y012676D01*
X007560Y012776D01*
X008460Y012776D01*
X008960Y013276D01*
X009270Y012935D02*
X009500Y012935D01*
X009500Y012817D02*
X009053Y012817D01*
X009051Y012736D02*
X008868Y012736D01*
X008699Y012666D01*
X008570Y012537D01*
X008500Y012368D01*
X008500Y012185D01*
X008570Y012016D01*
X008699Y011886D01*
X008868Y011816D01*
X009051Y011816D01*
X009221Y011886D01*
X009350Y012016D01*
X009420Y012185D01*
X009420Y012368D01*
X009350Y012537D01*
X009221Y012666D01*
X009051Y012736D01*
X009143Y012698D02*
X009500Y012698D01*
X009500Y012580D02*
X009307Y012580D01*
X009381Y012461D02*
X009500Y012461D01*
X009500Y012343D02*
X009420Y012343D01*
X009420Y012224D02*
X009500Y012224D01*
X009500Y012106D02*
X009387Y012106D01*
X009322Y011987D02*
X009500Y011987D01*
X009500Y011869D02*
X009178Y011869D01*
X008742Y011869D02*
X008178Y011869D01*
X008222Y011632D02*
X008270Y011632D01*
X008322Y011987D02*
X008598Y011987D01*
X008533Y012106D02*
X008387Y012106D01*
X008420Y012224D02*
X008500Y012224D01*
X008500Y012343D02*
X008420Y012343D01*
X008381Y012461D02*
X008539Y012461D01*
X008546Y012580D02*
X008613Y012580D01*
X008665Y012698D02*
X008777Y012698D01*
X008783Y012817D02*
X008867Y012817D01*
X009366Y013054D02*
X009500Y013054D01*
X009500Y013172D02*
X009415Y013172D01*
X009420Y013291D02*
X009500Y013291D01*
X009500Y013409D02*
X009403Y013409D01*
X009354Y013528D02*
X009500Y013528D01*
X009500Y013646D02*
X009240Y013646D01*
X008574Y011632D02*
X008537Y011632D01*
X008537Y011513D02*
X008574Y011513D01*
X008873Y011276D02*
X009500Y011276D01*
X009500Y011158D02*
X008862Y011158D01*
X009500Y011039D02*
X007104Y011039D01*
X007104Y010921D02*
X009500Y010921D01*
X009500Y009617D02*
X008235Y009617D01*
X008235Y009499D02*
X009500Y009499D01*
X009500Y008669D02*
X008464Y008669D01*
X008497Y008551D02*
X009500Y008551D01*
X008169Y008551D02*
X008151Y008551D01*
X008151Y008669D02*
X008169Y008669D01*
X007359Y009736D02*
X007190Y009736D01*
X007285Y009617D02*
X006448Y009617D01*
X006448Y009499D02*
X007285Y009499D01*
X006869Y009736D02*
X006851Y009736D01*
X006851Y009854D02*
X006869Y009854D01*
X006523Y009854D02*
X006448Y009854D01*
X006448Y009736D02*
X006530Y009736D01*
X006523Y009973D02*
X006448Y009973D01*
X006448Y010091D02*
X006526Y010091D01*
X006569Y010210D02*
X006448Y010210D01*
X006138Y010565D02*
X004966Y010565D01*
X004966Y010447D02*
X006019Y010447D01*
X006140Y010567D02*
X006140Y010567D01*
X006256Y010684D02*
X004966Y010684D01*
X004966Y010802D02*
X006704Y010802D01*
X006704Y010921D02*
X004966Y010921D01*
X004966Y011039D02*
X006704Y011039D01*
X006626Y011158D02*
X004966Y011158D01*
X004966Y011276D02*
X006626Y011276D01*
X006626Y011395D02*
X004966Y011395D01*
X004945Y011513D02*
X005116Y011513D01*
X005098Y011632D02*
X004921Y011632D01*
X005098Y011750D02*
X004739Y011750D01*
X005039Y012343D02*
X005098Y012343D01*
X005098Y012461D02*
X004766Y012461D01*
X004702Y012580D02*
X005098Y012580D01*
X005098Y012698D02*
X004475Y012698D01*
X004443Y012817D02*
X005098Y012817D01*
X005890Y012817D02*
X006821Y012817D01*
X006931Y012817D02*
X006989Y012817D01*
X006989Y012796D02*
X006998Y012796D01*
X007072Y012808D01*
X007144Y012832D01*
X007212Y012866D01*
X007273Y012910D01*
X007326Y012964D01*
X007371Y013025D01*
X007405Y013092D01*
X007428Y013164D01*
X007440Y013239D01*
X007440Y013248D01*
X006989Y013248D01*
X006989Y012796D01*
X006989Y012935D02*
X006931Y012935D01*
X006931Y013054D02*
X006989Y013054D01*
X006989Y013172D02*
X006931Y013172D01*
X006931Y013291D02*
X003924Y013291D01*
X003796Y013291D02*
X000320Y013291D01*
X000320Y013409D02*
X006499Y013409D01*
X006490Y013172D02*
X004109Y013172D01*
X004169Y013054D02*
X006535Y013054D01*
X006622Y012935D02*
X004346Y012935D01*
X003670Y012698D02*
X003507Y012698D01*
X003475Y012817D02*
X003585Y012817D01*
X003545Y012935D02*
X003435Y012935D01*
X003551Y013054D02*
X003313Y013054D01*
X003007Y013054D02*
X000320Y013054D01*
X000320Y013172D02*
X003611Y013172D01*
X003625Y012580D02*
X003670Y012580D01*
X003670Y012461D02*
X003650Y012461D01*
X003462Y012106D02*
X002622Y012106D01*
X002622Y012224D02*
X003343Y012224D01*
X003270Y012298D02*
X003270Y012398D01*
X003206Y012461D01*
X003097Y012461D01*
X002911Y012580D02*
X002622Y012580D01*
X002622Y012698D02*
X002851Y012698D01*
X002845Y012817D02*
X002622Y012817D01*
X002622Y012848D02*
X002540Y012930D01*
X001912Y012930D01*
X001830Y012848D01*
X001830Y012595D01*
X001479Y012595D01*
X001397Y012513D01*
X001397Y011531D01*
X001479Y011449D01*
X002540Y011449D01*
X002622Y011531D01*
X002622Y012848D01*
X002885Y012935D02*
X000320Y012935D01*
X000320Y012817D02*
X001830Y012817D01*
X001830Y012698D02*
X000320Y012698D01*
X000320Y012580D02*
X001464Y012580D01*
X001397Y012461D02*
X000320Y012461D01*
X000320Y012343D02*
X001397Y012343D01*
X001397Y012224D02*
X000320Y012224D01*
X000320Y012106D02*
X001397Y012106D01*
X001397Y011987D02*
X000320Y011987D01*
X000320Y011869D02*
X001397Y011869D01*
X001397Y011750D02*
X000320Y011750D01*
X000320Y011632D02*
X001397Y011632D01*
X001415Y011513D02*
X000320Y011513D01*
X000320Y011395D02*
X002754Y011395D01*
X002775Y011513D02*
X002604Y011513D01*
X002622Y011632D02*
X002799Y011632D01*
X002622Y011750D02*
X003572Y011750D01*
X003572Y011869D02*
X002622Y011869D01*
X002622Y011987D02*
X003572Y011987D01*
X003171Y011710D02*
X003171Y011610D01*
X003171Y011710D01*
X003171Y011632D02*
X003171Y011632D01*
X003171Y011610D02*
X003171Y011610D01*
X003171Y011610D01*
X003171Y011174D02*
X003171Y011174D01*
X003171Y011174D01*
X003171Y011075D01*
X003178Y011075D01*
X003178Y010263D01*
X002581Y009666D01*
X002470Y009555D01*
X002470Y008798D01*
X002570Y008698D01*
X002681Y008586D01*
X002726Y008586D01*
X002726Y008541D01*
X002808Y008459D01*
X003200Y008459D01*
X003260Y008519D01*
X003320Y008459D01*
X003712Y008459D01*
X003753Y008500D01*
X003832Y008421D01*
X003827Y008417D01*
X003742Y008333D01*
X003658Y008248D01*
X003656Y008244D01*
X003633Y008266D01*
X002839Y008266D01*
X002739Y008366D01*
X002694Y008366D01*
X002694Y008412D01*
X002612Y008494D01*
X002220Y008494D01*
X002173Y008446D01*
X002170Y008452D01*
X002140Y008482D01*
X002104Y008503D01*
X002063Y008514D01*
X001913Y008514D01*
X001913Y008185D01*
X001895Y008185D01*
X001895Y008167D01*
X001913Y008167D01*
X001913Y007685D01*
X001895Y007685D01*
X001895Y007667D01*
X001606Y007667D01*
X001606Y007478D01*
X001617Y007437D01*
X001638Y007401D01*
X001668Y007371D01*
X001682Y007363D01*
X001424Y007363D01*
X001383Y007352D01*
X001347Y007331D01*
X001317Y007301D01*
X001296Y007265D01*
X001285Y007224D01*
X001285Y006988D01*
X001700Y006988D01*
X001700Y006868D01*
X001285Y006868D01*
X001285Y006631D01*
X001296Y006590D01*
X001317Y006554D01*
X001347Y006524D01*
X001383Y006503D01*
X001424Y006492D01*
X001700Y006492D01*
X001700Y006868D01*
X001820Y006868D01*
X001820Y006988D01*
X002235Y006988D01*
X002235Y007224D01*
X002224Y007265D01*
X002203Y007301D01*
X002173Y007331D01*
X002137Y007352D01*
X002117Y007358D01*
X002140Y007371D01*
X002170Y007401D01*
X002173Y007406D01*
X002220Y007359D01*
X002612Y007359D01*
X002694Y007441D01*
X002694Y007486D01*
X002927Y007486D01*
X002757Y007315D01*
X002757Y007314D01*
X002755Y007314D01*
X002535Y007092D01*
X002535Y007091D01*
X002533Y007091D01*
X002312Y006869D01*
X002312Y006753D01*
X002813Y006254D01*
X002851Y006255D01*
X002845Y006239D01*
X002845Y006114D01*
X002855Y006089D01*
X002813Y006089D01*
X002314Y005589D01*
X002315Y005473D01*
X002501Y005286D01*
X002481Y005266D01*
X002370Y005155D01*
X002370Y004355D01*
X002326Y004312D01*
X002326Y003866D01*
X002225Y003866D01*
X002182Y003932D01*
X002182Y004259D01*
X002100Y004341D01*
X001768Y004341D01*
X001760Y004333D01*
X001730Y004350D01*
X001689Y004361D01*
X001560Y004361D01*
X001453Y004361D01*
X001475Y004414D01*
X001475Y004539D01*
X001427Y004655D01*
X001411Y004671D01*
X001434Y004694D01*
X001434Y005282D01*
X001376Y005341D01*
X001376Y005421D01*
X001387Y005410D01*
X002133Y005410D01*
X002215Y005492D01*
X002215Y006159D01*
X002133Y006241D01*
X001387Y006241D01*
X001305Y006159D01*
X001305Y006010D01*
X001277Y006010D01*
X001277Y006016D01*
X001230Y006063D01*
X001235Y006066D01*
X001265Y006096D01*
X001286Y006133D01*
X001297Y006173D01*
X001297Y006323D01*
X000969Y006323D01*
X000969Y006341D01*
X001297Y006341D01*
X001297Y006491D01*
X001286Y006532D01*
X001265Y006568D01*
X001235Y006598D01*
X001199Y006619D01*
X001158Y006630D01*
X000969Y006630D01*
X000969Y006341D01*
X000951Y006341D01*
X000951Y006630D01*
X000780Y006630D01*
X000780Y009885D01*
X001451Y010556D01*
X002551Y010556D01*
X002680Y010685D01*
X003074Y011079D01*
X003091Y011075D01*
X003171Y011075D01*
X003171Y011174D01*
X003171Y011158D02*
X003171Y011158D01*
X003178Y011039D02*
X003034Y011039D01*
X002916Y010921D02*
X003178Y010921D01*
X003178Y010802D02*
X002797Y010802D01*
X002679Y010684D02*
X003178Y010684D01*
X003178Y010565D02*
X002560Y010565D01*
X002412Y011039D02*
X000320Y011039D01*
X000320Y010921D02*
X001193Y010921D01*
X001075Y010802D02*
X000320Y010802D01*
X000320Y010684D02*
X000956Y010684D01*
X000838Y010565D02*
X000320Y010565D01*
X000320Y010447D02*
X000719Y010447D01*
X000601Y010328D02*
X000320Y010328D01*
X000320Y010210D02*
X000482Y010210D01*
X000364Y010091D02*
X000320Y010091D01*
X000320Y009973D02*
X000340Y009973D01*
X000340Y009854D02*
X000320Y009854D01*
X000320Y009736D02*
X000340Y009736D01*
X000340Y009617D02*
X000320Y009617D01*
X000320Y009499D02*
X000340Y009499D01*
X000340Y009380D02*
X000320Y009380D01*
X000320Y009262D02*
X000340Y009262D01*
X000340Y009143D02*
X000320Y009143D01*
X000320Y009025D02*
X000340Y009025D01*
X000340Y008906D02*
X000320Y008906D01*
X000320Y008788D02*
X000340Y008788D01*
X000340Y008669D02*
X000320Y008669D01*
X000320Y008551D02*
X000340Y008551D01*
X000340Y008432D02*
X000320Y008432D01*
X000320Y008314D02*
X000340Y008314D01*
X000340Y008195D02*
X000320Y008195D01*
X000320Y008077D02*
X000340Y008077D01*
X000340Y007958D02*
X000320Y007958D01*
X000320Y007840D02*
X000340Y007840D01*
X000340Y007721D02*
X000320Y007721D01*
X000320Y007603D02*
X000340Y007603D01*
X000340Y007484D02*
X000320Y007484D01*
X000320Y007366D02*
X000340Y007366D01*
X000340Y007247D02*
X000320Y007247D01*
X000320Y007129D02*
X000340Y007129D01*
X000340Y007010D02*
X000320Y007010D01*
X000320Y006892D02*
X000340Y006892D01*
X000340Y006773D02*
X000320Y006773D01*
X000320Y006655D02*
X000340Y006655D01*
X000340Y006536D02*
X000320Y006536D01*
X000320Y006418D02*
X000340Y006418D01*
X000340Y006299D02*
X000320Y006299D01*
X000320Y006181D02*
X000340Y006181D01*
X000340Y006062D02*
X000320Y006062D01*
X000320Y005944D02*
X000340Y005944D01*
X000340Y005825D02*
X000320Y005825D01*
X000320Y005707D02*
X000340Y005707D01*
X000340Y005588D02*
X000320Y005588D01*
X000320Y005470D02*
X000340Y005470D01*
X000340Y005351D02*
X000320Y005351D01*
X000320Y005233D02*
X000340Y005233D01*
X000340Y005114D02*
X000320Y005114D01*
X000320Y004996D02*
X000340Y004996D01*
X000340Y004877D02*
X000320Y004877D01*
X000320Y004759D02*
X000340Y004759D01*
X000340Y004640D02*
X000320Y004640D01*
X000320Y004522D02*
X000340Y004522D01*
X000340Y004403D02*
X000320Y004403D01*
X000320Y004285D02*
X000340Y004285D01*
X000340Y004166D02*
X000320Y004166D01*
X000320Y004048D02*
X000340Y004048D01*
X000340Y003929D02*
X000320Y003929D01*
X000320Y003811D02*
X000340Y003811D01*
X000340Y003692D02*
X000320Y003692D01*
X000320Y003574D02*
X000340Y003574D01*
X000340Y003455D02*
X000320Y003455D01*
X000320Y003337D02*
X000340Y003337D01*
X000320Y003218D02*
X000367Y003218D01*
X000350Y003100D02*
X000320Y003100D01*
X000320Y002981D02*
X000350Y002981D01*
X000320Y002863D02*
X000396Y002863D01*
X000471Y002744D02*
X000320Y002744D01*
X000320Y002626D02*
X000615Y002626D01*
X000552Y002507D02*
X000320Y002507D01*
X000320Y002389D02*
X000432Y002389D01*
X000366Y002270D02*
X000320Y002270D01*
X000320Y002152D02*
X000335Y002152D01*
X000320Y002033D02*
X000330Y002033D01*
X000320Y001915D02*
X000355Y001915D01*
X000320Y001796D02*
X000408Y001796D01*
X000320Y001678D02*
X000509Y001678D01*
X000820Y001678D02*
X000900Y001678D01*
X000900Y001796D02*
X000820Y001796D01*
X000820Y001915D02*
X000900Y001915D01*
X000900Y002033D02*
X000820Y002033D01*
X001211Y001678D02*
X001840Y001678D01*
X001790Y001796D02*
X001312Y001796D01*
X001365Y001915D02*
X001766Y001915D01*
X001786Y001322D02*
X000320Y001322D01*
X000320Y001204D02*
X001786Y001204D01*
X001786Y001085D02*
X000320Y001085D01*
X000320Y000967D02*
X001786Y000967D01*
X001855Y000848D02*
X000320Y000848D01*
X000320Y000730D02*
X009500Y000730D01*
X009500Y000848D02*
X002784Y000848D01*
X002854Y000967D02*
X009500Y000967D01*
X009500Y001085D02*
X009466Y001085D01*
X009497Y001204D02*
X009500Y001204D01*
X009169Y001204D02*
X009151Y001204D01*
X009151Y001085D02*
X009169Y001085D01*
X009477Y001915D02*
X009500Y001915D01*
X009500Y002033D02*
X009472Y002033D01*
X009116Y002976D02*
X009116Y003476D01*
X009116Y003976D02*
X009116Y004476D01*
X008595Y004467D02*
X008306Y004467D01*
X008306Y004278D01*
X008317Y004237D01*
X008330Y004215D01*
X008326Y004212D01*
X008326Y004166D01*
X008039Y004166D01*
X007944Y004261D01*
X008023Y004261D01*
X008138Y004309D01*
X008227Y004398D01*
X008275Y004514D01*
X008275Y004623D01*
X008306Y004654D01*
X008306Y004485D01*
X008595Y004485D01*
X008595Y004467D01*
X008306Y004522D02*
X008275Y004522D01*
X008293Y004640D02*
X008306Y004640D01*
X008306Y004403D02*
X008229Y004403D01*
X008306Y004285D02*
X008079Y004285D01*
X008039Y004166D02*
X008326Y004166D01*
X008326Y003286D02*
X007995Y003286D01*
X008027Y003255D01*
X008075Y003139D01*
X008075Y003130D01*
X008306Y002899D01*
X008306Y002967D01*
X008595Y002967D01*
X008595Y002985D01*
X008306Y002985D01*
X008306Y003175D01*
X008317Y003215D01*
X008330Y003237D01*
X008326Y003241D01*
X008326Y003286D01*
X008319Y003218D02*
X008042Y003218D01*
X008105Y003100D02*
X008306Y003100D01*
X008224Y002981D02*
X008595Y002981D01*
X007776Y003391D02*
X007697Y003391D01*
X007582Y003343D01*
X007493Y003255D01*
X007445Y003139D01*
X007445Y003014D01*
X007465Y002966D01*
X006515Y002966D01*
X006438Y003043D01*
X006323Y003091D01*
X006252Y003091D01*
X006288Y003128D01*
X006373Y003212D01*
X006394Y003249D01*
X006398Y003266D01*
X006607Y003476D01*
X006607Y003477D01*
X006608Y003477D01*
X006817Y003686D01*
X007139Y003686D01*
X007250Y003798D01*
X007339Y003886D01*
X007365Y003886D01*
X007345Y003839D01*
X007345Y003714D01*
X007393Y003598D01*
X007482Y003509D01*
X007597Y003461D01*
X007706Y003461D01*
X007776Y003391D01*
X007712Y003455D02*
X006587Y003455D01*
X006469Y003337D02*
X007575Y003337D01*
X007478Y003218D02*
X006376Y003218D01*
X006261Y003100D02*
X007445Y003100D01*
X007458Y002981D02*
X006500Y002981D01*
X006197Y003218D02*
X006197Y003218D01*
X006078Y003337D02*
X006078Y003337D01*
X005966Y003449D02*
X005966Y003449D01*
X005966Y003449D01*
X005643Y003770D01*
X005966Y003449D01*
X005959Y003455D02*
X005959Y003455D01*
X005854Y003337D02*
X005854Y003337D01*
X005831Y003218D02*
X005575Y003218D01*
X005575Y003337D02*
X005712Y003337D01*
X005593Y003455D02*
X005526Y003455D01*
X005527Y003574D02*
X005382Y003574D01*
X005334Y003692D02*
X005566Y003692D01*
X005684Y003811D02*
X005215Y003811D01*
X005269Y003929D02*
X005640Y003929D01*
X005640Y004048D02*
X005388Y004048D01*
X005506Y004166D02*
X005640Y004166D01*
X005625Y004285D02*
X005640Y004285D01*
X005722Y003692D02*
X005722Y003692D01*
X005841Y003574D02*
X005841Y003574D01*
X005950Y003100D02*
X005528Y003100D01*
X005371Y002981D02*
X006020Y002981D01*
X005955Y002863D02*
X005354Y002863D01*
X005354Y002744D02*
X005684Y002744D01*
X005581Y002626D02*
X005354Y002626D01*
X005354Y002507D02*
X005545Y002507D01*
X005555Y002389D02*
X005354Y002389D01*
X005860Y002476D02*
X005860Y001932D01*
X006016Y001776D01*
X006360Y001776D01*
X005869Y001322D02*
X005851Y001322D01*
X005851Y001204D02*
X005869Y001204D01*
X007166Y001678D02*
X007754Y001678D01*
X007674Y001559D02*
X007246Y001559D01*
X007246Y001441D02*
X007674Y001441D01*
X007674Y001322D02*
X007246Y001322D01*
X007246Y001204D02*
X007674Y001204D01*
X007674Y001085D02*
X007246Y001085D01*
X007206Y001915D02*
X007714Y001915D01*
X007674Y002033D02*
X007246Y002033D01*
X007246Y002152D02*
X007674Y002152D01*
X007674Y002270D02*
X007246Y002270D01*
X007246Y002389D02*
X007674Y002389D01*
X007641Y002507D02*
X007242Y002507D01*
X007417Y003574D02*
X006705Y003574D01*
X007145Y003692D02*
X007354Y003692D01*
X007345Y003811D02*
X007263Y003811D01*
X008400Y005470D02*
X008400Y005470D01*
X008281Y005588D02*
X008281Y005588D01*
X008216Y005707D02*
X008216Y005707D01*
X005878Y007840D02*
X005642Y007840D01*
X005741Y007721D02*
X005779Y007721D01*
X005867Y007958D02*
X005253Y007958D01*
X005278Y007840D02*
X005135Y007840D01*
X005179Y007721D02*
X005016Y007721D01*
X005280Y008077D02*
X005748Y008077D01*
X005630Y008195D02*
X005280Y008195D01*
X005280Y008314D02*
X005511Y008314D01*
X005440Y008432D02*
X005280Y008432D01*
X005217Y008551D02*
X005440Y008551D01*
X005442Y008669D02*
X005335Y008669D01*
X005373Y008788D02*
X005538Y008788D01*
X005621Y008906D02*
X005289Y008906D01*
X005170Y009025D02*
X005739Y009025D01*
X005857Y009143D02*
X005051Y009143D01*
X004932Y009262D02*
X005891Y009262D01*
X005891Y009380D02*
X004775Y009380D01*
X004697Y009262D02*
X004680Y009262D01*
X005346Y009499D02*
X005774Y009499D01*
X005774Y009617D02*
X005346Y009617D01*
X005346Y009736D02*
X005774Y009736D01*
X005774Y009854D02*
X005346Y009854D01*
X005346Y009973D02*
X005774Y009973D01*
X005774Y010091D02*
X005346Y010091D01*
X005346Y010210D02*
X005774Y010210D01*
X005814Y010328D02*
X005306Y010328D01*
X006305Y011513D02*
X006626Y011513D01*
X006647Y011632D02*
X006323Y011632D01*
X006323Y011750D02*
X006751Y011750D01*
X006742Y011869D02*
X006323Y011869D01*
X006323Y011987D02*
X006598Y011987D01*
X006533Y012106D02*
X006323Y012106D01*
X006323Y012224D02*
X006500Y012224D01*
X006500Y012343D02*
X006323Y012343D01*
X006323Y012461D02*
X006539Y012461D01*
X006613Y012580D02*
X006256Y012580D01*
X005890Y012698D02*
X006777Y012698D01*
X007099Y012817D02*
X007318Y012817D01*
X007298Y012935D02*
X007436Y012935D01*
X007385Y013054D02*
X007554Y013054D01*
X007505Y013172D02*
X007430Y013172D01*
X007500Y013291D02*
X006989Y013291D01*
X007326Y013589D02*
X007273Y013642D01*
X007212Y013687D01*
X007154Y013716D01*
X007820Y013716D01*
X007699Y013666D01*
X007570Y013537D01*
X007517Y013409D02*
X007421Y013409D01*
X007371Y013528D02*
X007326Y013589D01*
X007267Y013646D02*
X007680Y013646D01*
X007260Y012698D02*
X007143Y012698D01*
X007060Y011776D02*
X006860Y011576D01*
X006860Y011420D01*
X006904Y011376D01*
X006904Y010476D01*
X006860Y010432D01*
X007755Y010432D01*
X007760Y010428D01*
X007305Y010210D02*
X007151Y010210D01*
X007194Y010091D02*
X007308Y010091D01*
X007305Y010684D02*
X007121Y010684D01*
X007104Y010802D02*
X007346Y010802D01*
X007416Y011376D02*
X007965Y011376D01*
X007707Y011632D02*
X007673Y011632D01*
X007635Y011869D02*
X007742Y011869D01*
X007260Y011776D02*
X007060Y011776D01*
X003742Y008333D02*
X004065Y008011D01*
X003742Y008333D01*
X003724Y008314D02*
X002791Y008314D01*
X002673Y008432D02*
X003820Y008432D01*
X003761Y008314D02*
X003761Y008314D01*
X003880Y008195D02*
X003880Y008195D01*
X003999Y008077D02*
X003999Y008077D01*
X004065Y008011D02*
X004065Y008011D01*
X002925Y007484D02*
X002694Y007484D01*
X002618Y007366D02*
X002807Y007366D01*
X002689Y007247D02*
X002229Y007247D01*
X002235Y007129D02*
X002571Y007129D01*
X002453Y007010D02*
X002235Y007010D01*
X002235Y006868D02*
X001820Y006868D01*
X001820Y006492D01*
X002096Y006492D01*
X002137Y006503D01*
X002173Y006524D01*
X002203Y006554D01*
X002224Y006590D01*
X002235Y006631D01*
X002235Y006868D01*
X002235Y006773D02*
X002312Y006773D01*
X002335Y006892D02*
X001820Y006892D01*
X001820Y006773D02*
X001700Y006773D01*
X001700Y006655D02*
X001820Y006655D01*
X001820Y006536D02*
X001700Y006536D01*
X001700Y006892D02*
X000780Y006892D01*
X000780Y007010D02*
X001285Y007010D01*
X001285Y007129D02*
X000780Y007129D01*
X000780Y007247D02*
X001291Y007247D01*
X001285Y006773D02*
X000780Y006773D01*
X000780Y006655D02*
X001285Y006655D01*
X001284Y006536D02*
X001334Y006536D01*
X001297Y006418D02*
X002649Y006418D01*
X002768Y006299D02*
X001297Y006299D01*
X001297Y006181D02*
X001327Y006181D01*
X001305Y006062D02*
X001231Y006062D01*
X000969Y006418D02*
X000951Y006418D01*
X000951Y006536D02*
X000969Y006536D01*
X000780Y007366D02*
X001677Y007366D01*
X001606Y007484D02*
X000780Y007484D01*
X000780Y007603D02*
X001606Y007603D01*
X001606Y007685D02*
X001895Y007685D01*
X001895Y007839D01*
X001895Y008167D01*
X001606Y008167D01*
X001606Y007978D01*
X001617Y007937D01*
X001624Y007926D01*
X001617Y007915D01*
X001606Y007875D01*
X001606Y007685D01*
X001606Y007721D02*
X000780Y007721D01*
X000780Y007840D02*
X001606Y007840D01*
X001612Y007958D02*
X000780Y007958D01*
X000780Y008077D02*
X001606Y008077D01*
X001606Y008185D02*
X001895Y008185D01*
X001895Y008514D01*
X001745Y008514D01*
X001705Y008503D01*
X001668Y008482D01*
X001638Y008452D01*
X001617Y008415D01*
X001606Y008375D01*
X001606Y008185D01*
X001606Y008195D02*
X000780Y008195D01*
X000780Y008314D02*
X001606Y008314D01*
X001627Y008432D02*
X000780Y008432D01*
X000780Y008551D02*
X002726Y008551D01*
X002598Y008669D02*
X000780Y008669D01*
X000780Y008788D02*
X002480Y008788D01*
X002470Y008906D02*
X000780Y008906D01*
X000780Y009025D02*
X002470Y009025D01*
X002470Y009143D02*
X000780Y009143D01*
X000780Y009262D02*
X002470Y009262D01*
X002470Y009380D02*
X000780Y009380D01*
X000780Y009499D02*
X002470Y009499D01*
X002532Y009617D02*
X000780Y009617D01*
X000780Y009736D02*
X002651Y009736D01*
X002769Y009854D02*
X000780Y009854D01*
X000868Y009973D02*
X002888Y009973D01*
X003006Y010091D02*
X000986Y010091D01*
X001105Y010210D02*
X003125Y010210D01*
X003178Y010328D02*
X001223Y010328D01*
X001342Y010447D02*
X003178Y010447D01*
X002649Y011276D02*
X000320Y011276D01*
X000320Y011158D02*
X002530Y011158D01*
X001913Y008432D02*
X001895Y008432D01*
X001895Y008314D02*
X001913Y008314D01*
X001913Y008195D02*
X001895Y008195D01*
X001895Y008077D02*
X001913Y008077D01*
X001913Y007958D02*
X001895Y007958D01*
X001895Y007840D02*
X001913Y007840D01*
X001913Y007721D02*
X001895Y007721D01*
X002131Y007366D02*
X002213Y007366D01*
X002235Y006655D02*
X002411Y006655D01*
X002530Y006536D02*
X002186Y006536D01*
X002193Y006181D02*
X002845Y006181D01*
X002787Y006062D02*
X002215Y006062D01*
X002215Y005944D02*
X002669Y005944D01*
X002550Y005825D02*
X002215Y005825D01*
X002215Y005707D02*
X002432Y005707D01*
X002314Y005588D02*
X002215Y005588D01*
X002193Y005470D02*
X002317Y005470D01*
X002436Y005351D02*
X002113Y005351D01*
X002100Y005364D02*
X002182Y005282D01*
X002182Y004694D01*
X002100Y004612D01*
X001768Y004612D01*
X001686Y004694D01*
X001686Y005282D01*
X001768Y005364D01*
X002100Y005364D01*
X002182Y005233D02*
X002448Y005233D01*
X002370Y005114D02*
X002182Y005114D01*
X002182Y004996D02*
X002370Y004996D01*
X002370Y004877D02*
X002182Y004877D01*
X002182Y004759D02*
X002370Y004759D01*
X002370Y004640D02*
X002129Y004640D01*
X002370Y004522D02*
X001475Y004522D01*
X001471Y004403D02*
X002370Y004403D01*
X002326Y004285D02*
X002156Y004285D01*
X002182Y004166D02*
X002326Y004166D01*
X002326Y004048D02*
X002182Y004048D01*
X002184Y003929D02*
X002326Y003929D01*
X001739Y004640D02*
X001433Y004640D01*
X001434Y004759D02*
X001686Y004759D01*
X001686Y004877D02*
X001434Y004877D01*
X001434Y004996D02*
X001686Y004996D01*
X001686Y005114D02*
X001434Y005114D01*
X001434Y005233D02*
X001686Y005233D01*
X001755Y005351D02*
X001376Y005351D01*
X001186Y004988D02*
X001186Y004502D01*
X001160Y004476D01*
X001560Y004361D02*
X001560Y003965D01*
X001560Y003965D01*
X001560Y004361D01*
X001560Y004285D02*
X001560Y004285D01*
X001560Y004166D02*
X001560Y004166D01*
X001560Y004048D02*
X001560Y004048D01*
X002260Y002626D02*
X002380Y002626D01*
X002380Y002507D02*
X002260Y002507D01*
X002260Y002389D02*
X002380Y002389D01*
X002380Y002033D02*
X002260Y002033D01*
X002260Y001915D02*
X002380Y001915D01*
X002380Y001796D02*
X002260Y001796D01*
X003380Y003574D02*
X004220Y003574D01*
X004101Y003692D02*
X003380Y003692D01*
X003380Y003811D02*
X003982Y003811D01*
X003863Y003929D02*
X003394Y003929D01*
X003394Y004048D02*
X003744Y004048D01*
X003625Y004166D02*
X003394Y004166D01*
X003394Y004285D02*
X003506Y004285D01*
X003388Y004403D02*
X003336Y004403D01*
X003269Y004522D02*
X003226Y004522D01*
X003121Y004640D02*
X003107Y004640D01*
X003081Y004681D02*
X003402Y005004D01*
X003402Y005004D01*
X003081Y004681D01*
X003158Y004759D02*
X003158Y004759D01*
X003276Y004877D02*
X003276Y004877D01*
X003394Y004996D02*
X003394Y004996D01*
X003625Y004781D02*
X003960Y005116D01*
X003960Y005276D01*
X004366Y005076D02*
X004560Y005076D01*
X004366Y005076D02*
X003848Y004559D01*
X004517Y003892D02*
X005102Y004476D01*
X005160Y004576D01*
D28*
X005160Y004576D03*
X005560Y004676D03*
X005060Y005576D03*
X004560Y005076D03*
X003960Y005276D03*
X003160Y006176D03*
X003460Y006476D03*
X003760Y006776D03*
X004460Y007076D03*
X005060Y007376D03*
X005460Y007576D03*
X005760Y007276D03*
X006060Y007576D03*
X006360Y007276D03*
X007660Y006176D03*
X007960Y004576D03*
X007660Y003776D03*
X007760Y003076D03*
X006360Y005076D03*
X005260Y003276D03*
X005860Y002476D03*
X006260Y002776D03*
X001160Y004476D03*
X001160Y008776D03*
X001060Y012176D03*
X003160Y012776D03*
X003860Y012976D03*
X004160Y012676D03*
X004460Y012376D03*
X004860Y012076D03*
D29*
X004549Y012065D01*
X004549Y011392D01*
X004352Y011392D02*
X004352Y012268D01*
X004460Y012376D01*
X004155Y012572D02*
X004155Y011392D01*
X003958Y011392D02*
X003958Y012178D01*
X003860Y012276D01*
X003860Y012976D01*
X004160Y012676D02*
X004155Y012572D01*
X003762Y012075D02*
X003460Y012376D01*
X003460Y012476D01*
X003160Y012776D01*
X002760Y012976D02*
X002760Y012276D01*
X003171Y011865D01*
X003171Y011392D01*
X003368Y011392D02*
X003368Y010184D01*
X002660Y009476D01*
X002660Y008876D01*
X002760Y008776D01*
X003004Y008776D01*
X003004Y009276D02*
X003060Y009332D01*
X003060Y009576D01*
X003565Y010081D01*
X003565Y011392D01*
X003762Y011392D02*
X003762Y012075D01*
X002760Y012976D02*
X001860Y012976D01*
X001060Y012176D01*
X003516Y009276D02*
X003691Y009276D01*
X004509Y008457D01*
X004287Y008234D02*
X003745Y008776D01*
X003516Y008776D01*
X003554Y008076D02*
X003843Y007788D01*
X003620Y007565D02*
X003309Y007876D01*
X003060Y007876D01*
X002860Y007676D01*
X002416Y007676D01*
X002416Y008176D02*
X002660Y008176D01*
X002760Y008076D01*
X003554Y008076D01*
X003176Y007119D02*
X003518Y006776D01*
X003760Y006776D01*
X003460Y006476D02*
X003360Y006489D01*
X002953Y006896D01*
X002731Y006673D02*
X003060Y006344D01*
X003160Y006176D01*
X002956Y005448D02*
X002932Y005448D01*
X002560Y005076D01*
X002560Y004120D01*
X002604Y004076D01*
X003116Y003932D02*
X002960Y003676D01*
X002122Y003676D01*
X001934Y003965D01*
X001934Y003650D01*
X001860Y003576D01*
X001260Y003576D01*
X001160Y003676D01*
X001160Y003939D01*
X001186Y003965D01*
X001186Y004988D02*
X001186Y005594D01*
X000960Y005820D01*
X001755Y005820D01*
X001760Y005825D01*
X002956Y005448D02*
X004460Y006952D01*
X004460Y007076D01*
X005060Y007376D02*
X005060Y005576D01*
X005560Y004676D02*
X005560Y004489D01*
X004741Y003670D01*
X004964Y003447D02*
X005135Y003276D01*
X005260Y003276D01*
X006260Y002776D02*
X007641Y002776D01*
X008188Y002229D01*
X008360Y002576D02*
X008960Y002576D01*
X009160Y002776D01*
X009160Y002932D01*
X009116Y002976D01*
X008604Y003476D02*
X007960Y003476D01*
X007660Y003776D01*
X007960Y003976D02*
X007860Y004076D01*
X007260Y004076D01*
X007060Y003876D01*
X006875Y003876D01*
X006633Y004118D01*
X007300Y004788D02*
X005460Y006627D01*
X005460Y007576D01*
X005760Y007276D02*
X005760Y006773D01*
X007522Y005011D01*
X007744Y005234D02*
X006060Y006918D01*
X006060Y007576D01*
X006260Y007276D02*
X006360Y007276D01*
X006260Y007276D02*
X006260Y007164D01*
X007967Y005457D01*
X008260Y004876D02*
X008960Y004876D01*
X009060Y004776D01*
X009060Y004532D01*
X009116Y004476D01*
X008604Y003976D02*
X007960Y003976D01*
X007960Y004576D02*
X008260Y004876D01*
X007860Y003076D02*
X007760Y003076D01*
X007860Y003076D02*
X008360Y002576D01*
X005760Y008676D02*
X005760Y008709D01*
X005956Y008905D01*
X003116Y004076D02*
X003116Y003932D01*
D30*
X003160Y004032D02*
X003116Y004076D01*
X003116Y004320D01*
X002860Y004576D01*
X002860Y004907D01*
X003179Y005226D01*
X003629Y005676D01*
X004460Y005676D01*
X005060Y005076D01*
X006360Y005076D01*
X006360Y004876D01*
X005860Y004376D01*
X005860Y004000D01*
X006188Y003672D01*
X007660Y006176D02*
X007760Y006276D01*
X007760Y006376D01*
X007860Y006376D01*
X008166Y006682D01*
X008187Y006682D01*
X007760Y006376D02*
X005660Y008476D01*
X005660Y008576D01*
X005760Y008676D01*
X005956Y008873D02*
X005956Y008905D01*
X006111Y009060D01*
X006111Y009876D01*
X006111Y010228D01*
X006360Y010476D01*
X006816Y010476D01*
X006860Y010432D01*
X006960Y008776D02*
X006718Y008776D01*
X006403Y008461D01*
X006960Y008776D02*
X007816Y007920D01*
X008160Y007920D01*
X005060Y008076D02*
X004360Y007376D01*
X004160Y007376D01*
X004060Y007276D01*
X003960Y007276D01*
X003671Y007565D01*
X003620Y007565D01*
X004732Y008681D02*
X004460Y008952D01*
X004460Y009376D01*
X004960Y009876D01*
X005009Y009876D01*
X004746Y010139D01*
X004746Y011392D01*
X002974Y011392D02*
X002974Y011291D01*
X002460Y010776D01*
X001360Y010776D01*
X000560Y009976D01*
X000560Y003376D01*
X000860Y003076D01*
X002320Y001271D02*
X002854Y001271D01*
X003160Y001576D01*
X003160Y004032D01*
X003179Y005226D02*
X003209Y005226D01*
X004294Y004114D02*
X004298Y004114D01*
X005060Y008076D02*
X005060Y008352D01*
X004732Y008681D01*
D31*
X002320Y003082D02*
X002314Y003076D01*
X000860Y003076D01*
M02*
