%
M48
M72
T01C0.0150
T02C0.0354
T03C0.0400
%
T01
X1160Y4476
X3160Y6176
X3460Y6476
X3760Y6776
X4460Y7076
X5060Y7376
X5460Y7576
X5760Y7276
X6060Y7576
X6360Y7276
X7660Y6176
X7960Y4576
X7660Y3776
X7760Y3076
X6360Y5076
X5560Y4676
X5160Y4576
X4560Y5076
X5060Y5576
X3960Y5276
X5260Y3276
X5860Y2476
X6260Y2776
X1160Y8776
X1060Y12176
X3160Y12776
X3860Y12976
X4160Y12676
X4460Y12376
X4860Y12076
T02
X6960Y12276
X6960Y13276
X7960Y13276
X7960Y12276
X8960Y12276
X8960Y13276
T03
X860Y2076
X860Y3076
M30
