G75*
G70*
%OFA0B0*%
%FSLAX24Y24*%
%IPPOS*%
%LPD*%
%AMOC8*
5,1,8,0,0,1.08239X$1,22.5*
%
%ADD10C,0.0040*%
%ADD11C,0.0030*%
%ADD12C,0.0050*%
%ADD13C,0.0100*%
D10*
X002872Y001900D02*
X003102Y001900D01*
X003179Y001977D01*
X003179Y002284D01*
X003102Y002360D01*
X002872Y002360D01*
X002872Y001900D01*
X002919Y001660D02*
X002919Y001200D01*
X003226Y001200D01*
X003379Y001200D02*
X003686Y001200D01*
X003840Y001200D02*
X004070Y001200D01*
X004147Y001277D01*
X004147Y001584D01*
X004070Y001660D01*
X003840Y001660D01*
X003840Y001200D01*
X003533Y001430D02*
X003379Y001430D01*
X003379Y001660D02*
X003379Y001200D01*
X003379Y001660D02*
X003686Y001660D01*
X003793Y001900D02*
X003793Y002130D01*
X003947Y002284D01*
X003947Y002360D01*
X003793Y002130D02*
X003640Y002284D01*
X003640Y002360D01*
X003486Y002360D02*
X003333Y002360D01*
X003409Y002360D02*
X003409Y001900D01*
X003333Y001900D02*
X003486Y001900D01*
X003457Y005100D02*
X003303Y005253D01*
X003380Y005253D02*
X003150Y005253D01*
X003150Y005100D02*
X003150Y005560D01*
X003380Y005560D01*
X003457Y005484D01*
X003457Y005330D01*
X003380Y005253D01*
X003610Y005177D02*
X003687Y005100D01*
X003841Y005100D01*
X003917Y005177D01*
X003917Y005253D01*
X003841Y005330D01*
X003764Y005330D01*
X003841Y005330D02*
X003917Y005407D01*
X003917Y005484D01*
X003841Y005560D01*
X003687Y005560D01*
X003610Y005484D01*
X003626Y006050D02*
X003550Y006127D01*
X003550Y006280D01*
X003626Y006357D01*
X003933Y006357D01*
X004010Y006280D01*
X004010Y006127D01*
X003933Y006050D01*
X003626Y006050D01*
X003857Y006203D02*
X004010Y006357D01*
X004010Y006741D02*
X003550Y006741D01*
X003780Y006510D01*
X003780Y006817D01*
X003410Y007027D02*
X003333Y006950D01*
X003026Y006950D01*
X002950Y007027D01*
X002950Y007180D01*
X003026Y007257D01*
X003333Y007257D01*
X003410Y007180D01*
X003410Y007027D01*
X003257Y007103D02*
X003410Y007257D01*
X003410Y007410D02*
X003103Y007717D01*
X003026Y007717D01*
X002950Y007641D01*
X002950Y007487D01*
X003026Y007410D01*
X003410Y007410D02*
X003410Y007717D01*
X005100Y007043D02*
X005560Y007043D01*
X005560Y006890D02*
X005560Y007197D01*
X005726Y006897D02*
X005803Y006897D01*
X005880Y006820D01*
X005957Y006897D01*
X006033Y006897D01*
X006110Y006820D01*
X006110Y006666D01*
X006033Y006590D01*
X006033Y006436D02*
X006110Y006359D01*
X006110Y006206D01*
X006033Y006129D01*
X005726Y006129D01*
X005650Y006206D01*
X005650Y006359D01*
X005726Y006436D01*
X006033Y006436D01*
X006110Y006436D02*
X005957Y006283D01*
X005726Y006590D02*
X005650Y006666D01*
X005650Y006820D01*
X005726Y006897D01*
X005880Y006820D02*
X005880Y006743D01*
X006029Y007100D02*
X006029Y007560D01*
X006259Y007560D01*
X006336Y007484D01*
X006336Y007330D01*
X006259Y007253D01*
X006029Y007253D01*
X006183Y007253D02*
X006336Y007100D01*
X006490Y007330D02*
X006797Y007330D01*
X006720Y007100D02*
X006720Y007560D01*
X006490Y007330D01*
X006010Y007627D02*
X005933Y007550D01*
X005626Y007550D01*
X005550Y007627D01*
X005550Y007780D01*
X005626Y007857D01*
X005933Y007857D01*
X006010Y007780D01*
X006010Y007627D01*
X005857Y007703D02*
X006010Y007857D01*
X006010Y008010D02*
X006010Y008317D01*
X006010Y008164D02*
X005550Y008164D01*
X005703Y008010D01*
X005100Y007043D02*
X005253Y006890D01*
X005176Y006736D02*
X005100Y006659D01*
X005100Y006429D01*
X005560Y006429D01*
X005407Y006429D02*
X005407Y006659D01*
X005330Y006736D01*
X005176Y006736D01*
X005407Y006583D02*
X005560Y006736D01*
X007400Y005120D02*
X007400Y004966D01*
X007476Y004890D01*
X007476Y004736D02*
X007630Y004736D01*
X007707Y004659D01*
X007707Y004429D01*
X007860Y004429D02*
X007400Y004429D01*
X007400Y004659D01*
X007476Y004736D01*
X007707Y004583D02*
X007860Y004736D01*
X007860Y004890D02*
X007553Y005197D01*
X007476Y005197D01*
X007400Y005120D01*
X007860Y005197D02*
X007860Y004890D01*
D11*
X007822Y004369D02*
X007538Y004369D01*
X007538Y004199D01*
X007595Y004143D01*
X007708Y004143D01*
X007765Y004199D01*
X007765Y004369D01*
X007822Y004369D02*
X007878Y004313D01*
X007878Y004256D01*
X007765Y003859D02*
X007538Y003859D01*
X007538Y003972D02*
X007538Y004029D01*
X007538Y003972D02*
X007652Y003859D01*
X007708Y003745D02*
X007595Y003745D01*
X007538Y003688D01*
X007538Y003575D01*
X007595Y003518D01*
X007708Y003518D01*
X007765Y003575D01*
X007765Y003688D01*
X007708Y003745D01*
X007708Y003404D02*
X007765Y003404D01*
X007765Y003348D01*
X007708Y003348D01*
X007708Y003404D01*
X007765Y003234D02*
X007708Y003177D01*
X007481Y003177D01*
X007538Y003121D02*
X007538Y003234D01*
X007595Y003007D02*
X007765Y003007D01*
X007765Y002780D02*
X007425Y002780D01*
X007538Y002837D02*
X007538Y002950D01*
X007595Y003007D01*
X007538Y002837D02*
X007595Y002780D01*
X007538Y002666D02*
X007538Y002496D01*
X007595Y002439D01*
X007708Y002439D01*
X007765Y002496D01*
X007765Y002666D01*
X007822Y002666D02*
X007538Y002666D01*
X007822Y002666D02*
X007878Y002609D01*
X007878Y002553D01*
X007765Y002325D02*
X007765Y002212D01*
X007765Y002269D02*
X007538Y002269D01*
X007538Y002212D01*
X007425Y002269D02*
X007368Y002269D01*
X007425Y002042D02*
X007765Y002042D01*
X007765Y002098D02*
X007765Y001985D01*
X007765Y001871D02*
X007765Y001701D01*
X007708Y001644D01*
X007652Y001701D01*
X007652Y001871D01*
X007595Y001871D02*
X007765Y001871D01*
X007595Y001871D02*
X007538Y001814D01*
X007538Y001701D01*
X007538Y001530D02*
X007765Y001530D01*
X007765Y001360D01*
X007708Y001304D01*
X007538Y001304D01*
X007538Y001190D02*
X007538Y001020D01*
X007595Y000963D01*
X007652Y001020D01*
X007652Y001133D01*
X007708Y001190D01*
X007765Y001133D01*
X007765Y000963D01*
X007765Y000849D02*
X007765Y000736D01*
X007765Y000792D02*
X007538Y000792D01*
X007538Y000736D01*
X007538Y000622D02*
X007765Y000508D01*
X007538Y000395D01*
X007425Y000792D02*
X007368Y000792D01*
X007425Y001985D02*
X007425Y002042D01*
X006065Y002257D02*
X006003Y002195D01*
X005756Y002195D01*
X005695Y002257D01*
X005695Y002380D01*
X005756Y002442D01*
X006003Y002442D01*
X006065Y002380D01*
X006065Y002257D01*
X005942Y002318D02*
X006065Y002442D01*
X006003Y002563D02*
X005942Y002563D01*
X005880Y002625D01*
X005880Y002748D01*
X005942Y002810D01*
X006003Y002810D01*
X006065Y002748D01*
X006065Y002625D01*
X006003Y002563D01*
X005880Y002625D02*
X005818Y002563D01*
X005756Y002563D01*
X005695Y002625D01*
X005695Y002748D01*
X005756Y002810D01*
X005818Y002810D01*
X005880Y002748D01*
X001970Y005018D02*
X001723Y005018D01*
X001723Y004957D02*
X001723Y005080D01*
X001784Y005142D01*
X001908Y005142D01*
X001970Y005080D01*
X001970Y005018D01*
X001908Y004895D02*
X001784Y004895D01*
X001723Y004957D01*
X001601Y004895D02*
X001539Y004957D01*
X001539Y005204D01*
X001477Y005142D02*
X001601Y005142D01*
X001355Y004895D02*
X001232Y004895D01*
X001293Y004895D02*
X001293Y005142D01*
X001232Y005142D01*
X001110Y005080D02*
X001110Y004895D01*
X001110Y005080D02*
X001048Y005142D01*
X000925Y005142D01*
X000863Y005080D01*
X000863Y005265D02*
X000863Y004895D01*
X000742Y004957D02*
X000742Y005142D01*
X000742Y004957D02*
X000680Y004895D01*
X000618Y004957D01*
X000557Y004895D01*
X000495Y004957D01*
X000495Y005142D01*
X001293Y005265D02*
X001293Y005327D01*
X000965Y001574D02*
X000965Y001327D01*
X000965Y001205D02*
X000965Y000958D01*
X000595Y000958D01*
X000656Y000837D02*
X000780Y000837D01*
X000842Y000775D01*
X000842Y000590D01*
X000965Y000590D02*
X000595Y000590D01*
X000595Y000775D01*
X000656Y000837D01*
X000718Y001327D02*
X000595Y001450D01*
X000965Y001450D01*
X002657Y009595D02*
X002595Y009657D01*
X002595Y009904D01*
X002657Y009965D01*
X002780Y009965D01*
X002842Y009904D01*
X002842Y009657D01*
X002780Y009595D01*
X002657Y009595D01*
X002718Y009718D02*
X002842Y009595D01*
X002963Y009657D02*
X002963Y009780D01*
X003148Y009780D01*
X003210Y009718D01*
X003210Y009657D01*
X003148Y009595D01*
X003025Y009595D01*
X002963Y009657D01*
X002963Y009780D02*
X003087Y009904D01*
X003210Y009965D01*
X002963Y011995D02*
X002963Y012057D01*
X003210Y012304D01*
X003210Y012365D01*
X002963Y012365D01*
X002842Y012304D02*
X002842Y012057D01*
X002780Y011995D01*
X002657Y011995D01*
X002595Y012057D01*
X002595Y012304D01*
X002657Y012365D01*
X002780Y012365D01*
X002842Y012304D01*
X002718Y012118D02*
X002842Y011995D01*
X006495Y011174D02*
X006495Y010927D01*
X006680Y010927D01*
X006618Y011050D01*
X006618Y011112D01*
X006680Y011174D01*
X006803Y011174D01*
X006865Y011112D01*
X006865Y010988D01*
X006803Y010927D01*
X006803Y010805D02*
X006865Y010744D01*
X006865Y010620D01*
X006803Y010558D01*
X006556Y010558D01*
X006495Y010620D01*
X006495Y010744D01*
X006556Y010805D01*
X006803Y010805D01*
X006865Y010805D02*
X006742Y010682D01*
D12*
X007780Y008570D02*
X005380Y008570D01*
X005380Y013380D01*
X006330Y013380D01*
X006830Y013380D01*
X007780Y013380D01*
X007780Y008570D01*
X007080Y005090D02*
X007080Y000280D01*
X006130Y000280D01*
X005630Y000280D01*
X004680Y000280D01*
X004680Y005090D01*
X007080Y005090D01*
X005290Y008480D02*
X000480Y008480D01*
X000480Y009430D01*
X000480Y009930D01*
X000480Y010880D01*
X005290Y010880D01*
X005290Y008480D01*
X005290Y010980D02*
X000480Y010980D01*
X000480Y011930D01*
X000480Y012430D01*
X000480Y013380D01*
X005290Y013380D01*
X005290Y010980D01*
X006330Y013380D02*
X006332Y013350D01*
X006337Y013320D01*
X006346Y013291D01*
X006359Y013264D01*
X006374Y013238D01*
X006393Y013214D01*
X006414Y013193D01*
X006438Y013174D01*
X006464Y013159D01*
X006491Y013146D01*
X006520Y013137D01*
X006550Y013132D01*
X006580Y013130D01*
X006610Y013132D01*
X006640Y013137D01*
X006669Y013146D01*
X006696Y013159D01*
X006722Y013174D01*
X006746Y013193D01*
X006767Y013214D01*
X006786Y013238D01*
X006801Y013264D01*
X006814Y013291D01*
X006823Y013320D01*
X006828Y013350D01*
X006830Y013380D01*
X004455Y004395D02*
X004455Y004095D01*
X004455Y004245D02*
X004005Y004245D01*
X004155Y004095D01*
X004005Y003934D02*
X004455Y003934D01*
X004005Y003634D01*
X004455Y003634D01*
X004455Y003474D02*
X004305Y003324D01*
X004305Y003399D02*
X004305Y003174D01*
X004305Y003399D02*
X004230Y003474D01*
X004080Y003474D01*
X004005Y003399D01*
X004005Y003174D01*
X004455Y003174D01*
X005630Y000280D02*
X005632Y000310D01*
X005637Y000340D01*
X005646Y000369D01*
X005659Y000396D01*
X005674Y000422D01*
X005693Y000446D01*
X005714Y000467D01*
X005738Y000486D01*
X005764Y000501D01*
X005791Y000514D01*
X005820Y000523D01*
X005850Y000528D01*
X005880Y000530D01*
X005910Y000528D01*
X005940Y000523D01*
X005969Y000514D01*
X005996Y000501D01*
X006022Y000486D01*
X006046Y000467D01*
X006067Y000446D01*
X006086Y000422D01*
X006101Y000396D01*
X006114Y000369D01*
X006123Y000340D01*
X006128Y000310D01*
X006130Y000280D01*
X000480Y009430D02*
X000510Y009432D01*
X000540Y009437D01*
X000569Y009446D01*
X000596Y009459D01*
X000622Y009474D01*
X000646Y009493D01*
X000667Y009514D01*
X000686Y009538D01*
X000701Y009564D01*
X000714Y009591D01*
X000723Y009620D01*
X000728Y009650D01*
X000730Y009680D01*
X000728Y009710D01*
X000723Y009740D01*
X000714Y009769D01*
X000701Y009796D01*
X000686Y009822D01*
X000667Y009846D01*
X000646Y009867D01*
X000622Y009886D01*
X000596Y009901D01*
X000569Y009914D01*
X000540Y009923D01*
X000510Y009928D01*
X000480Y009930D01*
X000480Y011930D02*
X000510Y011932D01*
X000540Y011937D01*
X000569Y011946D01*
X000596Y011959D01*
X000622Y011974D01*
X000646Y011993D01*
X000667Y012014D01*
X000686Y012038D01*
X000701Y012064D01*
X000714Y012091D01*
X000723Y012120D01*
X000728Y012150D01*
X000730Y012180D01*
X000728Y012210D01*
X000723Y012240D01*
X000714Y012269D01*
X000701Y012296D01*
X000686Y012322D01*
X000667Y012346D01*
X000646Y012367D01*
X000622Y012386D01*
X000596Y012401D01*
X000569Y012414D01*
X000540Y012423D01*
X000510Y012428D01*
X000480Y012430D01*
D13*
X000263Y000324D02*
X003097Y000324D01*
X003097Y000915D01*
X002625Y000915D01*
X000263Y000324D02*
X000263Y005836D01*
X003097Y005836D01*
X003097Y005245D01*
X002625Y005245D01*
M02*
