%
M48
M72
T01C0.0236
T02C0.0354
T03C0.0400
T04C0.0470
T05C0.1300
%
T01
X5680Y7194
X6380Y7694
X5680Y9894
X6080Y10394
X6980Y10394
X5080Y11394
X4480Y11194
X3480Y12094
X2380Y13594
X1380Y12894
X4880Y14994
X4980Y14494
X5680Y12294
X2580Y9194
X3880Y8694
X8780Y8594
X9080Y9294
X9780Y9794
X11780Y12194
X10080Y12994
X8880Y15494
X10280Y15894
X10880Y16194
X16380Y11294
X19680Y11394
X17080Y14394
X16180Y8294
T02
X1880Y5894
X2880Y5894
X3880Y5894
X3880Y6894
X2880Y6894
X1880Y6894
T03
X13080Y6094
X14080Y6094
X15080Y6094
T04
X15396Y16694
X17364Y16694
X19333Y16694
X13427Y16694
T05
X14080Y11994
M30
