G75*
G70*
%OFA0B0*%
%FSLAX24Y24*%
%IPPOS*%
%LPD*%
%AMOC8*
5,1,8,0,0,1.08239X$1,22.5*
%
%ADD10C,0.0000*%
%ADD11R,0.0276X0.0354*%
%ADD12R,0.0551X0.0630*%
%ADD13R,0.0354X0.0276*%
%ADD14R,0.0315X0.0315*%
%ADD15R,0.0591X0.0197*%
%ADD16R,0.0197X0.0591*%
%ADD17R,0.0748X0.0433*%
%ADD18R,0.0709X0.0394*%
%ADD19R,0.0472X0.0217*%
%ADD20R,0.0138X0.0551*%
%ADD21R,0.0709X0.0748*%
%ADD22R,0.0669X0.0335*%
%ADD23C,0.0640*%
%ADD24R,0.0880X0.0480*%
%ADD25R,0.0866X0.1417*%
%ADD26C,0.0710*%
%ADD27C,0.0640*%
%ADD28C,0.0160*%
%ADD29C,0.0436*%
%ADD30C,0.0120*%
%ADD31C,0.0100*%
%ADD32C,0.0240*%
D10*
X000663Y005094D02*
X020488Y005094D01*
X020530Y005092D01*
X020573Y005093D01*
X020615Y005098D01*
X020657Y005106D01*
X020698Y005118D01*
X020738Y005132D01*
X020776Y005151D01*
X020813Y005172D01*
X020848Y005196D01*
X020881Y005223D01*
X020912Y005253D01*
X020940Y005285D01*
X020965Y005319D01*
X020987Y005355D01*
X021007Y005393D01*
X021023Y005433D01*
X021035Y005473D01*
X021045Y005515D01*
X021051Y005557D01*
X021050Y005557D02*
X021050Y017931D01*
X021051Y017931D02*
X021053Y017973D01*
X021052Y018016D01*
X021047Y018058D01*
X021039Y018099D01*
X021028Y018140D01*
X021013Y018180D01*
X020995Y018218D01*
X020974Y018255D01*
X020950Y018289D01*
X020923Y018322D01*
X020893Y018352D01*
X020862Y018380D01*
X020827Y018405D01*
X020791Y018428D01*
X020754Y018447D01*
X020715Y018463D01*
X020674Y018475D01*
X020633Y018485D01*
X020591Y018491D01*
X020591Y018490D02*
X000660Y018490D01*
X000616Y018484D01*
X000574Y018474D01*
X000532Y018461D01*
X000491Y018445D01*
X000451Y018425D01*
X000414Y018402D01*
X000378Y018376D01*
X000345Y018347D01*
X000315Y018316D01*
X000286Y018282D01*
X000261Y018246D01*
X000239Y018208D01*
X000220Y018168D01*
X000205Y018127D01*
X000193Y018085D01*
X000184Y018042D01*
X000179Y017998D01*
X000178Y017954D01*
X000180Y017910D01*
X000180Y005577D01*
X000182Y005535D01*
X000187Y005493D01*
X000196Y005452D01*
X000209Y005412D01*
X000225Y005373D01*
X000245Y005336D01*
X000267Y005300D01*
X000293Y005267D01*
X000321Y005235D01*
X000353Y005207D01*
X000386Y005181D01*
X000421Y005159D01*
X000459Y005139D01*
X000498Y005123D01*
X000538Y005110D01*
X000579Y005101D01*
X000621Y005096D01*
X000663Y005094D01*
X013430Y011994D02*
X013432Y012044D01*
X013438Y012094D01*
X013448Y012144D01*
X013461Y012192D01*
X013478Y012240D01*
X013499Y012286D01*
X013523Y012330D01*
X013551Y012372D01*
X013582Y012412D01*
X013616Y012449D01*
X013653Y012484D01*
X013692Y012515D01*
X013733Y012544D01*
X013777Y012569D01*
X013823Y012591D01*
X013870Y012609D01*
X013918Y012623D01*
X013967Y012634D01*
X014017Y012641D01*
X014067Y012644D01*
X014118Y012643D01*
X014168Y012638D01*
X014218Y012629D01*
X014266Y012617D01*
X014314Y012600D01*
X014360Y012580D01*
X014405Y012557D01*
X014448Y012530D01*
X014488Y012500D01*
X014526Y012467D01*
X014561Y012431D01*
X014594Y012392D01*
X014623Y012351D01*
X014649Y012308D01*
X014672Y012263D01*
X014691Y012216D01*
X014706Y012168D01*
X014718Y012119D01*
X014726Y012069D01*
X014730Y012019D01*
X014730Y011969D01*
X014726Y011919D01*
X014718Y011869D01*
X014706Y011820D01*
X014691Y011772D01*
X014672Y011725D01*
X014649Y011680D01*
X014623Y011637D01*
X014594Y011596D01*
X014561Y011557D01*
X014526Y011521D01*
X014488Y011488D01*
X014448Y011458D01*
X014405Y011431D01*
X014360Y011408D01*
X014314Y011388D01*
X014266Y011371D01*
X014218Y011359D01*
X014168Y011350D01*
X014118Y011345D01*
X014067Y011344D01*
X014017Y011347D01*
X013967Y011354D01*
X013918Y011365D01*
X013870Y011379D01*
X013823Y011397D01*
X013777Y011419D01*
X013733Y011444D01*
X013692Y011473D01*
X013653Y011504D01*
X013616Y011539D01*
X013582Y011576D01*
X013551Y011616D01*
X013523Y011658D01*
X013499Y011702D01*
X013478Y011748D01*
X013461Y011796D01*
X013448Y011844D01*
X013438Y011894D01*
X013432Y011944D01*
X013430Y011994D01*
D11*
X009436Y015994D03*
X008924Y015994D03*
X007536Y016494D03*
X007024Y016494D03*
X007236Y014494D03*
X006724Y014494D03*
X004436Y015694D03*
X003924Y015694D03*
X003436Y014094D03*
X003436Y013594D03*
X002924Y013594D03*
X002924Y014094D03*
X003024Y009194D03*
X003536Y009194D03*
X004624Y007594D03*
X005136Y007594D03*
X001536Y008294D03*
X001024Y008294D03*
D12*
X007029Y015594D03*
X008131Y015594D03*
X004131Y016494D03*
X003029Y016494D03*
D13*
X003780Y015250D03*
X003780Y014738D03*
X004980Y013950D03*
X004980Y013438D03*
X007980Y014238D03*
X007980Y014750D03*
X007580Y017138D03*
X007580Y017650D03*
X001080Y007750D03*
X001080Y007238D03*
X005680Y006650D03*
X005680Y006138D03*
X008880Y006638D03*
X008880Y007150D03*
D14*
X004980Y006389D03*
X004980Y005799D03*
X003775Y017394D03*
X003185Y017394D03*
D15*
G36*
X006013Y013245D02*
X005596Y013660D01*
X005735Y013799D01*
X006152Y013384D01*
X006013Y013245D01*
G37*
G36*
X005791Y013021D02*
X005374Y013436D01*
X005513Y013575D01*
X005930Y013160D01*
X005791Y013021D01*
G37*
G36*
X005568Y012798D02*
X005151Y013213D01*
X005290Y013352D01*
X005707Y012937D01*
X005568Y012798D01*
G37*
G36*
X005346Y012575D02*
X004929Y012990D01*
X005068Y013129D01*
X005485Y012714D01*
X005346Y012575D01*
G37*
G36*
X005124Y012352D02*
X004707Y012767D01*
X004846Y012906D01*
X005263Y012491D01*
X005124Y012352D01*
G37*
G36*
X004902Y012129D02*
X004485Y012544D01*
X004624Y012683D01*
X005041Y012268D01*
X004902Y012129D01*
G37*
G36*
X004679Y011906D02*
X004262Y012321D01*
X004401Y012460D01*
X004818Y012045D01*
X004679Y011906D01*
G37*
G36*
X004457Y011683D02*
X004040Y012098D01*
X004179Y012237D01*
X004596Y011822D01*
X004457Y011683D01*
G37*
G36*
X004235Y011460D02*
X003818Y011875D01*
X003957Y012014D01*
X004374Y011599D01*
X004235Y011460D01*
G37*
G36*
X004012Y011237D02*
X003595Y011652D01*
X003734Y011791D01*
X004151Y011376D01*
X004012Y011237D01*
G37*
G36*
X003790Y011014D02*
X003373Y011429D01*
X003512Y011568D01*
X003929Y011153D01*
X003790Y011014D01*
G37*
G36*
X007025Y007790D02*
X006608Y008205D01*
X006747Y008344D01*
X007164Y007929D01*
X007025Y007790D01*
G37*
G36*
X007247Y008013D02*
X006830Y008428D01*
X006969Y008567D01*
X007386Y008152D01*
X007247Y008013D01*
G37*
G36*
X007470Y008236D02*
X007053Y008651D01*
X007192Y008790D01*
X007609Y008375D01*
X007470Y008236D01*
G37*
G36*
X007692Y008459D02*
X007275Y008874D01*
X007414Y009013D01*
X007831Y008598D01*
X007692Y008459D01*
G37*
G36*
X007914Y008682D02*
X007497Y009097D01*
X007636Y009236D01*
X008053Y008821D01*
X007914Y008682D01*
G37*
G36*
X008136Y008905D02*
X007719Y009320D01*
X007858Y009459D01*
X008275Y009044D01*
X008136Y008905D01*
G37*
G36*
X008359Y009128D02*
X007942Y009543D01*
X008081Y009682D01*
X008498Y009267D01*
X008359Y009128D01*
G37*
G36*
X008581Y009352D02*
X008164Y009767D01*
X008303Y009906D01*
X008720Y009491D01*
X008581Y009352D01*
G37*
G36*
X008803Y009575D02*
X008386Y009990D01*
X008525Y010129D01*
X008942Y009714D01*
X008803Y009575D01*
G37*
G36*
X009026Y009798D02*
X008609Y010213D01*
X008748Y010352D01*
X009165Y009937D01*
X009026Y009798D01*
G37*
G36*
X009248Y010021D02*
X008831Y010436D01*
X008970Y010575D01*
X009387Y010160D01*
X009248Y010021D01*
G37*
D16*
G36*
X008969Y011022D02*
X008830Y011161D01*
X009245Y011578D01*
X009384Y011439D01*
X008969Y011022D01*
G37*
G36*
X008746Y011244D02*
X008607Y011383D01*
X009022Y011800D01*
X009161Y011661D01*
X008746Y011244D01*
G37*
G36*
X008523Y011467D02*
X008384Y011606D01*
X008799Y012023D01*
X008938Y011884D01*
X008523Y011467D01*
G37*
G36*
X008300Y011689D02*
X008161Y011828D01*
X008576Y012245D01*
X008715Y012106D01*
X008300Y011689D01*
G37*
G36*
X008077Y011911D02*
X007938Y012050D01*
X008353Y012467D01*
X008492Y012328D01*
X008077Y011911D01*
G37*
G36*
X007854Y012134D02*
X007715Y012273D01*
X008130Y012690D01*
X008269Y012551D01*
X007854Y012134D01*
G37*
G36*
X007631Y012356D02*
X007492Y012495D01*
X007907Y012912D01*
X008046Y012773D01*
X007631Y012356D01*
G37*
G36*
X007408Y012578D02*
X007269Y012717D01*
X007684Y013134D01*
X007823Y012995D01*
X007408Y012578D01*
G37*
G36*
X007185Y012801D02*
X007046Y012940D01*
X007461Y013357D01*
X007600Y013218D01*
X007185Y012801D01*
G37*
G36*
X006961Y013023D02*
X006822Y013162D01*
X007237Y013579D01*
X007376Y013440D01*
X006961Y013023D01*
G37*
G36*
X006738Y013245D02*
X006599Y013384D01*
X007014Y013801D01*
X007153Y013662D01*
X006738Y013245D01*
G37*
G36*
X003515Y010010D02*
X003376Y010149D01*
X003791Y010566D01*
X003930Y010427D01*
X003515Y010010D01*
G37*
G36*
X003738Y009788D02*
X003599Y009927D01*
X004014Y010344D01*
X004153Y010205D01*
X003738Y009788D01*
G37*
G36*
X003961Y009566D02*
X003822Y009705D01*
X004237Y010122D01*
X004376Y009983D01*
X003961Y009566D01*
G37*
G36*
X004184Y009343D02*
X004045Y009482D01*
X004460Y009899D01*
X004599Y009760D01*
X004184Y009343D01*
G37*
G36*
X004407Y009121D02*
X004268Y009260D01*
X004683Y009677D01*
X004822Y009538D01*
X004407Y009121D01*
G37*
G36*
X004630Y008899D02*
X004491Y009038D01*
X004906Y009455D01*
X005045Y009316D01*
X004630Y008899D01*
G37*
G36*
X004853Y008676D02*
X004714Y008815D01*
X005129Y009232D01*
X005268Y009093D01*
X004853Y008676D01*
G37*
G36*
X005076Y008454D02*
X004937Y008593D01*
X005352Y009010D01*
X005491Y008871D01*
X005076Y008454D01*
G37*
G36*
X005299Y008232D02*
X005160Y008371D01*
X005575Y008788D01*
X005714Y008649D01*
X005299Y008232D01*
G37*
G36*
X005523Y008009D02*
X005384Y008148D01*
X005799Y008565D01*
X005938Y008426D01*
X005523Y008009D01*
G37*
G36*
X005746Y007787D02*
X005607Y007926D01*
X006022Y008343D01*
X006161Y008204D01*
X005746Y007787D01*
G37*
D17*
X006552Y007047D03*
X006552Y006141D03*
X008008Y006141D03*
X008008Y007047D03*
D18*
X005880Y014443D03*
X005880Y015545D03*
D19*
X006092Y016520D03*
X006092Y016894D03*
X006092Y017268D03*
X005068Y017268D03*
X005068Y016520D03*
D20*
X009468Y016751D03*
X009724Y016751D03*
X009980Y016751D03*
X010236Y016751D03*
X010492Y016751D03*
D21*
X011555Y017794D03*
X008405Y017794D03*
D22*
X010020Y015368D03*
X011201Y014581D03*
X010020Y013793D03*
X011201Y013006D03*
X010020Y012219D03*
X011201Y011431D03*
X010020Y010644D03*
X011201Y009856D03*
X010020Y009069D03*
X011201Y008282D03*
X002540Y008282D03*
X001359Y009069D03*
X002540Y009856D03*
X001359Y010644D03*
X002540Y011431D03*
X001359Y012219D03*
X002540Y013006D03*
X001359Y013793D03*
X002540Y014581D03*
X001359Y015368D03*
D23*
X001880Y006894D03*
X001880Y005894D03*
X002880Y005894D03*
X003880Y005894D03*
X003880Y006894D03*
X002880Y006894D03*
D24*
X017160Y006994D03*
X017160Y007904D03*
X017160Y008984D03*
X017160Y009894D03*
X017160Y010804D03*
X017160Y011884D03*
X017160Y012794D03*
X017160Y013704D03*
X017160Y006084D03*
D25*
X019600Y006994D03*
X019600Y009894D03*
X019600Y012794D03*
D26*
X019333Y016339D02*
X019333Y017049D01*
X017364Y017049D02*
X017364Y016339D01*
X015396Y016339D02*
X015396Y017049D01*
X013427Y017049D02*
X013427Y016339D01*
D27*
X013080Y006414D02*
X013080Y005774D01*
X014080Y005774D02*
X014080Y006414D01*
X015080Y006414D02*
X015080Y005774D01*
D28*
X015600Y006391D02*
X015600Y006518D01*
X015521Y006709D01*
X015375Y006855D01*
X015183Y006934D01*
X014977Y006934D01*
X014785Y006855D01*
X014639Y006709D01*
X014580Y006566D01*
X014521Y006709D01*
X014400Y006830D01*
X014400Y009958D01*
X014351Y010075D01*
X012198Y012229D01*
X012198Y012277D01*
X012134Y012431D01*
X012017Y012549D01*
X011863Y012612D01*
X011697Y012612D01*
X011543Y012549D01*
X011426Y012431D01*
X011362Y012277D01*
X011362Y012111D01*
X011426Y011957D01*
X011543Y011840D01*
X011697Y011776D01*
X011746Y011776D01*
X013760Y009762D01*
X013760Y006830D01*
X013639Y006709D01*
X013567Y006534D01*
X013543Y006606D01*
X013508Y006676D01*
X013461Y006740D01*
X013406Y006796D01*
X013342Y006842D01*
X013272Y006878D01*
X013197Y006902D01*
X013119Y006914D01*
X013100Y006914D01*
X013100Y006114D01*
X013060Y006114D01*
X013060Y006074D01*
X012580Y006074D01*
X012580Y005735D01*
X012592Y005657D01*
X012617Y005582D01*
X012652Y005512D01*
X012699Y005448D01*
X012754Y005393D01*
X012818Y005347D01*
X012888Y005311D01*
X012939Y005294D01*
X000663Y005294D01*
X000608Y005300D01*
X000506Y005342D01*
X000428Y005420D01*
X000385Y005522D01*
X000380Y005577D01*
X000380Y017838D01*
X000387Y017847D01*
X000380Y017920D01*
X000380Y017993D01*
X000379Y017994D01*
X000418Y018118D01*
X000500Y018218D01*
X000615Y018279D01*
X000674Y018290D01*
X007918Y018290D01*
X007907Y018279D01*
X007883Y018238D01*
X007871Y018192D01*
X007871Y017957D01*
X007840Y017988D01*
X007320Y017988D01*
X007262Y017930D01*
X003975Y017930D01*
X003873Y017888D01*
X003737Y017752D01*
X003535Y017752D01*
X003466Y017683D01*
X003453Y017696D01*
X003412Y017719D01*
X003366Y017732D01*
X003185Y017732D01*
X003185Y017394D01*
X003185Y017057D01*
X003366Y017057D01*
X003412Y017069D01*
X003453Y017093D01*
X003466Y017106D01*
X003535Y017037D01*
X004016Y017037D01*
X004133Y017154D01*
X004133Y017356D01*
X004147Y017370D01*
X004632Y017370D01*
X004632Y017077D01*
X004749Y016960D01*
X005387Y016960D01*
X005504Y017077D01*
X005504Y017370D01*
X005656Y017370D01*
X005656Y017077D01*
X005682Y017051D01*
X005676Y017026D01*
X005676Y016894D01*
X005676Y016762D01*
X005454Y016762D01*
X005504Y016711D02*
X005387Y016828D01*
X004749Y016828D01*
X004695Y016774D01*
X004607Y016774D01*
X004607Y016892D01*
X004490Y017009D01*
X003773Y017009D01*
X003656Y016892D01*
X003656Y016096D01*
X003692Y016060D01*
X003606Y015974D01*
X001629Y015974D01*
X001526Y015932D01*
X001330Y015736D01*
X000941Y015736D01*
X000824Y015618D01*
X000824Y015118D01*
X000941Y015001D01*
X001776Y015001D01*
X001893Y015118D01*
X001893Y015414D01*
X003424Y015414D01*
X003423Y015412D01*
X003423Y015250D01*
X003423Y015089D01*
X003435Y015043D01*
X003454Y015010D01*
X003403Y014959D01*
X003403Y014518D01*
X003469Y014451D01*
X003436Y014451D01*
X003436Y014094D01*
X003436Y014094D01*
X003436Y014451D01*
X003274Y014451D01*
X003229Y014439D01*
X003196Y014420D01*
X003145Y014471D01*
X003074Y014471D01*
X003074Y014831D01*
X002957Y014948D01*
X002122Y014948D01*
X002005Y014831D01*
X002005Y014465D01*
X001850Y014338D01*
X001838Y014333D01*
X001812Y014306D01*
X001783Y014283D01*
X001777Y014272D01*
X001768Y014263D01*
X001754Y014228D01*
X001736Y014195D01*
X001735Y014182D01*
X001730Y014171D01*
X001730Y014161D01*
X000941Y014161D01*
X000824Y014044D01*
X000824Y013634D01*
X000687Y013497D01*
X000667Y013449D01*
X000560Y013342D01*
X000520Y013246D01*
X000520Y008487D01*
X000560Y008391D01*
X000633Y008318D01*
X000686Y008264D01*
X000686Y008034D01*
X000726Y007994D01*
X000703Y007971D01*
X000703Y007529D01*
X000754Y007478D01*
X000735Y007446D01*
X000723Y007400D01*
X000723Y007238D01*
X000723Y007077D01*
X000735Y007031D01*
X000759Y006990D01*
X000792Y006956D01*
X000833Y006933D01*
X000879Y006921D01*
X001080Y006921D01*
X001281Y006921D01*
X001327Y006933D01*
X001368Y006956D01*
X001387Y006975D01*
X001380Y006934D01*
X001380Y006903D01*
X001871Y006903D01*
X001871Y006886D01*
X001380Y006886D01*
X001380Y006855D01*
X001392Y006777D01*
X001417Y006702D01*
X001452Y006632D01*
X001499Y006568D01*
X001554Y006513D01*
X001618Y006467D01*
X001688Y006431D01*
X001760Y006407D01*
X001585Y006335D01*
X001439Y006189D01*
X001360Y005998D01*
X001360Y005791D01*
X001439Y005600D01*
X001585Y005453D01*
X001777Y005374D01*
X001983Y005374D01*
X002175Y005453D01*
X002321Y005600D01*
X002380Y005743D01*
X002439Y005600D01*
X002585Y005453D01*
X002777Y005374D01*
X002983Y005374D01*
X003175Y005453D01*
X003321Y005600D01*
X003380Y005743D01*
X003439Y005600D01*
X003585Y005453D01*
X003777Y005374D01*
X003983Y005374D01*
X004175Y005453D01*
X004321Y005600D01*
X004400Y005791D01*
X004400Y005816D01*
X004532Y005654D01*
X004538Y005640D01*
X004567Y005611D01*
X004594Y005579D01*
X004606Y005572D01*
X004617Y005562D01*
X004623Y005559D01*
X004623Y005559D01*
X004740Y005441D01*
X005220Y005441D01*
X005337Y005559D01*
X005337Y005927D01*
X005359Y005890D01*
X005392Y005856D01*
X005433Y005833D01*
X005479Y005821D01*
X005680Y005821D01*
X005881Y005821D01*
X005927Y005833D01*
X005968Y005856D01*
X005978Y005866D01*
X005978Y005842D01*
X006095Y005725D01*
X007009Y005725D01*
X007126Y005842D01*
X007126Y006441D01*
X007009Y006558D01*
X006668Y006558D01*
X006596Y006630D01*
X007009Y006630D01*
X007126Y006748D01*
X007126Y007214D01*
X007434Y007214D01*
X007434Y006748D01*
X007551Y006630D01*
X008465Y006630D01*
X008523Y006688D01*
X008523Y006638D01*
X008523Y006500D01*
X008465Y006558D01*
X007551Y006558D01*
X007434Y006441D01*
X007434Y005842D01*
X007551Y005725D01*
X008465Y005725D01*
X008582Y005842D01*
X008582Y006366D01*
X008592Y006356D01*
X008633Y006333D01*
X008679Y006321D01*
X008880Y006321D01*
X009081Y006321D01*
X009127Y006333D01*
X009168Y006356D01*
X009201Y006390D01*
X009225Y006431D01*
X009237Y006477D01*
X009237Y006638D01*
X008880Y006638D01*
X008880Y006321D01*
X008880Y006638D01*
X008880Y006638D01*
X008880Y006638D01*
X008523Y006638D01*
X008880Y006638D01*
X008880Y006638D01*
X009237Y006638D01*
X009237Y006800D01*
X009225Y006846D01*
X009206Y006878D01*
X009257Y006929D01*
X009257Y007371D01*
X009140Y007488D01*
X008620Y007488D01*
X008562Y007430D01*
X008499Y007430D01*
X008465Y007464D01*
X008307Y007464D01*
X008270Y007500D01*
X008039Y007732D01*
X007936Y007774D01*
X007265Y007774D01*
X007303Y007812D01*
X007331Y007812D01*
X007553Y008035D01*
X007553Y008035D01*
X007776Y008258D01*
X007998Y008481D01*
X008220Y008704D01*
X008220Y008704D01*
X008372Y008857D01*
X008418Y008812D01*
X008362Y008677D01*
X008362Y008511D01*
X008426Y008357D01*
X008543Y008240D01*
X008697Y008176D01*
X008863Y008176D01*
X009017Y008240D01*
X009134Y008357D01*
X009198Y008511D01*
X009198Y008677D01*
X009134Y008831D01*
X009089Y008876D01*
X009163Y008876D01*
X009317Y008940D01*
X009434Y009057D01*
X009486Y009181D01*
X009486Y008819D01*
X009603Y008702D01*
X010438Y008702D01*
X010555Y008819D01*
X010555Y009319D01*
X010438Y009436D01*
X010009Y009436D01*
X010017Y009440D01*
X010134Y009557D01*
X010198Y009711D01*
X010198Y009877D01*
X010134Y010031D01*
X010017Y010149D01*
X009863Y010212D01*
X009697Y010212D01*
X009568Y010159D01*
X009568Y010183D01*
X009555Y010229D01*
X009532Y010270D01*
X009306Y010495D01*
X009109Y010298D01*
X009306Y010495D01*
X009080Y010720D01*
X009039Y010744D01*
X008993Y010756D01*
X008945Y010756D01*
X008935Y010753D01*
X009003Y010822D01*
X009052Y010822D01*
X009586Y011357D01*
X009586Y011404D01*
X009617Y011436D01*
X009660Y011539D01*
X009660Y011851D01*
X010438Y011851D01*
X010555Y011968D01*
X010555Y012469D01*
X010438Y012586D01*
X010187Y012586D01*
X010317Y012640D01*
X010434Y012757D01*
X010498Y012911D01*
X010498Y013077D01*
X010434Y013231D01*
X010317Y013349D01*
X010163Y013412D01*
X009997Y013412D01*
X009843Y013349D01*
X009809Y013314D01*
X009660Y013314D01*
X009660Y013426D01*
X010438Y013426D01*
X010555Y013543D01*
X010555Y014044D01*
X010438Y014161D01*
X009638Y014161D01*
X009633Y014178D01*
X009623Y014190D01*
X009617Y014204D01*
X009596Y014225D01*
X009592Y014236D01*
X009562Y014266D01*
X008909Y015076D01*
X008963Y015076D01*
X009117Y015140D01*
X009234Y015257D01*
X009298Y015411D01*
X009298Y015577D01*
X009282Y015617D01*
X009486Y015617D01*
X009486Y015118D01*
X009603Y015001D01*
X010438Y015001D01*
X010555Y015118D01*
X010555Y015578D01*
X010634Y015657D01*
X010698Y015811D01*
X010698Y015817D01*
X010797Y015776D01*
X010963Y015776D01*
X011117Y015840D01*
X011234Y015957D01*
X011298Y016111D01*
X011298Y016277D01*
X011234Y016431D01*
X011117Y016549D01*
X010963Y016612D01*
X010914Y016612D01*
X010812Y016715D01*
X010812Y016815D01*
X010763Y016932D01*
X010761Y016935D01*
X010761Y017109D01*
X010644Y017227D01*
X009572Y017227D01*
X009552Y017207D01*
X009468Y017207D01*
X009376Y017207D01*
X009330Y017194D01*
X009289Y017171D01*
X009255Y017137D01*
X009232Y017096D01*
X009219Y017050D01*
X009219Y016751D01*
X009455Y016751D01*
X009455Y016751D01*
X009219Y016751D01*
X009219Y016452D01*
X009232Y016406D01*
X009251Y016371D01*
X009215Y016371D01*
X009180Y016336D01*
X009145Y016371D01*
X008703Y016371D01*
X008586Y016254D01*
X008586Y016012D01*
X008490Y016109D01*
X008188Y016109D01*
X008086Y016315D01*
X008069Y016358D01*
X008062Y016364D01*
X008057Y016373D01*
X008022Y016404D01*
X007874Y016552D01*
X007874Y016754D01*
X007837Y016791D01*
X007838Y016801D01*
X007840Y016801D01*
X007957Y016918D01*
X007957Y017266D01*
X007981Y017252D01*
X008027Y017240D01*
X008325Y017240D01*
X008325Y017714D01*
X008485Y017714D01*
X008485Y017240D01*
X008783Y017240D01*
X008829Y017252D01*
X008870Y017276D01*
X008904Y017310D01*
X008927Y017351D01*
X008940Y017397D01*
X008940Y017714D01*
X008485Y017714D01*
X008485Y017874D01*
X008940Y017874D01*
X008940Y018192D01*
X008927Y018238D01*
X008904Y018279D01*
X008892Y018290D01*
X011068Y018290D01*
X011056Y018279D01*
X011033Y018238D01*
X011020Y018192D01*
X011020Y017874D01*
X011475Y017874D01*
X011475Y017714D01*
X011635Y017714D01*
X011635Y017874D01*
X012089Y017874D01*
X012089Y018192D01*
X012077Y018238D01*
X012053Y018279D01*
X012042Y018290D01*
X020576Y018290D01*
X020631Y018279D01*
X020738Y018222D01*
X020816Y018128D01*
X020850Y018014D01*
X020850Y018014D01*
X020850Y017941D01*
X020843Y017868D01*
X020850Y017859D01*
X020850Y005571D01*
X020839Y005516D01*
X020781Y005407D01*
X020686Y005329D01*
X020571Y005294D01*
X020570Y005294D01*
X020497Y005294D01*
X020425Y005301D01*
X020416Y005294D01*
X020133Y005294D01*
X020751Y005913D01*
X020800Y006031D01*
X020800Y015611D01*
X020751Y015728D01*
X019888Y016592D01*
X019888Y017160D01*
X019803Y017364D01*
X019647Y017520D01*
X019443Y017604D01*
X019222Y017604D01*
X019018Y017520D01*
X018862Y017364D01*
X018778Y017160D01*
X018778Y016229D01*
X018862Y016025D01*
X019018Y015869D01*
X019222Y015784D01*
X019443Y015784D01*
X019647Y015869D01*
X019676Y015898D01*
X020160Y015414D01*
X020160Y013659D01*
X020116Y013703D01*
X019084Y013703D01*
X018967Y013586D01*
X018967Y013074D01*
X017800Y013074D01*
X017800Y013117D01*
X017683Y013234D01*
X016700Y013234D01*
X016700Y013264D01*
X017683Y013264D01*
X017800Y013381D01*
X017800Y014027D01*
X017683Y014144D01*
X017440Y014144D01*
X017440Y014171D01*
X017498Y014311D01*
X017498Y014477D01*
X017434Y014631D01*
X017317Y014749D01*
X017163Y014812D01*
X016997Y014812D01*
X016843Y014749D01*
X016726Y014631D01*
X016700Y014569D01*
X016700Y015577D01*
X017021Y015898D01*
X017050Y015869D01*
X017254Y015784D01*
X017475Y015784D01*
X017679Y015869D01*
X017835Y016025D01*
X017919Y016229D01*
X017919Y017160D01*
X017835Y017364D01*
X017679Y017520D01*
X017475Y017604D01*
X017254Y017604D01*
X017050Y017520D01*
X016894Y017364D01*
X016809Y017160D01*
X016809Y016592D01*
X016200Y015983D01*
X016200Y016274D01*
X016151Y016391D01*
X015951Y016592D01*
X015951Y017160D01*
X015866Y017364D01*
X015710Y017520D01*
X015506Y017604D01*
X015285Y017604D01*
X015081Y017520D01*
X014925Y017364D01*
X014841Y017160D01*
X014841Y016229D01*
X014925Y016025D01*
X015081Y015869D01*
X015285Y015784D01*
X015506Y015784D01*
X015560Y015807D01*
X015560Y010431D01*
X015609Y010313D01*
X015699Y010223D01*
X016299Y009623D01*
X016416Y009574D01*
X016520Y009574D01*
X016520Y009571D01*
X016637Y009454D01*
X017683Y009454D01*
X017800Y009571D01*
X017800Y009614D01*
X018967Y009614D01*
X018967Y009103D01*
X019084Y008986D01*
X020116Y008986D01*
X020160Y009030D01*
X020160Y007859D01*
X020116Y007903D01*
X019084Y007903D01*
X018967Y007786D01*
X018967Y007274D01*
X017800Y007274D01*
X017800Y007317D01*
X017683Y007434D01*
X016637Y007434D01*
X016520Y007317D01*
X016520Y007160D01*
X016477Y007150D01*
X015500Y008127D01*
X015500Y015005D01*
X015451Y015123D01*
X013982Y016592D01*
X013982Y017160D01*
X013898Y017364D01*
X013742Y017520D01*
X013538Y017604D01*
X013317Y017604D01*
X013113Y017520D01*
X012957Y017364D01*
X012872Y017160D01*
X012872Y016229D01*
X012957Y016025D01*
X013113Y015869D01*
X013317Y015784D01*
X013538Y015784D01*
X013742Y015869D01*
X013771Y015898D01*
X014860Y014809D01*
X014860Y012332D01*
X014801Y012476D01*
X014561Y012715D01*
X014249Y012844D01*
X013911Y012844D01*
X013599Y012715D01*
X013359Y012476D01*
X013230Y012163D01*
X013230Y011825D01*
X013359Y011513D01*
X013599Y011274D01*
X013911Y011144D01*
X014249Y011144D01*
X014561Y011274D01*
X014801Y011513D01*
X014860Y011656D01*
X014860Y007931D01*
X014909Y007813D01*
X014999Y007723D01*
X016138Y006584D01*
X016162Y006551D01*
X016182Y006539D01*
X016199Y006523D01*
X016237Y006507D01*
X016272Y006486D01*
X016295Y006483D01*
X016316Y006474D01*
X016357Y006474D01*
X016398Y006468D01*
X016420Y006474D01*
X016444Y006474D01*
X016481Y006490D01*
X016732Y006554D01*
X017683Y006554D01*
X017800Y006671D01*
X017800Y006714D01*
X018967Y006714D01*
X018967Y006203D01*
X019084Y006086D01*
X020019Y006086D01*
X019747Y005814D01*
X017778Y005814D01*
X017780Y005821D01*
X017780Y006044D01*
X017200Y006044D01*
X017200Y006124D01*
X017780Y006124D01*
X017780Y006348D01*
X017768Y006394D01*
X017744Y006435D01*
X017710Y006468D01*
X017669Y006492D01*
X017624Y006504D01*
X017200Y006504D01*
X017200Y006124D01*
X017120Y006124D01*
X017120Y006044D01*
X016540Y006044D01*
X016540Y005821D01*
X016542Y005814D01*
X016213Y005814D01*
X015661Y006366D01*
X015600Y006391D01*
X015600Y006459D02*
X016600Y006459D01*
X016609Y006468D02*
X016576Y006435D01*
X016552Y006394D01*
X016540Y006348D01*
X016540Y006124D01*
X017120Y006124D01*
X017120Y006504D01*
X016696Y006504D01*
X016650Y006492D01*
X016609Y006468D01*
X016540Y006301D02*
X015726Y006301D01*
X015885Y006142D02*
X016540Y006142D01*
X016540Y005984D02*
X016043Y005984D01*
X016202Y005825D02*
X016540Y005825D01*
X017120Y006142D02*
X017200Y006142D01*
X017200Y006301D02*
X017120Y006301D01*
X017120Y006459D02*
X017200Y006459D01*
X017720Y006459D02*
X018967Y006459D01*
X018967Y006301D02*
X017780Y006301D01*
X017780Y006142D02*
X019027Y006142D01*
X018967Y006618D02*
X017746Y006618D01*
X017160Y006994D02*
X019600Y006994D01*
X018967Y007410D02*
X017707Y007410D01*
X017683Y007464D02*
X017800Y007581D01*
X017800Y008227D01*
X017683Y008344D01*
X017116Y008344D01*
X016928Y008532D01*
X016849Y008564D01*
X017120Y008564D01*
X017120Y008944D01*
X017200Y008944D01*
X017200Y008564D01*
X017624Y008564D01*
X017669Y008577D01*
X017710Y008600D01*
X017744Y008634D01*
X017768Y008675D01*
X017780Y008721D01*
X017780Y008944D01*
X017200Y008944D01*
X017200Y009024D01*
X017780Y009024D01*
X017780Y009248D01*
X017768Y009294D01*
X017744Y009335D01*
X017710Y009368D01*
X017669Y009392D01*
X017624Y009404D01*
X017200Y009404D01*
X017200Y009024D01*
X017120Y009024D01*
X017120Y008944D01*
X016540Y008944D01*
X016540Y008721D01*
X016552Y008675D01*
X016576Y008634D01*
X016609Y008600D01*
X016650Y008577D01*
X016660Y008574D01*
X016491Y008574D01*
X016417Y008649D01*
X016263Y008712D01*
X016097Y008712D01*
X015943Y008649D01*
X015826Y008531D01*
X015762Y008377D01*
X015762Y008211D01*
X015826Y008057D01*
X015943Y007940D01*
X016097Y007876D01*
X016263Y007876D01*
X016417Y007940D01*
X016491Y008014D01*
X016520Y008014D01*
X016520Y007581D01*
X016637Y007464D01*
X017683Y007464D01*
X017787Y007569D02*
X018967Y007569D01*
X018967Y007727D02*
X017800Y007727D01*
X017800Y007886D02*
X019067Y007886D01*
X020133Y007886D02*
X020160Y007886D01*
X020160Y008044D02*
X017800Y008044D01*
X017800Y008203D02*
X020160Y008203D01*
X020160Y008361D02*
X017099Y008361D01*
X016940Y008520D02*
X020160Y008520D01*
X020160Y008678D02*
X017769Y008678D01*
X017780Y008837D02*
X020160Y008837D01*
X020160Y008995D02*
X020126Y008995D01*
X020800Y008995D02*
X020850Y008995D01*
X020850Y008837D02*
X020800Y008837D01*
X020800Y008678D02*
X020850Y008678D01*
X020850Y008520D02*
X020800Y008520D01*
X020800Y008361D02*
X020850Y008361D01*
X020850Y008203D02*
X020800Y008203D01*
X020800Y008044D02*
X020850Y008044D01*
X020850Y007886D02*
X020800Y007886D01*
X020800Y007727D02*
X020850Y007727D01*
X020850Y007569D02*
X020800Y007569D01*
X020800Y007410D02*
X020850Y007410D01*
X020850Y007252D02*
X020800Y007252D01*
X020800Y007093D02*
X020850Y007093D01*
X020850Y006935D02*
X020800Y006935D01*
X020800Y006776D02*
X020850Y006776D01*
X020850Y006618D02*
X020800Y006618D01*
X020800Y006459D02*
X020850Y006459D01*
X020850Y006301D02*
X020800Y006301D01*
X020800Y006142D02*
X020850Y006142D01*
X020850Y005984D02*
X020781Y005984D01*
X020850Y005825D02*
X020664Y005825D01*
X020505Y005667D02*
X020850Y005667D01*
X020835Y005508D02*
X020347Y005508D01*
X020188Y005350D02*
X020711Y005350D01*
X019917Y005984D02*
X017780Y005984D01*
X017780Y005825D02*
X019758Y005825D01*
X017160Y007904D02*
X016770Y008294D01*
X016180Y008294D01*
X016015Y008678D02*
X015500Y008678D01*
X015500Y008520D02*
X015821Y008520D01*
X015762Y008361D02*
X015500Y008361D01*
X015500Y008203D02*
X015765Y008203D01*
X015839Y008044D02*
X015583Y008044D01*
X015741Y007886D02*
X016074Y007886D01*
X016286Y007886D02*
X016520Y007886D01*
X016520Y007727D02*
X015900Y007727D01*
X016058Y007569D02*
X016532Y007569D01*
X016613Y007410D02*
X016217Y007410D01*
X016375Y007252D02*
X016520Y007252D01*
X015945Y006776D02*
X015453Y006776D01*
X015559Y006618D02*
X016104Y006618D01*
X015787Y006935D02*
X014400Y006935D01*
X014400Y007093D02*
X015628Y007093D01*
X015470Y007252D02*
X014400Y007252D01*
X014400Y007410D02*
X015311Y007410D01*
X015153Y007569D02*
X014400Y007569D01*
X014400Y007727D02*
X014994Y007727D01*
X014879Y007886D02*
X014400Y007886D01*
X014400Y008044D02*
X014860Y008044D01*
X014860Y008203D02*
X014400Y008203D01*
X014400Y008361D02*
X014860Y008361D01*
X014860Y008520D02*
X014400Y008520D01*
X014400Y008678D02*
X014860Y008678D01*
X014860Y008837D02*
X014400Y008837D01*
X014400Y008995D02*
X014860Y008995D01*
X014860Y009154D02*
X014400Y009154D01*
X014400Y009312D02*
X014860Y009312D01*
X014860Y009471D02*
X014400Y009471D01*
X014400Y009629D02*
X014860Y009629D01*
X014860Y009788D02*
X014400Y009788D01*
X014400Y009946D02*
X014860Y009946D01*
X014860Y010105D02*
X014322Y010105D01*
X014164Y010263D02*
X014860Y010263D01*
X014860Y010422D02*
X014005Y010422D01*
X013847Y010580D02*
X014860Y010580D01*
X014860Y010739D02*
X013688Y010739D01*
X013530Y010897D02*
X014860Y010897D01*
X014860Y011056D02*
X013371Y011056D01*
X013213Y011214D02*
X013742Y011214D01*
X013499Y011373D02*
X013054Y011373D01*
X012896Y011531D02*
X013352Y011531D01*
X013286Y011690D02*
X012737Y011690D01*
X012579Y011848D02*
X013230Y011848D01*
X013230Y012007D02*
X012420Y012007D01*
X012262Y012165D02*
X013231Y012165D01*
X013296Y012324D02*
X012179Y012324D01*
X012083Y012482D02*
X013366Y012482D01*
X013524Y012641D02*
X011621Y012641D01*
X011619Y012639D02*
X011736Y012756D01*
X011736Y013256D01*
X011619Y013373D01*
X010784Y013373D01*
X010667Y013256D01*
X010667Y012756D01*
X010784Y012639D01*
X011619Y012639D01*
X011736Y012799D02*
X013802Y012799D01*
X014358Y012799D02*
X014860Y012799D01*
X014860Y012641D02*
X014636Y012641D01*
X014794Y012482D02*
X014860Y012482D01*
X014860Y012958D02*
X011736Y012958D01*
X011736Y013116D02*
X014860Y013116D01*
X014860Y013275D02*
X011717Y013275D01*
X011477Y012482D02*
X010541Y012482D01*
X010555Y012324D02*
X011381Y012324D01*
X011362Y012165D02*
X010555Y012165D01*
X010555Y012007D02*
X011405Y012007D01*
X011535Y011848D02*
X009660Y011848D01*
X009660Y011690D02*
X010675Y011690D01*
X010667Y011681D02*
X010667Y011181D01*
X010784Y011064D01*
X011619Y011064D01*
X011736Y011181D01*
X011736Y011681D01*
X011619Y011799D01*
X010784Y011799D01*
X010667Y011681D01*
X010667Y011531D02*
X009657Y011531D01*
X009586Y011373D02*
X010667Y011373D01*
X010667Y011214D02*
X009443Y011214D01*
X009285Y011056D02*
X012466Y011056D01*
X012307Y011214D02*
X011736Y011214D01*
X011736Y011373D02*
X012149Y011373D01*
X011990Y011531D02*
X011736Y011531D01*
X011728Y011690D02*
X011832Y011690D01*
X012624Y010897D02*
X010552Y010897D01*
X010555Y010894D02*
X010438Y011011D01*
X009603Y011011D01*
X009486Y010894D01*
X009486Y010394D01*
X009603Y010277D01*
X010438Y010277D01*
X010555Y010394D01*
X010555Y010894D01*
X010555Y010739D02*
X012783Y010739D01*
X012941Y010580D02*
X010555Y010580D01*
X010555Y010422D02*
X013100Y010422D01*
X013258Y010263D02*
X009535Y010263D01*
X009486Y010422D02*
X009379Y010422D01*
X009233Y010422D02*
X009233Y010422D01*
X009220Y010580D02*
X009486Y010580D01*
X009486Y010739D02*
X009048Y010739D01*
X009127Y010897D02*
X009489Y010897D01*
X009107Y011300D02*
X009107Y011322D01*
X009380Y011594D01*
X009380Y012994D01*
X009380Y014045D01*
X008131Y015594D01*
X007831Y016199D01*
X007536Y016494D01*
X007580Y017138D01*
X007477Y016947D01*
X006727Y016947D01*
X006580Y017094D01*
X006580Y016694D01*
X006380Y016494D01*
X006118Y016494D01*
X006092Y016520D01*
X005880Y016008D01*
X005880Y015545D01*
X006160Y015942D02*
X006160Y015953D01*
X006267Y016212D01*
X006411Y016212D01*
X006413Y016214D01*
X006436Y016214D01*
X006539Y016257D01*
X006617Y016336D01*
X006706Y016425D01*
X006706Y016293D01*
X006719Y016248D01*
X006742Y016207D01*
X006776Y016173D01*
X006817Y016149D01*
X006863Y016137D01*
X007024Y016137D01*
X007024Y016494D01*
X007024Y016494D01*
X007024Y016137D01*
X007186Y016137D01*
X007231Y016149D01*
X007264Y016168D01*
X007315Y016117D01*
X007517Y016117D01*
X007601Y016033D01*
X007656Y015923D01*
X007656Y015196D01*
X007773Y015079D01*
X008187Y015079D01*
X008200Y015063D01*
X008181Y015068D01*
X007980Y015068D01*
X007779Y015068D01*
X007733Y015056D01*
X007692Y015032D01*
X007659Y014998D01*
X007635Y014957D01*
X007623Y014912D01*
X007623Y014750D01*
X007623Y014589D01*
X007635Y014543D01*
X007654Y014510D01*
X007603Y014459D01*
X007603Y014018D01*
X007701Y013919D01*
X007702Y013854D01*
X007460Y013612D01*
X007435Y013638D01*
X007354Y013718D01*
X007354Y013746D01*
X007098Y014002D01*
X006932Y014002D01*
X006398Y013466D01*
X006398Y013408D01*
X006353Y013363D01*
X006353Y013466D01*
X005817Y014000D01*
X005660Y014000D01*
X005660Y014046D01*
X006317Y014046D01*
X006434Y014163D01*
X006457Y014163D01*
X006503Y014117D01*
X006945Y014117D01*
X006996Y014168D01*
X007029Y014149D01*
X007074Y014137D01*
X007236Y014137D01*
X007397Y014137D01*
X007443Y014149D01*
X007484Y014173D01*
X007518Y014207D01*
X007541Y014248D01*
X007554Y014293D01*
X007554Y014494D01*
X007236Y014494D01*
X007236Y014137D01*
X007236Y014494D01*
X007236Y014494D01*
X007236Y014494D01*
X007554Y014494D01*
X007554Y014695D01*
X007541Y014741D01*
X007518Y014782D01*
X007484Y014815D01*
X007443Y014839D01*
X007397Y014851D01*
X007236Y014851D01*
X007236Y014494D01*
X007236Y014494D01*
X007236Y014851D01*
X007074Y014851D01*
X007029Y014839D01*
X006996Y014820D01*
X006945Y014871D01*
X006503Y014871D01*
X006395Y014762D01*
X006317Y014840D01*
X005443Y014840D01*
X005334Y014731D01*
X005256Y014809D01*
X005298Y014911D01*
X005298Y015077D01*
X005234Y015231D01*
X005117Y015349D01*
X004963Y015412D01*
X004797Y015412D01*
X004643Y015349D01*
X004526Y015231D01*
X004462Y015077D01*
X004462Y014944D01*
X004433Y014915D01*
X004360Y014842D01*
X004320Y014746D01*
X004320Y013245D01*
X004260Y013305D01*
X004260Y014703D01*
X004263Y014711D01*
X004260Y014758D01*
X004260Y014794D01*
X004258Y014800D01*
X004256Y014822D01*
X004208Y014922D01*
X004124Y014996D01*
X004117Y014999D01*
X004106Y015010D01*
X004125Y015043D01*
X004137Y015089D01*
X004137Y015250D01*
X003780Y015250D01*
X003423Y015250D01*
X003780Y015250D01*
X003780Y015250D01*
X003780Y015250D01*
X004137Y015250D01*
X004137Y015317D01*
X004145Y015317D01*
X004196Y015368D01*
X004229Y015349D01*
X004274Y015337D01*
X004436Y015337D01*
X004597Y015337D01*
X004643Y015349D01*
X004684Y015373D01*
X004718Y015407D01*
X004741Y015448D01*
X004754Y015493D01*
X004754Y015694D01*
X004436Y015694D01*
X004436Y015337D01*
X004436Y015694D01*
X004436Y015694D01*
X004436Y015694D01*
X004754Y015694D01*
X004754Y015895D01*
X004741Y015941D01*
X004718Y015982D01*
X004684Y016015D01*
X004643Y016039D01*
X004597Y016051D01*
X004562Y016051D01*
X004607Y016096D01*
X004607Y016214D01*
X004747Y016214D01*
X004749Y016212D01*
X005387Y016212D01*
X005504Y016329D01*
X005504Y016711D01*
X005504Y016603D02*
X005656Y016603D01*
X005656Y016711D02*
X005656Y016329D01*
X005694Y016291D01*
X005622Y016118D01*
X005600Y016064D01*
X005600Y016064D01*
X005600Y016064D01*
X005600Y016008D01*
X005600Y015942D01*
X005443Y015942D01*
X005326Y015825D01*
X005326Y015266D01*
X005443Y015149D01*
X006317Y015149D01*
X006434Y015266D01*
X006434Y015825D01*
X006317Y015942D01*
X006160Y015942D01*
X006167Y015969D02*
X006583Y015969D01*
X006585Y015979D02*
X006573Y015933D01*
X006573Y015652D01*
X006971Y015652D01*
X006971Y015536D01*
X007087Y015536D01*
X007087Y015652D01*
X007484Y015652D01*
X007484Y015933D01*
X007472Y015979D01*
X007448Y016020D01*
X007415Y016053D01*
X007374Y016077D01*
X007328Y016089D01*
X007087Y016089D01*
X007087Y015652D01*
X006971Y015652D01*
X006971Y016089D01*
X006730Y016089D01*
X006684Y016077D01*
X006643Y016053D01*
X006609Y016020D01*
X006585Y015979D01*
X006573Y015811D02*
X006434Y015811D01*
X006434Y015652D02*
X006573Y015652D01*
X006573Y015536D02*
X006573Y015256D01*
X006585Y015210D01*
X006609Y015169D01*
X006643Y015135D01*
X006684Y015112D01*
X006730Y015099D01*
X006971Y015099D01*
X006971Y015536D01*
X006573Y015536D01*
X006573Y015494D02*
X006434Y015494D01*
X006434Y015335D02*
X006573Y015335D01*
X006605Y015177D02*
X006345Y015177D01*
X006492Y014860D02*
X005277Y014860D01*
X005298Y015018D02*
X007679Y015018D01*
X007675Y015177D02*
X007453Y015177D01*
X007448Y015169D02*
X007472Y015210D01*
X007484Y015256D01*
X007484Y015536D01*
X007087Y015536D01*
X007087Y015099D01*
X007328Y015099D01*
X007374Y015112D01*
X007415Y015135D01*
X007448Y015169D01*
X007484Y015335D02*
X007656Y015335D01*
X007656Y015494D02*
X007484Y015494D01*
X007484Y015652D02*
X007656Y015652D01*
X007656Y015811D02*
X007484Y015811D01*
X007475Y015969D02*
X007633Y015969D01*
X007305Y016128D02*
X006232Y016128D01*
X006568Y016286D02*
X006708Y016286D01*
X006971Y015969D02*
X007087Y015969D01*
X007087Y015811D02*
X006971Y015811D01*
X006971Y015652D02*
X007087Y015652D01*
X007087Y015494D02*
X006971Y015494D01*
X006971Y015335D02*
X007087Y015335D01*
X007087Y015177D02*
X006971Y015177D01*
X006956Y014860D02*
X007623Y014860D01*
X007623Y014750D02*
X007980Y014750D01*
X007623Y014750D01*
X007623Y014701D02*
X007552Y014701D01*
X007554Y014543D02*
X007635Y014543D01*
X007603Y014384D02*
X007554Y014384D01*
X007529Y014226D02*
X007603Y014226D01*
X007603Y014067D02*
X006338Y014067D01*
X006067Y013750D02*
X006681Y013750D01*
X006523Y013592D02*
X006226Y013592D01*
X006353Y013433D02*
X006398Y013433D01*
X006380Y012994D02*
X006876Y013491D01*
X006876Y013523D01*
X007099Y013301D02*
X007435Y013638D01*
X007099Y013301D01*
X007099Y013301D01*
X006764Y012964D01*
X006844Y012884D01*
X006845Y012856D01*
X007068Y012633D01*
X007291Y012411D01*
X007514Y012189D01*
X007514Y012189D01*
X007737Y011966D01*
X007960Y011744D01*
X008183Y011522D01*
X008183Y011522D01*
X008440Y011266D01*
X008468Y011266D01*
X008549Y011186D01*
X008884Y011522D01*
X008549Y011186D01*
X008562Y011172D01*
X008130Y010740D01*
X006660Y012210D01*
X006660Y012878D01*
X006755Y012973D01*
X006764Y012964D01*
X007099Y013301D01*
X007099Y013301D01*
X007073Y013275D02*
X007073Y013275D01*
X006915Y013116D02*
X006915Y013116D01*
X006771Y012958D02*
X006740Y012958D01*
X006660Y012799D02*
X006901Y012799D01*
X007060Y012641D02*
X006660Y012641D01*
X006660Y012482D02*
X007219Y012482D01*
X007291Y012411D02*
X007291Y012411D01*
X007378Y012324D02*
X006660Y012324D01*
X006705Y012165D02*
X007537Y012165D01*
X007697Y012007D02*
X006863Y012007D01*
X007022Y011848D02*
X007856Y011848D01*
X007960Y011744D02*
X007960Y011744D01*
X008015Y011690D02*
X007180Y011690D01*
X007339Y011531D02*
X008174Y011531D01*
X008333Y011373D02*
X007497Y011373D01*
X007656Y011214D02*
X008520Y011214D01*
X008577Y011214D02*
X008577Y011214D01*
X008446Y011056D02*
X007814Y011056D01*
X007973Y010897D02*
X008287Y010897D01*
X008180Y010394D02*
X008080Y010394D01*
X006380Y012094D01*
X006380Y012094D01*
X006365Y012110D01*
X006380Y012125D01*
X006380Y012994D01*
X007068Y012633D02*
X007068Y012633D01*
X007323Y013079D02*
X007982Y013738D01*
X007980Y014238D01*
X008357Y014226D02*
X008875Y014226D01*
X008747Y014384D02*
X008357Y014384D01*
X008357Y014459D02*
X008306Y014510D01*
X008325Y014543D01*
X008337Y014589D01*
X008337Y014750D01*
X007980Y014750D01*
X007980Y014750D01*
X007980Y014750D01*
X008337Y014750D01*
X008337Y014893D01*
X009100Y013947D01*
X009100Y013154D01*
X009060Y013058D01*
X009060Y012931D01*
X009100Y012834D01*
X009100Y012007D01*
X009100Y012007D01*
X008916Y012190D01*
X008693Y012412D01*
X008693Y012412D01*
X008470Y012635D01*
X008247Y012857D01*
X008024Y013079D01*
X008024Y013079D01*
X007871Y013231D01*
X008141Y013501D01*
X008142Y013502D01*
X008181Y013541D01*
X008220Y013580D01*
X008220Y013581D01*
X008241Y013632D01*
X008262Y013683D01*
X008262Y013684D01*
X008262Y013739D01*
X008262Y013794D01*
X008262Y013795D01*
X008261Y013922D01*
X008357Y014018D01*
X008357Y014459D01*
X008325Y014543D02*
X008619Y014543D01*
X008492Y014701D02*
X008337Y014701D01*
X008337Y014860D02*
X008364Y014860D01*
X007980Y014860D02*
X007980Y014860D01*
X007980Y014750D02*
X007980Y015068D01*
X007980Y014750D01*
X007980Y014750D01*
X007980Y015018D02*
X007980Y015018D01*
X007236Y014701D02*
X007236Y014701D01*
X007236Y014543D02*
X007236Y014543D01*
X007236Y014384D02*
X007236Y014384D01*
X007236Y014226D02*
X007236Y014226D01*
X007191Y013909D02*
X007701Y013909D01*
X007598Y013750D02*
X007350Y013750D01*
X007389Y013592D02*
X007389Y013592D01*
X007231Y013433D02*
X007231Y013433D01*
X006839Y013909D02*
X005908Y013909D01*
X005380Y013570D02*
X005380Y014394D01*
X005429Y014443D01*
X005880Y014443D01*
X006673Y014443D01*
X006724Y014494D01*
X005415Y015177D02*
X005257Y015177D01*
X005326Y015335D02*
X005130Y015335D01*
X005326Y015494D02*
X004754Y015494D01*
X004754Y015652D02*
X005326Y015652D01*
X005326Y015811D02*
X004754Y015811D01*
X004725Y015969D02*
X005600Y015969D01*
X005626Y016128D02*
X004607Y016128D01*
X005042Y016494D02*
X005068Y016520D01*
X005042Y016494D02*
X004131Y016494D01*
X004124Y016487D01*
X003924Y015694D01*
X001685Y015694D01*
X001359Y015368D01*
X001405Y015811D02*
X000380Y015811D01*
X000380Y015969D02*
X001617Y015969D01*
X000858Y015652D02*
X000380Y015652D01*
X000380Y015494D02*
X000824Y015494D01*
X000824Y015335D02*
X000380Y015335D01*
X000380Y015177D02*
X000824Y015177D01*
X000924Y015018D02*
X000380Y015018D01*
X000380Y014860D02*
X002034Y014860D01*
X002005Y014701D02*
X000380Y014701D01*
X000380Y014543D02*
X002005Y014543D01*
X001907Y014384D02*
X000380Y014384D01*
X000380Y014226D02*
X001753Y014226D01*
X001359Y013793D02*
X001220Y013654D01*
X001160Y013594D01*
X001080Y013494D01*
X000924Y013338D01*
X000651Y013433D02*
X000380Y013433D01*
X000380Y013275D02*
X000532Y013275D01*
X000520Y013116D02*
X000380Y013116D01*
X000380Y012958D02*
X000520Y012958D01*
X000520Y012799D02*
X000380Y012799D01*
X000380Y012641D02*
X000520Y012641D01*
X000520Y012482D02*
X000380Y012482D01*
X000380Y012324D02*
X000520Y012324D01*
X000520Y012165D02*
X000380Y012165D01*
X000380Y012007D02*
X000520Y012007D01*
X000520Y011848D02*
X000380Y011848D01*
X000380Y011690D02*
X000520Y011690D01*
X000520Y011531D02*
X000380Y011531D01*
X000380Y011373D02*
X000520Y011373D01*
X000520Y011214D02*
X000380Y011214D01*
X000380Y011056D02*
X000520Y011056D01*
X000520Y010897D02*
X000380Y010897D01*
X000380Y010739D02*
X000520Y010739D01*
X000520Y010580D02*
X000380Y010580D01*
X000380Y010422D02*
X000520Y010422D01*
X000520Y010263D02*
X000380Y010263D01*
X000380Y010105D02*
X000520Y010105D01*
X000520Y009946D02*
X000380Y009946D01*
X000380Y009788D02*
X000520Y009788D01*
X000520Y009629D02*
X000380Y009629D01*
X000380Y009471D02*
X000520Y009471D01*
X000520Y009312D02*
X000380Y009312D01*
X000380Y009154D02*
X000520Y009154D01*
X000520Y008995D02*
X000380Y008995D01*
X000380Y008837D02*
X000520Y008837D01*
X000520Y008678D02*
X000380Y008678D01*
X000380Y008520D02*
X000520Y008520D01*
X000589Y008361D02*
X000380Y008361D01*
X000380Y008203D02*
X000686Y008203D01*
X000686Y008044D02*
X000380Y008044D01*
X000380Y007886D02*
X000703Y007886D01*
X000703Y007727D02*
X000380Y007727D01*
X000380Y007569D02*
X000703Y007569D01*
X000726Y007410D02*
X000380Y007410D01*
X000380Y007252D02*
X000723Y007252D01*
X000723Y007238D02*
X001080Y007238D01*
X001080Y006921D01*
X001080Y007238D01*
X001080Y007238D01*
X000723Y007238D01*
X000723Y007093D02*
X000380Y007093D01*
X000380Y006935D02*
X000830Y006935D01*
X001080Y006935D02*
X001080Y006935D01*
X001080Y007093D02*
X001080Y007093D01*
X001080Y007238D02*
X001080Y007238D01*
X001080Y007238D01*
X001437Y007238D01*
X001437Y007126D01*
X001452Y007156D01*
X001499Y007220D01*
X001554Y007276D01*
X001618Y007322D01*
X001688Y007358D01*
X001763Y007382D01*
X001841Y007394D01*
X001871Y007394D01*
X001871Y006903D01*
X001889Y006903D01*
X001889Y007394D01*
X001919Y007394D01*
X001997Y007382D01*
X002072Y007358D01*
X002142Y007322D01*
X002206Y007276D01*
X002261Y007220D01*
X002308Y007156D01*
X002343Y007086D01*
X002367Y007014D01*
X002439Y007189D01*
X002585Y007335D01*
X002777Y007414D01*
X002983Y007414D01*
X003175Y007335D01*
X003321Y007189D01*
X003380Y007046D01*
X003439Y007189D01*
X003585Y007335D01*
X003777Y007414D01*
X003983Y007414D01*
X004175Y007335D01*
X004321Y007189D01*
X004344Y007133D01*
X004344Y007276D01*
X004286Y007334D01*
X004286Y007844D01*
X003256Y007844D01*
X003232Y007834D01*
X003128Y007834D01*
X003033Y007874D01*
X002960Y007947D01*
X002957Y007954D01*
X002944Y007947D01*
X002898Y007934D01*
X002544Y007934D01*
X002544Y008278D01*
X002920Y008278D01*
X002920Y008285D01*
X002544Y008285D01*
X002544Y008278D01*
X002536Y008278D01*
X002025Y008278D01*
X002025Y008091D01*
X002037Y008045D01*
X002061Y008004D01*
X002095Y007970D01*
X002136Y007947D01*
X002181Y007934D01*
X002536Y007934D01*
X002536Y008278D01*
X002536Y008285D01*
X002025Y008285D01*
X002025Y008334D01*
X001944Y008334D01*
X001874Y008264D01*
X001874Y008034D01*
X001757Y007917D01*
X001457Y007917D01*
X001457Y007529D01*
X001406Y007478D01*
X001425Y007446D01*
X001437Y007400D01*
X001437Y007238D01*
X001080Y007238D01*
X001437Y007252D02*
X001530Y007252D01*
X001434Y007410D02*
X002767Y007410D01*
X002993Y007410D02*
X003767Y007410D01*
X003993Y007410D02*
X004286Y007410D01*
X004286Y007569D02*
X001457Y007569D01*
X001457Y007727D02*
X004286Y007727D01*
X004624Y007594D02*
X004624Y006745D01*
X004980Y006389D01*
X004980Y005799D02*
X004775Y005799D01*
X003880Y006894D01*
X003502Y007252D02*
X003258Y007252D01*
X003360Y007093D02*
X003400Y007093D01*
X003021Y007886D02*
X001457Y007886D01*
X001874Y008044D02*
X002038Y008044D01*
X002025Y008203D02*
X001874Y008203D01*
X002536Y008203D02*
X002544Y008203D01*
X002544Y008285D02*
X002544Y008334D01*
X002536Y008334D01*
X002536Y008285D01*
X002544Y008285D01*
X002536Y008044D02*
X002544Y008044D01*
X002502Y007252D02*
X002230Y007252D01*
X002340Y007093D02*
X002400Y007093D01*
X001889Y007093D02*
X001871Y007093D01*
X001871Y006935D02*
X001889Y006935D01*
X001871Y007252D02*
X001889Y007252D01*
X001380Y006935D02*
X001330Y006935D01*
X001393Y006776D02*
X000380Y006776D01*
X000380Y006618D02*
X001463Y006618D01*
X001632Y006459D02*
X000380Y006459D01*
X000380Y006301D02*
X001551Y006301D01*
X001420Y006142D02*
X000380Y006142D01*
X000380Y005984D02*
X001360Y005984D01*
X001360Y005825D02*
X000380Y005825D01*
X000380Y005667D02*
X001411Y005667D01*
X001531Y005508D02*
X000391Y005508D01*
X000498Y005350D02*
X012814Y005350D01*
X012655Y005508D02*
X005287Y005508D01*
X005337Y005667D02*
X012591Y005667D01*
X012580Y005825D02*
X008566Y005825D01*
X008582Y005984D02*
X012580Y005984D01*
X012580Y006114D02*
X013060Y006114D01*
X013060Y006914D01*
X013041Y006914D01*
X012963Y006902D01*
X012888Y006878D01*
X012818Y006842D01*
X012754Y006796D01*
X012699Y006740D01*
X012652Y006676D01*
X012617Y006606D01*
X012592Y006531D01*
X012580Y006454D01*
X012580Y006114D01*
X012580Y006142D02*
X008582Y006142D01*
X008582Y006301D02*
X012580Y006301D01*
X012581Y006459D02*
X009232Y006459D01*
X009237Y006618D02*
X012623Y006618D01*
X012735Y006776D02*
X009237Y006776D01*
X009257Y006935D02*
X013760Y006935D01*
X013760Y007093D02*
X009257Y007093D01*
X009257Y007252D02*
X013760Y007252D01*
X013760Y007410D02*
X009218Y007410D01*
X008880Y007150D02*
X008111Y007150D01*
X008111Y007263D01*
X007880Y007494D01*
X006580Y007494D01*
X006380Y007694D01*
X006352Y008112D02*
X006362Y008122D01*
X006362Y008288D01*
X006139Y008510D01*
X006139Y008510D01*
X005915Y008733D01*
X005692Y008955D01*
X005469Y009177D01*
X005469Y009177D01*
X005314Y009332D01*
X005499Y009517D01*
X005597Y009476D01*
X005763Y009476D01*
X005917Y009540D01*
X006034Y009657D01*
X006098Y009811D01*
X006098Y009976D01*
X006163Y009976D01*
X006317Y010040D01*
X006434Y010157D01*
X006498Y010311D01*
X006498Y010477D01*
X006434Y010631D01*
X006317Y010749D01*
X006163Y010812D01*
X005997Y010812D01*
X005843Y010749D01*
X005769Y010674D01*
X005485Y010674D01*
X005382Y010632D01*
X005303Y010553D01*
X004683Y009933D01*
X004657Y009958D01*
X004633Y009982D01*
X006365Y011714D01*
X007748Y010330D01*
X006560Y009142D01*
X006520Y009046D01*
X006520Y008566D01*
X006560Y008471D01*
X006589Y008442D01*
X006549Y008402D01*
X006463Y008316D01*
X006439Y008275D01*
X006427Y008229D01*
X006427Y008182D01*
X006440Y008136D01*
X006453Y008112D01*
X006352Y008112D01*
X006362Y008203D02*
X006427Y008203D01*
X006508Y008361D02*
X006288Y008361D01*
X006129Y008520D02*
X006539Y008520D01*
X006549Y008402D02*
X006886Y008067D01*
X006886Y008067D01*
X006549Y008402D01*
X006590Y008361D02*
X006590Y008361D01*
X006750Y008203D02*
X006750Y008203D01*
X006520Y008678D02*
X005970Y008678D01*
X005915Y008733D02*
X005915Y008733D01*
X005811Y008837D02*
X006520Y008837D01*
X006520Y008995D02*
X005652Y008995D01*
X005692Y008955D02*
X005692Y008955D01*
X005493Y009154D02*
X006572Y009154D01*
X006730Y009312D02*
X005334Y009312D01*
X005453Y009471D02*
X006889Y009471D01*
X007047Y009629D02*
X006006Y009629D01*
X006088Y009788D02*
X007206Y009788D01*
X007364Y009946D02*
X006098Y009946D01*
X006382Y010105D02*
X007523Y010105D01*
X007681Y010263D02*
X006478Y010263D01*
X006498Y010422D02*
X007656Y010422D01*
X007498Y010580D02*
X006456Y010580D01*
X006327Y010739D02*
X007339Y010739D01*
X007181Y010897D02*
X005548Y010897D01*
X005390Y010739D02*
X005833Y010739D01*
X005707Y011056D02*
X007022Y011056D01*
X006864Y011214D02*
X005865Y011214D01*
X006024Y011373D02*
X006705Y011373D01*
X006547Y011531D02*
X006182Y011531D01*
X006341Y011690D02*
X006388Y011690D01*
X006365Y012110D02*
X004099Y009844D01*
X003536Y009281D01*
X003536Y009194D01*
X003536Y009038D01*
X003880Y008694D01*
X004298Y008777D02*
X004234Y008931D01*
X004117Y009049D01*
X003963Y009112D01*
X003874Y009112D01*
X003874Y009223D01*
X003961Y009310D01*
X003986Y009285D01*
X004322Y009621D01*
X003986Y009285D01*
X004067Y009204D01*
X004067Y009176D01*
X004290Y008954D01*
X004513Y008732D01*
X004513Y008732D01*
X004701Y008544D01*
X004270Y008544D01*
X004298Y008611D01*
X004298Y008777D01*
X004274Y008837D02*
X004408Y008837D01*
X004290Y008954D02*
X004290Y008954D01*
X004249Y008995D02*
X004170Y008995D01*
X004090Y009154D02*
X003874Y009154D01*
X004014Y009312D02*
X004014Y009312D01*
X004172Y009471D02*
X004172Y009471D01*
X004322Y009621D02*
X004322Y009621D01*
X004322Y009621D01*
X004657Y009958D01*
X004322Y009621D01*
X004330Y009629D02*
X004330Y009629D01*
X004488Y009788D02*
X004488Y009788D01*
X004646Y009946D02*
X004646Y009946D01*
X004669Y009946D02*
X004696Y009946D01*
X004756Y010105D02*
X004855Y010105D01*
X004914Y010263D02*
X005013Y010263D01*
X005073Y010422D02*
X005172Y010422D01*
X005231Y010580D02*
X005330Y010580D01*
X005540Y010394D02*
X006080Y010394D01*
X005540Y010394D02*
X004545Y009399D01*
X004768Y009182D02*
X005480Y009894D01*
X005680Y009894D01*
X004768Y009182D02*
X004768Y009177D01*
X004567Y008678D02*
X004298Y008678D01*
X005214Y008732D02*
X005218Y008732D01*
X005680Y007194D02*
X005680Y006650D01*
X006180Y006650D01*
X006552Y006278D01*
X006552Y006141D01*
X005994Y005825D02*
X005898Y005825D01*
X005680Y005825D02*
X005680Y005825D01*
X005680Y005821D02*
X005680Y006138D01*
X005680Y006138D01*
X005680Y005821D01*
X005680Y005984D02*
X005680Y005984D01*
X005462Y005825D02*
X005337Y005825D01*
X004673Y005508D02*
X004229Y005508D01*
X004349Y005667D02*
X004522Y005667D01*
X003531Y005508D02*
X003229Y005508D01*
X003349Y005667D02*
X003411Y005667D01*
X002531Y005508D02*
X002229Y005508D01*
X002349Y005667D02*
X002411Y005667D01*
X004258Y007252D02*
X004344Y007252D01*
X003024Y009194D02*
X002580Y009194D01*
X003024Y009214D02*
X003024Y009194D01*
X003653Y010288D02*
X003080Y010861D01*
X003080Y012994D01*
X003436Y013350D01*
X003436Y013594D01*
X003980Y013189D02*
X003980Y014738D01*
X003780Y014738D01*
X003980Y014750D01*
X004238Y014860D02*
X004378Y014860D01*
X004320Y014701D02*
X004260Y014701D01*
X004260Y014543D02*
X004320Y014543D01*
X004320Y014384D02*
X004260Y014384D01*
X004260Y014226D02*
X004320Y014226D01*
X004320Y014067D02*
X004260Y014067D01*
X004260Y013909D02*
X004320Y013909D01*
X004320Y013750D02*
X004260Y013750D01*
X004260Y013592D02*
X004320Y013592D01*
X004320Y013433D02*
X004260Y013433D01*
X004290Y013275D02*
X004320Y013275D01*
X003980Y013189D02*
X004763Y012406D01*
X004096Y011737D02*
X004480Y011352D01*
X004480Y011194D01*
X003873Y011514D02*
X003861Y011514D01*
X003480Y011894D01*
X003480Y012094D01*
X002924Y013594D02*
X002380Y013594D01*
X002924Y013594D02*
X002924Y014094D01*
X003074Y014543D02*
X003403Y014543D01*
X003403Y014701D02*
X003074Y014701D01*
X003046Y014860D02*
X003403Y014860D01*
X003449Y015018D02*
X001794Y015018D01*
X001893Y015177D02*
X003423Y015177D01*
X003423Y015335D02*
X001893Y015335D01*
X002609Y016069D02*
X002643Y016035D01*
X002684Y016012D01*
X002730Y015999D01*
X002971Y015999D01*
X002971Y016436D01*
X003087Y016436D01*
X003087Y016552D01*
X003484Y016552D01*
X003484Y016833D01*
X003472Y016879D01*
X003448Y016920D01*
X003684Y016920D01*
X003656Y016762D02*
X003484Y016762D01*
X003484Y016603D02*
X003656Y016603D01*
X003656Y016445D02*
X003087Y016445D01*
X003087Y016436D02*
X003484Y016436D01*
X003484Y016156D01*
X003472Y016110D01*
X003448Y016069D01*
X003415Y016035D01*
X003374Y016012D01*
X003328Y015999D01*
X003087Y015999D01*
X003087Y016436D01*
X002971Y016436D02*
X002971Y016552D01*
X002573Y016552D01*
X002573Y016833D01*
X002585Y016879D01*
X002609Y016920D01*
X002643Y016953D01*
X002684Y016977D01*
X002730Y016989D01*
X002971Y016989D01*
X002971Y016552D01*
X003087Y016552D01*
X003087Y016989D01*
X003328Y016989D01*
X003374Y016977D01*
X003415Y016953D01*
X003448Y016920D01*
X003429Y017079D02*
X003493Y017079D01*
X003185Y017079D02*
X003185Y017079D01*
X003185Y017057D02*
X003185Y017394D01*
X003185Y017394D01*
X003185Y017394D01*
X002847Y017394D01*
X002847Y017213D01*
X002860Y017167D01*
X002883Y017126D01*
X002917Y017093D01*
X002958Y017069D01*
X003004Y017057D01*
X003185Y017057D01*
X003087Y016920D02*
X002971Y016920D01*
X002971Y016762D02*
X003087Y016762D01*
X003087Y016603D02*
X002971Y016603D01*
X002971Y016445D02*
X000380Y016445D01*
X000380Y016603D02*
X002573Y016603D01*
X002573Y016762D02*
X000380Y016762D01*
X000380Y016920D02*
X002610Y016920D01*
X002941Y017079D02*
X000380Y017079D01*
X000380Y017237D02*
X002847Y017237D01*
X002847Y017394D02*
X003185Y017394D01*
X003185Y017394D01*
X003185Y017732D01*
X003004Y017732D01*
X002958Y017719D01*
X002917Y017696D01*
X002883Y017662D01*
X002860Y017621D01*
X002847Y017575D01*
X002847Y017394D01*
X002847Y017396D02*
X000380Y017396D01*
X000380Y017554D02*
X002847Y017554D01*
X002946Y017713D02*
X000380Y017713D01*
X000385Y017871D02*
X003856Y017871D01*
X004031Y017650D02*
X003775Y017394D01*
X004031Y017650D02*
X007580Y017650D01*
X007780Y017994D02*
X008205Y017994D01*
X008405Y017794D01*
X008485Y017871D02*
X011475Y017871D01*
X011475Y017714D02*
X011020Y017714D01*
X011020Y017397D01*
X011033Y017351D01*
X011056Y017310D01*
X011090Y017276D01*
X011131Y017252D01*
X011177Y017240D01*
X011475Y017240D01*
X011475Y017714D01*
X011475Y017713D02*
X011635Y017713D01*
X011635Y017714D02*
X011635Y017240D01*
X011933Y017240D01*
X011979Y017252D01*
X012020Y017276D01*
X012053Y017310D01*
X012077Y017351D01*
X012089Y017397D01*
X012089Y017714D01*
X011635Y017714D01*
X011635Y017871D02*
X020843Y017871D01*
X020850Y017713D02*
X012089Y017713D01*
X012089Y017554D02*
X013196Y017554D01*
X012989Y017396D02*
X012089Y017396D01*
X011635Y017396D02*
X011475Y017396D01*
X011475Y017554D02*
X011635Y017554D01*
X012089Y018030D02*
X020845Y018030D01*
X020766Y018188D02*
X012089Y018188D01*
X011020Y018188D02*
X008940Y018188D01*
X008940Y018030D02*
X011020Y018030D01*
X011020Y017713D02*
X008940Y017713D01*
X008940Y017554D02*
X011020Y017554D01*
X011021Y017396D02*
X008939Y017396D01*
X009227Y017079D02*
X007957Y017079D01*
X007957Y017237D02*
X012904Y017237D01*
X012872Y017079D02*
X010761Y017079D01*
X010768Y016920D02*
X012872Y016920D01*
X012872Y016762D02*
X010812Y016762D01*
X010985Y016603D02*
X012872Y016603D01*
X012872Y016445D02*
X011221Y016445D01*
X011294Y016286D02*
X012872Y016286D01*
X012914Y016128D02*
X011298Y016128D01*
X011239Y015969D02*
X013012Y015969D01*
X013253Y015811D02*
X011047Y015811D01*
X010713Y015811D02*
X010698Y015811D01*
X010629Y015652D02*
X014017Y015652D01*
X014175Y015494D02*
X010555Y015494D01*
X010555Y015335D02*
X014334Y015335D01*
X014492Y015177D02*
X010555Y015177D01*
X010455Y015018D02*
X014651Y015018D01*
X014809Y014860D02*
X011707Y014860D01*
X011736Y014831D02*
X011619Y014948D01*
X010784Y014948D01*
X010667Y014831D01*
X010667Y014331D01*
X010784Y014214D01*
X011619Y014214D01*
X011736Y014331D01*
X011736Y014831D01*
X011736Y014701D02*
X014860Y014701D01*
X014860Y014543D02*
X011736Y014543D01*
X011736Y014384D02*
X014860Y014384D01*
X014860Y014226D02*
X011631Y014226D01*
X010772Y014226D02*
X009596Y014226D01*
X009466Y014384D02*
X010667Y014384D01*
X010667Y014543D02*
X009339Y014543D01*
X009211Y014701D02*
X010667Y014701D01*
X010695Y014860D02*
X009083Y014860D01*
X008955Y015018D02*
X009585Y015018D01*
X009486Y015177D02*
X009154Y015177D01*
X009267Y015335D02*
X009486Y015335D01*
X009486Y015494D02*
X009298Y015494D01*
X008924Y015538D02*
X008880Y015494D01*
X008924Y015538D02*
X008924Y015994D01*
X008586Y016128D02*
X008179Y016128D01*
X008100Y016286D02*
X008618Y016286D01*
X009221Y016445D02*
X007981Y016445D01*
X007874Y016603D02*
X009219Y016603D01*
X009219Y016762D02*
X007866Y016762D01*
X007957Y016920D02*
X009219Y016920D01*
X009468Y017122D02*
X009468Y017207D01*
X009468Y017122D01*
X009468Y017122D01*
X009980Y016751D02*
X009980Y016394D01*
X009680Y016094D01*
X009536Y016094D01*
X009436Y015994D01*
X010236Y015938D02*
X010236Y016751D01*
X010236Y015938D02*
X010280Y015894D01*
X010531Y014067D02*
X014860Y014067D01*
X014860Y013909D02*
X010555Y013909D01*
X010555Y013750D02*
X014860Y013750D01*
X014860Y013592D02*
X010555Y013592D01*
X010445Y013433D02*
X014860Y013433D01*
X015500Y013433D02*
X015560Y013433D01*
X015560Y013275D02*
X015500Y013275D01*
X015500Y013116D02*
X015560Y013116D01*
X015560Y012958D02*
X015500Y012958D01*
X015500Y012799D02*
X015560Y012799D01*
X015560Y012641D02*
X015500Y012641D01*
X015500Y012482D02*
X015560Y012482D01*
X015560Y012324D02*
X015500Y012324D01*
X015500Y012165D02*
X015560Y012165D01*
X015560Y012007D02*
X015500Y012007D01*
X015500Y011848D02*
X015560Y011848D01*
X015560Y011690D02*
X015500Y011690D01*
X015500Y011531D02*
X015560Y011531D01*
X015560Y011373D02*
X015500Y011373D01*
X015500Y011214D02*
X015560Y011214D01*
X015560Y011056D02*
X015500Y011056D01*
X015500Y010897D02*
X015560Y010897D01*
X015560Y010739D02*
X015500Y010739D01*
X015500Y010580D02*
X015560Y010580D01*
X015564Y010422D02*
X015500Y010422D01*
X015500Y010263D02*
X015658Y010263D01*
X015500Y010105D02*
X015817Y010105D01*
X015975Y009946D02*
X015500Y009946D01*
X015500Y009788D02*
X016134Y009788D01*
X016292Y009629D02*
X015500Y009629D01*
X015500Y009471D02*
X016621Y009471D01*
X016650Y009392D02*
X016609Y009368D01*
X016576Y009335D01*
X016552Y009294D01*
X016540Y009248D01*
X016540Y009024D01*
X017120Y009024D01*
X017120Y009404D01*
X016696Y009404D01*
X016650Y009392D01*
X016563Y009312D02*
X015500Y009312D01*
X015500Y009154D02*
X016540Y009154D01*
X016540Y008837D02*
X015500Y008837D01*
X015500Y008995D02*
X017120Y008995D01*
X017200Y008995D02*
X019074Y008995D01*
X018967Y009154D02*
X017780Y009154D01*
X017757Y009312D02*
X018967Y009312D01*
X018967Y009471D02*
X017699Y009471D01*
X017200Y009312D02*
X017120Y009312D01*
X017120Y009154D02*
X017200Y009154D01*
X017200Y008837D02*
X017120Y008837D01*
X017120Y008678D02*
X017200Y008678D01*
X016551Y008678D02*
X016345Y008678D01*
X017160Y009894D02*
X019600Y009894D01*
X018967Y010174D02*
X017800Y010174D01*
X017800Y010217D01*
X017683Y010334D01*
X016637Y010334D01*
X016565Y010262D01*
X016200Y010627D01*
X016200Y010916D01*
X016297Y010876D01*
X016463Y010876D01*
X016520Y010900D01*
X016520Y010481D01*
X016637Y010364D01*
X017683Y010364D01*
X017800Y010481D01*
X017800Y011127D01*
X017683Y011244D01*
X017116Y011244D01*
X016896Y011464D01*
X017120Y011464D01*
X017120Y011844D01*
X017200Y011844D01*
X017200Y011464D01*
X017624Y011464D01*
X017669Y011477D01*
X017710Y011500D01*
X017744Y011534D01*
X017768Y011575D01*
X017780Y011621D01*
X017780Y011844D01*
X017200Y011844D01*
X017200Y011924D01*
X017780Y011924D01*
X017780Y012148D01*
X017768Y012194D01*
X017744Y012235D01*
X017710Y012268D01*
X017669Y012292D01*
X017624Y012304D01*
X017200Y012304D01*
X017200Y011924D01*
X017120Y011924D01*
X017120Y011844D01*
X016540Y011844D01*
X016540Y011681D01*
X016463Y011712D01*
X016297Y011712D01*
X016200Y011672D01*
X016200Y012722D01*
X016399Y012523D01*
X016516Y012474D01*
X016520Y012474D01*
X016520Y012471D01*
X016637Y012354D01*
X017683Y012354D01*
X017800Y012471D01*
X017800Y012514D01*
X018967Y012514D01*
X018967Y012003D01*
X019084Y011886D01*
X020116Y011886D01*
X020160Y011930D01*
X020160Y010759D01*
X020116Y010803D01*
X019084Y010803D01*
X018967Y010686D01*
X018967Y010174D01*
X018967Y010263D02*
X017754Y010263D01*
X017740Y010422D02*
X018967Y010422D01*
X018967Y010580D02*
X017800Y010580D01*
X017800Y010739D02*
X019020Y010739D01*
X020160Y010897D02*
X017800Y010897D01*
X017800Y011056D02*
X020160Y011056D01*
X020160Y011214D02*
X017712Y011214D01*
X017741Y011531D02*
X020160Y011531D01*
X020160Y011373D02*
X016987Y011373D01*
X017120Y011531D02*
X017200Y011531D01*
X017200Y011690D02*
X017120Y011690D01*
X017120Y011848D02*
X016200Y011848D01*
X016200Y011690D02*
X016242Y011690D01*
X016518Y011690D02*
X016540Y011690D01*
X016540Y011924D02*
X017120Y011924D01*
X017120Y012304D01*
X016696Y012304D01*
X016650Y012292D01*
X016609Y012268D01*
X016576Y012235D01*
X016552Y012194D01*
X016540Y012148D01*
X016540Y011924D01*
X016540Y012007D02*
X016200Y012007D01*
X016200Y012165D02*
X016545Y012165D01*
X016200Y012324D02*
X018967Y012324D01*
X018967Y012482D02*
X017800Y012482D01*
X017775Y012165D02*
X018967Y012165D01*
X018967Y012007D02*
X017780Y012007D01*
X017780Y011690D02*
X020160Y011690D01*
X020160Y011848D02*
X017200Y011848D01*
X017200Y012007D02*
X017120Y012007D01*
X017120Y012165D02*
X017200Y012165D01*
X017160Y012794D02*
X019600Y012794D01*
X018967Y013116D02*
X017800Y013116D01*
X017693Y013275D02*
X018967Y013275D01*
X018967Y013433D02*
X017800Y013433D01*
X017800Y013592D02*
X018973Y013592D01*
X017800Y013750D02*
X020160Y013750D01*
X020160Y013909D02*
X017800Y013909D01*
X017759Y014067D02*
X020160Y014067D01*
X020160Y014226D02*
X017463Y014226D01*
X017498Y014384D02*
X020160Y014384D01*
X020160Y014543D02*
X017471Y014543D01*
X017364Y014701D02*
X020160Y014701D01*
X020160Y014860D02*
X016700Y014860D01*
X016700Y015018D02*
X020160Y015018D01*
X020160Y015177D02*
X016700Y015177D01*
X016700Y015335D02*
X020160Y015335D01*
X020081Y015494D02*
X016700Y015494D01*
X016775Y015652D02*
X019922Y015652D01*
X019764Y015811D02*
X019507Y015811D01*
X019158Y015811D02*
X017539Y015811D01*
X017779Y015969D02*
X018918Y015969D01*
X018820Y016128D02*
X017877Y016128D01*
X017919Y016286D02*
X018778Y016286D01*
X018778Y016445D02*
X017919Y016445D01*
X017919Y016603D02*
X018778Y016603D01*
X018778Y016762D02*
X017919Y016762D01*
X017919Y016920D02*
X018778Y016920D01*
X018778Y017079D02*
X017919Y017079D01*
X017887Y017237D02*
X018810Y017237D01*
X018894Y017396D02*
X017803Y017396D01*
X017595Y017554D02*
X019102Y017554D01*
X019564Y017554D02*
X020850Y017554D01*
X020850Y017396D02*
X019771Y017396D01*
X019856Y017237D02*
X020850Y017237D01*
X020850Y017079D02*
X019888Y017079D01*
X019888Y016920D02*
X020850Y016920D01*
X020850Y016762D02*
X019888Y016762D01*
X019888Y016603D02*
X020850Y016603D01*
X020850Y016445D02*
X020035Y016445D01*
X020193Y016286D02*
X020850Y016286D01*
X020850Y016128D02*
X020352Y016128D01*
X020510Y015969D02*
X020850Y015969D01*
X020850Y015811D02*
X020669Y015811D01*
X020783Y015652D02*
X020850Y015652D01*
X020850Y015494D02*
X020800Y015494D01*
X020800Y015335D02*
X020850Y015335D01*
X020850Y015177D02*
X020800Y015177D01*
X020800Y015018D02*
X020850Y015018D01*
X020850Y014860D02*
X020800Y014860D01*
X020800Y014701D02*
X020850Y014701D01*
X020850Y014543D02*
X020800Y014543D01*
X020800Y014384D02*
X020850Y014384D01*
X020850Y014226D02*
X020800Y014226D01*
X020800Y014067D02*
X020850Y014067D01*
X020850Y013909D02*
X020800Y013909D01*
X020800Y013750D02*
X020850Y013750D01*
X020850Y013592D02*
X020800Y013592D01*
X020800Y013433D02*
X020850Y013433D01*
X020850Y013275D02*
X020800Y013275D01*
X020800Y013116D02*
X020850Y013116D01*
X020850Y012958D02*
X020800Y012958D01*
X020800Y012799D02*
X020850Y012799D01*
X020850Y012641D02*
X020800Y012641D01*
X020800Y012482D02*
X020850Y012482D01*
X020850Y012324D02*
X020800Y012324D01*
X020800Y012165D02*
X020850Y012165D01*
X020850Y012007D02*
X020800Y012007D01*
X020800Y011848D02*
X020850Y011848D01*
X020850Y011690D02*
X020800Y011690D01*
X020800Y011531D02*
X020850Y011531D01*
X020850Y011373D02*
X020800Y011373D01*
X020800Y011214D02*
X020850Y011214D01*
X020850Y011056D02*
X020800Y011056D01*
X020800Y010897D02*
X020850Y010897D01*
X020850Y010739D02*
X020800Y010739D01*
X020800Y010580D02*
X020850Y010580D01*
X020850Y010422D02*
X020800Y010422D01*
X020800Y010263D02*
X020850Y010263D01*
X020850Y010105D02*
X020800Y010105D01*
X020800Y009946D02*
X020850Y009946D01*
X020850Y009788D02*
X020800Y009788D01*
X020800Y009629D02*
X020850Y009629D01*
X020850Y009471D02*
X020800Y009471D01*
X020800Y009312D02*
X020850Y009312D01*
X020850Y009154D02*
X020800Y009154D01*
X017160Y010804D02*
X016670Y011294D01*
X016380Y011294D01*
X016514Y010897D02*
X016520Y010897D01*
X016520Y010739D02*
X016200Y010739D01*
X016200Y010897D02*
X016246Y010897D01*
X016247Y010580D02*
X016520Y010580D01*
X016579Y010422D02*
X016405Y010422D01*
X016564Y010263D02*
X016566Y010263D01*
X014860Y011214D02*
X014418Y011214D01*
X014661Y011373D02*
X014860Y011373D01*
X014860Y011531D02*
X014808Y011531D01*
X016200Y012482D02*
X016497Y012482D01*
X016281Y012641D02*
X016200Y012641D01*
X015560Y013592D02*
X015500Y013592D01*
X015500Y013750D02*
X015560Y013750D01*
X015560Y013909D02*
X015500Y013909D01*
X015500Y014067D02*
X015560Y014067D01*
X015560Y014226D02*
X015500Y014226D01*
X015500Y014384D02*
X015560Y014384D01*
X015560Y014543D02*
X015500Y014543D01*
X015500Y014701D02*
X015560Y014701D01*
X015560Y014860D02*
X015500Y014860D01*
X015495Y015018D02*
X015560Y015018D01*
X015560Y015177D02*
X015397Y015177D01*
X015239Y015335D02*
X015560Y015335D01*
X015560Y015494D02*
X015080Y015494D01*
X014922Y015652D02*
X015560Y015652D01*
X015221Y015811D02*
X014763Y015811D01*
X014605Y015969D02*
X014981Y015969D01*
X014883Y016128D02*
X014446Y016128D01*
X014288Y016286D02*
X014841Y016286D01*
X014841Y016445D02*
X014129Y016445D01*
X013982Y016603D02*
X014841Y016603D01*
X014841Y016762D02*
X013982Y016762D01*
X013982Y016920D02*
X014841Y016920D01*
X014841Y017079D02*
X013982Y017079D01*
X013950Y017237D02*
X014873Y017237D01*
X014957Y017396D02*
X013866Y017396D01*
X013658Y017554D02*
X015165Y017554D01*
X015627Y017554D02*
X017133Y017554D01*
X016926Y017396D02*
X015834Y017396D01*
X015919Y017237D02*
X016841Y017237D01*
X016809Y017079D02*
X015951Y017079D01*
X015951Y016920D02*
X016809Y016920D01*
X016809Y016762D02*
X015951Y016762D01*
X015951Y016603D02*
X016809Y016603D01*
X016662Y016445D02*
X016098Y016445D01*
X016195Y016286D02*
X016504Y016286D01*
X016345Y016128D02*
X016200Y016128D01*
X016933Y015811D02*
X017190Y015811D01*
X016796Y014701D02*
X016700Y014701D01*
X017080Y014394D02*
X017160Y014314D01*
X017160Y013704D01*
X013858Y015811D02*
X013602Y015811D01*
X010685Y013275D02*
X010391Y013275D01*
X010482Y013116D02*
X010667Y013116D01*
X010667Y012958D02*
X010498Y012958D01*
X010452Y012799D02*
X010667Y012799D01*
X010782Y012641D02*
X010318Y012641D01*
X009100Y012641D02*
X008464Y012641D01*
X008470Y012635D02*
X008470Y012635D01*
X008623Y012482D02*
X009100Y012482D01*
X009080Y012494D02*
X009080Y011718D01*
X008884Y011522D01*
X008884Y011522D01*
X008735Y011373D02*
X008735Y011373D01*
X009080Y011294D02*
X009086Y011300D01*
X009080Y011294D02*
X008180Y010394D01*
X008887Y010075D02*
X009167Y009794D01*
X009780Y009794D01*
X010164Y009629D02*
X010667Y009629D01*
X010667Y009606D02*
X010784Y009489D01*
X011619Y009489D01*
X011736Y009606D01*
X011736Y010107D01*
X011619Y010224D01*
X010784Y010224D01*
X010667Y010107D01*
X010667Y009606D01*
X010667Y009788D02*
X010198Y009788D01*
X010170Y009946D02*
X010667Y009946D01*
X010667Y010105D02*
X010061Y010105D01*
X010048Y009471D02*
X013760Y009471D01*
X013760Y009629D02*
X011736Y009629D01*
X011736Y009788D02*
X013734Y009788D01*
X013575Y009946D02*
X011736Y009946D01*
X011736Y010105D02*
X013417Y010105D01*
X013760Y009312D02*
X010555Y009312D01*
X010555Y009154D02*
X013760Y009154D01*
X013760Y008995D02*
X010555Y008995D01*
X010555Y008837D02*
X013760Y008837D01*
X013760Y008678D02*
X009198Y008678D01*
X009198Y008520D02*
X010667Y008520D01*
X010667Y008532D02*
X010667Y008031D01*
X010784Y007914D01*
X011619Y007914D01*
X011736Y008031D01*
X011736Y008532D01*
X011619Y008649D01*
X010784Y008649D01*
X010667Y008532D01*
X010667Y008361D02*
X009136Y008361D01*
X008927Y008203D02*
X010667Y008203D01*
X010667Y008044D02*
X007562Y008044D01*
X007405Y007886D02*
X013760Y007886D01*
X013760Y008044D02*
X011736Y008044D01*
X011736Y008203D02*
X013760Y008203D01*
X013760Y008361D02*
X011736Y008361D01*
X011736Y008520D02*
X013760Y008520D01*
X013760Y007727D02*
X008043Y007727D01*
X008201Y007569D02*
X013760Y007569D01*
X013707Y006776D02*
X013425Y006776D01*
X013537Y006618D02*
X013601Y006618D01*
X013100Y006618D02*
X013060Y006618D01*
X013060Y006776D02*
X013100Y006776D01*
X013100Y006459D02*
X013060Y006459D01*
X013060Y006301D02*
X013100Y006301D01*
X013100Y006142D02*
X013060Y006142D01*
X014453Y006776D02*
X014707Y006776D01*
X014601Y006618D02*
X014559Y006618D01*
X009486Y008837D02*
X009129Y008837D01*
X008780Y008845D02*
X008780Y008594D01*
X008780Y008845D02*
X008220Y009405D01*
X008442Y009629D02*
X008776Y009294D01*
X009080Y009294D01*
X009372Y008995D02*
X009486Y008995D01*
X009474Y009154D02*
X009486Y009154D01*
X008393Y008837D02*
X008352Y008837D01*
X008362Y008678D02*
X008194Y008678D01*
X008036Y008520D02*
X008362Y008520D01*
X008424Y008361D02*
X007878Y008361D01*
X007776Y008258D02*
X007776Y008258D01*
X007720Y008203D02*
X008633Y008203D01*
X007998Y008481D02*
X007998Y008481D01*
X008111Y007150D02*
X008008Y007047D01*
X007434Y007093D02*
X007126Y007093D01*
X007126Y006935D02*
X007434Y006935D01*
X007434Y006776D02*
X007126Y006776D01*
X007107Y006459D02*
X007453Y006459D01*
X007434Y006301D02*
X007126Y006301D01*
X007126Y006142D02*
X007434Y006142D01*
X007434Y005984D02*
X007126Y005984D01*
X007109Y005825D02*
X007451Y005825D01*
X006608Y006618D02*
X008523Y006618D01*
X008880Y006618D02*
X008880Y006618D01*
X008880Y006459D02*
X008880Y006459D01*
X009109Y010298D02*
X009109Y010298D01*
X007737Y011966D02*
X007737Y011966D01*
X008305Y012799D02*
X009100Y012799D01*
X009060Y012958D02*
X008146Y012958D01*
X008247Y012857D02*
X008247Y012857D01*
X007986Y013116D02*
X009084Y013116D01*
X009100Y013275D02*
X007915Y013275D01*
X008073Y013433D02*
X009100Y013433D01*
X009100Y013592D02*
X008225Y013592D01*
X008220Y013580D02*
X008220Y013580D01*
X008262Y013683D02*
X008262Y013683D01*
X008262Y013750D02*
X009100Y013750D01*
X009100Y013909D02*
X008261Y013909D01*
X008357Y014067D02*
X009003Y014067D01*
X009100Y012324D02*
X008782Y012324D01*
X008916Y012190D02*
X008916Y012190D01*
X008941Y012165D02*
X009100Y012165D01*
X005652Y013298D02*
X005380Y013570D01*
X005067Y013438D02*
X005429Y013075D01*
X005067Y013438D02*
X004980Y013438D01*
X004980Y013950D02*
X004980Y014494D01*
X004462Y015018D02*
X004111Y015018D01*
X004137Y015177D02*
X004503Y015177D01*
X004630Y015335D02*
X004163Y015335D01*
X004436Y015494D02*
X004436Y015494D01*
X004436Y015652D02*
X004436Y015652D01*
X003656Y016128D02*
X003477Y016128D01*
X003484Y016286D02*
X003656Y016286D01*
X003087Y016286D02*
X002971Y016286D01*
X002971Y016436D02*
X002573Y016436D01*
X002573Y016156D01*
X002585Y016110D01*
X002609Y016069D01*
X002581Y016128D02*
X000380Y016128D01*
X000380Y016286D02*
X002573Y016286D01*
X002971Y016128D02*
X003087Y016128D01*
X003185Y017237D02*
X003185Y017237D01*
X003185Y017396D02*
X003185Y017396D01*
X003185Y017554D02*
X003185Y017554D01*
X003185Y017713D02*
X003185Y017713D01*
X003423Y017713D02*
X003496Y017713D01*
X004133Y017237D02*
X004632Y017237D01*
X004632Y017079D02*
X004058Y017079D01*
X004579Y016920D02*
X005676Y016920D01*
X005676Y016894D02*
X006092Y016894D01*
X005676Y016894D01*
X005676Y016762D02*
X005682Y016738D01*
X005656Y016711D01*
X005656Y017079D02*
X005504Y017079D01*
X005504Y017237D02*
X005656Y017237D01*
X006092Y017268D02*
X006406Y017268D01*
X006580Y017094D01*
X006092Y016894D02*
X006092Y016894D01*
X005656Y016445D02*
X005504Y016445D01*
X005462Y016286D02*
X005692Y016286D01*
X007024Y016286D02*
X007024Y016286D01*
X007024Y016445D02*
X007024Y016445D01*
X008325Y017396D02*
X008485Y017396D01*
X008485Y017554D02*
X008325Y017554D01*
X008325Y017713D02*
X008485Y017713D01*
X007871Y018030D02*
X000390Y018030D01*
X000379Y017994D02*
X000379Y017994D01*
X000476Y018188D02*
X007871Y018188D01*
X003436Y014384D02*
X003436Y014384D01*
X003436Y014226D02*
X003436Y014226D01*
X001380Y012894D02*
X001380Y012240D01*
X001359Y012219D01*
X000782Y013592D02*
X000380Y013592D01*
X000380Y013750D02*
X000824Y013750D01*
X000824Y013909D02*
X000380Y013909D01*
X000380Y014067D02*
X000848Y014067D01*
D29*
X001380Y012894D03*
X002380Y013594D03*
X003480Y012094D03*
X004480Y011194D03*
X005080Y011394D03*
X005680Y012294D03*
X006080Y010394D03*
X005680Y009894D03*
X006980Y010394D03*
X008780Y008594D03*
X009080Y009294D03*
X009780Y009794D03*
X011780Y012194D03*
X010080Y012994D03*
X008880Y015494D03*
X010280Y015894D03*
X010880Y016194D03*
X016380Y011294D03*
X019680Y011394D03*
X017080Y014394D03*
X016180Y008294D03*
X006380Y007694D03*
X005680Y007194D03*
X003880Y008694D03*
X002580Y009194D03*
X004980Y014494D03*
X004880Y014994D03*
D30*
X004580Y014694D01*
X004580Y013294D01*
X004780Y013094D01*
X004965Y013094D01*
X005207Y012852D01*
X004985Y012629D02*
X004945Y012629D01*
X004280Y013294D01*
X005080Y011394D02*
X005080Y011194D01*
X004580Y010694D01*
X004147Y010794D01*
X003651Y011291D01*
X003876Y010066D02*
X003504Y009694D01*
X003280Y009694D01*
X003024Y009438D01*
X003024Y009214D01*
X003080Y008594D02*
X001836Y008594D01*
X001536Y008294D01*
X001024Y008294D02*
X001024Y007806D01*
X001080Y007750D01*
X001024Y008294D02*
X000780Y008538D01*
X000780Y013194D01*
X001220Y013634D01*
X001220Y013654D01*
X006580Y009194D02*
X007180Y009794D01*
X007180Y009994D01*
X006980Y010194D01*
X006980Y010394D01*
X008180Y010394D02*
X006780Y008994D01*
X006780Y008618D01*
X007108Y008290D01*
X006886Y008067D02*
X006580Y008373D01*
X006580Y009194D01*
X005661Y008287D02*
X005467Y008094D01*
X005884Y008065D02*
X005413Y007594D01*
X005136Y007594D01*
X003180Y008094D02*
X003180Y008494D01*
X003080Y008594D01*
X009080Y011294D02*
X009107Y011300D01*
D31*
X009380Y014045D02*
X009380Y014094D01*
X005437Y008510D02*
X005222Y008294D01*
X003480Y008294D01*
X003380Y008394D01*
X003380Y008594D01*
X003180Y008794D01*
X002280Y008794D01*
X001980Y008994D01*
X001980Y014121D01*
X002540Y014581D01*
X003180Y008094D02*
X005467Y008094D01*
D32*
X005280Y011894D02*
X004829Y011894D01*
X004540Y012183D01*
X005280Y011894D02*
X005680Y012294D01*
X005980Y012594D01*
X005980Y012994D01*
X005676Y013298D01*
X005652Y013298D01*
X009380Y012994D02*
X010080Y012994D01*
X011780Y012194D02*
X014080Y009894D01*
X014080Y006094D01*
X015080Y006094D02*
X015480Y006094D01*
X016080Y005494D01*
X019880Y005494D01*
X020480Y006094D01*
X020480Y015547D01*
X019333Y016694D01*
X017364Y016694D02*
X016380Y015710D01*
X016380Y012994D01*
X016580Y012794D01*
X017160Y012794D01*
X015880Y010494D02*
X015880Y016210D01*
X015396Y016694D01*
X015180Y014941D02*
X013427Y016694D01*
X015180Y014941D02*
X015180Y007994D01*
X016380Y006794D01*
X017160Y006994D01*
X017160Y009894D02*
X016480Y009894D01*
X015880Y010494D01*
X010880Y016194D02*
X010492Y016582D01*
X010492Y016751D01*
M02*
