G75*
G70*
%OFA0B0*%
%FSLAX24Y24*%
%IPPOS*%
%LPD*%
%AMOC8*
5,1,8,0,0,1.08239X$1,22.5*
%
%ADD10R,0.0276X0.0354*%
%ADD11R,0.0551X0.0630*%
%ADD12R,0.0354X0.0276*%
%ADD13R,0.0315X0.0315*%
%ADD14R,0.0591X0.0197*%
%ADD15R,0.0197X0.0591*%
%ADD16R,0.0748X0.0433*%
%ADD17R,0.0709X0.0394*%
%ADD18R,0.0472X0.0217*%
%ADD19R,0.0138X0.0551*%
%ADD20R,0.0709X0.0748*%
%ADD21R,0.0669X0.0335*%
%ADD22R,0.0880X0.0480*%
%ADD23R,0.0866X0.1417*%
D10*
X004624Y007594D03*
X005136Y007594D03*
X003536Y009194D03*
X003024Y009194D03*
X001536Y008294D03*
X001024Y008294D03*
X002924Y013594D03*
X002924Y014094D03*
X003436Y014094D03*
X003436Y013594D03*
X003924Y015694D03*
X004436Y015694D03*
X006724Y014494D03*
X007236Y014494D03*
X008924Y015994D03*
X009436Y015994D03*
X007536Y016494D03*
X007024Y016494D03*
D11*
X007029Y015594D03*
X008131Y015594D03*
X004131Y016494D03*
X003029Y016494D03*
D12*
X003780Y015250D03*
X003780Y014738D03*
X004980Y013950D03*
X004980Y013438D03*
X007980Y014238D03*
X007980Y014750D03*
X007580Y017138D03*
X007580Y017650D03*
X001080Y007750D03*
X001080Y007238D03*
X005680Y006650D03*
X005680Y006138D03*
X008880Y006638D03*
X008880Y007150D03*
D13*
X004980Y005799D03*
X004980Y006389D03*
X003775Y017394D03*
X003185Y017394D03*
D14*
G36*
X006013Y013245D02*
X005596Y013660D01*
X005735Y013799D01*
X006152Y013384D01*
X006013Y013245D01*
G37*
G36*
X005791Y013021D02*
X005374Y013436D01*
X005513Y013575D01*
X005930Y013160D01*
X005791Y013021D01*
G37*
G36*
X005568Y012798D02*
X005151Y013213D01*
X005290Y013352D01*
X005707Y012937D01*
X005568Y012798D01*
G37*
G36*
X005346Y012575D02*
X004929Y012990D01*
X005068Y013129D01*
X005485Y012714D01*
X005346Y012575D01*
G37*
G36*
X005124Y012352D02*
X004707Y012767D01*
X004846Y012906D01*
X005263Y012491D01*
X005124Y012352D01*
G37*
G36*
X004902Y012129D02*
X004485Y012544D01*
X004624Y012683D01*
X005041Y012268D01*
X004902Y012129D01*
G37*
G36*
X004679Y011906D02*
X004262Y012321D01*
X004401Y012460D01*
X004818Y012045D01*
X004679Y011906D01*
G37*
G36*
X004457Y011683D02*
X004040Y012098D01*
X004179Y012237D01*
X004596Y011822D01*
X004457Y011683D01*
G37*
G36*
X004235Y011460D02*
X003818Y011875D01*
X003957Y012014D01*
X004374Y011599D01*
X004235Y011460D01*
G37*
G36*
X004012Y011237D02*
X003595Y011652D01*
X003734Y011791D01*
X004151Y011376D01*
X004012Y011237D01*
G37*
G36*
X003790Y011014D02*
X003373Y011429D01*
X003512Y011568D01*
X003929Y011153D01*
X003790Y011014D01*
G37*
G36*
X007025Y007790D02*
X006608Y008205D01*
X006747Y008344D01*
X007164Y007929D01*
X007025Y007790D01*
G37*
G36*
X007247Y008013D02*
X006830Y008428D01*
X006969Y008567D01*
X007386Y008152D01*
X007247Y008013D01*
G37*
G36*
X007470Y008236D02*
X007053Y008651D01*
X007192Y008790D01*
X007609Y008375D01*
X007470Y008236D01*
G37*
G36*
X007692Y008459D02*
X007275Y008874D01*
X007414Y009013D01*
X007831Y008598D01*
X007692Y008459D01*
G37*
G36*
X007914Y008682D02*
X007497Y009097D01*
X007636Y009236D01*
X008053Y008821D01*
X007914Y008682D01*
G37*
G36*
X008136Y008905D02*
X007719Y009320D01*
X007858Y009459D01*
X008275Y009044D01*
X008136Y008905D01*
G37*
G36*
X008359Y009128D02*
X007942Y009543D01*
X008081Y009682D01*
X008498Y009267D01*
X008359Y009128D01*
G37*
G36*
X008581Y009352D02*
X008164Y009767D01*
X008303Y009906D01*
X008720Y009491D01*
X008581Y009352D01*
G37*
G36*
X008803Y009575D02*
X008386Y009990D01*
X008525Y010129D01*
X008942Y009714D01*
X008803Y009575D01*
G37*
G36*
X009026Y009798D02*
X008609Y010213D01*
X008748Y010352D01*
X009165Y009937D01*
X009026Y009798D01*
G37*
G36*
X009248Y010021D02*
X008831Y010436D01*
X008970Y010575D01*
X009387Y010160D01*
X009248Y010021D01*
G37*
D15*
G36*
X008969Y011022D02*
X008830Y011161D01*
X009245Y011578D01*
X009384Y011439D01*
X008969Y011022D01*
G37*
G36*
X008746Y011244D02*
X008607Y011383D01*
X009022Y011800D01*
X009161Y011661D01*
X008746Y011244D01*
G37*
G36*
X008523Y011467D02*
X008384Y011606D01*
X008799Y012023D01*
X008938Y011884D01*
X008523Y011467D01*
G37*
G36*
X008300Y011689D02*
X008161Y011828D01*
X008576Y012245D01*
X008715Y012106D01*
X008300Y011689D01*
G37*
G36*
X008077Y011911D02*
X007938Y012050D01*
X008353Y012467D01*
X008492Y012328D01*
X008077Y011911D01*
G37*
G36*
X007854Y012134D02*
X007715Y012273D01*
X008130Y012690D01*
X008269Y012551D01*
X007854Y012134D01*
G37*
G36*
X007631Y012356D02*
X007492Y012495D01*
X007907Y012912D01*
X008046Y012773D01*
X007631Y012356D01*
G37*
G36*
X007408Y012578D02*
X007269Y012717D01*
X007684Y013134D01*
X007823Y012995D01*
X007408Y012578D01*
G37*
G36*
X007185Y012801D02*
X007046Y012940D01*
X007461Y013357D01*
X007600Y013218D01*
X007185Y012801D01*
G37*
G36*
X006961Y013023D02*
X006822Y013162D01*
X007237Y013579D01*
X007376Y013440D01*
X006961Y013023D01*
G37*
G36*
X006738Y013245D02*
X006599Y013384D01*
X007014Y013801D01*
X007153Y013662D01*
X006738Y013245D01*
G37*
G36*
X003515Y010010D02*
X003376Y010149D01*
X003791Y010566D01*
X003930Y010427D01*
X003515Y010010D01*
G37*
G36*
X003738Y009788D02*
X003599Y009927D01*
X004014Y010344D01*
X004153Y010205D01*
X003738Y009788D01*
G37*
G36*
X003961Y009566D02*
X003822Y009705D01*
X004237Y010122D01*
X004376Y009983D01*
X003961Y009566D01*
G37*
G36*
X004184Y009343D02*
X004045Y009482D01*
X004460Y009899D01*
X004599Y009760D01*
X004184Y009343D01*
G37*
G36*
X004407Y009121D02*
X004268Y009260D01*
X004683Y009677D01*
X004822Y009538D01*
X004407Y009121D01*
G37*
G36*
X004630Y008899D02*
X004491Y009038D01*
X004906Y009455D01*
X005045Y009316D01*
X004630Y008899D01*
G37*
G36*
X004853Y008676D02*
X004714Y008815D01*
X005129Y009232D01*
X005268Y009093D01*
X004853Y008676D01*
G37*
G36*
X005076Y008454D02*
X004937Y008593D01*
X005352Y009010D01*
X005491Y008871D01*
X005076Y008454D01*
G37*
G36*
X005299Y008232D02*
X005160Y008371D01*
X005575Y008788D01*
X005714Y008649D01*
X005299Y008232D01*
G37*
G36*
X005523Y008009D02*
X005384Y008148D01*
X005799Y008565D01*
X005938Y008426D01*
X005523Y008009D01*
G37*
G36*
X005746Y007787D02*
X005607Y007926D01*
X006022Y008343D01*
X006161Y008204D01*
X005746Y007787D01*
G37*
D16*
X006552Y007047D03*
X006552Y006141D03*
X008008Y006141D03*
X008008Y007047D03*
D17*
X005880Y014443D03*
X005880Y015545D03*
D18*
X006092Y016520D03*
X006092Y016894D03*
X006092Y017268D03*
X005068Y017268D03*
X005068Y016520D03*
D19*
X009468Y016751D03*
X009724Y016751D03*
X009980Y016751D03*
X010236Y016751D03*
X010492Y016751D03*
D20*
X011555Y017794D03*
X008405Y017794D03*
D21*
X010020Y015368D03*
X011201Y014581D03*
X010020Y013793D03*
X011201Y013006D03*
X010020Y012219D03*
X011201Y011431D03*
X010020Y010644D03*
X011201Y009856D03*
X010020Y009069D03*
X011201Y008282D03*
X002540Y008282D03*
X001359Y009069D03*
X002540Y009856D03*
X001359Y010644D03*
X002540Y011431D03*
X001359Y012219D03*
X002540Y013006D03*
X001359Y013793D03*
X002540Y014581D03*
X001359Y015368D03*
D22*
X017160Y013704D03*
X017160Y012794D03*
X017160Y011884D03*
X017160Y010804D03*
X017160Y009894D03*
X017160Y008984D03*
X017160Y007904D03*
X017160Y006994D03*
X017160Y006084D03*
D23*
X019600Y006994D03*
X019600Y009894D03*
X019600Y012794D03*
M02*
