G75*
G70*
%OFA0B0*%
%FSLAX24Y24*%
%IPPOS*%
%LPD*%
%AMOC8*
5,1,8,0,0,1.08239X$1,22.5*
%
%ADD10C,0.0010*%
%ADD11C,0.0160*%
%ADD12C,0.0080*%
%ADD13C,0.0050*%
%ADD14R,0.0280X0.0160*%
%ADD15R,0.0160X0.0280*%
%ADD16C,0.0100*%
%ADD17C,0.0060*%
%ADD18C,0.0020*%
%ADD19C,0.0040*%
%ADD20R,0.0500X0.0350*%
D10*
X004623Y005439D02*
X004673Y005439D01*
X004698Y005464D01*
X004698Y005514D01*
X004648Y005514D01*
X004598Y005464D02*
X004623Y005439D01*
X004598Y005464D02*
X004598Y005564D01*
X004623Y005589D01*
X004673Y005589D01*
X004698Y005564D01*
X004745Y005539D02*
X004745Y005439D01*
X004745Y005489D02*
X004795Y005539D01*
X004820Y005539D01*
X004868Y005514D02*
X004893Y005539D01*
X004943Y005539D01*
X004968Y005514D01*
X004968Y005489D01*
X004868Y005489D01*
X004868Y005464D02*
X004868Y005514D01*
X004868Y005464D02*
X004893Y005439D01*
X004943Y005439D01*
X005015Y005464D02*
X005015Y005514D01*
X005040Y005539D01*
X005090Y005539D01*
X005115Y005514D01*
X005115Y005489D01*
X005015Y005489D01*
X005015Y005464D02*
X005040Y005439D01*
X005090Y005439D01*
X005163Y005439D02*
X005163Y005539D01*
X005238Y005539D01*
X005263Y005514D01*
X005263Y005439D01*
X004700Y005799D02*
X004550Y005799D01*
X004550Y005749D02*
X004550Y005849D01*
X004550Y005897D02*
X004700Y005997D01*
X004700Y005897D02*
X004550Y005997D01*
X005235Y006260D02*
X005260Y006235D01*
X005235Y006260D02*
X005235Y006310D01*
X005260Y006335D01*
X005285Y006335D01*
X005385Y006235D01*
X005385Y006335D01*
X005385Y006382D02*
X005285Y006482D01*
X005260Y006482D01*
X005235Y006457D01*
X005235Y006407D01*
X005260Y006382D01*
X005385Y006382D02*
X005385Y006482D01*
X005385Y006530D02*
X005385Y006605D01*
X005360Y006630D01*
X005310Y006630D01*
X005285Y006605D01*
X005285Y006530D01*
X005435Y006530D01*
X005385Y006677D02*
X005235Y006677D01*
X005235Y006777D01*
X005310Y006727D02*
X005310Y006677D01*
X005960Y006677D02*
X006035Y006602D01*
X006035Y006702D01*
X006110Y006677D02*
X005960Y006677D01*
X005985Y006555D02*
X005960Y006530D01*
X005960Y006480D01*
X005985Y006455D01*
X006085Y006455D01*
X006110Y006480D01*
X006110Y006530D01*
X006085Y006555D01*
X006335Y005749D02*
X006335Y005599D01*
X006285Y005599D02*
X006385Y005599D01*
X006432Y005624D02*
X006457Y005599D01*
X006507Y005599D01*
X006532Y005624D01*
X006532Y005649D01*
X006507Y005674D01*
X006432Y005674D01*
X006432Y005624D01*
X006432Y005674D02*
X006482Y005724D01*
X006532Y005749D01*
X006580Y005749D02*
X006630Y005699D01*
X006680Y005749D01*
X006680Y005599D01*
X006727Y005599D02*
X006727Y005749D01*
X006727Y005674D02*
X006827Y005674D01*
X006874Y005699D02*
X006974Y005699D01*
X006874Y005599D01*
X006974Y005599D01*
X006827Y005599D02*
X006827Y005749D01*
X006580Y005749D02*
X006580Y005599D01*
X006335Y005749D02*
X006285Y005699D01*
X008435Y006760D02*
X008460Y006735D01*
X008435Y006760D02*
X008435Y006810D01*
X008460Y006835D01*
X008485Y006835D01*
X008585Y006735D01*
X008585Y006835D01*
X008585Y006882D02*
X008485Y006982D01*
X008460Y006982D01*
X008435Y006957D01*
X008435Y006907D01*
X008460Y006882D01*
X008585Y006882D02*
X008585Y006982D01*
X008585Y007030D02*
X008585Y007105D01*
X008560Y007130D01*
X008510Y007130D01*
X008485Y007105D01*
X008485Y007030D01*
X008635Y007030D01*
X008585Y007177D02*
X008435Y007177D01*
X008435Y007277D01*
X008510Y007227D02*
X008510Y007177D01*
X009160Y007177D02*
X009160Y007127D01*
X009185Y007102D01*
X009185Y007055D02*
X009160Y007030D01*
X009160Y006980D01*
X009185Y006955D01*
X009285Y006955D01*
X009310Y006980D01*
X009310Y007030D01*
X009285Y007055D01*
X009310Y007102D02*
X009210Y007202D01*
X009185Y007202D01*
X009160Y007177D01*
X009310Y007202D02*
X009310Y007102D01*
X009105Y005574D02*
X009105Y005549D01*
X009105Y005499D02*
X009105Y005399D01*
X009080Y005399D02*
X009130Y005399D01*
X009203Y005399D02*
X009203Y005524D01*
X009228Y005549D01*
X009228Y005474D02*
X009178Y005474D01*
X009105Y005499D02*
X009080Y005499D01*
X009032Y005474D02*
X009032Y005449D01*
X008932Y005449D01*
X008932Y005424D02*
X008932Y005474D01*
X008957Y005499D01*
X009007Y005499D01*
X009032Y005474D01*
X009007Y005399D02*
X008957Y005399D01*
X008932Y005424D01*
X008885Y005399D02*
X008785Y005399D01*
X008785Y005549D01*
X009423Y005549D02*
X009423Y005399D01*
X009423Y005449D02*
X009498Y005449D01*
X009523Y005474D01*
X009523Y005524D01*
X009498Y005549D01*
X009423Y005549D01*
X009571Y005474D02*
X009571Y005424D01*
X009596Y005399D01*
X009646Y005399D01*
X009671Y005449D02*
X009571Y005449D01*
X009571Y005474D02*
X009596Y005499D01*
X009646Y005499D01*
X009671Y005474D01*
X009671Y005449D01*
X009718Y005449D02*
X009768Y005499D01*
X009793Y005499D01*
X009841Y005474D02*
X009841Y005424D01*
X009866Y005399D01*
X009941Y005399D01*
X009988Y005399D02*
X010038Y005399D01*
X010013Y005399D02*
X010013Y005499D01*
X009988Y005499D01*
X009941Y005499D02*
X009866Y005499D01*
X009841Y005474D01*
X009718Y005499D02*
X009718Y005399D01*
X010013Y005549D02*
X010013Y005574D01*
X010111Y005524D02*
X010136Y005549D01*
X010111Y005524D02*
X010111Y005399D01*
X010185Y005399D02*
X010235Y005399D01*
X010210Y005399D02*
X010210Y005499D01*
X010185Y005499D01*
X010136Y005474D02*
X010086Y005474D01*
X010210Y005549D02*
X010210Y005574D01*
X010308Y005499D02*
X010358Y005499D01*
X010383Y005474D01*
X010383Y005449D01*
X010283Y005449D01*
X010283Y005424D02*
X010283Y005474D01*
X010308Y005499D01*
X010283Y005424D02*
X010308Y005399D01*
X010358Y005399D01*
X010430Y005399D02*
X010480Y005399D01*
X010455Y005399D02*
X010455Y005549D01*
X010430Y005549D01*
X010528Y005474D02*
X010553Y005499D01*
X010628Y005499D01*
X010628Y005549D02*
X010628Y005399D01*
X010553Y005399D01*
X010528Y005424D01*
X010528Y005474D01*
X007093Y011749D02*
X007022Y011820D01*
X007129Y011820D01*
X007023Y011714D01*
X006954Y011818D02*
X007042Y011907D01*
X006971Y011977D02*
X006883Y011889D01*
X006883Y011853D01*
X006918Y011818D01*
X006954Y011818D01*
X006832Y011904D02*
X006761Y011975D01*
X006902Y011975D01*
X006920Y011993D01*
X006920Y012028D01*
X006884Y012064D01*
X006849Y012063D01*
X006816Y012097D02*
X006798Y012079D01*
X006762Y012079D01*
X006763Y012044D01*
X006745Y012026D01*
X006709Y012026D01*
X006674Y012061D01*
X006674Y012097D01*
X006623Y012112D02*
X006694Y012183D01*
X006693Y012254D01*
X006623Y012254D01*
X006552Y012183D01*
X006536Y012234D02*
X006571Y012269D01*
X006536Y012305D01*
X006536Y012375D02*
X006465Y012305D01*
X006465Y012269D01*
X006501Y012234D01*
X006536Y012234D01*
X006605Y012236D02*
X006676Y012165D01*
X006745Y012167D02*
X006780Y012168D01*
X006815Y012132D01*
X006816Y012097D01*
X006762Y012079D02*
X006745Y012097D01*
X006607Y012305D02*
X006607Y012340D01*
X006571Y012376D01*
X006536Y012375D01*
X006520Y012427D02*
X006449Y012497D01*
X006343Y012391D01*
X006414Y012320D01*
X006432Y012409D02*
X006396Y012444D01*
X006310Y012424D02*
X006416Y012531D01*
X006345Y012530D01*
X006345Y012601D01*
X006239Y012495D01*
X006170Y012563D02*
X006276Y012670D01*
X006241Y012705D02*
X006311Y012635D01*
X006172Y012703D02*
X006101Y012632D01*
X006154Y012685D02*
X006083Y012756D01*
X006101Y012774D02*
X006172Y012774D01*
X006172Y012703D01*
X006101Y012774D02*
X006030Y012703D01*
X004725Y013374D02*
X004625Y013474D01*
X004600Y013474D01*
X004575Y013449D01*
X004575Y013399D01*
X004600Y013374D01*
X004725Y013374D02*
X004725Y013474D01*
X004725Y013522D02*
X004625Y013622D01*
X004600Y013622D01*
X004575Y013597D01*
X004575Y013547D01*
X004600Y013522D01*
X004725Y013522D02*
X004725Y013622D01*
X004700Y013849D02*
X004550Y013849D01*
X004550Y013924D01*
X004575Y013949D01*
X004625Y013949D01*
X004650Y013924D01*
X004650Y013849D01*
X004650Y013899D02*
X004700Y013949D01*
X004700Y013997D02*
X004675Y013997D01*
X004575Y014097D01*
X004550Y014097D01*
X004550Y013997D01*
X004185Y014555D02*
X004210Y014580D01*
X004210Y014630D01*
X004185Y014655D01*
X004185Y014702D02*
X004210Y014727D01*
X004210Y014777D01*
X004185Y014802D01*
X004135Y014802D01*
X004110Y014777D01*
X004110Y014752D01*
X004135Y014702D01*
X004060Y014702D01*
X004060Y014802D01*
X004085Y014655D02*
X004060Y014630D01*
X004060Y014580D01*
X004085Y014555D01*
X004185Y014555D01*
X004185Y014982D02*
X004185Y015082D01*
X004185Y015032D02*
X004035Y015032D01*
X004085Y014982D01*
X004085Y015130D02*
X004160Y015130D01*
X004185Y015155D01*
X004185Y015230D01*
X004085Y015230D01*
X004110Y015277D02*
X004110Y015327D01*
X004185Y015277D02*
X004035Y015277D01*
X004035Y015377D01*
X004365Y015964D02*
X004415Y015964D01*
X004440Y015989D01*
X004488Y015989D02*
X004513Y015964D01*
X004563Y015964D01*
X004588Y015989D01*
X004588Y016089D01*
X004563Y016114D01*
X004513Y016114D01*
X004488Y016089D01*
X004488Y016064D01*
X004513Y016039D01*
X004588Y016039D01*
X004547Y016014D02*
X004647Y016114D01*
X004647Y016014D01*
X004622Y015989D01*
X004572Y015989D01*
X004547Y016014D01*
X004547Y016114D01*
X004572Y016139D01*
X004622Y016139D01*
X004647Y016114D01*
X004694Y016014D02*
X004719Y016014D01*
X004719Y015989D01*
X004694Y015989D01*
X004694Y016014D01*
X004768Y015989D02*
X004868Y015989D01*
X004818Y015989D02*
X004818Y016139D01*
X004768Y016089D01*
X004915Y016089D02*
X004915Y016014D01*
X004940Y015989D01*
X005015Y015989D01*
X005015Y016089D01*
X005063Y016064D02*
X005113Y016064D01*
X005063Y015989D02*
X005063Y016139D01*
X005163Y016139D01*
X004440Y016089D02*
X004415Y016114D01*
X004365Y016114D01*
X004340Y016089D01*
X004340Y015989D01*
X004365Y015964D01*
X004188Y017024D02*
X004188Y017174D01*
X004288Y017174D01*
X004238Y017099D02*
X004188Y017099D01*
X004140Y017124D02*
X004140Y017024D01*
X004065Y017024D01*
X004040Y017049D01*
X004040Y017124D01*
X003993Y017149D02*
X003893Y017049D01*
X003918Y017024D01*
X003968Y017024D01*
X003993Y017049D01*
X003993Y017149D01*
X003968Y017174D01*
X003918Y017174D01*
X003893Y017149D01*
X003893Y017049D01*
X003846Y017024D02*
X003746Y017024D01*
X003796Y017024D02*
X003796Y017174D01*
X003746Y017124D01*
X003288Y017664D02*
X003238Y017714D01*
X003263Y017714D02*
X003188Y017714D01*
X003188Y017664D02*
X003188Y017814D01*
X003263Y017814D01*
X003288Y017789D01*
X003288Y017739D01*
X003263Y017714D01*
X003140Y017664D02*
X003040Y017664D01*
X003040Y017814D01*
X003140Y017814D01*
X003090Y017739D02*
X003040Y017739D01*
X002993Y017664D02*
X002993Y017814D01*
X002893Y017814D02*
X002893Y017664D01*
X002943Y017714D01*
X002993Y017664D01*
X002846Y017689D02*
X002846Y017789D01*
X002821Y017814D01*
X002771Y017814D01*
X002746Y017789D01*
X002746Y017689D01*
X002771Y017664D01*
X002821Y017664D01*
X002846Y017689D01*
X002698Y017739D02*
X002673Y017714D01*
X002598Y017714D01*
X002598Y017664D02*
X002598Y017814D01*
X002673Y017814D01*
X002698Y017789D01*
X002698Y017739D01*
X002707Y017193D02*
X002732Y017168D01*
X002732Y017143D01*
X002707Y017118D01*
X002657Y017118D01*
X002632Y017143D01*
X002632Y017168D01*
X002657Y017193D01*
X002707Y017193D01*
X002707Y017118D02*
X002732Y017093D01*
X002732Y017068D01*
X002707Y017043D01*
X002657Y017043D01*
X002632Y017068D01*
X002632Y017093D01*
X002657Y017118D01*
X002585Y017168D02*
X002560Y017193D01*
X002510Y017193D01*
X002485Y017168D01*
X002485Y017068D01*
X002510Y017043D01*
X002560Y017043D01*
X002585Y017068D01*
X003140Y014714D02*
X003215Y014714D01*
X003240Y014689D01*
X003240Y014639D01*
X003215Y014614D01*
X003140Y014614D01*
X003140Y014564D02*
X003140Y014714D01*
X003190Y014614D02*
X003240Y014564D01*
X003288Y014589D02*
X003313Y014564D01*
X003363Y014564D01*
X003388Y014589D01*
X003388Y014614D01*
X003363Y014639D01*
X003313Y014639D01*
X003288Y014664D01*
X003288Y014689D01*
X003313Y014714D01*
X003363Y014714D01*
X003388Y014689D01*
X003388Y014664D01*
X003363Y014639D01*
X003313Y014639D02*
X003288Y014614D01*
X003288Y014589D01*
X003340Y014539D02*
X003390Y014539D01*
X003415Y014514D01*
X003415Y014489D01*
X003390Y014464D01*
X003415Y014439D01*
X003415Y014414D01*
X003390Y014389D01*
X003340Y014389D01*
X003315Y014414D01*
X003267Y014414D02*
X003267Y014389D01*
X003242Y014389D01*
X003242Y014414D01*
X003267Y014414D01*
X003194Y014414D02*
X003169Y014389D01*
X003119Y014389D01*
X003094Y014414D01*
X003144Y014464D02*
X003169Y014464D01*
X003194Y014439D01*
X003194Y014414D01*
X003169Y014464D02*
X003194Y014489D01*
X003194Y014514D01*
X003169Y014539D01*
X003119Y014539D01*
X003094Y014514D01*
X003315Y014514D02*
X003340Y014539D01*
X003365Y014464D02*
X003390Y014464D01*
X003463Y014439D02*
X003563Y014539D01*
X003463Y014539D02*
X003463Y014389D01*
X003488Y014464D02*
X003563Y014389D01*
X003463Y013314D02*
X003388Y013239D01*
X003488Y013239D01*
X003463Y013164D02*
X003463Y013314D01*
X003340Y013289D02*
X003340Y013239D01*
X003315Y013214D01*
X003240Y013214D01*
X003240Y013164D02*
X003240Y013314D01*
X003315Y013314D01*
X003340Y013289D01*
X003290Y013214D02*
X003340Y013164D01*
X003340Y013139D02*
X003315Y013114D01*
X003340Y013139D02*
X003390Y013139D01*
X003415Y013114D01*
X003415Y013089D01*
X003315Y012989D01*
X003415Y012989D01*
X003463Y012989D02*
X003463Y013139D01*
X003488Y013064D02*
X003563Y012989D01*
X003463Y013039D02*
X003563Y013139D01*
X003267Y013014D02*
X003267Y012989D01*
X003242Y012989D01*
X003242Y013014D01*
X003267Y013014D01*
X003194Y012989D02*
X003094Y012989D01*
X003194Y013089D01*
X003194Y013114D01*
X003169Y013139D01*
X003119Y013139D01*
X003094Y013114D01*
X005225Y014499D02*
X005225Y014599D01*
X005275Y014647D02*
X005225Y014697D01*
X005375Y014697D01*
X005375Y014647D02*
X005375Y014747D01*
X005300Y014549D02*
X005300Y014499D01*
X005375Y014499D02*
X005225Y014499D01*
X006275Y014599D02*
X006350Y014599D01*
X006325Y014649D01*
X006325Y014674D01*
X006350Y014699D01*
X006400Y014699D01*
X006425Y014674D01*
X006425Y014624D01*
X006400Y014599D01*
X006275Y014599D02*
X006275Y014699D01*
X006300Y014747D02*
X006275Y014772D01*
X006275Y014822D01*
X006300Y014847D01*
X006400Y014747D01*
X006425Y014772D01*
X006425Y014822D01*
X006400Y014847D01*
X006300Y014847D01*
X006300Y014894D02*
X006275Y014919D01*
X006275Y014969D01*
X006300Y014994D01*
X006400Y014894D01*
X006425Y014919D01*
X006425Y014969D01*
X006400Y014994D01*
X006300Y014994D01*
X006325Y015041D02*
X006325Y015066D01*
X006350Y015091D01*
X006325Y015116D01*
X006350Y015141D01*
X006425Y015141D01*
X006425Y015189D02*
X006325Y015189D01*
X006275Y015239D01*
X006325Y015289D01*
X006425Y015289D01*
X006350Y015289D02*
X006350Y015189D01*
X006350Y015091D02*
X006425Y015091D01*
X006425Y015041D02*
X006325Y015041D01*
X006300Y014894D02*
X006400Y014894D01*
X006400Y014747D02*
X006300Y014747D01*
X006610Y016143D02*
X006585Y016168D01*
X006585Y016268D01*
X006610Y016293D01*
X006660Y016293D01*
X006685Y016268D01*
X006732Y016243D02*
X006782Y016293D01*
X006782Y016143D01*
X006732Y016143D02*
X006832Y016143D01*
X006880Y016168D02*
X006905Y016143D01*
X006955Y016143D01*
X006980Y016168D01*
X006980Y016193D01*
X006955Y016218D01*
X006930Y016218D01*
X006955Y016218D02*
X006980Y016243D01*
X006980Y016268D01*
X006955Y016293D01*
X006905Y016293D01*
X006880Y016268D01*
X006685Y016168D02*
X006660Y016143D01*
X006610Y016143D01*
X007746Y016124D02*
X007846Y016124D01*
X007796Y016124D02*
X007796Y016274D01*
X007746Y016224D01*
X007893Y016249D02*
X007918Y016274D01*
X007968Y016274D01*
X007993Y016249D01*
X007893Y016149D01*
X007918Y016124D01*
X007968Y016124D01*
X007993Y016149D01*
X007993Y016249D01*
X008040Y016224D02*
X008040Y016149D01*
X008065Y016124D01*
X008140Y016124D01*
X008140Y016224D01*
X008188Y016199D02*
X008238Y016199D01*
X008188Y016274D02*
X008288Y016274D01*
X008188Y016274D02*
X008188Y016124D01*
X007893Y016149D02*
X007893Y016249D01*
X006088Y017614D02*
X006088Y017664D01*
X006038Y017664D01*
X006088Y017614D02*
X006063Y017589D01*
X006013Y017589D01*
X005988Y017614D01*
X005988Y017714D01*
X006013Y017739D01*
X006063Y017739D01*
X006088Y017714D01*
X005940Y017739D02*
X005840Y017739D01*
X005840Y017589D01*
X005940Y017589D01*
X005890Y017664D02*
X005840Y017664D01*
X005793Y017664D02*
X005768Y017639D01*
X005693Y017639D01*
X005646Y017639D02*
X005646Y017739D01*
X005693Y017739D02*
X005768Y017739D01*
X005793Y017714D01*
X005793Y017664D01*
X005743Y017639D02*
X005793Y017589D01*
X005693Y017589D02*
X005693Y017739D01*
X005646Y017639D02*
X005596Y017589D01*
X005546Y017639D01*
X005546Y017739D01*
X005498Y017714D02*
X005498Y017689D01*
X005473Y017664D01*
X005498Y017639D01*
X005498Y017614D01*
X005473Y017589D01*
X005423Y017589D01*
X005398Y017614D01*
X005350Y017614D02*
X005350Y017589D01*
X005325Y017589D01*
X005325Y017614D01*
X005350Y017614D01*
X005277Y017614D02*
X005252Y017589D01*
X005202Y017589D01*
X005177Y017614D01*
X005227Y017664D02*
X005252Y017664D01*
X005277Y017639D01*
X005277Y017614D01*
X005252Y017664D02*
X005277Y017689D01*
X005277Y017714D01*
X005252Y017739D01*
X005202Y017739D01*
X005177Y017714D01*
X005398Y017714D02*
X005423Y017739D01*
X005473Y017739D01*
X005498Y017714D01*
X005473Y017664D02*
X005448Y017664D01*
X011625Y017669D02*
X011625Y017594D01*
X011775Y017594D01*
X011775Y017669D01*
X011750Y017694D01*
X011650Y017694D01*
X011625Y017669D01*
X011625Y017547D02*
X011775Y017547D01*
X011625Y017447D01*
X011775Y017447D01*
X011750Y017399D02*
X011700Y017399D01*
X011700Y017349D01*
X011750Y017299D02*
X011775Y017324D01*
X011775Y017374D01*
X011750Y017399D01*
X011750Y017299D02*
X011650Y017299D01*
X011625Y017324D01*
X011625Y017374D01*
X011650Y017399D01*
X001663Y008739D02*
X001563Y008639D01*
X001588Y008664D02*
X001663Y008589D01*
X001563Y008589D02*
X001563Y008739D01*
X001515Y008714D02*
X001490Y008739D01*
X001440Y008739D01*
X001415Y008714D01*
X001515Y008714D02*
X001515Y008689D01*
X001415Y008589D01*
X001515Y008589D01*
X001367Y008589D02*
X001342Y008589D01*
X001342Y008614D01*
X001367Y008614D01*
X001367Y008589D01*
X001294Y008589D02*
X001194Y008589D01*
X001294Y008689D01*
X001294Y008714D01*
X001269Y008739D01*
X001219Y008739D01*
X001194Y008714D01*
X001275Y008143D02*
X001375Y008043D01*
X001350Y008068D02*
X001425Y008143D01*
X001425Y008043D02*
X001275Y008043D01*
X001300Y007995D02*
X001275Y007970D01*
X001275Y007920D01*
X001300Y007895D01*
X001340Y007914D02*
X001415Y007914D01*
X001440Y007939D01*
X001440Y007989D01*
X001415Y008014D01*
X001340Y008014D01*
X001340Y007864D01*
X001400Y007847D02*
X001425Y007847D01*
X001425Y007822D01*
X001400Y007822D01*
X001400Y007847D01*
X001440Y007864D02*
X001390Y007914D01*
X001400Y007895D02*
X001425Y007920D01*
X001425Y007970D01*
X001400Y007995D01*
X001375Y007995D01*
X001350Y007970D01*
X001350Y007945D01*
X001350Y007970D02*
X001325Y007995D01*
X001300Y007995D01*
X001488Y007964D02*
X001538Y008014D01*
X001538Y007864D01*
X001488Y007864D02*
X001588Y007864D01*
X001425Y007749D02*
X001425Y007699D01*
X001400Y007674D01*
X001350Y007724D02*
X001350Y007749D01*
X001375Y007774D01*
X001400Y007774D01*
X001425Y007749D01*
X001350Y007749D02*
X001325Y007774D01*
X001300Y007774D01*
X001275Y007749D01*
X001275Y007699D01*
X001300Y007674D01*
X001300Y007397D02*
X001275Y007397D01*
X001250Y007372D01*
X001250Y007322D01*
X001275Y007297D01*
X001275Y007249D02*
X001325Y007249D01*
X001350Y007224D01*
X001350Y007149D01*
X001400Y007149D02*
X001250Y007149D01*
X001250Y007224D01*
X001275Y007249D01*
X001350Y007199D02*
X001400Y007249D01*
X001375Y007297D02*
X001400Y007322D01*
X001400Y007372D01*
X001375Y007397D01*
X001350Y007397D01*
X001325Y007372D01*
X001325Y007347D01*
X001325Y007372D02*
X001300Y007397D01*
D11*
X005668Y006394D02*
X005692Y006394D01*
X008868Y006894D02*
X008892Y006894D01*
X007992Y014494D02*
X007968Y014494D01*
X006980Y014482D02*
X006980Y014506D01*
X007280Y016482D02*
X007280Y016506D01*
X004180Y015706D02*
X004180Y015682D01*
X003792Y014994D02*
X003768Y014994D01*
D12*
X003974Y016022D02*
X004407Y016022D01*
X004564Y016179D01*
X004564Y016809D01*
X004407Y016967D01*
X003974Y016967D01*
X003535Y017308D02*
X003419Y017384D01*
X003413Y017394D02*
X003535Y017486D01*
X003413Y017575D02*
X003413Y017394D01*
X003413Y017213D01*
X003186Y016967D02*
X002596Y016967D01*
X002596Y016022D01*
X003186Y016022D01*
X002441Y015860D02*
X002441Y015604D01*
X002441Y015860D02*
X001457Y015860D01*
X001457Y015604D01*
X001457Y015860D02*
X004311Y018360D01*
X008249Y018360D01*
X011103Y015860D01*
X010119Y015860D01*
X010119Y015604D01*
X011103Y015604D02*
X011103Y015860D01*
X011319Y016672D02*
X010846Y016672D01*
X010846Y017223D01*
X009114Y017223D01*
X009114Y016672D01*
X008641Y016672D01*
X008641Y017302D01*
X008641Y018365D02*
X011319Y018365D01*
X011319Y017302D02*
X011319Y016672D01*
X008564Y015909D02*
X008564Y015279D01*
X008407Y015122D01*
X007974Y015122D01*
X007186Y015122D02*
X006596Y015122D01*
X006596Y016067D01*
X007186Y016067D01*
X007974Y016067D02*
X008407Y016067D01*
X008564Y015909D01*
X006180Y015244D02*
X006180Y014744D01*
X005580Y014744D02*
X005580Y015244D01*
X005749Y016334D02*
X005411Y016334D01*
X005261Y016789D02*
X005261Y017000D01*
X005411Y017454D02*
X005749Y017454D01*
X006264Y013355D02*
X003819Y010901D01*
X003819Y010678D01*
X006273Y008233D01*
X006496Y008233D01*
X008941Y010687D01*
X008941Y010910D01*
X006487Y013356D01*
X006264Y013355D01*
X002441Y008006D02*
X002441Y007789D01*
X001457Y007789D01*
X001457Y008006D01*
X001457Y007789D02*
X001457Y007494D01*
X011103Y007494D01*
X011103Y007789D01*
X011103Y008006D01*
X011103Y007789D02*
X010119Y007789D01*
X010119Y008006D01*
X008264Y006712D02*
X008264Y006476D01*
X007516Y005964D02*
X007044Y005964D01*
X006296Y006476D02*
X006296Y006712D01*
X007044Y007224D02*
X007516Y007224D01*
X005161Y006161D02*
X004980Y006161D01*
X005072Y006039D01*
X004980Y006161D02*
X004799Y006161D01*
X004894Y006039D02*
X004970Y006155D01*
X017680Y005704D02*
X017680Y008284D01*
X019080Y008284D01*
X019080Y005704D01*
X017680Y005704D01*
X017680Y008604D02*
X017680Y011184D01*
X019080Y011184D01*
X019080Y008604D01*
X017680Y008604D01*
X017680Y011504D02*
X017680Y014084D01*
X019080Y014084D01*
X019080Y011504D01*
X017680Y011504D01*
D13*
X007730Y015194D02*
X007730Y015994D01*
X003730Y016094D02*
X003730Y016894D01*
D14*
X004980Y013694D03*
X007580Y017394D03*
X001080Y007494D03*
D15*
X001280Y008294D03*
X003280Y009194D03*
X004880Y007594D03*
X003180Y013594D03*
X003180Y014094D03*
X009180Y015994D03*
D16*
X006265Y013021D02*
X006267Y013041D01*
X006272Y013061D01*
X006282Y013079D01*
X006294Y013096D01*
X006309Y013110D01*
X006327Y013120D01*
X006346Y013128D01*
X006366Y013132D01*
X006386Y013132D01*
X006406Y013128D01*
X006425Y013120D01*
X006443Y013110D01*
X006458Y013096D01*
X006470Y013079D01*
X006480Y013061D01*
X006485Y013041D01*
X006487Y013021D01*
X006485Y013001D01*
X006480Y012981D01*
X006470Y012963D01*
X006458Y012946D01*
X006443Y012932D01*
X006425Y012922D01*
X006406Y012914D01*
X006386Y012910D01*
X006366Y012910D01*
X006346Y012914D01*
X006327Y012922D01*
X006309Y012932D01*
X006294Y012946D01*
X006282Y012963D01*
X006272Y012981D01*
X006267Y013001D01*
X006265Y013021D01*
D17*
X012030Y013344D02*
X012030Y012594D01*
X012380Y012594D01*
X012380Y011994D01*
X012030Y011994D01*
X012030Y007094D01*
X016130Y007094D01*
X016130Y011994D01*
X015780Y011994D01*
X015780Y012594D01*
X016130Y012594D01*
X016130Y013344D01*
X012030Y013344D01*
X012443Y014724D02*
X020313Y014724D01*
X020313Y014804D01*
X012443Y014804D01*
X012443Y017404D01*
X012443Y018344D01*
X020313Y018344D01*
X020313Y017404D01*
X020313Y014804D01*
X019133Y015324D02*
X019135Y015352D01*
X019141Y015379D01*
X019150Y015405D01*
X019163Y015430D01*
X019180Y015453D01*
X019199Y015473D01*
X019221Y015490D01*
X019245Y015504D01*
X019271Y015514D01*
X019298Y015521D01*
X019326Y015524D01*
X019354Y015523D01*
X019381Y015518D01*
X019408Y015509D01*
X019433Y015497D01*
X019456Y015482D01*
X019477Y015463D01*
X019495Y015442D01*
X019510Y015418D01*
X019521Y015392D01*
X019529Y015366D01*
X019533Y015338D01*
X019533Y015310D01*
X019529Y015282D01*
X019521Y015256D01*
X019510Y015230D01*
X019495Y015206D01*
X019477Y015185D01*
X019456Y015166D01*
X019433Y015151D01*
X019408Y015139D01*
X019381Y015130D01*
X019354Y015125D01*
X019326Y015124D01*
X019298Y015127D01*
X019271Y015134D01*
X019245Y015144D01*
X019221Y015158D01*
X019199Y015175D01*
X019180Y015195D01*
X019163Y015218D01*
X019150Y015243D01*
X019141Y015269D01*
X019135Y015296D01*
X019133Y015324D01*
X017163Y015324D02*
X017165Y015352D01*
X017171Y015379D01*
X017180Y015405D01*
X017193Y015430D01*
X017210Y015453D01*
X017229Y015473D01*
X017251Y015490D01*
X017275Y015504D01*
X017301Y015514D01*
X017328Y015521D01*
X017356Y015524D01*
X017384Y015523D01*
X017411Y015518D01*
X017438Y015509D01*
X017463Y015497D01*
X017486Y015482D01*
X017507Y015463D01*
X017525Y015442D01*
X017540Y015418D01*
X017551Y015392D01*
X017559Y015366D01*
X017563Y015338D01*
X017563Y015310D01*
X017559Y015282D01*
X017551Y015256D01*
X017540Y015230D01*
X017525Y015206D01*
X017507Y015185D01*
X017486Y015166D01*
X017463Y015151D01*
X017438Y015139D01*
X017411Y015130D01*
X017384Y015125D01*
X017356Y015124D01*
X017328Y015127D01*
X017301Y015134D01*
X017275Y015144D01*
X017251Y015158D01*
X017229Y015175D01*
X017210Y015195D01*
X017193Y015218D01*
X017180Y015243D01*
X017171Y015269D01*
X017165Y015296D01*
X017163Y015324D01*
X015193Y015324D02*
X015195Y015352D01*
X015201Y015379D01*
X015210Y015405D01*
X015223Y015430D01*
X015240Y015453D01*
X015259Y015473D01*
X015281Y015490D01*
X015305Y015504D01*
X015331Y015514D01*
X015358Y015521D01*
X015386Y015524D01*
X015414Y015523D01*
X015441Y015518D01*
X015468Y015509D01*
X015493Y015497D01*
X015516Y015482D01*
X015537Y015463D01*
X015555Y015442D01*
X015570Y015418D01*
X015581Y015392D01*
X015589Y015366D01*
X015593Y015338D01*
X015593Y015310D01*
X015589Y015282D01*
X015581Y015256D01*
X015570Y015230D01*
X015555Y015206D01*
X015537Y015185D01*
X015516Y015166D01*
X015493Y015151D01*
X015468Y015139D01*
X015441Y015130D01*
X015414Y015125D01*
X015386Y015124D01*
X015358Y015127D01*
X015331Y015134D01*
X015305Y015144D01*
X015281Y015158D01*
X015259Y015175D01*
X015240Y015195D01*
X015223Y015218D01*
X015210Y015243D01*
X015201Y015269D01*
X015195Y015296D01*
X015193Y015324D01*
X013223Y015324D02*
X013225Y015352D01*
X013231Y015379D01*
X013240Y015405D01*
X013253Y015430D01*
X013270Y015453D01*
X013289Y015473D01*
X013311Y015490D01*
X013335Y015504D01*
X013361Y015514D01*
X013388Y015521D01*
X013416Y015524D01*
X013444Y015523D01*
X013471Y015518D01*
X013498Y015509D01*
X013523Y015497D01*
X013546Y015482D01*
X013567Y015463D01*
X013585Y015442D01*
X013600Y015418D01*
X013611Y015392D01*
X013619Y015366D01*
X013623Y015338D01*
X013623Y015310D01*
X013619Y015282D01*
X013611Y015256D01*
X013600Y015230D01*
X013585Y015206D01*
X013567Y015185D01*
X013546Y015166D01*
X013523Y015151D01*
X013498Y015139D01*
X013471Y015130D01*
X013444Y015125D01*
X013416Y015124D01*
X013388Y015127D01*
X013361Y015134D01*
X013335Y015144D01*
X013311Y015158D01*
X013289Y015175D01*
X013270Y015195D01*
X013253Y015218D01*
X013240Y015243D01*
X013231Y015269D01*
X013225Y015296D01*
X013223Y015324D01*
X012443Y014804D02*
X012443Y014724D01*
X012443Y017404D02*
X013073Y017404D01*
X013773Y017404D02*
X015043Y017404D01*
X015743Y017404D02*
X017013Y017404D01*
X017713Y017404D02*
X018983Y017404D01*
X019683Y017404D02*
X020313Y017404D01*
X013370Y011994D02*
X013372Y012047D01*
X013378Y012100D01*
X013388Y012152D01*
X013402Y012203D01*
X013419Y012253D01*
X013440Y012302D01*
X013465Y012349D01*
X013493Y012394D01*
X013525Y012437D01*
X013560Y012477D01*
X013597Y012514D01*
X013637Y012549D01*
X013680Y012581D01*
X013725Y012609D01*
X013772Y012634D01*
X013821Y012655D01*
X013871Y012672D01*
X013922Y012686D01*
X013974Y012696D01*
X014027Y012702D01*
X014080Y012704D01*
X014133Y012702D01*
X014186Y012696D01*
X014238Y012686D01*
X014289Y012672D01*
X014339Y012655D01*
X014388Y012634D01*
X014435Y012609D01*
X014480Y012581D01*
X014523Y012549D01*
X014563Y012514D01*
X014600Y012477D01*
X014635Y012437D01*
X014667Y012394D01*
X014695Y012349D01*
X014720Y012302D01*
X014741Y012253D01*
X014758Y012203D01*
X014772Y012152D01*
X014782Y012100D01*
X014788Y012047D01*
X014790Y011994D01*
X014788Y011941D01*
X014782Y011888D01*
X014772Y011836D01*
X014758Y011785D01*
X014741Y011735D01*
X014720Y011686D01*
X014695Y011639D01*
X014667Y011594D01*
X014635Y011551D01*
X014600Y011511D01*
X014563Y011474D01*
X014523Y011439D01*
X014480Y011407D01*
X014435Y011379D01*
X014388Y011354D01*
X014339Y011333D01*
X014289Y011316D01*
X014238Y011302D01*
X014186Y011292D01*
X014133Y011286D01*
X014080Y011284D01*
X014027Y011286D01*
X013974Y011292D01*
X013922Y011302D01*
X013871Y011316D01*
X013821Y011333D01*
X013772Y011354D01*
X013725Y011379D01*
X013680Y011407D01*
X013637Y011439D01*
X013597Y011474D01*
X013560Y011511D01*
X013525Y011551D01*
X013493Y011594D01*
X013465Y011639D01*
X013440Y011686D01*
X013419Y011735D01*
X013402Y011785D01*
X013388Y011836D01*
X013378Y011888D01*
X013372Y011941D01*
X013370Y011994D01*
D18*
X012280Y010594D02*
X012280Y007344D01*
X015880Y007344D01*
X015880Y010594D01*
X012280Y010594D01*
D19*
X012350Y010714D02*
X012350Y010948D01*
X012467Y011065D01*
X012584Y010948D01*
X012584Y010714D01*
X012709Y010714D02*
X012943Y010714D01*
X012826Y010714D02*
X012826Y011065D01*
X012709Y010948D01*
X012584Y010889D02*
X012350Y010889D01*
X013068Y010889D02*
X013185Y010948D01*
X013243Y010948D01*
X013302Y010889D01*
X013302Y010773D01*
X013243Y010714D01*
X013127Y010714D01*
X013068Y010773D01*
X013068Y010889D02*
X013068Y011065D01*
X013302Y011065D01*
X013486Y010773D02*
X013486Y010714D01*
X013544Y010714D01*
X013544Y010773D01*
X013486Y010773D01*
X013544Y010714D02*
X013427Y010597D01*
X013667Y010714D02*
X013900Y010948D01*
X013900Y011006D01*
X013842Y011065D01*
X013725Y011065D01*
X013667Y011006D01*
X013667Y010714D02*
X013900Y010714D01*
X014026Y010714D02*
X014026Y010948D01*
X014084Y010948D01*
X014143Y010889D01*
X014201Y010948D01*
X014259Y010889D01*
X014259Y010714D01*
X014143Y010714D02*
X014143Y010889D01*
X014385Y010948D02*
X014385Y010714D01*
X014502Y010714D02*
X014502Y010889D01*
X014560Y010948D01*
X014618Y010889D01*
X014618Y010714D01*
X014502Y010889D02*
X014443Y010948D01*
X014385Y010948D01*
D20*
X014080Y006919D03*
X015080Y006919D03*
X013080Y006919D03*
M02*
