%
M48
M72
T01C0.0320
T02C0.0394
T03C0.0400
T04C0.1300
%
T01
X10300Y5300
X13300Y5300
X24300Y5300
X27300Y5300
X25300Y15800
X22300Y15800
X15300Y15800
X12300Y15800
T02
X4300Y13300
X7800Y11800
T03
X4300Y6800
X4300Y7800
X4300Y8800
X4300Y9800
X4300Y10800
X4300Y11800
X7800Y13800
X8800Y13800
X9800Y13800
X16300Y21300
X17300Y21300
X18300Y21300
X27800Y15800
X28800Y15800
X29800Y15800
X17300Y9800
X18300Y9800
X19300Y9800
T04
X18300Y3900
X8800Y19700
X17300Y27200
X28800Y21700
M30
