G75*
G70*
%OFA0B0*%
%FSLAX24Y24*%
%IPPOS*%
%LPD*%
%AMOC8*
5,1,8,0,0,1.08239X$1,22.5*
%
%ADD10C,0.0051*%
%ADD11C,0.0031*%
%ADD12C,0.1969*%
%ADD13C,0.0251*%
%ADD14R,0.0472X0.0315*%
%ADD15R,0.0984X0.0760*%
%ADD16R,0.0472X0.0300*%
%ADD17R,0.0551X0.0433*%
%ADD18R,0.0669X0.0709*%
%ADD19R,0.0984X0.1181*%
%ADD20R,0.0433X0.0394*%
%ADD21R,0.0315X0.0472*%
%ADD22R,0.0760X0.0984*%
%ADD23R,0.0300X0.0472*%
%ADD24R,0.0433X0.0551*%
%ADD25R,0.0709X0.0669*%
%ADD26R,0.0394X0.0433*%
%ADD27R,0.0315X0.0118*%
%ADD28R,0.0748X0.0787*%
%ADD29R,0.0551X0.0138*%
%ADD30R,0.0709X0.0748*%
%ADD31R,0.0276X0.0354*%
%ADD32R,0.0315X0.0315*%
D10*
X008569Y008452D02*
X009031Y008452D01*
X008569Y008452D02*
X008569Y008914D01*
X009031Y008914D01*
X009031Y008452D01*
X009031Y008502D02*
X008569Y008502D01*
X008569Y008552D02*
X009031Y008552D01*
X009031Y008602D02*
X008569Y008602D01*
X008569Y008652D02*
X009031Y008652D01*
X009031Y008702D02*
X008569Y008702D01*
X008569Y008752D02*
X009031Y008752D01*
X009031Y008802D02*
X008569Y008802D01*
X008569Y008852D02*
X009031Y008852D01*
X009031Y008902D02*
X008569Y008902D01*
X008569Y010697D02*
X009031Y010697D01*
X008569Y010697D02*
X008569Y011159D01*
X009031Y011159D01*
X009031Y010697D01*
X009031Y010747D02*
X008569Y010747D01*
X008569Y010797D02*
X009031Y010797D01*
X009031Y010847D02*
X008569Y010847D01*
X008569Y010897D02*
X009031Y010897D01*
X009031Y010947D02*
X008569Y010947D01*
X008569Y010997D02*
X009031Y010997D01*
X009031Y011047D02*
X008569Y011047D01*
X008569Y011097D02*
X009031Y011097D01*
X009031Y011147D02*
X008569Y011147D01*
X010813Y010697D02*
X011275Y010697D01*
X010813Y010697D02*
X010813Y011159D01*
X011275Y011159D01*
X011275Y010697D01*
X011275Y010747D02*
X010813Y010747D01*
X010813Y010797D02*
X011275Y010797D01*
X011275Y010847D02*
X010813Y010847D01*
X010813Y010897D02*
X011275Y010897D01*
X011275Y010947D02*
X010813Y010947D01*
X010813Y010997D02*
X011275Y010997D01*
X011275Y011047D02*
X010813Y011047D01*
X010813Y011097D02*
X011275Y011097D01*
X011275Y011147D02*
X010813Y011147D01*
X010813Y008452D02*
X011275Y008452D01*
X010813Y008452D02*
X010813Y008914D01*
X011275Y008914D01*
X011275Y008452D01*
X011275Y008502D02*
X010813Y008502D01*
X010813Y008552D02*
X011275Y008552D01*
X011275Y008602D02*
X010813Y008602D01*
X010813Y008652D02*
X011275Y008652D01*
X011275Y008702D02*
X010813Y008702D01*
X010813Y008752D02*
X011275Y008752D01*
X011275Y008802D02*
X010813Y008802D01*
X010813Y008852D02*
X011275Y008852D01*
X011275Y008902D02*
X010813Y008902D01*
D11*
X011001Y009073D02*
X011001Y009475D01*
X011285Y009475D01*
X011285Y009073D01*
X011001Y009073D01*
X011001Y009103D02*
X011285Y009103D01*
X011285Y009133D02*
X011001Y009133D01*
X011001Y009163D02*
X011285Y009163D01*
X011285Y009193D02*
X011001Y009193D01*
X011001Y009223D02*
X011285Y009223D01*
X011285Y009253D02*
X011001Y009253D01*
X011001Y009283D02*
X011285Y009283D01*
X011285Y009313D02*
X011001Y009313D01*
X011001Y009343D02*
X011285Y009343D01*
X011285Y009373D02*
X011001Y009373D01*
X011001Y009403D02*
X011285Y009403D01*
X011285Y009433D02*
X011001Y009433D01*
X011001Y009463D02*
X011285Y009463D01*
X009592Y008727D02*
X009190Y008727D01*
X009592Y008727D02*
X009592Y008443D01*
X009190Y008443D01*
X009190Y008727D01*
X009190Y008473D02*
X009592Y008473D01*
X009592Y008503D02*
X009190Y008503D01*
X009190Y008533D02*
X009592Y008533D01*
X009592Y008563D02*
X009190Y008563D01*
X009190Y008593D02*
X009592Y008593D01*
X009592Y008623D02*
X009190Y008623D01*
X009190Y008653D02*
X009592Y008653D01*
X009592Y008683D02*
X009190Y008683D01*
X009190Y008713D02*
X009592Y008713D01*
X008844Y009073D02*
X008844Y009475D01*
X008844Y009073D02*
X008560Y009073D01*
X008560Y009475D01*
X008844Y009475D01*
X008844Y009103D02*
X008560Y009103D01*
X008560Y009133D02*
X008844Y009133D01*
X008844Y009163D02*
X008560Y009163D01*
X008560Y009193D02*
X008844Y009193D01*
X008844Y009223D02*
X008560Y009223D01*
X008560Y009253D02*
X008844Y009253D01*
X008844Y009283D02*
X008560Y009283D01*
X008560Y009313D02*
X008844Y009313D01*
X008844Y009343D02*
X008560Y009343D01*
X008560Y009373D02*
X008844Y009373D01*
X008844Y009403D02*
X008560Y009403D01*
X008560Y009433D02*
X008844Y009433D01*
X008844Y009463D02*
X008560Y009463D01*
X009190Y010884D02*
X009592Y010884D01*
X009190Y010884D02*
X009190Y011168D01*
X009592Y011168D01*
X009592Y010884D01*
X009592Y010914D02*
X009190Y010914D01*
X009190Y010944D02*
X009592Y010944D01*
X009592Y010974D02*
X009190Y010974D01*
X009190Y011004D02*
X009592Y011004D01*
X009592Y011034D02*
X009190Y011034D01*
X009190Y011064D02*
X009592Y011064D01*
X009592Y011094D02*
X009190Y011094D01*
X009190Y011124D02*
X009592Y011124D01*
X009592Y011154D02*
X009190Y011154D01*
D12*
X009922Y009805D03*
D13*
X006612Y012923D02*
X006612Y015271D01*
X007366Y015271D01*
X007366Y012923D01*
X006612Y012923D01*
X006612Y013173D02*
X007366Y013173D01*
X007366Y013423D02*
X006612Y013423D01*
X006612Y013673D02*
X007366Y013673D01*
X007366Y013923D02*
X006612Y013923D01*
X006612Y014173D02*
X007366Y014173D01*
X007366Y014423D02*
X006612Y014423D01*
X006612Y014673D02*
X007366Y014673D01*
X007366Y014923D02*
X006612Y014923D01*
X006612Y015173D02*
X007366Y015173D01*
X005791Y015271D02*
X005791Y012923D01*
X005037Y012923D01*
X005037Y015271D01*
X005791Y015271D01*
X005791Y013173D02*
X005037Y013173D01*
X005037Y013423D02*
X005791Y013423D01*
X005791Y013673D02*
X005037Y013673D01*
X005037Y013923D02*
X005791Y013923D01*
X005791Y014173D02*
X005037Y014173D01*
X005037Y014423D02*
X005791Y014423D01*
X005791Y014673D02*
X005037Y014673D01*
X005037Y014923D02*
X005791Y014923D01*
X005791Y015173D02*
X005037Y015173D01*
X014610Y014143D02*
X014610Y016491D01*
X014610Y014143D02*
X013856Y014143D01*
X013856Y016491D01*
X014610Y016491D01*
X014610Y014393D02*
X013856Y014393D01*
X013856Y014643D02*
X014610Y014643D01*
X014610Y014893D02*
X013856Y014893D01*
X013856Y015143D02*
X014610Y015143D01*
X014610Y015393D02*
X013856Y015393D01*
X013856Y015643D02*
X014610Y015643D01*
X014610Y015893D02*
X013856Y015893D01*
X013856Y016143D02*
X014610Y016143D01*
X014610Y016393D02*
X013856Y016393D01*
X015431Y016491D02*
X015431Y014143D01*
X015431Y016491D02*
X016185Y016491D01*
X016185Y014143D01*
X015431Y014143D01*
X015431Y014393D02*
X016185Y014393D01*
X016185Y014643D02*
X015431Y014643D01*
X015431Y014893D02*
X016185Y014893D01*
X016185Y015143D02*
X015431Y015143D01*
X015431Y015393D02*
X016185Y015393D01*
X016185Y015643D02*
X015431Y015643D01*
X015431Y015893D02*
X016185Y015893D01*
X016185Y016143D02*
X015431Y016143D01*
X015431Y016393D02*
X016185Y016393D01*
X015599Y009328D02*
X017947Y009328D01*
X015599Y009328D02*
X015599Y010082D01*
X017947Y010082D01*
X017947Y009328D01*
X017947Y009578D02*
X015599Y009578D01*
X015599Y009828D02*
X017947Y009828D01*
X017947Y010078D02*
X015599Y010078D01*
X015599Y008508D02*
X017947Y008508D01*
X017947Y007754D01*
X015599Y007754D01*
X015599Y008508D01*
X015599Y008004D02*
X017947Y008004D01*
X017947Y008254D02*
X015599Y008254D01*
X015599Y008504D02*
X017947Y008504D01*
X009132Y004759D02*
X009132Y002411D01*
X009132Y004759D02*
X009886Y004759D01*
X009886Y002411D01*
X009132Y002411D01*
X009132Y002661D02*
X009886Y002661D01*
X009886Y002911D02*
X009132Y002911D01*
X009132Y003161D02*
X009886Y003161D01*
X009886Y003411D02*
X009132Y003411D01*
X009132Y003661D02*
X009886Y003661D01*
X009886Y003911D02*
X009132Y003911D01*
X009132Y004161D02*
X009886Y004161D01*
X009886Y004411D02*
X009132Y004411D01*
X009132Y004661D02*
X009886Y004661D01*
X008311Y004759D02*
X008311Y002411D01*
X007557Y002411D01*
X007557Y004759D01*
X008311Y004759D01*
X008311Y002661D02*
X007557Y002661D01*
X007557Y002911D02*
X008311Y002911D01*
X008311Y003161D02*
X007557Y003161D01*
X007557Y003411D02*
X008311Y003411D01*
X008311Y003661D02*
X007557Y003661D01*
X007557Y003911D02*
X008311Y003911D01*
X008311Y004161D02*
X007557Y004161D01*
X007557Y004411D02*
X008311Y004411D01*
X008311Y004661D02*
X007557Y004661D01*
D14*
X017742Y010750D03*
X017742Y011341D03*
X017742Y011341D03*
X017742Y011931D03*
D15*
X016620Y011341D03*
D16*
X016422Y010735D03*
X016412Y011946D03*
D17*
X015434Y011656D03*
X015434Y010868D03*
D18*
X014528Y010928D03*
X014528Y009313D03*
D19*
X014647Y006341D03*
X014647Y003585D03*
X009410Y014215D03*
X009410Y016971D03*
D20*
X002442Y014550D03*
X002442Y013880D03*
X017639Y013644D03*
X017639Y012975D03*
D21*
X013229Y016365D03*
X012639Y016365D03*
X012638Y016365D03*
X012048Y016365D03*
X004450Y015105D03*
X003859Y015105D03*
X003859Y015105D03*
X003269Y015105D03*
X010710Y002537D03*
X011300Y002537D03*
X011301Y002537D03*
X011891Y002537D03*
D22*
X011300Y003659D03*
X003859Y013983D03*
X012639Y015243D03*
D23*
X012033Y015035D03*
X013244Y015045D03*
X004465Y013785D03*
X003254Y013775D03*
X010695Y003857D03*
X011906Y003867D03*
D24*
X011497Y004766D03*
X010710Y004766D03*
X004371Y012601D03*
X003584Y012601D03*
X012206Y014176D03*
X012993Y014176D03*
D25*
X012737Y013191D03*
X014351Y013191D03*
X010769Y005868D03*
X009154Y005868D03*
X006280Y011617D03*
X004666Y011617D03*
D26*
X010690Y017837D03*
X011359Y017837D03*
X011084Y001420D03*
X011753Y001420D03*
D27*
X003820Y007817D03*
X003820Y008014D03*
X003820Y008211D03*
X003820Y008408D03*
X003820Y008605D03*
X003820Y008802D03*
X003820Y008998D03*
X003820Y009195D03*
X003820Y009392D03*
X003820Y009589D03*
D28*
X003190Y010554D03*
X003190Y006853D03*
D29*
G36*
X005620Y005578D02*
X005232Y005190D01*
X005134Y005288D01*
X005522Y005676D01*
X005620Y005578D01*
G37*
G36*
X005801Y005397D02*
X005413Y005009D01*
X005315Y005107D01*
X005703Y005495D01*
X005801Y005397D01*
G37*
G36*
X005982Y005216D02*
X005594Y004828D01*
X005496Y004926D01*
X005884Y005314D01*
X005982Y005216D01*
G37*
G36*
X006163Y005035D02*
X005775Y004647D01*
X005677Y004745D01*
X006065Y005133D01*
X006163Y005035D01*
G37*
G36*
X006344Y004854D02*
X005956Y004466D01*
X005858Y004564D01*
X006246Y004952D01*
X006344Y004854D01*
G37*
D30*
G36*
X003873Y004933D02*
X003373Y005433D01*
X003901Y005961D01*
X004401Y005461D01*
X003873Y004933D01*
G37*
G36*
X006100Y002705D02*
X005600Y003205D01*
X006128Y003733D01*
X006628Y003233D01*
X006100Y002705D01*
G37*
D31*
X005966Y008428D03*
X005454Y008428D03*
D32*
X006576Y008014D03*
X006576Y007424D03*
M02*
