G75*
G70*
%OFA0B0*%
%FSLAX24Y24*%
%IPPOS*%
%LPD*%
%AMOC8*
5,1,8,0,0,1.08239X$1,22.5*
%
%ADD10R,0.0760X0.1500*%
%ADD11R,0.0790X0.0590*%
%ADD12R,0.1500X0.0760*%
%ADD13R,0.0590X0.0790*%
%ADD14C,0.0555*%
%ADD15R,0.1063X0.0630*%
%ADD16R,0.0630X0.1063*%
%ADD17R,0.0630X0.0390*%
%ADD18R,0.0630X0.0830*%
%ADD19R,0.1020X0.0830*%
%ADD20R,0.1020X0.0390*%
%ADD21C,0.0160*%
%ADD22C,0.0436*%
%ADD23C,0.0400*%
D10*
X001500Y012080D03*
D11*
X004024Y012080D03*
X004024Y011174D03*
X004024Y012986D03*
D12*
X006350Y012930D03*
X005250Y005130D03*
D13*
X005250Y002606D03*
X004344Y002606D03*
X006156Y002606D03*
X006350Y010406D03*
X005444Y010406D03*
X007256Y010406D03*
D14*
X002959Y004255D03*
X002959Y003467D03*
X002959Y002680D03*
X002959Y001893D03*
X002959Y001105D03*
D15*
X004450Y000629D03*
X004450Y001731D03*
X005750Y001731D03*
X005750Y000629D03*
X007050Y000629D03*
X007050Y001731D03*
X004050Y008929D03*
X004050Y010031D03*
X002750Y010031D03*
X002750Y008929D03*
X001450Y008929D03*
X001450Y010031D03*
D16*
X006099Y009080D03*
X006099Y007780D03*
X006099Y006480D03*
X007201Y006480D03*
X007201Y007780D03*
X007201Y009080D03*
D17*
X001625Y007080D03*
D18*
X001625Y006350D03*
X001625Y007810D03*
D19*
X003080Y007810D03*
X003080Y006350D03*
D20*
X003080Y007080D03*
D21*
X000930Y008434D02*
X000930Y000360D01*
X003739Y000360D01*
X003739Y000551D01*
X004373Y000551D01*
X004373Y000706D01*
X004373Y001124D01*
X003895Y001124D01*
X003849Y001112D01*
X003808Y001088D01*
X003774Y001054D01*
X003751Y001013D01*
X003739Y000967D01*
X003739Y000706D01*
X004373Y000706D01*
X004527Y000706D01*
X004527Y001124D01*
X005005Y001124D01*
X005051Y001112D01*
X005092Y001088D01*
X005100Y001080D01*
X005108Y001088D01*
X005149Y001112D01*
X005195Y001124D01*
X005673Y001124D01*
X005673Y000706D01*
X005827Y000706D01*
X005827Y001124D01*
X006305Y001124D01*
X006351Y001112D01*
X006392Y001088D01*
X006400Y001080D01*
X006408Y001088D01*
X006449Y001112D01*
X006495Y001124D01*
X006973Y001124D01*
X006973Y000706D01*
X007127Y000706D01*
X007127Y001124D01*
X007605Y001124D01*
X007640Y001114D01*
X007640Y001256D01*
X006452Y001256D01*
X006400Y001308D01*
X006348Y001256D01*
X005152Y001256D01*
X005100Y001308D01*
X005048Y001256D01*
X003852Y001256D01*
X003759Y001350D01*
X003759Y002112D01*
X003852Y002206D01*
X003889Y002206D01*
X003889Y002520D01*
X003366Y002520D01*
X003330Y002432D01*
X003206Y002309D01*
X003151Y002286D01*
X003206Y002263D01*
X003330Y002140D01*
X003396Y001980D01*
X003396Y001806D01*
X003330Y001645D01*
X003206Y001522D01*
X003175Y001509D01*
X003198Y001496D01*
X003257Y001454D01*
X003308Y001403D01*
X003350Y001345D01*
X003383Y001281D01*
X003405Y001212D01*
X003416Y001141D01*
X003416Y001105D01*
X002959Y001105D01*
X002959Y001105D01*
X002959Y000648D01*
X002995Y000648D01*
X003066Y000659D01*
X003134Y000681D01*
X003198Y000714D01*
X003257Y000756D01*
X003308Y000807D01*
X003350Y000865D01*
X003383Y000930D01*
X003405Y000998D01*
X003416Y001069D01*
X003416Y001105D01*
X002959Y001105D01*
X002959Y001105D01*
X002959Y000648D01*
X002923Y000648D01*
X002852Y000659D01*
X002783Y000681D01*
X002719Y000714D01*
X002661Y000756D01*
X002610Y000807D01*
X002567Y000865D01*
X002535Y000930D01*
X002512Y000998D01*
X002501Y001069D01*
X002501Y001105D01*
X002959Y001105D01*
X002959Y001105D01*
X002501Y001105D01*
X002501Y001141D01*
X002512Y001212D01*
X002535Y001281D01*
X002567Y001345D01*
X002610Y001403D01*
X002661Y001454D01*
X002719Y001496D01*
X002743Y001509D01*
X002711Y001522D01*
X002588Y001645D01*
X002521Y001806D01*
X002521Y001909D01*
X002287Y002144D01*
X002250Y002232D01*
X002250Y004941D01*
X001441Y005750D01*
X001037Y005750D01*
X000990Y005797D01*
X000990Y008363D01*
X001037Y008410D01*
X003863Y008410D01*
X003910Y008363D01*
X003910Y008160D01*
X004071Y008160D01*
X004344Y008434D01*
X004127Y008434D01*
X004127Y008851D01*
X003973Y008851D01*
X003973Y008434D01*
X003495Y008434D01*
X003449Y008446D01*
X003408Y008470D01*
X003400Y008478D01*
X003392Y008470D01*
X003351Y008446D01*
X003305Y008434D01*
X002827Y008434D01*
X002827Y008851D01*
X002673Y008851D01*
X002673Y008434D01*
X002195Y008434D01*
X002149Y008446D01*
X002108Y008470D01*
X002100Y008478D01*
X002092Y008470D01*
X002051Y008446D01*
X002005Y008434D01*
X001527Y008434D01*
X001527Y008851D01*
X001373Y008851D01*
X001373Y008434D01*
X000930Y008434D01*
X000930Y008372D02*
X000998Y008372D01*
X000990Y008213D02*
X000930Y008213D01*
X000930Y008055D02*
X000990Y008055D01*
X000990Y007896D02*
X000930Y007896D01*
X000930Y007738D02*
X000990Y007738D01*
X000990Y007579D02*
X000930Y007579D01*
X000930Y007421D02*
X000990Y007421D01*
X000990Y007262D02*
X000930Y007262D01*
X000930Y007104D02*
X000990Y007104D01*
X000990Y006945D02*
X000930Y006945D01*
X000930Y006787D02*
X000990Y006787D01*
X000990Y006628D02*
X000930Y006628D01*
X000930Y006470D02*
X000990Y006470D01*
X000990Y006311D02*
X000930Y006311D01*
X000930Y006153D02*
X000990Y006153D01*
X000990Y005994D02*
X000930Y005994D01*
X000930Y005836D02*
X000990Y005836D01*
X000930Y005677D02*
X001514Y005677D01*
X001672Y005519D02*
X000930Y005519D01*
X000930Y005360D02*
X001831Y005360D01*
X001989Y005202D02*
X000930Y005202D01*
X000930Y005043D02*
X002148Y005043D01*
X002250Y004885D02*
X000930Y004885D01*
X000930Y004726D02*
X002250Y004726D01*
X002250Y004568D02*
X000930Y004568D01*
X000930Y004409D02*
X002250Y004409D01*
X002250Y004251D02*
X000930Y004251D01*
X000930Y004092D02*
X002250Y004092D01*
X002250Y003934D02*
X000930Y003934D01*
X000930Y003775D02*
X002250Y003775D01*
X002250Y003617D02*
X000930Y003617D01*
X000930Y003458D02*
X002250Y003458D01*
X002250Y003300D02*
X000930Y003300D01*
X000930Y003141D02*
X002250Y003141D01*
X002250Y002983D02*
X000930Y002983D01*
X000930Y002824D02*
X002250Y002824D01*
X002250Y002666D02*
X000930Y002666D01*
X000930Y002507D02*
X002250Y002507D01*
X002250Y002349D02*
X000930Y002349D01*
X000930Y002190D02*
X002267Y002190D01*
X002399Y002032D02*
X000930Y002032D01*
X000930Y001873D02*
X002521Y001873D01*
X002559Y001715D02*
X000930Y001715D01*
X000930Y001556D02*
X002677Y001556D01*
X002606Y001398D02*
X000930Y001398D01*
X000930Y001239D02*
X002521Y001239D01*
X002501Y001081D02*
X000930Y001081D01*
X000930Y000922D02*
X002539Y000922D01*
X002653Y000764D02*
X000930Y000764D01*
X000930Y000605D02*
X004373Y000605D01*
X004373Y000764D02*
X004527Y000764D01*
X004527Y000706D02*
X005039Y000706D01*
X005673Y000706D01*
X005673Y000551D01*
X004527Y000551D01*
X004527Y000706D01*
X004527Y000605D02*
X005673Y000605D01*
X005673Y000764D02*
X005827Y000764D01*
X005827Y000706D02*
X006461Y000706D01*
X006973Y000706D01*
X006973Y000551D01*
X005827Y000551D01*
X005827Y000706D01*
X005827Y000605D02*
X006973Y000605D01*
X006973Y000764D02*
X007127Y000764D01*
X007127Y000922D02*
X006973Y000922D01*
X006973Y001081D02*
X007127Y001081D01*
X007050Y001680D02*
X007050Y001731D01*
X007050Y002160D01*
X006570Y002640D01*
X006156Y002606D01*
X006611Y003068D02*
X006517Y003161D01*
X005794Y003161D01*
X005703Y003070D01*
X005611Y003161D01*
X005490Y003161D01*
X005490Y003408D01*
X005453Y003496D01*
X004290Y004659D01*
X004290Y005808D01*
X004253Y005896D01*
X004186Y005963D01*
X003910Y006239D01*
X003910Y006961D01*
X005213Y008264D01*
X005250Y008352D01*
X005250Y009600D01*
X005604Y009600D01*
X005604Y009157D01*
X006021Y009157D01*
X006021Y009003D01*
X005604Y009003D01*
X005604Y008525D01*
X005616Y008479D01*
X005640Y008438D01*
X005648Y008430D01*
X005640Y008422D01*
X005616Y008381D01*
X005604Y008335D01*
X005604Y007857D01*
X006021Y007857D01*
X006021Y007703D01*
X005604Y007703D01*
X005604Y007225D01*
X005616Y007179D01*
X005640Y007138D01*
X005648Y007130D01*
X005640Y007122D01*
X005616Y007081D01*
X005604Y007035D01*
X005604Y006557D01*
X006021Y006557D01*
X006021Y006403D01*
X005604Y006403D01*
X005604Y005925D01*
X005616Y005879D01*
X005640Y005838D01*
X005673Y005804D01*
X005714Y005781D01*
X005760Y005769D01*
X006021Y005769D01*
X006021Y006403D01*
X006176Y006403D01*
X006176Y006557D01*
X006594Y006557D01*
X006594Y007035D01*
X006582Y007081D01*
X006558Y007122D01*
X006550Y007130D01*
X006558Y007138D01*
X006582Y007179D01*
X006594Y007225D01*
X006594Y007703D01*
X006176Y007703D01*
X006176Y007857D01*
X006594Y007857D01*
X006594Y008335D01*
X006582Y008381D01*
X006558Y008422D01*
X006550Y008430D01*
X006558Y008438D01*
X006582Y008479D01*
X006594Y008525D01*
X006594Y009003D01*
X006176Y009003D01*
X006176Y009157D01*
X006594Y009157D01*
X006594Y009635D01*
X006582Y009681D01*
X006558Y009722D01*
X006524Y009756D01*
X006483Y009779D01*
X006437Y009791D01*
X006176Y009791D01*
X006176Y009157D01*
X006021Y009157D01*
X006021Y009672D01*
X006053Y009704D01*
X006201Y009851D01*
X006711Y009851D01*
X006803Y009943D01*
X006894Y009851D01*
X007050Y009851D01*
X007050Y009771D01*
X006820Y009771D01*
X006726Y009678D01*
X006726Y008482D01*
X006778Y008430D01*
X006726Y008378D01*
X006726Y007182D01*
X006778Y007130D01*
X006726Y007078D01*
X006726Y005882D01*
X006820Y005789D01*
X007582Y005789D01*
X007640Y005846D01*
X007640Y002206D01*
X007290Y002206D01*
X007290Y002208D01*
X007253Y002296D01*
X007186Y002363D01*
X006766Y002783D01*
X006762Y002792D01*
X006733Y002817D01*
X006706Y002843D01*
X006697Y002847D01*
X006689Y002854D01*
X006653Y002865D01*
X006618Y002880D01*
X006611Y002880D01*
X006611Y003068D01*
X006611Y002983D02*
X007640Y002983D01*
X007640Y003141D02*
X006537Y003141D01*
X006725Y002824D02*
X007640Y002824D01*
X007640Y002666D02*
X006884Y002666D01*
X007042Y002507D02*
X007640Y002507D01*
X007640Y002349D02*
X007201Y002349D01*
X007050Y001680D02*
X005850Y001680D01*
X005750Y001731D01*
X005730Y001800D01*
X004530Y001800D01*
X004450Y001731D01*
X004373Y001081D02*
X004527Y001081D01*
X004527Y000922D02*
X004373Y000922D01*
X003801Y001081D02*
X003416Y001081D01*
X003379Y000922D02*
X003739Y000922D01*
X003739Y000764D02*
X003264Y000764D01*
X002959Y000764D02*
X002959Y000764D01*
X002959Y000922D02*
X002959Y000922D01*
X002959Y001081D02*
X002959Y001081D01*
X003312Y001398D02*
X003759Y001398D01*
X003759Y001556D02*
X003241Y001556D01*
X003358Y001715D02*
X003759Y001715D01*
X003759Y001873D02*
X003396Y001873D01*
X003375Y002032D02*
X003759Y002032D01*
X003836Y002190D02*
X003280Y002190D01*
X003246Y002349D02*
X003889Y002349D01*
X003889Y002507D02*
X003361Y002507D01*
X002959Y002680D02*
X002970Y002760D01*
X004650Y002760D01*
X004344Y002606D01*
X003637Y003467D02*
X002959Y003467D01*
X002959Y004255D02*
X003330Y004626D01*
X003330Y005360D01*
X004050Y005760D02*
X003570Y006240D01*
X003090Y006240D01*
X003080Y006350D01*
X003080Y007080D02*
X003690Y007080D01*
X005010Y008400D01*
X005010Y009840D01*
X005850Y009840D01*
X006330Y010320D01*
X006350Y010406D01*
X006147Y009798D02*
X007050Y009798D01*
X006726Y009640D02*
X006593Y009640D01*
X006594Y009481D02*
X006726Y009481D01*
X006726Y009323D02*
X006594Y009323D01*
X006594Y009164D02*
X006726Y009164D01*
X006726Y009006D02*
X006176Y009006D01*
X006176Y009003D02*
X006176Y008491D01*
X006176Y007857D01*
X006021Y007857D01*
X006021Y009003D01*
X006176Y009003D01*
X006176Y008847D02*
X006021Y008847D01*
X006021Y008689D02*
X006176Y008689D01*
X006176Y008530D02*
X006021Y008530D01*
X006021Y008372D02*
X006176Y008372D01*
X006176Y008213D02*
X006021Y008213D01*
X006021Y008055D02*
X006176Y008055D01*
X006176Y007896D02*
X006021Y007896D01*
X006021Y007738D02*
X004687Y007738D01*
X004528Y007579D02*
X005604Y007579D01*
X005604Y007421D02*
X004370Y007421D01*
X004211Y007262D02*
X005604Y007262D01*
X005629Y007104D02*
X004053Y007104D01*
X003910Y006945D02*
X005604Y006945D01*
X005604Y006787D02*
X003910Y006787D01*
X003910Y006628D02*
X005604Y006628D01*
X005604Y006311D02*
X003910Y006311D01*
X003997Y006153D02*
X005604Y006153D01*
X005604Y005994D02*
X004155Y005994D01*
X004186Y005963D02*
X004186Y005963D01*
X004278Y005836D02*
X005642Y005836D01*
X006021Y005836D02*
X006176Y005836D01*
X006176Y005769D02*
X006437Y005769D01*
X006483Y005781D01*
X006524Y005804D01*
X006558Y005838D01*
X006582Y005879D01*
X006594Y005925D01*
X006594Y006403D01*
X006176Y006403D01*
X006176Y005769D01*
X006066Y005670D02*
X006160Y005576D01*
X006160Y004684D01*
X006066Y004590D01*
X004434Y004590D01*
X004340Y004684D01*
X004340Y005576D01*
X004434Y005670D01*
X006066Y005670D01*
X006160Y005519D02*
X007640Y005519D01*
X007640Y005677D02*
X004290Y005677D01*
X004290Y005519D02*
X004340Y005519D01*
X004340Y005360D02*
X004290Y005360D01*
X004290Y005202D02*
X004340Y005202D01*
X004340Y005043D02*
X004290Y005043D01*
X004290Y004885D02*
X004340Y004885D01*
X004340Y004726D02*
X004290Y004726D01*
X004382Y004568D02*
X007640Y004568D01*
X007640Y004726D02*
X006160Y004726D01*
X006160Y004885D02*
X007640Y004885D01*
X007640Y005043D02*
X006160Y005043D01*
X006160Y005202D02*
X007640Y005202D01*
X007640Y005360D02*
X006160Y005360D01*
X006555Y005836D02*
X006773Y005836D01*
X006726Y005994D02*
X006594Y005994D01*
X006594Y006153D02*
X006726Y006153D01*
X006726Y006311D02*
X006594Y006311D01*
X006726Y006470D02*
X006176Y006470D01*
X006176Y006557D02*
X006021Y006557D01*
X006021Y007069D01*
X006021Y007703D01*
X006176Y007703D01*
X006176Y006557D01*
X006176Y006628D02*
X006021Y006628D01*
X006021Y006470D02*
X003910Y006470D01*
X004050Y005760D02*
X004050Y004560D01*
X005250Y003360D01*
X005250Y002606D01*
X005632Y003141D02*
X005774Y003141D01*
X005490Y003300D02*
X007640Y003300D01*
X007640Y003458D02*
X005469Y003458D01*
X005333Y003617D02*
X007640Y003617D01*
X007640Y003775D02*
X005174Y003775D01*
X005016Y003934D02*
X007640Y003934D01*
X007640Y004092D02*
X004857Y004092D01*
X004699Y004251D02*
X007640Y004251D01*
X007640Y004409D02*
X004540Y004409D01*
X003650Y003480D02*
X003637Y003467D01*
X002490Y002280D02*
X002850Y001920D01*
X002959Y001893D01*
X002490Y002280D02*
X002490Y005040D01*
X001410Y006120D01*
X001530Y006240D01*
X001625Y006350D01*
X001650Y006360D01*
X001650Y007080D01*
X001625Y007080D01*
X001650Y007080D02*
X001650Y007800D01*
X001625Y007810D01*
X001527Y008530D02*
X001373Y008530D01*
X001373Y008689D02*
X001527Y008689D01*
X001527Y008847D02*
X001373Y008847D01*
X001527Y008851D02*
X001527Y009006D01*
X001373Y009006D01*
X001373Y009424D01*
X000930Y009424D01*
X000930Y009556D01*
X002048Y009556D01*
X002100Y009608D01*
X002152Y009556D01*
X003348Y009556D01*
X003400Y009608D01*
X003452Y009556D01*
X004530Y009556D01*
X004530Y009424D01*
X004127Y009424D01*
X004127Y009006D01*
X003973Y009006D01*
X003973Y009424D01*
X003495Y009424D01*
X003449Y009412D01*
X003408Y009388D01*
X003400Y009380D01*
X003392Y009388D01*
X003351Y009412D01*
X003305Y009424D01*
X002827Y009424D01*
X002827Y009006D01*
X002673Y009006D01*
X002673Y009424D01*
X002195Y009424D01*
X002149Y009412D01*
X002108Y009388D01*
X002100Y009380D01*
X002092Y009388D01*
X002051Y009412D01*
X002005Y009424D01*
X001527Y009424D01*
X001527Y009006D01*
X002161Y009006D01*
X002673Y009006D01*
X002673Y008851D01*
X001527Y008851D01*
X001527Y009006D02*
X002673Y009006D01*
X002673Y009164D02*
X002827Y009164D01*
X002827Y009006D02*
X003339Y009006D01*
X003973Y009006D01*
X003973Y008851D01*
X002827Y008851D01*
X002827Y009006D01*
X003973Y009006D01*
X003973Y009164D02*
X004127Y009164D01*
X004127Y009323D02*
X003973Y009323D01*
X003973Y008847D02*
X004127Y008847D01*
X004127Y008689D02*
X003973Y008689D01*
X003973Y008530D02*
X004127Y008530D01*
X004282Y008372D02*
X003902Y008372D01*
X003910Y008213D02*
X004124Y008213D01*
X004170Y007920D02*
X003090Y007920D01*
X003080Y007810D01*
X002827Y008530D02*
X002673Y008530D01*
X002673Y008689D02*
X002827Y008689D01*
X002827Y008847D02*
X002673Y008847D01*
X002673Y009323D02*
X002827Y009323D01*
X002750Y010031D02*
X002850Y010080D01*
X004050Y010080D01*
X004050Y010031D01*
X004530Y009481D02*
X000930Y009481D01*
X001373Y009323D02*
X001527Y009323D01*
X001527Y009164D02*
X001373Y009164D01*
X001450Y010031D02*
X001530Y010080D01*
X002730Y010080D01*
X002750Y010031D01*
X002850Y010080D02*
X002850Y011880D01*
X003930Y012960D01*
X004024Y012986D01*
X004024Y012080D02*
X004050Y012000D01*
X004770Y012000D01*
X004770Y008520D01*
X004170Y007920D01*
X004845Y007896D02*
X005604Y007896D01*
X005604Y008055D02*
X005004Y008055D01*
X005162Y008213D02*
X005604Y008213D01*
X005614Y008372D02*
X005250Y008372D01*
X005250Y008530D02*
X005604Y008530D01*
X005604Y008689D02*
X005250Y008689D01*
X005250Y008847D02*
X005604Y008847D01*
X005604Y009164D02*
X005250Y009164D01*
X005250Y009006D02*
X006021Y009006D01*
X006021Y009164D02*
X006176Y009164D01*
X006176Y009323D02*
X006021Y009323D01*
X006021Y009481D02*
X006176Y009481D01*
X006176Y009640D02*
X006021Y009640D01*
X005604Y009481D02*
X005250Y009481D01*
X005250Y009323D02*
X005604Y009323D01*
X005250Y010200D02*
X005370Y010320D01*
X005444Y010406D01*
X005370Y010440D01*
X005370Y011160D01*
X004024Y011174D02*
X003930Y011160D01*
X003330Y011160D01*
X003330Y010680D01*
X006021Y007579D02*
X006176Y007579D01*
X006176Y007738D02*
X006726Y007738D01*
X006726Y007896D02*
X006594Y007896D01*
X006594Y008055D02*
X006726Y008055D01*
X006726Y008213D02*
X006594Y008213D01*
X006584Y008372D02*
X006726Y008372D01*
X006726Y008530D02*
X006594Y008530D01*
X006594Y008689D02*
X006726Y008689D01*
X006726Y008847D02*
X006594Y008847D01*
X007170Y009000D02*
X007201Y009080D01*
X007290Y009120D01*
X007290Y010320D01*
X007256Y010406D01*
X007170Y009000D02*
X007170Y007800D01*
X007201Y007780D01*
X007170Y007680D01*
X007170Y006480D01*
X007201Y006480D01*
X006726Y006628D02*
X006594Y006628D01*
X006594Y006787D02*
X006726Y006787D01*
X006726Y006945D02*
X006594Y006945D01*
X006568Y007104D02*
X006752Y007104D01*
X006726Y007262D02*
X006594Y007262D01*
X006594Y007421D02*
X006726Y007421D01*
X006726Y007579D02*
X006594Y007579D01*
X006176Y007421D02*
X006021Y007421D01*
X006021Y007262D02*
X006176Y007262D01*
X006176Y007104D02*
X006021Y007104D01*
X006021Y006945D02*
X006176Y006945D01*
X006176Y006787D02*
X006021Y006787D01*
X006021Y006311D02*
X006176Y006311D01*
X006176Y006153D02*
X006021Y006153D01*
X006021Y005994D02*
X006176Y005994D01*
X007629Y005836D02*
X007640Y005836D01*
X007640Y001239D02*
X003396Y001239D01*
X003739Y000447D02*
X000930Y000447D01*
X005099Y001081D02*
X005101Y001081D01*
X005673Y001081D02*
X005827Y001081D01*
X005827Y000922D02*
X005673Y000922D01*
X006399Y001081D02*
X006401Y001081D01*
D22*
X007150Y004180D03*
X003650Y003480D03*
X003330Y005360D03*
D23*
X003330Y010680D03*
X005370Y011160D03*
M02*
