G75*
G70*
%OFA0B0*%
%FSLAX24Y24*%
%IPPOS*%
%LPD*%
%AMOC8*
5,1,8,0,0,1.08239X$1,22.5*
%
%ADD10C,0.0740*%
%ADD11C,0.0640*%
%ADD12C,0.0160*%
%ADD13C,0.0436*%
%ADD14R,0.0436X0.0436*%
%ADD15C,0.0120*%
%ADD16C,0.0240*%
D10*
X021031Y002700D03*
X021031Y003700D03*
X021031Y004700D03*
X021031Y005700D03*
X021031Y006700D03*
X021031Y007700D03*
X021031Y008700D03*
X021031Y009700D03*
X021031Y010700D03*
X021031Y011700D03*
D11*
X012531Y002000D03*
X011531Y002000D03*
X010531Y002000D03*
X010531Y001000D03*
X011531Y001000D03*
X012531Y001000D03*
D12*
X012831Y001000D01*
X013531Y001700D01*
X013531Y006600D01*
X013731Y006700D01*
X013346Y006863D02*
X013214Y006918D01*
X013048Y006918D01*
X012894Y006854D01*
X012777Y006737D01*
X012713Y006583D01*
X012713Y006417D01*
X012777Y006263D01*
X012851Y006189D01*
X012851Y004271D01*
X012768Y004354D01*
X012614Y004418D01*
X012448Y004418D01*
X012294Y004354D01*
X012177Y004237D01*
X012113Y004083D01*
X012113Y003917D01*
X012177Y003763D01*
X012251Y003689D01*
X012251Y002447D01*
X012236Y002441D01*
X012111Y002315D01*
X012111Y005789D01*
X012185Y005863D01*
X012249Y006017D01*
X012249Y006183D01*
X012185Y006337D01*
X012068Y006454D01*
X011914Y006518D01*
X011748Y006518D01*
X011594Y006454D01*
X011477Y006337D01*
X011413Y006183D01*
X011413Y006017D01*
X011477Y005863D01*
X011551Y005789D01*
X011551Y004899D01*
X011532Y004918D01*
X010930Y004918D01*
X010813Y004801D01*
X010813Y004478D01*
X009672Y003337D01*
X009594Y003259D01*
X009551Y003156D01*
X009551Y001344D01*
X009594Y001241D01*
X009994Y000841D01*
X010062Y000773D01*
X010090Y000705D01*
X010196Y000600D01*
X009031Y000600D01*
X009031Y004683D01*
X008914Y004800D01*
X008831Y004800D01*
X008831Y005182D01*
X008914Y005182D01*
X009068Y005246D01*
X009185Y005363D01*
X009249Y005517D01*
X009249Y005556D01*
X010959Y007180D01*
X010960Y007180D01*
X010994Y007146D01*
X011148Y007082D01*
X011314Y007082D01*
X011468Y007146D01*
X011585Y007263D01*
X011649Y007417D01*
X011649Y007583D01*
X011585Y007737D01*
X011468Y007854D01*
X011314Y007918D01*
X011148Y007918D01*
X010994Y007854D01*
X010960Y007820D01*
X010835Y007820D01*
X010776Y007822D01*
X010772Y007820D01*
X010767Y007820D01*
X010712Y007797D01*
X010657Y007776D01*
X010654Y007773D01*
X010650Y007771D01*
X010608Y007729D01*
X008831Y006041D01*
X008831Y006473D01*
X008849Y006517D01*
X008849Y006623D01*
X008948Y006582D01*
X009114Y006582D01*
X009268Y006646D01*
X009342Y006720D01*
X009487Y006720D01*
X009590Y006763D01*
X009668Y006841D01*
X009711Y006944D01*
X009711Y007384D01*
X010747Y008420D01*
X013020Y008420D01*
X013094Y008346D01*
X013248Y008282D01*
X013414Y008282D01*
X013568Y008346D01*
X013685Y008463D01*
X013749Y008617D01*
X013749Y008783D01*
X013730Y008830D01*
X013768Y008846D01*
X013885Y008963D01*
X013949Y009117D01*
X013949Y009283D01*
X013885Y009437D01*
X013768Y009554D01*
X013614Y009618D01*
X013448Y009618D01*
X013294Y009554D01*
X013177Y009437D01*
X013153Y009380D01*
X010375Y009380D01*
X010272Y009337D01*
X010194Y009259D01*
X010194Y009259D01*
X008831Y007896D01*
X008831Y009200D01*
X008914Y009200D01*
X009031Y009317D01*
X009031Y013596D01*
X021501Y013596D01*
X021501Y011989D01*
X021450Y012058D01*
X021389Y012120D01*
X021319Y012170D01*
X021242Y012210D01*
X021160Y012236D01*
X021074Y012250D01*
X021051Y012250D01*
X021051Y011720D01*
X021011Y011720D01*
X021011Y012250D01*
X020988Y012250D01*
X020902Y012236D01*
X020820Y012210D01*
X020743Y012170D01*
X020673Y012120D01*
X020611Y012058D01*
X020561Y011988D01*
X020521Y011911D01*
X020495Y011829D01*
X020481Y011743D01*
X020481Y011720D01*
X021011Y011720D01*
X021011Y011680D01*
X020481Y011680D01*
X020481Y011657D01*
X020495Y011571D01*
X020521Y011489D01*
X020561Y011412D01*
X020611Y011342D01*
X020673Y011280D01*
X020743Y011230D01*
X020777Y011212D01*
X020708Y011183D01*
X020548Y011023D01*
X020461Y010813D01*
X020461Y010587D01*
X020462Y010584D01*
X017798Y007920D01*
X014602Y007920D01*
X014568Y007954D01*
X014414Y008018D01*
X014248Y008018D01*
X014094Y007954D01*
X013977Y007837D01*
X013913Y007683D01*
X013913Y007517D01*
X013977Y007363D01*
X014094Y007246D01*
X014248Y007182D01*
X014414Y007182D01*
X014568Y007246D01*
X014602Y007280D01*
X017995Y007280D01*
X018112Y007329D01*
X020461Y009677D01*
X020461Y009587D01*
X020487Y009524D01*
X018284Y007320D01*
X018211Y007247D01*
X018171Y007152D01*
X018171Y005508D01*
X018081Y005418D01*
X017948Y005418D01*
X017794Y005354D01*
X017677Y005237D01*
X017613Y005083D01*
X017613Y004918D01*
X017448Y004918D01*
X017294Y004854D01*
X017177Y004737D01*
X017113Y004583D01*
X017113Y004417D01*
X017162Y004298D01*
X017114Y004318D01*
X016948Y004318D01*
X016794Y004254D01*
X016677Y004137D01*
X016614Y003985D01*
X015549Y005050D01*
X015549Y005183D01*
X015485Y005337D01*
X015368Y005454D01*
X015214Y005518D01*
X015108Y005518D01*
X015149Y005617D01*
X015149Y005783D01*
X015085Y005937D01*
X014968Y006054D01*
X014814Y006118D01*
X014648Y006118D01*
X014494Y006054D01*
X014420Y005980D01*
X014075Y005980D01*
X013972Y005937D01*
X013811Y005776D01*
X013811Y006282D01*
X013814Y006282D01*
X013968Y006346D01*
X014085Y006463D01*
X014149Y006617D01*
X014149Y006783D01*
X014085Y006937D01*
X013968Y007054D01*
X013814Y007118D01*
X013648Y007118D01*
X013494Y007054D01*
X013377Y006937D01*
X013346Y006863D01*
X013435Y006996D02*
X010765Y006996D01*
X010931Y007154D02*
X010986Y007154D01*
X011476Y007154D02*
X018172Y007154D01*
X018171Y006996D02*
X014027Y006996D01*
X014127Y006837D02*
X018171Y006837D01*
X018171Y006679D02*
X014149Y006679D01*
X014109Y006520D02*
X018171Y006520D01*
X018171Y006362D02*
X013984Y006362D01*
X013811Y006203D02*
X018171Y006203D01*
X018171Y006045D02*
X014978Y006045D01*
X015106Y005886D02*
X018171Y005886D01*
X018171Y005728D02*
X015149Y005728D01*
X015129Y005569D02*
X018171Y005569D01*
X017930Y005411D02*
X015412Y005411D01*
X015521Y005252D02*
X017692Y005252D01*
X017617Y005094D02*
X015549Y005094D01*
X015664Y004935D02*
X017613Y004935D01*
X017216Y004777D02*
X015822Y004777D01*
X015981Y004618D02*
X017127Y004618D01*
X017113Y004460D02*
X016139Y004460D01*
X016298Y004301D02*
X016907Y004301D01*
X017155Y004301D02*
X017161Y004301D01*
X016682Y004143D02*
X016456Y004143D01*
X015513Y003350D02*
X015272Y003350D01*
X015268Y003354D02*
X015114Y003418D01*
X015009Y003418D01*
X014611Y003816D01*
X014611Y004039D01*
X014748Y003982D01*
X014881Y003982D01*
X015984Y002880D01*
X016079Y002840D01*
X018488Y002840D01*
X018497Y002837D01*
X018540Y002840D01*
X018583Y002840D01*
X018591Y002843D01*
X018600Y002844D01*
X018638Y002863D01*
X018678Y002880D01*
X018685Y002886D01*
X018693Y002890D01*
X018721Y002922D01*
X018751Y002953D01*
X018755Y002961D01*
X020049Y004440D01*
X020522Y004440D01*
X020548Y004377D01*
X020708Y004217D01*
X020777Y004188D01*
X020743Y004170D01*
X020673Y004120D01*
X020611Y004058D01*
X020561Y003988D01*
X020521Y003911D01*
X020495Y003829D01*
X020481Y003743D01*
X020481Y003720D01*
X021011Y003720D01*
X021011Y003680D01*
X020481Y003680D01*
X020481Y003657D01*
X020495Y003571D01*
X020521Y003489D01*
X020561Y003412D01*
X020611Y003342D01*
X020673Y003280D01*
X020743Y003230D01*
X020777Y003212D01*
X020708Y003183D01*
X020548Y003023D01*
X020461Y002813D01*
X020461Y002587D01*
X020548Y002377D01*
X020708Y002217D01*
X020918Y002130D01*
X021144Y002130D01*
X021354Y002217D01*
X021501Y002364D01*
X021501Y000600D01*
X012866Y000600D01*
X012972Y000705D01*
X013000Y000773D01*
X013068Y000841D01*
X013768Y001541D01*
X013811Y001644D01*
X013811Y002624D01*
X013913Y002522D01*
X013913Y002417D01*
X013977Y002263D01*
X014094Y002146D01*
X014248Y002082D01*
X014414Y002082D01*
X014568Y002146D01*
X014685Y002263D01*
X014749Y002417D01*
X014749Y002583D01*
X014685Y002737D01*
X014568Y002854D01*
X014414Y002918D01*
X014309Y002918D01*
X014111Y003116D01*
X014111Y003524D01*
X014613Y003022D01*
X014613Y002917D01*
X014677Y002763D01*
X014794Y002646D01*
X014948Y002582D01*
X015114Y002582D01*
X015268Y002646D01*
X015385Y002763D01*
X015449Y002917D01*
X015449Y003083D01*
X015385Y003237D01*
X015268Y003354D01*
X015355Y003509D02*
X014918Y003509D01*
X014760Y003667D02*
X015196Y003667D01*
X015038Y003826D02*
X014611Y003826D01*
X014611Y003984D02*
X014743Y003984D01*
X014331Y003700D02*
X015031Y003000D01*
X015338Y002716D02*
X020461Y002716D01*
X020473Y002558D02*
X014749Y002558D01*
X014742Y002399D02*
X020539Y002399D01*
X020684Y002241D02*
X014663Y002241D01*
X014414Y002082D02*
X021501Y002082D01*
X021501Y001924D02*
X013811Y001924D01*
X013811Y002082D02*
X014247Y002082D01*
X013999Y002241D02*
X013811Y002241D01*
X013811Y002399D02*
X013920Y002399D01*
X013877Y002558D02*
X013811Y002558D01*
X013831Y003000D02*
X014331Y002500D01*
X014519Y002875D02*
X014630Y002875D01*
X014602Y003033D02*
X014194Y003033D01*
X014111Y003192D02*
X014443Y003192D01*
X014285Y003350D02*
X014111Y003350D01*
X014111Y003509D02*
X014126Y003509D01*
X014331Y003700D02*
X014331Y005200D01*
X014131Y005700D02*
X013831Y005400D01*
X013831Y003000D01*
X014694Y002716D02*
X014724Y002716D01*
X015432Y002875D02*
X015996Y002875D01*
X015830Y003033D02*
X015449Y003033D01*
X015404Y003192D02*
X015672Y003192D01*
X013811Y001765D02*
X021501Y001765D01*
X021501Y001607D02*
X013795Y001607D01*
X013675Y001448D02*
X021501Y001448D01*
X021501Y001290D02*
X013516Y001290D01*
X013358Y001131D02*
X021501Y001131D01*
X021501Y000973D02*
X013199Y000973D01*
X013041Y000814D02*
X021501Y000814D01*
X021501Y000656D02*
X012922Y000656D01*
X012931Y001500D02*
X012031Y001500D01*
X011531Y001000D01*
X010531Y001000D02*
X010231Y001000D01*
X009831Y001400D01*
X009831Y003100D01*
X011231Y004500D01*
X011209Y004082D02*
X011532Y004082D01*
X011551Y004101D01*
X011551Y002520D01*
X011428Y002520D01*
X011236Y002441D01*
X011090Y002295D01*
X011018Y002120D01*
X010994Y002192D01*
X010959Y002262D01*
X010912Y002326D01*
X010857Y002381D01*
X010793Y002428D01*
X010723Y002463D01*
X010648Y002488D01*
X010570Y002500D01*
X010540Y002500D01*
X010540Y002009D01*
X010522Y002009D01*
X010522Y002500D01*
X010492Y002500D01*
X010414Y002488D01*
X010339Y002463D01*
X010269Y002428D01*
X010205Y002381D01*
X010150Y002326D01*
X010111Y002273D01*
X010111Y002984D01*
X011209Y004082D01*
X011111Y003984D02*
X011551Y003984D01*
X011551Y003826D02*
X010952Y003826D01*
X010794Y003667D02*
X011551Y003667D01*
X011551Y003509D02*
X010635Y003509D01*
X010477Y003350D02*
X011551Y003350D01*
X011551Y003192D02*
X010318Y003192D01*
X010160Y003033D02*
X011551Y003033D01*
X011551Y002875D02*
X010111Y002875D01*
X010111Y002716D02*
X011551Y002716D01*
X011551Y002558D02*
X010111Y002558D01*
X010111Y002399D02*
X010230Y002399D01*
X010522Y002399D02*
X010540Y002399D01*
X010540Y002241D02*
X010522Y002241D01*
X010522Y002082D02*
X010540Y002082D01*
X010832Y002399D02*
X011195Y002399D01*
X011068Y002241D02*
X010970Y002241D01*
X011531Y002000D02*
X011831Y002300D01*
X011831Y006100D01*
X012161Y006362D02*
X012736Y006362D01*
X012713Y006520D02*
X010264Y006520D01*
X010097Y006362D02*
X011501Y006362D01*
X011421Y006203D02*
X009930Y006203D01*
X009764Y006045D02*
X011413Y006045D01*
X011467Y005886D02*
X009597Y005886D01*
X009430Y005728D02*
X011551Y005728D01*
X011551Y005569D02*
X009263Y005569D01*
X009205Y005411D02*
X011551Y005411D01*
X011551Y005252D02*
X009074Y005252D01*
X008831Y005094D02*
X011551Y005094D01*
X011551Y004935D02*
X008831Y004935D01*
X008937Y004777D02*
X010813Y004777D01*
X010813Y004618D02*
X009031Y004618D01*
X009031Y004460D02*
X010795Y004460D01*
X010636Y004301D02*
X009031Y004301D01*
X009031Y004143D02*
X010478Y004143D01*
X010319Y003984D02*
X009031Y003984D01*
X009031Y003826D02*
X010161Y003826D01*
X010002Y003667D02*
X009031Y003667D01*
X009031Y003509D02*
X009844Y003509D01*
X009685Y003350D02*
X009031Y003350D01*
X009031Y003192D02*
X009566Y003192D01*
X009551Y003033D02*
X009031Y003033D01*
X009031Y002875D02*
X009551Y002875D01*
X009551Y002716D02*
X009031Y002716D01*
X009031Y002558D02*
X009551Y002558D01*
X009551Y002399D02*
X009031Y002399D01*
X009031Y002241D02*
X009551Y002241D01*
X009551Y002082D02*
X009031Y002082D01*
X009031Y001924D02*
X009551Y001924D01*
X009551Y001765D02*
X009031Y001765D01*
X009031Y001607D02*
X009551Y001607D01*
X009551Y001448D02*
X009031Y001448D01*
X009031Y001290D02*
X009574Y001290D01*
X009704Y001131D02*
X009031Y001131D01*
X009031Y000973D02*
X009862Y000973D01*
X009994Y000841D02*
X009994Y000841D01*
X010021Y000814D02*
X009031Y000814D01*
X009031Y000656D02*
X010140Y000656D01*
X012111Y002399D02*
X012195Y002399D01*
X012251Y002558D02*
X012111Y002558D01*
X012111Y002716D02*
X012251Y002716D01*
X012251Y002875D02*
X012111Y002875D01*
X012111Y003033D02*
X012251Y003033D01*
X012251Y003192D02*
X012111Y003192D01*
X012111Y003350D02*
X012251Y003350D01*
X012251Y003509D02*
X012111Y003509D01*
X012111Y003667D02*
X012251Y003667D01*
X012151Y003826D02*
X012111Y003826D01*
X012111Y003984D02*
X012113Y003984D01*
X012111Y004143D02*
X012137Y004143D01*
X012111Y004301D02*
X012241Y004301D01*
X012111Y004460D02*
X012851Y004460D01*
X012851Y004618D02*
X012111Y004618D01*
X012111Y004777D02*
X012851Y004777D01*
X012851Y004935D02*
X012111Y004935D01*
X012111Y005094D02*
X012851Y005094D01*
X012851Y005252D02*
X012111Y005252D01*
X012111Y005411D02*
X012851Y005411D01*
X012851Y005569D02*
X012111Y005569D01*
X012111Y005728D02*
X012851Y005728D01*
X012851Y005886D02*
X012195Y005886D01*
X012249Y006045D02*
X012851Y006045D01*
X012837Y006203D02*
X012241Y006203D01*
X012752Y006679D02*
X010431Y006679D01*
X010598Y006837D02*
X012877Y006837D01*
X013131Y006500D02*
X013131Y001700D01*
X012931Y001500D01*
X012531Y002000D02*
X012531Y004000D01*
X012821Y004301D02*
X012851Y004301D01*
X014131Y005700D02*
X014731Y005700D01*
X014484Y006045D02*
X013811Y006045D01*
X013811Y005886D02*
X013921Y005886D01*
X014027Y007313D02*
X011606Y007313D01*
X011649Y007471D02*
X013932Y007471D01*
X013913Y007630D02*
X011630Y007630D01*
X011534Y007788D02*
X013956Y007788D01*
X014086Y007947D02*
X010273Y007947D01*
X010115Y007788D02*
X010688Y007788D01*
X010503Y007630D02*
X009956Y007630D01*
X009798Y007471D02*
X010336Y007471D01*
X010169Y007313D02*
X009711Y007313D01*
X009711Y007154D02*
X010002Y007154D01*
X009835Y006996D02*
X009711Y006996D01*
X009668Y006837D02*
X009664Y006837D01*
X009502Y006679D02*
X009301Y006679D01*
X009335Y006520D02*
X008849Y006520D01*
X008831Y006362D02*
X009168Y006362D01*
X009001Y006203D02*
X008831Y006203D01*
X008831Y006045D02*
X008834Y006045D01*
X008431Y006600D02*
X008431Y007100D01*
X010431Y009100D01*
X013431Y009100D01*
X013531Y009200D01*
X013820Y008898D02*
X014542Y008898D01*
X014594Y008846D02*
X014748Y008782D01*
X014914Y008782D01*
X015068Y008846D01*
X015185Y008963D01*
X015249Y009117D01*
X015249Y009283D01*
X015185Y009437D01*
X015111Y009511D01*
X015111Y009784D01*
X018009Y012682D01*
X018114Y012682D01*
X018268Y012746D01*
X018385Y012863D01*
X018449Y013017D01*
X018449Y013183D01*
X018385Y013337D01*
X018268Y013454D01*
X018114Y013518D01*
X017948Y013518D01*
X017794Y013454D01*
X017677Y013337D01*
X017613Y013183D01*
X017613Y013078D01*
X014594Y010059D01*
X014551Y009956D01*
X014551Y009511D01*
X014477Y009437D01*
X014413Y009283D01*
X014413Y009117D01*
X014477Y008963D01*
X014594Y008846D01*
X014438Y009056D02*
X013924Y009056D01*
X013949Y009215D02*
X014413Y009215D01*
X014450Y009373D02*
X013912Y009373D01*
X013791Y009532D02*
X014551Y009532D01*
X014551Y009690D02*
X009031Y009690D01*
X009031Y009532D02*
X013271Y009532D01*
X013331Y008700D02*
X010631Y008700D01*
X009431Y007500D01*
X009431Y007000D01*
X009031Y007000D01*
X008882Y007947D02*
X008831Y007947D01*
X008831Y008105D02*
X009040Y008105D01*
X009199Y008264D02*
X008831Y008264D01*
X008831Y008422D02*
X009357Y008422D01*
X009516Y008581D02*
X008831Y008581D01*
X008831Y008739D02*
X009674Y008739D01*
X009833Y008898D02*
X008831Y008898D01*
X008831Y009056D02*
X009991Y009056D01*
X010150Y009215D02*
X008928Y009215D01*
X009031Y009373D02*
X010358Y009373D01*
X009031Y009849D02*
X014551Y009849D01*
X014572Y010007D02*
X009031Y010007D01*
X009031Y010166D02*
X014701Y010166D01*
X014859Y010324D02*
X009031Y010324D01*
X009031Y010483D02*
X015018Y010483D01*
X015176Y010641D02*
X009031Y010641D01*
X009031Y010800D02*
X015335Y010800D01*
X015493Y010958D02*
X009031Y010958D01*
X009031Y011117D02*
X015652Y011117D01*
X015810Y011275D02*
X009031Y011275D01*
X009031Y011434D02*
X015969Y011434D01*
X016127Y011592D02*
X009031Y011592D01*
X009031Y011751D02*
X016286Y011751D01*
X016444Y011909D02*
X009031Y011909D01*
X009031Y012068D02*
X016603Y012068D01*
X016761Y012226D02*
X009031Y012226D01*
X009031Y012385D02*
X016920Y012385D01*
X017078Y012543D02*
X009031Y012543D01*
X009031Y012702D02*
X017237Y012702D01*
X017395Y012860D02*
X009031Y012860D01*
X009031Y013019D02*
X017554Y013019D01*
X017613Y013177D02*
X009031Y013177D01*
X009031Y013336D02*
X017676Y013336D01*
X017890Y013494D02*
X009031Y013494D01*
X014831Y009900D02*
X014831Y009200D01*
X015120Y008898D02*
X018776Y008898D01*
X018934Y009056D02*
X015224Y009056D01*
X015249Y009215D02*
X019093Y009215D01*
X019251Y009373D02*
X015212Y009373D01*
X015111Y009532D02*
X019410Y009532D01*
X019568Y009690D02*
X015111Y009690D01*
X015175Y009849D02*
X019727Y009849D01*
X019885Y010007D02*
X015334Y010007D01*
X015492Y010166D02*
X020044Y010166D01*
X020202Y010324D02*
X015651Y010324D01*
X015809Y010483D02*
X020361Y010483D01*
X020461Y010641D02*
X015968Y010641D01*
X016126Y010800D02*
X020461Y010800D01*
X020521Y010958D02*
X016285Y010958D01*
X016443Y011117D02*
X020641Y011117D01*
X020680Y011275D02*
X016602Y011275D01*
X016760Y011434D02*
X020549Y011434D01*
X020491Y011592D02*
X016919Y011592D01*
X017077Y011751D02*
X020482Y011751D01*
X020521Y011909D02*
X017236Y011909D01*
X017394Y012068D02*
X020621Y012068D01*
X020870Y012226D02*
X017553Y012226D01*
X017711Y012385D02*
X021501Y012385D01*
X021501Y012543D02*
X017870Y012543D01*
X018162Y012702D02*
X021501Y012702D01*
X021501Y012860D02*
X018382Y012860D01*
X018449Y013019D02*
X021501Y013019D01*
X021501Y013177D02*
X018449Y013177D01*
X018386Y013336D02*
X021501Y013336D01*
X021501Y013494D02*
X018172Y013494D01*
X018031Y013100D02*
X014831Y009900D01*
X013749Y008739D02*
X018617Y008739D01*
X018459Y008581D02*
X013734Y008581D01*
X013644Y008422D02*
X018300Y008422D01*
X018142Y008264D02*
X010590Y008264D01*
X010432Y008105D02*
X017983Y008105D01*
X017825Y007947D02*
X014576Y007947D01*
X018073Y007313D02*
X018276Y007313D01*
X018255Y007471D02*
X018434Y007471D01*
X018413Y007630D02*
X018593Y007630D01*
X018572Y007788D02*
X018751Y007788D01*
X018730Y007947D02*
X018910Y007947D01*
X018889Y008105D02*
X019068Y008105D01*
X019047Y008264D02*
X019227Y008264D01*
X019206Y008422D02*
X019385Y008422D01*
X019364Y008581D02*
X019544Y008581D01*
X019523Y008739D02*
X019702Y008739D01*
X019681Y008898D02*
X019861Y008898D01*
X019840Y009056D02*
X020019Y009056D01*
X019998Y009215D02*
X020178Y009215D01*
X020157Y009373D02*
X020336Y009373D01*
X020315Y009532D02*
X020484Y009532D01*
X021011Y011751D02*
X021051Y011751D01*
X021051Y011909D02*
X021011Y011909D01*
X021011Y012068D02*
X021051Y012068D01*
X021051Y012226D02*
X021011Y012226D01*
X021192Y012226D02*
X021501Y012226D01*
X021501Y012068D02*
X021441Y012068D01*
X020624Y004301D02*
X019927Y004301D01*
X019789Y004143D02*
X020704Y004143D01*
X020558Y003984D02*
X019650Y003984D01*
X019511Y003826D02*
X020494Y003826D01*
X020481Y003667D02*
X019373Y003667D01*
X019234Y003509D02*
X020515Y003509D01*
X020605Y003350D02*
X019095Y003350D01*
X018957Y003192D02*
X020728Y003192D01*
X020558Y003033D02*
X018818Y003033D01*
X018666Y002875D02*
X020486Y002875D01*
X021378Y002241D02*
X021501Y002241D01*
X009672Y003337D02*
X009672Y003337D01*
D13*
X008431Y006600D03*
X009031Y007000D03*
X008831Y005600D03*
X011231Y007500D03*
X011831Y006100D03*
X013131Y006500D03*
X013731Y006700D03*
X014331Y007600D03*
X013331Y008700D03*
X013531Y009200D03*
X014831Y009200D03*
X014731Y005700D03*
X014331Y005200D03*
X015131Y005100D03*
X015631Y005700D03*
X014831Y004400D03*
X015031Y003000D03*
X014331Y002500D03*
X012531Y004000D03*
X009331Y003500D03*
X017031Y003900D03*
X017531Y004500D03*
X018031Y004100D03*
X018031Y005000D03*
X018731Y002300D03*
X018031Y013100D03*
D14*
X011231Y004500D03*
D15*
X014831Y004400D02*
X016131Y003100D01*
X018531Y003100D01*
X019931Y004700D01*
X021031Y004700D01*
X021031Y005700D02*
X019731Y005700D01*
X019631Y005600D01*
X019631Y004800D01*
X018331Y003400D01*
X016831Y003400D01*
X015131Y005100D01*
X017031Y003900D02*
X017231Y003700D01*
X018231Y003700D01*
X019331Y004900D01*
X019331Y006500D01*
X019531Y006700D01*
X021031Y006700D01*
X021031Y007700D02*
X019931Y007700D01*
X019031Y006800D01*
X019031Y005000D01*
X018131Y004100D01*
X018031Y004100D01*
X018131Y004500D02*
X017531Y004500D01*
X018131Y004500D02*
X018731Y005100D01*
X018731Y007000D01*
X020431Y008700D01*
X021031Y008700D01*
X021031Y009700D02*
X018431Y007100D01*
X018431Y005400D01*
X018031Y005000D01*
D16*
X017931Y007600D02*
X021031Y010700D01*
X017931Y007600D02*
X014331Y007600D01*
X011231Y007500D02*
X010831Y007500D01*
X008831Y005600D01*
M02*
