%
M48
M72
T01C0.0236
T02C0.0354
T03C0.0400
%
T01
X8431Y6600
X9031Y7000
X8831Y5600
X11231Y4500
X12531Y4000
X14331Y5200
X14731Y5700
X15131Y5100
X15631Y5700
X14831Y4400
X15031Y3000
X14331Y2500
X17031Y3900
X17531Y4500
X18031Y4100
X18031Y5000
X18731Y2300
X13131Y6500
X13731Y6700
X14331Y7600
X13331Y8700
X13531Y9200
X14831Y9200
X11231Y7500
X11831Y6100
X9331Y3500
X18031Y13100
T02
X12531Y2000
X11531Y2000
X10531Y2000
X10531Y1000
X11531Y1000
X12531Y1000
T03
X21031Y2700
X21031Y3700
X21031Y4700
X21031Y5700
X21031Y6700
X21031Y7700
X21031Y8700
X21031Y9700
X21031Y10700
X21031Y11700
M30
