G75*
G70*
%OFA0B0*%
%FSLAX24Y24*%
%IPPOS*%
%LPD*%
%AMOC8*
5,1,8,0,0,1.08239X$1,22.5*
%
%ADD10C,0.0555*%
%ADD11R,0.0630X0.0390*%
%ADD12R,0.0630X0.0830*%
%ADD13R,0.1020X0.0830*%
%ADD14R,0.1020X0.0390*%
%ADD15R,0.1100X0.1500*%
%ADD16R,0.1500X0.1100*%
%ADD17R,0.0551X0.0394*%
%ADD18R,0.0256X0.0197*%
%ADD19R,0.0276X0.0354*%
%ADD20R,0.0354X0.0276*%
%ADD21C,0.0320*%
%ADD22C,0.0160*%
%ADD23C,0.0436*%
%ADD24C,0.0120*%
D10*
X002389Y001105D03*
X002389Y001893D03*
X002389Y002680D03*
X002389Y003467D03*
X002389Y004255D03*
D11*
X002705Y006880D03*
D12*
X002705Y007610D03*
X002705Y006150D03*
D13*
X001250Y006150D03*
X001250Y007610D03*
D14*
X001250Y006880D03*
D15*
X001480Y009680D03*
X001480Y012180D03*
X004290Y012180D03*
X004290Y009680D03*
D16*
X005580Y004090D03*
X005580Y001280D03*
D17*
X004713Y005606D03*
X004713Y006354D03*
X004613Y007406D03*
X004613Y008154D03*
X003747Y007780D03*
X003847Y005980D03*
X005547Y006880D03*
X006413Y006506D03*
X006413Y007254D03*
D18*
X003726Y003752D03*
X003726Y003437D03*
X003726Y003123D03*
X003726Y002808D03*
X003234Y002808D03*
X003234Y003123D03*
X003234Y003437D03*
X003234Y003752D03*
D19*
X005224Y007580D03*
X005736Y007580D03*
X006024Y005580D03*
X006536Y005580D03*
D20*
X003580Y005336D03*
X003580Y004824D03*
D21*
X003847Y005980D02*
X003677Y006150D01*
X002705Y006150D01*
X002705Y006880D02*
X005547Y006880D01*
X005106Y006354D02*
X005280Y006180D01*
X005280Y004190D01*
X005580Y004090D01*
X005106Y006354D02*
X004713Y006354D01*
X003577Y007610D02*
X003747Y007780D01*
X003577Y007610D02*
X002705Y007610D01*
X001250Y007610D02*
X001180Y007540D01*
X001180Y007380D01*
X001250Y007310D01*
X001250Y006880D01*
X001250Y006150D01*
X001180Y007380D02*
X001180Y002480D01*
X001767Y001893D01*
X002389Y001893D01*
X004613Y008154D02*
X004290Y008477D01*
X004290Y009680D01*
X004280Y011780D02*
X004280Y012180D01*
X004290Y012180D01*
X004280Y011780D02*
X006413Y009647D01*
X006413Y007254D01*
D22*
X000360Y013396D02*
X000360Y000360D01*
X006670Y000360D01*
X006670Y003159D01*
X006414Y002903D01*
X004014Y002903D01*
X004014Y002643D01*
X004008Y002636D01*
X004094Y002601D01*
X004201Y002494D01*
X004258Y002355D01*
X004258Y002205D01*
X004201Y002066D01*
X004094Y001959D01*
X003955Y001902D01*
X003805Y001902D01*
X003666Y001959D01*
X003559Y002066D01*
X003502Y002205D01*
X003502Y002355D01*
X003506Y002365D01*
X003506Y002575D01*
X003480Y002601D01*
X003428Y002549D01*
X003040Y002549D01*
X003001Y002588D01*
X002824Y002588D01*
X002760Y002432D01*
X002636Y002309D01*
X002581Y002286D01*
X002636Y002263D01*
X002760Y002140D01*
X002826Y001980D01*
X002826Y001806D01*
X002760Y001645D01*
X002636Y001522D01*
X002605Y001509D01*
X002628Y001496D01*
X002687Y001454D01*
X002738Y001403D01*
X002780Y001345D01*
X002813Y001281D01*
X002835Y001212D01*
X002846Y001141D01*
X002846Y001105D01*
X002389Y001105D01*
X002389Y001105D01*
X002389Y000648D01*
X002425Y000648D01*
X002496Y000659D01*
X002564Y000681D01*
X002628Y000714D01*
X002687Y000756D01*
X002738Y000807D01*
X002780Y000865D01*
X002813Y000930D01*
X002835Y000998D01*
X002846Y001069D01*
X002846Y001105D01*
X002389Y001105D01*
X002389Y001105D01*
X002389Y000648D01*
X002353Y000648D01*
X002282Y000659D01*
X002213Y000681D01*
X002149Y000714D01*
X002091Y000756D01*
X002040Y000807D01*
X001997Y000865D01*
X001965Y000930D01*
X001942Y000998D01*
X001931Y001069D01*
X001931Y001105D01*
X002389Y001105D01*
X002389Y001105D01*
X001931Y001105D01*
X001931Y001141D01*
X001942Y001212D01*
X001965Y001281D01*
X001997Y001345D01*
X002040Y001403D01*
X002091Y001454D01*
X002149Y001496D01*
X002173Y001509D01*
X002141Y001522D01*
X002090Y001573D01*
X001704Y001573D01*
X001586Y001621D01*
X000999Y002209D01*
X000999Y002209D01*
X000909Y002299D01*
X000860Y002416D01*
X000860Y005500D01*
X000447Y005500D01*
X000400Y005547D01*
X000400Y008213D01*
X000360Y008213D01*
X000400Y008213D02*
X000447Y008260D01*
X003313Y008260D01*
X003360Y008213D01*
X004102Y008213D01*
X004089Y008137D02*
X003405Y008137D01*
X003360Y008092D01*
X003360Y008213D01*
X003674Y008770D02*
X003970Y008770D01*
X003970Y008413D01*
X004019Y008296D01*
X004177Y008137D01*
X004177Y008048D01*
X004089Y008137D01*
X004171Y008055D02*
X004177Y008055D01*
X003987Y008372D02*
X000360Y008372D01*
X000360Y008530D02*
X003970Y008530D01*
X003970Y008689D02*
X000360Y008689D01*
X000360Y008847D02*
X000770Y008847D01*
X000762Y008861D02*
X000786Y008819D01*
X000819Y008786D01*
X000861Y008762D01*
X000906Y008750D01*
X001400Y008750D01*
X001400Y009600D01*
X001560Y009600D01*
X001560Y009760D01*
X002210Y009760D01*
X002210Y010454D01*
X002198Y010499D01*
X002174Y010541D01*
X002141Y010574D01*
X002099Y010598D01*
X002054Y010610D01*
X001560Y010610D01*
X001560Y009760D01*
X001400Y009760D01*
X001400Y010610D01*
X000906Y010610D01*
X000861Y010598D01*
X000819Y010574D01*
X000786Y010541D01*
X000762Y010499D01*
X000750Y010454D01*
X000750Y009760D01*
X001400Y009760D01*
X001400Y009600D01*
X000750Y009600D01*
X000750Y008906D01*
X000762Y008861D01*
X000750Y009006D02*
X000360Y009006D01*
X000360Y009164D02*
X000750Y009164D01*
X000750Y009323D02*
X000360Y009323D01*
X000360Y009481D02*
X000750Y009481D01*
X000750Y009798D02*
X000360Y009798D01*
X000360Y009640D02*
X001400Y009640D01*
X001400Y009798D02*
X001560Y009798D01*
X001560Y009640D02*
X003580Y009640D01*
X003580Y009798D02*
X002210Y009798D01*
X002210Y009957D02*
X003580Y009957D01*
X003580Y010115D02*
X002210Y010115D01*
X002210Y010274D02*
X003580Y010274D01*
X003580Y010432D02*
X002210Y010432D01*
X002112Y010591D02*
X005017Y010591D01*
X005000Y010496D02*
X004906Y010590D01*
X003674Y010590D01*
X003580Y010496D01*
X003580Y008864D01*
X003674Y008770D01*
X003597Y008847D02*
X002190Y008847D01*
X002198Y008861D02*
X002210Y008906D01*
X002210Y009600D01*
X001560Y009600D01*
X001560Y008750D01*
X002054Y008750D01*
X002099Y008762D01*
X002141Y008786D01*
X002174Y008819D01*
X002198Y008861D01*
X002210Y009006D02*
X003580Y009006D01*
X003580Y009164D02*
X002210Y009164D01*
X002210Y009323D02*
X003580Y009323D01*
X003580Y009481D02*
X002210Y009481D01*
X001560Y009481D02*
X001400Y009481D01*
X001400Y009323D02*
X001560Y009323D01*
X001560Y009164D02*
X001400Y009164D01*
X001400Y009006D02*
X001560Y009006D01*
X001560Y008847D02*
X001400Y008847D01*
X001400Y009957D02*
X001560Y009957D01*
X001560Y010115D02*
X001400Y010115D01*
X001400Y010274D02*
X001560Y010274D01*
X001560Y010432D02*
X001400Y010432D01*
X001400Y010591D02*
X001560Y010591D01*
X001560Y011250D02*
X002054Y011250D01*
X002099Y011262D01*
X002141Y011286D01*
X002174Y011319D01*
X002198Y011361D01*
X002210Y011406D01*
X002210Y012100D01*
X001560Y012100D01*
X001560Y012260D01*
X002210Y012260D01*
X002210Y012954D01*
X002198Y012999D01*
X002174Y013041D01*
X002141Y013074D01*
X002099Y013098D01*
X002054Y013110D01*
X001560Y013110D01*
X001560Y012260D01*
X001400Y012260D01*
X001400Y013110D01*
X000906Y013110D01*
X000861Y013098D01*
X000819Y013074D01*
X000786Y013041D01*
X000762Y012999D01*
X000750Y012954D01*
X000750Y012260D01*
X001400Y012260D01*
X001400Y012100D01*
X001560Y012100D01*
X001560Y011250D01*
X001560Y011383D02*
X001400Y011383D01*
X001400Y011250D02*
X001400Y012100D01*
X000750Y012100D01*
X000750Y011406D01*
X000762Y011361D01*
X000786Y011319D01*
X000819Y011286D01*
X000861Y011262D01*
X000906Y011250D01*
X001400Y011250D01*
X001400Y011542D02*
X001560Y011542D01*
X001560Y011700D02*
X001400Y011700D01*
X001400Y011859D02*
X001560Y011859D01*
X001560Y012017D02*
X001400Y012017D01*
X001400Y012176D02*
X000360Y012176D01*
X000360Y012334D02*
X000750Y012334D01*
X000750Y012493D02*
X000360Y012493D01*
X000360Y012651D02*
X000750Y012651D01*
X000750Y012810D02*
X000360Y012810D01*
X000360Y012968D02*
X000754Y012968D01*
X000360Y013127D02*
X006670Y013127D01*
X006670Y013285D02*
X000360Y013285D01*
X000360Y013396D02*
X006670Y013396D01*
X006670Y009842D01*
X005000Y011513D01*
X005000Y012996D01*
X004906Y013090D01*
X003674Y013090D01*
X003580Y012996D01*
X003580Y011364D01*
X003674Y011270D01*
X004337Y011270D01*
X006093Y009514D01*
X006093Y007611D01*
X006071Y007611D01*
X006054Y007593D01*
X006054Y007781D01*
X006041Y007827D01*
X006018Y007868D01*
X005984Y007901D01*
X005943Y007925D01*
X005897Y007937D01*
X005736Y007937D01*
X005736Y007580D01*
X005736Y007580D01*
X005736Y007937D01*
X005574Y007937D01*
X005529Y007925D01*
X005500Y007908D01*
X005500Y007965D01*
X005601Y008066D01*
X005658Y008205D01*
X005658Y008355D01*
X005601Y008494D01*
X005494Y008601D01*
X005355Y008658D01*
X005205Y008658D01*
X005066Y008601D01*
X004966Y008500D01*
X004955Y008511D01*
X004709Y008511D01*
X004610Y008610D01*
X004610Y008770D01*
X004906Y008770D01*
X005000Y008864D01*
X005000Y010496D01*
X005000Y010432D02*
X005175Y010432D01*
X005334Y010274D02*
X005000Y010274D01*
X005000Y010115D02*
X005492Y010115D01*
X005651Y009957D02*
X005000Y009957D01*
X005000Y009798D02*
X005809Y009798D01*
X005968Y009640D02*
X005000Y009640D01*
X005000Y009481D02*
X006093Y009481D01*
X006093Y009323D02*
X005000Y009323D01*
X005000Y009164D02*
X006093Y009164D01*
X006093Y009006D02*
X005000Y009006D01*
X004983Y008847D02*
X006093Y008847D01*
X006093Y008689D02*
X004610Y008689D01*
X004690Y008530D02*
X004995Y008530D01*
X005565Y008530D02*
X006093Y008530D01*
X006093Y008372D02*
X005651Y008372D01*
X005658Y008213D02*
X006093Y008213D01*
X006093Y008055D02*
X005589Y008055D01*
X005736Y007896D02*
X005736Y007896D01*
X005736Y007738D02*
X005736Y007738D01*
X005989Y007896D02*
X006093Y007896D01*
X006093Y007738D02*
X006054Y007738D01*
X005977Y006612D02*
X005977Y006243D01*
X006071Y006149D01*
X006308Y006149D01*
X006311Y005897D01*
X006294Y005879D01*
X006272Y005901D01*
X006231Y005925D01*
X006186Y005937D01*
X006024Y005937D01*
X005863Y005937D01*
X005817Y005925D01*
X005776Y005901D01*
X005742Y005868D01*
X005719Y005827D01*
X005706Y005781D01*
X005706Y005580D01*
X005706Y005379D01*
X005719Y005333D01*
X005742Y005292D01*
X005776Y005259D01*
X005817Y005235D01*
X005863Y005223D01*
X006024Y005223D01*
X006024Y005580D01*
X005706Y005580D01*
X006024Y005580D01*
X006024Y005580D01*
X006024Y005580D01*
X006024Y005937D01*
X006024Y005580D01*
X006024Y005580D01*
X006024Y005223D01*
X006186Y005223D01*
X006231Y005235D01*
X006272Y005259D01*
X006294Y005281D01*
X006332Y005243D01*
X006360Y005243D01*
X006360Y004800D01*
X005600Y004800D01*
X005600Y006244D01*
X005551Y006361D01*
X005461Y006451D01*
X005389Y006523D01*
X005889Y006523D01*
X005977Y006612D01*
X005977Y006470D02*
X005443Y006470D01*
X005572Y006311D02*
X005977Y006311D01*
X006068Y006153D02*
X005600Y006153D01*
X005600Y005994D02*
X006310Y005994D01*
X006024Y005836D02*
X006024Y005836D01*
X006024Y005677D02*
X006024Y005677D01*
X006024Y005519D02*
X006024Y005519D01*
X006024Y005360D02*
X006024Y005360D01*
X005711Y005360D02*
X005600Y005360D01*
X005600Y005202D02*
X006360Y005202D01*
X006360Y005043D02*
X005600Y005043D01*
X005600Y004885D02*
X006360Y004885D01*
X005706Y005519D02*
X005600Y005519D01*
X005600Y005677D02*
X005706Y005677D01*
X005724Y005836D02*
X005600Y005836D01*
X006652Y003141D02*
X006670Y003141D01*
X006670Y002983D02*
X006494Y002983D01*
X006670Y002824D02*
X004014Y002824D01*
X004014Y002666D02*
X006670Y002666D01*
X006670Y002507D02*
X004188Y002507D01*
X004258Y002349D02*
X006670Y002349D01*
X006670Y002190D02*
X004252Y002190D01*
X004166Y002032D02*
X006670Y002032D01*
X006670Y001873D02*
X006505Y001873D01*
X006510Y001854D02*
X006498Y001899D01*
X006474Y001941D01*
X006441Y001974D01*
X006399Y001998D01*
X006354Y002010D01*
X005660Y002010D01*
X005660Y001360D01*
X005500Y001360D01*
X005500Y002010D01*
X004806Y002010D01*
X004761Y001998D01*
X004719Y001974D01*
X004686Y001941D01*
X004662Y001899D01*
X004650Y001854D01*
X004650Y001360D01*
X005500Y001360D01*
X005500Y001200D01*
X005660Y001200D01*
X005660Y001360D01*
X006510Y001360D01*
X006510Y001854D01*
X006510Y001715D02*
X006670Y001715D01*
X006670Y001556D02*
X006510Y001556D01*
X006510Y001398D02*
X006670Y001398D01*
X006670Y001239D02*
X005660Y001239D01*
X005660Y001200D02*
X006510Y001200D01*
X006510Y000706D01*
X006498Y000661D01*
X006474Y000619D01*
X006441Y000586D01*
X006399Y000562D01*
X006354Y000550D01*
X005660Y000550D01*
X005660Y001200D01*
X005660Y001081D02*
X005500Y001081D01*
X005500Y001200D02*
X005500Y000550D01*
X004806Y000550D01*
X004761Y000562D01*
X004719Y000586D01*
X004686Y000619D01*
X004662Y000661D01*
X004650Y000706D01*
X004650Y001200D01*
X005500Y001200D01*
X005500Y001239D02*
X002826Y001239D01*
X002742Y001398D02*
X004650Y001398D01*
X004650Y001556D02*
X002671Y001556D01*
X002788Y001715D02*
X004650Y001715D01*
X004655Y001873D02*
X002826Y001873D01*
X002805Y002032D02*
X003594Y002032D01*
X003508Y002190D02*
X002710Y002190D01*
X002676Y002349D02*
X003502Y002349D01*
X003506Y002507D02*
X002791Y002507D01*
X002196Y002286D02*
X002141Y002263D01*
X002090Y002213D01*
X001900Y002213D01*
X001500Y002613D01*
X001500Y005500D01*
X003243Y005500D01*
X003243Y005132D01*
X003281Y005094D01*
X003259Y005072D01*
X003235Y005031D01*
X003223Y004986D01*
X003223Y004824D01*
X003223Y004663D01*
X003235Y004617D01*
X003259Y004576D01*
X003292Y004542D01*
X003323Y004524D01*
X003266Y004501D01*
X003159Y004394D01*
X003102Y004255D01*
X003102Y004105D01*
X003141Y004011D01*
X003040Y004011D01*
X003001Y003972D01*
X002982Y003972D01*
X002815Y004140D01*
X002826Y004168D01*
X002826Y004342D01*
X002760Y004503D01*
X002636Y004626D01*
X002476Y004692D01*
X002302Y004692D01*
X002141Y004626D01*
X002018Y004503D01*
X001951Y004342D01*
X001951Y004168D01*
X002018Y004007D01*
X002141Y003884D01*
X002196Y003861D01*
X002141Y003838D01*
X002018Y003715D01*
X001951Y003554D01*
X001951Y003380D01*
X002018Y003220D01*
X002141Y003097D01*
X002196Y003074D01*
X002141Y003051D01*
X002018Y002928D01*
X001951Y002767D01*
X001951Y002593D01*
X002018Y002432D01*
X002141Y002309D01*
X002196Y002286D01*
X002101Y002349D02*
X001764Y002349D01*
X001606Y002507D02*
X001987Y002507D01*
X001951Y002666D02*
X001500Y002666D01*
X001500Y002824D02*
X001975Y002824D01*
X002072Y002983D02*
X001500Y002983D01*
X001500Y003141D02*
X002096Y003141D01*
X001985Y003300D02*
X001500Y003300D01*
X001500Y003458D02*
X001951Y003458D01*
X001977Y003617D02*
X001500Y003617D01*
X001500Y003775D02*
X002078Y003775D01*
X002091Y003934D02*
X001500Y003934D01*
X001500Y004092D02*
X001983Y004092D01*
X001951Y004251D02*
X001500Y004251D01*
X001500Y004409D02*
X001979Y004409D01*
X002083Y004568D02*
X001500Y004568D01*
X001500Y004726D02*
X003223Y004726D01*
X003223Y004824D02*
X003580Y004824D01*
X003580Y004824D01*
X003223Y004824D01*
X003223Y004885D02*
X001500Y004885D01*
X001500Y005043D02*
X003242Y005043D01*
X003243Y005202D02*
X001500Y005202D01*
X001500Y005360D02*
X003243Y005360D01*
X003267Y004568D02*
X002695Y004568D01*
X002798Y004409D02*
X003174Y004409D01*
X003102Y004251D02*
X002826Y004251D01*
X002863Y004092D02*
X003107Y004092D01*
X002107Y001556D02*
X000360Y001556D01*
X000360Y001398D02*
X002036Y001398D01*
X001951Y001239D02*
X000360Y001239D01*
X000360Y001081D02*
X001931Y001081D01*
X001969Y000922D02*
X000360Y000922D01*
X000360Y000764D02*
X002083Y000764D01*
X002389Y000764D02*
X002389Y000764D01*
X002389Y000922D02*
X002389Y000922D01*
X002389Y001081D02*
X002389Y001081D01*
X002694Y000764D02*
X004650Y000764D01*
X004650Y000922D02*
X002809Y000922D01*
X002846Y001081D02*
X004650Y001081D01*
X004700Y000605D02*
X000360Y000605D01*
X000360Y000447D02*
X006670Y000447D01*
X006670Y000605D02*
X006460Y000605D01*
X006510Y000764D02*
X006670Y000764D01*
X006670Y000922D02*
X006510Y000922D01*
X006510Y001081D02*
X006670Y001081D01*
X005660Y000922D02*
X005500Y000922D01*
X005500Y000764D02*
X005660Y000764D01*
X005660Y000605D02*
X005500Y000605D01*
X005500Y001398D02*
X005660Y001398D01*
X005660Y001556D02*
X005500Y001556D01*
X005500Y001715D02*
X005660Y001715D01*
X005660Y001873D02*
X005500Y001873D01*
X001493Y001715D02*
X000360Y001715D01*
X000360Y001873D02*
X001334Y001873D01*
X001176Y002032D02*
X000360Y002032D01*
X000360Y002190D02*
X001017Y002190D01*
X000888Y002349D02*
X000360Y002349D01*
X000360Y002507D02*
X000860Y002507D01*
X000860Y002666D02*
X000360Y002666D01*
X000360Y002824D02*
X000860Y002824D01*
X000860Y002983D02*
X000360Y002983D01*
X000360Y003141D02*
X000860Y003141D01*
X000860Y003300D02*
X000360Y003300D01*
X000360Y003458D02*
X000860Y003458D01*
X000860Y003617D02*
X000360Y003617D01*
X000360Y003775D02*
X000860Y003775D01*
X000860Y003934D02*
X000360Y003934D01*
X000360Y004092D02*
X000860Y004092D01*
X000860Y004251D02*
X000360Y004251D01*
X000360Y004409D02*
X000860Y004409D01*
X000860Y004568D02*
X000360Y004568D01*
X000360Y004726D02*
X000860Y004726D01*
X000860Y004885D02*
X000360Y004885D01*
X000360Y005043D02*
X000860Y005043D01*
X000860Y005202D02*
X000360Y005202D01*
X000360Y005360D02*
X000860Y005360D01*
X000428Y005519D02*
X000360Y005519D01*
X000360Y005677D02*
X000400Y005677D01*
X000400Y005836D02*
X000360Y005836D01*
X000360Y005994D02*
X000400Y005994D01*
X000400Y006153D02*
X000360Y006153D01*
X000360Y006311D02*
X000400Y006311D01*
X000400Y006470D02*
X000360Y006470D01*
X000360Y006628D02*
X000400Y006628D01*
X000400Y006787D02*
X000360Y006787D01*
X000360Y006945D02*
X000400Y006945D01*
X000400Y007104D02*
X000360Y007104D01*
X000360Y007262D02*
X000400Y007262D01*
X000400Y007421D02*
X000360Y007421D01*
X000360Y007579D02*
X000400Y007579D01*
X000400Y007738D02*
X000360Y007738D01*
X000360Y007896D02*
X000400Y007896D01*
X000400Y008055D02*
X000360Y008055D01*
X000360Y009957D02*
X000750Y009957D01*
X000750Y010115D02*
X000360Y010115D01*
X000360Y010274D02*
X000750Y010274D01*
X000750Y010432D02*
X000360Y010432D01*
X000360Y010591D02*
X000848Y010591D01*
X000360Y010749D02*
X004858Y010749D01*
X004700Y010908D02*
X000360Y010908D01*
X000360Y011066D02*
X004541Y011066D01*
X004383Y011225D02*
X000360Y011225D01*
X000360Y011383D02*
X000756Y011383D01*
X000750Y011542D02*
X000360Y011542D01*
X000360Y011700D02*
X000750Y011700D01*
X000750Y011859D02*
X000360Y011859D01*
X000360Y012017D02*
X000750Y012017D01*
X001400Y012334D02*
X001560Y012334D01*
X001560Y012176D02*
X003580Y012176D01*
X003580Y012334D02*
X002210Y012334D01*
X002210Y012493D02*
X003580Y012493D01*
X003580Y012651D02*
X002210Y012651D01*
X002210Y012810D02*
X003580Y012810D01*
X003580Y012968D02*
X002206Y012968D01*
X002210Y012017D02*
X003580Y012017D01*
X003580Y011859D02*
X002210Y011859D01*
X002210Y011700D02*
X003580Y011700D01*
X003580Y011542D02*
X002210Y011542D01*
X002204Y011383D02*
X003580Y011383D01*
X005000Y011542D02*
X006670Y011542D01*
X006670Y011383D02*
X005130Y011383D01*
X005288Y011225D02*
X006670Y011225D01*
X006670Y011066D02*
X005447Y011066D01*
X005605Y010908D02*
X006670Y010908D01*
X006670Y010749D02*
X005764Y010749D01*
X005922Y010591D02*
X006670Y010591D01*
X006670Y010432D02*
X006081Y010432D01*
X006239Y010274D02*
X006670Y010274D01*
X006670Y010115D02*
X006398Y010115D01*
X006556Y009957D02*
X006670Y009957D01*
X006670Y011700D02*
X005000Y011700D01*
X005000Y011859D02*
X006670Y011859D01*
X006670Y012017D02*
X005000Y012017D01*
X005000Y012176D02*
X006670Y012176D01*
X006670Y012334D02*
X005000Y012334D01*
X005000Y012493D02*
X006670Y012493D01*
X006670Y012651D02*
X005000Y012651D01*
X005000Y012810D02*
X006670Y012810D01*
X006670Y012968D02*
X005000Y012968D01*
X001560Y012968D02*
X001400Y012968D01*
X001400Y012810D02*
X001560Y012810D01*
X001560Y012651D02*
X001400Y012651D01*
X001400Y012493D02*
X001560Y012493D01*
D23*
X005280Y008280D03*
X005780Y006180D03*
X004080Y004980D03*
X003480Y004180D03*
X002480Y005280D03*
X003880Y002280D03*
D24*
X003726Y002434D01*
X003726Y002808D01*
X003726Y003123D02*
X006323Y003123D01*
X006580Y003380D01*
X006580Y005536D01*
X006536Y005580D01*
X006524Y006395D01*
X006413Y006506D01*
X005280Y007636D02*
X005280Y008280D01*
X005280Y007636D02*
X005224Y007580D01*
X004787Y007580D01*
X004613Y007406D01*
X004713Y005606D02*
X003850Y005606D01*
X003580Y005336D01*
X003724Y005336D01*
X004080Y004980D01*
X003480Y004180D02*
X003726Y003934D01*
X003726Y003752D01*
X003234Y003752D02*
X002891Y003752D01*
X002389Y004255D01*
X002389Y003467D02*
X002734Y003123D01*
X003234Y003123D01*
X003234Y002808D02*
X002516Y002808D01*
X002389Y002680D01*
M02*
