G75*
G70*
%OFA0B0*%
%FSLAX24Y24*%
%IPPOS*%
%LPD*%
%AMOC8*
5,1,8,0,0,1.08239X$1,22.5*
%
%ADD10C,0.0555*%
%ADD11C,0.0160*%
%ADD12C,0.0436*%
%ADD13C,0.0120*%
D10*
X002389Y001105D03*
X002389Y001893D03*
X002389Y002680D03*
X002389Y003467D03*
X002389Y004255D03*
D11*
X000360Y000360D02*
X000360Y013396D01*
X006670Y013396D01*
X006670Y000360D01*
X000360Y000360D01*
X000360Y000447D02*
X006670Y000447D01*
X006670Y000605D02*
X000360Y000605D01*
X000360Y000764D02*
X002083Y000764D01*
X002091Y000756D02*
X002149Y000714D01*
X002213Y000681D01*
X002282Y000659D01*
X002353Y000648D01*
X002389Y000648D01*
X002425Y000648D01*
X002496Y000659D01*
X002564Y000681D01*
X002628Y000714D01*
X002687Y000756D01*
X002738Y000807D01*
X002780Y000865D01*
X002813Y000930D01*
X002835Y000998D01*
X002846Y001069D01*
X002846Y001105D01*
X002389Y001105D01*
X002389Y001105D01*
X002389Y000648D01*
X002389Y001105D01*
X002389Y001105D01*
X002846Y001105D01*
X002846Y001141D01*
X002835Y001212D01*
X002813Y001281D01*
X002780Y001345D01*
X002738Y001403D01*
X002687Y001454D01*
X002628Y001496D01*
X002605Y001509D01*
X002636Y001522D01*
X002760Y001645D01*
X002826Y001806D01*
X002826Y001980D01*
X002760Y002140D01*
X002636Y002263D01*
X002581Y002286D01*
X002636Y002309D01*
X002760Y002432D01*
X002826Y002593D01*
X002826Y002767D01*
X002760Y002928D01*
X002636Y003051D01*
X002581Y003074D01*
X002636Y003097D01*
X002760Y003220D01*
X002826Y003380D01*
X002826Y003554D01*
X002760Y003715D01*
X002636Y003838D01*
X002581Y003861D01*
X002636Y003884D01*
X002760Y004007D01*
X002826Y004168D01*
X002826Y004342D01*
X002760Y004503D01*
X002636Y004626D01*
X002476Y004692D01*
X002302Y004692D01*
X002141Y004626D01*
X002018Y004503D01*
X001951Y004342D01*
X001951Y004168D01*
X002018Y004007D01*
X002141Y003884D01*
X002196Y003861D01*
X002141Y003838D01*
X002018Y003715D01*
X001951Y003554D01*
X001951Y003380D01*
X002018Y003220D01*
X002141Y003097D01*
X002196Y003074D01*
X002141Y003051D01*
X002018Y002928D01*
X001951Y002767D01*
X001951Y002593D01*
X002018Y002432D01*
X002141Y002309D01*
X002196Y002286D01*
X002141Y002263D01*
X002018Y002140D01*
X001951Y001980D01*
X001951Y001806D01*
X002018Y001645D01*
X002141Y001522D01*
X002173Y001509D01*
X002149Y001496D01*
X002091Y001454D01*
X002040Y001403D01*
X001997Y001345D01*
X001965Y001281D01*
X001942Y001212D01*
X001931Y001141D01*
X001931Y001105D01*
X001931Y001069D01*
X001942Y000998D01*
X001965Y000930D01*
X001997Y000865D01*
X002040Y000807D01*
X002091Y000756D01*
X001969Y000922D02*
X000360Y000922D01*
X000360Y001081D02*
X001931Y001081D01*
X001931Y001105D02*
X002389Y001105D01*
X002389Y001105D01*
X001931Y001105D01*
X001951Y001239D02*
X000360Y001239D01*
X000360Y001398D02*
X002036Y001398D01*
X002107Y001556D02*
X000360Y001556D01*
X000360Y001715D02*
X001989Y001715D01*
X001951Y001873D02*
X000360Y001873D01*
X000360Y002032D02*
X001973Y002032D01*
X002067Y002190D02*
X000360Y002190D01*
X000360Y002349D02*
X002101Y002349D01*
X001987Y002507D02*
X000360Y002507D01*
X000360Y002666D02*
X001951Y002666D01*
X001975Y002824D02*
X000360Y002824D01*
X000360Y002983D02*
X002072Y002983D01*
X002096Y003141D02*
X000360Y003141D01*
X000360Y003300D02*
X001985Y003300D01*
X001951Y003458D02*
X000360Y003458D01*
X000360Y003617D02*
X001977Y003617D01*
X002078Y003775D02*
X000360Y003775D01*
X000360Y003934D02*
X002091Y003934D01*
X001983Y004092D02*
X000360Y004092D01*
X000360Y004251D02*
X001951Y004251D01*
X001979Y004409D02*
X000360Y004409D01*
X000360Y004568D02*
X002083Y004568D01*
X002695Y004568D02*
X003260Y004568D01*
X003260Y004495D02*
X003159Y004394D01*
X003102Y004255D01*
X003102Y004105D01*
X003159Y003966D01*
X003266Y003859D01*
X003405Y003802D01*
X003555Y003802D01*
X003694Y003859D01*
X003801Y003966D01*
X003858Y004105D01*
X003858Y004255D01*
X003801Y004394D01*
X003700Y004495D01*
X003700Y006389D01*
X005213Y007902D01*
X005355Y007902D01*
X005494Y007959D01*
X005601Y008066D01*
X005658Y008205D01*
X005658Y008355D01*
X005601Y008494D01*
X005494Y008601D01*
X005355Y008658D01*
X005205Y008658D01*
X005066Y008601D01*
X004959Y008494D01*
X004902Y008355D01*
X004902Y008213D01*
X003260Y006571D01*
X003260Y004495D01*
X003174Y004409D02*
X002798Y004409D01*
X002826Y004251D02*
X003102Y004251D01*
X003107Y004092D02*
X002795Y004092D01*
X002686Y003934D02*
X003192Y003934D01*
X002800Y003617D02*
X003860Y003617D01*
X003860Y003775D02*
X002700Y003775D01*
X002826Y003458D02*
X003860Y003458D01*
X003860Y003300D02*
X002793Y003300D01*
X002681Y003141D02*
X003860Y003141D01*
X003860Y002983D02*
X002705Y002983D01*
X002803Y002824D02*
X003860Y002824D01*
X003860Y002666D02*
X002826Y002666D01*
X002791Y002507D02*
X003572Y002507D01*
X003559Y002494D02*
X003502Y002355D01*
X003502Y002205D01*
X003559Y002066D01*
X003666Y001959D01*
X003805Y001902D01*
X003955Y001902D01*
X004094Y001959D01*
X004201Y002066D01*
X004258Y002205D01*
X004258Y002347D01*
X004300Y002389D01*
X004300Y004665D01*
X004401Y004766D01*
X004458Y004905D01*
X004458Y005055D01*
X004401Y005194D01*
X004294Y005301D01*
X004155Y005358D01*
X004005Y005358D01*
X003866Y005301D01*
X003759Y005194D01*
X003702Y005055D01*
X003702Y004905D01*
X003759Y004766D01*
X003860Y004665D01*
X003860Y002658D01*
X003805Y002658D01*
X003666Y002601D01*
X003559Y002494D01*
X003502Y002349D02*
X002676Y002349D01*
X002710Y002190D02*
X003508Y002190D01*
X003594Y002032D02*
X002805Y002032D01*
X002826Y001873D02*
X006670Y001873D01*
X006670Y001715D02*
X002788Y001715D01*
X002671Y001556D02*
X006670Y001556D01*
X006670Y001398D02*
X002742Y001398D01*
X002826Y001239D02*
X006670Y001239D01*
X006670Y001081D02*
X002846Y001081D01*
X002809Y000922D02*
X006670Y000922D01*
X006670Y000764D02*
X002694Y000764D01*
X002389Y000764D02*
X002389Y000764D01*
X002389Y000922D02*
X002389Y000922D01*
X002389Y001081D02*
X002389Y001081D01*
X004166Y002032D02*
X006670Y002032D01*
X006670Y002190D02*
X004252Y002190D01*
X004260Y002349D02*
X006670Y002349D01*
X006670Y002507D02*
X004300Y002507D01*
X004300Y002666D02*
X006670Y002666D01*
X006670Y002824D02*
X004300Y002824D01*
X004300Y002983D02*
X006670Y002983D01*
X006670Y003141D02*
X004300Y003141D01*
X004300Y003300D02*
X006670Y003300D01*
X006670Y003458D02*
X004300Y003458D01*
X004300Y003617D02*
X006670Y003617D01*
X006670Y003775D02*
X004300Y003775D01*
X004300Y003934D02*
X006670Y003934D01*
X006670Y004092D02*
X004300Y004092D01*
X004300Y004251D02*
X006670Y004251D01*
X006670Y004409D02*
X004300Y004409D01*
X004300Y004568D02*
X006670Y004568D01*
X006670Y004726D02*
X004361Y004726D01*
X004450Y004885D02*
X006670Y004885D01*
X006670Y005043D02*
X004458Y005043D01*
X004393Y005202D02*
X006670Y005202D01*
X006670Y005360D02*
X003700Y005360D01*
X003700Y005202D02*
X003767Y005202D01*
X003702Y005043D02*
X003700Y005043D01*
X003700Y004885D02*
X003710Y004885D01*
X003700Y004726D02*
X003799Y004726D01*
X003860Y004568D02*
X003700Y004568D01*
X003786Y004409D02*
X003860Y004409D01*
X003858Y004251D02*
X003860Y004251D01*
X003853Y004092D02*
X003860Y004092D01*
X003860Y003934D02*
X003768Y003934D01*
X003260Y004726D02*
X000360Y004726D01*
X000360Y004885D02*
X003260Y004885D01*
X003260Y005043D02*
X000360Y005043D01*
X000360Y005202D02*
X003260Y005202D01*
X003260Y005360D02*
X000360Y005360D01*
X000360Y005519D02*
X003260Y005519D01*
X003260Y005677D02*
X000360Y005677D01*
X000360Y005836D02*
X003260Y005836D01*
X003260Y005994D02*
X000360Y005994D01*
X000360Y006153D02*
X003260Y006153D01*
X003260Y006311D02*
X000360Y006311D01*
X000360Y006470D02*
X003260Y006470D01*
X003317Y006628D02*
X000360Y006628D01*
X000360Y006787D02*
X003475Y006787D01*
X003634Y006945D02*
X000360Y006945D01*
X000360Y007104D02*
X003792Y007104D01*
X003951Y007262D02*
X000360Y007262D01*
X000360Y007421D02*
X004109Y007421D01*
X004268Y007579D02*
X000360Y007579D01*
X000360Y007738D02*
X004426Y007738D01*
X004585Y007896D02*
X000360Y007896D01*
X000360Y008055D02*
X004743Y008055D01*
X004902Y008213D02*
X000360Y008213D01*
X000360Y008372D02*
X004909Y008372D01*
X004995Y008530D02*
X000360Y008530D01*
X000360Y008689D02*
X006670Y008689D01*
X006670Y008847D02*
X000360Y008847D01*
X000360Y009006D02*
X006670Y009006D01*
X006670Y009164D02*
X000360Y009164D01*
X000360Y009323D02*
X006670Y009323D01*
X006670Y009481D02*
X000360Y009481D01*
X000360Y009640D02*
X006670Y009640D01*
X006670Y009798D02*
X000360Y009798D01*
X000360Y009957D02*
X006670Y009957D01*
X006670Y010115D02*
X000360Y010115D01*
X000360Y010274D02*
X006670Y010274D01*
X006670Y010432D02*
X000360Y010432D01*
X000360Y010591D02*
X006670Y010591D01*
X006670Y010749D02*
X000360Y010749D01*
X000360Y010908D02*
X006670Y010908D01*
X006670Y011066D02*
X000360Y011066D01*
X000360Y011225D02*
X006670Y011225D01*
X006670Y011383D02*
X000360Y011383D01*
X000360Y011542D02*
X006670Y011542D01*
X006670Y011700D02*
X000360Y011700D01*
X000360Y011859D02*
X006670Y011859D01*
X006670Y012017D02*
X000360Y012017D01*
X000360Y012176D02*
X006670Y012176D01*
X006670Y012334D02*
X000360Y012334D01*
X000360Y012493D02*
X006670Y012493D01*
X006670Y012651D02*
X000360Y012651D01*
X000360Y012810D02*
X006670Y012810D01*
X006670Y012968D02*
X000360Y012968D01*
X000360Y013127D02*
X006670Y013127D01*
X006670Y013285D02*
X000360Y013285D01*
X004256Y006945D02*
X006670Y006945D01*
X006670Y006787D02*
X004098Y006787D01*
X003939Y006628D02*
X006670Y006628D01*
X006670Y006470D02*
X003781Y006470D01*
X003700Y006311D02*
X006670Y006311D01*
X006670Y006153D02*
X003700Y006153D01*
X003700Y005994D02*
X006670Y005994D01*
X006670Y005836D02*
X003700Y005836D01*
X003700Y005677D02*
X006670Y005677D01*
X006670Y005519D02*
X003700Y005519D01*
X004415Y007104D02*
X006670Y007104D01*
X006670Y007262D02*
X004573Y007262D01*
X004732Y007421D02*
X006670Y007421D01*
X006670Y007579D02*
X004890Y007579D01*
X005049Y007738D02*
X006670Y007738D01*
X006670Y007896D02*
X005207Y007896D01*
X005565Y008530D02*
X006670Y008530D01*
X006670Y008372D02*
X005651Y008372D01*
X005658Y008213D02*
X006670Y008213D01*
X006670Y008055D02*
X005589Y008055D01*
D12*
X005280Y008280D03*
X005780Y006180D03*
X004080Y004980D03*
X003480Y004180D03*
X002480Y005280D03*
X003880Y002280D03*
D13*
X004080Y002480D01*
X004080Y004980D01*
X003480Y004180D02*
X003480Y006480D01*
X005280Y008280D01*
M02*
