G75*
G70*
%OFA0B0*%
%FSLAX24Y24*%
%IPPOS*%
%LPD*%
%AMOC8*
5,1,8,0,0,1.08239X$1,22.5*
%
%ADD10C,0.0555*%
%ADD11C,0.0160*%
%ADD12C,0.0436*%
%ADD13C,0.0120*%
D10*
X002989Y001105D03*
X002989Y001893D03*
X002989Y002680D03*
X002989Y003467D03*
X002989Y004255D03*
D11*
X000960Y000360D02*
X000960Y013396D01*
X007270Y013396D01*
X007270Y000360D01*
X000960Y000360D01*
X000960Y000447D02*
X007270Y000447D01*
X007270Y000605D02*
X000960Y000605D01*
X000960Y000764D02*
X002683Y000764D01*
X002691Y000756D02*
X002749Y000714D01*
X002813Y000681D01*
X002882Y000659D01*
X002953Y000648D01*
X002989Y000648D01*
X003025Y000648D01*
X003096Y000659D01*
X003164Y000681D01*
X003228Y000714D01*
X003287Y000756D01*
X003338Y000807D01*
X003380Y000865D01*
X003413Y000930D01*
X003435Y000998D01*
X003446Y001069D01*
X003446Y001105D01*
X002989Y001105D01*
X002989Y001105D01*
X002989Y000648D01*
X002989Y001105D01*
X002989Y001105D01*
X003446Y001105D01*
X003446Y001141D01*
X003435Y001212D01*
X003413Y001281D01*
X003380Y001345D01*
X003338Y001403D01*
X003287Y001454D01*
X003228Y001496D01*
X003205Y001509D01*
X003236Y001522D01*
X003360Y001645D01*
X003426Y001806D01*
X003426Y001980D01*
X003360Y002140D01*
X003236Y002263D01*
X003181Y002286D01*
X003236Y002309D01*
X003360Y002432D01*
X003426Y002593D01*
X003426Y002767D01*
X003360Y002928D01*
X003236Y003051D01*
X003181Y003074D01*
X003236Y003097D01*
X003360Y003220D01*
X003426Y003380D01*
X003426Y003554D01*
X003360Y003715D01*
X003236Y003838D01*
X003181Y003861D01*
X003236Y003884D01*
X003360Y004007D01*
X003426Y004168D01*
X003426Y004342D01*
X003360Y004503D01*
X003236Y004626D01*
X003076Y004692D01*
X002902Y004692D01*
X002741Y004626D01*
X002618Y004503D01*
X002551Y004342D01*
X002551Y004168D01*
X002618Y004007D01*
X002741Y003884D01*
X002796Y003861D01*
X002741Y003838D01*
X002618Y003715D01*
X002551Y003554D01*
X002551Y003380D01*
X002618Y003220D01*
X002741Y003097D01*
X002796Y003074D01*
X002741Y003051D01*
X002618Y002928D01*
X002551Y002767D01*
X002551Y002593D01*
X002618Y002432D01*
X002741Y002309D01*
X002796Y002286D01*
X002741Y002263D01*
X002618Y002140D01*
X002551Y001980D01*
X002551Y001806D01*
X002618Y001645D01*
X002741Y001522D01*
X002773Y001509D01*
X002749Y001496D01*
X002691Y001454D01*
X002640Y001403D01*
X002597Y001345D01*
X002565Y001281D01*
X002542Y001212D01*
X002531Y001141D01*
X002531Y001105D01*
X002531Y001069D01*
X002542Y000998D01*
X002565Y000930D01*
X002597Y000865D01*
X002640Y000807D01*
X002691Y000756D01*
X002569Y000922D02*
X000960Y000922D01*
X000960Y001081D02*
X002531Y001081D01*
X002531Y001105D02*
X002989Y001105D01*
X002989Y001105D01*
X002531Y001105D01*
X002551Y001239D02*
X000960Y001239D01*
X000960Y001398D02*
X002636Y001398D01*
X002707Y001556D02*
X000960Y001556D01*
X000960Y001715D02*
X002589Y001715D01*
X002551Y001873D02*
X000960Y001873D01*
X000960Y002032D02*
X002573Y002032D01*
X002667Y002190D02*
X000960Y002190D01*
X000960Y002349D02*
X002701Y002349D01*
X002587Y002507D02*
X000960Y002507D01*
X000960Y002666D02*
X002551Y002666D01*
X002575Y002824D02*
X000960Y002824D01*
X000960Y002983D02*
X002672Y002983D01*
X002696Y003141D02*
X000960Y003141D01*
X000960Y003300D02*
X002585Y003300D01*
X002551Y003458D02*
X000960Y003458D01*
X000960Y003617D02*
X002577Y003617D01*
X002678Y003775D02*
X000960Y003775D01*
X000960Y003934D02*
X002691Y003934D01*
X002583Y004092D02*
X000960Y004092D01*
X000960Y004251D02*
X002551Y004251D01*
X002579Y004409D02*
X000960Y004409D01*
X000960Y004568D02*
X002683Y004568D01*
X003295Y004568D02*
X003860Y004568D01*
X003860Y004495D02*
X003759Y004394D01*
X003702Y004255D01*
X003702Y004105D01*
X003759Y003966D01*
X003866Y003859D01*
X004005Y003802D01*
X004155Y003802D01*
X004294Y003859D01*
X004401Y003966D01*
X004458Y004105D01*
X004458Y004255D01*
X004401Y004394D01*
X004300Y004495D01*
X004300Y006389D01*
X005813Y007902D01*
X005955Y007902D01*
X006094Y007959D01*
X006201Y008066D01*
X006258Y008205D01*
X006258Y008355D01*
X006201Y008494D01*
X006094Y008601D01*
X005955Y008658D01*
X005805Y008658D01*
X005666Y008601D01*
X005559Y008494D01*
X005502Y008355D01*
X005502Y008213D01*
X003860Y006571D01*
X003860Y004495D01*
X003774Y004409D02*
X003398Y004409D01*
X003426Y004251D02*
X003702Y004251D01*
X003707Y004092D02*
X003395Y004092D01*
X003286Y003934D02*
X003792Y003934D01*
X003400Y003617D02*
X004716Y003617D01*
X004716Y003775D02*
X003300Y003775D01*
X003426Y003458D02*
X004716Y003458D01*
X004716Y003300D02*
X003393Y003300D01*
X003281Y003141D02*
X004716Y003141D01*
X004716Y002983D02*
X003305Y002983D01*
X003403Y002824D02*
X004713Y002824D01*
X004716Y002827D02*
X004547Y002658D01*
X004405Y002658D01*
X004266Y002601D01*
X004159Y002494D01*
X004102Y002355D01*
X004102Y002205D01*
X004159Y002066D01*
X004266Y001959D01*
X004405Y001902D01*
X004555Y001902D01*
X004694Y001959D01*
X004801Y002066D01*
X004858Y002205D01*
X004858Y002347D01*
X005156Y002645D01*
X005156Y004465D01*
X005256Y004566D01*
X005314Y004705D01*
X005314Y004855D01*
X005256Y004994D01*
X005150Y005101D01*
X005011Y005158D01*
X004861Y005158D01*
X004722Y005101D01*
X004615Y004994D01*
X004558Y004855D01*
X004558Y004705D01*
X004615Y004566D01*
X004716Y004465D01*
X004716Y002827D01*
X004554Y002666D02*
X003426Y002666D01*
X003391Y002507D02*
X004172Y002507D01*
X004102Y002349D02*
X003276Y002349D01*
X003310Y002190D02*
X004108Y002190D01*
X004194Y002032D02*
X003405Y002032D01*
X003426Y001873D02*
X007270Y001873D01*
X007270Y001715D02*
X003388Y001715D01*
X003271Y001556D02*
X007270Y001556D01*
X007270Y001398D02*
X003342Y001398D01*
X003426Y001239D02*
X007270Y001239D01*
X007270Y001081D02*
X003446Y001081D01*
X003409Y000922D02*
X007270Y000922D01*
X007270Y000764D02*
X003294Y000764D01*
X002989Y000764D02*
X002989Y000764D01*
X002989Y000922D02*
X002989Y000922D01*
X002989Y001081D02*
X002989Y001081D01*
X004766Y002032D02*
X007270Y002032D01*
X007270Y002190D02*
X004852Y002190D01*
X004860Y002349D02*
X007270Y002349D01*
X007270Y002507D02*
X005018Y002507D01*
X005156Y002666D02*
X007270Y002666D01*
X007270Y002824D02*
X005156Y002824D01*
X005156Y002983D02*
X007270Y002983D01*
X007270Y003141D02*
X005156Y003141D01*
X005156Y003300D02*
X007270Y003300D01*
X007270Y003458D02*
X005156Y003458D01*
X005156Y003617D02*
X007270Y003617D01*
X007270Y003775D02*
X005156Y003775D01*
X005156Y003934D02*
X007270Y003934D01*
X007270Y004092D02*
X005156Y004092D01*
X005156Y004251D02*
X007270Y004251D01*
X007270Y004409D02*
X005156Y004409D01*
X005257Y004568D02*
X007270Y004568D01*
X007270Y004726D02*
X005314Y004726D01*
X005302Y004885D02*
X007270Y004885D01*
X007270Y005043D02*
X005208Y005043D01*
X004716Y004409D02*
X004386Y004409D01*
X004300Y004568D02*
X004615Y004568D01*
X004558Y004726D02*
X004300Y004726D01*
X004300Y004885D02*
X004570Y004885D01*
X004664Y005043D02*
X004300Y005043D01*
X004300Y005202D02*
X007270Y005202D01*
X007270Y005360D02*
X004300Y005360D01*
X004300Y005519D02*
X007270Y005519D01*
X007270Y005677D02*
X004300Y005677D01*
X004300Y005836D02*
X007270Y005836D01*
X007270Y005994D02*
X004300Y005994D01*
X004300Y006153D02*
X007270Y006153D01*
X007270Y006311D02*
X004300Y006311D01*
X004381Y006470D02*
X007270Y006470D01*
X007270Y006628D02*
X004539Y006628D01*
X004698Y006787D02*
X007270Y006787D01*
X007270Y006945D02*
X004856Y006945D01*
X005015Y007104D02*
X007270Y007104D01*
X007270Y007262D02*
X005173Y007262D01*
X005332Y007421D02*
X007270Y007421D01*
X007270Y007579D02*
X005490Y007579D01*
X005649Y007738D02*
X007270Y007738D01*
X007270Y007896D02*
X005807Y007896D01*
X006189Y008055D02*
X007270Y008055D01*
X007270Y008213D02*
X006258Y008213D01*
X006251Y008372D02*
X007270Y008372D01*
X007270Y008530D02*
X006165Y008530D01*
X005595Y008530D02*
X000960Y008530D01*
X000960Y008372D02*
X005509Y008372D01*
X005502Y008213D02*
X000960Y008213D01*
X000960Y008055D02*
X005343Y008055D01*
X005185Y007896D02*
X000960Y007896D01*
X000960Y007738D02*
X005026Y007738D01*
X004868Y007579D02*
X000960Y007579D01*
X000960Y007421D02*
X004709Y007421D01*
X004551Y007262D02*
X000960Y007262D01*
X000960Y007104D02*
X004392Y007104D01*
X004234Y006945D02*
X000960Y006945D01*
X000960Y006787D02*
X004075Y006787D01*
X003917Y006628D02*
X000960Y006628D01*
X000960Y006470D02*
X003860Y006470D01*
X003860Y006311D02*
X000960Y006311D01*
X000960Y006153D02*
X003860Y006153D01*
X003860Y005994D02*
X000960Y005994D01*
X000960Y005836D02*
X003860Y005836D01*
X003860Y005677D02*
X000960Y005677D01*
X000960Y005519D02*
X003860Y005519D01*
X003860Y005360D02*
X000960Y005360D01*
X000960Y005202D02*
X003860Y005202D01*
X003860Y005043D02*
X000960Y005043D01*
X000960Y004885D02*
X003860Y004885D01*
X003860Y004726D02*
X000960Y004726D01*
X000960Y008689D02*
X007270Y008689D01*
X007270Y008847D02*
X000960Y008847D01*
X000960Y009006D02*
X007270Y009006D01*
X007270Y009164D02*
X000960Y009164D01*
X000960Y009323D02*
X007270Y009323D01*
X007270Y009481D02*
X000960Y009481D01*
X000960Y009640D02*
X007270Y009640D01*
X007270Y009798D02*
X000960Y009798D01*
X000960Y009957D02*
X007270Y009957D01*
X007270Y010115D02*
X000960Y010115D01*
X000960Y010274D02*
X007270Y010274D01*
X007270Y010432D02*
X000960Y010432D01*
X000960Y010591D02*
X007270Y010591D01*
X007270Y010749D02*
X000960Y010749D01*
X000960Y010908D02*
X007270Y010908D01*
X007270Y011066D02*
X000960Y011066D01*
X000960Y011225D02*
X007270Y011225D01*
X007270Y011383D02*
X000960Y011383D01*
X000960Y011542D02*
X007270Y011542D01*
X007270Y011700D02*
X000960Y011700D01*
X000960Y011859D02*
X007270Y011859D01*
X007270Y012017D02*
X000960Y012017D01*
X000960Y012176D02*
X007270Y012176D01*
X007270Y012334D02*
X000960Y012334D01*
X000960Y012493D02*
X007270Y012493D01*
X007270Y012651D02*
X000960Y012651D01*
X000960Y012810D02*
X007270Y012810D01*
X007270Y012968D02*
X000960Y012968D01*
X000960Y013127D02*
X007270Y013127D01*
X007270Y013285D02*
X000960Y013285D01*
X004458Y004251D02*
X004716Y004251D01*
X004716Y004092D02*
X004453Y004092D01*
X004368Y003934D02*
X004716Y003934D01*
D12*
X004936Y004780D03*
X004080Y004180D03*
X003080Y005280D03*
X004480Y002280D03*
X006380Y006180D03*
X005880Y008280D03*
X006280Y009280D03*
D13*
X005880Y008280D02*
X004080Y006480D01*
X004080Y004180D01*
X004936Y004780D02*
X004936Y002736D01*
X004480Y002280D01*
M02*
