%
M48
M72
T01C0.0090
T02C0.0236
T03C0.0315
T04C0.0354
T05C0.0400
T06C0.0472
%
T01
X14600Y4301
X14900Y3901
T02
X13900Y3601
X12100Y2801
X11400Y2301
X9600Y3801
X8300Y4301
X5900Y5401
X6100Y6401
X6100Y7101
X7100Y8001
X8100Y8701
X9300Y7801
X9200Y7201
X10200Y6301
X10800Y6501
X11400Y7401
X10400Y8601
X10600Y9301
X12000Y9001
X11800Y5501
X12000Y5001
X11400Y5001
X11900Y4201
X12700Y5501
X15500Y5101
X18906Y8532
X18906Y9320
X18906Y10107
X18906Y10894
X18906Y11682
X18906Y12469
T03
X16684Y12701
X14716Y12701
T04
X7600Y1001
X8600Y1001
X9600Y1001
X9600Y2001
X8600Y2001
X7600Y2001
T05
X18900Y1901
X18900Y2901
X18900Y3901
X18900Y4901
X18900Y901
T06
X17078Y11716
X14322Y11716
M30
