G75*
G70*
%OFA0B0*%
%FSLAX24Y24*%
%IPPOS*%
%LPD*%
%AMOC8*
5,1,8,0,0,1.08239X$1,22.5*
%
%ADD10C,0.0000*%
%ADD11C,0.0030*%
%ADD12C,0.0050*%
%ADD13C,0.0640*%
%ADD14C,0.0705*%
%ADD15C,0.1700*%
%ADD16C,0.0160*%
%ADD17C,0.0356*%
%ADD18C,0.0240*%
%ADD19C,0.0120*%
%ADD20C,0.0320*%
D10*
X000963Y000480D02*
X018988Y000480D01*
X018988Y000481D02*
X019039Y000486D01*
X019089Y000495D01*
X019138Y000508D01*
X019187Y000524D01*
X019234Y000543D01*
X019279Y000566D01*
X019323Y000592D01*
X019365Y000621D01*
X019405Y000653D01*
X019442Y000687D01*
X019477Y000725D01*
X019509Y000764D01*
X019538Y000806D01*
X019564Y000850D01*
X019587Y000896D01*
X019607Y000943D01*
X019623Y000991D01*
X019635Y001040D01*
X019645Y001090D01*
X019650Y001141D01*
X019652Y001192D01*
X019650Y001243D01*
X019650Y016717D01*
X019656Y016764D01*
X019659Y016810D01*
X019658Y016857D01*
X019652Y016904D01*
X019643Y016950D01*
X019630Y016995D01*
X019614Y017039D01*
X019594Y017082D01*
X019570Y017122D01*
X019543Y017161D01*
X019513Y017197D01*
X019480Y017230D01*
X019445Y017261D01*
X019407Y017289D01*
X019367Y017313D01*
X019325Y017335D01*
X019282Y017352D01*
X019237Y017366D01*
X019191Y017376D01*
X000760Y017376D01*
X000718Y017374D01*
X000677Y017369D01*
X000636Y017360D01*
X000596Y017347D01*
X000557Y017331D01*
X000520Y017312D01*
X000485Y017289D01*
X000451Y017264D01*
X000421Y017235D01*
X000392Y017205D01*
X000367Y017171D01*
X000344Y017136D01*
X000325Y017099D01*
X000309Y017060D01*
X000296Y017020D01*
X000287Y016979D01*
X000282Y016938D01*
X000280Y016896D01*
X000280Y001263D01*
X000278Y001211D01*
X000280Y001158D01*
X000286Y001106D01*
X000295Y001054D01*
X000308Y001004D01*
X000325Y000954D01*
X000345Y000905D01*
X000369Y000859D01*
X000396Y000814D01*
X000426Y000771D01*
X000459Y000730D01*
X000495Y000692D01*
X000534Y000656D01*
X000574Y000623D01*
X000618Y000593D01*
X000663Y000567D01*
X000710Y000543D01*
X000758Y000524D01*
X000808Y000507D01*
X000859Y000494D01*
X000911Y000485D01*
X000963Y000480D01*
D11*
X001218Y000895D02*
X001342Y001018D01*
X001342Y001265D01*
X001463Y001265D02*
X001587Y001265D01*
X001525Y001265D02*
X001525Y000895D01*
X001463Y000895D02*
X001587Y000895D01*
X001709Y000957D02*
X001771Y000895D01*
X001894Y000895D01*
X001956Y000957D01*
X001956Y001018D01*
X001894Y001080D01*
X001771Y001080D01*
X001709Y001142D01*
X001709Y001204D01*
X001771Y001265D01*
X001894Y001265D01*
X001956Y001204D01*
X002077Y001265D02*
X002077Y000957D01*
X002139Y000895D01*
X002262Y000895D01*
X002324Y000957D01*
X002324Y001265D01*
X002445Y001142D02*
X002569Y001265D01*
X002692Y001142D01*
X002692Y000895D01*
X002814Y000895D02*
X003061Y000895D01*
X003182Y000895D02*
X003306Y000895D01*
X003244Y000895D02*
X003244Y001265D01*
X003182Y001265D02*
X003306Y001265D01*
X003428Y001204D02*
X003428Y000957D01*
X003489Y000895D01*
X003613Y000895D01*
X003675Y000957D01*
X003675Y001080D01*
X003551Y001080D01*
X003428Y001204D02*
X003489Y001265D01*
X003613Y001265D01*
X003675Y001204D01*
X003796Y001265D02*
X003796Y000895D01*
X003796Y001080D02*
X004043Y001080D01*
X004043Y001265D02*
X004043Y000895D01*
X004288Y000895D02*
X004288Y001265D01*
X004411Y001265D02*
X004164Y001265D01*
X003920Y001495D02*
X003735Y001495D01*
X003612Y001495D02*
X003489Y001495D01*
X003551Y001495D02*
X003551Y001742D01*
X003489Y001742D01*
X003367Y001742D02*
X003306Y001742D01*
X003182Y001618D01*
X003182Y001495D02*
X003182Y001742D01*
X003060Y001742D02*
X002937Y001742D01*
X002998Y001804D02*
X002998Y001557D01*
X003060Y001495D01*
X002815Y001557D02*
X002753Y001495D01*
X002630Y001495D01*
X002568Y001557D01*
X002630Y001680D02*
X002568Y001742D01*
X002568Y001804D01*
X002630Y001865D01*
X002753Y001865D01*
X002815Y001804D01*
X002753Y001680D02*
X002815Y001618D01*
X002815Y001557D01*
X002753Y001680D02*
X002630Y001680D01*
X002814Y001265D02*
X002814Y000895D01*
X002692Y001080D02*
X002445Y001080D01*
X002445Y001142D02*
X002445Y000895D01*
X002017Y001495D02*
X001832Y001495D01*
X001832Y001865D01*
X002017Y001865D01*
X002079Y001804D01*
X002079Y001557D01*
X002017Y001495D01*
X001710Y001495D02*
X001463Y001495D01*
X001463Y001865D01*
X001710Y001865D01*
X001587Y001680D02*
X001463Y001680D01*
X001342Y001495D02*
X001095Y001495D01*
X001095Y001865D01*
X001095Y001265D02*
X001095Y001018D01*
X001218Y000895D01*
X003551Y001865D02*
X003551Y001927D01*
X003735Y001742D02*
X003920Y001742D01*
X003981Y001680D01*
X003981Y001557D01*
X003920Y001495D01*
X003735Y001372D02*
X003735Y001742D01*
X004533Y000957D02*
X004594Y000957D01*
X004594Y000895D01*
X004533Y000895D01*
X004533Y000957D01*
X004717Y000957D02*
X004717Y001204D01*
X004778Y001265D01*
X004902Y001265D01*
X004964Y001204D01*
X004964Y000957D01*
X004902Y000895D01*
X004778Y000895D01*
X004717Y000957D01*
X005085Y001018D02*
X005270Y001018D01*
X005332Y001080D01*
X005332Y001204D01*
X005270Y001265D01*
X005085Y001265D01*
X005085Y000895D01*
X005209Y001018D02*
X005332Y000895D01*
X005453Y000957D02*
X005515Y000895D01*
X005639Y000895D01*
X005700Y000957D01*
X005700Y001080D01*
X005577Y001080D01*
X005700Y001204D02*
X005639Y001265D01*
X005515Y001265D01*
X005453Y001204D01*
X005453Y000957D01*
D12*
X003455Y001309D02*
X003251Y001105D01*
X003048Y001309D01*
X003048Y001716D01*
X002847Y001614D02*
X002746Y001716D01*
X002542Y001716D01*
X002440Y001614D01*
X002847Y001207D01*
X002746Y001105D01*
X002542Y001105D01*
X002440Y001207D01*
X002440Y001614D01*
X002847Y001614D02*
X002847Y001207D01*
X002240Y001207D02*
X002240Y001105D01*
X002138Y001105D01*
X002138Y001207D01*
X002240Y001207D01*
X001936Y001207D02*
X001936Y001614D01*
X001834Y001716D01*
X001630Y001716D01*
X001529Y001614D01*
X001936Y001207D01*
X001834Y001105D01*
X001630Y001105D01*
X001529Y001207D01*
X001529Y001614D01*
X001328Y001512D02*
X001124Y001716D01*
X001124Y001105D01*
X000921Y001105D02*
X001328Y001105D01*
X003455Y001309D02*
X003455Y001716D01*
D13*
X003680Y005180D03*
X003680Y006180D03*
X003680Y007180D03*
X004680Y007180D03*
X004680Y006180D03*
X004680Y005180D03*
D14*
X007127Y002133D02*
X007127Y001428D01*
X009096Y001428D02*
X009096Y002133D01*
X011064Y002133D02*
X011064Y001428D01*
X013033Y001428D02*
X013033Y002133D01*
D15*
X003380Y013086D03*
X001530Y014267D03*
X003380Y015449D03*
D16*
X001061Y000749D02*
X000769Y000749D01*
X000686Y000790D02*
X000549Y000947D01*
X000483Y001144D01*
X000480Y001234D01*
X000480Y001256D01*
X000485Y001332D01*
X000480Y001338D01*
X000480Y016896D01*
X000485Y016951D01*
X000527Y017052D01*
X000604Y017129D01*
X000705Y017171D01*
X000760Y017176D01*
X019166Y017176D01*
X019225Y017160D01*
X019346Y017082D01*
X019428Y016964D01*
X019459Y016824D01*
X019458Y016807D01*
X019450Y016799D01*
X019450Y016734D01*
X019439Y016670D01*
X019450Y016654D01*
X019450Y001317D01*
X019445Y001311D01*
X019450Y001236D01*
X019450Y001171D01*
X019450Y001148D01*
X019411Y000992D01*
X019326Y000855D01*
X019203Y000752D01*
X019053Y000691D01*
X018977Y000680D01*
X000974Y000680D01*
X000873Y000697D01*
X000686Y000790D01*
X000584Y000907D02*
X000801Y000907D01*
X000828Y000880D02*
X000929Y000880D01*
X001003Y000806D01*
X001129Y000680D01*
X001307Y000680D01*
X001341Y000713D01*
X001374Y000680D01*
X001676Y000680D01*
X001679Y000683D01*
X001682Y000680D01*
X001895Y000680D01*
X001983Y000680D01*
X001983Y000680D01*
X001983Y000680D01*
X002016Y000713D01*
X002050Y000680D01*
X002261Y000680D01*
X002351Y000680D01*
X002351Y000680D01*
X002351Y000680D01*
X002354Y000683D01*
X002356Y000680D01*
X002535Y000680D01*
X002569Y000714D01*
X002603Y000680D01*
X003395Y000680D01*
X003397Y000683D01*
X003400Y000680D01*
X003612Y000680D01*
X003702Y000680D01*
X003704Y000683D01*
X003707Y000680D01*
X003885Y000680D01*
X003919Y000714D01*
X003954Y000680D01*
X004132Y000680D01*
X004165Y000713D01*
X004199Y000680D01*
X004377Y000680D01*
X004410Y000713D01*
X004444Y000680D01*
X004683Y000680D01*
X004686Y000683D01*
X004689Y000680D01*
X004901Y000680D01*
X004991Y000680D01*
X004993Y000683D01*
X004996Y000680D01*
X005174Y000680D01*
X005209Y000714D01*
X005243Y000680D01*
X005421Y000680D01*
X005424Y000683D01*
X005426Y000680D01*
X005638Y000680D01*
X005728Y000680D01*
X005789Y000742D01*
X005789Y000742D01*
X005789Y000742D01*
X005854Y000806D01*
X005915Y000868D01*
X005915Y000958D01*
X005915Y001046D01*
X005915Y001293D01*
X005854Y001354D01*
X005728Y001480D01*
X005604Y001480D01*
X005514Y001480D01*
X005426Y001480D01*
X005393Y001447D01*
X005359Y001480D01*
X004996Y001480D01*
X004993Y001478D01*
X004991Y001480D01*
X004868Y001480D01*
X004868Y001480D01*
X004778Y001480D01*
X004689Y001480D01*
X004626Y001417D01*
X004595Y001386D01*
X004500Y001480D01*
X004196Y001480D01*
X004196Y001589D01*
X004196Y001646D01*
X004196Y001769D01*
X004071Y001895D01*
X004009Y001957D01*
X003766Y001957D01*
X003766Y002016D01*
X003640Y002142D01*
X003462Y002142D01*
X003336Y002016D01*
X003336Y001957D01*
X003149Y001957D01*
X003087Y002019D01*
X002909Y002019D01*
X002907Y002016D01*
X002842Y002080D01*
X002719Y002080D01*
X002719Y002080D01*
X002629Y002080D01*
X002541Y002080D01*
X002477Y002017D01*
X002415Y001954D01*
X002353Y001893D01*
X002353Y001893D01*
X002353Y001845D01*
X002317Y001809D01*
X002317Y001809D01*
X002299Y001790D01*
X002294Y001785D01*
X002294Y001893D01*
X002232Y001954D01*
X002106Y002080D01*
X001374Y002080D01*
X001279Y001985D01*
X001184Y002080D01*
X001006Y002080D01*
X000880Y001954D01*
X000880Y001406D01*
X000899Y001386D01*
X000899Y001374D01*
X000880Y001354D01*
X000880Y001330D01*
X000828Y001330D01*
X000696Y001198D01*
X000696Y001012D01*
X000828Y000880D01*
X000696Y001066D02*
X000509Y001066D01*
X000480Y001224D02*
X000722Y001224D01*
X000899Y001383D02*
X000480Y001383D01*
X000480Y001541D02*
X000880Y001541D01*
X000880Y001700D02*
X000480Y001700D01*
X000480Y001858D02*
X000880Y001858D01*
X000942Y002017D02*
X000480Y002017D01*
X000480Y002175D02*
X006575Y002175D01*
X006575Y002242D02*
X006659Y002445D01*
X006814Y002601D01*
X007017Y002685D01*
X007237Y002685D01*
X007440Y002601D01*
X007596Y002445D01*
X007680Y002242D01*
X007680Y001318D01*
X007596Y001115D01*
X007440Y000959D01*
X007237Y000875D01*
X007017Y000875D01*
X006814Y000959D01*
X006659Y001115D01*
X006575Y001318D01*
X006575Y002242D01*
X006612Y002334D02*
X000480Y002334D01*
X000480Y002492D02*
X006705Y002492D01*
X006934Y002651D02*
X000480Y002651D01*
X000480Y002809D02*
X008920Y002809D01*
X008920Y002658D02*
X008783Y002601D01*
X008627Y002445D01*
X008543Y002242D01*
X008543Y001318D01*
X008627Y001115D01*
X008783Y000959D01*
X008986Y000875D01*
X009206Y000875D01*
X009409Y000959D01*
X009564Y001115D01*
X009648Y001318D01*
X009648Y002242D01*
X009640Y002262D01*
X009640Y003431D01*
X010629Y004420D01*
X016152Y004420D01*
X016284Y004475D01*
X016385Y004576D01*
X017685Y005876D01*
X017740Y006008D01*
X017740Y010031D01*
X017885Y010176D01*
X017940Y010308D01*
X017940Y010361D01*
X017958Y010405D01*
X017958Y010555D01*
X017901Y010694D01*
X017794Y010801D01*
X017655Y010858D01*
X017505Y010858D01*
X017366Y010801D01*
X017259Y010694D01*
X017202Y010555D01*
X017202Y010511D01*
X017176Y010485D01*
X017075Y010384D01*
X017020Y010252D01*
X017020Y006229D01*
X015931Y005140D01*
X010408Y005140D01*
X010276Y005085D01*
X009076Y003885D01*
X008975Y003784D01*
X008920Y003652D01*
X008920Y002658D01*
X008903Y002651D02*
X007320Y002651D01*
X007549Y002492D02*
X008674Y002492D01*
X008581Y002334D02*
X007642Y002334D01*
X007680Y002175D02*
X008543Y002175D01*
X008543Y002017D02*
X007680Y002017D01*
X007680Y001858D02*
X008543Y001858D01*
X008543Y001700D02*
X007680Y001700D01*
X007680Y001541D02*
X008543Y001541D01*
X008543Y001383D02*
X007680Y001383D01*
X007641Y001224D02*
X008582Y001224D01*
X008676Y001066D02*
X007547Y001066D01*
X007314Y000907D02*
X008909Y000907D01*
X009283Y000907D02*
X010877Y000907D01*
X010954Y000875D02*
X010751Y000959D01*
X010596Y001115D01*
X010512Y001318D01*
X010512Y002242D01*
X010596Y002445D01*
X010751Y002601D01*
X010920Y002671D01*
X010920Y003052D01*
X010975Y003184D01*
X011076Y003285D01*
X011876Y004085D01*
X012008Y004140D01*
X016031Y004140D01*
X017641Y005750D01*
X017659Y005794D01*
X017766Y005901D01*
X017905Y005958D01*
X018055Y005958D01*
X018194Y005901D01*
X018301Y005794D01*
X018358Y005655D01*
X018358Y005505D01*
X018301Y005366D01*
X018194Y005259D01*
X018150Y005241D01*
X016485Y003576D01*
X016485Y003576D01*
X016384Y003475D01*
X016252Y003420D01*
X012229Y003420D01*
X011640Y002831D01*
X011640Y001924D01*
X011617Y001868D01*
X011617Y001318D01*
X011533Y001115D01*
X011377Y000959D01*
X011174Y000875D01*
X010954Y000875D01*
X011251Y000907D02*
X012846Y000907D01*
X012923Y000875D02*
X012720Y000959D01*
X012564Y001115D01*
X012480Y001318D01*
X012480Y002242D01*
X012564Y002445D01*
X012720Y002601D01*
X012923Y002685D01*
X013143Y002685D01*
X013346Y002601D01*
X013501Y002445D01*
X013585Y002242D01*
X013585Y001318D01*
X013501Y001115D01*
X013346Y000959D01*
X013143Y000875D01*
X012923Y000875D01*
X013220Y000907D02*
X019358Y000907D01*
X019429Y001066D02*
X013452Y001066D01*
X013546Y001224D02*
X019450Y001224D01*
X019450Y001383D02*
X013585Y001383D01*
X013585Y001541D02*
X019450Y001541D01*
X019450Y001700D02*
X013585Y001700D01*
X013585Y001858D02*
X019450Y001858D01*
X019450Y002017D02*
X013585Y002017D01*
X013585Y002175D02*
X019450Y002175D01*
X019450Y002334D02*
X013548Y002334D01*
X013455Y002492D02*
X019450Y002492D01*
X019450Y002651D02*
X013226Y002651D01*
X012840Y002651D02*
X011640Y002651D01*
X011640Y002809D02*
X019450Y002809D01*
X019450Y002968D02*
X011777Y002968D01*
X011935Y003126D02*
X019450Y003126D01*
X019450Y003285D02*
X012094Y003285D01*
X011551Y003760D02*
X009969Y003760D01*
X009811Y003602D02*
X011392Y003602D01*
X011234Y003443D02*
X009652Y003443D01*
X009640Y003285D02*
X011075Y003285D01*
X010951Y003126D02*
X009640Y003126D01*
X009640Y002968D02*
X010920Y002968D01*
X010920Y002809D02*
X009640Y002809D01*
X009640Y002651D02*
X010871Y002651D01*
X010642Y002492D02*
X009640Y002492D01*
X009640Y002334D02*
X010549Y002334D01*
X010512Y002175D02*
X009648Y002175D01*
X009648Y002017D02*
X010512Y002017D01*
X010512Y001858D02*
X009648Y001858D01*
X009648Y001700D02*
X010512Y001700D01*
X010512Y001541D02*
X009648Y001541D01*
X009648Y001383D02*
X010512Y001383D01*
X010551Y001224D02*
X009609Y001224D01*
X009515Y001066D02*
X010645Y001066D01*
X011484Y001066D02*
X012613Y001066D01*
X012519Y001224D02*
X011578Y001224D01*
X011617Y001383D02*
X012480Y001383D01*
X012480Y001541D02*
X011617Y001541D01*
X011617Y001700D02*
X012480Y001700D01*
X012480Y001858D02*
X011617Y001858D01*
X011640Y002017D02*
X012480Y002017D01*
X012480Y002175D02*
X011640Y002175D01*
X011640Y002334D02*
X012518Y002334D01*
X012611Y002492D02*
X011640Y002492D01*
X011709Y003919D02*
X010128Y003919D01*
X010286Y004077D02*
X011868Y004077D01*
X010603Y004394D02*
X016285Y004394D01*
X016362Y004553D02*
X016443Y004553D01*
X016520Y004711D02*
X016602Y004711D01*
X016679Y004870D02*
X016760Y004870D01*
X016837Y005028D02*
X016919Y005028D01*
X016996Y005187D02*
X017077Y005187D01*
X017154Y005345D02*
X017236Y005345D01*
X017313Y005504D02*
X017394Y005504D01*
X017471Y005662D02*
X017553Y005662D01*
X017630Y005821D02*
X017686Y005821D01*
X017728Y005979D02*
X019450Y005979D01*
X019450Y005821D02*
X018274Y005821D01*
X018355Y005662D02*
X019450Y005662D01*
X019450Y005504D02*
X018358Y005504D01*
X018280Y005345D02*
X019450Y005345D01*
X019450Y005187D02*
X018096Y005187D01*
X017937Y005028D02*
X019450Y005028D01*
X019450Y004870D02*
X017779Y004870D01*
X017620Y004711D02*
X019450Y004711D01*
X019450Y004553D02*
X017462Y004553D01*
X017303Y004394D02*
X019450Y004394D01*
X019450Y004236D02*
X017145Y004236D01*
X016986Y004077D02*
X019450Y004077D01*
X019450Y003919D02*
X016828Y003919D01*
X016669Y003760D02*
X019450Y003760D01*
X019450Y003602D02*
X016511Y003602D01*
X016307Y003443D02*
X019450Y003443D01*
X016770Y005979D02*
X010947Y005979D01*
X010958Y006005D02*
X010958Y006155D01*
X010901Y006294D01*
X010794Y006401D01*
X010655Y006458D01*
X010598Y006458D01*
X010360Y006696D01*
X010360Y008465D01*
X010366Y008459D01*
X010505Y008402D01*
X010562Y008402D01*
X012343Y006621D01*
X012421Y006543D01*
X012524Y006500D01*
X012625Y006500D01*
X012666Y006459D01*
X012805Y006402D01*
X012955Y006402D01*
X013094Y006459D01*
X013201Y006566D01*
X013258Y006705D01*
X013258Y006855D01*
X013201Y006994D01*
X013094Y007101D01*
X012955Y007158D01*
X012805Y007158D01*
X012666Y007101D01*
X012661Y007095D01*
X010958Y008798D01*
X010958Y008855D01*
X010939Y008902D01*
X011055Y008902D01*
X011194Y008959D01*
X011301Y009066D01*
X011358Y009205D01*
X011358Y009355D01*
X011301Y009494D01*
X011194Y009601D01*
X011055Y009658D01*
X010905Y009658D01*
X010766Y009601D01*
X010725Y009560D01*
X010324Y009560D01*
X010260Y009533D01*
X010260Y010025D01*
X010301Y010066D01*
X010358Y010205D01*
X010358Y010355D01*
X010301Y010494D01*
X010194Y010601D01*
X010055Y010658D01*
X009905Y010658D01*
X009766Y010601D01*
X009659Y010494D01*
X009613Y010382D01*
X009594Y010401D01*
X009455Y010458D01*
X009305Y010458D01*
X009166Y010401D01*
X009059Y010294D01*
X009002Y010155D01*
X009002Y010005D01*
X009059Y009866D01*
X009100Y009825D01*
X009100Y009496D01*
X007829Y008225D01*
X007801Y008294D01*
X007694Y008401D01*
X007555Y008458D01*
X007405Y008458D01*
X007266Y008401D01*
X007159Y008294D01*
X007102Y008155D01*
X007102Y008098D01*
X006464Y007460D01*
X005127Y007460D01*
X005121Y007475D01*
X004975Y007621D01*
X004783Y007700D01*
X004596Y007700D01*
X005096Y008200D01*
X005936Y008200D01*
X006039Y008243D01*
X008398Y010602D01*
X008455Y010602D01*
X008594Y010659D01*
X008701Y010766D01*
X008758Y010905D01*
X008758Y011055D01*
X008701Y011194D01*
X008594Y011301D01*
X008455Y011358D01*
X008305Y011358D01*
X008166Y011301D01*
X008059Y011194D01*
X008002Y011055D01*
X008002Y010998D01*
X005764Y008760D01*
X004924Y008760D01*
X004821Y008717D01*
X003943Y007839D01*
X003900Y007736D01*
X003900Y007629D01*
X003872Y007643D01*
X003797Y007668D01*
X003719Y007680D01*
X003689Y007680D01*
X003689Y007189D01*
X003671Y007189D01*
X003671Y007680D01*
X003641Y007680D01*
X003563Y007668D01*
X003488Y007643D01*
X003418Y007608D01*
X003354Y007561D01*
X003299Y007506D01*
X003252Y007442D01*
X003217Y007372D01*
X003192Y007297D01*
X003180Y007219D01*
X003180Y007189D01*
X003671Y007189D01*
X003671Y007171D01*
X003180Y007171D01*
X003180Y007141D01*
X003192Y007063D01*
X003217Y006988D01*
X003252Y006918D01*
X003299Y006854D01*
X003354Y006799D01*
X003418Y006752D01*
X003488Y006717D01*
X003560Y006693D01*
X003385Y006621D01*
X003239Y006475D01*
X003160Y006283D01*
X003160Y006077D01*
X003239Y005885D01*
X003385Y005739D01*
X003528Y005680D01*
X003385Y005621D01*
X003239Y005475D01*
X003160Y005283D01*
X003160Y005077D01*
X003239Y004885D01*
X003385Y004739D01*
X003577Y004660D01*
X003647Y004660D01*
X003999Y004309D01*
X004116Y004260D01*
X005844Y004260D01*
X005961Y004309D01*
X006051Y004399D01*
X008854Y007202D01*
X008855Y007202D01*
X008994Y007259D01*
X009101Y007366D01*
X009158Y007505D01*
X009158Y007655D01*
X009101Y007794D01*
X008994Y007901D01*
X008925Y007929D01*
X009800Y008804D01*
X009800Y006524D01*
X009843Y006421D01*
X010202Y006062D01*
X010202Y006005D01*
X010259Y005866D01*
X010366Y005759D01*
X010505Y005702D01*
X010655Y005702D01*
X010794Y005759D01*
X010901Y005866D01*
X010958Y006005D01*
X010958Y006138D02*
X016928Y006138D01*
X017020Y006296D02*
X010899Y006296D01*
X010664Y006455D02*
X012678Y006455D01*
X012580Y006780D02*
X012880Y006780D01*
X012580Y006780D02*
X010580Y008780D01*
X010958Y008832D02*
X017020Y008832D01*
X017020Y008674D02*
X011082Y008674D01*
X011241Y008515D02*
X017020Y008515D01*
X017020Y008357D02*
X011399Y008357D01*
X011558Y008198D02*
X017020Y008198D01*
X017020Y008040D02*
X011716Y008040D01*
X011875Y007881D02*
X017020Y007881D01*
X017020Y007723D02*
X012033Y007723D01*
X012192Y007564D02*
X017020Y007564D01*
X017020Y007406D02*
X012350Y007406D01*
X012509Y007247D02*
X017020Y007247D01*
X017020Y007089D02*
X013106Y007089D01*
X013227Y006930D02*
X017020Y006930D01*
X017020Y006772D02*
X013258Y006772D01*
X013220Y006613D02*
X017020Y006613D01*
X017020Y006455D02*
X013082Y006455D01*
X012351Y006613D02*
X010443Y006613D01*
X010360Y006772D02*
X012192Y006772D01*
X012034Y006930D02*
X010360Y006930D01*
X010360Y007089D02*
X011875Y007089D01*
X011717Y007247D02*
X010360Y007247D01*
X010360Y007406D02*
X011558Y007406D01*
X011400Y007564D02*
X010360Y007564D01*
X010360Y007723D02*
X011241Y007723D01*
X011083Y007881D02*
X010360Y007881D01*
X010360Y008040D02*
X010924Y008040D01*
X010766Y008198D02*
X010360Y008198D01*
X010360Y008357D02*
X010607Y008357D01*
X010080Y008980D02*
X010080Y006580D01*
X010580Y006080D01*
X010855Y005821D02*
X016611Y005821D01*
X016453Y005662D02*
X007315Y005662D01*
X007473Y005821D02*
X010305Y005821D01*
X010213Y005979D02*
X007632Y005979D01*
X007790Y006138D02*
X010126Y006138D01*
X009968Y006296D02*
X007949Y006296D01*
X008107Y006455D02*
X009829Y006455D01*
X009800Y006613D02*
X008266Y006613D01*
X008424Y006772D02*
X009800Y006772D01*
X009800Y006930D02*
X008583Y006930D01*
X008741Y007089D02*
X009800Y007089D01*
X009800Y007247D02*
X008964Y007247D01*
X009117Y007406D02*
X009800Y007406D01*
X009800Y007564D02*
X009158Y007564D01*
X009130Y007723D02*
X009800Y007723D01*
X009800Y007881D02*
X009014Y007881D01*
X009036Y008040D02*
X009800Y008040D01*
X009800Y008198D02*
X009194Y008198D01*
X009353Y008357D02*
X009800Y008357D01*
X009800Y008515D02*
X009511Y008515D01*
X009670Y008674D02*
X009800Y008674D01*
X010080Y008980D02*
X010380Y009280D01*
X010980Y009280D01*
X011225Y008991D02*
X017020Y008991D01*
X017020Y009149D02*
X011335Y009149D01*
X011358Y009308D02*
X017020Y009308D01*
X017020Y009466D02*
X011312Y009466D01*
X011136Y009625D02*
X017020Y009625D01*
X017020Y009783D02*
X010260Y009783D01*
X010260Y009625D02*
X010824Y009625D01*
X010260Y009942D02*
X017020Y009942D01*
X017020Y010100D02*
X010315Y010100D01*
X010358Y010259D02*
X017023Y010259D01*
X017108Y010417D02*
X010333Y010417D01*
X010219Y010576D02*
X017210Y010576D01*
X017299Y010734D02*
X008669Y010734D01*
X008753Y010893D02*
X019450Y010893D01*
X019450Y011051D02*
X008758Y011051D01*
X008685Y011210D02*
X019450Y011210D01*
X019450Y011368D02*
X000480Y011368D01*
X000480Y011210D02*
X008075Y011210D01*
X008002Y011051D02*
X000480Y011051D01*
X000480Y010893D02*
X007897Y010893D01*
X007738Y010734D02*
X000480Y010734D01*
X000480Y010576D02*
X007580Y010576D01*
X007421Y010417D02*
X000480Y010417D01*
X000480Y010259D02*
X007263Y010259D01*
X007104Y010100D02*
X000480Y010100D01*
X000480Y009942D02*
X006946Y009942D01*
X006787Y009783D02*
X000480Y009783D01*
X000480Y009625D02*
X006629Y009625D01*
X006470Y009466D02*
X000480Y009466D01*
X000480Y009308D02*
X006312Y009308D01*
X006153Y009149D02*
X000480Y009149D01*
X000480Y008991D02*
X005995Y008991D01*
X005836Y008832D02*
X000480Y008832D01*
X000480Y008674D02*
X004778Y008674D01*
X004619Y008515D02*
X000480Y008515D01*
X000480Y008357D02*
X004461Y008357D01*
X004302Y008198D02*
X000480Y008198D01*
X000480Y008040D02*
X004144Y008040D01*
X003985Y007881D02*
X000480Y007881D01*
X000480Y007723D02*
X003900Y007723D01*
X003689Y007564D02*
X003671Y007564D01*
X003671Y007406D02*
X003689Y007406D01*
X003689Y007247D02*
X003671Y007247D01*
X003358Y007564D02*
X000480Y007564D01*
X000480Y007406D02*
X003234Y007406D01*
X003184Y007247D02*
X000480Y007247D01*
X000480Y007089D02*
X003188Y007089D01*
X003246Y006930D02*
X000480Y006930D01*
X000480Y006772D02*
X003392Y006772D01*
X003378Y006613D02*
X000480Y006613D01*
X000480Y006455D02*
X003231Y006455D01*
X003165Y006296D02*
X000480Y006296D01*
X000480Y006138D02*
X003160Y006138D01*
X003200Y005979D02*
X000480Y005979D01*
X000480Y005821D02*
X003304Y005821D01*
X003485Y005662D02*
X000480Y005662D01*
X000480Y005504D02*
X003268Y005504D01*
X003186Y005345D02*
X000480Y005345D01*
X000480Y005187D02*
X003160Y005187D01*
X003180Y005028D02*
X000480Y005028D01*
X000480Y004870D02*
X003255Y004870D01*
X003453Y004711D02*
X000480Y004711D01*
X000480Y004553D02*
X003755Y004553D01*
X003913Y004394D02*
X000480Y004394D01*
X000480Y004236D02*
X009426Y004236D01*
X009585Y004394D02*
X006047Y004394D01*
X006205Y004553D02*
X009743Y004553D01*
X009902Y004711D02*
X006364Y004711D01*
X006522Y004870D02*
X010060Y004870D01*
X010219Y005028D02*
X006681Y005028D01*
X006839Y005187D02*
X015977Y005187D01*
X016136Y005345D02*
X006998Y005345D01*
X007156Y005504D02*
X016294Y005504D01*
X016126Y004236D02*
X010445Y004236D01*
X009268Y004077D02*
X000480Y004077D01*
X000480Y003919D02*
X009109Y003919D01*
X008965Y003760D02*
X000480Y003760D01*
X000480Y003602D02*
X008920Y003602D01*
X008920Y003443D02*
X000480Y003443D01*
X000480Y003285D02*
X008920Y003285D01*
X008920Y003126D02*
X000480Y003126D01*
X000480Y002968D02*
X008920Y002968D01*
X006575Y002017D02*
X003765Y002017D01*
X004108Y001858D02*
X006575Y001858D01*
X006575Y001700D02*
X004196Y001700D01*
X004196Y001646D02*
X004196Y001646D01*
X004196Y001541D02*
X006575Y001541D01*
X006575Y001383D02*
X005825Y001383D01*
X005915Y001224D02*
X006614Y001224D01*
X006708Y001066D02*
X005915Y001066D01*
X005915Y001046D02*
X005915Y001046D01*
X005915Y000907D02*
X006940Y000907D01*
X005915Y000868D02*
X005915Y000868D01*
X005915Y000868D01*
X005796Y000749D02*
X019194Y000749D01*
X019450Y006138D02*
X017740Y006138D01*
X017740Y006296D02*
X019450Y006296D01*
X019450Y006455D02*
X017740Y006455D01*
X017740Y006613D02*
X019450Y006613D01*
X019450Y006772D02*
X017740Y006772D01*
X017740Y006930D02*
X019450Y006930D01*
X019450Y007089D02*
X017740Y007089D01*
X017740Y007247D02*
X019450Y007247D01*
X019450Y007406D02*
X017740Y007406D01*
X017740Y007564D02*
X019450Y007564D01*
X019450Y007723D02*
X017740Y007723D01*
X017740Y007881D02*
X019450Y007881D01*
X019450Y008040D02*
X017740Y008040D01*
X017740Y008198D02*
X019450Y008198D01*
X019450Y008357D02*
X017740Y008357D01*
X017740Y008515D02*
X019450Y008515D01*
X019450Y008674D02*
X017740Y008674D01*
X017740Y008832D02*
X019450Y008832D01*
X019450Y008991D02*
X017740Y008991D01*
X017740Y009149D02*
X019450Y009149D01*
X019450Y009308D02*
X017740Y009308D01*
X017740Y009466D02*
X019450Y009466D01*
X019450Y009625D02*
X017740Y009625D01*
X017740Y009783D02*
X019450Y009783D01*
X019450Y009942D02*
X017740Y009942D01*
X017809Y010100D02*
X019450Y010100D01*
X019450Y010259D02*
X017919Y010259D01*
X017958Y010417D02*
X019450Y010417D01*
X019450Y010576D02*
X017950Y010576D01*
X017861Y010734D02*
X019450Y010734D01*
X019450Y011527D02*
X006561Y011527D01*
X006601Y011566D02*
X006658Y011705D01*
X006658Y011762D01*
X007061Y012165D01*
X007066Y012159D01*
X007205Y012102D01*
X007355Y012102D01*
X007494Y012159D01*
X007601Y012266D01*
X007658Y012405D01*
X007658Y012555D01*
X007601Y012694D01*
X007494Y012801D01*
X007355Y012858D01*
X007205Y012858D01*
X007066Y012801D01*
X007025Y012760D01*
X006924Y012760D01*
X006821Y012717D01*
X006262Y012158D01*
X006205Y012158D01*
X006066Y012101D01*
X005959Y011994D01*
X005902Y011855D01*
X005902Y011705D01*
X005959Y011566D01*
X006066Y011459D01*
X006205Y011402D01*
X006355Y011402D01*
X006494Y011459D01*
X006601Y011566D01*
X006650Y011685D02*
X019450Y011685D01*
X019450Y011844D02*
X006740Y011844D01*
X006898Y012002D02*
X019450Y012002D01*
X019450Y012161D02*
X007495Y012161D01*
X007623Y012319D02*
X019450Y012319D01*
X019450Y012478D02*
X011412Y012478D01*
X011394Y012459D02*
X011435Y012500D01*
X012936Y012500D01*
X013039Y012543D01*
X013117Y012621D01*
X014296Y013800D01*
X016025Y013800D01*
X016066Y013759D01*
X016205Y013702D01*
X016355Y013702D01*
X016494Y013759D01*
X016601Y013866D01*
X016658Y014005D01*
X016658Y014155D01*
X016601Y014294D01*
X016494Y014401D01*
X016355Y014458D01*
X016324Y014458D01*
X016327Y014460D01*
X016400Y014533D01*
X016500Y014633D01*
X016524Y014689D01*
X016601Y014766D01*
X016658Y014905D01*
X016658Y015055D01*
X016601Y015194D01*
X016494Y015301D01*
X016355Y015358D01*
X016205Y015358D01*
X016066Y015301D01*
X015959Y015194D01*
X015902Y015055D01*
X015902Y014940D01*
X013747Y014940D01*
X013794Y014959D01*
X013901Y015066D01*
X013958Y015205D01*
X013958Y015355D01*
X013901Y015494D01*
X013794Y015601D01*
X013655Y015658D01*
X013505Y015658D01*
X013366Y015601D01*
X013305Y015540D01*
X010628Y015540D01*
X010533Y015500D01*
X010090Y015058D01*
X010005Y015058D01*
X009866Y015001D01*
X009759Y014894D01*
X009702Y014755D01*
X009702Y014605D01*
X009759Y014466D01*
X009866Y014359D01*
X010005Y014302D01*
X010134Y014302D01*
X009990Y014158D01*
X009905Y014158D01*
X009766Y014101D01*
X009659Y013994D01*
X009602Y013855D01*
X009602Y013705D01*
X009659Y013566D01*
X009766Y013459D01*
X009905Y013402D01*
X010055Y013402D01*
X010194Y013459D01*
X010301Y013566D01*
X010358Y013705D01*
X010358Y013790D01*
X010988Y014420D01*
X016113Y014420D01*
X016066Y014401D01*
X016025Y014360D01*
X014124Y014360D01*
X014021Y014317D01*
X012764Y013060D01*
X011435Y013060D01*
X011394Y013101D01*
X011255Y013158D01*
X011105Y013158D01*
X010966Y013101D01*
X010859Y012994D01*
X010802Y012855D01*
X010802Y012705D01*
X010859Y012566D01*
X010966Y012459D01*
X011105Y012402D01*
X011255Y012402D01*
X011394Y012459D01*
X011180Y012780D02*
X012880Y012780D01*
X014180Y014080D01*
X016280Y014080D01*
X016045Y014380D02*
X010947Y014380D01*
X010789Y014221D02*
X013925Y014221D01*
X013767Y014063D02*
X010630Y014063D01*
X010472Y013904D02*
X013608Y013904D01*
X013450Y013746D02*
X010358Y013746D01*
X010309Y013587D02*
X013291Y013587D01*
X013133Y013429D02*
X010120Y013429D01*
X009840Y013429D02*
X004375Y013429D01*
X004358Y013492D02*
X004220Y013731D01*
X004025Y013927D01*
X003785Y014065D01*
X003518Y014136D01*
X003242Y014136D01*
X002975Y014065D01*
X002735Y013927D01*
X002540Y013731D01*
X002402Y013492D01*
X002330Y013225D01*
X002330Y012948D01*
X002402Y012681D01*
X002540Y012442D01*
X002735Y012246D01*
X002975Y012108D01*
X003242Y012036D01*
X003518Y012036D01*
X003785Y012108D01*
X004025Y012246D01*
X004220Y012442D01*
X004358Y012681D01*
X004430Y012948D01*
X004430Y013225D01*
X004358Y013492D01*
X004303Y013587D02*
X009651Y013587D01*
X009602Y013746D02*
X004206Y013746D01*
X004047Y013904D02*
X009622Y013904D01*
X009728Y014063D02*
X003789Y014063D01*
X003666Y014457D02*
X003553Y014431D01*
X003460Y014421D01*
X003460Y015368D01*
X003300Y015368D01*
X003300Y014421D01*
X003207Y014431D01*
X003094Y014457D01*
X002985Y014495D01*
X002881Y014546D01*
X002783Y014607D01*
X002693Y014679D01*
X002611Y014761D01*
X002539Y014852D01*
X002477Y014949D01*
X002427Y015054D01*
X002389Y015163D01*
X002363Y015276D01*
X002352Y015369D01*
X003300Y015369D01*
X003300Y015529D01*
X003300Y016476D01*
X003207Y016466D01*
X003094Y016440D01*
X002985Y016402D01*
X002881Y016351D01*
X002783Y016290D01*
X002693Y016218D01*
X002611Y016136D01*
X002539Y016045D01*
X002477Y015948D01*
X002427Y015843D01*
X002389Y015734D01*
X002363Y015621D01*
X002352Y015529D01*
X003300Y015529D01*
X003460Y015529D01*
X003460Y016476D01*
X003553Y016466D01*
X003666Y016440D01*
X003775Y016402D01*
X003879Y016351D01*
X003977Y016290D01*
X004067Y016218D01*
X004149Y016136D01*
X004221Y016045D01*
X004283Y015948D01*
X004333Y015843D01*
X004371Y015734D01*
X004397Y015621D01*
X004408Y015529D01*
X003460Y015529D01*
X003460Y015369D01*
X004408Y015369D01*
X004397Y015276D01*
X004371Y015163D01*
X004333Y015054D01*
X004283Y014949D01*
X004221Y014852D01*
X004149Y014761D01*
X004067Y014679D01*
X003977Y014607D01*
X003879Y014546D01*
X003775Y014495D01*
X003666Y014457D01*
X003863Y014538D02*
X009730Y014538D01*
X009702Y014697D02*
X004085Y014697D01*
X004224Y014855D02*
X009743Y014855D01*
X009897Y015014D02*
X004314Y015014D01*
X004373Y015172D02*
X010204Y015172D01*
X010363Y015331D02*
X004403Y015331D01*
X004391Y015648D02*
X013479Y015648D01*
X013681Y015648D02*
X019450Y015648D01*
X019450Y015806D02*
X004346Y015806D01*
X004272Y015965D02*
X019450Y015965D01*
X019450Y016123D02*
X004159Y016123D01*
X003987Y016282D02*
X019450Y016282D01*
X019450Y016440D02*
X003665Y016440D01*
X003460Y016440D02*
X003300Y016440D01*
X003300Y016282D02*
X003460Y016282D01*
X003460Y016123D02*
X003300Y016123D01*
X003300Y015965D02*
X003460Y015965D01*
X003460Y015806D02*
X003300Y015806D01*
X003300Y015648D02*
X003460Y015648D01*
X003460Y015489D02*
X010521Y015489D01*
X009846Y014380D02*
X002553Y014380D01*
X002557Y014347D02*
X002547Y014440D01*
X002521Y014553D01*
X002483Y014662D01*
X002433Y014766D01*
X002371Y014864D01*
X002299Y014955D01*
X002217Y015037D01*
X002127Y015109D01*
X002029Y015170D01*
X001924Y015220D01*
X001815Y015259D01*
X001702Y015284D01*
X001610Y015295D01*
X001610Y014347D01*
X002557Y014347D01*
X002557Y014187D02*
X001610Y014187D01*
X001610Y014347D01*
X001450Y014347D01*
X001450Y014187D01*
X001610Y014187D01*
X001610Y013240D01*
X001702Y013250D01*
X001815Y013276D01*
X001924Y013314D01*
X002029Y013365D01*
X002127Y013426D01*
X002217Y013498D01*
X002299Y013580D01*
X002371Y013670D01*
X002433Y013768D01*
X002483Y013873D01*
X002521Y013982D01*
X002547Y014095D01*
X002557Y014187D01*
X002539Y014063D02*
X002971Y014063D01*
X002713Y013904D02*
X002494Y013904D01*
X002554Y013746D02*
X002418Y013746D01*
X002457Y013587D02*
X002304Y013587D01*
X002385Y013429D02*
X002130Y013429D01*
X002342Y013270D02*
X001789Y013270D01*
X001610Y013270D02*
X001450Y013270D01*
X001450Y013240D02*
X001450Y014187D01*
X000502Y014187D01*
X000513Y014095D01*
X000538Y013982D01*
X000577Y013873D01*
X000627Y013768D01*
X000688Y013670D01*
X000760Y013580D01*
X000842Y013498D01*
X000933Y013426D01*
X001031Y013365D01*
X001135Y013314D01*
X001244Y013276D01*
X001357Y013250D01*
X001450Y013240D01*
X001271Y013270D02*
X000480Y013270D01*
X000480Y013112D02*
X002330Y013112D01*
X002330Y012953D02*
X000480Y012953D01*
X000480Y012795D02*
X002371Y012795D01*
X002428Y012636D02*
X000480Y012636D01*
X000480Y012478D02*
X002519Y012478D01*
X002662Y012319D02*
X000480Y012319D01*
X000480Y012161D02*
X002883Y012161D01*
X003877Y012161D02*
X006265Y012161D01*
X006423Y012319D02*
X004098Y012319D01*
X004241Y012478D02*
X006582Y012478D01*
X006740Y012636D02*
X004332Y012636D01*
X004389Y012795D02*
X007060Y012795D01*
X006980Y012480D02*
X006280Y011780D01*
X005967Y012002D02*
X000480Y012002D01*
X000480Y011844D02*
X005902Y011844D01*
X005910Y011685D02*
X000480Y011685D01*
X000480Y011527D02*
X005999Y011527D01*
X007057Y012161D02*
X007065Y012161D01*
X006980Y012480D02*
X007280Y012480D01*
X007658Y012478D02*
X010948Y012478D01*
X010830Y012636D02*
X007625Y012636D01*
X007500Y012795D02*
X010802Y012795D01*
X010842Y012953D02*
X004430Y012953D01*
X004430Y013112D02*
X010992Y013112D01*
X011368Y013112D02*
X012816Y013112D01*
X012974Y013270D02*
X004418Y013270D01*
X003460Y014538D02*
X003300Y014538D01*
X003300Y014697D02*
X003460Y014697D01*
X003460Y014855D02*
X003300Y014855D01*
X003300Y015014D02*
X003460Y015014D01*
X003460Y015172D02*
X003300Y015172D01*
X003300Y015331D02*
X003460Y015331D01*
X003300Y015489D02*
X000480Y015489D01*
X000480Y015331D02*
X002357Y015331D01*
X002387Y015172D02*
X002025Y015172D01*
X002240Y015014D02*
X002446Y015014D01*
X002377Y014855D02*
X002536Y014855D01*
X002466Y014697D02*
X002675Y014697D01*
X002524Y014538D02*
X002897Y014538D01*
X002369Y015648D02*
X000480Y015648D01*
X000480Y015806D02*
X002414Y015806D01*
X002488Y015965D02*
X000480Y015965D01*
X000480Y016123D02*
X002601Y016123D01*
X002773Y016282D02*
X000480Y016282D01*
X000480Y016440D02*
X003095Y016440D01*
X001610Y015172D02*
X001450Y015172D01*
X001450Y015295D02*
X001357Y015284D01*
X001244Y015259D01*
X001135Y015220D01*
X001031Y015170D01*
X000933Y015109D01*
X000842Y015037D01*
X000760Y014955D01*
X000688Y014864D01*
X000627Y014766D01*
X000577Y014662D01*
X000538Y014553D01*
X000513Y014440D01*
X000502Y014347D01*
X001450Y014347D01*
X001450Y015295D01*
X001450Y015014D02*
X001610Y015014D01*
X001610Y014855D02*
X001450Y014855D01*
X001450Y014697D02*
X001610Y014697D01*
X001610Y014538D02*
X001450Y014538D01*
X001450Y014380D02*
X001610Y014380D01*
X001610Y014221D02*
X010053Y014221D01*
X013132Y012636D02*
X019450Y012636D01*
X019450Y012795D02*
X013291Y012795D01*
X013449Y012953D02*
X019450Y012953D01*
X019450Y013112D02*
X013608Y013112D01*
X013766Y013270D02*
X019450Y013270D01*
X019450Y013429D02*
X013925Y013429D01*
X014083Y013587D02*
X019450Y013587D01*
X019450Y013746D02*
X016461Y013746D01*
X016616Y013904D02*
X019450Y013904D01*
X019450Y014063D02*
X016658Y014063D01*
X016631Y014221D02*
X019450Y014221D01*
X019450Y014380D02*
X016515Y014380D01*
X016406Y014538D02*
X019450Y014538D01*
X019450Y014697D02*
X016531Y014697D01*
X016638Y014855D02*
X019450Y014855D01*
X019450Y015014D02*
X016658Y015014D01*
X016610Y015172D02*
X019450Y015172D01*
X019450Y015331D02*
X016422Y015331D01*
X016138Y015331D02*
X013958Y015331D01*
X013945Y015172D02*
X015950Y015172D01*
X015902Y015014D02*
X013848Y015014D01*
X013903Y015489D02*
X019450Y015489D01*
X019450Y016599D02*
X000480Y016599D01*
X000480Y016757D02*
X019450Y016757D01*
X019439Y016916D02*
X000482Y016916D01*
X000550Y017074D02*
X019351Y017074D01*
X016099Y013746D02*
X014242Y013746D01*
X009980Y010280D02*
X009980Y009380D01*
X005780Y005180D01*
X004680Y005180D01*
X004680Y006180D02*
X006180Y006180D01*
X009380Y009380D01*
X009380Y010080D01*
X009206Y010417D02*
X008213Y010417D01*
X008055Y010259D02*
X009045Y010259D01*
X009002Y010100D02*
X007896Y010100D01*
X007738Y009942D02*
X009028Y009942D01*
X009100Y009783D02*
X007579Y009783D01*
X007421Y009625D02*
X009100Y009625D01*
X009070Y009466D02*
X007262Y009466D01*
X007104Y009308D02*
X008912Y009308D01*
X008753Y009149D02*
X006945Y009149D01*
X006787Y008991D02*
X008595Y008991D01*
X008436Y008832D02*
X006628Y008832D01*
X006470Y008674D02*
X008278Y008674D01*
X008119Y008515D02*
X006311Y008515D01*
X006153Y008357D02*
X007222Y008357D01*
X007120Y008198D02*
X005094Y008198D01*
X004936Y008040D02*
X007044Y008040D01*
X006885Y007881D02*
X004777Y007881D01*
X004619Y007723D02*
X006727Y007723D01*
X006568Y007564D02*
X005031Y007564D01*
X004680Y007180D02*
X006580Y007180D01*
X007480Y008080D01*
X007738Y008357D02*
X007961Y008357D01*
X009554Y010417D02*
X009627Y010417D01*
X009741Y010576D02*
X008372Y010576D01*
X008380Y010980D02*
X005880Y008480D01*
X004980Y008480D01*
X004180Y007680D01*
X004180Y006480D01*
X003880Y006180D01*
X003680Y006180D01*
X003336Y002017D02*
X003089Y002017D01*
X002907Y002017D02*
X002906Y002017D01*
X002541Y002080D02*
X002541Y002080D01*
X002541Y002080D01*
X002477Y002017D02*
X002170Y002017D01*
X002294Y001858D02*
X002353Y001858D01*
X002353Y001893D02*
X002353Y001893D01*
X002415Y001954D02*
X002415Y001954D01*
X001310Y002017D02*
X001248Y002017D01*
X003702Y000680D02*
X003702Y000680D01*
X003702Y000680D01*
X004689Y001480D02*
X004689Y001480D01*
X004689Y001480D01*
X005426Y001480D02*
X005426Y001480D01*
X005426Y001480D01*
X005604Y001480D02*
X005604Y001480D01*
X005728Y000680D02*
X005728Y000680D01*
X005728Y000680D01*
X004991Y000680D02*
X004991Y000680D01*
X004991Y000680D01*
X001610Y013429D02*
X001450Y013429D01*
X001450Y013587D02*
X001610Y013587D01*
X001610Y013746D02*
X001450Y013746D01*
X001450Y013904D02*
X001610Y013904D01*
X001610Y014063D02*
X001450Y014063D01*
X001450Y014221D02*
X000480Y014221D01*
X000480Y014063D02*
X000520Y014063D01*
X000480Y013904D02*
X000566Y013904D01*
X000641Y013746D02*
X000480Y013746D01*
X000480Y013587D02*
X000755Y013587D01*
X000930Y013429D02*
X000480Y013429D01*
X000480Y014380D02*
X000506Y014380D01*
X000480Y014538D02*
X000535Y014538D01*
X000480Y014697D02*
X000593Y014697D01*
X000682Y014855D02*
X000480Y014855D01*
X000480Y015014D02*
X000819Y015014D01*
X001034Y015172D02*
X000480Y015172D01*
D17*
X006280Y011780D03*
X007280Y012480D03*
X008380Y010980D03*
X009380Y010080D03*
X009980Y010280D03*
X010980Y009280D03*
X010580Y008780D03*
X008780Y007580D03*
X007480Y008080D03*
X010580Y006080D03*
X012880Y006780D03*
X017580Y010480D03*
X016280Y014080D03*
X016280Y014980D03*
X013580Y015280D03*
X011180Y012780D03*
X009980Y013780D03*
X010080Y014680D03*
X013580Y012180D03*
X017980Y005580D03*
D18*
X008780Y007580D02*
X005780Y004580D01*
X004180Y004580D01*
X003680Y005080D01*
X003680Y005180D01*
D19*
X009980Y013780D02*
X010880Y014680D01*
X016180Y014680D01*
X016280Y014780D01*
X016280Y014980D01*
X013580Y015280D02*
X010680Y015280D01*
X010080Y014680D01*
D20*
X017380Y010180D02*
X017380Y006080D01*
X016080Y004780D01*
X010480Y004780D01*
X009280Y003580D01*
X009280Y001964D01*
X009096Y001780D01*
X011064Y001780D02*
X011280Y001996D01*
X011280Y002980D01*
X012080Y003780D01*
X016180Y003780D01*
X017980Y005580D01*
X017380Y010180D02*
X017580Y010380D01*
X017580Y010480D01*
M02*
