G75*
G70*
%OFA0B0*%
%FSLAX24Y24*%
%IPPOS*%
%LPD*%
%AMOC8*
5,1,8,0,0,1.08239X$1,22.5*
%
%ADD10C,0.0000*%
%ADD11C,0.0030*%
%ADD12R,0.0276X0.0354*%
%ADD13R,0.0551X0.0630*%
%ADD14R,0.0354X0.0276*%
%ADD15R,0.0315X0.0315*%
%ADD16R,0.0591X0.0197*%
%ADD17R,0.0197X0.0591*%
%ADD18R,0.0748X0.0433*%
%ADD19R,0.0709X0.0394*%
%ADD20R,0.0472X0.0217*%
%ADD21R,0.0138X0.0551*%
%ADD22R,0.0709X0.0748*%
%ADD23R,0.0669X0.0335*%
%ADD24C,0.0640*%
%ADD25R,0.0480X0.0880*%
%ADD26R,0.1417X0.0866*%
%ADD27C,0.0705*%
%ADD28C,0.1700*%
%ADD29R,0.0591X0.0787*%
%ADD30R,0.1496X0.0787*%
%ADD31C,0.0160*%
%ADD32C,0.0120*%
%ADD33C,0.0356*%
%ADD34C,0.0100*%
%ADD35C,0.0240*%
%ADD36C,0.0320*%
D10*
X000963Y000480D02*
X018988Y000480D01*
X018988Y000481D02*
X019039Y000486D01*
X019089Y000495D01*
X019138Y000508D01*
X019187Y000524D01*
X019234Y000543D01*
X019279Y000566D01*
X019323Y000592D01*
X019365Y000621D01*
X019405Y000653D01*
X019442Y000687D01*
X019477Y000725D01*
X019509Y000764D01*
X019538Y000806D01*
X019564Y000850D01*
X019587Y000896D01*
X019607Y000943D01*
X019623Y000991D01*
X019635Y001040D01*
X019645Y001090D01*
X019650Y001141D01*
X019652Y001192D01*
X019650Y001243D01*
X019650Y016717D01*
X019656Y016764D01*
X019659Y016810D01*
X019658Y016857D01*
X019652Y016904D01*
X019643Y016950D01*
X019630Y016995D01*
X019614Y017039D01*
X019594Y017082D01*
X019570Y017122D01*
X019543Y017161D01*
X019513Y017197D01*
X019480Y017230D01*
X019445Y017261D01*
X019407Y017289D01*
X019367Y017313D01*
X019325Y017335D01*
X019282Y017352D01*
X019237Y017366D01*
X019191Y017376D01*
X000760Y017376D01*
X000718Y017374D01*
X000677Y017369D01*
X000636Y017360D01*
X000596Y017347D01*
X000557Y017331D01*
X000520Y017312D01*
X000485Y017289D01*
X000451Y017264D01*
X000421Y017235D01*
X000392Y017205D01*
X000367Y017171D01*
X000344Y017136D01*
X000325Y017099D01*
X000309Y017060D01*
X000296Y017020D01*
X000287Y016979D01*
X000282Y016938D01*
X000280Y016896D01*
X000280Y001263D01*
X000278Y001211D01*
X000280Y001158D01*
X000286Y001106D01*
X000295Y001054D01*
X000308Y001004D01*
X000325Y000954D01*
X000345Y000905D01*
X000369Y000859D01*
X000396Y000814D01*
X000426Y000771D01*
X000459Y000730D01*
X000495Y000692D01*
X000534Y000656D01*
X000574Y000623D01*
X000618Y000593D01*
X000663Y000567D01*
X000710Y000543D01*
X000758Y000524D01*
X000808Y000507D01*
X000859Y000494D01*
X000911Y000485D01*
X000963Y000480D01*
D11*
X001218Y000895D02*
X001342Y001018D01*
X001342Y001265D01*
X001463Y001265D02*
X001587Y001265D01*
X001525Y001265D02*
X001525Y000895D01*
X001463Y000895D02*
X001587Y000895D01*
X001709Y000957D02*
X001771Y000895D01*
X001894Y000895D01*
X001956Y000957D01*
X001956Y001018D01*
X001894Y001080D01*
X001771Y001080D01*
X001709Y001142D01*
X001709Y001204D01*
X001771Y001265D01*
X001894Y001265D01*
X001956Y001204D01*
X002077Y001265D02*
X002077Y000957D01*
X002139Y000895D01*
X002262Y000895D01*
X002324Y000957D01*
X002324Y001265D01*
X002445Y001142D02*
X002569Y001265D01*
X002692Y001142D01*
X002692Y000895D01*
X002814Y000895D02*
X003061Y000895D01*
X003182Y000895D02*
X003306Y000895D01*
X003244Y000895D02*
X003244Y001265D01*
X003182Y001265D02*
X003306Y001265D01*
X003428Y001204D02*
X003428Y000957D01*
X003489Y000895D01*
X003613Y000895D01*
X003675Y000957D01*
X003675Y001080D01*
X003551Y001080D01*
X003428Y001204D02*
X003489Y001265D01*
X003613Y001265D01*
X003675Y001204D01*
X003796Y001265D02*
X003796Y000895D01*
X003796Y001080D02*
X004043Y001080D01*
X004043Y001265D02*
X004043Y000895D01*
X004288Y000895D02*
X004288Y001265D01*
X004411Y001265D02*
X004164Y001265D01*
X003920Y001495D02*
X003735Y001495D01*
X003612Y001495D02*
X003489Y001495D01*
X003551Y001495D02*
X003551Y001742D01*
X003489Y001742D01*
X003367Y001742D02*
X003306Y001742D01*
X003182Y001618D01*
X003182Y001495D02*
X003182Y001742D01*
X003060Y001742D02*
X002937Y001742D01*
X002998Y001804D02*
X002998Y001557D01*
X003060Y001495D01*
X002815Y001557D02*
X002753Y001495D01*
X002630Y001495D01*
X002568Y001557D01*
X002630Y001680D02*
X002568Y001742D01*
X002568Y001804D01*
X002630Y001865D01*
X002753Y001865D01*
X002815Y001804D01*
X002753Y001680D02*
X002815Y001618D01*
X002815Y001557D01*
X002753Y001680D02*
X002630Y001680D01*
X002814Y001265D02*
X002814Y000895D01*
X002692Y001080D02*
X002445Y001080D01*
X002445Y001142D02*
X002445Y000895D01*
X002017Y001495D02*
X001832Y001495D01*
X001832Y001865D01*
X002017Y001865D01*
X002079Y001804D01*
X002079Y001557D01*
X002017Y001495D01*
X001710Y001495D02*
X001463Y001495D01*
X001463Y001865D01*
X001710Y001865D01*
X001587Y001680D02*
X001463Y001680D01*
X001342Y001495D02*
X001095Y001495D01*
X001095Y001865D01*
X001095Y001265D02*
X001095Y001018D01*
X001218Y000895D01*
X003551Y001865D02*
X003551Y001927D01*
X003735Y001742D02*
X003920Y001742D01*
X003981Y001680D01*
X003981Y001557D01*
X003920Y001495D01*
X003735Y001372D02*
X003735Y001742D01*
X004533Y000957D02*
X004594Y000957D01*
X004594Y000895D01*
X004533Y000895D01*
X004533Y000957D01*
X004717Y000957D02*
X004717Y001204D01*
X004778Y001265D01*
X004902Y001265D01*
X004964Y001204D01*
X004964Y000957D01*
X004902Y000895D01*
X004778Y000895D01*
X004717Y000957D01*
X005085Y001018D02*
X005270Y001018D01*
X005332Y001080D01*
X005332Y001204D01*
X005270Y001265D01*
X005085Y001265D01*
X005085Y000895D01*
X005209Y001018D02*
X005332Y000895D01*
X005453Y000957D02*
X005515Y000895D01*
X005639Y000895D01*
X005700Y000957D01*
X005700Y001080D01*
X005577Y001080D01*
X005700Y001204D02*
X005639Y001265D01*
X005515Y001265D01*
X005453Y001204D01*
X005453Y000957D01*
D12*
X010724Y005280D03*
X011236Y005280D03*
X010036Y006480D03*
X009524Y006480D03*
X008436Y008080D03*
X007924Y008080D03*
X006436Y007180D03*
X005924Y007180D03*
X007824Y012480D03*
X008336Y012480D03*
X008336Y012980D03*
X007824Y012980D03*
X008224Y013680D03*
X008736Y013680D03*
X008824Y014580D03*
X009336Y014580D03*
X011624Y013380D03*
X012136Y013380D03*
X014024Y014980D03*
X014536Y014980D03*
X012436Y015380D03*
X011924Y015380D03*
X013624Y006780D03*
X014136Y006780D03*
D13*
X013031Y014480D03*
X011929Y014480D03*
X009031Y015380D03*
X007929Y015380D03*
D14*
X009880Y013136D03*
X009880Y012624D03*
X012880Y013124D03*
X012880Y013636D03*
X012480Y016024D03*
X012480Y016536D03*
X005980Y006636D03*
X005980Y006124D03*
D15*
X004975Y003980D03*
X004385Y003980D03*
X008085Y016280D03*
X008675Y016280D03*
D16*
G36*
X010913Y012130D02*
X010496Y012545D01*
X010635Y012684D01*
X011052Y012269D01*
X010913Y012130D01*
G37*
G36*
X010691Y011907D02*
X010274Y012322D01*
X010413Y012461D01*
X010830Y012046D01*
X010691Y011907D01*
G37*
G36*
X010468Y011684D02*
X010051Y012099D01*
X010190Y012238D01*
X010607Y011823D01*
X010468Y011684D01*
G37*
G36*
X010246Y011461D02*
X009829Y011876D01*
X009968Y012015D01*
X010385Y011600D01*
X010246Y011461D01*
G37*
G36*
X010024Y011238D02*
X009607Y011653D01*
X009746Y011792D01*
X010163Y011377D01*
X010024Y011238D01*
G37*
G36*
X009802Y011015D02*
X009385Y011430D01*
X009524Y011569D01*
X009941Y011154D01*
X009802Y011015D01*
G37*
G36*
X009579Y010792D02*
X009162Y011207D01*
X009301Y011346D01*
X009718Y010931D01*
X009579Y010792D01*
G37*
G36*
X009357Y010569D02*
X008940Y010984D01*
X009079Y011123D01*
X009496Y010708D01*
X009357Y010569D01*
G37*
G36*
X009135Y010346D02*
X008718Y010761D01*
X008857Y010900D01*
X009274Y010485D01*
X009135Y010346D01*
G37*
G36*
X008912Y010122D02*
X008495Y010537D01*
X008634Y010676D01*
X009051Y010261D01*
X008912Y010122D01*
G37*
G36*
X008690Y009899D02*
X008273Y010314D01*
X008412Y010453D01*
X008829Y010038D01*
X008690Y009899D01*
G37*
G36*
X011925Y006676D02*
X011508Y007091D01*
X011647Y007230D01*
X012064Y006815D01*
X011925Y006676D01*
G37*
G36*
X012147Y006899D02*
X011730Y007314D01*
X011869Y007453D01*
X012286Y007038D01*
X012147Y006899D01*
G37*
G36*
X012370Y007122D02*
X011953Y007537D01*
X012092Y007676D01*
X012509Y007261D01*
X012370Y007122D01*
G37*
G36*
X012592Y007345D02*
X012175Y007760D01*
X012314Y007899D01*
X012731Y007484D01*
X012592Y007345D01*
G37*
G36*
X012814Y007568D02*
X012397Y007983D01*
X012536Y008122D01*
X012953Y007707D01*
X012814Y007568D01*
G37*
G36*
X013036Y007791D02*
X012619Y008206D01*
X012758Y008345D01*
X013175Y007930D01*
X013036Y007791D01*
G37*
G36*
X013259Y008014D02*
X012842Y008429D01*
X012981Y008568D01*
X013398Y008153D01*
X013259Y008014D01*
G37*
G36*
X013481Y008237D02*
X013064Y008652D01*
X013203Y008791D01*
X013620Y008376D01*
X013481Y008237D01*
G37*
G36*
X013703Y008460D02*
X013286Y008875D01*
X013425Y009014D01*
X013842Y008599D01*
X013703Y008460D01*
G37*
G36*
X013926Y008684D02*
X013509Y009099D01*
X013648Y009238D01*
X014065Y008823D01*
X013926Y008684D01*
G37*
G36*
X014148Y008907D02*
X013731Y009322D01*
X013870Y009461D01*
X014287Y009046D01*
X014148Y008907D01*
G37*
D17*
G36*
X013869Y009908D02*
X013730Y010047D01*
X014145Y010464D01*
X014284Y010325D01*
X013869Y009908D01*
G37*
G36*
X013646Y010130D02*
X013507Y010269D01*
X013922Y010686D01*
X014061Y010547D01*
X013646Y010130D01*
G37*
G36*
X013423Y010353D02*
X013284Y010492D01*
X013699Y010909D01*
X013838Y010770D01*
X013423Y010353D01*
G37*
G36*
X013200Y010575D02*
X013061Y010714D01*
X013476Y011131D01*
X013615Y010992D01*
X013200Y010575D01*
G37*
G36*
X012977Y010797D02*
X012838Y010936D01*
X013253Y011353D01*
X013392Y011214D01*
X012977Y010797D01*
G37*
G36*
X012754Y011019D02*
X012615Y011158D01*
X013030Y011575D01*
X013169Y011436D01*
X012754Y011019D01*
G37*
G36*
X012531Y011242D02*
X012392Y011381D01*
X012807Y011798D01*
X012946Y011659D01*
X012531Y011242D01*
G37*
G36*
X012308Y011464D02*
X012169Y011603D01*
X012584Y012020D01*
X012723Y011881D01*
X012308Y011464D01*
G37*
G36*
X012085Y011686D02*
X011946Y011825D01*
X012361Y012242D01*
X012500Y012103D01*
X012085Y011686D01*
G37*
G36*
X011861Y011909D02*
X011722Y012048D01*
X012137Y012465D01*
X012276Y012326D01*
X011861Y011909D01*
G37*
G36*
X011638Y012131D02*
X011499Y012270D01*
X011914Y012687D01*
X012053Y012548D01*
X011638Y012131D01*
G37*
G36*
X008415Y008896D02*
X008276Y009035D01*
X008691Y009452D01*
X008830Y009313D01*
X008415Y008896D01*
G37*
G36*
X008638Y008674D02*
X008499Y008813D01*
X008914Y009230D01*
X009053Y009091D01*
X008638Y008674D01*
G37*
G36*
X008861Y008451D02*
X008722Y008590D01*
X009137Y009007D01*
X009276Y008868D01*
X008861Y008451D01*
G37*
G36*
X009084Y008229D02*
X008945Y008368D01*
X009360Y008785D01*
X009499Y008646D01*
X009084Y008229D01*
G37*
G36*
X009307Y008007D02*
X009168Y008146D01*
X009583Y008563D01*
X009722Y008424D01*
X009307Y008007D01*
G37*
G36*
X009530Y007785D02*
X009391Y007924D01*
X009806Y008341D01*
X009945Y008202D01*
X009530Y007785D01*
G37*
G36*
X009753Y007562D02*
X009614Y007701D01*
X010029Y008118D01*
X010168Y007979D01*
X009753Y007562D01*
G37*
G36*
X009976Y007340D02*
X009837Y007479D01*
X010252Y007896D01*
X010391Y007757D01*
X009976Y007340D01*
G37*
G36*
X010199Y007118D02*
X010060Y007257D01*
X010475Y007674D01*
X010614Y007535D01*
X010199Y007118D01*
G37*
G36*
X010423Y006895D02*
X010284Y007034D01*
X010699Y007451D01*
X010838Y007312D01*
X010423Y006895D01*
G37*
G36*
X010646Y006673D02*
X010507Y006812D01*
X010922Y007229D01*
X011061Y007090D01*
X010646Y006673D01*
G37*
D18*
X012152Y006133D03*
X012152Y005227D03*
X013608Y005227D03*
X013608Y006133D03*
D19*
X010780Y013329D03*
X010780Y014431D03*
D20*
X010992Y015406D03*
X010992Y015780D03*
X010992Y016154D03*
X009968Y016154D03*
X009968Y015406D03*
D21*
X015668Y015737D03*
X015924Y015737D03*
X016180Y015737D03*
X016436Y015737D03*
X016692Y015737D03*
D22*
X017755Y016780D03*
X014605Y016780D03*
D23*
X014920Y014254D03*
X016101Y013467D03*
X014920Y012679D03*
X016101Y011892D03*
X014920Y011104D03*
X016101Y010317D03*
X014920Y009530D03*
X016101Y008742D03*
X014920Y007955D03*
X016101Y007167D03*
X007440Y007167D03*
X006259Y007955D03*
X007440Y008742D03*
X006259Y009530D03*
X007440Y010317D03*
X006259Y011104D03*
X007440Y011892D03*
X006259Y012679D03*
X007440Y013467D03*
X006259Y014254D03*
D24*
X004680Y007180D03*
X004680Y006180D03*
X004680Y005180D03*
X003680Y005180D03*
X003680Y006180D03*
X003680Y007180D03*
D25*
X017070Y006460D03*
X017980Y006460D03*
X018890Y006460D03*
X018890Y002160D03*
X017980Y002160D03*
X017070Y002160D03*
X017070Y011260D03*
X017980Y011260D03*
X018890Y011260D03*
D26*
X017980Y008900D03*
X017980Y004600D03*
X017980Y013700D03*
D27*
X013033Y002133D02*
X013033Y001428D01*
X011064Y001428D02*
X011064Y002133D01*
X009096Y002133D02*
X009096Y001428D01*
X007127Y001428D02*
X007127Y002133D01*
D28*
X003380Y013086D03*
X001530Y014267D03*
X003380Y015449D03*
D29*
X003686Y008640D03*
X002780Y008640D03*
X001874Y008640D03*
D30*
X002780Y011120D03*
D31*
X001061Y000749D02*
X000769Y000749D01*
X000686Y000790D02*
X000549Y000947D01*
X000483Y001144D01*
X000480Y001234D01*
X000480Y001256D01*
X000485Y001332D01*
X000480Y001338D01*
X000480Y016896D01*
X000485Y016951D01*
X000527Y017052D01*
X000604Y017129D01*
X000705Y017171D01*
X000760Y017176D01*
X014071Y017176D01*
X014071Y016860D01*
X014525Y016860D01*
X014525Y016700D01*
X014071Y016700D01*
X014071Y016382D01*
X014083Y016337D01*
X014107Y016295D01*
X014140Y016262D01*
X014181Y016238D01*
X014227Y016226D01*
X014525Y016226D01*
X014525Y016700D01*
X014685Y016700D01*
X014685Y016226D01*
X014983Y016226D01*
X015029Y016238D01*
X015070Y016262D01*
X015104Y016295D01*
X015127Y016337D01*
X015140Y016382D01*
X015140Y016700D01*
X014685Y016700D01*
X014685Y016860D01*
X015140Y016860D01*
X015140Y017176D01*
X017220Y017176D01*
X017220Y016860D01*
X017675Y016860D01*
X017675Y016700D01*
X017835Y016700D01*
X017835Y016860D01*
X018289Y016860D01*
X018289Y017176D01*
X019166Y017176D01*
X019225Y017160D01*
X019346Y017082D01*
X019428Y016964D01*
X019459Y016824D01*
X019458Y016807D01*
X019450Y016799D01*
X019450Y016734D01*
X019439Y016670D01*
X019450Y016654D01*
X019450Y001317D01*
X019445Y001311D01*
X019450Y001236D01*
X019450Y001171D01*
X019450Y001148D01*
X019411Y000992D01*
X019326Y000855D01*
X019203Y000752D01*
X019053Y000691D01*
X018977Y000680D01*
X000974Y000680D01*
X000873Y000697D01*
X000686Y000790D01*
X000584Y000907D02*
X000902Y000907D01*
X000880Y000929D02*
X001003Y000806D01*
X001129Y000680D01*
X001307Y000680D01*
X001341Y000713D01*
X001374Y000680D01*
X001676Y000680D01*
X001679Y000683D01*
X001682Y000680D01*
X001895Y000680D01*
X001983Y000680D01*
X001983Y000680D01*
X001983Y000680D01*
X002016Y000713D01*
X002050Y000680D01*
X002261Y000680D01*
X002351Y000680D01*
X002351Y000680D01*
X002351Y000680D01*
X002354Y000683D01*
X002356Y000680D01*
X002535Y000680D01*
X002569Y000714D01*
X002603Y000680D01*
X003395Y000680D01*
X003397Y000683D01*
X003400Y000680D01*
X003612Y000680D01*
X003702Y000680D01*
X003704Y000683D01*
X003707Y000680D01*
X003885Y000680D01*
X003919Y000714D01*
X003954Y000680D01*
X004132Y000680D01*
X004165Y000713D01*
X004199Y000680D01*
X004377Y000680D01*
X004410Y000713D01*
X004444Y000680D01*
X004683Y000680D01*
X004686Y000683D01*
X004689Y000680D01*
X004901Y000680D01*
X004991Y000680D01*
X004993Y000683D01*
X004996Y000680D01*
X005174Y000680D01*
X005209Y000714D01*
X005243Y000680D01*
X005421Y000680D01*
X005424Y000683D01*
X005426Y000680D01*
X005638Y000680D01*
X005728Y000680D01*
X005789Y000742D01*
X005789Y000742D01*
X005789Y000742D01*
X005854Y000806D01*
X005915Y000868D01*
X005915Y000958D01*
X005915Y001046D01*
X005915Y001293D01*
X005854Y001354D01*
X005728Y001480D01*
X005604Y001480D01*
X005514Y001480D01*
X005426Y001480D01*
X005393Y001447D01*
X005359Y001480D01*
X004996Y001480D01*
X004993Y001478D01*
X004991Y001480D01*
X004868Y001480D01*
X004868Y001480D01*
X004778Y001480D01*
X004689Y001480D01*
X004626Y001417D01*
X004595Y001386D01*
X004500Y001480D01*
X004196Y001480D01*
X004196Y001589D01*
X004196Y001646D01*
X004196Y001769D01*
X004071Y001895D01*
X004009Y001957D01*
X003766Y001957D01*
X003766Y002016D01*
X003640Y002142D01*
X003462Y002142D01*
X003336Y002016D01*
X003336Y001957D01*
X003149Y001957D01*
X003087Y002019D01*
X002909Y002019D01*
X002907Y002016D01*
X002842Y002080D01*
X002719Y002080D01*
X002719Y002080D01*
X002629Y002080D01*
X002541Y002080D01*
X002477Y002017D01*
X002415Y001954D01*
X002353Y001893D01*
X002353Y001893D01*
X002353Y001805D01*
X002353Y001743D01*
X002353Y001653D01*
X002353Y001653D01*
X002353Y001653D01*
X002357Y001649D01*
X002353Y001646D01*
X002353Y001480D01*
X002294Y001480D01*
X002294Y001558D01*
X002294Y001646D01*
X002294Y001893D01*
X002232Y001954D01*
X002106Y002080D01*
X001374Y002080D01*
X001279Y001985D01*
X001184Y002080D01*
X001006Y002080D01*
X000880Y001954D01*
X000880Y001406D01*
X000906Y001380D01*
X000880Y001354D01*
X000880Y000929D01*
X000880Y001066D02*
X000509Y001066D01*
X000480Y001224D02*
X000880Y001224D01*
X000903Y001383D02*
X000480Y001383D01*
X000480Y001541D02*
X000880Y001541D01*
X000880Y001700D02*
X000480Y001700D01*
X000480Y001858D02*
X000880Y001858D01*
X000942Y002017D02*
X000480Y002017D01*
X000480Y002175D02*
X006223Y002175D01*
X006078Y002320D02*
X006575Y001823D01*
X006575Y001318D01*
X006659Y001115D01*
X006814Y000959D01*
X007017Y000875D01*
X007237Y000875D01*
X007440Y000959D01*
X007596Y001115D01*
X007680Y001318D01*
X007680Y002242D01*
X007596Y002445D01*
X007440Y002601D01*
X007237Y002685D01*
X007017Y002685D01*
X006815Y002601D01*
X006431Y002985D01*
X006299Y003040D01*
X003329Y003040D01*
X002234Y004135D01*
X002234Y008046D01*
X002253Y008046D01*
X002341Y008135D01*
X002374Y008102D01*
X002415Y008078D01*
X002461Y008066D01*
X002712Y008066D01*
X002712Y008572D01*
X002848Y008572D01*
X002848Y008066D01*
X003014Y008066D01*
X002699Y007751D01*
X002609Y007661D01*
X002560Y007544D01*
X002560Y005916D01*
X002609Y005799D01*
X003160Y005247D01*
X003160Y005077D01*
X003239Y004885D01*
X003385Y004739D01*
X003400Y004733D01*
X003400Y004629D01*
X003443Y004526D01*
X004027Y003942D01*
X004027Y003740D01*
X004144Y003623D01*
X004625Y003623D01*
X004680Y003677D01*
X004735Y003623D01*
X005216Y003623D01*
X005293Y003700D01*
X005836Y003700D01*
X005939Y003743D01*
X008396Y006200D01*
X009206Y006200D01*
X009303Y006103D01*
X009745Y006103D01*
X009780Y006138D01*
X009815Y006103D01*
X010202Y006103D01*
X010202Y006005D01*
X010259Y005866D01*
X010366Y005759D01*
X010505Y005702D01*
X010590Y005702D01*
X010655Y005637D01*
X010563Y005637D01*
X010517Y005625D01*
X010476Y005601D01*
X010442Y005568D01*
X010419Y005527D01*
X010406Y005481D01*
X010406Y005280D01*
X010406Y005079D01*
X010419Y005033D01*
X010442Y004992D01*
X010476Y004959D01*
X010517Y004935D01*
X010563Y004923D01*
X010724Y004923D01*
X010724Y005280D01*
X010406Y005280D01*
X010724Y005280D01*
X010724Y005280D01*
X010724Y005280D01*
X010724Y004923D01*
X010886Y004923D01*
X010931Y004935D01*
X010964Y004954D01*
X011015Y004903D01*
X011457Y004903D01*
X011521Y004967D01*
X011578Y004967D01*
X011578Y004928D01*
X011695Y004811D01*
X012609Y004811D01*
X012726Y004928D01*
X012726Y005527D01*
X012609Y005644D01*
X011695Y005644D01*
X011578Y005527D01*
X011578Y005487D01*
X011574Y005487D01*
X011574Y005540D01*
X011457Y005657D01*
X011371Y005657D01*
X010958Y006070D01*
X010958Y006155D01*
X010901Y006294D01*
X010794Y006401D01*
X010658Y006457D01*
X010673Y006472D01*
X010728Y006472D01*
X011262Y007008D01*
X011262Y007174D01*
X011039Y007396D01*
X010815Y007618D01*
X010815Y007618D01*
X010592Y007841D01*
X010369Y008063D01*
X010214Y008218D01*
X010429Y008433D01*
X010505Y008402D01*
X010655Y008402D01*
X010794Y008459D01*
X010901Y008566D01*
X010958Y008705D01*
X010958Y008855D01*
X010939Y008902D01*
X011055Y008902D01*
X011194Y008959D01*
X011301Y009066D01*
X011358Y009205D01*
X011358Y009355D01*
X011301Y009494D01*
X011194Y009601D01*
X011055Y009658D01*
X010905Y009658D01*
X010766Y009601D01*
X010725Y009560D01*
X010385Y009560D01*
X010282Y009517D01*
X010203Y009439D01*
X009583Y008819D01*
X009557Y008844D01*
X009533Y008868D01*
X011279Y010613D01*
X012112Y009780D01*
X011533Y009200D01*
X011460Y009127D01*
X011420Y009032D01*
X011420Y007452D01*
X011460Y007357D01*
X011489Y007328D01*
X011449Y007288D01*
X011363Y007202D01*
X011339Y007161D01*
X011327Y007115D01*
X011327Y007067D01*
X011340Y007022D01*
X011363Y006981D01*
X011589Y006755D01*
X011796Y006549D01*
X011695Y006549D01*
X011578Y006432D01*
X011578Y005833D01*
X011695Y005716D01*
X012609Y005716D01*
X012726Y005833D01*
X012726Y006432D01*
X012721Y006436D01*
X012805Y006402D01*
X012955Y006402D01*
X013039Y006436D01*
X013034Y006432D01*
X013034Y005833D01*
X013151Y005716D01*
X014065Y005716D01*
X014182Y005833D01*
X014182Y006423D01*
X014297Y006423D01*
X014343Y006435D01*
X014384Y006459D01*
X014418Y006492D01*
X014441Y006533D01*
X014454Y006579D01*
X014454Y006780D01*
X014454Y006900D01*
X014564Y006900D01*
X016100Y005364D01*
X016100Y002524D01*
X016143Y002421D01*
X016563Y002001D01*
X016630Y001934D01*
X016630Y001640D01*
X013682Y001640D01*
X013585Y001737D01*
X013585Y002242D01*
X013501Y002445D01*
X013346Y002601D01*
X013143Y002685D01*
X012923Y002685D01*
X012720Y002601D01*
X012564Y002445D01*
X012480Y002242D01*
X012480Y001318D01*
X012564Y001115D01*
X012720Y000959D01*
X012923Y000875D01*
X013143Y000875D01*
X013346Y000959D01*
X013352Y000965D01*
X013461Y000920D01*
X017852Y000920D01*
X017984Y000975D01*
X018085Y001076D01*
X018285Y001276D01*
X018340Y001408D01*
X018340Y001557D01*
X018420Y001637D01*
X018420Y002683D01*
X018340Y002763D01*
X018340Y003967D01*
X018772Y003967D01*
X018889Y004084D01*
X018889Y005116D01*
X018772Y005233D01*
X018131Y005233D01*
X018194Y005259D01*
X018301Y005366D01*
X018358Y005505D01*
X018358Y005655D01*
X018340Y005699D01*
X018340Y005857D01*
X018420Y005937D01*
X018420Y006983D01*
X018340Y007063D01*
X018340Y008267D01*
X018772Y008267D01*
X018889Y008384D01*
X018889Y009416D01*
X018772Y009533D01*
X017260Y009533D01*
X017260Y010265D01*
X017366Y010159D01*
X017505Y010102D01*
X017655Y010102D01*
X017794Y010159D01*
X017901Y010266D01*
X017919Y010310D01*
X018229Y010620D01*
X018303Y010620D01*
X018420Y010737D01*
X018420Y011783D01*
X018340Y011863D01*
X018340Y013067D01*
X018772Y013067D01*
X018889Y013184D01*
X018889Y014216D01*
X018772Y014333D01*
X017188Y014333D01*
X017071Y014216D01*
X017071Y013184D01*
X017188Y013067D01*
X017620Y013067D01*
X017620Y011863D01*
X017540Y011783D01*
X017540Y010949D01*
X017510Y010919D01*
X017510Y011783D01*
X017393Y011900D01*
X016747Y011900D01*
X016636Y011788D01*
X016636Y012142D01*
X016519Y012259D01*
X015684Y012259D01*
X015567Y012142D01*
X015567Y011642D01*
X015684Y011524D01*
X016519Y011524D01*
X016630Y011636D01*
X016630Y010737D01*
X016700Y010667D01*
X016700Y009696D01*
X016464Y009460D01*
X015624Y009460D01*
X015521Y009417D01*
X015455Y009351D01*
X015455Y009780D01*
X015338Y009897D01*
X014503Y009897D01*
X014386Y009780D01*
X014386Y009279D01*
X014503Y009162D01*
X015266Y009162D01*
X014964Y008860D01*
X014358Y008860D01*
X014432Y008935D01*
X014456Y008976D01*
X014468Y009022D01*
X014468Y009069D01*
X014455Y009115D01*
X014432Y009156D01*
X014206Y009381D01*
X014009Y009184D01*
X014009Y009184D01*
X013672Y009519D01*
X013592Y009439D01*
X013564Y009439D01*
X013342Y009215D01*
X013119Y008992D01*
X012897Y008769D01*
X012897Y008769D01*
X012675Y008546D01*
X012675Y008546D01*
X012452Y008323D01*
X012230Y008100D01*
X012230Y008100D01*
X012008Y007877D01*
X012008Y007877D01*
X011940Y007809D01*
X011940Y008872D01*
X012588Y009520D01*
X013632Y009520D01*
X013702Y009549D01*
X013672Y009519D01*
X014009Y009184D01*
X014206Y009381D01*
X013980Y009606D01*
X013939Y009630D01*
X013893Y009642D01*
X013845Y009642D01*
X013800Y009629D01*
X013794Y009626D01*
X013800Y009633D01*
X013875Y009707D01*
X013952Y009707D01*
X014486Y010243D01*
X014486Y010290D01*
X014517Y010321D01*
X014560Y010424D01*
X014560Y010737D01*
X015338Y010737D01*
X015455Y010854D01*
X015455Y011355D01*
X015338Y011472D01*
X014560Y011472D01*
X014560Y012312D01*
X015338Y012312D01*
X015455Y012429D01*
X015455Y012929D01*
X015338Y013047D01*
X014538Y013047D01*
X014533Y013064D01*
X014523Y013076D01*
X014517Y013090D01*
X014496Y013111D01*
X014496Y013112D02*
X015672Y013112D01*
X015684Y013099D02*
X016519Y013099D01*
X016636Y013216D01*
X016636Y013717D01*
X016544Y013809D01*
X016601Y013866D01*
X016658Y014005D01*
X016658Y014062D01*
X016929Y014333D01*
X016972Y014436D01*
X016972Y015792D01*
X016961Y015819D01*
X016961Y016095D01*
X016844Y016212D01*
X015772Y016212D01*
X015752Y016192D01*
X015668Y016192D01*
X015576Y016192D01*
X015530Y016180D01*
X015489Y016156D01*
X015455Y016123D01*
X015432Y016082D01*
X015419Y016036D01*
X015419Y015737D01*
X015655Y015737D01*
X015655Y015737D01*
X015419Y015737D01*
X015419Y015540D01*
X014784Y015540D01*
X014689Y015500D01*
X014545Y015357D01*
X014315Y015357D01*
X014280Y015322D01*
X014245Y015357D01*
X013957Y015357D01*
X013901Y015494D01*
X013794Y015601D01*
X013655Y015658D01*
X013505Y015658D01*
X013366Y015601D01*
X013259Y015494D01*
X013202Y015355D01*
X013202Y015205D01*
X013259Y015066D01*
X013330Y014995D01*
X013088Y014995D01*
X012986Y015201D01*
X012969Y015243D01*
X012962Y015250D01*
X012957Y015259D01*
X012922Y015289D01*
X012774Y015438D01*
X012774Y015640D01*
X012737Y015677D01*
X012738Y015686D01*
X012740Y015686D01*
X012857Y015803D01*
X012857Y016245D01*
X012822Y016280D01*
X012857Y016315D01*
X012857Y016757D01*
X014525Y016757D01*
X014525Y016599D02*
X014685Y016599D01*
X014685Y016757D02*
X017675Y016757D01*
X017675Y016700D02*
X017220Y016700D01*
X017220Y016382D01*
X017233Y016337D01*
X017256Y016295D01*
X017290Y016262D01*
X017331Y016238D01*
X017377Y016226D01*
X017675Y016226D01*
X017675Y016700D01*
X017675Y016599D02*
X017835Y016599D01*
X017835Y016700D02*
X017835Y016226D01*
X018133Y016226D01*
X018179Y016238D01*
X018220Y016262D01*
X018253Y016295D01*
X018277Y016337D01*
X018289Y016382D01*
X018289Y016700D01*
X017835Y016700D01*
X017835Y016757D02*
X019450Y016757D01*
X019450Y016599D02*
X018289Y016599D01*
X018289Y016440D02*
X019450Y016440D01*
X019450Y016282D02*
X018239Y016282D01*
X017835Y016282D02*
X017675Y016282D01*
X017675Y016440D02*
X017835Y016440D01*
X017270Y016282D02*
X015090Y016282D01*
X015140Y016440D02*
X017220Y016440D01*
X017220Y016599D02*
X015140Y016599D01*
X015140Y016916D02*
X017220Y016916D01*
X017220Y017074D02*
X015140Y017074D01*
X014685Y016440D02*
X014525Y016440D01*
X014525Y016282D02*
X014685Y016282D01*
X014121Y016282D02*
X012823Y016282D01*
X012857Y016440D02*
X014071Y016440D01*
X014071Y016599D02*
X012857Y016599D01*
X012857Y016757D02*
X012740Y016874D01*
X012220Y016874D01*
X012162Y016816D01*
X008875Y016816D01*
X008773Y016773D01*
X008637Y016637D01*
X008435Y016637D01*
X008366Y016568D01*
X008353Y016582D01*
X008312Y016605D01*
X008266Y016617D01*
X008085Y016617D01*
X008085Y016280D01*
X008085Y015943D01*
X008266Y015943D01*
X008312Y015955D01*
X008353Y015978D01*
X008366Y015992D01*
X008435Y015923D01*
X008916Y015923D01*
X009033Y016040D01*
X009033Y016242D01*
X009047Y016256D01*
X009532Y016256D01*
X009532Y015963D01*
X009649Y015846D01*
X010287Y015846D01*
X010404Y015963D01*
X010404Y016256D01*
X010556Y016256D01*
X010556Y015963D01*
X010582Y015936D01*
X010576Y015912D01*
X010576Y015780D01*
X010576Y015648D01*
X010582Y015624D01*
X010556Y015597D01*
X010556Y015215D01*
X010594Y015177D01*
X010522Y015004D01*
X010500Y014950D01*
X010500Y014950D01*
X010500Y014950D01*
X010500Y014894D01*
X010500Y014828D01*
X010428Y014828D01*
X010401Y014894D01*
X010294Y015001D01*
X010155Y015058D01*
X010005Y015058D01*
X009866Y015001D01*
X009759Y014894D01*
X009702Y014755D01*
X009702Y014638D01*
X009654Y014582D01*
X009654Y014781D01*
X009641Y014827D01*
X009618Y014868D01*
X009584Y014901D01*
X009543Y014925D01*
X009497Y014937D01*
X009462Y014937D01*
X009507Y014982D01*
X009507Y015100D01*
X009647Y015100D01*
X009649Y015098D01*
X010287Y015098D01*
X010404Y015215D01*
X010404Y015597D01*
X010287Y015714D01*
X009649Y015714D01*
X009595Y015660D01*
X009507Y015660D01*
X009507Y015778D01*
X009390Y015895D01*
X008673Y015895D01*
X008556Y015778D01*
X008556Y014982D01*
X008592Y014946D01*
X008506Y014860D01*
X006529Y014860D01*
X006426Y014817D01*
X006230Y014621D01*
X005841Y014621D01*
X005724Y014504D01*
X005724Y014004D01*
X005841Y013887D01*
X006676Y013887D01*
X006793Y014004D01*
X006793Y014300D01*
X008506Y014300D01*
X008603Y014203D01*
X009045Y014203D01*
X009096Y014254D01*
X009129Y014235D01*
X009174Y014223D01*
X009336Y014223D01*
X009346Y014223D01*
X009289Y014157D01*
X009260Y014127D01*
X009256Y014118D01*
X009249Y014110D01*
X009236Y014070D01*
X009220Y014032D01*
X009220Y014021D01*
X009217Y014012D01*
X009220Y013970D01*
X009220Y012383D01*
X009219Y012335D01*
X009220Y012332D01*
X009220Y012328D01*
X009239Y012284D01*
X009256Y012238D01*
X009258Y012236D01*
X009260Y012233D01*
X009294Y012198D01*
X009543Y011936D01*
X009545Y011933D01*
X009579Y011898D01*
X009587Y011890D01*
X009548Y011850D01*
X009524Y011826D01*
X009160Y012190D01*
X009160Y013572D01*
X009161Y013575D01*
X009161Y013596D01*
X009164Y013607D01*
X009160Y013649D01*
X009160Y013680D01*
X009159Y013683D01*
X009159Y013686D01*
X009156Y013692D01*
X009153Y013718D01*
X009101Y013816D01*
X009074Y013839D01*
X009074Y013940D01*
X008957Y014057D01*
X008515Y014057D01*
X008464Y014006D01*
X008431Y014025D01*
X008386Y014037D01*
X008224Y014037D01*
X008063Y014037D01*
X008017Y014025D01*
X007976Y014001D01*
X007942Y013968D01*
X007919Y013927D01*
X007906Y013881D01*
X007906Y013785D01*
X007857Y013834D01*
X007022Y013834D01*
X006905Y013717D01*
X006905Y013351D01*
X006750Y013224D01*
X006738Y013219D01*
X006712Y013192D01*
X006683Y013168D01*
X006677Y013157D01*
X006668Y013148D01*
X006654Y013114D01*
X006636Y013081D01*
X006635Y013068D01*
X006630Y013056D01*
X006630Y013047D01*
X005841Y013047D01*
X005724Y012929D01*
X005724Y012520D01*
X005587Y012383D01*
X005567Y012334D01*
X005460Y012227D01*
X005420Y012132D01*
X005420Y007372D01*
X005460Y007277D01*
X005533Y007204D01*
X005586Y007150D01*
X005586Y006920D01*
X005626Y006880D01*
X005603Y006857D01*
X005603Y006415D01*
X005654Y006364D01*
X005635Y006331D01*
X005623Y006286D01*
X005623Y006124D01*
X005623Y005963D01*
X005635Y005917D01*
X005659Y005876D01*
X005692Y005842D01*
X005733Y005819D01*
X005779Y005806D01*
X005980Y005806D01*
X006181Y005806D01*
X006227Y005819D01*
X006268Y005842D01*
X006301Y005876D01*
X006325Y005917D01*
X006337Y005963D01*
X006337Y006124D01*
X005980Y006124D01*
X005980Y005806D01*
X005980Y006124D01*
X005980Y006124D01*
X005980Y006124D01*
X005623Y006124D01*
X005980Y006124D01*
X005980Y006124D01*
X006337Y006124D01*
X006337Y006286D01*
X006325Y006331D01*
X006306Y006364D01*
X006357Y006415D01*
X006357Y006803D01*
X006657Y006803D01*
X006774Y006920D01*
X006774Y007150D01*
X006844Y007220D01*
X006925Y007220D01*
X006925Y007171D01*
X007436Y007171D01*
X007436Y007164D01*
X006925Y007164D01*
X006925Y006976D01*
X006937Y006931D01*
X006961Y006890D01*
X006995Y006856D01*
X007036Y006832D01*
X007081Y006820D01*
X007436Y006820D01*
X007436Y007164D01*
X007444Y007164D01*
X007820Y007164D01*
X007820Y007171D01*
X007444Y007171D01*
X007444Y007164D01*
X007444Y006820D01*
X007798Y006820D01*
X007844Y006832D01*
X007857Y006840D01*
X007860Y006833D01*
X007933Y006760D01*
X008028Y006720D01*
X008128Y006720D01*
X008121Y006717D01*
X008043Y006639D01*
X005664Y004260D01*
X005293Y004260D01*
X005216Y004337D01*
X004735Y004337D01*
X004680Y004283D01*
X004625Y004337D01*
X004423Y004337D01*
X003998Y004763D01*
X004121Y004885D01*
X004180Y005028D01*
X004180Y005028D01*
X004239Y004885D01*
X004385Y004739D01*
X004577Y004660D01*
X004783Y004660D01*
X004975Y004739D01*
X005121Y004885D01*
X005200Y005077D01*
X005200Y005283D01*
X005121Y005475D01*
X004975Y005621D01*
X004832Y005680D01*
X004975Y005739D01*
X005121Y005885D01*
X005200Y006077D01*
X005200Y006283D01*
X005121Y006475D01*
X004975Y006621D01*
X004832Y006680D01*
X004975Y006739D01*
X005121Y006885D01*
X005200Y007077D01*
X005200Y007283D01*
X005121Y007475D01*
X004975Y007621D01*
X004783Y007700D01*
X004577Y007700D01*
X004385Y007621D01*
X004239Y007475D01*
X004167Y007300D01*
X004143Y007372D01*
X004108Y007442D01*
X004061Y007506D01*
X004006Y007561D01*
X003942Y007608D01*
X003872Y007643D01*
X003797Y007668D01*
X003719Y007680D01*
X003689Y007680D01*
X003689Y007189D01*
X003671Y007189D01*
X003671Y007680D01*
X003641Y007680D01*
X003563Y007668D01*
X003500Y007647D01*
X003899Y008046D01*
X004064Y008046D01*
X004181Y008163D01*
X004181Y009116D01*
X004064Y009234D01*
X003307Y009234D01*
X003219Y009145D01*
X003186Y009178D01*
X003145Y009201D01*
X003099Y009214D01*
X002848Y009214D01*
X002848Y008707D01*
X002712Y008707D01*
X002712Y009214D01*
X002461Y009214D01*
X002415Y009201D01*
X002374Y009178D01*
X002341Y009145D01*
X002253Y009234D01*
X001636Y009234D01*
X001540Y009329D01*
X001540Y011920D01*
X002645Y011920D01*
X002778Y011975D01*
X002879Y012076D01*
X002934Y012131D01*
X002975Y012108D01*
X003242Y012036D01*
X003518Y012036D01*
X003785Y012108D01*
X004025Y012246D01*
X004220Y012442D01*
X004358Y012681D01*
X004430Y012948D01*
X004430Y013225D01*
X004358Y013492D01*
X004220Y013731D01*
X004025Y013927D01*
X003785Y014065D01*
X003518Y014136D01*
X003242Y014136D01*
X002975Y014065D01*
X002735Y013927D01*
X002540Y013731D01*
X002402Y013492D01*
X002330Y013225D01*
X002330Y012948D01*
X002402Y012681D01*
X002425Y012640D01*
X002425Y012640D01*
X001308Y012640D01*
X001176Y012585D01*
X000976Y012385D01*
X000875Y012284D01*
X000820Y012152D01*
X000820Y009108D01*
X000875Y008976D01*
X001379Y008472D01*
X001379Y008163D01*
X001496Y008046D01*
X001514Y008046D01*
X001514Y003914D01*
X001569Y003782D01*
X002875Y002476D01*
X002976Y002375D01*
X003108Y002320D01*
X006078Y002320D01*
X006382Y002017D02*
X003765Y002017D01*
X004108Y001858D02*
X006540Y001858D01*
X006575Y001700D02*
X004196Y001700D01*
X004196Y001646D02*
X004196Y001646D01*
X004196Y001541D02*
X006575Y001541D01*
X006575Y001383D02*
X005825Y001383D01*
X005915Y001224D02*
X006614Y001224D01*
X006708Y001066D02*
X005915Y001066D01*
X005915Y001046D02*
X005915Y001046D01*
X005915Y000907D02*
X006940Y000907D01*
X007314Y000907D02*
X008909Y000907D01*
X008986Y000875D02*
X008783Y000959D01*
X008627Y001115D01*
X008543Y001318D01*
X008543Y002242D01*
X008627Y002445D01*
X008783Y002601D01*
X008986Y002685D01*
X009206Y002685D01*
X009409Y002601D01*
X009564Y002445D01*
X009648Y002242D01*
X009648Y001318D01*
X009564Y001115D01*
X009409Y000959D01*
X009206Y000875D01*
X008986Y000875D01*
X009283Y000907D02*
X010877Y000907D01*
X010954Y000875D02*
X010751Y000959D01*
X010596Y001115D01*
X010512Y001318D01*
X010512Y002242D01*
X010596Y002445D01*
X010751Y002601D01*
X010954Y002685D01*
X011174Y002685D01*
X011377Y002601D01*
X011533Y002445D01*
X011617Y002242D01*
X011617Y001318D01*
X011533Y001115D01*
X011377Y000959D01*
X011174Y000875D01*
X010954Y000875D01*
X011251Y000907D02*
X012846Y000907D01*
X012613Y001066D02*
X011484Y001066D01*
X011578Y001224D02*
X012519Y001224D01*
X012480Y001383D02*
X011617Y001383D01*
X011617Y001541D02*
X012480Y001541D01*
X012480Y001700D02*
X011617Y001700D01*
X011617Y001858D02*
X012480Y001858D01*
X012480Y002017D02*
X011617Y002017D01*
X011617Y002175D02*
X012480Y002175D01*
X012518Y002334D02*
X011579Y002334D01*
X011486Y002492D02*
X012611Y002492D01*
X012840Y002651D02*
X011257Y002651D01*
X010871Y002651D02*
X009289Y002651D01*
X009518Y002492D02*
X010642Y002492D01*
X010549Y002334D02*
X009611Y002334D01*
X009648Y002175D02*
X010512Y002175D01*
X010512Y002017D02*
X009648Y002017D01*
X009648Y001858D02*
X010512Y001858D01*
X010512Y001700D02*
X009648Y001700D01*
X009648Y001541D02*
X010512Y001541D01*
X010512Y001383D02*
X009648Y001383D01*
X009609Y001224D02*
X010551Y001224D01*
X010645Y001066D02*
X009515Y001066D01*
X008676Y001066D02*
X007547Y001066D01*
X007641Y001224D02*
X008582Y001224D01*
X008543Y001383D02*
X007680Y001383D01*
X007680Y001541D02*
X008543Y001541D01*
X008543Y001700D02*
X007680Y001700D01*
X007680Y001858D02*
X008543Y001858D01*
X008543Y002017D02*
X007680Y002017D01*
X007680Y002175D02*
X008543Y002175D01*
X008581Y002334D02*
X007642Y002334D01*
X007549Y002492D02*
X008674Y002492D01*
X008903Y002651D02*
X007320Y002651D01*
X006934Y002651D02*
X006766Y002651D01*
X006607Y002809D02*
X016100Y002809D01*
X016100Y002651D02*
X013226Y002651D01*
X013455Y002492D02*
X016113Y002492D01*
X016231Y002334D02*
X013548Y002334D01*
X013585Y002175D02*
X016389Y002175D01*
X016548Y002017D02*
X013585Y002017D01*
X013585Y001858D02*
X016630Y001858D01*
X016630Y001700D02*
X013622Y001700D01*
X013220Y000907D02*
X019358Y000907D01*
X019429Y001066D02*
X018075Y001066D01*
X018233Y001224D02*
X019450Y001224D01*
X019450Y001383D02*
X018329Y001383D01*
X018340Y001541D02*
X018622Y001541D01*
X018626Y001540D02*
X018850Y001540D01*
X018850Y002120D01*
X018930Y002120D01*
X018930Y002200D01*
X019310Y002200D01*
X019310Y002624D01*
X019298Y002669D01*
X019274Y002710D01*
X019240Y002744D01*
X019199Y002768D01*
X019154Y002780D01*
X018930Y002780D01*
X018930Y002200D01*
X018850Y002200D01*
X018850Y002780D01*
X018626Y002780D01*
X018580Y002768D01*
X018539Y002744D01*
X018506Y002710D01*
X018482Y002669D01*
X018470Y002624D01*
X018470Y002200D01*
X018850Y002200D01*
X018850Y002120D01*
X018470Y002120D01*
X018470Y001696D01*
X018482Y001650D01*
X018506Y001609D01*
X018539Y001576D01*
X018580Y001552D01*
X018626Y001540D01*
X018470Y001700D02*
X018420Y001700D01*
X018420Y001858D02*
X018470Y001858D01*
X018470Y002017D02*
X018420Y002017D01*
X018420Y002175D02*
X018850Y002175D01*
X018930Y002175D02*
X019450Y002175D01*
X019310Y002120D02*
X018930Y002120D01*
X018930Y001540D01*
X019154Y001540D01*
X019199Y001552D01*
X019240Y001576D01*
X019274Y001609D01*
X019298Y001650D01*
X019310Y001696D01*
X019310Y002120D01*
X019310Y002017D02*
X019450Y002017D01*
X019450Y001858D02*
X019310Y001858D01*
X019310Y001700D02*
X019450Y001700D01*
X019450Y001541D02*
X019157Y001541D01*
X018930Y001541D02*
X018850Y001541D01*
X018850Y001700D02*
X018930Y001700D01*
X018930Y001858D02*
X018850Y001858D01*
X018850Y002017D02*
X018930Y002017D01*
X018930Y002334D02*
X018850Y002334D01*
X018850Y002492D02*
X018930Y002492D01*
X018930Y002651D02*
X018850Y002651D01*
X018477Y002651D02*
X018420Y002651D01*
X018420Y002492D02*
X018470Y002492D01*
X018470Y002334D02*
X018420Y002334D01*
X018340Y002809D02*
X019450Y002809D01*
X019450Y002651D02*
X019303Y002651D01*
X019310Y002492D02*
X019450Y002492D01*
X019450Y002334D02*
X019310Y002334D01*
X019450Y002968D02*
X018340Y002968D01*
X018340Y003126D02*
X019450Y003126D01*
X019450Y003285D02*
X018340Y003285D01*
X018340Y003443D02*
X019450Y003443D01*
X019450Y003602D02*
X018340Y003602D01*
X018340Y003760D02*
X019450Y003760D01*
X019450Y003919D02*
X018340Y003919D01*
X018882Y004077D02*
X019450Y004077D01*
X019450Y004236D02*
X018889Y004236D01*
X018889Y004394D02*
X019450Y004394D01*
X019450Y004553D02*
X018889Y004553D01*
X018889Y004711D02*
X019450Y004711D01*
X019450Y004870D02*
X018889Y004870D01*
X018889Y005028D02*
X019450Y005028D01*
X019450Y005187D02*
X018818Y005187D01*
X018358Y005504D02*
X019450Y005504D01*
X019450Y005662D02*
X018355Y005662D01*
X018340Y005821D02*
X019450Y005821D01*
X019450Y005979D02*
X019305Y005979D01*
X019310Y005996D02*
X019310Y006420D01*
X018930Y006420D01*
X018930Y006500D01*
X019310Y006500D01*
X019310Y006924D01*
X019298Y006969D01*
X019274Y007010D01*
X019240Y007044D01*
X019199Y007068D01*
X019154Y007080D01*
X018930Y007080D01*
X018930Y006500D01*
X018850Y006500D01*
X018850Y007080D01*
X018626Y007080D01*
X018580Y007068D01*
X018539Y007044D01*
X018506Y007010D01*
X018482Y006969D01*
X018470Y006924D01*
X018470Y006500D01*
X018850Y006500D01*
X018850Y006420D01*
X018930Y006420D01*
X018930Y005840D01*
X019154Y005840D01*
X019199Y005852D01*
X019240Y005876D01*
X019274Y005909D01*
X019298Y005950D01*
X019310Y005996D01*
X019310Y006138D02*
X019450Y006138D01*
X019450Y006296D02*
X019310Y006296D01*
X019450Y006455D02*
X018930Y006455D01*
X018850Y006455D02*
X018420Y006455D01*
X018470Y006420D02*
X018470Y005996D01*
X018482Y005950D01*
X018506Y005909D01*
X018539Y005876D01*
X018580Y005852D01*
X018626Y005840D01*
X018850Y005840D01*
X018850Y006420D01*
X018470Y006420D01*
X018470Y006296D02*
X018420Y006296D01*
X018420Y006138D02*
X018470Y006138D01*
X018475Y005979D02*
X018420Y005979D01*
X018850Y005979D02*
X018930Y005979D01*
X018930Y006138D02*
X018850Y006138D01*
X018850Y006296D02*
X018930Y006296D01*
X018930Y006613D02*
X018850Y006613D01*
X018850Y006772D02*
X018930Y006772D01*
X018930Y006930D02*
X018850Y006930D01*
X018472Y006930D02*
X018420Y006930D01*
X018420Y006772D02*
X018470Y006772D01*
X018470Y006613D02*
X018420Y006613D01*
X018340Y007089D02*
X019450Y007089D01*
X019450Y007247D02*
X018340Y007247D01*
X018340Y007406D02*
X019450Y007406D01*
X019450Y007564D02*
X018340Y007564D01*
X018340Y007723D02*
X019450Y007723D01*
X019450Y007881D02*
X018340Y007881D01*
X018340Y008040D02*
X019450Y008040D01*
X019450Y008198D02*
X018340Y008198D01*
X018861Y008357D02*
X019450Y008357D01*
X019450Y008515D02*
X018889Y008515D01*
X018889Y008674D02*
X019450Y008674D01*
X019450Y008832D02*
X018889Y008832D01*
X018889Y008991D02*
X019450Y008991D01*
X019450Y009149D02*
X018889Y009149D01*
X018889Y009308D02*
X019450Y009308D01*
X019450Y009466D02*
X018839Y009466D01*
X019450Y009625D02*
X017260Y009625D01*
X017260Y009783D02*
X019450Y009783D01*
X019450Y009942D02*
X017260Y009942D01*
X017260Y010100D02*
X019450Y010100D01*
X019450Y010259D02*
X017893Y010259D01*
X018026Y010417D02*
X019450Y010417D01*
X019450Y010576D02*
X018185Y010576D01*
X018417Y010734D02*
X018492Y010734D01*
X018482Y010750D02*
X018506Y010709D01*
X018539Y010676D01*
X018580Y010652D01*
X018626Y010640D01*
X018850Y010640D01*
X018850Y011220D01*
X018930Y011220D01*
X018930Y011300D01*
X019310Y011300D01*
X019310Y011724D01*
X019298Y011769D01*
X019274Y011810D01*
X019240Y011844D01*
X019199Y011868D01*
X019154Y011880D01*
X018930Y011880D01*
X018930Y011300D01*
X018850Y011300D01*
X018850Y011880D01*
X018626Y011880D01*
X018580Y011868D01*
X018539Y011844D01*
X018506Y011810D01*
X018482Y011769D01*
X018470Y011724D01*
X018470Y011300D01*
X018850Y011300D01*
X018850Y011220D01*
X018470Y011220D01*
X018470Y010796D01*
X018482Y010750D01*
X018470Y010893D02*
X018420Y010893D01*
X018420Y011051D02*
X018470Y011051D01*
X018470Y011210D02*
X018420Y011210D01*
X018420Y011368D02*
X018470Y011368D01*
X018470Y011527D02*
X018420Y011527D01*
X018420Y011685D02*
X018470Y011685D01*
X018539Y011844D02*
X018359Y011844D01*
X018340Y012002D02*
X019450Y012002D01*
X019450Y011844D02*
X019241Y011844D01*
X019310Y011685D02*
X019450Y011685D01*
X019450Y011527D02*
X019310Y011527D01*
X019310Y011368D02*
X019450Y011368D01*
X019450Y011210D02*
X019310Y011210D01*
X019310Y011220D02*
X018930Y011220D01*
X018930Y010640D01*
X019154Y010640D01*
X019199Y010652D01*
X019240Y010676D01*
X019274Y010709D01*
X019298Y010750D01*
X019310Y010796D01*
X019310Y011220D01*
X019310Y011051D02*
X019450Y011051D01*
X019450Y010893D02*
X019310Y010893D01*
X019288Y010734D02*
X019450Y010734D01*
X018930Y010734D02*
X018850Y010734D01*
X018850Y010893D02*
X018930Y010893D01*
X018930Y011051D02*
X018850Y011051D01*
X018850Y011210D02*
X018930Y011210D01*
X018930Y011368D02*
X018850Y011368D01*
X018850Y011527D02*
X018930Y011527D01*
X018930Y011685D02*
X018850Y011685D01*
X018850Y011844D02*
X018930Y011844D01*
X019450Y012161D02*
X018340Y012161D01*
X018340Y012319D02*
X019450Y012319D01*
X019450Y012478D02*
X018340Y012478D01*
X018340Y012636D02*
X019450Y012636D01*
X019450Y012795D02*
X018340Y012795D01*
X018340Y012953D02*
X019450Y012953D01*
X019450Y013112D02*
X018816Y013112D01*
X018889Y013270D02*
X019450Y013270D01*
X019450Y013429D02*
X018889Y013429D01*
X018889Y013587D02*
X019450Y013587D01*
X019450Y013746D02*
X018889Y013746D01*
X018889Y013904D02*
X019450Y013904D01*
X019450Y014063D02*
X018889Y014063D01*
X018884Y014221D02*
X019450Y014221D01*
X019450Y014380D02*
X016948Y014380D01*
X016972Y014538D02*
X019450Y014538D01*
X019450Y014697D02*
X016972Y014697D01*
X016972Y014855D02*
X019450Y014855D01*
X019450Y015014D02*
X016972Y015014D01*
X016972Y015172D02*
X019450Y015172D01*
X019450Y015331D02*
X016972Y015331D01*
X016972Y015489D02*
X019450Y015489D01*
X019450Y015648D02*
X016972Y015648D01*
X016966Y015806D02*
X019450Y015806D01*
X019450Y015965D02*
X016961Y015965D01*
X016933Y016123D02*
X019450Y016123D01*
X019439Y016916D02*
X018289Y016916D01*
X018289Y017074D02*
X019351Y017074D01*
X016692Y015737D02*
X016692Y014492D01*
X016280Y014080D01*
X015929Y014221D02*
X015455Y014221D01*
X015455Y014063D02*
X015902Y014063D01*
X015902Y014005D02*
X015902Y014155D01*
X015959Y014294D01*
X016066Y014401D01*
X016205Y014458D01*
X016262Y014458D01*
X016412Y014608D01*
X016412Y014625D01*
X016355Y014602D01*
X016205Y014602D01*
X016066Y014659D01*
X015959Y014766D01*
X015902Y014905D01*
X015902Y015020D01*
X014944Y015020D01*
X014874Y014950D01*
X014874Y014720D01*
X014775Y014621D01*
X015338Y014621D01*
X015455Y014504D01*
X015455Y014004D01*
X015338Y013887D01*
X014503Y013887D01*
X014386Y014004D01*
X014386Y014504D01*
X014484Y014603D01*
X014315Y014603D01*
X014280Y014638D01*
X014245Y014603D01*
X013803Y014603D01*
X013686Y014720D01*
X013686Y014806D01*
X013590Y014902D01*
X013505Y014902D01*
X013467Y014918D01*
X013507Y014878D01*
X013507Y014336D01*
X014462Y013152D01*
X014492Y013122D01*
X014496Y013111D01*
X014366Y013270D02*
X015567Y013270D01*
X015567Y013216D02*
X015684Y013099D01*
X015567Y013216D02*
X015567Y013717D01*
X015684Y013834D01*
X015991Y013834D01*
X015959Y013866D01*
X015902Y014005D01*
X015944Y013904D02*
X015355Y013904D01*
X015595Y013746D02*
X013983Y013746D01*
X013855Y013904D02*
X014485Y013904D01*
X014386Y014063D02*
X013727Y014063D01*
X013600Y014221D02*
X014386Y014221D01*
X014386Y014380D02*
X013507Y014380D01*
X013507Y014538D02*
X014419Y014538D01*
X014850Y014697D02*
X016029Y014697D01*
X015922Y014855D02*
X014874Y014855D01*
X014937Y015014D02*
X015902Y015014D01*
X016342Y014538D02*
X015421Y014538D01*
X015455Y014380D02*
X016045Y014380D01*
X016659Y014063D02*
X017071Y014063D01*
X017076Y014221D02*
X016817Y014221D01*
X016616Y013904D02*
X017071Y013904D01*
X017071Y013746D02*
X016607Y013746D01*
X016636Y013587D02*
X017071Y013587D01*
X017071Y013429D02*
X016636Y013429D01*
X016636Y013270D02*
X017071Y013270D01*
X017144Y013112D02*
X016531Y013112D01*
X016617Y012161D02*
X017620Y012161D01*
X017620Y012319D02*
X015345Y012319D01*
X015455Y012478D02*
X017620Y012478D01*
X017620Y012636D02*
X015455Y012636D01*
X015455Y012795D02*
X017620Y012795D01*
X017620Y012953D02*
X015431Y012953D01*
X015567Y013429D02*
X014239Y013429D01*
X014111Y013587D02*
X015567Y013587D01*
X015585Y012161D02*
X014560Y012161D01*
X014560Y012002D02*
X015567Y012002D01*
X015567Y011844D02*
X014560Y011844D01*
X014560Y011685D02*
X015567Y011685D01*
X015682Y011527D02*
X014560Y011527D01*
X014000Y011527D02*
X013364Y011527D01*
X013370Y011520D02*
X013147Y011743D01*
X012924Y011965D01*
X012771Y012117D01*
X013041Y012387D01*
X013042Y012387D01*
X013081Y012427D01*
X013120Y012465D01*
X013120Y012466D01*
X013120Y012467D01*
X013141Y012518D01*
X013162Y012568D01*
X013162Y012569D01*
X013162Y012570D01*
X013162Y012625D01*
X013162Y012680D01*
X013162Y012680D01*
X013161Y012808D01*
X013257Y012903D01*
X013257Y013345D01*
X013206Y013396D01*
X013225Y013429D01*
X013237Y013474D01*
X013237Y013636D01*
X013237Y013778D01*
X014000Y012832D01*
X014000Y010892D01*
X013816Y011076D01*
X013593Y011298D01*
X013370Y011520D01*
X013370Y011520D01*
X013523Y011368D02*
X014000Y011368D01*
X014000Y011210D02*
X013682Y011210D01*
X013593Y011298D02*
X013593Y011298D01*
X013816Y011076D02*
X013816Y011076D01*
X013841Y011051D02*
X014000Y011051D01*
X014000Y010893D02*
X014000Y010893D01*
X013980Y010604D02*
X013784Y010408D01*
X013784Y010408D01*
X013449Y010072D01*
X013368Y010152D01*
X013340Y010152D01*
X013083Y010408D01*
X013083Y010408D01*
X012860Y010630D01*
X012860Y010630D01*
X012637Y010852D01*
X012637Y010852D01*
X012414Y011075D01*
X012414Y011075D01*
X012191Y011297D01*
X012191Y011297D01*
X011968Y011519D01*
X011968Y011519D01*
X011745Y011742D01*
X011744Y011770D01*
X011664Y011850D01*
X011999Y012187D01*
X011999Y012187D01*
X011664Y011850D01*
X011655Y011859D01*
X011560Y011764D01*
X011560Y011068D01*
X012588Y010040D01*
X013472Y010040D01*
X013476Y010044D01*
X013449Y010072D01*
X013784Y010408D01*
X013635Y010259D02*
X013635Y010259D01*
X013477Y010100D02*
X013477Y010100D01*
X013420Y010100D02*
X012528Y010100D01*
X012369Y010259D02*
X013233Y010259D01*
X013074Y010417D02*
X012211Y010417D01*
X012052Y010576D02*
X012915Y010576D01*
X012756Y010734D02*
X011894Y010734D01*
X011735Y010893D02*
X012597Y010893D01*
X012437Y011051D02*
X011577Y011051D01*
X011560Y011210D02*
X012278Y011210D01*
X012119Y011368D02*
X011560Y011368D01*
X011560Y011527D02*
X011960Y011527D01*
X011801Y011685D02*
X011560Y011685D01*
X011640Y011844D02*
X011671Y011844D01*
X011815Y012002D02*
X011815Y012002D01*
X011973Y012161D02*
X011973Y012161D01*
X011999Y012187D02*
X011999Y012187D01*
X012335Y012523D01*
X011999Y012187D01*
X012131Y012319D02*
X012131Y012319D01*
X012289Y012478D02*
X012289Y012478D01*
X012335Y012523D02*
X012360Y012498D01*
X012602Y012740D01*
X012601Y012805D01*
X012503Y012903D01*
X012503Y013345D01*
X012554Y013396D01*
X012535Y013429D01*
X012523Y013474D01*
X012523Y013636D01*
X012880Y013636D01*
X012880Y013954D01*
X012679Y013954D01*
X012633Y013941D01*
X012592Y013918D01*
X012559Y013884D01*
X012535Y013843D01*
X012523Y013797D01*
X012523Y013636D01*
X012880Y013636D01*
X012880Y013636D01*
X012880Y013954D01*
X013081Y013954D01*
X013100Y013949D01*
X013087Y013965D01*
X012673Y013965D01*
X012556Y014082D01*
X012556Y014809D01*
X012501Y014919D01*
X012417Y015003D01*
X012215Y015003D01*
X012164Y015054D01*
X012131Y015035D01*
X012086Y015023D01*
X011924Y015023D01*
X011924Y015380D01*
X011924Y015380D01*
X011924Y015023D01*
X011763Y015023D01*
X011717Y015035D01*
X011676Y015059D01*
X011642Y015092D01*
X011619Y015133D01*
X011606Y015179D01*
X011606Y015310D01*
X011517Y015221D01*
X011517Y015221D01*
X011439Y015143D01*
X011336Y015100D01*
X011313Y015100D01*
X011311Y015098D01*
X011167Y015098D01*
X011060Y014838D01*
X011060Y014828D01*
X011217Y014828D01*
X011334Y014711D01*
X011334Y014151D01*
X011217Y014034D01*
X010343Y014034D01*
X010226Y014151D01*
X010226Y014331D01*
X010155Y014302D01*
X010098Y014302D01*
X009975Y014158D01*
X010055Y014158D01*
X010194Y014101D01*
X010301Y013994D01*
X010358Y013855D01*
X010358Y013726D01*
X011217Y013726D01*
X011295Y013648D01*
X011403Y013757D01*
X011845Y013757D01*
X011896Y013706D01*
X011929Y013725D01*
X011974Y013737D01*
X012136Y013737D01*
X012136Y013380D01*
X012454Y013380D01*
X012454Y013581D01*
X012441Y013627D01*
X012418Y013668D01*
X012384Y013701D01*
X012343Y013725D01*
X012297Y013737D01*
X012136Y013737D01*
X012136Y013380D01*
X012136Y013380D01*
X012454Y013380D01*
X012454Y013179D01*
X012441Y013133D01*
X012418Y013092D01*
X012384Y013059D01*
X012343Y013035D01*
X012297Y013023D01*
X012136Y013023D01*
X012136Y013380D01*
X012136Y013380D01*
X012136Y013380D01*
X012136Y013023D01*
X011974Y013023D01*
X011929Y013035D01*
X011896Y013054D01*
X011845Y013003D01*
X011492Y013003D01*
X011501Y012994D01*
X011558Y012855D01*
X011558Y012705D01*
X011501Y012566D01*
X011394Y012459D01*
X011255Y012402D01*
X011202Y012402D01*
X011253Y012352D01*
X011253Y012249D01*
X011298Y012294D01*
X011298Y012352D01*
X011832Y012888D01*
X011998Y012888D01*
X012254Y012632D01*
X012254Y012604D01*
X012335Y012523D01*
X012250Y012636D02*
X012498Y012636D01*
X012601Y012795D02*
X012091Y012795D01*
X011739Y012795D02*
X011558Y012795D01*
X011581Y012636D02*
X011530Y012636D01*
X011423Y012478D02*
X011412Y012478D01*
X011298Y012319D02*
X011253Y012319D01*
X011280Y011880D02*
X011776Y012376D01*
X011776Y012409D01*
X012223Y011964D02*
X012882Y012624D01*
X012880Y013124D01*
X012535Y013429D02*
X012454Y013429D01*
X012452Y013587D02*
X012523Y013587D01*
X012523Y013746D02*
X011856Y013746D01*
X011871Y013985D02*
X011630Y013985D01*
X011584Y013997D01*
X011543Y014021D01*
X011509Y014055D01*
X011485Y014096D01*
X011473Y014141D01*
X011473Y014422D01*
X011871Y014422D01*
X011987Y014422D01*
X011987Y014538D01*
X011871Y014538D01*
X011871Y014975D01*
X011630Y014975D01*
X011584Y014963D01*
X011543Y014939D01*
X011509Y014905D01*
X011485Y014864D01*
X011473Y014819D01*
X011473Y014538D01*
X011334Y014538D01*
X011473Y014538D02*
X011871Y014538D01*
X011987Y014538D01*
X012384Y014538D01*
X012556Y014538D01*
X012556Y014380D02*
X012384Y014380D01*
X012384Y014422D02*
X011987Y014422D01*
X011987Y013985D01*
X012228Y013985D01*
X012274Y013997D01*
X012315Y014021D01*
X012348Y014055D01*
X012372Y014096D01*
X012384Y014141D01*
X012384Y014422D01*
X012384Y014538D02*
X012384Y014819D01*
X012372Y014864D01*
X012348Y014905D01*
X012315Y014939D01*
X012274Y014963D01*
X012228Y014975D01*
X011987Y014975D01*
X011987Y014538D01*
X011871Y014538D02*
X011871Y014422D01*
X011871Y013985D01*
X011871Y014063D02*
X011987Y014063D01*
X011987Y014221D02*
X011871Y014221D01*
X011871Y014380D02*
X011987Y014380D01*
X011987Y014697D02*
X011871Y014697D01*
X011871Y014855D02*
X011987Y014855D01*
X012205Y015014D02*
X011132Y015014D01*
X011067Y014855D02*
X011483Y014855D01*
X011473Y014697D02*
X011334Y014697D01*
X011334Y014380D02*
X011473Y014380D01*
X011473Y014221D02*
X011334Y014221D01*
X011245Y014063D02*
X011505Y014063D01*
X011392Y013746D02*
X010358Y013746D01*
X010338Y013904D02*
X012579Y013904D01*
X012575Y014063D02*
X012353Y014063D01*
X012384Y014221D02*
X012556Y014221D01*
X012880Y013904D02*
X012880Y013904D01*
X012880Y013746D02*
X012880Y013746D01*
X012880Y013636D02*
X013237Y013636D01*
X012880Y013636D01*
X012880Y013636D01*
X012880Y013636D01*
X013237Y013587D02*
X013392Y013587D01*
X013519Y013429D02*
X013225Y013429D01*
X013257Y013270D02*
X013647Y013270D01*
X013775Y013112D02*
X013257Y013112D01*
X013257Y012953D02*
X013903Y012953D01*
X014000Y012795D02*
X013161Y012795D01*
X013162Y012636D02*
X014000Y012636D01*
X014000Y012478D02*
X013125Y012478D01*
X012973Y012319D02*
X014000Y012319D01*
X014000Y012161D02*
X012815Y012161D01*
X012886Y012002D02*
X014000Y012002D01*
X014000Y011844D02*
X013046Y011844D01*
X013147Y011743D02*
X013147Y011743D01*
X013205Y011685D02*
X014000Y011685D01*
X014560Y010734D02*
X016633Y010734D01*
X016519Y010684D02*
X016636Y010567D01*
X016636Y010067D01*
X016519Y009950D01*
X015684Y009950D01*
X015567Y010067D01*
X015567Y010567D01*
X015684Y010684D01*
X016519Y010684D01*
X016628Y010576D02*
X016700Y010576D01*
X016700Y010417D02*
X016636Y010417D01*
X016636Y010259D02*
X016700Y010259D01*
X016700Y010100D02*
X016636Y010100D01*
X016700Y009942D02*
X014185Y009942D01*
X014343Y010100D02*
X015567Y010100D01*
X015567Y010259D02*
X014486Y010259D01*
X014557Y010417D02*
X015567Y010417D01*
X015575Y010576D02*
X014560Y010576D01*
X014280Y010480D02*
X014007Y010207D01*
X014007Y010186D01*
X013986Y010186D02*
X013980Y010180D01*
X014027Y009783D02*
X014389Y009783D01*
X014386Y009625D02*
X013948Y009625D01*
X014120Y009466D02*
X014386Y009466D01*
X014386Y009308D02*
X014279Y009308D01*
X014133Y009308D02*
X014133Y009308D01*
X014009Y009184D02*
X014009Y009184D01*
X013885Y009308D02*
X013885Y009308D01*
X013726Y009466D02*
X013726Y009466D01*
X013619Y009466D02*
X012534Y009466D01*
X012375Y009308D02*
X013433Y009308D01*
X013342Y009215D02*
X013342Y009215D01*
X013275Y009149D02*
X012217Y009149D01*
X012058Y008991D02*
X013117Y008991D01*
X013119Y008992D02*
X013119Y008992D01*
X012959Y008832D02*
X011940Y008832D01*
X011940Y008674D02*
X012802Y008674D01*
X012644Y008515D02*
X011940Y008515D01*
X011940Y008357D02*
X012486Y008357D01*
X012452Y008323D02*
X012452Y008323D01*
X012328Y008198D02*
X011940Y008198D01*
X011940Y008040D02*
X012170Y008040D01*
X012012Y007881D02*
X011940Y007881D01*
X011420Y007881D02*
X010552Y007881D01*
X010592Y007841D02*
X010592Y007841D01*
X010711Y007723D02*
X011420Y007723D01*
X011420Y007564D02*
X010870Y007564D01*
X011029Y007406D02*
X011439Y007406D01*
X011449Y007288D02*
X011786Y006953D01*
X011786Y006953D01*
X012123Y006617D01*
X012203Y006698D01*
X012231Y006698D01*
X012453Y006921D01*
X012676Y007144D01*
X012932Y007401D01*
X013120Y007590D01*
X013120Y007590D01*
X013272Y007743D01*
X013904Y007111D01*
X013896Y007106D01*
X013845Y007157D01*
X013403Y007157D01*
X013306Y007060D01*
X013135Y007060D01*
X013094Y007101D01*
X012955Y007158D01*
X012805Y007158D01*
X012666Y007101D01*
X012559Y006994D01*
X012502Y006855D01*
X012502Y006705D01*
X012559Y006566D01*
X012576Y006549D01*
X012055Y006549D01*
X012123Y006617D01*
X011786Y006953D01*
X011786Y006953D01*
X011449Y007288D01*
X011408Y007247D02*
X011188Y007247D01*
X011262Y007089D02*
X011327Y007089D01*
X011414Y006930D02*
X011184Y006930D01*
X011026Y006772D02*
X011573Y006772D01*
X011589Y006755D02*
X011786Y006953D01*
X011786Y006953D01*
X011589Y006755D01*
X011605Y006772D02*
X011605Y006772D01*
X011732Y006613D02*
X010868Y006613D01*
X010664Y006455D02*
X011600Y006455D01*
X011578Y006296D02*
X010899Y006296D01*
X010958Y006138D02*
X011578Y006138D01*
X011578Y005979D02*
X011049Y005979D01*
X011207Y005821D02*
X011590Y005821D01*
X011366Y005662D02*
X015802Y005662D01*
X015960Y005504D02*
X014182Y005504D01*
X014182Y005527D02*
X014065Y005644D01*
X013151Y005644D01*
X013034Y005527D01*
X013034Y004928D01*
X013151Y004811D01*
X014065Y004811D01*
X014182Y004928D01*
X014182Y005527D01*
X014182Y005345D02*
X016100Y005345D01*
X016100Y005187D02*
X014182Y005187D01*
X014182Y005028D02*
X016100Y005028D01*
X016100Y004870D02*
X014124Y004870D01*
X014170Y005821D02*
X015643Y005821D01*
X015485Y005979D02*
X014182Y005979D01*
X014182Y006138D02*
X015326Y006138D01*
X015168Y006296D02*
X014182Y006296D01*
X014377Y006455D02*
X015009Y006455D01*
X014851Y006613D02*
X014454Y006613D01*
X014454Y006772D02*
X014692Y006772D01*
X014454Y006780D02*
X014136Y006780D01*
X014454Y006780D01*
X014136Y006780D02*
X014136Y006780D01*
X014231Y007180D02*
X014680Y007180D01*
X016380Y005480D01*
X016380Y002580D01*
X016800Y002160D01*
X017070Y002160D01*
X016100Y002968D02*
X006449Y002968D01*
X005956Y003760D02*
X016100Y003760D01*
X016100Y003602D02*
X002768Y003602D01*
X002609Y003760D02*
X004027Y003760D01*
X004027Y003919D02*
X002451Y003919D01*
X002292Y004077D02*
X003892Y004077D01*
X003733Y004236D02*
X002234Y004236D01*
X002234Y004394D02*
X003575Y004394D01*
X003432Y004553D02*
X002234Y004553D01*
X002234Y004711D02*
X003400Y004711D01*
X003255Y004870D02*
X002234Y004870D01*
X002234Y005028D02*
X003180Y005028D01*
X003160Y005187D02*
X002234Y005187D01*
X002234Y005345D02*
X003062Y005345D01*
X002904Y005504D02*
X002234Y005504D01*
X002234Y005662D02*
X002745Y005662D01*
X002600Y005821D02*
X002234Y005821D01*
X002234Y005979D02*
X002560Y005979D01*
X002560Y006138D02*
X002234Y006138D01*
X002234Y006296D02*
X002560Y006296D01*
X002560Y006455D02*
X002234Y006455D01*
X002234Y006613D02*
X002560Y006613D01*
X002560Y006772D02*
X002234Y006772D01*
X002234Y006930D02*
X002560Y006930D01*
X002560Y007089D02*
X002234Y007089D01*
X002234Y007247D02*
X002560Y007247D01*
X002560Y007406D02*
X002234Y007406D01*
X002234Y007564D02*
X002568Y007564D01*
X002670Y007723D02*
X002234Y007723D01*
X002234Y007881D02*
X002828Y007881D01*
X002987Y008040D02*
X002234Y008040D01*
X002712Y008198D02*
X002848Y008198D01*
X002848Y008357D02*
X002712Y008357D01*
X002712Y008515D02*
X002848Y008515D01*
X002848Y008832D02*
X002712Y008832D01*
X002712Y008991D02*
X002848Y008991D01*
X002848Y009149D02*
X002712Y009149D01*
X002346Y009149D02*
X002337Y009149D01*
X001562Y009308D02*
X005420Y009308D01*
X005420Y009466D02*
X001540Y009466D01*
X001540Y009625D02*
X005420Y009625D01*
X005420Y009783D02*
X001540Y009783D01*
X001540Y009942D02*
X005420Y009942D01*
X005420Y010100D02*
X001540Y010100D01*
X001540Y010259D02*
X005420Y010259D01*
X005420Y010417D02*
X001540Y010417D01*
X001540Y010576D02*
X001933Y010576D01*
X001921Y010582D02*
X001962Y010559D01*
X002008Y010546D01*
X002700Y010546D01*
X002700Y011040D01*
X002860Y011040D01*
X002860Y010546D01*
X003552Y010546D01*
X003598Y010559D01*
X003639Y010582D01*
X003672Y010616D01*
X003696Y010657D01*
X003708Y010703D01*
X003708Y011040D01*
X002860Y011040D01*
X002860Y011200D01*
X003708Y011200D01*
X003708Y011538D01*
X003696Y011583D01*
X003672Y011624D01*
X003639Y011658D01*
X003598Y011682D01*
X003552Y011694D01*
X002860Y011694D01*
X002860Y011200D01*
X002700Y011200D01*
X002700Y011040D01*
X001852Y011040D01*
X001852Y010703D01*
X001864Y010657D01*
X001888Y010616D01*
X001921Y010582D01*
X001852Y010734D02*
X001540Y010734D01*
X001540Y010893D02*
X001852Y010893D01*
X001852Y011200D02*
X002700Y011200D01*
X002700Y011694D01*
X002008Y011694D01*
X001962Y011682D01*
X001921Y011658D01*
X001888Y011624D01*
X001864Y011583D01*
X001852Y011538D01*
X001852Y011200D01*
X001852Y011210D02*
X001540Y011210D01*
X001540Y011368D02*
X001852Y011368D01*
X001852Y011527D02*
X001540Y011527D01*
X001540Y011685D02*
X001975Y011685D01*
X001540Y011844D02*
X005420Y011844D01*
X005420Y012002D02*
X002805Y012002D01*
X002860Y011685D02*
X002700Y011685D01*
X002700Y011527D02*
X002860Y011527D01*
X002860Y011368D02*
X002700Y011368D01*
X002700Y011210D02*
X002860Y011210D01*
X002860Y011051D02*
X005420Y011051D01*
X005420Y010893D02*
X003708Y010893D01*
X003708Y010734D02*
X005420Y010734D01*
X005420Y010576D02*
X003627Y010576D01*
X003708Y011210D02*
X005420Y011210D01*
X005420Y011368D02*
X003708Y011368D01*
X003708Y011527D02*
X005420Y011527D01*
X005420Y011685D02*
X003585Y011685D01*
X003877Y012161D02*
X005432Y012161D01*
X005551Y012319D02*
X004098Y012319D01*
X004241Y012478D02*
X005682Y012478D01*
X005724Y012636D02*
X004332Y012636D01*
X004389Y012795D02*
X005724Y012795D01*
X005748Y012953D02*
X004430Y012953D01*
X004430Y013112D02*
X006653Y013112D01*
X006807Y013270D02*
X004418Y013270D01*
X004375Y013429D02*
X006905Y013429D01*
X006905Y013587D02*
X004303Y013587D01*
X004206Y013746D02*
X006934Y013746D01*
X006694Y013904D02*
X007913Y013904D01*
X008224Y013904D02*
X008224Y013904D01*
X008224Y014037D02*
X008224Y013680D01*
X008224Y013680D01*
X008280Y013624D01*
X008280Y013380D01*
X008336Y013324D01*
X008336Y012980D01*
X007824Y012980D02*
X007824Y012480D01*
X007280Y012480D01*
X007980Y011880D02*
X008336Y012236D01*
X008336Y012480D01*
X008880Y012074D02*
X008880Y013624D01*
X008736Y013680D01*
X008880Y013636D01*
X009139Y013746D02*
X009220Y013746D01*
X009220Y013904D02*
X009074Y013904D01*
X009233Y014063D02*
X006793Y014063D01*
X006793Y014221D02*
X008585Y014221D01*
X008224Y014037D02*
X008224Y013680D01*
X008224Y013746D02*
X008224Y013746D01*
X009063Y014221D02*
X009344Y014221D01*
X009336Y014223D02*
X009336Y014580D01*
X009336Y014580D01*
X009336Y014223D01*
X009336Y014380D02*
X009336Y014380D01*
X009336Y014538D02*
X009336Y014538D01*
X009654Y014697D02*
X009702Y014697D01*
X009743Y014855D02*
X009625Y014855D01*
X009507Y015014D02*
X009897Y015014D01*
X010263Y015014D02*
X010526Y015014D01*
X010500Y014855D02*
X010417Y014855D01*
X010362Y015172D02*
X010592Y015172D01*
X010556Y015331D02*
X010404Y015331D01*
X010404Y015489D02*
X010556Y015489D01*
X010576Y015648D02*
X010354Y015648D01*
X010576Y015780D02*
X010992Y015780D01*
X010992Y015780D01*
X010576Y015780D01*
X010576Y015806D02*
X009479Y015806D01*
X009532Y015965D02*
X008958Y015965D01*
X009033Y016123D02*
X009532Y016123D01*
X008931Y016536D02*
X008675Y016280D01*
X008393Y015965D02*
X008329Y015965D01*
X008274Y015863D02*
X008228Y015875D01*
X007987Y015875D01*
X007987Y015438D01*
X008384Y015438D01*
X008384Y015719D01*
X008372Y015764D01*
X008348Y015805D01*
X008315Y015839D01*
X008274Y015863D01*
X008348Y015806D02*
X008584Y015806D01*
X008556Y015648D02*
X008384Y015648D01*
X008384Y015489D02*
X008556Y015489D01*
X008556Y015331D02*
X007987Y015331D01*
X007987Y015322D02*
X007987Y015438D01*
X007871Y015438D01*
X007871Y015875D01*
X007630Y015875D01*
X007584Y015863D01*
X007543Y015839D01*
X007509Y015805D01*
X007485Y015764D01*
X007473Y015719D01*
X007473Y015438D01*
X007871Y015438D01*
X007871Y015322D01*
X007987Y015322D01*
X008384Y015322D01*
X008384Y015041D01*
X008372Y014996D01*
X008348Y014955D01*
X008315Y014921D01*
X008274Y014897D01*
X008228Y014885D01*
X007987Y014885D01*
X007987Y015322D01*
X007871Y015322D02*
X007871Y014885D01*
X007630Y014885D01*
X007584Y014897D01*
X007543Y014921D01*
X007509Y014955D01*
X007485Y014996D01*
X007473Y015041D01*
X007473Y015322D01*
X007871Y015322D01*
X007871Y015331D02*
X004403Y015331D01*
X004408Y015369D02*
X003460Y015369D01*
X003460Y015529D01*
X003300Y015529D01*
X003300Y016476D01*
X003207Y016466D01*
X003094Y016440D01*
X002985Y016402D01*
X002881Y016351D01*
X002783Y016290D01*
X002693Y016218D01*
X002611Y016136D01*
X002539Y016045D01*
X002477Y015948D01*
X002427Y015843D01*
X002389Y015734D01*
X002363Y015621D01*
X002352Y015529D01*
X003300Y015529D01*
X003300Y015369D01*
X002352Y015369D01*
X002363Y015276D01*
X002389Y015163D01*
X002427Y015054D01*
X002477Y014949D01*
X002539Y014852D01*
X002611Y014761D01*
X002693Y014679D01*
X002783Y014607D01*
X002881Y014546D01*
X002985Y014495D01*
X003094Y014457D01*
X003207Y014431D01*
X003300Y014421D01*
X003300Y015368D01*
X003460Y015368D01*
X003460Y014421D01*
X003553Y014431D01*
X003666Y014457D01*
X003775Y014495D01*
X003879Y014546D01*
X003977Y014607D01*
X004067Y014679D01*
X004149Y014761D01*
X004221Y014852D01*
X004283Y014949D01*
X004333Y015054D01*
X004371Y015163D01*
X004397Y015276D01*
X004408Y015369D01*
X004408Y015529D02*
X004397Y015621D01*
X004371Y015734D01*
X004333Y015843D01*
X004283Y015948D01*
X004221Y016045D01*
X004149Y016136D01*
X004067Y016218D01*
X003977Y016290D01*
X003879Y016351D01*
X003775Y016402D01*
X003666Y016440D01*
X003553Y016466D01*
X003460Y016476D01*
X003460Y015529D01*
X004408Y015529D01*
X004391Y015648D02*
X007473Y015648D01*
X007473Y015489D02*
X003460Y015489D01*
X003460Y015331D02*
X003300Y015331D01*
X003300Y015489D02*
X000480Y015489D01*
X000480Y015331D02*
X002357Y015331D01*
X002387Y015172D02*
X002025Y015172D01*
X002029Y015170D02*
X001924Y015220D01*
X001815Y015259D01*
X001702Y015284D01*
X001610Y015295D01*
X001610Y014347D01*
X002557Y014347D01*
X002547Y014440D01*
X002521Y014553D01*
X002483Y014662D01*
X002433Y014766D01*
X002371Y014864D01*
X002299Y014955D01*
X002217Y015037D01*
X002127Y015109D01*
X002029Y015170D01*
X002240Y015014D02*
X002446Y015014D01*
X002377Y014855D02*
X002536Y014855D01*
X002466Y014697D02*
X002675Y014697D01*
X002524Y014538D02*
X002897Y014538D01*
X002553Y014380D02*
X005724Y014380D01*
X005724Y014221D02*
X001610Y014221D01*
X001610Y014187D02*
X001610Y014347D01*
X001450Y014347D01*
X001450Y014187D01*
X001610Y014187D01*
X002557Y014187D01*
X002547Y014095D01*
X002521Y013982D01*
X002483Y013873D01*
X002433Y013768D01*
X002371Y013670D01*
X002299Y013580D01*
X002217Y013498D01*
X002127Y013426D01*
X002029Y013365D01*
X001924Y013314D01*
X001815Y013276D01*
X001702Y013250D01*
X001610Y013240D01*
X001610Y014187D01*
X001610Y014063D02*
X001450Y014063D01*
X001450Y014187D02*
X001450Y013240D01*
X001357Y013250D01*
X001244Y013276D01*
X001135Y013314D01*
X001031Y013365D01*
X000933Y013426D01*
X000842Y013498D01*
X000760Y013580D01*
X000688Y013670D01*
X000627Y013768D01*
X000577Y013873D01*
X000538Y013982D01*
X000513Y014095D01*
X000502Y014187D01*
X001450Y014187D01*
X001450Y014221D02*
X000480Y014221D01*
X000502Y014347D02*
X001450Y014347D01*
X001450Y015295D01*
X001357Y015284D01*
X001244Y015259D01*
X001135Y015220D01*
X001031Y015170D01*
X000933Y015109D01*
X000842Y015037D01*
X000760Y014955D01*
X000688Y014864D01*
X000627Y014766D01*
X000577Y014662D01*
X000538Y014553D01*
X000513Y014440D01*
X000502Y014347D01*
X000506Y014380D02*
X000480Y014380D01*
X000480Y014538D02*
X000535Y014538D01*
X000480Y014697D02*
X000593Y014697D01*
X000682Y014855D02*
X000480Y014855D01*
X000480Y015014D02*
X000819Y015014D01*
X001034Y015172D02*
X000480Y015172D01*
X000480Y015648D02*
X002369Y015648D01*
X002414Y015806D02*
X000480Y015806D01*
X000480Y015965D02*
X002488Y015965D01*
X002601Y016123D02*
X000480Y016123D01*
X000480Y016282D02*
X002773Y016282D01*
X003095Y016440D02*
X000480Y016440D01*
X000480Y016599D02*
X007846Y016599D01*
X007858Y016605D02*
X007817Y016582D01*
X007783Y016548D01*
X007760Y016507D01*
X007747Y016461D01*
X007747Y016280D01*
X007747Y016099D01*
X007760Y016053D01*
X007783Y016012D01*
X007817Y015978D01*
X007858Y015955D01*
X007904Y015943D01*
X008085Y015943D01*
X008085Y016280D01*
X008085Y016280D01*
X008085Y016280D01*
X008085Y016617D01*
X007904Y016617D01*
X007858Y016605D01*
X007747Y016440D02*
X003665Y016440D01*
X003460Y016440D02*
X003300Y016440D01*
X003300Y016282D02*
X003460Y016282D01*
X003460Y016123D02*
X003300Y016123D01*
X003300Y015965D02*
X003460Y015965D01*
X003460Y015806D02*
X003300Y015806D01*
X003300Y015648D02*
X003460Y015648D01*
X003460Y015172D02*
X003300Y015172D01*
X003300Y015014D02*
X003460Y015014D01*
X003460Y014855D02*
X003300Y014855D01*
X003300Y014697D02*
X003460Y014697D01*
X003460Y014538D02*
X003300Y014538D01*
X002971Y014063D02*
X002539Y014063D01*
X002494Y013904D02*
X002713Y013904D01*
X002554Y013746D02*
X002418Y013746D01*
X002457Y013587D02*
X002304Y013587D01*
X002385Y013429D02*
X002130Y013429D01*
X002342Y013270D02*
X001789Y013270D01*
X001610Y013270D02*
X001450Y013270D01*
X001450Y013429D02*
X001610Y013429D01*
X001610Y013587D02*
X001450Y013587D01*
X001450Y013746D02*
X001610Y013746D01*
X001610Y013904D02*
X001450Y013904D01*
X001450Y014380D02*
X001610Y014380D01*
X001610Y014538D02*
X001450Y014538D01*
X001450Y014697D02*
X001610Y014697D01*
X001610Y014855D02*
X001450Y014855D01*
X001450Y015014D02*
X001610Y015014D01*
X001610Y015172D02*
X001450Y015172D01*
X000520Y014063D02*
X000480Y014063D01*
X000480Y013904D02*
X000566Y013904D01*
X000641Y013746D02*
X000480Y013746D01*
X000480Y013587D02*
X000755Y013587D01*
X000930Y013429D02*
X000480Y013429D01*
X000480Y013270D02*
X001271Y013270D01*
X001299Y012636D02*
X000480Y012636D01*
X000480Y012478D02*
X001068Y012478D01*
X000910Y012319D02*
X000480Y012319D01*
X000480Y012161D02*
X000824Y012161D01*
X000820Y012002D02*
X000480Y012002D01*
X000480Y011844D02*
X000820Y011844D01*
X000820Y011685D02*
X000480Y011685D01*
X000480Y011527D02*
X000820Y011527D01*
X000820Y011368D02*
X000480Y011368D01*
X000480Y011210D02*
X000820Y011210D01*
X000820Y011051D02*
X000480Y011051D01*
X000480Y010893D02*
X000820Y010893D01*
X000820Y010734D02*
X000480Y010734D01*
X000480Y010576D02*
X000820Y010576D01*
X000820Y010417D02*
X000480Y010417D01*
X000480Y010259D02*
X000820Y010259D01*
X000820Y010100D02*
X000480Y010100D01*
X000480Y009942D02*
X000820Y009942D01*
X000820Y009783D02*
X000480Y009783D01*
X000480Y009625D02*
X000820Y009625D01*
X000820Y009466D02*
X000480Y009466D01*
X000480Y009308D02*
X000820Y009308D01*
X000820Y009149D02*
X000480Y009149D01*
X000480Y008991D02*
X000869Y008991D01*
X001019Y008832D02*
X000480Y008832D01*
X000480Y008674D02*
X001177Y008674D01*
X001336Y008515D02*
X000480Y008515D01*
X000480Y008357D02*
X001379Y008357D01*
X001379Y008198D02*
X000480Y008198D01*
X000480Y008040D02*
X001514Y008040D01*
X001514Y007881D02*
X000480Y007881D01*
X000480Y007723D02*
X001514Y007723D01*
X001514Y007564D02*
X000480Y007564D01*
X000480Y007406D02*
X001514Y007406D01*
X001514Y007247D02*
X000480Y007247D01*
X000480Y007089D02*
X001514Y007089D01*
X001514Y006930D02*
X000480Y006930D01*
X000480Y006772D02*
X001514Y006772D01*
X001514Y006613D02*
X000480Y006613D01*
X000480Y006455D02*
X001514Y006455D01*
X001514Y006296D02*
X000480Y006296D01*
X000480Y006138D02*
X001514Y006138D01*
X001514Y005979D02*
X000480Y005979D01*
X000480Y005821D02*
X001514Y005821D01*
X001514Y005662D02*
X000480Y005662D01*
X000480Y005504D02*
X001514Y005504D01*
X001514Y005345D02*
X000480Y005345D01*
X000480Y005187D02*
X001514Y005187D01*
X001514Y005028D02*
X000480Y005028D01*
X000480Y004870D02*
X001514Y004870D01*
X001514Y004711D02*
X000480Y004711D01*
X000480Y004553D02*
X001514Y004553D01*
X001514Y004394D02*
X000480Y004394D01*
X000480Y004236D02*
X001514Y004236D01*
X001514Y004077D02*
X000480Y004077D01*
X000480Y003919D02*
X001514Y003919D01*
X001591Y003760D02*
X000480Y003760D01*
X000480Y003602D02*
X001749Y003602D01*
X001908Y003443D02*
X000480Y003443D01*
X000480Y003285D02*
X002066Y003285D01*
X002225Y003126D02*
X000480Y003126D01*
X000480Y002968D02*
X002383Y002968D01*
X002542Y002809D02*
X000480Y002809D01*
X000480Y002651D02*
X002700Y002651D01*
X002859Y002492D02*
X000480Y002492D01*
X000480Y002334D02*
X003076Y002334D01*
X002875Y002476D02*
X002875Y002476D01*
X002906Y002017D02*
X002907Y002017D01*
X003089Y002017D02*
X003336Y002017D01*
X002541Y002080D02*
X002541Y002080D01*
X002541Y002080D01*
X002477Y002017D02*
X002170Y002017D01*
X002294Y001858D02*
X002353Y001858D01*
X002353Y001893D02*
X002353Y001893D01*
X002415Y001954D02*
X002415Y001954D01*
X002353Y001700D02*
X002294Y001700D01*
X002294Y001646D02*
X002294Y001646D01*
X002294Y001541D02*
X002353Y001541D01*
X001310Y002017D02*
X001248Y002017D01*
X002926Y003443D02*
X016100Y003443D01*
X016100Y003285D02*
X003085Y003285D01*
X003243Y003126D02*
X016100Y003126D01*
X016100Y003919D02*
X006114Y003919D01*
X006273Y004077D02*
X016100Y004077D01*
X016100Y004236D02*
X006431Y004236D01*
X006590Y004394D02*
X016100Y004394D01*
X016100Y004553D02*
X006749Y004553D01*
X006907Y004711D02*
X016100Y004711D01*
X016000Y006460D02*
X017070Y006460D01*
X016000Y006460D02*
X014880Y007580D01*
X014276Y007580D01*
X013342Y008514D01*
X013120Y008291D02*
X014231Y007180D01*
X013768Y007247D02*
X012778Y007247D01*
X012676Y007144D02*
X012676Y007144D01*
X012654Y007089D02*
X012620Y007089D01*
X012533Y006930D02*
X012462Y006930D01*
X012453Y006921D02*
X012453Y006921D01*
X012502Y006772D02*
X012305Y006772D01*
X012118Y006613D02*
X012540Y006613D01*
X012726Y006296D02*
X013034Y006296D01*
X013034Y006138D02*
X012726Y006138D01*
X012726Y005979D02*
X013034Y005979D01*
X013047Y005821D02*
X012713Y005821D01*
X012726Y005504D02*
X013034Y005504D01*
X013034Y005345D02*
X012726Y005345D01*
X012726Y005187D02*
X013034Y005187D01*
X013034Y005028D02*
X012726Y005028D01*
X012667Y004870D02*
X013093Y004870D01*
X013608Y006133D02*
X013608Y006764D01*
X013624Y006780D01*
X012880Y006780D01*
X013106Y007089D02*
X013335Y007089D01*
X013610Y007406D02*
X012936Y007406D01*
X013094Y007564D02*
X013451Y007564D01*
X013293Y007723D02*
X013252Y007723D01*
X014180Y008580D02*
X013799Y008961D01*
X013787Y008961D01*
X014180Y008580D02*
X015080Y008580D01*
X015680Y009180D01*
X016580Y009180D01*
X016980Y009580D01*
X016980Y011170D01*
X017070Y011260D01*
X016630Y011210D02*
X015455Y011210D01*
X015441Y011368D02*
X016630Y011368D01*
X016630Y011527D02*
X016521Y011527D01*
X016636Y011844D02*
X016691Y011844D01*
X016636Y012002D02*
X017620Y012002D01*
X017601Y011844D02*
X017449Y011844D01*
X017510Y011685D02*
X017540Y011685D01*
X017540Y011527D02*
X017510Y011527D01*
X017510Y011368D02*
X017540Y011368D01*
X017540Y011210D02*
X017510Y011210D01*
X017510Y011051D02*
X017540Y011051D01*
X017267Y010259D02*
X017260Y010259D01*
X016700Y009783D02*
X015452Y009783D01*
X015455Y009625D02*
X016629Y009625D01*
X016470Y009466D02*
X015455Y009466D01*
X015253Y009149D02*
X014435Y009149D01*
X014459Y008991D02*
X015095Y008991D01*
X014280Y010480D02*
X014280Y012931D01*
X013031Y014480D01*
X012731Y015085D01*
X012436Y015380D01*
X012480Y016024D01*
X012377Y015833D01*
X011627Y015833D01*
X011480Y015980D01*
X011480Y015580D01*
X011280Y015380D01*
X011018Y015380D01*
X010992Y015406D01*
X010780Y014894D01*
X010780Y014431D01*
X010226Y014221D02*
X010029Y014221D01*
X010232Y014063D02*
X010315Y014063D01*
X010329Y013329D02*
X010780Y013329D01*
X010780Y013180D01*
X011180Y012780D01*
X011518Y012953D02*
X012503Y012953D01*
X012503Y013112D02*
X012429Y013112D01*
X012454Y013270D02*
X012503Y013270D01*
X012136Y013270D02*
X012136Y013270D01*
X012136Y013112D02*
X012136Y013112D01*
X012136Y013429D02*
X012136Y013429D01*
X012136Y013587D02*
X012136Y013587D01*
X011624Y013380D02*
X011573Y013329D01*
X010780Y013329D01*
X010329Y013329D02*
X010280Y013280D01*
X010280Y012456D01*
X010552Y012184D01*
X010880Y011856D01*
X010880Y011680D01*
X009980Y010780D01*
X009780Y010780D01*
X009491Y011069D01*
X009440Y011069D01*
X009663Y011292D02*
X008880Y012074D01*
X009190Y012161D02*
X009330Y012161D01*
X009348Y012002D02*
X009481Y012002D01*
X009507Y011844D02*
X009541Y011844D01*
X009548Y011850D02*
X009885Y011515D01*
X009885Y011515D01*
X009548Y011850D01*
X009555Y011844D02*
X009555Y011844D01*
X009714Y011685D02*
X009714Y011685D01*
X009873Y011527D02*
X009873Y011527D01*
X010329Y011961D02*
X009967Y012324D01*
X009880Y012624D01*
X009220Y012636D02*
X009160Y012636D01*
X009160Y012478D02*
X009220Y012478D01*
X009224Y012319D02*
X009160Y012319D01*
X009160Y012795D02*
X009220Y012795D01*
X009220Y012953D02*
X009160Y012953D01*
X009160Y013112D02*
X009220Y013112D01*
X009220Y013270D02*
X009160Y013270D01*
X009160Y013429D02*
X009220Y013429D01*
X009220Y013587D02*
X009161Y013587D01*
X008824Y014580D02*
X006585Y014580D01*
X006259Y014254D01*
X006305Y014697D02*
X004085Y014697D01*
X004224Y014855D02*
X006517Y014855D01*
X005758Y014538D02*
X003863Y014538D01*
X003789Y014063D02*
X005724Y014063D01*
X005824Y013904D02*
X004047Y013904D01*
X004314Y015014D02*
X007481Y015014D01*
X007473Y015172D02*
X004373Y015172D01*
X004346Y015806D02*
X007510Y015806D01*
X007871Y015806D02*
X007987Y015806D01*
X007987Y015648D02*
X007871Y015648D01*
X007871Y015489D02*
X007987Y015489D01*
X007987Y015172D02*
X007871Y015172D01*
X007871Y015014D02*
X007987Y015014D01*
X008377Y015014D02*
X008556Y015014D01*
X008556Y015172D02*
X008384Y015172D01*
X009024Y015373D02*
X008824Y014580D01*
X009024Y015373D02*
X009031Y015380D01*
X009942Y015380D01*
X009968Y015406D01*
X010404Y015965D02*
X010556Y015965D01*
X010556Y016123D02*
X010404Y016123D01*
X010992Y016154D02*
X011306Y016154D01*
X011480Y015980D01*
X011924Y015331D02*
X011924Y015331D01*
X011924Y015172D02*
X011924Y015172D01*
X011608Y015172D02*
X011468Y015172D01*
X012375Y014855D02*
X012533Y014855D01*
X012556Y014697D02*
X012384Y014697D01*
X013079Y015014D02*
X013312Y015014D01*
X013215Y015172D02*
X013000Y015172D01*
X012881Y015331D02*
X013202Y015331D01*
X013257Y015489D02*
X012774Y015489D01*
X012766Y015648D02*
X013479Y015648D01*
X013681Y015648D02*
X015419Y015648D01*
X015419Y015806D02*
X012857Y015806D01*
X012857Y015965D02*
X015419Y015965D01*
X015455Y016123D02*
X012857Y016123D01*
X012480Y016536D02*
X008931Y016536D01*
X008756Y016757D02*
X000480Y016757D01*
X000482Y016916D02*
X014071Y016916D01*
X014071Y017074D02*
X000550Y017074D01*
X003987Y016282D02*
X007747Y016282D01*
X007747Y016280D02*
X008085Y016280D01*
X007747Y016280D01*
X007747Y016123D02*
X004159Y016123D01*
X004272Y015965D02*
X007841Y015965D01*
X008085Y015965D02*
X008085Y015965D01*
X008085Y016123D02*
X008085Y016123D01*
X008085Y016280D02*
X008085Y016280D01*
X008085Y016282D02*
X008085Y016282D01*
X008085Y016440D02*
X008085Y016440D01*
X008085Y016599D02*
X008085Y016599D01*
X008323Y016599D02*
X008396Y016599D01*
X006259Y012679D02*
X006120Y012540D01*
X006060Y012480D01*
X005980Y012380D01*
X005824Y012224D01*
X006280Y011780D02*
X006280Y011126D01*
X006259Y011104D01*
X007980Y011880D02*
X007980Y009747D01*
X008553Y009174D01*
X008999Y008729D02*
X011265Y010995D01*
X011280Y010980D01*
X011280Y010980D01*
X011265Y010995D02*
X011280Y011011D01*
X011280Y011880D01*
X011241Y010576D02*
X011317Y010576D01*
X011475Y010417D02*
X011082Y010417D01*
X010924Y010259D02*
X011634Y010259D01*
X011792Y010100D02*
X010765Y010100D01*
X010607Y009942D02*
X011951Y009942D01*
X012109Y009783D02*
X010448Y009783D01*
X010290Y009625D02*
X010824Y009625D01*
X011136Y009625D02*
X011957Y009625D01*
X011798Y009466D02*
X011312Y009466D01*
X011358Y009308D02*
X011640Y009308D01*
X011481Y009149D02*
X011335Y009149D01*
X011420Y008991D02*
X011225Y008991D01*
X011420Y008832D02*
X010958Y008832D01*
X010945Y008674D02*
X011420Y008674D01*
X011420Y008515D02*
X010850Y008515D01*
X010580Y008780D02*
X010380Y008780D01*
X009668Y008068D01*
X009668Y008063D01*
X009445Y008285D02*
X010440Y009280D01*
X010980Y009280D01*
X010230Y009466D02*
X010131Y009466D01*
X010072Y009308D02*
X009973Y009308D01*
X009913Y009149D02*
X009814Y009149D01*
X009755Y008991D02*
X009656Y008991D01*
X009596Y008832D02*
X009569Y008832D01*
X009557Y008844D02*
X009222Y008507D01*
X008886Y008171D01*
X009222Y008507D01*
X009222Y008507D01*
X009222Y008507D01*
X009557Y008844D01*
X009546Y008832D02*
X009546Y008832D01*
X009388Y008674D02*
X009388Y008674D01*
X009230Y008515D02*
X009230Y008515D01*
X009072Y008357D02*
X009072Y008357D01*
X008914Y008198D02*
X008914Y008198D01*
X008886Y008171D02*
X008861Y008196D01*
X008774Y008108D01*
X008774Y007982D01*
X008798Y007958D01*
X008855Y007958D01*
X008994Y007901D01*
X009101Y007794D01*
X009158Y007655D01*
X009158Y007505D01*
X009127Y007430D01*
X009601Y007430D01*
X009413Y007617D01*
X009413Y007617D01*
X009190Y007840D01*
X009190Y007840D01*
X008967Y008062D01*
X008967Y008090D01*
X008886Y008171D01*
X008990Y008040D02*
X008774Y008040D01*
X009014Y007881D02*
X009149Y007881D01*
X009130Y007723D02*
X009308Y007723D01*
X009158Y007564D02*
X009467Y007564D01*
X010114Y007618D02*
X010118Y007618D01*
X010393Y008040D02*
X011420Y008040D01*
X011420Y008198D02*
X010234Y008198D01*
X010369Y008063D02*
X010369Y008063D01*
X010353Y008357D02*
X011420Y008357D01*
X011039Y007396D02*
X011039Y007396D01*
X011490Y007247D02*
X011490Y007247D01*
X011650Y007089D02*
X011650Y007089D01*
X011763Y006930D02*
X011763Y006930D01*
X011809Y006930D02*
X011809Y006930D01*
X011968Y006772D02*
X011968Y006772D01*
X011578Y005504D02*
X011574Y005504D01*
X011636Y004870D02*
X007066Y004870D01*
X007224Y005028D02*
X010422Y005028D01*
X010406Y005187D02*
X007383Y005187D01*
X007541Y005345D02*
X010406Y005345D01*
X010412Y005504D02*
X007700Y005504D01*
X007858Y005662D02*
X010630Y005662D01*
X010305Y005821D02*
X008017Y005821D01*
X008175Y005979D02*
X010213Y005979D01*
X009781Y006138D02*
X009779Y006138D01*
X009524Y006480D02*
X008280Y006480D01*
X005780Y003980D01*
X004975Y003980D01*
X004385Y003980D02*
X003680Y004685D01*
X003680Y005180D01*
X004105Y004870D02*
X004255Y004870D01*
X004453Y004711D02*
X004050Y004711D01*
X004208Y004553D02*
X005957Y004553D01*
X006115Y004711D02*
X004907Y004711D01*
X005105Y004870D02*
X006274Y004870D01*
X006432Y005028D02*
X005180Y005028D01*
X005200Y005187D02*
X006591Y005187D01*
X006749Y005345D02*
X005174Y005345D01*
X005092Y005504D02*
X006908Y005504D01*
X007066Y005662D02*
X004875Y005662D01*
X005056Y005821D02*
X005730Y005821D01*
X005623Y005979D02*
X005160Y005979D01*
X005200Y006138D02*
X005623Y006138D01*
X005626Y006296D02*
X005195Y006296D01*
X005129Y006455D02*
X005603Y006455D01*
X005603Y006613D02*
X004982Y006613D01*
X005007Y006772D02*
X005603Y006772D01*
X005586Y006930D02*
X005139Y006930D01*
X005200Y007089D02*
X005586Y007089D01*
X005489Y007247D02*
X005200Y007247D01*
X005149Y007406D02*
X005420Y007406D01*
X005420Y007564D02*
X005031Y007564D01*
X005420Y007723D02*
X003575Y007723D01*
X003671Y007564D02*
X003689Y007564D01*
X003689Y007406D02*
X003671Y007406D01*
X003671Y007247D02*
X003689Y007247D01*
X004002Y007564D02*
X004329Y007564D01*
X004211Y007406D02*
X004126Y007406D01*
X003734Y007881D02*
X005420Y007881D01*
X005420Y008040D02*
X003892Y008040D01*
X004181Y008198D02*
X005420Y008198D01*
X005420Y008357D02*
X004181Y008357D01*
X004181Y008515D02*
X005420Y008515D01*
X005420Y008674D02*
X004181Y008674D01*
X004181Y008832D02*
X005420Y008832D01*
X005420Y008991D02*
X004181Y008991D01*
X004148Y009149D02*
X005420Y009149D01*
X007480Y008080D02*
X007924Y008080D01*
X007924Y008100D01*
X008436Y008080D02*
X008436Y007924D01*
X008780Y007580D01*
X008436Y008080D02*
X008436Y008167D01*
X008999Y008729D01*
X009380Y010080D02*
X009380Y010238D01*
X008996Y010623D01*
X008773Y010399D02*
X008761Y010399D01*
X008380Y010780D01*
X008380Y010980D01*
X007444Y007220D02*
X007444Y007171D01*
X007436Y007171D01*
X007436Y007220D01*
X007444Y007220D01*
X007436Y007089D02*
X007444Y007089D01*
X007436Y006930D02*
X007444Y006930D01*
X007921Y006772D02*
X006357Y006772D01*
X006357Y006613D02*
X008017Y006613D01*
X007859Y006455D02*
X006357Y006455D01*
X006334Y006296D02*
X007700Y006296D01*
X007542Y006138D02*
X006337Y006138D01*
X006337Y005979D02*
X007383Y005979D01*
X007225Y005821D02*
X006230Y005821D01*
X005980Y005821D02*
X005980Y005821D01*
X005980Y005979D02*
X005980Y005979D01*
X006774Y006930D02*
X006938Y006930D01*
X006925Y007089D02*
X006774Y007089D01*
X008334Y006138D02*
X009269Y006138D01*
X010724Y005187D02*
X010724Y005187D01*
X010724Y005028D02*
X010724Y005028D01*
X005798Y004394D02*
X004367Y004394D01*
X004689Y001480D02*
X004689Y001480D01*
X004689Y001480D01*
X005426Y001480D02*
X005426Y001480D01*
X005426Y001480D01*
X005604Y001480D02*
X005604Y001480D01*
X005915Y000868D02*
X005915Y000868D01*
X005915Y000868D01*
X005796Y000749D02*
X019194Y000749D01*
X019450Y005345D02*
X018280Y005345D01*
X019310Y006613D02*
X019450Y006613D01*
X019450Y006772D02*
X019310Y006772D01*
X019308Y006930D02*
X019450Y006930D01*
X016630Y010893D02*
X015455Y010893D01*
X015455Y011051D02*
X016630Y011051D01*
X013264Y013746D02*
X013237Y013746D01*
X013507Y014697D02*
X013710Y014697D01*
X013637Y014855D02*
X013507Y014855D01*
X013903Y015489D02*
X014677Y015489D01*
X014289Y015331D02*
X014271Y015331D01*
X015668Y016108D02*
X015668Y016192D01*
X015668Y016108D01*
X015668Y016108D01*
X015668Y016123D02*
X015668Y016123D01*
X012924Y011965D02*
X012924Y011965D01*
X003223Y009149D02*
X003214Y009149D01*
X002860Y010576D02*
X002700Y010576D01*
X002700Y010734D02*
X002860Y010734D01*
X002860Y010893D02*
X002700Y010893D01*
X002700Y011051D02*
X001540Y011051D01*
X002371Y012795D02*
X000480Y012795D01*
X000480Y012953D02*
X002330Y012953D01*
X002330Y013112D02*
X000480Y013112D01*
X003702Y000680D02*
X003702Y000680D01*
X003702Y000680D01*
X004991Y000680D02*
X004991Y000680D01*
X004991Y000680D01*
X005728Y000680D02*
X005728Y000680D01*
X005728Y000680D01*
D32*
X011236Y005280D02*
X011289Y005227D01*
X012152Y005227D01*
X011236Y005280D02*
X011236Y005424D01*
X010580Y006080D01*
X010313Y006480D02*
X010784Y006951D01*
X010561Y007173D02*
X010367Y006980D01*
X010313Y006480D02*
X010036Y006480D01*
X011680Y007504D02*
X011680Y008980D01*
X012480Y009780D01*
X011280Y010980D01*
X010107Y011738D02*
X009765Y012080D01*
X009480Y012380D01*
X009480Y013980D01*
X010080Y014680D01*
X009980Y013780D02*
X009980Y013236D01*
X009880Y013136D01*
X009180Y012180D02*
X009845Y011515D01*
X009885Y011515D01*
X009980Y010280D02*
X009980Y010080D01*
X009480Y009580D01*
X009047Y009680D01*
X008551Y010176D01*
X008776Y008952D02*
X008404Y008580D01*
X008180Y008580D01*
X007924Y008324D01*
X007924Y008100D01*
X007980Y007480D02*
X006736Y007480D01*
X006436Y007180D01*
X005924Y007180D02*
X005924Y006692D01*
X005980Y006636D01*
X005924Y007180D02*
X005680Y007424D01*
X005680Y012080D01*
X006120Y012520D01*
X006120Y012540D01*
X007980Y007480D02*
X008080Y007380D01*
X008080Y006980D01*
X011680Y007504D02*
X012008Y007176D01*
X012480Y009780D02*
X013580Y009780D01*
X013980Y010180D01*
X014007Y010186D01*
X014024Y014980D02*
X013880Y014980D01*
X013580Y015280D01*
X014536Y014980D02*
X014836Y015280D01*
X016080Y015280D01*
X016180Y015380D01*
X016180Y015737D01*
X016436Y015737D02*
X016436Y015136D01*
X016280Y014980D01*
D33*
X016280Y014980D03*
X016280Y014080D03*
X013580Y015280D03*
X011180Y012780D03*
X009980Y013780D03*
X010080Y014680D03*
X007280Y012480D03*
X006280Y011780D03*
X008380Y010980D03*
X009380Y010080D03*
X009980Y010280D03*
X010980Y009280D03*
X010580Y008780D03*
X008780Y007580D03*
X007480Y008080D03*
X010580Y006080D03*
X012880Y006780D03*
X017580Y010480D03*
X013580Y012180D03*
X017980Y005580D03*
D34*
X010367Y006980D02*
X008080Y006980D01*
X008280Y007280D02*
X008280Y007480D01*
X008080Y007680D01*
X007180Y007680D01*
X006880Y007880D01*
X006880Y013007D01*
X007440Y013467D01*
X008280Y007280D02*
X008380Y007180D01*
X010122Y007180D01*
X010337Y007396D01*
X014280Y012931D02*
X014280Y012980D01*
D35*
X003686Y008640D02*
X003686Y008286D01*
X002880Y007480D01*
X002880Y005980D01*
X003680Y005180D01*
D36*
X001874Y003986D02*
X003180Y002680D01*
X006227Y002680D01*
X007127Y001780D01*
X001874Y003986D02*
X001874Y008640D01*
X001720Y008640D01*
X001180Y009180D01*
X001180Y012080D01*
X001380Y012280D01*
X002574Y012280D01*
X003380Y013086D01*
X013033Y001780D02*
X013533Y001280D01*
X017780Y001280D01*
X017980Y001480D01*
X017980Y002160D01*
X017980Y004600D01*
X017980Y005580D02*
X017980Y006460D01*
X017980Y008900D01*
X017580Y010480D02*
X017980Y010880D01*
X017980Y011260D01*
X017980Y013700D01*
M02*
