G75*
G70*
%OFA0B0*%
%FSLAX24Y24*%
%IPPOS*%
%LPD*%
%AMOC8*
5,1,8,0,0,1.08239X$1,22.5*
%
%ADD10R,0.0276X0.0354*%
%ADD11R,0.0551X0.0630*%
%ADD12R,0.0354X0.0276*%
%ADD13R,0.0315X0.0315*%
%ADD14R,0.0591X0.0197*%
%ADD15R,0.0197X0.0591*%
%ADD16R,0.0748X0.0433*%
%ADD17R,0.0709X0.0394*%
%ADD18R,0.0472X0.0217*%
%ADD19R,0.0138X0.0551*%
%ADD20R,0.0709X0.0748*%
%ADD21R,0.0669X0.0335*%
%ADD22R,0.0480X0.0880*%
%ADD23R,0.1417X0.0866*%
%ADD24R,0.0591X0.0787*%
%ADD25R,0.1496X0.0787*%
%ADD26R,0.0300X0.0600*%
D10*
X005924Y007180D03*
X006436Y007180D03*
X007924Y008080D03*
X008436Y008080D03*
X009524Y006480D03*
X010036Y006480D03*
X010724Y005280D03*
X011236Y005280D03*
X013624Y006780D03*
X014136Y006780D03*
X008336Y012480D03*
X007824Y012480D03*
X007824Y012980D03*
X008336Y012980D03*
X008224Y013680D03*
X008736Y013680D03*
X008824Y014580D03*
X009336Y014580D03*
X011624Y013380D03*
X012136Y013380D03*
X014024Y014980D03*
X014536Y014980D03*
X012436Y015380D03*
X011924Y015380D03*
D11*
X011929Y014480D03*
X013031Y014480D03*
X009031Y015380D03*
X007929Y015380D03*
D12*
X009880Y013136D03*
X009880Y012624D03*
X012880Y013124D03*
X012880Y013636D03*
X012480Y016024D03*
X012480Y016536D03*
X005980Y006636D03*
X005980Y006124D03*
D13*
X004975Y003980D03*
X004385Y003980D03*
X008085Y016280D03*
X008675Y016280D03*
D14*
G36*
X010913Y012130D02*
X010496Y012545D01*
X010635Y012684D01*
X011052Y012269D01*
X010913Y012130D01*
G37*
G36*
X010691Y011907D02*
X010274Y012322D01*
X010413Y012461D01*
X010830Y012046D01*
X010691Y011907D01*
G37*
G36*
X010468Y011684D02*
X010051Y012099D01*
X010190Y012238D01*
X010607Y011823D01*
X010468Y011684D01*
G37*
G36*
X010246Y011461D02*
X009829Y011876D01*
X009968Y012015D01*
X010385Y011600D01*
X010246Y011461D01*
G37*
G36*
X010024Y011238D02*
X009607Y011653D01*
X009746Y011792D01*
X010163Y011377D01*
X010024Y011238D01*
G37*
G36*
X009802Y011015D02*
X009385Y011430D01*
X009524Y011569D01*
X009941Y011154D01*
X009802Y011015D01*
G37*
G36*
X009579Y010792D02*
X009162Y011207D01*
X009301Y011346D01*
X009718Y010931D01*
X009579Y010792D01*
G37*
G36*
X009357Y010569D02*
X008940Y010984D01*
X009079Y011123D01*
X009496Y010708D01*
X009357Y010569D01*
G37*
G36*
X009135Y010346D02*
X008718Y010761D01*
X008857Y010900D01*
X009274Y010485D01*
X009135Y010346D01*
G37*
G36*
X008912Y010122D02*
X008495Y010537D01*
X008634Y010676D01*
X009051Y010261D01*
X008912Y010122D01*
G37*
G36*
X008690Y009899D02*
X008273Y010314D01*
X008412Y010453D01*
X008829Y010038D01*
X008690Y009899D01*
G37*
G36*
X011925Y006676D02*
X011508Y007091D01*
X011647Y007230D01*
X012064Y006815D01*
X011925Y006676D01*
G37*
G36*
X012147Y006899D02*
X011730Y007314D01*
X011869Y007453D01*
X012286Y007038D01*
X012147Y006899D01*
G37*
G36*
X012370Y007122D02*
X011953Y007537D01*
X012092Y007676D01*
X012509Y007261D01*
X012370Y007122D01*
G37*
G36*
X012592Y007345D02*
X012175Y007760D01*
X012314Y007899D01*
X012731Y007484D01*
X012592Y007345D01*
G37*
G36*
X012814Y007568D02*
X012397Y007983D01*
X012536Y008122D01*
X012953Y007707D01*
X012814Y007568D01*
G37*
G36*
X013036Y007791D02*
X012619Y008206D01*
X012758Y008345D01*
X013175Y007930D01*
X013036Y007791D01*
G37*
G36*
X013259Y008014D02*
X012842Y008429D01*
X012981Y008568D01*
X013398Y008153D01*
X013259Y008014D01*
G37*
G36*
X013481Y008237D02*
X013064Y008652D01*
X013203Y008791D01*
X013620Y008376D01*
X013481Y008237D01*
G37*
G36*
X013703Y008460D02*
X013286Y008875D01*
X013425Y009014D01*
X013842Y008599D01*
X013703Y008460D01*
G37*
G36*
X013926Y008684D02*
X013509Y009099D01*
X013648Y009238D01*
X014065Y008823D01*
X013926Y008684D01*
G37*
G36*
X014148Y008907D02*
X013731Y009322D01*
X013870Y009461D01*
X014287Y009046D01*
X014148Y008907D01*
G37*
D15*
G36*
X013869Y009908D02*
X013730Y010047D01*
X014145Y010464D01*
X014284Y010325D01*
X013869Y009908D01*
G37*
G36*
X013646Y010130D02*
X013507Y010269D01*
X013922Y010686D01*
X014061Y010547D01*
X013646Y010130D01*
G37*
G36*
X013423Y010353D02*
X013284Y010492D01*
X013699Y010909D01*
X013838Y010770D01*
X013423Y010353D01*
G37*
G36*
X013200Y010575D02*
X013061Y010714D01*
X013476Y011131D01*
X013615Y010992D01*
X013200Y010575D01*
G37*
G36*
X012977Y010797D02*
X012838Y010936D01*
X013253Y011353D01*
X013392Y011214D01*
X012977Y010797D01*
G37*
G36*
X012754Y011019D02*
X012615Y011158D01*
X013030Y011575D01*
X013169Y011436D01*
X012754Y011019D01*
G37*
G36*
X012531Y011242D02*
X012392Y011381D01*
X012807Y011798D01*
X012946Y011659D01*
X012531Y011242D01*
G37*
G36*
X012308Y011464D02*
X012169Y011603D01*
X012584Y012020D01*
X012723Y011881D01*
X012308Y011464D01*
G37*
G36*
X012085Y011686D02*
X011946Y011825D01*
X012361Y012242D01*
X012500Y012103D01*
X012085Y011686D01*
G37*
G36*
X011861Y011909D02*
X011722Y012048D01*
X012137Y012465D01*
X012276Y012326D01*
X011861Y011909D01*
G37*
G36*
X011638Y012131D02*
X011499Y012270D01*
X011914Y012687D01*
X012053Y012548D01*
X011638Y012131D01*
G37*
G36*
X008415Y008896D02*
X008276Y009035D01*
X008691Y009452D01*
X008830Y009313D01*
X008415Y008896D01*
G37*
G36*
X008638Y008674D02*
X008499Y008813D01*
X008914Y009230D01*
X009053Y009091D01*
X008638Y008674D01*
G37*
G36*
X008861Y008451D02*
X008722Y008590D01*
X009137Y009007D01*
X009276Y008868D01*
X008861Y008451D01*
G37*
G36*
X009084Y008229D02*
X008945Y008368D01*
X009360Y008785D01*
X009499Y008646D01*
X009084Y008229D01*
G37*
G36*
X009307Y008007D02*
X009168Y008146D01*
X009583Y008563D01*
X009722Y008424D01*
X009307Y008007D01*
G37*
G36*
X009530Y007785D02*
X009391Y007924D01*
X009806Y008341D01*
X009945Y008202D01*
X009530Y007785D01*
G37*
G36*
X009753Y007562D02*
X009614Y007701D01*
X010029Y008118D01*
X010168Y007979D01*
X009753Y007562D01*
G37*
G36*
X009976Y007340D02*
X009837Y007479D01*
X010252Y007896D01*
X010391Y007757D01*
X009976Y007340D01*
G37*
G36*
X010199Y007118D02*
X010060Y007257D01*
X010475Y007674D01*
X010614Y007535D01*
X010199Y007118D01*
G37*
G36*
X010423Y006895D02*
X010284Y007034D01*
X010699Y007451D01*
X010838Y007312D01*
X010423Y006895D01*
G37*
G36*
X010646Y006673D02*
X010507Y006812D01*
X010922Y007229D01*
X011061Y007090D01*
X010646Y006673D01*
G37*
D16*
X012152Y006133D03*
X012152Y005227D03*
X013608Y005227D03*
X013608Y006133D03*
D17*
X010780Y013329D03*
X010780Y014431D03*
D18*
X010992Y015406D03*
X010992Y015780D03*
X010992Y016154D03*
X009968Y016154D03*
X009968Y015406D03*
D19*
X015668Y015737D03*
X015924Y015737D03*
X016180Y015737D03*
X016436Y015737D03*
X016692Y015737D03*
D20*
X017755Y016780D03*
X014605Y016780D03*
D21*
X014920Y014254D03*
X016101Y013467D03*
X014920Y012679D03*
X016101Y011892D03*
X014920Y011104D03*
X016101Y010317D03*
X014920Y009530D03*
X016101Y008742D03*
X014920Y007955D03*
X016101Y007167D03*
X007440Y007167D03*
X006259Y007955D03*
X007440Y008742D03*
X006259Y009530D03*
X007440Y010317D03*
X006259Y011104D03*
X007440Y011892D03*
X006259Y012679D03*
X007440Y013467D03*
X006259Y014254D03*
D22*
X017070Y011260D03*
X017980Y011260D03*
X018890Y011260D03*
X018890Y006460D03*
X017980Y006460D03*
X017070Y006460D03*
X017070Y002160D03*
X017980Y002160D03*
X018890Y002160D03*
D23*
X017980Y004600D03*
X017980Y008900D03*
X017980Y013700D03*
D24*
X003686Y008640D03*
X002780Y008640D03*
X001874Y008640D03*
D25*
X002780Y011120D03*
D26*
X001030Y002480D03*
X002530Y002480D03*
X002530Y004480D03*
X001030Y004480D03*
M02*
