G75*
G70*
%OFA0B0*%
%FSLAX24Y24*%
%IPPOS*%
%LPD*%
%AMOC8*
5,1,8,0,0,1.08239X$1,22.5*
%
%ADD10C,0.0000*%
%ADD11C,0.0030*%
%ADD12C,0.0160*%
%ADD13C,0.0010*%
%ADD14C,0.0080*%
%ADD15C,0.0050*%
%ADD16R,0.0280X0.0160*%
%ADD17R,0.0160X0.0280*%
%ADD18C,0.0100*%
%ADD19C,0.0020*%
%ADD20C,0.0040*%
%ADD21C,0.0060*%
D10*
X000963Y000480D02*
X018988Y000480D01*
X018988Y000481D02*
X019039Y000486D01*
X019089Y000495D01*
X019138Y000508D01*
X019187Y000524D01*
X019234Y000543D01*
X019279Y000566D01*
X019323Y000592D01*
X019365Y000621D01*
X019405Y000653D01*
X019442Y000687D01*
X019477Y000725D01*
X019509Y000764D01*
X019538Y000806D01*
X019564Y000850D01*
X019587Y000896D01*
X019607Y000943D01*
X019623Y000991D01*
X019635Y001040D01*
X019645Y001090D01*
X019650Y001141D01*
X019652Y001192D01*
X019650Y001243D01*
X019650Y016717D01*
X019656Y016764D01*
X019659Y016810D01*
X019658Y016857D01*
X019652Y016904D01*
X019643Y016950D01*
X019630Y016995D01*
X019614Y017039D01*
X019594Y017082D01*
X019570Y017122D01*
X019543Y017161D01*
X019513Y017197D01*
X019480Y017230D01*
X019445Y017261D01*
X019407Y017289D01*
X019367Y017313D01*
X019325Y017335D01*
X019282Y017352D01*
X019237Y017366D01*
X019191Y017376D01*
X000760Y017376D01*
X000718Y017374D01*
X000677Y017369D01*
X000636Y017360D01*
X000596Y017347D01*
X000557Y017331D01*
X000520Y017312D01*
X000485Y017289D01*
X000451Y017264D01*
X000421Y017235D01*
X000392Y017205D01*
X000367Y017171D01*
X000344Y017136D01*
X000325Y017099D01*
X000309Y017060D01*
X000296Y017020D01*
X000287Y016979D01*
X000282Y016938D01*
X000280Y016896D01*
X000280Y001263D01*
X000278Y001211D01*
X000280Y001158D01*
X000286Y001106D01*
X000295Y001054D01*
X000308Y001004D01*
X000325Y000954D01*
X000345Y000905D01*
X000369Y000859D01*
X000396Y000814D01*
X000426Y000771D01*
X000459Y000730D01*
X000495Y000692D01*
X000534Y000656D01*
X000574Y000623D01*
X000618Y000593D01*
X000663Y000567D01*
X000710Y000543D01*
X000758Y000524D01*
X000808Y000507D01*
X000859Y000494D01*
X000911Y000485D01*
X000963Y000480D01*
D11*
X001218Y000895D02*
X001342Y001018D01*
X001342Y001265D01*
X001463Y001265D02*
X001587Y001265D01*
X001525Y001265D02*
X001525Y000895D01*
X001463Y000895D02*
X001587Y000895D01*
X001709Y000957D02*
X001771Y000895D01*
X001894Y000895D01*
X001956Y000957D01*
X001956Y001018D01*
X001894Y001080D01*
X001771Y001080D01*
X001709Y001142D01*
X001709Y001204D01*
X001771Y001265D01*
X001894Y001265D01*
X001956Y001204D01*
X002077Y001265D02*
X002077Y000957D01*
X002139Y000895D01*
X002262Y000895D01*
X002324Y000957D01*
X002324Y001265D01*
X002445Y001142D02*
X002569Y001265D01*
X002692Y001142D01*
X002692Y000895D01*
X002814Y000895D02*
X003061Y000895D01*
X003182Y000895D02*
X003306Y000895D01*
X003244Y000895D02*
X003244Y001265D01*
X003182Y001265D02*
X003306Y001265D01*
X003428Y001204D02*
X003428Y000957D01*
X003489Y000895D01*
X003613Y000895D01*
X003675Y000957D01*
X003675Y001080D01*
X003551Y001080D01*
X003428Y001204D02*
X003489Y001265D01*
X003613Y001265D01*
X003675Y001204D01*
X003796Y001265D02*
X003796Y000895D01*
X003796Y001080D02*
X004043Y001080D01*
X004043Y001265D02*
X004043Y000895D01*
X004288Y000895D02*
X004288Y001265D01*
X004411Y001265D02*
X004164Y001265D01*
X003920Y001495D02*
X003735Y001495D01*
X003612Y001495D02*
X003489Y001495D01*
X003551Y001495D02*
X003551Y001742D01*
X003489Y001742D01*
X003367Y001742D02*
X003306Y001742D01*
X003182Y001618D01*
X003182Y001495D02*
X003182Y001742D01*
X003060Y001742D02*
X002937Y001742D01*
X002998Y001804D02*
X002998Y001557D01*
X003060Y001495D01*
X002815Y001557D02*
X002753Y001495D01*
X002630Y001495D01*
X002568Y001557D01*
X002630Y001680D02*
X002568Y001742D01*
X002568Y001804D01*
X002630Y001865D01*
X002753Y001865D01*
X002815Y001804D01*
X002753Y001680D02*
X002815Y001618D01*
X002815Y001557D01*
X002753Y001680D02*
X002630Y001680D01*
X002814Y001265D02*
X002814Y000895D01*
X002692Y001080D02*
X002445Y001080D01*
X002445Y001142D02*
X002445Y000895D01*
X002017Y001495D02*
X001832Y001495D01*
X001832Y001865D01*
X002017Y001865D01*
X002079Y001804D01*
X002079Y001557D01*
X002017Y001495D01*
X001710Y001495D02*
X001463Y001495D01*
X001463Y001865D01*
X001710Y001865D01*
X001587Y001680D02*
X001463Y001680D01*
X001342Y001495D02*
X001095Y001495D01*
X001095Y001865D01*
X001095Y001265D02*
X001095Y001018D01*
X001218Y000895D01*
X003551Y001865D02*
X003551Y001927D01*
X003735Y001742D02*
X003920Y001742D01*
X003981Y001680D01*
X003981Y001557D01*
X003920Y001495D01*
X003735Y001372D02*
X003735Y001742D01*
X004533Y000957D02*
X004594Y000957D01*
X004594Y000895D01*
X004533Y000895D01*
X004533Y000957D01*
X004717Y000957D02*
X004717Y001204D01*
X004778Y001265D01*
X004902Y001265D01*
X004964Y001204D01*
X004964Y000957D01*
X004902Y000895D01*
X004778Y000895D01*
X004717Y000957D01*
X005085Y001018D02*
X005270Y001018D01*
X005332Y001080D01*
X005332Y001204D01*
X005270Y001265D01*
X005085Y001265D01*
X005085Y000895D01*
X005209Y001018D02*
X005332Y000895D01*
X005453Y000957D02*
X005515Y000895D01*
X005639Y000895D01*
X005700Y000957D01*
X005700Y001080D01*
X005577Y001080D01*
X005700Y001204D02*
X005639Y001265D01*
X005515Y001265D01*
X005453Y001204D01*
X005453Y000957D01*
X005274Y004395D02*
X005027Y004395D01*
X005150Y004395D02*
X005150Y004765D01*
X005027Y004642D01*
D12*
X010980Y005268D02*
X010980Y005292D01*
X013880Y006768D02*
X013880Y006792D01*
X012892Y013380D02*
X012868Y013380D01*
X011880Y013368D02*
X011880Y013392D01*
X012180Y015368D02*
X012180Y015392D01*
X009080Y014592D02*
X009080Y014568D01*
X008480Y013692D02*
X008480Y013668D01*
D13*
X008288Y013575D02*
X008288Y013550D01*
X008263Y013525D01*
X008213Y013525D01*
X008188Y013550D01*
X008188Y013575D01*
X008213Y013600D01*
X008263Y013600D01*
X008288Y013575D01*
X008263Y013525D02*
X008288Y013500D01*
X008288Y013475D01*
X008263Y013450D01*
X008213Y013450D01*
X008188Y013475D01*
X008188Y013500D01*
X008213Y013525D01*
X008140Y013525D02*
X008115Y013500D01*
X008040Y013500D01*
X008040Y013450D02*
X008040Y013600D01*
X008115Y013600D01*
X008140Y013575D01*
X008140Y013525D01*
X008090Y013500D02*
X008140Y013450D01*
X008094Y013400D02*
X008094Y013375D01*
X008069Y013350D01*
X008094Y013325D01*
X008094Y013300D01*
X008069Y013275D01*
X008019Y013275D01*
X007994Y013300D01*
X008044Y013350D02*
X008069Y013350D01*
X008094Y013400D02*
X008069Y013425D01*
X008019Y013425D01*
X007994Y013400D01*
X008142Y013300D02*
X008167Y013300D01*
X008167Y013275D01*
X008142Y013275D01*
X008142Y013300D01*
X008215Y013300D02*
X008240Y013275D01*
X008290Y013275D01*
X008315Y013300D01*
X008315Y013325D01*
X008290Y013350D01*
X008265Y013350D01*
X008290Y013350D02*
X008315Y013375D01*
X008315Y013400D01*
X008290Y013425D01*
X008240Y013425D01*
X008215Y013400D01*
X008363Y013425D02*
X008363Y013275D01*
X008363Y013325D02*
X008463Y013425D01*
X008388Y013350D02*
X008463Y013275D01*
X008355Y013935D02*
X008355Y014085D01*
X008455Y014085D01*
X008405Y014010D02*
X008355Y014010D01*
X008307Y014035D02*
X008307Y013935D01*
X008232Y013935D01*
X008207Y013960D01*
X008207Y014035D01*
X008110Y014085D02*
X008110Y013935D01*
X008060Y013935D02*
X008160Y013935D01*
X008060Y014035D02*
X008110Y014085D01*
X008635Y014085D02*
X008635Y013985D01*
X008660Y013960D01*
X008710Y013960D01*
X008735Y013985D01*
X008782Y013985D02*
X008807Y013960D01*
X008857Y013960D01*
X008882Y013985D01*
X008882Y014035D01*
X008857Y014060D01*
X008832Y014060D01*
X008782Y014035D01*
X008782Y014110D01*
X008882Y014110D01*
X008735Y014085D02*
X008710Y014110D01*
X008660Y014110D01*
X008635Y014085D01*
X009265Y014850D02*
X009315Y014850D01*
X009340Y014875D01*
X009388Y014875D02*
X009413Y014850D01*
X009463Y014850D01*
X009488Y014875D01*
X009488Y014975D01*
X009463Y015000D01*
X009413Y015000D01*
X009388Y014975D01*
X009388Y014950D01*
X009413Y014925D01*
X009488Y014925D01*
X009447Y014900D02*
X009547Y015000D01*
X009547Y014900D01*
X009522Y014875D01*
X009472Y014875D01*
X009447Y014900D01*
X009447Y015000D01*
X009472Y015025D01*
X009522Y015025D01*
X009547Y015000D01*
X009594Y014900D02*
X009619Y014900D01*
X009619Y014875D01*
X009594Y014875D01*
X009594Y014900D01*
X009668Y014875D02*
X009768Y014875D01*
X009718Y014875D02*
X009718Y015025D01*
X009668Y014975D01*
X009815Y014975D02*
X009815Y014900D01*
X009840Y014875D01*
X009915Y014875D01*
X009915Y014975D01*
X009963Y014950D02*
X010013Y014950D01*
X009963Y015025D02*
X010063Y015025D01*
X009963Y015025D02*
X009963Y014875D01*
X009340Y014975D02*
X009315Y015000D01*
X009265Y015000D01*
X009240Y014975D01*
X009240Y014875D01*
X009265Y014850D01*
X009088Y015909D02*
X009088Y016060D01*
X009188Y016060D01*
X009138Y015984D02*
X009088Y015984D01*
X009040Y016009D02*
X009040Y015909D01*
X008965Y015909D01*
X008940Y015934D01*
X008940Y016009D01*
X008893Y016035D02*
X008793Y015934D01*
X008818Y015909D01*
X008868Y015909D01*
X008893Y015934D01*
X008893Y016035D01*
X008868Y016060D01*
X008818Y016060D01*
X008793Y016035D01*
X008793Y015934D01*
X008746Y015909D02*
X008646Y015909D01*
X008696Y015909D02*
X008696Y016060D01*
X008646Y016009D01*
X008188Y016550D02*
X008138Y016600D01*
X008163Y016600D02*
X008088Y016600D01*
X008088Y016550D02*
X008088Y016700D01*
X008163Y016700D01*
X008188Y016675D01*
X008188Y016625D01*
X008163Y016600D01*
X008040Y016550D02*
X007940Y016550D01*
X007940Y016700D01*
X008040Y016700D01*
X007990Y016625D02*
X007940Y016625D01*
X007893Y016550D02*
X007893Y016700D01*
X007793Y016700D02*
X007793Y016550D01*
X007843Y016600D01*
X007893Y016550D01*
X007746Y016575D02*
X007746Y016675D01*
X007721Y016700D01*
X007671Y016700D01*
X007646Y016675D01*
X007646Y016575D01*
X007671Y016550D01*
X007721Y016550D01*
X007746Y016575D01*
X007598Y016625D02*
X007573Y016600D01*
X007498Y016600D01*
X007498Y016550D02*
X007498Y016700D01*
X007573Y016700D01*
X007598Y016675D01*
X007598Y016625D01*
X007607Y016079D02*
X007632Y016054D01*
X007632Y016029D01*
X007607Y016004D01*
X007557Y016004D01*
X007532Y016029D01*
X007532Y016054D01*
X007557Y016079D01*
X007607Y016079D01*
X007607Y016004D02*
X007632Y015979D01*
X007632Y015954D01*
X007607Y015929D01*
X007557Y015929D01*
X007532Y015954D01*
X007532Y015979D01*
X007557Y016004D01*
X007485Y016054D02*
X007460Y016079D01*
X007410Y016079D01*
X007385Y016054D01*
X007385Y015954D01*
X007410Y015929D01*
X007460Y015929D01*
X007485Y015954D01*
X010077Y016500D02*
X010102Y016475D01*
X010152Y016475D01*
X010177Y016500D01*
X010177Y016525D01*
X010152Y016550D01*
X010127Y016550D01*
X010152Y016550D02*
X010177Y016575D01*
X010177Y016600D01*
X010152Y016625D01*
X010102Y016625D01*
X010077Y016600D01*
X010225Y016500D02*
X010250Y016500D01*
X010250Y016475D01*
X010225Y016475D01*
X010225Y016500D01*
X010298Y016500D02*
X010323Y016475D01*
X010373Y016475D01*
X010398Y016500D01*
X010398Y016525D01*
X010373Y016550D01*
X010348Y016550D01*
X010373Y016550D02*
X010398Y016575D01*
X010398Y016600D01*
X010373Y016625D01*
X010323Y016625D01*
X010298Y016600D01*
X010446Y016625D02*
X010446Y016525D01*
X010496Y016475D01*
X010546Y016525D01*
X010546Y016625D01*
X010593Y016625D02*
X010668Y016625D01*
X010693Y016600D01*
X010693Y016550D01*
X010668Y016525D01*
X010593Y016525D01*
X010593Y016475D02*
X010593Y016625D01*
X010643Y016525D02*
X010693Y016475D01*
X010740Y016475D02*
X010740Y016625D01*
X010840Y016625D01*
X010888Y016600D02*
X010888Y016500D01*
X010913Y016475D01*
X010963Y016475D01*
X010988Y016500D01*
X010988Y016550D01*
X010938Y016550D01*
X010988Y016600D02*
X010963Y016625D01*
X010913Y016625D01*
X010888Y016600D01*
X010790Y016550D02*
X010740Y016550D01*
X010740Y016475D02*
X010840Y016475D01*
X011418Y015700D02*
X011393Y015675D01*
X011393Y015575D01*
X011418Y015550D01*
X011468Y015550D01*
X011493Y015575D01*
X011540Y015550D02*
X011640Y015550D01*
X011590Y015550D02*
X011590Y015700D01*
X011540Y015650D01*
X011493Y015675D02*
X011468Y015700D01*
X011418Y015700D01*
X011688Y015675D02*
X011713Y015700D01*
X011763Y015700D01*
X011788Y015675D01*
X011688Y015575D01*
X011713Y015550D01*
X011763Y015550D01*
X011788Y015575D01*
X011788Y015675D01*
X011688Y015675D02*
X011688Y015575D01*
X012060Y015793D02*
X012060Y015868D01*
X012085Y015893D01*
X012135Y015893D01*
X012160Y015868D01*
X012160Y015793D01*
X012210Y015793D02*
X012060Y015793D01*
X012160Y015843D02*
X012210Y015893D01*
X012210Y015940D02*
X012210Y016040D01*
X012210Y016088D02*
X012210Y016188D01*
X012210Y016138D02*
X012060Y016138D01*
X012110Y016088D01*
X012060Y015990D02*
X012210Y015990D01*
X012110Y015940D02*
X012060Y015990D01*
X011855Y015179D02*
X011880Y015154D01*
X011880Y015129D01*
X011855Y015104D01*
X011880Y015079D01*
X011880Y015054D01*
X011855Y015029D01*
X011805Y015029D01*
X011780Y015054D01*
X011732Y015029D02*
X011632Y015029D01*
X011682Y015029D02*
X011682Y015179D01*
X011632Y015129D01*
X011585Y015154D02*
X011560Y015179D01*
X011510Y015179D01*
X011485Y015154D01*
X011485Y015054D01*
X011510Y015029D01*
X011560Y015029D01*
X011585Y015054D01*
X011780Y015154D02*
X011805Y015179D01*
X011855Y015179D01*
X011855Y015104D02*
X011830Y015104D01*
X012646Y015109D02*
X012696Y015160D01*
X012696Y015009D01*
X012646Y015009D02*
X012746Y015009D01*
X012793Y015034D02*
X012893Y015135D01*
X012893Y015034D01*
X012868Y015009D01*
X012818Y015009D01*
X012793Y015034D01*
X012793Y015135D01*
X012818Y015160D01*
X012868Y015160D01*
X012893Y015135D01*
X012940Y015109D02*
X012940Y015034D01*
X012965Y015009D01*
X013040Y015009D01*
X013040Y015109D01*
X013088Y015084D02*
X013138Y015084D01*
X013088Y015009D02*
X013088Y015160D01*
X013188Y015160D01*
X014435Y015260D02*
X014435Y015410D01*
X014510Y015410D01*
X014535Y015385D01*
X014535Y015335D01*
X014510Y015310D01*
X014435Y015310D01*
X014485Y015310D02*
X014535Y015260D01*
X014582Y015285D02*
X014607Y015260D01*
X014657Y015260D01*
X014682Y015285D01*
X014682Y015335D01*
X014657Y015360D01*
X014632Y015360D01*
X014582Y015335D01*
X014582Y015410D01*
X014682Y015410D01*
X012188Y013100D02*
X012138Y013075D01*
X012088Y013025D01*
X012163Y013025D01*
X012188Y013000D01*
X012188Y012975D01*
X012163Y012950D01*
X012113Y012950D01*
X012088Y012975D01*
X012088Y013025D01*
X012040Y012975D02*
X012015Y012950D01*
X011965Y012950D01*
X011940Y012975D01*
X011940Y013075D01*
X011965Y013100D01*
X012015Y013100D01*
X012040Y013075D01*
X011325Y013510D02*
X011300Y013485D01*
X011325Y013510D02*
X011325Y013560D01*
X011300Y013585D01*
X011250Y013585D01*
X011225Y013560D01*
X011225Y013535D01*
X011250Y013485D01*
X011175Y013485D01*
X011175Y013585D01*
X011200Y013632D02*
X011175Y013657D01*
X011175Y013707D01*
X011200Y013732D01*
X011300Y013632D01*
X011325Y013657D01*
X011325Y013707D01*
X011300Y013732D01*
X011200Y013732D01*
X011200Y013780D02*
X011175Y013805D01*
X011175Y013855D01*
X011200Y013880D01*
X011300Y013780D01*
X011325Y013805D01*
X011325Y013855D01*
X011300Y013880D01*
X011200Y013880D01*
X011225Y013927D02*
X011225Y013952D01*
X011250Y013977D01*
X011225Y014002D01*
X011250Y014027D01*
X011325Y014027D01*
X011325Y014074D02*
X011225Y014074D01*
X011175Y014124D01*
X011225Y014174D01*
X011325Y014174D01*
X011250Y014174D02*
X011250Y014074D01*
X011250Y013977D02*
X011325Y013977D01*
X011325Y013927D02*
X011225Y013927D01*
X011200Y013780D02*
X011300Y013780D01*
X011300Y013632D02*
X011200Y013632D01*
X010275Y013632D02*
X010275Y013532D01*
X010275Y013582D02*
X010125Y013582D01*
X010175Y013532D01*
X010125Y013485D02*
X010125Y013385D01*
X010275Y013385D01*
X010200Y013385D02*
X010200Y013435D01*
X009600Y013182D02*
X009575Y013182D01*
X009475Y013282D01*
X009450Y013282D01*
X009450Y013182D01*
X009475Y013135D02*
X009525Y013135D01*
X009550Y013110D01*
X009550Y013035D01*
X009600Y013035D02*
X009450Y013035D01*
X009450Y013110D01*
X009475Y013135D01*
X009550Y013085D02*
X009600Y013135D01*
X009625Y012807D02*
X009625Y012707D01*
X009525Y012807D01*
X009500Y012807D01*
X009475Y012782D01*
X009475Y012732D01*
X009500Y012707D01*
X009500Y012660D02*
X009475Y012635D01*
X009475Y012585D01*
X009500Y012560D01*
X009500Y012660D02*
X009525Y012660D01*
X009625Y012560D01*
X009625Y012660D01*
X008463Y012025D02*
X008363Y011925D01*
X008388Y011950D02*
X008463Y011875D01*
X008363Y011875D02*
X008363Y012025D01*
X008363Y012050D02*
X008363Y012200D01*
X008288Y012125D01*
X008388Y012125D01*
X008290Y012025D02*
X008240Y012025D01*
X008215Y012000D01*
X008240Y012050D02*
X008190Y012100D01*
X008215Y012100D02*
X008140Y012100D01*
X008140Y012050D02*
X008140Y012200D01*
X008215Y012200D01*
X008240Y012175D01*
X008240Y012125D01*
X008215Y012100D01*
X008290Y012025D02*
X008315Y012000D01*
X008315Y011975D01*
X008215Y011875D01*
X008315Y011875D01*
X008167Y011875D02*
X008142Y011875D01*
X008142Y011900D01*
X008167Y011900D01*
X008167Y011875D01*
X008094Y011875D02*
X007994Y011875D01*
X008094Y011975D01*
X008094Y012000D01*
X008069Y012025D01*
X008019Y012025D01*
X007994Y012000D01*
X010930Y011589D02*
X011001Y011659D01*
X011072Y011660D01*
X011072Y011589D01*
X011001Y011518D01*
X011054Y011571D02*
X010983Y011642D01*
X011141Y011591D02*
X011211Y011520D01*
X011245Y011487D02*
X011245Y011416D01*
X011316Y011416D01*
X011210Y011310D01*
X011243Y011277D02*
X011314Y011206D01*
X011365Y011190D02*
X011365Y011155D01*
X011401Y011120D01*
X011436Y011120D01*
X011471Y011155D01*
X011436Y011190D01*
X011436Y011261D02*
X011365Y011190D01*
X011436Y011261D02*
X011471Y011261D01*
X011507Y011226D01*
X011507Y011191D01*
X011523Y011140D02*
X011452Y011069D01*
X011505Y011122D02*
X011576Y011051D01*
X011594Y011069D02*
X011523Y010998D01*
X011574Y010982D02*
X011574Y010947D01*
X011609Y010912D01*
X011645Y010912D01*
X011663Y010929D01*
X011662Y010965D01*
X011645Y010982D01*
X011662Y010965D02*
X011698Y010965D01*
X011716Y010983D01*
X011715Y011018D01*
X011680Y011053D01*
X011645Y011053D01*
X011594Y011069D02*
X011593Y011140D01*
X011523Y011140D01*
X011420Y011312D02*
X011349Y011383D01*
X011243Y011277D01*
X011296Y011330D02*
X011332Y011294D01*
X011139Y011381D02*
X011245Y011487D01*
X011176Y011556D02*
X011070Y011449D01*
X011661Y010861D02*
X011802Y010861D01*
X011820Y010879D01*
X011820Y010914D01*
X011784Y010949D01*
X011749Y010949D01*
X011661Y010861D02*
X011732Y010790D01*
X011783Y010774D02*
X011783Y010739D01*
X011818Y010704D01*
X011854Y010704D01*
X011942Y010792D01*
X011922Y010706D02*
X011993Y010635D01*
X011923Y010600D02*
X012029Y010706D01*
X011922Y010706D01*
X011783Y010774D02*
X011871Y010863D01*
X013185Y012640D02*
X013285Y012640D01*
X013310Y012665D01*
X013310Y012715D01*
X013285Y012740D01*
X013310Y012788D02*
X013310Y012888D01*
X013310Y012838D02*
X013160Y012838D01*
X013210Y012788D01*
X013185Y012740D02*
X013160Y012715D01*
X013160Y012665D01*
X013185Y012640D01*
X008082Y008485D02*
X008057Y008510D01*
X008007Y008510D01*
X007982Y008485D01*
X007935Y008485D02*
X007935Y008435D01*
X007910Y008410D01*
X007835Y008410D01*
X007835Y008360D02*
X007835Y008510D01*
X007910Y008510D01*
X007935Y008485D01*
X007885Y008410D02*
X007935Y008360D01*
X007982Y008360D02*
X008082Y008460D01*
X008082Y008485D01*
X008082Y008360D02*
X007982Y008360D01*
X006563Y007625D02*
X006463Y007525D01*
X006488Y007550D02*
X006563Y007475D01*
X006463Y007475D02*
X006463Y007625D01*
X006415Y007600D02*
X006390Y007625D01*
X006340Y007625D01*
X006315Y007600D01*
X006415Y007600D02*
X006415Y007575D01*
X006315Y007475D01*
X006415Y007475D01*
X006267Y007475D02*
X006242Y007475D01*
X006242Y007500D01*
X006267Y007500D01*
X006267Y007475D01*
X006194Y007475D02*
X006094Y007475D01*
X006194Y007575D01*
X006194Y007600D01*
X006169Y007625D01*
X006119Y007625D01*
X006094Y007600D01*
X006175Y007028D02*
X006275Y006928D01*
X006250Y006953D02*
X006325Y007028D01*
X006325Y006928D02*
X006175Y006928D01*
X006200Y006881D02*
X006225Y006881D01*
X006250Y006856D01*
X006275Y006881D01*
X006300Y006881D01*
X006325Y006856D01*
X006325Y006806D01*
X006300Y006781D01*
X006290Y006800D02*
X006340Y006750D01*
X006325Y006732D02*
X006325Y006707D01*
X006300Y006707D01*
X006300Y006732D01*
X006325Y006732D01*
X006388Y006750D02*
X006488Y006750D01*
X006438Y006750D02*
X006438Y006900D01*
X006388Y006850D01*
X006340Y006825D02*
X006315Y006800D01*
X006240Y006800D01*
X006250Y006831D02*
X006250Y006856D01*
X006240Y006900D02*
X006315Y006900D01*
X006340Y006875D01*
X006340Y006825D01*
X006240Y006750D02*
X006240Y006900D01*
X006200Y006881D02*
X006175Y006856D01*
X006175Y006806D01*
X006200Y006781D01*
X006200Y006660D02*
X006225Y006660D01*
X006250Y006635D01*
X006275Y006660D01*
X006300Y006660D01*
X006325Y006635D01*
X006325Y006585D01*
X006300Y006560D01*
X006250Y006610D02*
X006250Y006635D01*
X006200Y006660D02*
X006175Y006635D01*
X006175Y006585D01*
X006200Y006560D01*
X006200Y006282D02*
X006225Y006257D01*
X006250Y006282D01*
X006275Y006282D01*
X006300Y006257D01*
X006300Y006207D01*
X006275Y006182D01*
X006300Y006135D02*
X006250Y006085D01*
X006250Y006110D02*
X006250Y006035D01*
X006300Y006035D02*
X006150Y006035D01*
X006150Y006110D01*
X006175Y006135D01*
X006225Y006135D01*
X006250Y006110D01*
X006175Y006182D02*
X006150Y006207D01*
X006150Y006257D01*
X006175Y006282D01*
X006200Y006282D01*
X006225Y006257D02*
X006225Y006232D01*
X004582Y004410D02*
X004482Y004260D01*
X004385Y004260D02*
X004385Y004410D01*
X004335Y004410D02*
X004435Y004410D01*
X004482Y004410D02*
X004582Y004260D01*
X004175Y004225D02*
X004075Y004225D01*
X004075Y004300D01*
X004100Y004325D01*
X004175Y004325D01*
X004125Y004178D02*
X004125Y004077D01*
X004150Y004077D02*
X004100Y004077D01*
X004075Y004102D01*
X004075Y004152D01*
X004100Y004178D01*
X004125Y004178D01*
X004175Y004152D02*
X004175Y004102D01*
X004150Y004077D01*
X004125Y004030D02*
X004125Y003930D01*
X004150Y003930D02*
X004100Y003930D01*
X004075Y003955D01*
X004075Y004005D01*
X004100Y004030D01*
X004125Y004030D01*
X004175Y004005D02*
X004175Y003955D01*
X004150Y003930D01*
X004075Y003882D02*
X004075Y003857D01*
X004125Y003807D01*
X004175Y003807D02*
X004075Y003807D01*
X004100Y003760D02*
X004100Y003710D01*
X004100Y003760D02*
X004150Y003760D01*
X004175Y003735D01*
X004175Y003685D01*
X004150Y003660D01*
X004050Y003660D01*
X004025Y003685D01*
X004025Y003735D01*
X004050Y003760D01*
X009440Y006050D02*
X009440Y006200D01*
X009515Y006200D01*
X009540Y006175D01*
X009540Y006125D01*
X009515Y006100D01*
X009440Y006100D01*
X009490Y006100D02*
X009540Y006050D01*
X009588Y006075D02*
X009613Y006050D01*
X009663Y006050D01*
X009688Y006075D01*
X009688Y006100D01*
X009663Y006125D01*
X009588Y006125D01*
X009588Y006075D01*
X009588Y006125D02*
X009638Y006175D01*
X009688Y006200D01*
X010821Y005700D02*
X010846Y005725D01*
X010896Y005725D01*
X010921Y005700D01*
X010921Y005675D01*
X010821Y005575D01*
X010921Y005575D01*
X010968Y005575D02*
X011068Y005675D01*
X011068Y005700D01*
X011043Y005725D01*
X010993Y005725D01*
X010968Y005700D01*
X010968Y005575D02*
X011068Y005575D01*
X011115Y005575D02*
X011190Y005575D01*
X011215Y005600D01*
X011215Y005650D01*
X011190Y005675D01*
X011115Y005675D01*
X011115Y005525D01*
X011263Y005575D02*
X011263Y005725D01*
X011363Y005725D01*
X011313Y005650D02*
X011263Y005650D01*
X011263Y005000D02*
X011188Y004925D01*
X011288Y004925D01*
X011263Y004850D02*
X011263Y005000D01*
X011140Y004975D02*
X011115Y005000D01*
X011065Y005000D01*
X011040Y004975D01*
X011040Y004875D01*
X011065Y004850D01*
X011115Y004850D01*
X011140Y004875D01*
X011885Y004785D02*
X011935Y004835D01*
X011935Y004685D01*
X011885Y004685D02*
X011985Y004685D01*
X012032Y004710D02*
X012057Y004685D01*
X012107Y004685D01*
X012132Y004710D01*
X012132Y004735D01*
X012107Y004760D01*
X012032Y004760D01*
X012032Y004710D01*
X012032Y004760D02*
X012082Y004810D01*
X012132Y004835D01*
X012180Y004835D02*
X012230Y004785D01*
X012280Y004835D01*
X012280Y004685D01*
X012327Y004685D02*
X012327Y004835D01*
X012327Y004760D02*
X012427Y004760D01*
X012474Y004785D02*
X012574Y004785D01*
X012474Y004685D01*
X012574Y004685D01*
X012427Y004685D02*
X012427Y004835D01*
X012180Y004835D02*
X012180Y004685D01*
X013460Y006335D02*
X013560Y006435D01*
X013560Y006460D01*
X013535Y006485D01*
X013485Y006485D01*
X013460Y006460D01*
X013460Y006335D02*
X013560Y006335D01*
X013607Y006335D02*
X013707Y006435D01*
X013707Y006460D01*
X013682Y006485D01*
X013632Y006485D01*
X013607Y006460D01*
X013607Y006335D02*
X013707Y006335D01*
X013755Y006335D02*
X013830Y006335D01*
X013855Y006360D01*
X013855Y006410D01*
X013830Y006435D01*
X013755Y006435D01*
X013755Y006285D01*
X013902Y006335D02*
X013902Y006485D01*
X014002Y006485D01*
X013952Y006410D02*
X013902Y006410D01*
X013782Y007060D02*
X013682Y007060D01*
X013782Y007160D01*
X013782Y007185D01*
X013757Y007210D01*
X013707Y007210D01*
X013682Y007185D01*
X013635Y007185D02*
X013610Y007210D01*
X013560Y007210D01*
X013535Y007185D01*
X013535Y007085D01*
X013560Y007060D01*
X013610Y007060D01*
X013635Y007085D01*
X004838Y016325D02*
X004738Y016325D01*
X004788Y016325D02*
X004788Y016475D01*
X004738Y016425D01*
X004690Y016475D02*
X004640Y016475D01*
X004665Y016475D02*
X004665Y016350D01*
X004640Y016325D01*
X004615Y016325D01*
X004590Y016350D01*
D14*
X005152Y017299D02*
X001608Y017299D01*
X001608Y015212D01*
X001608Y013362D02*
X001608Y013086D01*
X002435Y013086D01*
X004325Y013086D02*
X005152Y013086D01*
X005152Y017299D01*
X007496Y015852D02*
X008086Y015852D01*
X008313Y016099D02*
X008313Y016280D01*
X008435Y016372D01*
X008313Y016461D02*
X008313Y016280D01*
X008319Y016270D02*
X008435Y016194D01*
X008874Y015852D02*
X009307Y015852D01*
X009464Y015695D01*
X009464Y015065D01*
X009307Y014908D01*
X008874Y014908D01*
X008086Y014908D02*
X007496Y014908D01*
X007496Y015852D01*
X007341Y014746D02*
X006357Y014746D01*
X006357Y014490D01*
X006357Y014746D02*
X009211Y017246D01*
X013149Y017246D01*
X016003Y014746D01*
X015019Y014746D01*
X015019Y014490D01*
X016003Y014490D02*
X016003Y014746D01*
X015314Y015658D02*
X015314Y016209D01*
X017046Y016209D01*
X017046Y015658D01*
X017519Y015658D01*
X017519Y016288D01*
X017519Y017351D02*
X014841Y017351D01*
X014841Y016288D02*
X014841Y015658D01*
X015314Y015658D01*
X013464Y014795D02*
X013464Y014165D01*
X013307Y014008D01*
X012874Y014008D01*
X012086Y014008D02*
X011496Y014008D01*
X011496Y014952D01*
X012086Y014952D01*
X012874Y014952D02*
X013307Y014952D01*
X013464Y014795D01*
X011080Y014130D02*
X011080Y013630D01*
X010480Y013630D02*
X010480Y014130D01*
X010649Y015220D02*
X010311Y015220D01*
X010161Y015674D02*
X010161Y015886D01*
X010311Y016340D02*
X010649Y016340D01*
X007341Y014746D02*
X007341Y014490D01*
X011164Y012241D02*
X008719Y009787D01*
X008719Y009564D01*
X011173Y007119D01*
X011396Y007119D01*
X013841Y009573D01*
X013841Y009796D01*
X011387Y012241D01*
X011164Y012241D01*
X016690Y011780D02*
X016690Y013180D01*
X019270Y013180D01*
X019270Y011780D01*
X016690Y011780D01*
X016690Y008380D02*
X019270Y008380D01*
X019270Y006980D01*
X016690Y006980D01*
X016690Y008380D01*
X016003Y006892D02*
X016003Y006675D01*
X015019Y006675D01*
X015019Y006892D01*
X016003Y006675D02*
X016003Y006380D01*
X006357Y006380D01*
X006357Y006675D01*
X007341Y006675D01*
X007341Y006892D01*
X006357Y006892D02*
X006357Y006675D01*
X004070Y009180D02*
X001490Y009180D01*
X001490Y010580D01*
X004070Y010580D01*
X004070Y009180D01*
X004747Y004161D02*
X004747Y003980D01*
X004625Y003888D01*
X004747Y003799D02*
X004747Y003980D01*
X004741Y003990D02*
X004625Y004066D01*
X011896Y005562D02*
X011896Y005798D01*
X012644Y006310D02*
X013116Y006310D01*
X013864Y005798D02*
X013864Y005562D01*
X013116Y005050D02*
X012644Y005050D01*
X016690Y004080D02*
X016690Y002680D01*
X019270Y002680D01*
X019270Y004080D01*
X016690Y004080D01*
D15*
X012630Y014080D02*
X012630Y014880D01*
X008630Y014980D02*
X008630Y015780D01*
X004880Y007680D02*
X003480Y007680D01*
X003180Y007380D01*
X003180Y006880D01*
X003380Y006680D01*
X003180Y006480D01*
X003180Y005880D01*
X003380Y005680D01*
X003180Y005480D01*
X003180Y004980D01*
X003480Y004680D01*
X004880Y004680D01*
X005180Y004980D01*
X005180Y005480D01*
X004980Y005680D01*
X005180Y005880D01*
X005180Y006480D01*
X004980Y006680D01*
X005180Y006880D01*
X005180Y007380D01*
X004880Y007680D01*
D16*
X005980Y006380D03*
X009880Y012880D03*
X012480Y016280D03*
D17*
X014280Y014980D03*
X008080Y012980D03*
X008080Y012480D03*
X008180Y008080D03*
X009780Y006480D03*
X006180Y007180D03*
D18*
X011165Y011907D02*
X011167Y011927D01*
X011172Y011947D01*
X011182Y011965D01*
X011194Y011982D01*
X011209Y011996D01*
X011227Y012006D01*
X011246Y012014D01*
X011266Y012018D01*
X011286Y012018D01*
X011306Y012014D01*
X011325Y012006D01*
X011343Y011996D01*
X011358Y011982D01*
X011370Y011965D01*
X011380Y011947D01*
X011385Y011927D01*
X011387Y011907D01*
X011385Y011887D01*
X011380Y011867D01*
X011370Y011849D01*
X011358Y011832D01*
X011343Y011818D01*
X011325Y011808D01*
X011306Y011800D01*
X011286Y011796D01*
X011266Y011796D01*
X011246Y011800D01*
X011227Y011808D01*
X011209Y011818D01*
X011194Y011832D01*
X011182Y011849D01*
X011172Y011867D01*
X011167Y011887D01*
X011165Y011907D01*
D19*
X016267Y016628D02*
X016454Y016908D01*
X016544Y016861D02*
X016590Y016908D01*
X016684Y016908D01*
X016731Y016861D01*
X016731Y016815D01*
X016544Y016628D01*
X016731Y016628D01*
X016454Y016628D02*
X016267Y016908D01*
D20*
X018277Y010580D02*
X018200Y010504D01*
X018200Y010197D01*
X018277Y010120D01*
X018430Y010120D01*
X018507Y010197D01*
X018507Y010504D01*
X018430Y010580D01*
X018277Y010580D01*
X018353Y010273D02*
X018507Y010120D01*
X018660Y010120D02*
X018967Y010427D01*
X018967Y010504D01*
X018891Y010580D01*
X018737Y010580D01*
X018660Y010504D01*
X018660Y010120D02*
X018967Y010120D01*
X016714Y005780D02*
X016714Y005320D01*
X016867Y005320D02*
X016560Y005320D01*
X016407Y005320D02*
X016253Y005473D01*
X016177Y005320D02*
X016100Y005397D01*
X016100Y005704D01*
X016177Y005780D01*
X016330Y005780D01*
X016407Y005704D01*
X016407Y005397D01*
X016330Y005320D01*
X016177Y005320D01*
X016560Y005627D02*
X016714Y005780D01*
X016191Y002380D02*
X016037Y002380D01*
X015960Y002304D01*
X015807Y002304D02*
X015807Y001997D01*
X015730Y001920D01*
X015577Y001920D01*
X015500Y001997D01*
X015500Y002304D01*
X015577Y002380D01*
X015730Y002380D01*
X015807Y002304D01*
X015653Y002073D02*
X015807Y001920D01*
X015960Y001997D02*
X016037Y001920D01*
X016191Y001920D01*
X016267Y001997D01*
X016267Y002073D01*
X016191Y002150D01*
X016114Y002150D01*
X016191Y002150D02*
X016267Y002227D01*
X016267Y002304D01*
X016191Y002380D01*
D21*
X014017Y003670D02*
X014017Y001070D01*
X014017Y000130D01*
X006147Y000130D01*
X006147Y001070D01*
X006147Y003670D01*
X006147Y003750D01*
X014017Y003750D01*
X014017Y003670D01*
X006147Y003670D01*
X006927Y003150D02*
X006929Y003178D01*
X006935Y003205D01*
X006944Y003231D01*
X006957Y003256D01*
X006974Y003279D01*
X006993Y003299D01*
X007015Y003316D01*
X007039Y003330D01*
X007065Y003340D01*
X007092Y003347D01*
X007120Y003350D01*
X007148Y003349D01*
X007175Y003344D01*
X007202Y003335D01*
X007227Y003323D01*
X007250Y003308D01*
X007271Y003289D01*
X007289Y003268D01*
X007304Y003244D01*
X007315Y003218D01*
X007323Y003192D01*
X007327Y003164D01*
X007327Y003136D01*
X007323Y003108D01*
X007315Y003082D01*
X007304Y003056D01*
X007289Y003032D01*
X007271Y003011D01*
X007250Y002992D01*
X007227Y002977D01*
X007202Y002965D01*
X007175Y002956D01*
X007148Y002951D01*
X007120Y002950D01*
X007092Y002953D01*
X007065Y002960D01*
X007039Y002970D01*
X007015Y002984D01*
X006993Y003001D01*
X006974Y003021D01*
X006957Y003044D01*
X006944Y003069D01*
X006935Y003095D01*
X006929Y003122D01*
X006927Y003150D01*
X006777Y001070D02*
X006147Y001070D01*
X007477Y001070D02*
X008747Y001070D01*
X009447Y001070D02*
X010717Y001070D01*
X011417Y001070D02*
X012687Y001070D01*
X013387Y001070D02*
X014017Y001070D01*
X012837Y003150D02*
X012839Y003178D01*
X012845Y003205D01*
X012854Y003231D01*
X012867Y003256D01*
X012884Y003279D01*
X012903Y003299D01*
X012925Y003316D01*
X012949Y003330D01*
X012975Y003340D01*
X013002Y003347D01*
X013030Y003350D01*
X013058Y003349D01*
X013085Y003344D01*
X013112Y003335D01*
X013137Y003323D01*
X013160Y003308D01*
X013181Y003289D01*
X013199Y003268D01*
X013214Y003244D01*
X013225Y003218D01*
X013233Y003192D01*
X013237Y003164D01*
X013237Y003136D01*
X013233Y003108D01*
X013225Y003082D01*
X013214Y003056D01*
X013199Y003032D01*
X013181Y003011D01*
X013160Y002992D01*
X013137Y002977D01*
X013112Y002965D01*
X013085Y002956D01*
X013058Y002951D01*
X013030Y002950D01*
X013002Y002953D01*
X012975Y002960D01*
X012949Y002970D01*
X012925Y002984D01*
X012903Y003001D01*
X012884Y003021D01*
X012867Y003044D01*
X012854Y003069D01*
X012845Y003095D01*
X012839Y003122D01*
X012837Y003150D01*
X010867Y003150D02*
X010869Y003178D01*
X010875Y003205D01*
X010884Y003231D01*
X010897Y003256D01*
X010914Y003279D01*
X010933Y003299D01*
X010955Y003316D01*
X010979Y003330D01*
X011005Y003340D01*
X011032Y003347D01*
X011060Y003350D01*
X011088Y003349D01*
X011115Y003344D01*
X011142Y003335D01*
X011167Y003323D01*
X011190Y003308D01*
X011211Y003289D01*
X011229Y003268D01*
X011244Y003244D01*
X011255Y003218D01*
X011263Y003192D01*
X011267Y003164D01*
X011267Y003136D01*
X011263Y003108D01*
X011255Y003082D01*
X011244Y003056D01*
X011229Y003032D01*
X011211Y003011D01*
X011190Y002992D01*
X011167Y002977D01*
X011142Y002965D01*
X011115Y002956D01*
X011088Y002951D01*
X011060Y002950D01*
X011032Y002953D01*
X011005Y002960D01*
X010979Y002970D01*
X010955Y002984D01*
X010933Y003001D01*
X010914Y003021D01*
X010897Y003044D01*
X010884Y003069D01*
X010875Y003095D01*
X010869Y003122D01*
X010867Y003150D01*
X008897Y003150D02*
X008899Y003178D01*
X008905Y003205D01*
X008914Y003231D01*
X008927Y003256D01*
X008944Y003279D01*
X008963Y003299D01*
X008985Y003316D01*
X009009Y003330D01*
X009035Y003340D01*
X009062Y003347D01*
X009090Y003350D01*
X009118Y003349D01*
X009145Y003344D01*
X009172Y003335D01*
X009197Y003323D01*
X009220Y003308D01*
X009241Y003289D01*
X009259Y003268D01*
X009274Y003244D01*
X009285Y003218D01*
X009293Y003192D01*
X009297Y003164D01*
X009297Y003136D01*
X009293Y003108D01*
X009285Y003082D01*
X009274Y003056D01*
X009259Y003032D01*
X009241Y003011D01*
X009220Y002992D01*
X009197Y002977D01*
X009172Y002965D01*
X009145Y002956D01*
X009118Y002951D01*
X009090Y002950D01*
X009062Y002953D01*
X009035Y002960D01*
X009009Y002970D01*
X008985Y002984D01*
X008963Y003001D01*
X008944Y003021D01*
X008927Y003044D01*
X008914Y003069D01*
X008905Y003095D01*
X008899Y003122D01*
X008897Y003150D01*
M02*
