G75*
G70*
%OFA0B0*%
%FSLAX24Y24*%
%IPPOS*%
%LPD*%
%AMOC8*
5,1,8,0,0,1.08239X$1,22.5*
%
%ADD10C,0.0000*%
%ADD11C,0.0030*%
%ADD12R,0.0316X0.0394*%
%ADD13R,0.0591X0.0670*%
%ADD14R,0.0394X0.0316*%
%ADD15R,0.0355X0.0355*%
%ADD16R,0.0631X0.0237*%
%ADD17R,0.0237X0.0631*%
%ADD18R,0.0788X0.0473*%
%ADD19R,0.0749X0.0434*%
%ADD20R,0.0512X0.0257*%
%ADD21R,0.0178X0.0591*%
%ADD22R,0.0749X0.0788*%
%ADD23R,0.0709X0.0375*%
%ADD24C,0.0680*%
%ADD25R,0.0520X0.0920*%
%ADD26R,0.1457X0.0906*%
%ADD27C,0.0745*%
%ADD28C,0.1740*%
%ADD29R,0.0631X0.0827*%
%ADD30R,0.1536X0.0827*%
D10*
X000963Y000480D02*
X018988Y000480D01*
X018988Y000481D02*
X019039Y000486D01*
X019089Y000495D01*
X019138Y000508D01*
X019187Y000524D01*
X019234Y000543D01*
X019279Y000566D01*
X019323Y000592D01*
X019365Y000621D01*
X019405Y000653D01*
X019442Y000687D01*
X019477Y000725D01*
X019509Y000764D01*
X019538Y000806D01*
X019564Y000850D01*
X019587Y000896D01*
X019607Y000943D01*
X019623Y000991D01*
X019635Y001040D01*
X019645Y001090D01*
X019650Y001141D01*
X019652Y001192D01*
X019650Y001243D01*
X019650Y016717D01*
X019656Y016764D01*
X019659Y016810D01*
X019658Y016857D01*
X019652Y016904D01*
X019643Y016950D01*
X019630Y016995D01*
X019614Y017039D01*
X019594Y017082D01*
X019570Y017122D01*
X019543Y017161D01*
X019513Y017197D01*
X019480Y017230D01*
X019445Y017261D01*
X019407Y017289D01*
X019367Y017313D01*
X019325Y017335D01*
X019282Y017352D01*
X019237Y017366D01*
X019191Y017376D01*
X000760Y017376D01*
X000718Y017374D01*
X000677Y017369D01*
X000636Y017360D01*
X000596Y017347D01*
X000557Y017331D01*
X000520Y017312D01*
X000485Y017289D01*
X000451Y017264D01*
X000421Y017235D01*
X000392Y017205D01*
X000367Y017171D01*
X000344Y017136D01*
X000325Y017099D01*
X000309Y017060D01*
X000296Y017020D01*
X000287Y016979D01*
X000282Y016938D01*
X000280Y016896D01*
X000280Y001263D01*
X000278Y001211D01*
X000280Y001158D01*
X000286Y001106D01*
X000295Y001054D01*
X000308Y001004D01*
X000325Y000954D01*
X000345Y000905D01*
X000369Y000859D01*
X000396Y000814D01*
X000426Y000771D01*
X000459Y000730D01*
X000495Y000692D01*
X000534Y000656D01*
X000574Y000623D01*
X000618Y000593D01*
X000663Y000567D01*
X000710Y000543D01*
X000758Y000524D01*
X000808Y000507D01*
X000859Y000494D01*
X000911Y000485D01*
X000963Y000480D01*
D11*
X001218Y000895D02*
X001342Y001018D01*
X001342Y001265D01*
X001463Y001265D02*
X001587Y001265D01*
X001525Y001265D02*
X001525Y000895D01*
X001463Y000895D02*
X001587Y000895D01*
X001709Y000957D02*
X001771Y000895D01*
X001894Y000895D01*
X001956Y000957D01*
X001956Y001018D01*
X001894Y001080D01*
X001771Y001080D01*
X001709Y001142D01*
X001709Y001204D01*
X001771Y001265D01*
X001894Y001265D01*
X001956Y001204D01*
X002077Y001265D02*
X002077Y000957D01*
X002139Y000895D01*
X002262Y000895D01*
X002324Y000957D01*
X002324Y001265D01*
X002445Y001142D02*
X002569Y001265D01*
X002692Y001142D01*
X002692Y000895D01*
X002814Y000895D02*
X003061Y000895D01*
X003182Y000895D02*
X003306Y000895D01*
X003244Y000895D02*
X003244Y001265D01*
X003182Y001265D02*
X003306Y001265D01*
X003428Y001204D02*
X003428Y000957D01*
X003489Y000895D01*
X003613Y000895D01*
X003675Y000957D01*
X003675Y001080D01*
X003551Y001080D01*
X003428Y001204D02*
X003489Y001265D01*
X003613Y001265D01*
X003675Y001204D01*
X003796Y001265D02*
X003796Y000895D01*
X003796Y001080D02*
X004043Y001080D01*
X004043Y001265D02*
X004043Y000895D01*
X004288Y000895D02*
X004288Y001265D01*
X004411Y001265D02*
X004164Y001265D01*
X003920Y001495D02*
X003735Y001495D01*
X003612Y001495D02*
X003489Y001495D01*
X003551Y001495D02*
X003551Y001742D01*
X003489Y001742D01*
X003367Y001742D02*
X003306Y001742D01*
X003182Y001618D01*
X003182Y001495D02*
X003182Y001742D01*
X003060Y001742D02*
X002937Y001742D01*
X002998Y001804D02*
X002998Y001557D01*
X003060Y001495D01*
X002815Y001557D02*
X002753Y001495D01*
X002630Y001495D01*
X002568Y001557D01*
X002630Y001680D02*
X002568Y001742D01*
X002568Y001804D01*
X002630Y001865D01*
X002753Y001865D01*
X002815Y001804D01*
X002753Y001680D02*
X002815Y001618D01*
X002815Y001557D01*
X002753Y001680D02*
X002630Y001680D01*
X002814Y001265D02*
X002814Y000895D01*
X002692Y001080D02*
X002445Y001080D01*
X002445Y001142D02*
X002445Y000895D01*
X002017Y001495D02*
X001832Y001495D01*
X001832Y001865D01*
X002017Y001865D01*
X002079Y001804D01*
X002079Y001557D01*
X002017Y001495D01*
X001710Y001495D02*
X001463Y001495D01*
X001463Y001865D01*
X001710Y001865D01*
X001587Y001680D02*
X001463Y001680D01*
X001342Y001495D02*
X001095Y001495D01*
X001095Y001865D01*
X001095Y001265D02*
X001095Y001018D01*
X001218Y000895D01*
X003551Y001865D02*
X003551Y001927D01*
X003735Y001742D02*
X003920Y001742D01*
X003981Y001680D01*
X003981Y001557D01*
X003920Y001495D01*
X003735Y001372D02*
X003735Y001742D01*
X004533Y000957D02*
X004594Y000957D01*
X004594Y000895D01*
X004533Y000895D01*
X004533Y000957D01*
X004717Y000957D02*
X004717Y001204D01*
X004778Y001265D01*
X004902Y001265D01*
X004964Y001204D01*
X004964Y000957D01*
X004902Y000895D01*
X004778Y000895D01*
X004717Y000957D01*
X005085Y001018D02*
X005270Y001018D01*
X005332Y001080D01*
X005332Y001204D01*
X005270Y001265D01*
X005085Y001265D01*
X005085Y000895D01*
X005209Y001018D02*
X005332Y000895D01*
X005453Y000957D02*
X005515Y000895D01*
X005639Y000895D01*
X005700Y000957D01*
X005700Y001080D01*
X005577Y001080D01*
X005700Y001204D02*
X005639Y001265D01*
X005515Y001265D01*
X005453Y001204D01*
X005453Y000957D01*
D12*
X010724Y005280D03*
X011236Y005280D03*
X010036Y006480D03*
X009524Y006480D03*
X008436Y008080D03*
X007924Y008080D03*
X006436Y007180D03*
X005924Y007180D03*
X007824Y012480D03*
X008336Y012480D03*
X008336Y012980D03*
X007824Y012980D03*
X008224Y013680D03*
X008736Y013680D03*
X008824Y014580D03*
X009336Y014580D03*
X011624Y013380D03*
X012136Y013380D03*
X014024Y014980D03*
X014536Y014980D03*
X012436Y015380D03*
X011924Y015380D03*
X013624Y006780D03*
X014136Y006780D03*
D13*
X013031Y014480D03*
X011929Y014480D03*
X009031Y015380D03*
X007929Y015380D03*
D14*
X009880Y013136D03*
X009880Y012624D03*
X012880Y013124D03*
X012880Y013636D03*
X012480Y016024D03*
X012480Y016536D03*
X005980Y006636D03*
X005980Y006124D03*
D15*
X004975Y003980D03*
X004385Y003980D03*
X008085Y016280D03*
X008675Y016280D03*
D16*
G36*
X010913Y012102D02*
X010468Y012545D01*
X010635Y012712D01*
X011080Y012269D01*
X010913Y012102D01*
G37*
G36*
X010691Y011879D02*
X010246Y012322D01*
X010413Y012489D01*
X010858Y012046D01*
X010691Y011879D01*
G37*
G36*
X010468Y011656D02*
X010023Y012099D01*
X010190Y012266D01*
X010635Y011823D01*
X010468Y011656D01*
G37*
G36*
X010246Y011433D02*
X009801Y011876D01*
X009968Y012043D01*
X010413Y011600D01*
X010246Y011433D01*
G37*
G36*
X010024Y011210D02*
X009579Y011653D01*
X009746Y011820D01*
X010191Y011377D01*
X010024Y011210D01*
G37*
G36*
X009802Y010987D02*
X009357Y011430D01*
X009524Y011597D01*
X009969Y011154D01*
X009802Y010987D01*
G37*
G36*
X009579Y010764D02*
X009134Y011207D01*
X009301Y011374D01*
X009746Y010931D01*
X009579Y010764D01*
G37*
G36*
X009357Y010541D02*
X008912Y010984D01*
X009079Y011151D01*
X009524Y010708D01*
X009357Y010541D01*
G37*
G36*
X009135Y010318D02*
X008690Y010761D01*
X008857Y010928D01*
X009302Y010485D01*
X009135Y010318D01*
G37*
G36*
X008912Y010094D02*
X008467Y010537D01*
X008634Y010704D01*
X009079Y010261D01*
X008912Y010094D01*
G37*
G36*
X008690Y009871D02*
X008245Y010314D01*
X008412Y010481D01*
X008857Y010038D01*
X008690Y009871D01*
G37*
G36*
X011925Y006648D02*
X011480Y007091D01*
X011647Y007258D01*
X012092Y006815D01*
X011925Y006648D01*
G37*
G36*
X012147Y006871D02*
X011702Y007314D01*
X011869Y007481D01*
X012314Y007038D01*
X012147Y006871D01*
G37*
G36*
X012370Y007094D02*
X011925Y007537D01*
X012092Y007704D01*
X012537Y007261D01*
X012370Y007094D01*
G37*
G36*
X012592Y007317D02*
X012147Y007760D01*
X012314Y007927D01*
X012759Y007484D01*
X012592Y007317D01*
G37*
G36*
X012814Y007540D02*
X012369Y007983D01*
X012536Y008150D01*
X012981Y007707D01*
X012814Y007540D01*
G37*
G36*
X013036Y007763D02*
X012591Y008206D01*
X012758Y008373D01*
X013203Y007930D01*
X013036Y007763D01*
G37*
G36*
X013259Y007986D02*
X012814Y008429D01*
X012981Y008596D01*
X013426Y008153D01*
X013259Y007986D01*
G37*
G36*
X013481Y008209D02*
X013036Y008652D01*
X013203Y008819D01*
X013648Y008376D01*
X013481Y008209D01*
G37*
G36*
X013703Y008432D02*
X013258Y008875D01*
X013425Y009042D01*
X013870Y008599D01*
X013703Y008432D01*
G37*
G36*
X013926Y008656D02*
X013481Y009099D01*
X013648Y009266D01*
X014093Y008823D01*
X013926Y008656D01*
G37*
G36*
X014148Y008879D02*
X013703Y009322D01*
X013870Y009489D01*
X014315Y009046D01*
X014148Y008879D01*
G37*
D17*
G36*
X013869Y009880D02*
X013702Y010047D01*
X014145Y010492D01*
X014312Y010325D01*
X013869Y009880D01*
G37*
G36*
X013646Y010102D02*
X013479Y010269D01*
X013922Y010714D01*
X014089Y010547D01*
X013646Y010102D01*
G37*
G36*
X013423Y010325D02*
X013256Y010492D01*
X013699Y010937D01*
X013866Y010770D01*
X013423Y010325D01*
G37*
G36*
X013200Y010547D02*
X013033Y010714D01*
X013476Y011159D01*
X013643Y010992D01*
X013200Y010547D01*
G37*
G36*
X012977Y010769D02*
X012810Y010936D01*
X013253Y011381D01*
X013420Y011214D01*
X012977Y010769D01*
G37*
G36*
X012754Y010991D02*
X012587Y011158D01*
X013030Y011603D01*
X013197Y011436D01*
X012754Y010991D01*
G37*
G36*
X012531Y011214D02*
X012364Y011381D01*
X012807Y011826D01*
X012974Y011659D01*
X012531Y011214D01*
G37*
G36*
X012308Y011436D02*
X012141Y011603D01*
X012584Y012048D01*
X012751Y011881D01*
X012308Y011436D01*
G37*
G36*
X012085Y011658D02*
X011918Y011825D01*
X012361Y012270D01*
X012528Y012103D01*
X012085Y011658D01*
G37*
G36*
X011861Y011881D02*
X011694Y012048D01*
X012137Y012493D01*
X012304Y012326D01*
X011861Y011881D01*
G37*
G36*
X011638Y012103D02*
X011471Y012270D01*
X011914Y012715D01*
X012081Y012548D01*
X011638Y012103D01*
G37*
G36*
X008415Y008868D02*
X008248Y009035D01*
X008691Y009480D01*
X008858Y009313D01*
X008415Y008868D01*
G37*
G36*
X008638Y008646D02*
X008471Y008813D01*
X008914Y009258D01*
X009081Y009091D01*
X008638Y008646D01*
G37*
G36*
X008861Y008423D02*
X008694Y008590D01*
X009137Y009035D01*
X009304Y008868D01*
X008861Y008423D01*
G37*
G36*
X009084Y008201D02*
X008917Y008368D01*
X009360Y008813D01*
X009527Y008646D01*
X009084Y008201D01*
G37*
G36*
X009307Y007979D02*
X009140Y008146D01*
X009583Y008591D01*
X009750Y008424D01*
X009307Y007979D01*
G37*
G36*
X009530Y007757D02*
X009363Y007924D01*
X009806Y008369D01*
X009973Y008202D01*
X009530Y007757D01*
G37*
G36*
X009753Y007534D02*
X009586Y007701D01*
X010029Y008146D01*
X010196Y007979D01*
X009753Y007534D01*
G37*
G36*
X009976Y007312D02*
X009809Y007479D01*
X010252Y007924D01*
X010419Y007757D01*
X009976Y007312D01*
G37*
G36*
X010199Y007090D02*
X010032Y007257D01*
X010475Y007702D01*
X010642Y007535D01*
X010199Y007090D01*
G37*
G36*
X010423Y006867D02*
X010256Y007034D01*
X010699Y007479D01*
X010866Y007312D01*
X010423Y006867D01*
G37*
G36*
X010646Y006645D02*
X010479Y006812D01*
X010922Y007257D01*
X011089Y007090D01*
X010646Y006645D01*
G37*
D18*
X012152Y006133D03*
X012152Y005227D03*
X013608Y005227D03*
X013608Y006133D03*
D19*
X010780Y013329D03*
X010780Y014431D03*
D20*
X010992Y015406D03*
X010992Y015780D03*
X010992Y016154D03*
X009968Y016154D03*
X009968Y015406D03*
D21*
X015668Y015737D03*
X015924Y015737D03*
X016180Y015737D03*
X016436Y015737D03*
X016692Y015737D03*
D22*
X017755Y016780D03*
X014605Y016780D03*
D23*
X014920Y014254D03*
X016101Y013467D03*
X014920Y012679D03*
X016101Y011892D03*
X014920Y011104D03*
X016101Y010317D03*
X014920Y009530D03*
X016101Y008742D03*
X014920Y007955D03*
X016101Y007167D03*
X007440Y007167D03*
X006259Y007955D03*
X007440Y008742D03*
X006259Y009530D03*
X007440Y010317D03*
X006259Y011104D03*
X007440Y011892D03*
X006259Y012679D03*
X007440Y013467D03*
X006259Y014254D03*
D24*
X004680Y007180D03*
X004680Y006180D03*
X004680Y005180D03*
X003680Y005180D03*
X003680Y006180D03*
X003680Y007180D03*
D25*
X017070Y006460D03*
X017980Y006460D03*
X018890Y006460D03*
X018890Y002160D03*
X017980Y002160D03*
X017070Y002160D03*
X017070Y011260D03*
X017980Y011260D03*
X018890Y011260D03*
D26*
X017980Y008900D03*
X017980Y004600D03*
X017980Y013700D03*
D27*
X013033Y002133D02*
X013033Y001428D01*
X011064Y001428D02*
X011064Y002133D01*
X009096Y002133D02*
X009096Y001428D01*
X007127Y001428D02*
X007127Y002133D01*
D28*
X003380Y013086D03*
X001530Y014267D03*
X003380Y015449D03*
D29*
X003686Y008640D03*
X002780Y008640D03*
X001874Y008640D03*
D30*
X002780Y011120D03*
M02*
