G75*
G70*
%OFA0B0*%
%FSLAX24Y24*%
%IPPOS*%
%LPD*%
%AMOC8*
5,1,8,0,0,1.08239X$1,22.5*
%
%ADD10C,0.0010*%
%ADD11C,0.0160*%
%ADD12C,0.0080*%
%ADD13C,0.0050*%
%ADD14R,0.0160X0.0280*%
%ADD15C,0.0100*%
D10*
X017345Y002305D02*
X017420Y002305D01*
X017395Y002355D01*
X017395Y002380D01*
X017420Y002405D01*
X017470Y002405D01*
X017495Y002380D01*
X017495Y002330D01*
X017470Y002305D01*
X017345Y002305D02*
X017345Y002405D01*
X017395Y002452D02*
X017495Y002502D01*
X017395Y002552D01*
X017370Y003505D02*
X017470Y003505D01*
X017495Y003530D01*
X017495Y003580D01*
X017470Y003605D01*
X017420Y003605D01*
X017420Y003555D01*
X017370Y003505D02*
X017345Y003530D01*
X017345Y003580D01*
X017370Y003605D01*
X017345Y003652D02*
X017495Y003752D01*
X017345Y003752D01*
X017345Y003800D02*
X017345Y003875D01*
X017370Y003900D01*
X017470Y003900D01*
X017495Y003875D01*
X017495Y003800D01*
X017345Y003800D01*
X017345Y003652D02*
X017495Y003652D01*
X017495Y004405D02*
X017345Y004405D01*
X017345Y004480D01*
X017370Y004505D01*
X017470Y004505D01*
X017495Y004480D01*
X017495Y004405D01*
X017495Y004552D02*
X017395Y004652D01*
X017370Y004652D01*
X017345Y004627D01*
X017345Y004577D01*
X017370Y004552D01*
X017495Y004552D02*
X017495Y004652D01*
X017495Y004700D02*
X017345Y004800D01*
X017370Y004847D02*
X017395Y004847D01*
X017420Y004872D01*
X017420Y004922D01*
X017445Y004947D01*
X017470Y004947D01*
X017495Y004922D01*
X017495Y004872D01*
X017470Y004847D01*
X017370Y004847D02*
X017345Y004872D01*
X017345Y004922D01*
X017370Y004947D01*
X017345Y004994D02*
X017345Y005069D01*
X017370Y005094D01*
X017470Y005094D01*
X017495Y005069D01*
X017495Y004994D01*
X017345Y004994D01*
X017395Y005142D02*
X017345Y005192D01*
X017395Y005242D01*
X017495Y005242D01*
X017495Y005305D02*
X017495Y005380D01*
X017470Y005405D01*
X017370Y005405D01*
X017345Y005380D01*
X017345Y005305D01*
X017495Y005305D01*
X017420Y005242D02*
X017420Y005142D01*
X017395Y005142D02*
X017495Y005142D01*
X017470Y005452D02*
X017495Y005477D01*
X017495Y005527D01*
X017470Y005552D01*
X017445Y005552D01*
X017420Y005527D01*
X017420Y005502D01*
X017420Y005527D02*
X017395Y005552D01*
X017370Y005552D01*
X017345Y005527D01*
X017345Y005477D01*
X017370Y005452D01*
X017370Y005600D02*
X017470Y005700D01*
X017420Y005700D02*
X017420Y005600D01*
X017470Y005600D02*
X017370Y005700D01*
X017370Y005650D02*
X017470Y005650D01*
X017495Y005747D02*
X017345Y005847D01*
X017370Y005894D02*
X017395Y005894D01*
X017420Y005919D01*
X017420Y005969D01*
X017445Y005994D01*
X017470Y005994D01*
X017495Y005969D01*
X017495Y005919D01*
X017470Y005894D01*
X017370Y005894D02*
X017345Y005919D01*
X017345Y005969D01*
X017370Y005994D01*
X017370Y006042D02*
X017470Y006042D01*
X017495Y006067D01*
X017495Y006117D01*
X017470Y006142D01*
X017495Y006189D02*
X017345Y006189D01*
X017370Y006142D02*
X017345Y006117D01*
X017345Y006067D01*
X017370Y006042D01*
X017495Y006189D02*
X017495Y006289D01*
X017495Y006405D02*
X017345Y006405D01*
X017345Y006480D01*
X017370Y006505D01*
X017470Y006505D01*
X017495Y006480D01*
X017495Y006405D01*
X017470Y006552D02*
X017495Y006577D01*
X017495Y006627D01*
X017470Y006652D01*
X017445Y006652D01*
X017420Y006627D01*
X017420Y006552D01*
X017470Y006552D01*
X017420Y006552D02*
X017370Y006602D01*
X017345Y006652D01*
X017370Y006700D02*
X017470Y006800D01*
X017420Y006800D02*
X017420Y006700D01*
X017470Y006700D02*
X017370Y006800D01*
X017370Y006750D02*
X017470Y006750D01*
X017495Y006847D02*
X017345Y006947D01*
X017395Y006994D02*
X017345Y007044D01*
X017395Y007094D01*
X017495Y007094D01*
X017495Y007142D02*
X017470Y007142D01*
X017370Y007242D01*
X017345Y007242D01*
X017345Y007142D01*
X017420Y007094D02*
X017420Y006994D01*
X017395Y006994D02*
X017495Y006994D01*
X017495Y007405D02*
X017345Y007405D01*
X017345Y007480D01*
X017370Y007505D01*
X017470Y007505D01*
X017495Y007480D01*
X017495Y007405D01*
X017470Y007552D02*
X017495Y007577D01*
X017495Y007627D01*
X017470Y007652D01*
X017370Y007652D01*
X017345Y007627D01*
X017345Y007577D01*
X017370Y007552D01*
X017395Y007552D01*
X017420Y007577D01*
X017420Y007652D01*
X017420Y007847D02*
X017420Y007947D01*
X017470Y007947D02*
X017370Y007847D01*
X017370Y007897D02*
X017470Y007897D01*
X017470Y007847D02*
X017370Y007947D01*
X017345Y008505D02*
X017345Y008580D01*
X017370Y008605D01*
X017470Y008605D01*
X017495Y008580D01*
X017495Y008505D01*
X017345Y008505D01*
X017395Y008652D02*
X017345Y008702D01*
X017495Y008702D01*
X017495Y008652D02*
X017495Y008752D01*
X017470Y008800D02*
X017370Y008900D01*
X017470Y008900D01*
X017495Y008875D01*
X017495Y008825D01*
X017470Y008800D01*
X017370Y008800D01*
X017345Y008825D01*
X017345Y008875D01*
X017370Y008900D01*
X017370Y008947D02*
X017470Y009047D01*
X017470Y008997D02*
X017370Y008997D01*
X017370Y009047D02*
X017470Y008947D01*
X017420Y008947D02*
X017420Y009047D01*
X017345Y009405D02*
X017495Y009405D01*
X017495Y009480D01*
X017470Y009505D01*
X017370Y009505D01*
X017345Y009480D01*
X017345Y009405D01*
X017395Y009552D02*
X017345Y009602D01*
X017495Y009602D01*
X017495Y009552D02*
X017495Y009652D01*
X017470Y009700D02*
X017495Y009725D01*
X017495Y009775D01*
X017470Y009800D01*
X017445Y009800D01*
X017420Y009775D01*
X017420Y009750D01*
X017420Y009775D02*
X017395Y009800D01*
X017370Y009800D01*
X017345Y009775D01*
X017345Y009725D01*
X017370Y009700D01*
X017370Y009847D02*
X017470Y009947D01*
X017470Y009897D02*
X017370Y009897D01*
X017370Y009947D02*
X017470Y009847D01*
X017420Y009847D02*
X017420Y009947D01*
X017470Y010405D02*
X017495Y010430D01*
X017495Y010480D01*
X017470Y010505D01*
X017345Y010505D01*
X017370Y010552D02*
X017395Y010552D01*
X017420Y010577D01*
X017420Y010627D01*
X017445Y010652D01*
X017470Y010652D01*
X017495Y010627D01*
X017495Y010577D01*
X017470Y010552D01*
X017370Y010552D02*
X017345Y010577D01*
X017345Y010627D01*
X017370Y010652D01*
X017345Y010700D02*
X017345Y010775D01*
X017370Y010800D01*
X017395Y010800D01*
X017420Y010775D01*
X017420Y010700D01*
X017420Y010775D02*
X017445Y010800D01*
X017470Y010800D01*
X017495Y010775D01*
X017495Y010700D01*
X017345Y010700D01*
X017395Y010847D02*
X017495Y010897D01*
X017395Y010947D01*
X017420Y010994D02*
X017470Y010994D01*
X017495Y011019D01*
X017495Y011094D01*
X017470Y011142D02*
X017495Y011167D01*
X017495Y011242D01*
X017395Y011242D02*
X017395Y011167D01*
X017420Y011142D01*
X017470Y011142D01*
X017395Y011094D02*
X017395Y011019D01*
X017420Y010994D01*
X017470Y011505D02*
X017495Y011530D01*
X017495Y011580D01*
X017470Y011605D01*
X017420Y011605D01*
X017420Y011555D01*
X017370Y011505D02*
X017470Y011505D01*
X017370Y011505D02*
X017345Y011530D01*
X017345Y011580D01*
X017370Y011605D01*
X017345Y011652D02*
X017495Y011752D01*
X017345Y011752D01*
X017345Y011800D02*
X017345Y011875D01*
X017370Y011900D01*
X017470Y011900D01*
X017495Y011875D01*
X017495Y011800D01*
X017345Y011800D01*
X017345Y011652D02*
X017495Y011652D01*
X017470Y010405D02*
X017345Y010405D01*
D11*
X013000Y011788D02*
X013000Y011812D01*
X012900Y009812D02*
X012900Y009788D01*
X009300Y009888D02*
X009300Y009912D01*
X009300Y009212D02*
X009300Y009188D01*
X009112Y008200D02*
X009088Y008200D01*
X014588Y002200D02*
X014612Y002200D01*
X011412Y001700D02*
X011388Y001700D01*
D12*
X007177Y002800D02*
X016823Y002800D01*
X016823Y003095D01*
X016823Y003312D01*
X016823Y003095D02*
X015839Y003095D01*
X015839Y003312D01*
X017600Y003450D02*
X017600Y003950D01*
X017850Y004200D01*
X017600Y004450D01*
X017600Y004950D01*
X017850Y005200D01*
X017600Y005450D01*
X017600Y005950D01*
X017850Y006200D01*
X017600Y006450D01*
X017600Y006950D01*
X017850Y007200D01*
X017600Y007450D01*
X017600Y007950D01*
X017850Y008200D01*
X017600Y008450D01*
X017600Y008950D01*
X017850Y009200D01*
X017600Y009450D01*
X017600Y009950D01*
X017850Y010200D01*
X017600Y010450D01*
X017600Y010950D01*
X017850Y011200D01*
X017600Y011450D01*
X017600Y011950D01*
X017850Y012200D01*
X018350Y012200D01*
X018600Y011950D01*
X018600Y011450D01*
X018350Y011200D01*
X018600Y010950D01*
X018600Y010450D01*
X018350Y010200D01*
X018600Y009950D01*
X018600Y009450D01*
X018350Y009200D01*
X018600Y008950D01*
X018600Y008450D01*
X018350Y008200D01*
X018600Y007950D01*
X018600Y007450D01*
X018350Y007200D01*
X018600Y006950D01*
X018600Y006450D01*
X018350Y006200D01*
X018600Y005950D01*
X018600Y005450D01*
X018350Y005200D01*
X018600Y004950D01*
X018600Y004450D01*
X018350Y004200D01*
X018600Y003950D01*
X018600Y003450D01*
X018350Y003200D01*
X018600Y002950D01*
X018600Y002450D01*
X018350Y002200D01*
X017850Y002200D01*
X017600Y002450D01*
X017600Y002950D01*
X017850Y003200D01*
X017600Y003450D01*
X014661Y005993D02*
X012216Y003539D01*
X011993Y003539D01*
X009539Y005984D01*
X009539Y006207D01*
X011984Y008661D01*
X012207Y008661D01*
X014661Y006216D01*
X014661Y005993D01*
X013236Y002530D02*
X012764Y002530D01*
X012016Y002018D02*
X012016Y001782D01*
X012764Y001270D02*
X013236Y001270D01*
X013984Y001782D02*
X013984Y002018D01*
X008161Y003095D02*
X008161Y003312D01*
X008161Y003095D02*
X007177Y003095D01*
X007177Y003312D01*
X007177Y003095D02*
X007177Y002800D01*
X007245Y002908D02*
X007367Y003000D01*
X007367Y003181D01*
X007245Y003086D02*
X007361Y003010D01*
X007367Y003000D02*
X007367Y002819D01*
X011000Y010050D02*
X011000Y010550D01*
X010684Y010428D02*
X010094Y010428D01*
X010684Y010428D02*
X010684Y011372D01*
X010094Y011372D01*
X009306Y011372D02*
X008873Y011372D01*
X008716Y011215D01*
X008716Y010585D01*
X008873Y010428D01*
X009306Y010428D01*
X008161Y010910D02*
X008161Y011166D01*
X007177Y011166D01*
X007177Y010910D01*
X007177Y011166D02*
X010031Y013666D01*
X013969Y013666D01*
X016823Y011166D01*
X015839Y011166D01*
X015839Y010910D01*
X016823Y010910D02*
X016823Y011166D01*
X016767Y011719D02*
X016767Y011900D01*
X016645Y011808D01*
X016767Y011900D02*
X016767Y012081D01*
X016645Y011986D02*
X016761Y011910D01*
X013984Y011215D02*
X013984Y010585D01*
X013827Y010428D01*
X013394Y010428D01*
X012606Y010428D02*
X012016Y010428D01*
X012016Y011372D01*
X012606Y011372D01*
X013394Y011372D02*
X013827Y011372D01*
X013984Y011215D01*
X011600Y010550D02*
X011600Y010050D01*
X011469Y011640D02*
X011131Y011640D01*
X010981Y012094D02*
X010981Y012306D01*
X011131Y012760D02*
X011469Y012760D01*
D13*
X013150Y011300D02*
X013150Y010500D01*
X015873Y012349D02*
X015873Y013451D01*
X017527Y013451D01*
X017527Y012349D01*
X015873Y012349D01*
X016267Y012821D02*
X016267Y012979D01*
X016269Y013007D01*
X016274Y013035D01*
X016282Y013063D01*
X016294Y013089D01*
X016309Y013113D01*
X016326Y013135D01*
X016347Y013156D01*
X016369Y013173D01*
X016393Y013188D01*
X016419Y013200D01*
X016447Y013208D01*
X016475Y013213D01*
X016503Y013215D01*
X016897Y013215D01*
X016925Y013213D01*
X016953Y013208D01*
X016981Y013200D01*
X017007Y013188D01*
X017031Y013173D01*
X017053Y013156D01*
X017074Y013135D01*
X017091Y013113D01*
X017106Y013089D01*
X017118Y013063D01*
X017126Y013035D01*
X017131Y013007D01*
X017133Y012979D01*
X017133Y012821D01*
X017131Y012793D01*
X017126Y012765D01*
X017118Y012737D01*
X017106Y012711D01*
X017091Y012687D01*
X017074Y012665D01*
X017053Y012644D01*
X017031Y012627D01*
X017007Y012612D01*
X016981Y012600D01*
X016953Y012592D01*
X016925Y012587D01*
X016897Y012585D01*
X016503Y012585D01*
X016475Y012587D01*
X016447Y012592D01*
X016419Y012600D01*
X016393Y012612D01*
X016369Y012627D01*
X016347Y012644D01*
X016326Y012665D01*
X016309Y012687D01*
X016294Y012711D01*
X016282Y012737D01*
X016274Y012765D01*
X016269Y012793D01*
X016267Y012821D01*
X009550Y011300D02*
X009550Y010500D01*
D14*
X006300Y008400D03*
X005000Y008000D03*
X004800Y007400D03*
X004800Y006600D03*
X009000Y004500D03*
X010400Y003000D03*
X013500Y012300D03*
D15*
X011985Y008327D02*
X011987Y008347D01*
X011992Y008367D01*
X012002Y008385D01*
X012014Y008402D01*
X012029Y008416D01*
X012047Y008426D01*
X012066Y008434D01*
X012086Y008438D01*
X012106Y008438D01*
X012126Y008434D01*
X012145Y008426D01*
X012163Y008416D01*
X012178Y008402D01*
X012190Y008385D01*
X012200Y008367D01*
X012205Y008347D01*
X012207Y008327D01*
X012205Y008307D01*
X012200Y008287D01*
X012190Y008269D01*
X012178Y008252D01*
X012163Y008238D01*
X012145Y008228D01*
X012126Y008220D01*
X012106Y008216D01*
X012086Y008216D01*
X012066Y008220D01*
X012047Y008228D01*
X012029Y008238D01*
X012014Y008252D01*
X012002Y008269D01*
X011992Y008287D01*
X011987Y008307D01*
X011985Y008327D01*
M02*
