G75*
G70*
%OFA0B0*%
%FSLAX24Y24*%
%IPPOS*%
%LPD*%
%AMOC8*
5,1,8,0,0,1.08239X$1,22.5*
%
%ADD10C,0.0100*%
%ADD11C,0.0160*%
%ADD12R,0.0433X0.0394*%
%ADD13R,0.0500X0.0579*%
%ADD14C,0.0251*%
%ADD15R,0.1181X0.0551*%
%ADD16R,0.0217X0.0472*%
%ADD17R,0.1142X0.1969*%
%ADD18R,0.0276X0.0394*%
%ADD19R,0.0177X0.0276*%
%ADD20R,0.0315X0.0394*%
%ADD21R,0.0394X0.0315*%
%ADD22R,0.0118X0.0315*%
%ADD23R,0.0945X0.0866*%
%ADD24R,0.0512X0.0335*%
%ADD25C,0.0240*%
%ADD26R,0.0436X0.0436*%
%ADD27C,0.0400*%
%ADD28C,0.0436*%
%ADD29C,0.0320*%
%ADD30C,0.0120*%
%ADD31C,0.0560*%
D10*
X012236Y012414D02*
X011481Y013266D01*
X011279Y013558D01*
X012266Y012572D01*
X012374Y012527D01*
X012396Y012527D01*
X012690Y012234D01*
X012690Y012163D01*
X013199Y011654D01*
X013339Y011654D01*
X013521Y011835D01*
X013923Y011835D01*
X014209Y011549D01*
X014226Y011542D01*
X014419Y011349D01*
X014462Y011349D01*
X014481Y011316D01*
X014569Y011228D01*
X014839Y011498D01*
X014845Y011492D01*
X014574Y011222D01*
X014662Y011135D01*
X014696Y011115D01*
X014696Y011073D01*
X014948Y010820D01*
X015089Y010820D01*
X015273Y011004D01*
X015738Y011004D01*
X015872Y011139D01*
X016218Y011484D01*
X016218Y011498D01*
X017766Y013047D01*
X017766Y012847D01*
X017802Y012812D01*
X017680Y012812D01*
X017642Y012801D01*
X017608Y012782D01*
X017580Y012754D01*
X017560Y012720D01*
X017550Y012681D01*
X017550Y012533D01*
X017868Y012533D01*
X017868Y012475D01*
X017926Y012475D01*
X017926Y012197D01*
X018051Y012197D01*
X018051Y012177D01*
X018105Y012123D01*
X017886Y012123D01*
X017786Y012023D01*
X017786Y011921D01*
X017730Y011898D01*
X017637Y011805D01*
X017614Y011749D01*
X017593Y011769D01*
X016508Y011769D01*
X016408Y011669D01*
X016408Y010662D01*
X016508Y010563D01*
X016841Y010563D01*
X016841Y010327D01*
X016879Y010289D01*
X016879Y009887D01*
X016097Y010080D01*
X015033Y010484D01*
X014025Y011013D01*
X013088Y011659D01*
X012236Y012414D01*
X012265Y012388D02*
X012535Y012388D01*
X012633Y012290D02*
X012376Y012290D01*
X012487Y012191D02*
X012690Y012191D01*
X012760Y012093D02*
X012599Y012093D01*
X012710Y011994D02*
X012858Y011994D01*
X012821Y011896D02*
X012957Y011896D01*
X012932Y011797D02*
X013055Y011797D01*
X013043Y011699D02*
X013154Y011699D01*
X013173Y011600D02*
X014158Y011600D01*
X014060Y011699D02*
X013384Y011699D01*
X013483Y011797D02*
X013961Y011797D01*
X014267Y011502D02*
X013316Y011502D01*
X013459Y011403D02*
X014365Y011403D01*
X014492Y011305D02*
X013602Y011305D01*
X013744Y011206D02*
X014590Y011206D01*
X014590Y011244D02*
X014590Y010969D01*
X014885Y010673D01*
X015161Y010673D01*
X015180Y010911D02*
X016408Y010911D01*
X016408Y011009D02*
X015743Y011009D01*
X015842Y011108D02*
X016408Y011108D01*
X016408Y011206D02*
X015940Y011206D01*
X016039Y011305D02*
X016408Y011305D01*
X016408Y011403D02*
X016137Y011403D01*
X016222Y011502D02*
X016408Y011502D01*
X016408Y011600D02*
X016320Y011600D01*
X016419Y011699D02*
X016438Y011699D01*
X016517Y011797D02*
X017634Y011797D01*
X017728Y011896D02*
X016616Y011896D01*
X016714Y011994D02*
X017786Y011994D01*
X017856Y012093D02*
X016813Y012093D01*
X016911Y012191D02*
X018051Y012191D01*
X018074Y012170D02*
X018074Y012150D01*
X018212Y012012D01*
X018212Y011796D01*
X018212Y011599D01*
X018409Y011402D01*
X018364Y011375D02*
X018264Y011475D01*
X018247Y011475D01*
X018247Y011488D01*
X018259Y011488D01*
X018279Y011468D01*
X019916Y011468D01*
X020016Y011568D01*
X020016Y012023D01*
X019925Y012115D01*
X019987Y012177D01*
X019987Y012197D01*
X020132Y012197D01*
X020132Y012475D01*
X020190Y012475D01*
X020190Y012533D01*
X020508Y012533D01*
X020508Y012681D01*
X020497Y012720D01*
X020478Y012754D01*
X020450Y012782D01*
X020416Y012801D01*
X020377Y012812D01*
X020197Y012812D01*
X020232Y012847D01*
X020232Y013382D01*
X020133Y013481D01*
X019744Y013481D01*
X019750Y013487D01*
X019750Y013555D01*
X019876Y013555D01*
X019876Y013873D01*
X019934Y013873D01*
X019934Y013931D01*
X019876Y013931D01*
X019876Y014249D01*
X019810Y014249D01*
X019810Y014323D01*
X019948Y014460D01*
X019948Y016363D01*
X020006Y016415D01*
X020025Y016407D01*
X020179Y016407D01*
X020322Y016467D01*
X020431Y016576D01*
X020490Y016718D01*
X020490Y016873D01*
X020431Y017015D01*
X020322Y017125D01*
X020179Y017184D01*
X020025Y017184D01*
X019882Y017125D01*
X019773Y017015D01*
X019714Y016873D01*
X019714Y016743D01*
X019644Y016681D01*
X019637Y016681D01*
X019577Y016621D01*
X019513Y016564D01*
X019513Y016557D01*
X019508Y016552D01*
X019508Y016467D01*
X019503Y016382D01*
X019508Y016377D01*
X019508Y014710D01*
X019436Y014782D01*
X019293Y014841D01*
X019139Y014841D01*
X019053Y014806D01*
X019053Y014904D01*
X018994Y015047D01*
X018885Y015156D01*
X018742Y015215D01*
X018588Y015215D01*
X018445Y015156D01*
X018336Y015047D01*
X018277Y014904D01*
X018277Y014750D01*
X018327Y014629D01*
X018327Y014228D01*
X018309Y014238D01*
X018271Y014249D01*
X018123Y014249D01*
X018123Y013931D01*
X018065Y013931D01*
X018065Y014249D01*
X017917Y014249D01*
X017879Y014238D01*
X017844Y014219D01*
X017816Y014191D01*
X017797Y014157D01*
X017786Y014118D01*
X017786Y013931D01*
X018065Y013931D01*
X018065Y013873D01*
X017786Y013873D01*
X017786Y013689D01*
X017677Y013580D01*
X016412Y012315D01*
X016412Y012408D01*
X016412Y012658D01*
X016413Y012659D01*
X016442Y012671D01*
X017418Y013647D01*
X017522Y013751D01*
X017578Y013887D01*
X017578Y017508D01*
X017994Y017925D01*
X018510Y017925D01*
X018510Y017690D01*
X018556Y017579D01*
X018294Y017579D01*
X018250Y017597D01*
X018095Y017597D01*
X017953Y017538D01*
X017844Y017429D01*
X017785Y017286D01*
X017785Y017132D01*
X017844Y016989D01*
X017953Y016880D01*
X018095Y016821D01*
X017578Y016821D01*
X017578Y016919D02*
X017913Y016919D01*
X017832Y017018D02*
X017578Y017018D01*
X017578Y017116D02*
X017791Y017116D01*
X017785Y017215D02*
X017578Y017215D01*
X017578Y017313D02*
X017796Y017313D01*
X017837Y017412D02*
X017578Y017412D01*
X017580Y017510D02*
X017925Y017510D01*
X017777Y017707D02*
X018510Y017707D01*
X018510Y017806D02*
X017876Y017806D01*
X017974Y017904D02*
X018510Y017904D01*
X018544Y017609D02*
X017679Y017609D01*
X017125Y018101D02*
X016456Y018101D01*
X016456Y018003D02*
X017026Y018003D01*
X016928Y017904D02*
X016456Y017904D01*
X016456Y017806D02*
X016867Y017806D01*
X016894Y017871D02*
X016838Y017735D01*
X016838Y014114D01*
X016181Y013457D01*
X016181Y013515D01*
X016143Y013553D01*
X016223Y013633D01*
X016267Y013652D01*
X016376Y013761D01*
X016435Y013903D01*
X016435Y014058D01*
X016376Y014200D01*
X016267Y014310D01*
X016124Y014369D01*
X015969Y014369D01*
X015827Y014310D01*
X015718Y014200D01*
X015700Y014157D01*
X015343Y013800D01*
X015275Y013772D01*
X015171Y013668D01*
X014969Y013466D01*
X014481Y013954D01*
X014340Y013954D01*
X013887Y013501D01*
X013887Y013360D01*
X014396Y012851D01*
X014466Y012851D01*
X014592Y012725D01*
X014696Y012621D01*
X014791Y012582D01*
X014899Y012475D01*
X014890Y012467D01*
X014890Y012326D01*
X015143Y012073D01*
X015284Y012073D01*
X015328Y012117D01*
X015378Y012117D01*
X015514Y012173D01*
X015618Y012277D01*
X015674Y012413D01*
X015674Y012463D01*
X015718Y012507D01*
X015718Y012648D01*
X015656Y012709D01*
X015648Y012728D01*
X015618Y012802D01*
X015618Y012802D01*
X015566Y012853D01*
X015514Y012906D01*
X015514Y012906D01*
X015485Y012935D01*
X015604Y013054D01*
X015662Y012996D01*
X015730Y012996D01*
X015730Y012928D01*
X015875Y012783D01*
X015878Y012775D01*
X015972Y012682D01*
X015972Y012408D01*
X015935Y012371D01*
X015853Y012371D01*
X015419Y011938D01*
X015419Y011797D01*
X015650Y011566D01*
X015547Y011464D01*
X015454Y011464D01*
X015270Y011647D01*
X015228Y011647D01*
X015208Y011681D01*
X015121Y011768D01*
X014850Y011498D01*
X014845Y011504D01*
X015115Y011774D01*
X015027Y011862D01*
X014994Y011881D01*
X014994Y011924D01*
X014741Y012176D01*
X014629Y012176D01*
X014286Y012519D01*
X014150Y012575D01*
X014003Y012575D01*
X013465Y012575D01*
X013284Y012757D01*
X013213Y012757D01*
X012999Y012971D01*
X013216Y013188D01*
X013261Y013296D01*
X013261Y013414D01*
X013216Y013522D01*
X011473Y015265D01*
X011364Y015310D01*
X011247Y015310D01*
X011138Y015265D01*
X010573Y014700D01*
X010306Y015211D01*
X009902Y016275D01*
X009630Y017380D01*
X009493Y018510D01*
X009475Y019079D01*
X009493Y019648D01*
X009630Y020778D01*
X009902Y021883D01*
X010306Y022947D01*
X010835Y023955D01*
X011174Y024447D01*
X011174Y024377D01*
X011388Y024163D01*
X011388Y023535D01*
X011268Y023414D01*
X011266Y023410D01*
X011106Y023250D01*
X011106Y023207D01*
X011072Y023188D01*
X010985Y023100D01*
X011255Y022830D01*
X011249Y022824D01*
X010979Y023095D01*
X010891Y023007D01*
X010872Y022974D01*
X010829Y022974D01*
X010577Y022721D01*
X010577Y022580D01*
X010631Y022526D01*
X010541Y022436D01*
X010541Y022094D01*
X010676Y021959D01*
X013119Y019516D01*
X013060Y019456D01*
X013001Y019314D01*
X013001Y019159D01*
X013060Y019017D01*
X013169Y018907D01*
X013312Y018848D01*
X013466Y018848D01*
X013609Y018907D01*
X013718Y019017D01*
X013777Y019159D01*
X013777Y019314D01*
X013718Y019456D01*
X013619Y019555D01*
X013619Y019666D01*
X011962Y021323D01*
X012015Y021323D01*
X012443Y021323D01*
X012710Y021056D01*
X012739Y021056D01*
X012229Y021056D01*
X012328Y020958D02*
X012837Y020958D01*
X012739Y021056D02*
X014040Y019755D01*
X014144Y019651D01*
X014280Y019595D01*
X016425Y019595D01*
X016846Y019173D01*
X016327Y019173D01*
X016191Y019117D01*
X016087Y019013D01*
X015772Y018698D01*
X015716Y018562D01*
X015716Y016171D01*
X015772Y016035D01*
X015876Y015931D01*
X015896Y015911D01*
X015915Y015867D01*
X016024Y015758D01*
X016166Y015699D01*
X016321Y015699D01*
X016463Y015758D01*
X016573Y015867D01*
X016632Y016010D01*
X016632Y016164D01*
X016573Y016307D01*
X016463Y016416D01*
X016456Y016419D01*
X016456Y018335D01*
X016554Y018433D01*
X017457Y018433D01*
X016894Y017871D01*
X016838Y017707D02*
X016456Y017707D01*
X016456Y017609D02*
X016838Y017609D01*
X016838Y017510D02*
X016456Y017510D01*
X016456Y017412D02*
X016838Y017412D01*
X016838Y017313D02*
X016456Y017313D01*
X016456Y017215D02*
X016838Y017215D01*
X016838Y017116D02*
X016456Y017116D01*
X016456Y017018D02*
X016838Y017018D01*
X016838Y016919D02*
X016456Y016919D01*
X016456Y016821D02*
X016838Y016821D01*
X016838Y016722D02*
X016456Y016722D01*
X016456Y016624D02*
X016838Y016624D01*
X016838Y016525D02*
X016456Y016525D01*
X016456Y016427D02*
X016838Y016427D01*
X016838Y016328D02*
X016551Y016328D01*
X016604Y016230D02*
X016838Y016230D01*
X016838Y016131D02*
X016632Y016131D01*
X016632Y016033D02*
X016838Y016033D01*
X016838Y015934D02*
X016600Y015934D01*
X016541Y015836D02*
X016838Y015836D01*
X016838Y015737D02*
X016414Y015737D01*
X016838Y015639D02*
X014128Y015639D01*
X014228Y015737D02*
X016073Y015737D01*
X015946Y015836D02*
X014328Y015836D01*
X014421Y015927D02*
X014424Y015928D01*
X014473Y015978D01*
X014523Y016028D01*
X014525Y016031D01*
X015340Y016863D01*
X015381Y016880D01*
X015490Y016989D01*
X015549Y017132D01*
X015549Y017286D01*
X015490Y017429D01*
X015381Y017538D01*
X015238Y017597D01*
X015084Y017597D01*
X014941Y017538D01*
X014832Y017429D01*
X014812Y017382D01*
X013950Y016501D01*
X013201Y015765D01*
X012587Y016379D01*
X012478Y016424D01*
X012360Y016424D01*
X012252Y016379D01*
X011636Y015763D01*
X011591Y015655D01*
X011591Y015537D01*
X011636Y015429D01*
X013379Y013686D01*
X013488Y013641D01*
X013606Y013641D01*
X013714Y013686D01*
X014330Y014301D01*
X014375Y014410D01*
X014375Y014527D01*
X014330Y014636D01*
X013724Y015242D01*
X014421Y015927D01*
X014430Y015934D02*
X015873Y015934D01*
X015774Y016033D02*
X014527Y016033D01*
X014623Y016131D02*
X015732Y016131D01*
X015716Y016230D02*
X014720Y016230D01*
X014816Y016328D02*
X015716Y016328D01*
X015716Y016427D02*
X014913Y016427D01*
X015009Y016525D02*
X015716Y016525D01*
X015716Y016624D02*
X015106Y016624D01*
X015202Y016722D02*
X015716Y016722D01*
X015716Y016821D02*
X015299Y016821D01*
X015420Y016919D02*
X015716Y016919D01*
X015716Y017018D02*
X015502Y017018D01*
X015543Y017116D02*
X015716Y017116D01*
X015716Y017215D02*
X015549Y017215D01*
X015538Y017313D02*
X015716Y017313D01*
X015716Y017412D02*
X015497Y017412D01*
X015408Y017510D02*
X015716Y017510D01*
X015716Y017609D02*
X009602Y017609D01*
X009590Y017707D02*
X015716Y017707D01*
X015716Y017806D02*
X009578Y017806D01*
X009566Y017904D02*
X015716Y017904D01*
X015716Y018003D02*
X009554Y018003D01*
X009542Y018101D02*
X015716Y018101D01*
X015716Y018200D02*
X009530Y018200D01*
X009518Y018298D02*
X015716Y018298D01*
X015716Y018397D02*
X009506Y018397D01*
X009494Y018495D02*
X015716Y018495D01*
X015729Y018594D02*
X009490Y018594D01*
X009487Y018692D02*
X015770Y018692D01*
X015865Y018791D02*
X009484Y018791D01*
X009481Y018889D02*
X013213Y018889D01*
X013089Y018988D02*
X009478Y018988D01*
X009476Y019086D02*
X013031Y019086D01*
X013001Y019185D02*
X009479Y019185D01*
X009482Y019283D02*
X013001Y019283D01*
X013029Y019382D02*
X009484Y019382D01*
X009487Y019480D02*
X013084Y019480D01*
X013056Y019579D02*
X009490Y019579D01*
X009496Y019677D02*
X012958Y019677D01*
X012859Y019776D02*
X009508Y019776D01*
X009520Y019874D02*
X012761Y019874D01*
X012662Y019973D02*
X009532Y019973D01*
X009544Y020071D02*
X012564Y020071D01*
X012465Y020170D02*
X009556Y020170D01*
X009568Y020268D02*
X012367Y020268D01*
X012268Y020367D02*
X009580Y020367D01*
X009592Y020465D02*
X012170Y020465D01*
X012071Y020564D02*
X009604Y020564D01*
X009616Y020662D02*
X011973Y020662D01*
X011874Y020761D02*
X009628Y020761D01*
X009650Y020859D02*
X011776Y020859D01*
X011677Y020958D02*
X009674Y020958D01*
X009698Y021056D02*
X011579Y021056D01*
X011480Y021155D02*
X009723Y021155D01*
X009747Y021253D02*
X011382Y021253D01*
X011283Y021352D02*
X009771Y021352D01*
X009795Y021450D02*
X011185Y021450D01*
X011086Y021549D02*
X009820Y021549D01*
X009844Y021647D02*
X010988Y021647D01*
X010889Y021746D02*
X009868Y021746D01*
X009893Y021844D02*
X010791Y021844D01*
X010692Y021943D02*
X009925Y021943D01*
X009962Y022041D02*
X010594Y022041D01*
X010541Y022140D02*
X009999Y022140D01*
X010037Y022238D02*
X010541Y022238D01*
X010541Y022337D02*
X010074Y022337D01*
X010112Y022435D02*
X010541Y022435D01*
X010623Y022534D02*
X010149Y022534D01*
X010186Y022632D02*
X010577Y022632D01*
X010587Y022731D02*
X010224Y022731D01*
X010261Y022829D02*
X010685Y022829D01*
X010784Y022928D02*
X010298Y022928D01*
X010347Y023026D02*
X010911Y023026D01*
X011047Y023026D02*
X011059Y023026D01*
X011009Y023125D02*
X010399Y023125D01*
X010451Y023223D02*
X011106Y023223D01*
X011178Y023322D02*
X010502Y023322D01*
X010554Y023420D02*
X011274Y023420D01*
X011372Y023519D02*
X010606Y023519D01*
X010657Y023617D02*
X011388Y023617D01*
X011388Y023716D02*
X010709Y023716D01*
X010761Y023814D02*
X011388Y023814D01*
X011388Y023913D02*
X010812Y023913D01*
X010873Y024011D02*
X011388Y024011D01*
X011388Y024110D02*
X010941Y024110D01*
X011009Y024208D02*
X011342Y024208D01*
X011244Y024307D02*
X011077Y024307D01*
X011145Y024405D02*
X011174Y024405D01*
X012128Y024284D02*
X012128Y023380D01*
X012128Y023308D01*
X012128Y023308D01*
X012101Y023243D01*
X012072Y023172D01*
X012072Y023172D01*
X012018Y023119D01*
X011933Y023033D01*
X011933Y022928D01*
X011680Y022675D01*
X011638Y022675D01*
X011618Y022642D01*
X011531Y022554D01*
X011261Y022824D01*
X011255Y022819D01*
X011525Y022548D01*
X011437Y022461D01*
X011404Y022441D01*
X011404Y022399D01*
X011151Y022146D01*
X011139Y022146D01*
X011301Y021985D01*
X011301Y021997D01*
X011553Y022250D01*
X011694Y022250D01*
X012128Y021816D01*
X012128Y021763D01*
X012516Y021763D01*
X012585Y021832D01*
X012592Y021836D01*
X012738Y021981D01*
X012755Y021981D01*
X012594Y022142D01*
X012404Y021951D01*
X012263Y021951D01*
X011830Y022385D01*
X011830Y022526D01*
X012082Y022779D01*
X012117Y022779D01*
X012201Y022863D01*
X012201Y022890D01*
X012201Y022890D01*
X012201Y022930D01*
X012201Y023001D01*
X012224Y023056D01*
X012258Y023137D01*
X012371Y023250D01*
X012371Y023321D01*
X012880Y023830D01*
X013021Y023830D01*
X013474Y023376D01*
X013474Y023236D01*
X013011Y022772D01*
X013329Y022454D01*
X013352Y022454D01*
X013444Y022362D01*
X013542Y022362D01*
X013678Y022306D01*
X013979Y022005D01*
X014022Y021987D01*
X014132Y021878D01*
X014191Y021735D01*
X014191Y021581D01*
X014132Y021438D01*
X014022Y021329D01*
X013880Y021270D01*
X013725Y021270D01*
X013583Y021329D01*
X013474Y021438D01*
X013455Y021482D01*
X013366Y021571D01*
X013324Y021530D01*
X013312Y021530D01*
X014507Y020335D01*
X016652Y020335D01*
X016788Y020278D01*
X017361Y019705D01*
X017747Y019705D01*
X017747Y019848D01*
X017702Y019893D01*
X017645Y020029D01*
X017645Y022726D01*
X017702Y022862D01*
X017806Y022966D01*
X018432Y023592D01*
X018312Y023592D01*
X018169Y023652D01*
X018060Y023761D01*
X018001Y023903D01*
X018001Y024058D01*
X018060Y024200D01*
X018159Y024299D01*
X018159Y025237D01*
X020521Y027599D01*
X020656Y027734D01*
X021742Y027734D01*
X021842Y027635D01*
X021896Y027689D01*
X022037Y027689D01*
X022289Y027436D01*
X022289Y027394D01*
X022323Y027375D01*
X022411Y027287D01*
X022140Y027017D01*
X022146Y027011D01*
X022416Y027281D01*
X022504Y027194D01*
X022523Y027160D01*
X022566Y027160D01*
X022726Y027000D01*
X022730Y026998D01*
X022851Y026878D01*
X023479Y026878D01*
X023693Y027092D01*
X023834Y027092D01*
X024343Y026583D01*
X024343Y026517D01*
X024577Y026283D01*
X024601Y026293D01*
X024719Y026293D01*
X024827Y026248D01*
X026570Y024505D01*
X026615Y024396D01*
X026615Y024279D01*
X026570Y024170D01*
X025955Y023555D01*
X025846Y023510D01*
X025729Y023510D01*
X025620Y023555D01*
X023877Y025298D01*
X023832Y025406D01*
X023832Y025524D01*
X023877Y025632D01*
X024029Y025784D01*
X023824Y025989D01*
X023749Y025989D01*
X023600Y026138D01*
X022771Y026138D01*
X022771Y026138D01*
X022698Y026138D01*
X022624Y026138D01*
X022624Y026138D01*
X022553Y026167D01*
X022488Y026194D01*
X022488Y026194D01*
X022434Y026248D01*
X022384Y026298D01*
X022384Y026298D01*
X022349Y026333D01*
X022244Y026333D01*
X021991Y026586D01*
X021991Y026628D01*
X021958Y026647D01*
X021870Y026735D01*
X022140Y027005D01*
X022134Y027011D01*
X021864Y026741D01*
X021777Y026828D01*
X021757Y026862D01*
X021715Y026862D01*
X021462Y027115D01*
X021462Y027255D01*
X021481Y027274D01*
X020847Y027274D01*
X018619Y025047D01*
X018619Y024299D01*
X018718Y024200D01*
X018777Y024058D01*
X018777Y023937D01*
X020372Y025532D01*
X020372Y025556D01*
X020639Y025823D01*
X020639Y026265D01*
X020639Y026350D01*
X020639Y026350D01*
X020703Y026414D01*
X020738Y026449D01*
X020738Y026531D01*
X021172Y026965D01*
X021313Y026965D01*
X021566Y026712D01*
X021566Y026572D01*
X022004Y026572D01*
X021934Y026671D02*
X021566Y026671D01*
X021566Y026572D02*
X021132Y026138D01*
X021079Y026138D01*
X021079Y025750D01*
X021148Y025681D01*
X021151Y025673D01*
X021297Y025528D01*
X021297Y025510D01*
X021458Y025671D01*
X021267Y025862D01*
X021267Y026003D01*
X021701Y026436D01*
X021842Y026436D01*
X022095Y026183D01*
X022095Y026149D01*
X022179Y026064D01*
X022240Y026064D01*
X022317Y026064D01*
X022317Y026064D01*
X022378Y026039D01*
X022453Y026008D01*
X022453Y026008D01*
X022507Y025954D01*
X022557Y025904D01*
X022557Y025904D01*
X022566Y025895D01*
X022637Y025895D01*
X023145Y025386D01*
X023145Y025245D01*
X022692Y024792D01*
X022551Y024792D01*
X022088Y025255D01*
X021770Y024937D01*
X021770Y024914D01*
X021639Y024782D01*
X021622Y024741D01*
X021187Y024306D01*
X021169Y024263D01*
X021060Y024154D01*
X020917Y024094D01*
X020763Y024094D01*
X020620Y024154D01*
X020511Y024263D01*
X020452Y024405D01*
X020452Y024560D01*
X020456Y024569D01*
X018385Y022499D01*
X018385Y020233D01*
X018471Y020233D01*
X018471Y020586D01*
X018539Y020751D01*
X018725Y020937D01*
X018890Y021005D01*
X019069Y021005D01*
X019235Y020937D01*
X019361Y020810D01*
X019430Y020645D01*
X019430Y020466D01*
X019371Y020323D01*
X019371Y020233D01*
X019816Y020233D01*
X019871Y020256D01*
X020342Y020256D01*
X023168Y023082D01*
X023454Y023493D01*
X022764Y024184D01*
X022719Y024293D01*
X022719Y024410D01*
X022764Y024519D01*
X023379Y025134D01*
X023488Y025179D01*
X023605Y025179D01*
X023714Y025134D01*
X025457Y023391D01*
X025502Y023283D01*
X025502Y023165D01*
X025457Y023057D01*
X024841Y022441D01*
X024733Y022396D01*
X024615Y022396D01*
X024507Y022441D01*
X023986Y022962D01*
X023779Y022665D01*
X023767Y022634D01*
X023738Y022605D01*
X023714Y022572D01*
X023686Y022553D01*
X021074Y019941D01*
X021398Y019941D01*
X021442Y019959D01*
X021596Y019959D01*
X021739Y019900D01*
X021848Y019791D01*
X021907Y019648D01*
X021907Y019494D01*
X021848Y019351D01*
X021739Y019242D01*
X021596Y019183D01*
X021442Y019183D01*
X021398Y019201D01*
X021161Y019201D01*
X021104Y019145D01*
X021000Y019041D01*
X020864Y018985D01*
X020798Y018985D01*
X021301Y018482D01*
X021358Y018346D01*
X021358Y015285D01*
X022678Y014048D01*
X023304Y014674D01*
X023412Y014719D01*
X023530Y014719D01*
X023638Y014674D01*
X024254Y014058D01*
X024299Y013950D01*
X024299Y013832D01*
X024254Y013723D01*
X022511Y011980D01*
X022402Y011935D01*
X022285Y011935D01*
X022176Y011980D01*
X021561Y012596D01*
X021516Y012705D01*
X021516Y012822D01*
X021561Y012931D01*
X022155Y013525D01*
X020784Y014809D01*
X020778Y014811D01*
X020730Y014859D01*
X020681Y014905D01*
X020678Y014911D01*
X020674Y014915D01*
X020648Y014978D01*
X020620Y015039D01*
X020620Y015046D01*
X020618Y015051D01*
X020618Y015119D01*
X020615Y015186D01*
X020618Y015192D01*
X020618Y018119D01*
X020263Y018473D01*
X020055Y018473D01*
X020055Y018330D01*
X020120Y018265D01*
X020177Y018129D01*
X020177Y017529D01*
X020120Y017393D01*
X020016Y017289D01*
X019622Y016895D01*
X019486Y016839D01*
X018294Y016839D01*
X018250Y016821D01*
X019714Y016821D01*
X019733Y016919D02*
X019647Y016919D01*
X019745Y017018D02*
X019775Y017018D01*
X019844Y017116D02*
X019874Y017116D01*
X019942Y017215D02*
X020618Y017215D01*
X020618Y017313D02*
X020041Y017313D01*
X020128Y017412D02*
X020618Y017412D01*
X020618Y017510D02*
X020169Y017510D01*
X020177Y017609D02*
X020618Y017609D01*
X020618Y017707D02*
X020177Y017707D01*
X020177Y017806D02*
X020618Y017806D01*
X020618Y017904D02*
X020177Y017904D01*
X020177Y018003D02*
X020618Y018003D01*
X020618Y018101D02*
X020177Y018101D01*
X020147Y018200D02*
X020536Y018200D01*
X020438Y018298D02*
X020087Y018298D01*
X020055Y018397D02*
X020339Y018397D01*
X019964Y018843D02*
X019747Y018843D01*
X019747Y019315D02*
X019944Y019315D01*
X019925Y019866D02*
X019747Y019866D01*
X019925Y019866D02*
X019944Y019886D01*
X020355Y020268D02*
X019371Y020268D01*
X019389Y020367D02*
X020453Y020367D01*
X020552Y020465D02*
X019430Y020465D01*
X019430Y020564D02*
X020650Y020564D01*
X020749Y020662D02*
X019423Y020662D01*
X019382Y020761D02*
X020847Y020761D01*
X020946Y020859D02*
X019312Y020859D01*
X019184Y020958D02*
X021044Y020958D01*
X021143Y021056D02*
X018385Y021056D01*
X018385Y020958D02*
X018776Y020958D01*
X018647Y020859D02*
X018385Y020859D01*
X018385Y020761D02*
X018549Y020761D01*
X018502Y020662D02*
X018385Y020662D01*
X018385Y020564D02*
X018471Y020564D01*
X018471Y020465D02*
X018385Y020465D01*
X018385Y020367D02*
X018471Y020367D01*
X018471Y020268D02*
X018385Y020268D01*
X018055Y020063D02*
X018055Y019866D01*
X018055Y020063D02*
X018015Y020103D01*
X017668Y019973D02*
X017093Y019973D01*
X016995Y020071D02*
X017645Y020071D01*
X017645Y020170D02*
X016896Y020170D01*
X016798Y020268D02*
X017645Y020268D01*
X017645Y020367D02*
X014475Y020367D01*
X014376Y020465D02*
X017645Y020465D01*
X017645Y020564D02*
X014278Y020564D01*
X014179Y020662D02*
X017645Y020662D01*
X017645Y020761D02*
X014081Y020761D01*
X013982Y020859D02*
X017645Y020859D01*
X017645Y020958D02*
X013884Y020958D01*
X013785Y021056D02*
X016670Y021056D01*
X016693Y021033D02*
X016584Y021143D01*
X016525Y021285D01*
X016525Y021440D01*
X016543Y021483D01*
X016543Y022649D01*
X014770Y024117D01*
X014117Y023464D01*
X014008Y023419D01*
X013891Y023419D01*
X013782Y023464D01*
X013166Y024079D01*
X013121Y024188D01*
X013121Y024305D01*
X013166Y024414D01*
X014909Y026157D01*
X015018Y026202D01*
X015136Y026202D01*
X015244Y026157D01*
X015860Y025541D01*
X015905Y025433D01*
X015905Y025315D01*
X015860Y025207D01*
X015296Y024643D01*
X017106Y023144D01*
X017122Y023137D01*
X017162Y023097D01*
X017205Y023061D01*
X017214Y023045D01*
X017226Y023033D01*
X017248Y022981D01*
X017274Y022931D01*
X017276Y022913D01*
X017283Y022897D01*
X017283Y022841D01*
X017288Y022785D01*
X017283Y022768D01*
X017283Y021483D01*
X017301Y021440D01*
X017301Y021285D01*
X017242Y021143D01*
X017133Y021033D01*
X016990Y020974D01*
X016836Y020974D01*
X016693Y021033D01*
X016579Y021155D02*
X013687Y021155D01*
X013588Y021253D02*
X016538Y021253D01*
X016525Y021352D02*
X014046Y021352D01*
X014137Y021450D02*
X016529Y021450D01*
X016543Y021549D02*
X014178Y021549D01*
X014191Y021647D02*
X016543Y021647D01*
X016543Y021746D02*
X014186Y021746D01*
X014145Y021844D02*
X016543Y021844D01*
X016543Y021943D02*
X014066Y021943D01*
X013942Y022041D02*
X016543Y022041D01*
X016543Y022140D02*
X013844Y022140D01*
X013745Y022238D02*
X016543Y022238D01*
X016543Y022337D02*
X013603Y022337D01*
X013371Y022435D02*
X016543Y022435D01*
X016543Y022534D02*
X013249Y022534D01*
X013150Y022632D02*
X016543Y022632D01*
X016444Y022731D02*
X013052Y022731D01*
X013068Y022829D02*
X016325Y022829D01*
X016206Y022928D02*
X013166Y022928D01*
X013265Y023026D02*
X016087Y023026D01*
X015968Y023125D02*
X013363Y023125D01*
X013462Y023223D02*
X015849Y023223D01*
X015730Y023322D02*
X013474Y023322D01*
X013430Y023420D02*
X013886Y023420D01*
X014013Y023420D02*
X015611Y023420D01*
X015492Y023519D02*
X014172Y023519D01*
X014271Y023617D02*
X015374Y023617D01*
X015255Y023716D02*
X014369Y023716D01*
X014468Y023814D02*
X015136Y023814D01*
X015017Y023913D02*
X014566Y023913D01*
X014665Y024011D02*
X014898Y024011D01*
X014779Y024110D02*
X014763Y024110D01*
X015344Y024602D02*
X018159Y024602D01*
X018159Y024504D02*
X015463Y024504D01*
X015582Y024405D02*
X018159Y024405D01*
X018159Y024307D02*
X015701Y024307D01*
X015820Y024208D02*
X018068Y024208D01*
X018023Y024110D02*
X015939Y024110D01*
X016058Y024011D02*
X018001Y024011D01*
X018001Y023913D02*
X016177Y023913D01*
X016296Y023814D02*
X018038Y023814D01*
X018105Y023716D02*
X016415Y023716D01*
X016534Y023617D02*
X018252Y023617D01*
X018359Y023519D02*
X016653Y023519D01*
X016772Y023420D02*
X018260Y023420D01*
X018162Y023322D02*
X016891Y023322D01*
X017010Y023223D02*
X018063Y023223D01*
X017965Y023125D02*
X017134Y023125D01*
X017229Y023026D02*
X017866Y023026D01*
X017768Y022928D02*
X017275Y022928D01*
X017284Y022829D02*
X017688Y022829D01*
X017647Y022731D02*
X017283Y022731D01*
X017283Y022632D02*
X017645Y022632D01*
X017645Y022534D02*
X017283Y022534D01*
X017283Y022435D02*
X017645Y022435D01*
X017645Y022337D02*
X017283Y022337D01*
X017283Y022238D02*
X017645Y022238D01*
X017645Y022140D02*
X017283Y022140D01*
X017283Y022041D02*
X017645Y022041D01*
X017645Y021943D02*
X017283Y021943D01*
X017283Y021844D02*
X017645Y021844D01*
X017645Y021746D02*
X017283Y021746D01*
X017283Y021647D02*
X017645Y021647D01*
X017645Y021549D02*
X017283Y021549D01*
X017297Y021450D02*
X017645Y021450D01*
X017645Y021352D02*
X017301Y021352D01*
X017288Y021253D02*
X017645Y021253D01*
X017645Y021155D02*
X017247Y021155D01*
X017156Y021056D02*
X017645Y021056D01*
X018385Y021155D02*
X021241Y021155D01*
X021340Y021253D02*
X018385Y021253D01*
X018385Y021352D02*
X021438Y021352D01*
X021537Y021450D02*
X018385Y021450D01*
X018385Y021549D02*
X021635Y021549D01*
X021734Y021647D02*
X018385Y021647D01*
X018385Y021746D02*
X021832Y021746D01*
X021931Y021844D02*
X018385Y021844D01*
X018385Y021943D02*
X022029Y021943D01*
X022128Y022041D02*
X018385Y022041D01*
X018385Y022140D02*
X022226Y022140D01*
X022325Y022238D02*
X018385Y022238D01*
X018385Y022337D02*
X022423Y022337D01*
X022522Y022435D02*
X018385Y022435D01*
X018420Y022534D02*
X022620Y022534D01*
X022719Y022632D02*
X018519Y022632D01*
X018617Y022731D02*
X022817Y022731D01*
X022916Y022829D02*
X018716Y022829D01*
X018814Y022928D02*
X023014Y022928D01*
X023113Y023026D02*
X018913Y023026D01*
X019011Y023125D02*
X023198Y023125D01*
X023267Y023223D02*
X019110Y023223D01*
X019208Y023322D02*
X023335Y023322D01*
X023404Y023420D02*
X019307Y023420D01*
X019405Y023519D02*
X023429Y023519D01*
X023330Y023617D02*
X019504Y023617D01*
X019602Y023716D02*
X023232Y023716D01*
X023133Y023814D02*
X019701Y023814D01*
X019799Y023913D02*
X023035Y023913D01*
X022936Y024011D02*
X019898Y024011D01*
X019996Y024110D02*
X020726Y024110D01*
X020565Y024208D02*
X020095Y024208D01*
X020193Y024307D02*
X020493Y024307D01*
X020452Y024405D02*
X020292Y024405D01*
X020390Y024504D02*
X020452Y024504D01*
X020954Y024110D02*
X022838Y024110D01*
X022754Y024208D02*
X021115Y024208D01*
X021188Y024307D02*
X022719Y024307D01*
X022719Y024405D02*
X021286Y024405D01*
X021385Y024504D02*
X022757Y024504D01*
X022847Y024602D02*
X021483Y024602D01*
X021582Y024701D02*
X022946Y024701D01*
X023044Y024799D02*
X022700Y024799D01*
X022798Y024898D02*
X023143Y024898D01*
X023241Y024996D02*
X022897Y024996D01*
X022995Y025095D02*
X023340Y025095D01*
X023094Y025193D02*
X023981Y025193D01*
X024080Y025095D02*
X023753Y025095D01*
X023852Y024996D02*
X024178Y024996D01*
X024277Y024898D02*
X023950Y024898D01*
X024049Y024799D02*
X024375Y024799D01*
X024474Y024701D02*
X024147Y024701D01*
X024246Y024602D02*
X024572Y024602D01*
X024671Y024504D02*
X024344Y024504D01*
X024443Y024405D02*
X024769Y024405D01*
X024868Y024307D02*
X024541Y024307D01*
X024640Y024208D02*
X024966Y024208D01*
X025065Y024110D02*
X024738Y024110D01*
X024837Y024011D02*
X025163Y024011D01*
X025262Y023913D02*
X024935Y023913D01*
X025034Y023814D02*
X025360Y023814D01*
X025459Y023716D02*
X025132Y023716D01*
X025231Y023617D02*
X025557Y023617D01*
X025706Y023519D02*
X025329Y023519D01*
X025428Y023420D02*
X027248Y023420D01*
X027300Y023322D02*
X025486Y023322D01*
X025502Y023223D02*
X027351Y023223D01*
X027403Y023125D02*
X025485Y023125D01*
X025427Y023026D02*
X027455Y023026D01*
X027496Y022947D02*
X027900Y021883D01*
X028172Y020778D01*
X028309Y019648D01*
X028327Y019079D01*
X028309Y018510D01*
X028172Y017380D01*
X027900Y016275D01*
X027496Y015211D01*
X026967Y014203D01*
X026568Y013624D01*
X026568Y013730D01*
X026354Y013944D01*
X026354Y014572D01*
X026474Y014692D01*
X026476Y014697D01*
X026636Y014857D01*
X026636Y014899D01*
X026670Y014919D01*
X026757Y015006D01*
X026487Y015276D01*
X026493Y015282D01*
X026763Y015012D01*
X026851Y015100D01*
X026870Y015133D01*
X026912Y015133D01*
X027165Y015386D01*
X027165Y015527D01*
X027044Y015647D01*
X027044Y016477D01*
X027143Y016576D01*
X027203Y016718D01*
X027203Y016873D01*
X027143Y017015D01*
X027034Y017125D01*
X026892Y017184D01*
X026737Y017184D01*
X026595Y017125D01*
X026485Y017015D01*
X026426Y016873D01*
X026426Y016718D01*
X026485Y016576D01*
X026584Y016477D01*
X026584Y015954D01*
X026338Y015708D01*
X026338Y015665D01*
X026304Y015646D01*
X026217Y015558D01*
X026487Y015288D01*
X026481Y015282D01*
X026211Y015552D01*
X026123Y015465D01*
X026104Y015431D01*
X026062Y015431D01*
X025809Y015179D01*
X025809Y015074D01*
X025774Y015039D01*
X025672Y014937D01*
X025670Y014935D01*
X025670Y014935D01*
X025638Y014857D01*
X025614Y014799D01*
X025614Y013823D01*
X025465Y013674D01*
X025465Y013598D01*
X025229Y013363D01*
X024949Y013363D01*
X024752Y013560D01*
X024643Y013605D01*
X024526Y013605D01*
X024417Y013560D01*
X022674Y011817D01*
X022629Y011709D01*
X022629Y011591D01*
X022674Y011482D01*
X023290Y010867D01*
X023398Y010822D01*
X023414Y010822D01*
X022769Y010484D01*
X021705Y010080D01*
X020923Y009887D01*
X020923Y010289D01*
X020961Y010327D01*
X020961Y010563D01*
X021294Y010563D01*
X021394Y010662D01*
X021394Y011669D01*
X021294Y011769D01*
X020209Y011769D01*
X020109Y011669D01*
X020109Y010569D01*
X017693Y010569D01*
X017693Y010699D01*
X018264Y010699D01*
X018364Y010798D01*
X018364Y011375D01*
X018336Y011403D02*
X020109Y011403D01*
X020109Y011305D02*
X018364Y011305D01*
X018364Y011206D02*
X020109Y011206D01*
X020109Y011108D02*
X018364Y011108D01*
X018364Y011009D02*
X020109Y011009D01*
X020109Y010911D02*
X018364Y010911D01*
X018364Y010812D02*
X020109Y010812D01*
X020109Y010714D02*
X018279Y010714D01*
X017693Y010615D02*
X020109Y010615D01*
X020961Y010517D02*
X022832Y010517D01*
X023020Y010615D02*
X021347Y010615D01*
X021394Y010714D02*
X023208Y010714D01*
X023246Y010911D02*
X021394Y010911D01*
X021394Y011009D02*
X023147Y011009D01*
X023049Y011108D02*
X021394Y011108D01*
X021394Y011206D02*
X022950Y011206D01*
X022852Y011305D02*
X021394Y011305D01*
X021394Y011403D02*
X022753Y011403D01*
X022666Y011502D02*
X021394Y011502D01*
X021394Y011600D02*
X022629Y011600D01*
X022629Y011699D02*
X021364Y011699D01*
X021867Y012290D02*
X020498Y012290D01*
X020497Y012289D02*
X020508Y012327D01*
X020508Y012475D01*
X020190Y012475D01*
X020190Y012197D01*
X020377Y012197D01*
X020416Y012207D01*
X020450Y012227D01*
X020478Y012255D01*
X020497Y012289D01*
X020508Y012388D02*
X021768Y012388D01*
X021670Y012487D02*
X020190Y012487D01*
X020190Y012388D02*
X020132Y012388D01*
X020132Y012290D02*
X020190Y012290D01*
X019987Y012191D02*
X021965Y012191D01*
X022064Y012093D02*
X019946Y012093D01*
X020016Y011994D02*
X022162Y011994D01*
X022525Y011994D02*
X022851Y011994D01*
X022753Y011896D02*
X020016Y011896D01*
X020016Y011797D02*
X022666Y011797D01*
X022623Y012093D02*
X022950Y012093D01*
X023048Y012191D02*
X022722Y012191D01*
X022820Y012290D02*
X023147Y012290D01*
X023245Y012388D02*
X022919Y012388D01*
X023017Y012487D02*
X023344Y012487D01*
X023442Y012585D02*
X023116Y012585D01*
X023214Y012684D02*
X023541Y012684D01*
X023639Y012782D02*
X023313Y012782D01*
X023411Y012881D02*
X023738Y012881D01*
X023836Y012979D02*
X023510Y012979D01*
X023608Y013078D02*
X023935Y013078D01*
X024033Y013176D02*
X023707Y013176D01*
X023805Y013275D02*
X024132Y013275D01*
X024230Y013373D02*
X023904Y013373D01*
X024002Y013472D02*
X024329Y013472D01*
X024442Y013570D02*
X024101Y013570D01*
X024199Y013669D02*
X025465Y013669D01*
X025437Y013570D02*
X024727Y013570D01*
X024840Y013472D02*
X025339Y013472D01*
X025240Y013373D02*
X024939Y013373D01*
X025558Y013767D02*
X024272Y013767D01*
X024299Y013866D02*
X025614Y013866D01*
X025614Y013964D02*
X024293Y013964D01*
X024249Y014063D02*
X025614Y014063D01*
X025614Y014161D02*
X024151Y014161D01*
X024052Y014260D02*
X025614Y014260D01*
X025614Y014358D02*
X024943Y014358D01*
X024862Y014277D02*
X025371Y014786D01*
X025371Y014857D01*
X025483Y014968D01*
X025484Y014970D01*
X025484Y014970D01*
X025507Y015025D01*
X025541Y015106D01*
X025541Y015244D01*
X025625Y015328D01*
X025660Y015328D01*
X025912Y015581D01*
X025912Y015722D01*
X025479Y016155D01*
X025338Y016155D01*
X025147Y015965D01*
X024987Y016126D01*
X025004Y016126D01*
X025150Y016271D01*
X025157Y016274D01*
X025226Y016343D01*
X025614Y016343D01*
X025614Y016291D01*
X026048Y015857D01*
X026189Y015857D01*
X026441Y016110D01*
X026441Y016251D01*
X026008Y016684D01*
X025925Y016684D01*
X025826Y016783D01*
X025299Y016783D01*
X025032Y017050D01*
X025008Y017050D01*
X024739Y017320D01*
X024635Y017424D01*
X024499Y017480D01*
X022762Y017480D01*
X022718Y017499D01*
X022564Y017499D01*
X022421Y017440D01*
X022312Y017330D01*
X022253Y017188D01*
X022253Y017033D01*
X022312Y016891D01*
X022421Y016781D01*
X022564Y016722D01*
X022718Y016722D01*
X022762Y016740D01*
X023514Y016740D01*
X023474Y016700D01*
X023414Y016558D01*
X023414Y016403D01*
X023474Y016261D01*
X023583Y016152D01*
X023725Y016092D01*
X023880Y016092D01*
X023924Y016111D01*
X023955Y016111D01*
X024012Y016054D01*
X024012Y016030D01*
X024390Y015652D01*
X024413Y015652D01*
X024731Y015334D01*
X024268Y014871D01*
X024268Y014730D01*
X024721Y014277D01*
X024862Y014277D01*
X024640Y014358D02*
X023954Y014358D01*
X023855Y014457D02*
X024542Y014457D01*
X024443Y014555D02*
X023757Y014555D01*
X023658Y014654D02*
X024345Y014654D01*
X024268Y014752D02*
X021927Y014752D01*
X022032Y014654D02*
X023284Y014654D01*
X023185Y014555D02*
X022137Y014555D01*
X022242Y014457D02*
X023087Y014457D01*
X022988Y014358D02*
X022347Y014358D01*
X022452Y014260D02*
X022890Y014260D01*
X022791Y014161D02*
X022558Y014161D01*
X022663Y014063D02*
X022693Y014063D01*
X022106Y013570D02*
X020129Y013570D01*
X020120Y013565D02*
X020155Y013585D01*
X020182Y013613D01*
X020202Y013647D01*
X020212Y013685D01*
X020212Y013873D01*
X019934Y013873D01*
X019934Y013555D01*
X020082Y013555D01*
X020120Y013565D01*
X020142Y013472D02*
X022102Y013472D01*
X022003Y013373D02*
X020232Y013373D01*
X020232Y013275D02*
X021905Y013275D01*
X021806Y013176D02*
X020232Y013176D01*
X020232Y013078D02*
X021708Y013078D01*
X021609Y012979D02*
X020232Y012979D01*
X020232Y012881D02*
X021540Y012881D01*
X021516Y012782D02*
X020449Y012782D01*
X020507Y012684D02*
X021524Y012684D01*
X021571Y012585D02*
X020508Y012585D01*
X019905Y013114D02*
X019767Y012977D01*
X019600Y012977D01*
X019492Y013085D01*
X019767Y012977D02*
X019767Y012268D01*
X019590Y012091D01*
X019590Y011796D01*
X019393Y011796D02*
X019393Y012485D01*
X019373Y012504D01*
X019373Y012642D01*
X019196Y012819D01*
X019196Y013065D01*
X019177Y013085D01*
X018862Y013085D02*
X018842Y013065D01*
X018842Y012819D01*
X018684Y012662D01*
X018684Y012504D01*
X018763Y012504D01*
X019196Y012071D01*
X019196Y011796D01*
X018999Y011796D02*
X018999Y011992D01*
X018842Y012150D01*
X018389Y012150D01*
X018271Y012268D01*
X018271Y012937D01*
X018399Y012937D01*
X018547Y013085D01*
X018271Y012937D02*
X018094Y013114D01*
X017766Y012979D02*
X017699Y012979D01*
X017766Y012881D02*
X017601Y012881D01*
X017609Y012782D02*
X017502Y012782D01*
X017551Y012684D02*
X017404Y012684D01*
X017305Y012585D02*
X017550Y012585D01*
X017550Y012475D02*
X017550Y012327D01*
X017560Y012289D01*
X017580Y012255D01*
X017608Y012227D01*
X017642Y012207D01*
X017680Y012197D01*
X017868Y012197D01*
X017868Y012475D01*
X017550Y012475D01*
X017550Y012388D02*
X017108Y012388D01*
X017010Y012290D02*
X017560Y012290D01*
X017868Y012290D02*
X017926Y012290D01*
X017926Y012388D02*
X017868Y012388D01*
X017868Y012487D02*
X017207Y012487D01*
X016880Y012782D02*
X016553Y012782D01*
X016454Y012684D02*
X016781Y012684D01*
X016683Y012585D02*
X016412Y012585D01*
X016412Y012487D02*
X016584Y012487D01*
X016486Y012388D02*
X016412Y012388D01*
X016412Y012408D02*
X016412Y012408D01*
X016192Y012317D02*
X016192Y012985D01*
X015970Y012684D02*
X015681Y012684D01*
X015718Y012585D02*
X015972Y012585D01*
X015972Y012487D02*
X015698Y012487D01*
X015664Y012388D02*
X015952Y012388D01*
X015772Y012290D02*
X015623Y012290D01*
X015673Y012191D02*
X015532Y012191D01*
X015575Y012093D02*
X015304Y012093D01*
X015123Y012093D02*
X014825Y012093D01*
X014923Y011994D02*
X015476Y011994D01*
X015419Y011896D02*
X014994Y011896D01*
X015092Y011797D02*
X015419Y011797D01*
X015517Y011699D02*
X015190Y011699D01*
X015051Y011699D02*
X015039Y011699D01*
X014953Y011600D02*
X014941Y011600D01*
X014854Y011502D02*
X014847Y011502D01*
X014845Y011498D02*
X014590Y011244D01*
X014645Y011305D02*
X014657Y011305D01*
X014744Y011403D02*
X014756Y011403D01*
X014696Y011108D02*
X013887Y011108D01*
X014031Y011009D02*
X014759Y011009D01*
X014858Y010911D02*
X014219Y010911D01*
X014406Y010812D02*
X016408Y010812D01*
X016408Y010714D02*
X014594Y010714D01*
X014782Y010615D02*
X016455Y010615D01*
X016841Y010517D02*
X014970Y010517D01*
X015205Y010418D02*
X016841Y010418D01*
X016849Y010320D02*
X015465Y010320D01*
X015724Y010221D02*
X016879Y010221D01*
X016879Y010123D02*
X015984Y010123D01*
X016323Y010024D02*
X016879Y010024D01*
X016879Y009926D02*
X016723Y009926D01*
X015585Y011502D02*
X015416Y011502D01*
X015317Y011600D02*
X015616Y011600D01*
X015988Y011579D02*
X017897Y013488D01*
X018291Y013488D01*
X018409Y013370D01*
X019413Y013370D01*
X019492Y013449D01*
X019492Y013695D01*
X019177Y013695D02*
X019177Y013941D01*
X019196Y013961D01*
X019255Y013961D01*
X019373Y014079D01*
X019551Y014079D01*
X019590Y014118D01*
X019590Y014414D01*
X019728Y014551D01*
X019728Y016461D01*
X020102Y016796D01*
X020380Y016525D02*
X020618Y016525D01*
X020618Y016427D02*
X020226Y016427D01*
X019948Y016328D02*
X020618Y016328D01*
X020618Y016230D02*
X019948Y016230D01*
X019948Y016131D02*
X020618Y016131D01*
X020618Y016033D02*
X019948Y016033D01*
X019948Y015934D02*
X020618Y015934D01*
X020618Y015836D02*
X019948Y015836D01*
X019948Y015737D02*
X020618Y015737D01*
X020618Y015639D02*
X019948Y015639D01*
X019948Y015540D02*
X020618Y015540D01*
X020618Y015442D02*
X019948Y015442D01*
X019948Y015343D02*
X020618Y015343D01*
X020618Y015245D02*
X019948Y015245D01*
X019948Y015146D02*
X020617Y015146D01*
X020619Y015048D02*
X019948Y015048D01*
X019948Y014949D02*
X020660Y014949D01*
X020738Y014851D02*
X019948Y014851D01*
X019948Y014752D02*
X020844Y014752D01*
X020949Y014654D02*
X019948Y014654D01*
X019948Y014555D02*
X021054Y014555D01*
X021160Y014457D02*
X019944Y014457D01*
X019846Y014358D02*
X021265Y014358D01*
X021370Y014260D02*
X019810Y014260D01*
X019876Y014161D02*
X019934Y014161D01*
X019934Y014249D02*
X019934Y013931D01*
X020212Y013931D01*
X020212Y014118D01*
X020202Y014157D01*
X020182Y014191D01*
X020155Y014219D01*
X020120Y014238D01*
X020082Y014249D01*
X019934Y014249D01*
X019934Y014063D02*
X019876Y014063D01*
X019876Y013964D02*
X019934Y013964D01*
X019934Y013866D02*
X019876Y013866D01*
X019876Y013767D02*
X019934Y013767D01*
X019934Y013669D02*
X019876Y013669D01*
X019876Y013570D02*
X019934Y013570D01*
X020208Y013669D02*
X022001Y013669D01*
X021896Y013767D02*
X020212Y013767D01*
X020212Y013866D02*
X021791Y013866D01*
X021685Y013964D02*
X020212Y013964D01*
X020212Y014063D02*
X021580Y014063D01*
X021475Y014161D02*
X020199Y014161D01*
X019508Y014752D02*
X019466Y014752D01*
X019508Y014851D02*
X019053Y014851D01*
X019034Y014949D02*
X019508Y014949D01*
X019508Y015048D02*
X018993Y015048D01*
X018894Y015146D02*
X019508Y015146D01*
X019508Y015245D02*
X017578Y015245D01*
X017578Y015343D02*
X019508Y015343D01*
X019508Y015442D02*
X017578Y015442D01*
X017578Y015540D02*
X019508Y015540D01*
X019508Y015639D02*
X017578Y015639D01*
X017578Y015737D02*
X019508Y015737D01*
X019508Y015836D02*
X017578Y015836D01*
X017578Y015934D02*
X019508Y015934D01*
X019508Y016033D02*
X017578Y016033D01*
X017578Y016131D02*
X019508Y016131D01*
X019508Y016230D02*
X017578Y016230D01*
X017578Y016328D02*
X019508Y016328D01*
X019506Y016427D02*
X017578Y016427D01*
X017578Y016525D02*
X019508Y016525D01*
X019580Y016624D02*
X017578Y016624D01*
X017578Y016722D02*
X019690Y016722D01*
X020330Y017116D02*
X020618Y017116D01*
X020618Y017018D02*
X020428Y017018D01*
X020471Y016919D02*
X020618Y016919D01*
X020618Y016821D02*
X020490Y016821D01*
X020490Y016722D02*
X020618Y016722D01*
X020618Y016624D02*
X020451Y016624D01*
X021358Y016624D02*
X023442Y016624D01*
X023414Y016525D02*
X021358Y016525D01*
X021358Y016427D02*
X023414Y016427D01*
X023446Y016328D02*
X021358Y016328D01*
X021358Y016230D02*
X023504Y016230D01*
X023632Y016131D02*
X021358Y016131D01*
X021358Y016033D02*
X024012Y016033D01*
X024108Y015934D02*
X021358Y015934D01*
X021358Y015836D02*
X024207Y015836D01*
X024305Y015737D02*
X021358Y015737D01*
X021358Y015639D02*
X024427Y015639D01*
X024525Y015540D02*
X021358Y015540D01*
X021358Y015442D02*
X024624Y015442D01*
X024722Y015343D02*
X021358Y015343D01*
X021401Y015245D02*
X024642Y015245D01*
X024543Y015146D02*
X021506Y015146D01*
X021611Y015048D02*
X024445Y015048D01*
X024346Y014949D02*
X021716Y014949D01*
X021821Y014851D02*
X024268Y014851D01*
X025042Y014457D02*
X025614Y014457D01*
X025614Y014555D02*
X025140Y014555D01*
X025239Y014654D02*
X025614Y014654D01*
X025614Y014752D02*
X025337Y014752D01*
X025371Y014851D02*
X025635Y014851D01*
X025685Y014949D02*
X025464Y014949D01*
X025516Y015048D02*
X025783Y015048D01*
X025774Y015039D02*
X025774Y015039D01*
X025809Y015146D02*
X025541Y015146D01*
X025542Y015245D02*
X025875Y015245D01*
X025974Y015343D02*
X025675Y015343D01*
X025773Y015442D02*
X026110Y015442D01*
X026199Y015540D02*
X025872Y015540D01*
X025912Y015639D02*
X026297Y015639D01*
X026235Y015540D02*
X026223Y015540D01*
X026322Y015442D02*
X026333Y015442D01*
X026420Y015343D02*
X026432Y015343D01*
X026519Y015245D02*
X026530Y015245D01*
X026617Y015146D02*
X026629Y015146D01*
X026716Y015048D02*
X026727Y015048D01*
X026799Y015048D02*
X027411Y015048D01*
X027463Y015146D02*
X026926Y015146D01*
X027024Y015245D02*
X027509Y015245D01*
X027547Y015343D02*
X027123Y015343D01*
X027165Y015442D02*
X027584Y015442D01*
X027621Y015540D02*
X027151Y015540D01*
X027053Y015639D02*
X027659Y015639D01*
X027696Y015737D02*
X027044Y015737D01*
X027044Y015836D02*
X027733Y015836D01*
X027771Y015934D02*
X027044Y015934D01*
X027044Y016033D02*
X027808Y016033D01*
X027845Y016131D02*
X027044Y016131D01*
X027044Y016230D02*
X027883Y016230D01*
X027913Y016328D02*
X027044Y016328D01*
X027044Y016427D02*
X027937Y016427D01*
X027962Y016525D02*
X027093Y016525D01*
X027163Y016624D02*
X027986Y016624D01*
X028010Y016722D02*
X027203Y016722D01*
X027203Y016821D02*
X028034Y016821D01*
X028059Y016919D02*
X027183Y016919D01*
X027141Y017018D02*
X028083Y017018D01*
X028107Y017116D02*
X027042Y017116D01*
X026586Y017116D02*
X024942Y017116D01*
X024844Y017215D02*
X028132Y017215D01*
X028156Y017313D02*
X024745Y017313D01*
X024739Y017320D02*
X024739Y017320D01*
X024647Y017412D02*
X028176Y017412D01*
X028188Y017510D02*
X021358Y017510D01*
X021358Y017412D02*
X022394Y017412D01*
X022305Y017313D02*
X021358Y017313D01*
X021358Y017215D02*
X022264Y017215D01*
X022253Y017116D02*
X021358Y017116D01*
X021358Y017018D02*
X022259Y017018D01*
X022300Y016919D02*
X021358Y016919D01*
X021358Y016821D02*
X022382Y016821D01*
X021358Y016722D02*
X023495Y016722D01*
X024948Y016588D02*
X024972Y016563D01*
X025735Y016563D01*
X026028Y016271D01*
X026265Y016427D02*
X026584Y016427D01*
X026584Y016328D02*
X026363Y016328D01*
X026441Y016230D02*
X026584Y016230D01*
X026584Y016131D02*
X026441Y016131D01*
X026364Y016033D02*
X026584Y016033D01*
X026565Y015934D02*
X026266Y015934D01*
X026368Y015737D02*
X025897Y015737D01*
X025798Y015836D02*
X026466Y015836D01*
X025970Y015934D02*
X025700Y015934D01*
X025601Y016033D02*
X025872Y016033D01*
X025773Y016131D02*
X025503Y016131D01*
X025314Y016131D02*
X025010Y016131D01*
X025079Y016033D02*
X025215Y016033D01*
X025108Y016230D02*
X025675Y016230D01*
X025614Y016328D02*
X025211Y016328D01*
X025261Y016821D02*
X026426Y016821D01*
X026426Y016722D02*
X025887Y016722D01*
X026068Y016624D02*
X026465Y016624D01*
X026536Y016525D02*
X026166Y016525D01*
X026446Y016919D02*
X025163Y016919D01*
X025064Y017018D02*
X026488Y017018D01*
X026405Y018602D02*
X026965Y018602D01*
X026965Y018978D01*
X026275Y018978D01*
X026275Y018732D01*
X026285Y018694D01*
X026305Y018660D01*
X026333Y018632D01*
X026367Y018612D01*
X026405Y018602D01*
X026286Y018692D02*
X025886Y018692D01*
X025886Y018682D02*
X025886Y019374D01*
X025786Y019473D01*
X024464Y019473D01*
X024389Y019398D01*
X023953Y019398D01*
X023817Y019341D01*
X023804Y019328D01*
X023760Y019310D01*
X023651Y019200D01*
X023592Y019058D01*
X023592Y018903D01*
X023651Y018761D01*
X023760Y018652D01*
X023903Y018592D01*
X024057Y018592D01*
X024200Y018652D01*
X024206Y018658D01*
X024389Y018658D01*
X024464Y018582D01*
X025786Y018582D01*
X025886Y018682D01*
X025886Y018791D02*
X026275Y018791D01*
X026275Y018889D02*
X025886Y018889D01*
X025886Y018988D02*
X026965Y018988D01*
X026965Y018978D02*
X026965Y019078D01*
X026275Y019078D01*
X026275Y019323D01*
X026285Y019361D01*
X026305Y019396D01*
X026333Y019423D01*
X026367Y019443D01*
X026405Y019453D01*
X026965Y019453D01*
X026965Y019078D01*
X027065Y019078D01*
X027065Y019453D01*
X027625Y019453D01*
X027664Y019443D01*
X027698Y019423D01*
X027726Y019396D01*
X027746Y019361D01*
X027756Y019323D01*
X027756Y019078D01*
X027065Y019078D01*
X027065Y018978D01*
X027065Y018602D01*
X027625Y018602D01*
X027664Y018612D01*
X027698Y018632D01*
X027726Y018660D01*
X027746Y018694D01*
X027756Y018732D01*
X027756Y018978D01*
X027065Y018978D01*
X026965Y018978D01*
X026965Y018889D02*
X027065Y018889D01*
X027065Y018791D02*
X026965Y018791D01*
X026965Y018692D02*
X027065Y018692D01*
X027065Y018988D02*
X028324Y018988D01*
X028326Y019086D02*
X027756Y019086D01*
X027756Y019185D02*
X028323Y019185D01*
X028321Y019283D02*
X027756Y019283D01*
X027734Y019382D02*
X028318Y019382D01*
X028315Y019480D02*
X021902Y019480D01*
X021907Y019579D02*
X028312Y019579D01*
X028306Y019677D02*
X021895Y019677D01*
X021854Y019776D02*
X028294Y019776D01*
X028282Y019874D02*
X021765Y019874D01*
X021303Y020170D02*
X028246Y020170D01*
X028234Y020268D02*
X021401Y020268D01*
X021500Y020367D02*
X028222Y020367D01*
X028210Y020465D02*
X021598Y020465D01*
X021697Y020564D02*
X028198Y020564D01*
X028186Y020662D02*
X021795Y020662D01*
X021894Y020761D02*
X028174Y020761D01*
X028152Y020859D02*
X021992Y020859D01*
X022091Y020958D02*
X028128Y020958D01*
X028104Y021056D02*
X022189Y021056D01*
X022288Y021155D02*
X028079Y021155D01*
X028055Y021253D02*
X022386Y021253D01*
X022485Y021352D02*
X028031Y021352D01*
X028007Y021450D02*
X022583Y021450D01*
X022682Y021549D02*
X027982Y021549D01*
X027958Y021647D02*
X022780Y021647D01*
X022879Y021746D02*
X027934Y021746D01*
X027909Y021844D02*
X022977Y021844D01*
X023076Y021943D02*
X027877Y021943D01*
X027840Y022041D02*
X023174Y022041D01*
X023273Y022140D02*
X027803Y022140D01*
X027765Y022238D02*
X023371Y022238D01*
X023470Y022337D02*
X027728Y022337D01*
X027690Y022435D02*
X024828Y022435D01*
X024934Y022534D02*
X027653Y022534D01*
X027616Y022632D02*
X025033Y022632D01*
X025131Y022731D02*
X027578Y022731D01*
X027541Y022829D02*
X025230Y022829D01*
X025328Y022928D02*
X027504Y022928D01*
X027496Y022947D02*
X026967Y023955D01*
X026321Y024892D01*
X025566Y025744D01*
X024714Y026499D01*
X023777Y027145D01*
X022769Y027674D01*
X021705Y028078D01*
X020600Y028350D01*
X019470Y028487D01*
X018901Y028505D01*
X018901Y028505D01*
X018332Y028487D01*
X017202Y028350D01*
X016097Y028078D01*
X015033Y027674D01*
X014176Y027225D01*
X014746Y026655D01*
X014791Y026546D01*
X014791Y026429D01*
X014746Y026320D01*
X013003Y024577D01*
X012895Y024532D01*
X012777Y024532D01*
X012668Y024577D01*
X012507Y024739D01*
X012277Y024508D01*
X012277Y024433D01*
X012128Y024284D01*
X012151Y024307D02*
X013122Y024307D01*
X013121Y024208D02*
X012128Y024208D01*
X012128Y024110D02*
X013154Y024110D01*
X013234Y024011D02*
X012128Y024011D01*
X012128Y023913D02*
X013333Y023913D01*
X013431Y023814D02*
X013036Y023814D01*
X013134Y023716D02*
X013530Y023716D01*
X013628Y023617D02*
X013233Y023617D01*
X013331Y023519D02*
X013727Y023519D01*
X012865Y023814D02*
X012128Y023814D01*
X012128Y023716D02*
X012766Y023716D01*
X012668Y023617D02*
X012128Y023617D01*
X012128Y023519D02*
X012569Y023519D01*
X012471Y023420D02*
X012128Y023420D01*
X012128Y023322D02*
X012372Y023322D01*
X012344Y023223D02*
X012093Y023223D01*
X012072Y023172D02*
X012072Y023172D01*
X012025Y023125D02*
X012253Y023125D01*
X012212Y023026D02*
X011933Y023026D01*
X011933Y022928D02*
X012201Y022928D01*
X012201Y022890D02*
X012201Y022890D01*
X012201Y022890D01*
X012167Y022829D02*
X011834Y022829D01*
X011736Y022731D02*
X012034Y022731D01*
X011936Y022632D02*
X011609Y022632D01*
X011510Y022534D02*
X011837Y022534D01*
X011830Y022435D02*
X011404Y022435D01*
X011342Y022337D02*
X011878Y022337D01*
X011976Y022238D02*
X011705Y022238D01*
X011804Y022140D02*
X012075Y022140D01*
X012173Y022041D02*
X011902Y022041D01*
X012001Y021943D02*
X012700Y021943D01*
X012695Y022041D02*
X012494Y022041D01*
X012592Y022140D02*
X012596Y022140D01*
X012601Y021844D02*
X012099Y021844D01*
X012007Y021543D02*
X012770Y021543D01*
X012794Y021519D01*
X012513Y021253D02*
X012032Y021253D01*
X012131Y021155D02*
X012612Y021155D01*
X012426Y020859D02*
X012936Y020859D01*
X013034Y020761D02*
X012525Y020761D01*
X012623Y020662D02*
X013133Y020662D01*
X013231Y020564D02*
X012722Y020564D01*
X012820Y020465D02*
X013330Y020465D01*
X013428Y020367D02*
X012919Y020367D01*
X013017Y020268D02*
X013527Y020268D01*
X013625Y020170D02*
X013116Y020170D01*
X013214Y020071D02*
X013724Y020071D01*
X013822Y019973D02*
X013313Y019973D01*
X013411Y019874D02*
X013921Y019874D01*
X014019Y019776D02*
X013510Y019776D01*
X013608Y019677D02*
X014118Y019677D01*
X013694Y019480D02*
X016539Y019480D01*
X016441Y019579D02*
X013619Y019579D01*
X013749Y019382D02*
X016638Y019382D01*
X016736Y019283D02*
X013777Y019283D01*
X013777Y019185D02*
X016835Y019185D01*
X016161Y019086D02*
X013747Y019086D01*
X013689Y018988D02*
X016062Y018988D01*
X015964Y018889D02*
X013565Y018889D01*
X014913Y017510D02*
X009614Y017510D01*
X009626Y017412D02*
X014825Y017412D01*
X014745Y017313D02*
X009646Y017313D01*
X009670Y017215D02*
X014649Y017215D01*
X014552Y017116D02*
X009695Y017116D01*
X009719Y017018D02*
X014456Y017018D01*
X014359Y016919D02*
X009743Y016919D01*
X009768Y016821D02*
X014263Y016821D01*
X014166Y016722D02*
X009792Y016722D01*
X009816Y016624D02*
X014070Y016624D01*
X013973Y016525D02*
X009840Y016525D01*
X009865Y016427D02*
X013874Y016427D01*
X013774Y016328D02*
X012637Y016328D01*
X012736Y016230D02*
X013673Y016230D01*
X013573Y016131D02*
X012834Y016131D01*
X012933Y016033D02*
X013473Y016033D01*
X013373Y015934D02*
X013031Y015934D01*
X013130Y015836D02*
X013273Y015836D01*
X013827Y015343D02*
X016838Y015343D01*
X016838Y015245D02*
X013727Y015245D01*
X013819Y015146D02*
X016838Y015146D01*
X016838Y015048D02*
X013918Y015048D01*
X014016Y014949D02*
X016838Y014949D01*
X016838Y014851D02*
X014115Y014851D01*
X014213Y014752D02*
X016838Y014752D01*
X016838Y014654D02*
X014312Y014654D01*
X014363Y014555D02*
X016838Y014555D01*
X016838Y014457D02*
X014375Y014457D01*
X014353Y014358D02*
X015945Y014358D01*
X015777Y014260D02*
X014288Y014260D01*
X014190Y014161D02*
X015701Y014161D01*
X015606Y014063D02*
X014091Y014063D01*
X013993Y013964D02*
X015507Y013964D01*
X015409Y013866D02*
X014569Y013866D01*
X014667Y013767D02*
X015271Y013767D01*
X015172Y013669D02*
X014766Y013669D01*
X014864Y013570D02*
X015074Y013570D01*
X015171Y013668D02*
X015171Y013668D01*
X014975Y013472D02*
X014963Y013472D01*
X015529Y012979D02*
X015730Y012979D01*
X015777Y012881D02*
X015539Y012881D01*
X015618Y012802D02*
X015618Y012802D01*
X015626Y012782D02*
X015875Y012782D01*
X016192Y012317D02*
X015833Y011958D01*
X015025Y012191D02*
X014614Y012191D01*
X014515Y012290D02*
X014926Y012290D01*
X014890Y012388D02*
X014417Y012388D01*
X014318Y012487D02*
X014886Y012487D01*
X014783Y012585D02*
X013455Y012585D01*
X013357Y012684D02*
X014634Y012684D01*
X014592Y012725D02*
X014592Y012725D01*
X014535Y012782D02*
X013187Y012782D01*
X013089Y012881D02*
X014366Y012881D01*
X014267Y012979D02*
X013008Y012979D01*
X013106Y013078D02*
X014169Y013078D01*
X014070Y013176D02*
X013205Y013176D01*
X013252Y013275D02*
X013972Y013275D01*
X013887Y013373D02*
X013261Y013373D01*
X013237Y013472D02*
X013887Y013472D01*
X013956Y013570D02*
X013168Y013570D01*
X013070Y013669D02*
X013420Y013669D01*
X013298Y013767D02*
X012971Y013767D01*
X012873Y013866D02*
X013199Y013866D01*
X013101Y013964D02*
X012774Y013964D01*
X012676Y014063D02*
X013002Y014063D01*
X012904Y014161D02*
X012577Y014161D01*
X012479Y014260D02*
X012805Y014260D01*
X012707Y014358D02*
X012380Y014358D01*
X012282Y014457D02*
X012608Y014457D01*
X012510Y014555D02*
X012183Y014555D01*
X012085Y014654D02*
X012411Y014654D01*
X012313Y014752D02*
X011986Y014752D01*
X011888Y014851D02*
X012214Y014851D01*
X012116Y014949D02*
X011789Y014949D01*
X011691Y015048D02*
X012017Y015048D01*
X011919Y015146D02*
X011592Y015146D01*
X011494Y015245D02*
X011820Y015245D01*
X011722Y015343D02*
X010255Y015343D01*
X010293Y015245D02*
X011118Y015245D01*
X011019Y015146D02*
X010339Y015146D01*
X010391Y015048D02*
X010921Y015048D01*
X010822Y014949D02*
X010443Y014949D01*
X010495Y014851D02*
X010724Y014851D01*
X010625Y014752D02*
X010546Y014752D01*
X010218Y015442D02*
X011631Y015442D01*
X011591Y015540D02*
X010181Y015540D01*
X010143Y015639D02*
X011591Y015639D01*
X011626Y015737D02*
X010106Y015737D01*
X010069Y015836D02*
X011709Y015836D01*
X011807Y015934D02*
X010031Y015934D01*
X009994Y016033D02*
X011906Y016033D01*
X012004Y016131D02*
X009957Y016131D01*
X009919Y016230D02*
X012103Y016230D01*
X012201Y016328D02*
X009889Y016328D01*
X011339Y013472D02*
X011366Y013472D01*
X011407Y013373D02*
X011465Y013373D01*
X011475Y013275D02*
X011563Y013275D01*
X011561Y013176D02*
X011662Y013176D01*
X011648Y013078D02*
X011760Y013078D01*
X011735Y012979D02*
X011859Y012979D01*
X011823Y012881D02*
X011957Y012881D01*
X011910Y012782D02*
X012056Y012782D01*
X011997Y012684D02*
X012154Y012684D01*
X012084Y012585D02*
X012253Y012585D01*
X012172Y012487D02*
X012436Y012487D01*
X013674Y013669D02*
X014055Y013669D01*
X014153Y013767D02*
X013796Y013767D01*
X013894Y013866D02*
X014252Y013866D01*
X014003Y012575D02*
X014003Y012575D01*
X014419Y011863D02*
X014519Y011763D01*
X014580Y011763D01*
X016181Y013472D02*
X016196Y013472D01*
X016160Y013570D02*
X016294Y013570D01*
X016284Y013669D02*
X016393Y013669D01*
X016378Y013767D02*
X016491Y013767D01*
X016419Y013866D02*
X016590Y013866D01*
X016688Y013964D02*
X016435Y013964D01*
X016433Y014063D02*
X016787Y014063D01*
X016838Y014161D02*
X016392Y014161D01*
X016316Y014260D02*
X016838Y014260D01*
X016838Y014358D02*
X016149Y014358D01*
X017144Y013373D02*
X017471Y013373D01*
X017372Y013275D02*
X017045Y013275D01*
X016947Y013176D02*
X017274Y013176D01*
X017175Y013078D02*
X016848Y013078D01*
X016750Y012979D02*
X017077Y012979D01*
X016978Y012881D02*
X016651Y012881D01*
X017242Y013472D02*
X017569Y013472D01*
X017668Y013570D02*
X017341Y013570D01*
X017439Y013669D02*
X017766Y013669D01*
X017786Y013767D02*
X017528Y013767D01*
X017569Y013866D02*
X017786Y013866D01*
X017786Y013964D02*
X017578Y013964D01*
X017578Y014063D02*
X017786Y014063D01*
X017799Y014161D02*
X017578Y014161D01*
X017578Y014260D02*
X018327Y014260D01*
X018327Y014358D02*
X017578Y014358D01*
X017578Y014457D02*
X018327Y014457D01*
X018327Y014555D02*
X017578Y014555D01*
X017578Y014654D02*
X018316Y014654D01*
X018277Y014752D02*
X017578Y014752D01*
X017578Y014851D02*
X018277Y014851D01*
X018295Y014949D02*
X017578Y014949D01*
X017578Y015048D02*
X018337Y015048D01*
X018435Y015146D02*
X017578Y015146D01*
X016838Y015442D02*
X013927Y015442D01*
X014028Y015540D02*
X016838Y015540D01*
X018095Y016821D02*
X018250Y016821D01*
X017223Y018200D02*
X016456Y018200D01*
X016456Y018298D02*
X017322Y018298D01*
X017420Y018397D02*
X016518Y018397D01*
X017838Y018292D02*
X018055Y018292D01*
X017858Y018803D02*
X017897Y018843D01*
X018055Y018843D01*
X018055Y019315D02*
X017877Y019315D01*
X017858Y019335D01*
X017747Y019776D02*
X017290Y019776D01*
X017192Y019874D02*
X017720Y019874D01*
X018901Y019079D02*
X018901Y018528D01*
X018921Y018508D01*
X028547Y019079D02*
X028536Y019538D01*
X028503Y019996D01*
X028449Y020452D01*
X028373Y020905D01*
X028275Y021353D01*
X028156Y021797D01*
X028016Y022234D01*
X027856Y022664D01*
X027675Y023086D01*
X027475Y023499D01*
X027255Y023902D01*
X027016Y024294D01*
X026758Y024674D01*
X026483Y025042D01*
X026191Y025396D01*
X025882Y025736D01*
X025558Y026060D01*
X025218Y026369D01*
X024864Y026661D01*
X024496Y026936D01*
X024116Y027194D01*
X023724Y027433D01*
X023321Y027653D01*
X022908Y027853D01*
X022486Y028034D01*
X022056Y028194D01*
X021619Y028334D01*
X021175Y028453D01*
X020727Y028551D01*
X020274Y028627D01*
X019818Y028681D01*
X019360Y028714D01*
X018901Y028725D01*
X017973Y028444D02*
X019829Y028444D01*
X020620Y028345D02*
X017182Y028345D01*
X016782Y028247D02*
X021020Y028247D01*
X021419Y028148D02*
X016383Y028148D01*
X016023Y028050D02*
X021779Y028050D01*
X022039Y027951D02*
X015763Y027951D01*
X015504Y027853D02*
X022298Y027853D01*
X022558Y027754D02*
X015244Y027754D01*
X014998Y027656D02*
X020578Y027656D01*
X020479Y027557D02*
X014810Y027557D01*
X014622Y027459D02*
X020381Y027459D01*
X020282Y027360D02*
X014435Y027360D01*
X014247Y027262D02*
X020184Y027262D01*
X020085Y027163D02*
X014238Y027163D01*
X014336Y027065D02*
X019987Y027065D01*
X019888Y026966D02*
X014435Y026966D01*
X014533Y026868D02*
X019790Y026868D01*
X019691Y026769D02*
X014632Y026769D01*
X014730Y026671D02*
X019593Y026671D01*
X019494Y026572D02*
X014780Y026572D01*
X014791Y026474D02*
X019396Y026474D01*
X019297Y026375D02*
X014769Y026375D01*
X014703Y026277D02*
X019199Y026277D01*
X019100Y026178D02*
X015192Y026178D01*
X015321Y026080D02*
X019002Y026080D01*
X018903Y025981D02*
X015420Y025981D01*
X015518Y025883D02*
X018805Y025883D01*
X018706Y025784D02*
X015617Y025784D01*
X015715Y025686D02*
X018608Y025686D01*
X018509Y025587D02*
X015814Y025587D01*
X015881Y025489D02*
X018411Y025489D01*
X018312Y025390D02*
X015905Y025390D01*
X015895Y025292D02*
X018214Y025292D01*
X018159Y025193D02*
X015847Y025193D01*
X015748Y025095D02*
X018159Y025095D01*
X018159Y024996D02*
X015650Y024996D01*
X015551Y024898D02*
X018159Y024898D01*
X018159Y024799D02*
X015453Y024799D01*
X015354Y024701D02*
X018159Y024701D01*
X018619Y024701D02*
X019541Y024701D01*
X019639Y024799D02*
X018619Y024799D01*
X018619Y024898D02*
X019738Y024898D01*
X019836Y024996D02*
X018619Y024996D01*
X018667Y025095D02*
X019935Y025095D01*
X020033Y025193D02*
X018766Y025193D01*
X018864Y025292D02*
X020132Y025292D01*
X020230Y025390D02*
X018963Y025390D01*
X019061Y025489D02*
X020329Y025489D01*
X020404Y025587D02*
X019160Y025587D01*
X019258Y025686D02*
X020502Y025686D01*
X020601Y025784D02*
X019357Y025784D01*
X019455Y025883D02*
X020639Y025883D01*
X020639Y025981D02*
X019554Y025981D01*
X019652Y026080D02*
X020639Y026080D01*
X020639Y026178D02*
X019751Y026178D01*
X019849Y026277D02*
X020639Y026277D01*
X020639Y026350D02*
X020639Y026350D01*
X020665Y026375D02*
X019948Y026375D01*
X020046Y026474D02*
X020738Y026474D01*
X020779Y026572D02*
X020145Y026572D01*
X020243Y026671D02*
X020878Y026671D01*
X020976Y026769D02*
X020342Y026769D01*
X020440Y026868D02*
X021075Y026868D01*
X021152Y026552D02*
X020859Y026259D01*
X020859Y025496D01*
X020835Y025471D01*
X021143Y025686D02*
X021443Y025686D01*
X021374Y025587D02*
X021238Y025587D01*
X021345Y025784D02*
X021079Y025784D01*
X021079Y025883D02*
X021267Y025883D01*
X021267Y025981D02*
X021079Y025981D01*
X021079Y026080D02*
X021345Y026080D01*
X021443Y026178D02*
X021172Y026178D01*
X021271Y026277D02*
X021542Y026277D01*
X021640Y026375D02*
X021369Y026375D01*
X021468Y026474D02*
X022103Y026474D01*
X022201Y026375D02*
X021903Y026375D01*
X022001Y026277D02*
X022405Y026277D01*
X022488Y026194D02*
X022488Y026194D01*
X022525Y026178D02*
X022095Y026178D01*
X022164Y026080D02*
X023658Y026080D01*
X023832Y025981D02*
X022479Y025981D01*
X022453Y026008D02*
X022453Y026008D01*
X022317Y026064D02*
X022317Y026064D01*
X022624Y026138D02*
X022624Y026138D01*
X022649Y025883D02*
X023930Y025883D01*
X024029Y025784D02*
X022747Y025784D01*
X022846Y025686D02*
X023931Y025686D01*
X023859Y025587D02*
X022944Y025587D01*
X023043Y025489D02*
X023832Y025489D01*
X023839Y025390D02*
X023141Y025390D01*
X023145Y025292D02*
X023883Y025292D01*
X024757Y026277D02*
X024964Y026277D01*
X024897Y026178D02*
X025076Y026178D01*
X024995Y026080D02*
X025187Y026080D01*
X025094Y025981D02*
X025298Y025981D01*
X025192Y025883D02*
X025409Y025883D01*
X025520Y025784D02*
X025291Y025784D01*
X025389Y025686D02*
X025617Y025686D01*
X025705Y025587D02*
X025488Y025587D01*
X025586Y025489D02*
X025792Y025489D01*
X025879Y025390D02*
X025685Y025390D01*
X025783Y025292D02*
X025966Y025292D01*
X025882Y025193D02*
X026054Y025193D01*
X025980Y025095D02*
X026141Y025095D01*
X026079Y024996D02*
X026228Y024996D01*
X026177Y024898D02*
X026316Y024898D01*
X026276Y024799D02*
X026385Y024799D01*
X026374Y024701D02*
X026453Y024701D01*
X026473Y024602D02*
X026521Y024602D01*
X026571Y024504D02*
X026589Y024504D01*
X026612Y024405D02*
X026657Y024405D01*
X026615Y024307D02*
X026725Y024307D01*
X026793Y024208D02*
X026586Y024208D01*
X026510Y024110D02*
X026861Y024110D01*
X026929Y024011D02*
X026412Y024011D01*
X026313Y023913D02*
X026990Y023913D01*
X027041Y023814D02*
X026215Y023814D01*
X026116Y023716D02*
X027093Y023716D01*
X027145Y023617D02*
X026018Y023617D01*
X025869Y023519D02*
X027196Y023519D01*
X024520Y022435D02*
X023568Y022435D01*
X023667Y022534D02*
X024414Y022534D01*
X024315Y022632D02*
X023765Y022632D01*
X023825Y022731D02*
X024217Y022731D01*
X024118Y022829D02*
X023894Y022829D01*
X023962Y022928D02*
X024020Y022928D01*
X022544Y024799D02*
X021656Y024799D01*
X021754Y024898D02*
X022446Y024898D01*
X022347Y024996D02*
X021829Y024996D01*
X021928Y025095D02*
X022249Y025095D01*
X022150Y025193D02*
X022026Y025193D01*
X021905Y026769D02*
X021893Y026769D01*
X021836Y026769D02*
X021509Y026769D01*
X021410Y026868D02*
X021709Y026868D01*
X021610Y026966D02*
X020539Y026966D01*
X020637Y027065D02*
X021512Y027065D01*
X021462Y027163D02*
X020736Y027163D01*
X020834Y027262D02*
X021469Y027262D01*
X021821Y027656D02*
X021863Y027656D01*
X022070Y027656D02*
X022804Y027656D01*
X022992Y027557D02*
X022168Y027557D01*
X022267Y027459D02*
X023180Y027459D01*
X023367Y027360D02*
X022337Y027360D01*
X022385Y027262D02*
X022397Y027262D01*
X022436Y027262D02*
X023555Y027262D01*
X023743Y027163D02*
X022521Y027163D01*
X022661Y027065D02*
X023666Y027065D01*
X023567Y026966D02*
X022762Y026966D01*
X022299Y027163D02*
X022287Y027163D01*
X022200Y027065D02*
X022188Y027065D01*
X022102Y026966D02*
X022090Y026966D01*
X022003Y026868D02*
X021991Y026868D01*
X023861Y027065D02*
X023894Y027065D01*
X023959Y026966D02*
X024036Y026966D01*
X024058Y026868D02*
X024179Y026868D01*
X024156Y026769D02*
X024322Y026769D01*
X024255Y026671D02*
X024465Y026671D01*
X024343Y026572D02*
X024607Y026572D01*
X024742Y026474D02*
X024386Y026474D01*
X024484Y026375D02*
X024853Y026375D01*
X019442Y024602D02*
X018619Y024602D01*
X018619Y024504D02*
X019344Y024504D01*
X019245Y024405D02*
X018619Y024405D01*
X018619Y024307D02*
X019147Y024307D01*
X019048Y024208D02*
X018710Y024208D01*
X018756Y024110D02*
X018950Y024110D01*
X018851Y024011D02*
X018777Y024011D01*
X014961Y026178D02*
X014604Y026178D01*
X014506Y026080D02*
X014832Y026080D01*
X014734Y025981D02*
X014407Y025981D01*
X014309Y025883D02*
X014635Y025883D01*
X014537Y025784D02*
X014210Y025784D01*
X014112Y025686D02*
X014438Y025686D01*
X014340Y025587D02*
X014013Y025587D01*
X013915Y025489D02*
X014241Y025489D01*
X014143Y025390D02*
X013816Y025390D01*
X013718Y025292D02*
X014044Y025292D01*
X013946Y025193D02*
X013619Y025193D01*
X013521Y025095D02*
X013847Y025095D01*
X013749Y024996D02*
X013422Y024996D01*
X013324Y024898D02*
X013650Y024898D01*
X013552Y024799D02*
X013225Y024799D01*
X013127Y024701D02*
X013453Y024701D01*
X013355Y024602D02*
X013028Y024602D01*
X013163Y024405D02*
X012249Y024405D01*
X012277Y024504D02*
X013256Y024504D01*
X012643Y024602D02*
X012371Y024602D01*
X012469Y024701D02*
X012545Y024701D01*
X012128Y023308D02*
X012128Y023308D01*
X011453Y022632D02*
X011441Y022632D01*
X011354Y022731D02*
X011342Y022731D01*
X011254Y022829D02*
X011244Y022829D01*
X011157Y022928D02*
X011145Y022928D01*
X010990Y022560D02*
X010990Y022560D01*
X011243Y022238D02*
X011542Y022238D01*
X011443Y022140D02*
X011146Y022140D01*
X011244Y022041D02*
X011345Y022041D01*
X011714Y021836D02*
X012007Y021543D01*
X013343Y021549D02*
X013388Y021549D01*
X013391Y021450D02*
X013468Y021450D01*
X013490Y021352D02*
X013560Y021352D01*
X018901Y009433D02*
X019360Y009444D01*
X019818Y009477D01*
X020274Y009531D01*
X020727Y009607D01*
X021175Y009705D01*
X021619Y009824D01*
X022056Y009964D01*
X022486Y010124D01*
X022908Y010305D01*
X023321Y010505D01*
X023724Y010725D01*
X024116Y010964D01*
X024496Y011222D01*
X024864Y011497D01*
X025218Y011789D01*
X025558Y012098D01*
X025882Y012422D01*
X026191Y012762D01*
X026483Y013116D01*
X026758Y013484D01*
X027016Y013864D01*
X027255Y014256D01*
X027475Y014659D01*
X027675Y015072D01*
X027856Y015494D01*
X028016Y015924D01*
X028156Y016361D01*
X028275Y016805D01*
X028373Y017253D01*
X028449Y017706D01*
X028503Y018162D01*
X028536Y018620D01*
X028547Y019079D01*
X028321Y018889D02*
X027756Y018889D01*
X027756Y018791D02*
X028318Y018791D01*
X028315Y018692D02*
X027744Y018692D01*
X028312Y018594D02*
X025798Y018594D01*
X025886Y019086D02*
X026275Y019086D01*
X026275Y019185D02*
X025886Y019185D01*
X025886Y019283D02*
X026275Y019283D01*
X026297Y019382D02*
X025878Y019382D01*
X026965Y019382D02*
X027065Y019382D01*
X027065Y019283D02*
X026965Y019283D01*
X026965Y019185D02*
X027065Y019185D01*
X027065Y019086D02*
X026965Y019086D01*
X028308Y018495D02*
X021287Y018495D01*
X021336Y018397D02*
X028296Y018397D01*
X028284Y018298D02*
X021358Y018298D01*
X021358Y018200D02*
X028272Y018200D01*
X028260Y018101D02*
X021358Y018101D01*
X021358Y018003D02*
X028248Y018003D01*
X028236Y017904D02*
X021358Y017904D01*
X021358Y017806D02*
X028224Y017806D01*
X028212Y017707D02*
X021358Y017707D01*
X021358Y017609D02*
X028200Y017609D01*
X028270Y019973D02*
X021106Y019973D01*
X021204Y020071D02*
X028258Y020071D01*
X024453Y018594D02*
X024060Y018594D01*
X023899Y018594D02*
X021189Y018594D01*
X021090Y018692D02*
X023719Y018692D01*
X023638Y018791D02*
X020992Y018791D01*
X020893Y018889D02*
X023597Y018889D01*
X023592Y018988D02*
X020872Y018988D01*
X021046Y019086D02*
X023603Y019086D01*
X023644Y019185D02*
X021601Y019185D01*
X021437Y019185D02*
X021144Y019185D01*
X021780Y019283D02*
X023734Y019283D01*
X023915Y019382D02*
X021861Y019382D01*
X019747Y018292D02*
X019747Y018114D01*
X019807Y018055D01*
X018901Y009433D02*
X018442Y009444D01*
X017984Y009477D01*
X017528Y009531D01*
X017075Y009607D01*
X016627Y009705D01*
X016183Y009824D01*
X015746Y009964D01*
X015316Y010124D01*
X014894Y010305D01*
X014481Y010505D01*
X014078Y010725D01*
X013686Y010964D01*
X013306Y011222D01*
X012938Y011497D01*
X012584Y011789D01*
X012244Y012098D01*
X011920Y012422D01*
X011611Y012762D01*
X011319Y013116D01*
X011044Y013484D01*
X010786Y013864D01*
X010547Y014256D01*
X010327Y014659D01*
X010127Y015072D01*
X009946Y015494D01*
X009786Y015924D01*
X009646Y016361D01*
X009527Y016805D01*
X009429Y017253D01*
X009353Y017706D01*
X009299Y018162D01*
X009266Y018620D01*
X009255Y019079D01*
X018065Y014161D02*
X018123Y014161D01*
X018123Y014063D02*
X018065Y014063D01*
X018065Y013964D02*
X018123Y013964D01*
X018547Y013695D02*
X018547Y014709D01*
X018665Y014827D01*
X019216Y014453D02*
X018862Y014099D01*
X018862Y013695D01*
X018999Y011953D02*
X018999Y011796D01*
X019950Y011502D02*
X020109Y011502D01*
X020109Y011600D02*
X020016Y011600D01*
X020016Y011699D02*
X020139Y011699D01*
X020961Y010418D02*
X022597Y010418D01*
X022337Y010320D02*
X020953Y010320D01*
X020923Y010221D02*
X022078Y010221D01*
X021818Y010123D02*
X020923Y010123D01*
X020923Y010024D02*
X021479Y010024D01*
X021079Y009926D02*
X020923Y009926D01*
X021394Y010812D02*
X023396Y010812D01*
X026432Y013866D02*
X026735Y013866D01*
X026803Y013964D02*
X026354Y013964D01*
X026354Y014063D02*
X026871Y014063D01*
X026939Y014161D02*
X026354Y014161D01*
X026354Y014260D02*
X026997Y014260D01*
X027049Y014358D02*
X026354Y014358D01*
X026354Y014457D02*
X027101Y014457D01*
X027152Y014555D02*
X026354Y014555D01*
X026436Y014654D02*
X027204Y014654D01*
X027256Y014752D02*
X026532Y014752D01*
X026630Y014851D02*
X027307Y014851D01*
X027359Y014949D02*
X026700Y014949D01*
X026667Y013767D02*
X026530Y013767D01*
X026568Y013669D02*
X026599Y013669D01*
X018901Y028725D02*
X018442Y028714D01*
X017984Y028681D01*
X017528Y028627D01*
X017075Y028551D01*
X016627Y028453D01*
X016183Y028334D01*
X015746Y028194D01*
X015316Y028034D01*
X014894Y027853D01*
X014481Y027653D01*
X014078Y027433D01*
X013686Y027194D01*
X013306Y026936D01*
X012938Y026661D01*
X012584Y026369D01*
X012244Y026060D01*
X011920Y025736D01*
X011611Y025396D01*
X011319Y025042D01*
X011044Y024674D01*
X010786Y024294D01*
X010547Y023902D01*
X010327Y023499D01*
X010127Y023086D01*
X009946Y022664D01*
X009786Y022234D01*
X009646Y021797D01*
X009527Y021353D01*
X009429Y020905D01*
X009353Y020452D01*
X009299Y019996D01*
X009266Y019538D01*
X009255Y019079D01*
X018015Y011796D02*
X018015Y011717D01*
X017917Y011618D01*
D11*
X017129Y010319D02*
X020673Y010319D01*
X020673Y009610D01*
X017129Y009591D02*
X017129Y010319D01*
X025418Y015644D02*
X025499Y015725D01*
X025499Y015742D01*
X026223Y015018D02*
X026223Y014964D01*
X026160Y014902D01*
X021778Y025942D02*
X021698Y026023D01*
X021681Y026023D01*
X022405Y026746D02*
X022459Y026746D01*
X022521Y026684D01*
X012324Y022462D02*
X012243Y022382D01*
X012243Y022365D01*
X011519Y023089D02*
X011519Y023143D01*
X011581Y023205D01*
D12*
G36*
X012502Y021506D02*
X012807Y021811D01*
X013086Y021532D01*
X012781Y021227D01*
X012502Y021506D01*
G37*
G36*
X012976Y021979D02*
X013281Y022284D01*
X013560Y022005D01*
X013255Y021700D01*
X012976Y021979D01*
G37*
G36*
X020822Y025763D02*
X021127Y025458D01*
X020848Y025179D01*
X020543Y025484D01*
X020822Y025763D01*
G37*
G36*
X021295Y025290D02*
X021600Y024985D01*
X021321Y024706D01*
X021016Y025011D01*
X021295Y025290D01*
G37*
G36*
X025240Y016601D02*
X024935Y016296D01*
X024656Y016575D01*
X024961Y016880D01*
X025240Y016601D01*
G37*
G36*
X024766Y016128D02*
X024461Y015823D01*
X024182Y016102D01*
X024487Y016407D01*
X024766Y016128D01*
G37*
G36*
X016205Y012693D02*
X015900Y012998D01*
X016179Y013277D01*
X016484Y012972D01*
X016205Y012693D01*
G37*
G36*
X015732Y013166D02*
X015427Y013471D01*
X015706Y013750D01*
X016011Y013445D01*
X015732Y013166D01*
G37*
D13*
G36*
X014819Y013376D02*
X014465Y013022D01*
X014057Y013430D01*
X014411Y013784D01*
X014819Y013376D01*
G37*
G36*
X012860Y012232D02*
X013214Y012586D01*
X013622Y012178D01*
X013268Y011824D01*
X012860Y012232D01*
G37*
G36*
X012895Y022897D02*
X012541Y023251D01*
X012949Y023659D01*
X013303Y023305D01*
X012895Y022897D01*
G37*
G36*
X011752Y024856D02*
X012106Y024502D01*
X011698Y024094D01*
X011344Y024448D01*
X011752Y024856D01*
G37*
G36*
X022213Y025370D02*
X022567Y025724D01*
X022975Y025316D01*
X022621Y024962D01*
X022213Y025370D01*
G37*
G36*
X024172Y026513D02*
X023818Y026159D01*
X023410Y026567D01*
X023764Y026921D01*
X024172Y026513D01*
G37*
G36*
X024846Y015210D02*
X025200Y014856D01*
X024792Y014448D01*
X024438Y014802D01*
X024846Y015210D01*
G37*
G36*
X025990Y013251D02*
X025636Y013605D01*
X026044Y014013D01*
X026398Y013659D01*
X025990Y013251D01*
G37*
D14*
X024584Y013309D02*
X022925Y011650D01*
X024584Y013309D02*
X025117Y012776D01*
X023458Y011117D01*
X022925Y011650D01*
X023208Y011367D02*
X023708Y011367D01*
X023958Y011617D02*
X022958Y011617D01*
X023142Y011867D02*
X024208Y011867D01*
X024458Y012117D02*
X023392Y012117D01*
X023642Y012367D02*
X024708Y012367D01*
X024958Y012617D02*
X023892Y012617D01*
X024142Y012867D02*
X025026Y012867D01*
X024776Y013117D02*
X024392Y013117D01*
X024003Y013890D02*
X022344Y012231D01*
X021811Y012764D01*
X023470Y014423D01*
X024003Y013890D01*
X022594Y012481D02*
X022094Y012481D01*
X021844Y012731D02*
X022844Y012731D01*
X023094Y012981D02*
X022028Y012981D01*
X022278Y013231D02*
X023344Y013231D01*
X023594Y013481D02*
X022528Y013481D01*
X022778Y013731D02*
X023844Y013731D01*
X023912Y013981D02*
X023028Y013981D01*
X023278Y014231D02*
X023662Y014231D01*
X025206Y023225D02*
X023547Y024884D01*
X025206Y023225D02*
X024673Y022692D01*
X023014Y024351D01*
X023547Y024884D01*
X024423Y022942D02*
X024923Y022942D01*
X025173Y023192D02*
X024173Y023192D01*
X023923Y023442D02*
X024989Y023442D01*
X024739Y023692D02*
X023673Y023692D01*
X023423Y023942D02*
X024489Y023942D01*
X024239Y024192D02*
X023173Y024192D01*
X023105Y024442D02*
X023989Y024442D01*
X023739Y024692D02*
X023355Y024692D01*
X024128Y025464D02*
X025787Y023805D01*
X024128Y025464D02*
X024661Y025997D01*
X026320Y024338D01*
X025787Y023805D01*
X026037Y024055D02*
X025537Y024055D01*
X025287Y024305D02*
X026287Y024305D01*
X026103Y024555D02*
X025037Y024555D01*
X024787Y024805D02*
X025853Y024805D01*
X025603Y025055D02*
X024537Y025055D01*
X024287Y025305D02*
X025353Y025305D01*
X025103Y025555D02*
X024219Y025555D01*
X024469Y025805D02*
X024853Y025805D01*
X015076Y025906D02*
X013417Y024247D01*
X015076Y025906D02*
X015609Y025373D01*
X013950Y023714D01*
X013417Y024247D01*
X013700Y023964D02*
X014200Y023964D01*
X014450Y024214D02*
X013450Y024214D01*
X013634Y024464D02*
X014700Y024464D01*
X014950Y024714D02*
X013884Y024714D01*
X014134Y024964D02*
X015200Y024964D01*
X015450Y025214D02*
X014384Y025214D01*
X014634Y025464D02*
X015518Y025464D01*
X015268Y025714D02*
X014884Y025714D01*
X014495Y026487D02*
X012836Y024828D01*
X012303Y025361D01*
X013962Y027020D01*
X014495Y026487D01*
X013086Y025078D02*
X012586Y025078D01*
X012336Y025328D02*
X013336Y025328D01*
X013586Y025578D02*
X012520Y025578D01*
X012770Y025828D02*
X013836Y025828D01*
X014086Y026078D02*
X013020Y026078D01*
X013270Y026328D02*
X014336Y026328D01*
X014404Y026578D02*
X013520Y026578D01*
X013770Y026828D02*
X014154Y026828D01*
X011887Y015595D02*
X013546Y013936D01*
X011887Y015595D02*
X012420Y016128D01*
X014079Y014469D01*
X013546Y013936D01*
X013796Y014186D02*
X013296Y014186D01*
X013046Y014436D02*
X014046Y014436D01*
X013862Y014686D02*
X012796Y014686D01*
X012546Y014936D02*
X013612Y014936D01*
X013362Y015186D02*
X012296Y015186D01*
X012046Y015436D02*
X013112Y015436D01*
X012862Y015686D02*
X011978Y015686D01*
X012228Y015936D02*
X012612Y015936D01*
X011306Y015015D02*
X012965Y013356D01*
X012432Y012823D01*
X010773Y014482D01*
X011306Y015015D01*
X012182Y013073D02*
X012682Y013073D01*
X012932Y013323D02*
X011932Y013323D01*
X011682Y013573D02*
X012748Y013573D01*
X012498Y013823D02*
X011432Y013823D01*
X011182Y014073D02*
X012248Y014073D01*
X011998Y014323D02*
X010932Y014323D01*
X010864Y014573D02*
X011748Y014573D01*
X011498Y014823D02*
X011114Y014823D01*
D15*
X025125Y019028D03*
X027015Y019028D03*
D16*
G36*
X026271Y016181D02*
X026118Y016028D01*
X025785Y016361D01*
X025938Y016514D01*
X026271Y016181D01*
G37*
G36*
X026995Y015457D02*
X026842Y015304D01*
X026509Y015637D01*
X026662Y015790D01*
X026995Y015457D01*
G37*
G36*
X026730Y015192D02*
X026577Y015039D01*
X026244Y015372D01*
X026397Y015525D01*
X026730Y015192D01*
G37*
G36*
X026466Y014928D02*
X026313Y014775D01*
X025980Y015108D01*
X026133Y015261D01*
X026466Y014928D01*
G37*
G36*
X025742Y015652D02*
X025589Y015499D01*
X025256Y015832D01*
X025409Y015985D01*
X025742Y015652D01*
G37*
G36*
X015743Y011715D02*
X015590Y011868D01*
X015923Y012201D01*
X016076Y012048D01*
X015743Y011715D01*
G37*
G36*
X015019Y010991D02*
X014866Y011144D01*
X015199Y011477D01*
X015352Y011324D01*
X015019Y010991D01*
G37*
G36*
X014755Y011255D02*
X014602Y011408D01*
X014935Y011741D01*
X015088Y011588D01*
X014755Y011255D01*
G37*
G36*
X014490Y011520D02*
X014337Y011673D01*
X014670Y012006D01*
X014823Y011853D01*
X014490Y011520D01*
G37*
G36*
X015214Y012244D02*
X015061Y012397D01*
X015394Y012730D01*
X015547Y012577D01*
X015214Y012244D01*
G37*
G36*
X011471Y021926D02*
X011624Y022079D01*
X011957Y021746D01*
X011804Y021593D01*
X011471Y021926D01*
G37*
G36*
X010747Y022650D02*
X010900Y022803D01*
X011233Y022470D01*
X011080Y022317D01*
X010747Y022650D01*
G37*
G36*
X011012Y022914D02*
X011165Y023067D01*
X011498Y022734D01*
X011345Y022581D01*
X011012Y022914D01*
G37*
G36*
X011276Y023179D02*
X011429Y023332D01*
X011762Y022999D01*
X011609Y022846D01*
X011276Y023179D01*
G37*
G36*
X012000Y022455D02*
X012153Y022608D01*
X012486Y022275D01*
X012333Y022122D01*
X012000Y022455D01*
G37*
G36*
X021242Y026795D02*
X021395Y026642D01*
X021062Y026309D01*
X020909Y026462D01*
X021242Y026795D01*
G37*
G36*
X021966Y027518D02*
X022119Y027365D01*
X021786Y027032D01*
X021633Y027185D01*
X021966Y027518D01*
G37*
G36*
X022230Y027254D02*
X022383Y027101D01*
X022050Y026768D01*
X021897Y026921D01*
X022230Y027254D01*
G37*
G36*
X022495Y026989D02*
X022648Y026836D01*
X022315Y026503D01*
X022162Y026656D01*
X022495Y026989D01*
G37*
G36*
X021771Y026266D02*
X021924Y026113D01*
X021591Y025780D01*
X021438Y025933D01*
X021771Y026266D01*
G37*
D17*
X018901Y019079D03*
D18*
X018055Y018843D03*
X018055Y019315D03*
X018055Y019866D03*
X018055Y018292D03*
X019747Y018292D03*
X019747Y018843D03*
X019747Y019315D03*
X019747Y019866D03*
D19*
X019492Y013695D03*
X019177Y013695D03*
X018862Y013695D03*
X018547Y013695D03*
X018547Y013085D03*
X018862Y013085D03*
X019177Y013085D03*
X019492Y013085D03*
D20*
X019905Y013114D03*
X019905Y013902D03*
X018094Y013902D03*
X018094Y013114D03*
D21*
X017897Y012504D03*
X018684Y012504D03*
X019373Y012504D03*
X020161Y012504D03*
D22*
X019787Y011796D03*
X019590Y011796D03*
X019393Y011796D03*
X019196Y011796D03*
X018999Y011796D03*
X018803Y011796D03*
X018606Y011796D03*
X018409Y011796D03*
X018212Y011796D03*
X018015Y011796D03*
D23*
X017051Y011166D03*
X020751Y011166D03*
D24*
X020535Y010565D03*
X017267Y010565D03*
D25*
X011255Y022824D02*
X010909Y023170D01*
X010909Y023646D01*
D26*
X010712Y019335D03*
X017976Y011087D03*
X026342Y021736D03*
D27*
X024110Y023788D02*
X023453Y022843D01*
X020495Y019886D01*
X019944Y019886D01*
X019984Y019355D02*
X019944Y019315D01*
X019984Y019355D02*
X020791Y019355D01*
X021007Y019571D01*
X021519Y019571D01*
X020417Y018843D02*
X019964Y018843D01*
X020417Y018843D02*
X020988Y018272D01*
X020988Y015125D01*
X022907Y013327D01*
X024021Y012213D02*
X024888Y012993D01*
X025383Y012993D01*
X026017Y013626D01*
X026017Y013632D01*
X025984Y013664D01*
X025984Y014725D01*
X026160Y014902D01*
X025171Y015180D02*
X025171Y015397D01*
X025171Y015418D01*
X024474Y016115D01*
X024108Y016481D01*
X023803Y016481D01*
X024425Y017110D02*
X022641Y017110D01*
X024425Y017110D02*
X024948Y016588D01*
X025418Y015644D02*
X025171Y015397D01*
X025171Y015180D02*
X024819Y014829D01*
X025125Y019028D02*
X024027Y019028D01*
X023980Y018981D01*
X019807Y018055D02*
X019807Y017603D01*
X019413Y017209D01*
X018173Y017209D01*
X017208Y017662D02*
X017838Y018292D01*
X017858Y018803D02*
X016401Y018803D01*
X016086Y018488D01*
X016086Y016244D01*
X016244Y016087D01*
X015161Y017209D02*
X014211Y016240D01*
X012983Y015032D01*
X011869Y013919D02*
X012467Y013335D01*
X012567Y013352D01*
X012567Y012879D01*
X013241Y012205D01*
X014076Y012205D01*
X014419Y011863D01*
X015304Y012487D02*
X015304Y012592D01*
X014962Y012935D01*
X015485Y013458D01*
X015524Y013458D01*
X016047Y013981D01*
X015719Y013458D02*
X015524Y013458D01*
X014962Y012935D02*
X014906Y012935D01*
X014438Y013403D01*
X016192Y012985D02*
X016232Y012985D01*
X017208Y013961D01*
X017208Y017662D01*
X017208Y019335D02*
X017858Y019335D01*
X017208Y019335D02*
X016578Y019965D01*
X014354Y019965D01*
X012800Y021519D01*
X012794Y021519D01*
X013268Y021992D02*
X013468Y021992D01*
X013803Y021658D01*
X013268Y021992D02*
X012571Y022688D01*
X012571Y022816D01*
X012571Y022710D01*
X012324Y022462D01*
X012571Y022816D02*
X012571Y022927D01*
X012922Y023278D01*
X011758Y023382D02*
X011758Y024442D01*
X011725Y024475D01*
X011725Y024480D01*
X012359Y025114D01*
X012854Y025114D01*
X013399Y025924D01*
X014513Y024810D02*
X016913Y022823D01*
X016913Y021362D01*
X018015Y020103D02*
X018015Y022652D01*
X020835Y025471D01*
X021308Y024998D02*
X021308Y024950D01*
X020840Y024483D01*
X021308Y024998D02*
X022004Y025694D01*
X022132Y025694D01*
X022026Y025694D01*
X021778Y025942D01*
X022132Y025694D02*
X022243Y025694D01*
X022594Y025343D01*
X022698Y026508D02*
X022521Y026684D01*
X022698Y026508D02*
X023758Y026508D01*
X023791Y026540D01*
X023796Y026540D01*
X024430Y025907D01*
X024430Y025412D01*
X025224Y024901D01*
X011758Y023382D02*
X011581Y023205D01*
D28*
X013803Y021658D03*
X013389Y019236D03*
X015161Y017209D03*
X016244Y016087D03*
X016047Y013981D03*
X018665Y014827D03*
X019216Y014453D03*
X020102Y016796D03*
X018960Y017780D03*
X018173Y017209D03*
X021519Y019571D03*
X022641Y017110D03*
X023803Y016481D03*
X023980Y018981D03*
X026814Y016796D03*
X020840Y024483D03*
X018389Y023981D03*
X016913Y021362D03*
X018960Y020575D03*
D29*
X017917Y011618D02*
X017917Y011146D01*
X017976Y011087D01*
D30*
X015988Y011579D02*
X015642Y011234D01*
X015109Y011234D01*
X013389Y019236D02*
X013389Y019571D01*
X010771Y022189D01*
X010771Y022341D01*
X010990Y022560D01*
X018389Y023981D02*
X018389Y025142D01*
X020751Y027504D01*
X021647Y027504D01*
X021876Y027275D01*
X026814Y016796D02*
X026814Y015610D01*
X026752Y015547D01*
D31*
X018980Y020555D02*
X018921Y020496D01*
X018921Y018508D01*
X018960Y018469D01*
X018960Y017780D01*
M02*
