G75*
G70*
%OFA0B0*%
%FSLAX24Y24*%
%IPPOS*%
%LPD*%
%AMOC8*
5,1,8,0,0,1.08239X$1,22.5*
%
%ADD10C,0.0110*%
%ADD11C,0.0150*%
%ADD12C,0.0080*%
%ADD13C,0.0100*%
%ADD14C,0.0160*%
D10*
X005049Y007738D02*
X005049Y008132D01*
X005049Y007935D02*
X004852Y008132D01*
X004754Y008132D01*
X005300Y008034D02*
X005300Y007935D01*
X005693Y007935D01*
X005693Y007837D02*
X005693Y008034D01*
X005595Y008132D01*
X005398Y008132D01*
X005300Y008034D01*
X005398Y007738D02*
X005595Y007738D01*
X005693Y007837D01*
X005944Y008132D02*
X006141Y007738D01*
X006338Y008132D01*
X006669Y008132D02*
X006669Y007738D01*
X006571Y007738D02*
X006768Y007738D01*
X006768Y008132D02*
X006669Y008132D01*
X006669Y008329D02*
X006669Y008427D01*
X006821Y008738D02*
X007116Y008738D01*
X007214Y008837D01*
X007116Y008935D01*
X006821Y008935D01*
X006821Y009034D02*
X006821Y008738D01*
X006570Y008837D02*
X006570Y009034D01*
X006471Y009132D01*
X006176Y009132D01*
X005925Y008935D02*
X005630Y009132D01*
X005925Y008935D02*
X005630Y008738D01*
X005925Y008738D02*
X005925Y009329D01*
X006176Y008738D02*
X006471Y008738D01*
X006570Y008837D01*
X006821Y009034D02*
X006919Y009132D01*
X007116Y009132D01*
X007465Y009034D02*
X007564Y008935D01*
X007859Y008935D01*
X007859Y008738D02*
X007859Y009329D01*
X007564Y009329D01*
X007465Y009230D01*
X007465Y009034D01*
X008110Y009034D02*
X008503Y009034D01*
X008754Y009132D02*
X008853Y009034D01*
X008754Y008935D01*
X008754Y008837D01*
X008853Y008738D01*
X009049Y008738D01*
X009148Y008837D01*
X008951Y009034D02*
X008853Y009034D01*
X008754Y009132D02*
X008754Y009230D01*
X008853Y009329D01*
X009049Y009329D01*
X009148Y009230D01*
X010025Y008738D02*
X010222Y008738D01*
X010124Y008738D02*
X010124Y009329D01*
X010222Y009329D01*
X010473Y009034D02*
X010473Y008935D01*
X010867Y008935D01*
X010867Y008837D02*
X010867Y009034D01*
X010768Y009132D01*
X010571Y009132D01*
X010473Y009034D01*
X010571Y008738D02*
X010768Y008738D01*
X010867Y008837D01*
X011118Y008837D02*
X011118Y009034D01*
X011216Y009132D01*
X011511Y009132D01*
X011511Y009329D02*
X011511Y008738D01*
X011216Y008738D01*
X011118Y008837D01*
X011199Y008329D02*
X011396Y008329D01*
X011494Y008230D01*
X011494Y007837D01*
X011396Y007738D01*
X011199Y007738D01*
X011101Y007837D01*
X010850Y007837D02*
X010751Y007738D01*
X010555Y007738D01*
X010456Y007837D01*
X010456Y008034D01*
X010555Y008132D01*
X010751Y008132D01*
X010850Y008034D01*
X010850Y007837D01*
X011101Y008230D02*
X011199Y008329D01*
X011745Y008034D02*
X012139Y008034D01*
X012470Y008132D02*
X012470Y007738D01*
X012372Y007738D02*
X012569Y007738D01*
X012569Y008132D02*
X012470Y008132D01*
X012470Y008329D02*
X012470Y008427D01*
X012407Y008738D02*
X012604Y008935D01*
X012505Y008935D02*
X012800Y008935D01*
X012800Y008738D02*
X012800Y009329D01*
X012505Y009329D01*
X012407Y009230D01*
X012407Y009034D01*
X012505Y008935D01*
X012156Y008935D02*
X011762Y008935D01*
X011762Y009034D01*
X011861Y009132D01*
X012057Y009132D01*
X012156Y009034D01*
X012156Y008837D01*
X012057Y008738D01*
X011861Y008738D01*
X012811Y008132D02*
X012909Y008132D01*
X013106Y007935D01*
X013106Y007738D02*
X013106Y008132D01*
X013357Y008329D02*
X013750Y008329D01*
X013554Y008329D02*
X013554Y007738D01*
X010205Y007738D02*
X010008Y007738D01*
X010107Y007738D02*
X010107Y008329D01*
X010205Y008329D01*
X009776Y008034D02*
X009776Y007837D01*
X009677Y007738D01*
X009480Y007738D01*
X009382Y007837D01*
X009382Y008034D01*
X009480Y008132D01*
X009677Y008132D01*
X009776Y008034D01*
X009131Y008132D02*
X009131Y007738D01*
X009131Y007935D02*
X008934Y008132D01*
X008836Y008132D01*
X007949Y008329D02*
X007949Y007738D01*
X007654Y007738D01*
X007556Y007837D01*
X007556Y008230D01*
X007654Y008329D01*
X007949Y008329D01*
X007305Y008132D02*
X007305Y007738D01*
X007305Y007935D02*
X007108Y008132D01*
X007010Y008132D01*
X008058Y014701D02*
X008157Y014701D01*
X008255Y014799D01*
X008354Y014701D01*
X008452Y014701D01*
X008550Y014799D01*
X008550Y014996D01*
X008452Y015095D01*
X008255Y014898D02*
X008255Y014799D01*
X008058Y014701D02*
X007960Y014799D01*
X007960Y014996D01*
X008058Y015095D01*
X007960Y015346D02*
X007960Y015542D01*
X007960Y015444D02*
X008452Y015444D01*
X008550Y015542D01*
X008550Y015641D01*
X008452Y015739D01*
X008452Y015990D02*
X008058Y015990D01*
X007960Y016089D01*
X007960Y016384D01*
X008550Y016384D01*
X008550Y016089D01*
X008452Y015990D01*
X008960Y016089D02*
X008960Y016384D01*
X009550Y016384D01*
X009550Y016089D01*
X009452Y015990D01*
X009058Y015990D01*
X008960Y016089D01*
X009452Y015739D02*
X009550Y015641D01*
X009550Y015542D01*
X009452Y015444D01*
X008960Y015444D01*
X008960Y015542D02*
X008960Y015346D01*
X009058Y015095D02*
X008960Y014996D01*
X008960Y014799D01*
X009058Y014701D01*
X009157Y014701D01*
X009550Y015095D01*
X009550Y014701D01*
X009960Y014898D02*
X010550Y014898D01*
X010550Y015095D02*
X010550Y014701D01*
X010157Y015095D02*
X009960Y014898D01*
X009960Y015346D02*
X009960Y015542D01*
X009960Y015444D02*
X010452Y015444D01*
X010550Y015542D01*
X010550Y015641D01*
X010452Y015739D01*
X010452Y015990D02*
X010058Y015990D01*
X009960Y016089D01*
X009960Y016384D01*
X010550Y016384D01*
X010550Y016089D01*
X010452Y015990D01*
X010960Y016089D02*
X010960Y016285D01*
X011058Y016384D01*
X011452Y016384D01*
X011550Y016285D01*
X011550Y016089D01*
X011452Y015990D01*
X011452Y015739D02*
X011058Y015739D01*
X010960Y015641D01*
X010960Y015444D01*
X011058Y015346D01*
X011452Y015346D02*
X011550Y015444D01*
X011550Y015641D01*
X011452Y015739D01*
X011058Y015990D02*
X010960Y016089D01*
X010960Y016635D02*
X011354Y016635D01*
X011550Y016831D01*
X011354Y017028D01*
X010960Y017028D01*
X010550Y017028D02*
X010157Y017028D01*
X009960Y016831D01*
X010157Y016635D01*
X010550Y016635D01*
X010255Y016635D02*
X010255Y017028D01*
X009550Y017028D02*
X009157Y017028D01*
X008960Y016831D01*
X009157Y016635D01*
X009550Y016635D01*
X009255Y016635D02*
X009255Y017028D01*
X008550Y017028D02*
X008157Y017028D01*
X007960Y016831D01*
X008157Y016635D01*
X008550Y016635D01*
X008255Y016635D02*
X008255Y017028D01*
X007550Y016930D02*
X007550Y016733D01*
X007452Y016635D01*
X007255Y016635D01*
X007255Y016831D01*
X007058Y016635D02*
X006960Y016733D01*
X006960Y016930D01*
X007058Y017028D01*
X007452Y017028D01*
X007550Y016930D01*
X007550Y016384D02*
X006960Y016384D01*
X007550Y015990D01*
X006960Y015990D01*
X006960Y015739D02*
X006960Y015444D01*
X007058Y015346D01*
X007452Y015346D01*
X007550Y015444D01*
X007550Y015739D01*
X006960Y015739D01*
D11*
X007463Y000934D02*
X008030Y000934D01*
X007747Y001217D02*
X007747Y000650D01*
X007701Y002058D02*
X008268Y002058D01*
X007984Y002058D02*
X007984Y002909D01*
X008268Y002625D01*
X008622Y002767D02*
X008763Y002909D01*
X009189Y002909D01*
X009189Y002058D01*
X008763Y002058D01*
X008622Y002200D01*
X008622Y002767D01*
X009542Y002909D02*
X010110Y002909D01*
X010110Y002058D01*
X009542Y002058D01*
X009826Y002484D02*
X010110Y002484D01*
X010463Y002058D02*
X011030Y002058D01*
X011030Y002909D01*
X011080Y000934D02*
X010513Y000934D01*
X002770Y011129D02*
X002033Y011554D01*
X002316Y012045D01*
X002493Y012351D02*
X002777Y012843D01*
X002954Y013149D02*
X003166Y013517D01*
X003360Y013569D01*
X003851Y013286D01*
X003903Y013092D01*
X003690Y012724D01*
X002954Y013149D01*
X003003Y012384D02*
X002862Y012139D01*
X003230Y011926D02*
X002493Y012351D01*
X003230Y011926D02*
X003514Y012417D01*
X004028Y013592D02*
X004222Y013644D01*
X004363Y013889D01*
X004312Y014083D01*
X004189Y014154D01*
X003414Y013946D01*
X003698Y014437D01*
X002914Y014852D02*
X002422Y015135D01*
X002526Y014748D02*
X002810Y015239D01*
X001310Y012689D02*
X001026Y012198D01*
X014034Y014117D02*
X014771Y014542D01*
X015055Y014051D01*
X015232Y013745D02*
X015515Y013254D01*
X015692Y012948D02*
X015905Y012579D01*
X015853Y012386D01*
X015362Y012102D01*
X015168Y012154D01*
X014955Y012522D01*
X015692Y012948D01*
X015005Y013287D02*
X014863Y013532D01*
X014495Y013320D02*
X015232Y013745D01*
X014495Y013320D02*
X014778Y012829D01*
X015538Y011796D02*
X015487Y011602D01*
X015628Y011356D01*
X015822Y011305D01*
X015945Y011375D01*
X015997Y011569D01*
X016190Y011517D01*
X016313Y011588D01*
X016365Y011782D01*
X016223Y012027D01*
X016030Y012079D01*
X015926Y011692D02*
X015997Y011569D01*
X017106Y012281D02*
X017597Y012564D01*
X017210Y012668D02*
X017493Y012177D01*
X015993Y014727D02*
X015710Y015218D01*
D12*
X012365Y015601D02*
X012225Y015461D01*
X011945Y015461D01*
X011945Y015741D02*
X012225Y015741D01*
X012365Y015601D01*
X012295Y015922D02*
X012015Y015922D01*
X012295Y016202D01*
X012365Y016132D01*
X012365Y015992D01*
X012295Y015922D01*
X012295Y016202D02*
X012015Y016202D01*
X011945Y016132D01*
X011945Y015992D01*
X012015Y015922D01*
X012015Y016382D02*
X012085Y016382D01*
X012155Y016452D01*
X012225Y016382D01*
X012295Y016382D01*
X012365Y016452D01*
X012365Y016592D01*
X012295Y016662D01*
X012155Y016522D02*
X012155Y016452D01*
X012015Y016382D02*
X011945Y016452D01*
X011945Y016592D01*
X012015Y016662D01*
X012155Y016842D02*
X012155Y017123D01*
X012085Y017303D02*
X012015Y017303D01*
X011945Y017373D01*
X011945Y017513D01*
X012015Y017583D01*
X012085Y017303D02*
X012365Y017583D01*
X012365Y017303D01*
X012365Y017763D02*
X012365Y018043D01*
X012365Y017903D02*
X011945Y017903D01*
X012085Y018043D01*
D13*
X018901Y028725D02*
X019360Y028714D01*
X019818Y028681D01*
X020274Y028627D01*
X020727Y028551D01*
X021175Y028453D01*
X021619Y028334D01*
X022056Y028194D01*
X022486Y028034D01*
X022908Y027853D01*
X023321Y027653D01*
X023724Y027433D01*
X024116Y027194D01*
X024496Y026936D01*
X024864Y026661D01*
X025218Y026369D01*
X025558Y026060D01*
X025882Y025736D01*
X026191Y025396D01*
X026483Y025042D01*
X026758Y024674D01*
X027016Y024294D01*
X027255Y023902D01*
X027475Y023499D01*
X027675Y023086D01*
X027856Y022664D01*
X028016Y022234D01*
X028156Y021797D01*
X028275Y021353D01*
X028373Y020905D01*
X028449Y020452D01*
X028503Y019996D01*
X028536Y019538D01*
X028547Y019079D01*
X028536Y018620D01*
X028503Y018162D01*
X028449Y017706D01*
X028373Y017253D01*
X028275Y016805D01*
X028156Y016361D01*
X028016Y015924D01*
X027856Y015494D01*
X027675Y015072D01*
X027475Y014659D01*
X027255Y014256D01*
X027016Y013864D01*
X026758Y013484D01*
X026483Y013116D01*
X026191Y012762D01*
X025882Y012422D01*
X025558Y012098D01*
X025218Y011789D01*
X024864Y011497D01*
X024496Y011222D01*
X024116Y010964D01*
X023724Y010725D01*
X023321Y010505D01*
X022908Y010305D01*
X022486Y010124D01*
X022056Y009964D01*
X021619Y009824D01*
X021175Y009705D01*
X020727Y009607D01*
X020274Y009531D01*
X019818Y009477D01*
X019360Y009444D01*
X018901Y009433D01*
X018442Y009444D01*
X017984Y009477D01*
X017528Y009531D01*
X017075Y009607D01*
X016627Y009705D01*
X016183Y009824D01*
X015746Y009964D01*
X015316Y010124D01*
X014894Y010305D01*
X014481Y010505D01*
X014078Y010725D01*
X013686Y010964D01*
X013306Y011222D01*
X012938Y011497D01*
X012584Y011789D01*
X012244Y012098D01*
X011920Y012422D01*
X011611Y012762D01*
X011319Y013116D01*
X011044Y013484D01*
X010786Y013864D01*
X010547Y014256D01*
X010327Y014659D01*
X010127Y015072D01*
X009946Y015494D01*
X009786Y015924D01*
X009646Y016361D01*
X009527Y016805D01*
X009429Y017253D01*
X009353Y017706D01*
X009299Y018162D01*
X009266Y018620D01*
X009255Y019079D01*
X009266Y019538D01*
X009299Y019996D01*
X009353Y020452D01*
X009429Y020905D01*
X009527Y021353D01*
X009646Y021797D01*
X009786Y022234D01*
X009946Y022664D01*
X010127Y023086D01*
X010327Y023499D01*
X010547Y023902D01*
X010786Y024294D01*
X011044Y024674D01*
X011319Y025042D01*
X011611Y025396D01*
X011920Y025736D01*
X012244Y026060D01*
X012584Y026369D01*
X012938Y026661D01*
X013306Y026936D01*
X013686Y027194D01*
X014078Y027433D01*
X014481Y027653D01*
X014894Y027853D01*
X015316Y028034D01*
X015746Y028194D01*
X016183Y028334D01*
X016627Y028453D01*
X017075Y028551D01*
X017528Y028627D01*
X017984Y028681D01*
X018442Y028714D01*
X018901Y028725D01*
D14*
X017129Y010319D02*
X020673Y010319D01*
X020673Y009610D01*
X017129Y009591D02*
X017129Y010319D01*
M02*
