G75*
G70*
%OFA0B0*%
%FSLAX24Y24*%
%IPPOS*%
%LPD*%
%AMOC8*
5,1,8,0,0,1.08239X$1,22.5*
%
%ADD10C,0.0100*%
%ADD11R,0.0433X0.0394*%
%ADD12R,0.0500X0.0579*%
%ADD13C,0.0251*%
%ADD14R,0.1181X0.0551*%
%ADD15R,0.0217X0.0472*%
%ADD16R,0.1142X0.1969*%
%ADD17R,0.0276X0.0394*%
%ADD18OC8,0.0640*%
%ADD19R,0.0177X0.0276*%
%ADD20C,0.0240*%
%ADD21C,0.0400*%
%ADD22C,0.0160*%
%ADD23C,0.0436*%
%ADD24C,0.0120*%
%ADD25C,0.0560*%
D10*
X009255Y009433D02*
X009255Y028725D01*
X028547Y028725D01*
X028547Y009433D01*
X009255Y009433D01*
X009475Y009653D02*
X009475Y028505D01*
X028327Y028505D01*
X028327Y009653D01*
X009475Y009653D01*
X009475Y009729D02*
X028327Y009729D01*
X028327Y009827D02*
X009475Y009827D01*
X009475Y009926D02*
X028327Y009926D01*
X028327Y010024D02*
X009475Y010024D01*
X009475Y010123D02*
X028327Y010123D01*
X028327Y010221D02*
X009475Y010221D01*
X009475Y010320D02*
X016207Y010320D01*
X016257Y010270D02*
X016663Y010270D01*
X016950Y010557D01*
X016950Y010963D01*
X016663Y011250D01*
X016276Y011250D01*
X016276Y011349D01*
X016526Y011349D01*
X016661Y011484D01*
X017230Y012053D01*
X017230Y011223D01*
X016970Y010963D01*
X016970Y010557D01*
X017257Y010270D01*
X017663Y010270D01*
X017950Y010557D01*
X017950Y010963D01*
X017690Y011223D01*
X017690Y011903D01*
X018564Y012777D01*
X018573Y012777D01*
X018573Y012777D01*
X018230Y012434D01*
X018230Y011223D01*
X017970Y010963D01*
X017970Y010557D01*
X018257Y010270D01*
X018663Y010270D01*
X018950Y010557D01*
X018950Y010963D01*
X018690Y011223D01*
X018690Y012244D01*
X018898Y012451D01*
X018947Y012500D01*
X018947Y012488D01*
X019081Y012353D01*
X019230Y012204D01*
X019230Y011223D01*
X018970Y010963D01*
X018970Y010557D01*
X019257Y010270D01*
X019663Y010270D01*
X019950Y010557D01*
X019950Y010963D01*
X019690Y011223D01*
X019690Y012395D01*
X019407Y012678D01*
X019407Y012777D01*
X019474Y012777D01*
X020230Y012021D01*
X020230Y011223D01*
X019970Y010963D01*
X019970Y010557D01*
X020257Y010270D01*
X020663Y010270D01*
X020950Y010557D01*
X020950Y010963D01*
X020690Y011223D01*
X020690Y012212D01*
X019750Y013152D01*
X019750Y013293D01*
X019653Y013390D01*
X019750Y013487D01*
X019750Y013628D01*
X019931Y013810D01*
X020236Y013810D01*
X020335Y013711D01*
X020477Y013652D01*
X020632Y013652D01*
X020774Y013711D01*
X020884Y013820D01*
X020943Y013962D01*
X020943Y014117D01*
X020884Y014259D01*
X020774Y014369D01*
X020632Y014428D01*
X020477Y014428D01*
X020335Y014369D01*
X020236Y014270D01*
X019741Y014270D01*
X019606Y014135D01*
X019474Y014003D01*
X019407Y014003D01*
X019407Y015637D01*
X020196Y016427D01*
X020618Y016427D01*
X020618Y016525D02*
X020518Y016525D01*
X020479Y016486D02*
X020588Y016595D01*
X020618Y016666D01*
X020618Y015192D01*
X020615Y015186D01*
X020618Y015119D01*
X020618Y015051D01*
X020620Y015046D01*
X020620Y015039D01*
X020648Y014978D01*
X020674Y014915D01*
X020678Y014911D01*
X020681Y014905D01*
X020730Y014859D01*
X020778Y014811D01*
X020784Y014809D01*
X022155Y013525D01*
X021561Y012931D01*
X021516Y012822D01*
X021516Y012705D01*
X021561Y012596D01*
X022176Y011980D01*
X022285Y011935D01*
X022402Y011935D01*
X022511Y011980D01*
X024254Y013723D01*
X024299Y013832D01*
X024299Y013950D01*
X024254Y014058D01*
X023638Y014674D01*
X023530Y014719D01*
X023412Y014719D01*
X023304Y014674D01*
X022678Y014048D01*
X021358Y015285D01*
X021358Y018346D01*
X021301Y018482D01*
X020798Y018985D01*
X020864Y018985D01*
X021000Y019041D01*
X021104Y019145D01*
X021161Y019201D01*
X021398Y019201D01*
X021442Y019183D01*
X021596Y019183D01*
X021739Y019242D01*
X021848Y019351D01*
X021907Y019494D01*
X021907Y019648D01*
X021848Y019791D01*
X021739Y019900D01*
X021596Y019959D01*
X021442Y019959D01*
X021398Y019941D01*
X021074Y019941D01*
X023686Y022553D01*
X023714Y022572D01*
X023738Y022605D01*
X023767Y022634D01*
X023779Y022665D01*
X023986Y022962D01*
X024507Y022441D01*
X024615Y022396D01*
X024733Y022396D01*
X024841Y022441D01*
X025457Y023057D01*
X025502Y023165D01*
X025502Y023283D01*
X025457Y023391D01*
X023714Y025134D01*
X023605Y025179D01*
X023488Y025179D01*
X023379Y025134D01*
X022764Y024519D01*
X022719Y024410D01*
X022719Y024293D01*
X022764Y024184D01*
X023454Y023493D01*
X023168Y023082D01*
X020351Y020264D01*
X020351Y020606D01*
X020251Y020706D01*
X019405Y020706D01*
X019361Y020810D01*
X019235Y020937D01*
X019069Y021005D01*
X018890Y021005D01*
X018725Y020937D01*
X018539Y020751D01*
X018520Y020706D01*
X018385Y020706D01*
X018385Y022499D01*
X020456Y024569D01*
X020452Y024560D01*
X020452Y024405D01*
X020511Y024263D01*
X020620Y024154D01*
X020763Y024094D01*
X020917Y024094D01*
X021060Y024154D01*
X021169Y024263D01*
X021187Y024306D01*
X021622Y024741D01*
X021639Y024782D01*
X021770Y024914D01*
X021770Y024937D01*
X022088Y025255D01*
X022551Y024792D01*
X022692Y024792D01*
X023145Y025245D01*
X023145Y025386D01*
X022939Y025593D01*
X023008Y025662D01*
X023008Y026138D01*
X023600Y026138D01*
X023749Y025989D01*
X023824Y025989D01*
X024029Y025784D01*
X023877Y025632D01*
X023832Y025524D01*
X023832Y025406D01*
X023877Y025298D01*
X025620Y023555D01*
X025729Y023510D01*
X025846Y023510D01*
X025955Y023555D01*
X026570Y024170D01*
X026615Y024279D01*
X026615Y024396D01*
X026570Y024505D01*
X024827Y026248D01*
X024719Y026293D01*
X024601Y026293D01*
X024577Y026283D01*
X024343Y026517D01*
X024343Y026583D01*
X023834Y027092D01*
X023693Y027092D01*
X023479Y026878D01*
X023008Y026878D01*
X023008Y027771D01*
X022908Y027871D01*
X020563Y027871D01*
X020463Y027771D01*
X020463Y027541D01*
X018159Y025237D01*
X018159Y024299D01*
X018060Y024200D01*
X018001Y024058D01*
X018001Y023903D01*
X018060Y023761D01*
X018169Y023652D01*
X018312Y023592D01*
X018432Y023592D01*
X017806Y022966D01*
X017702Y022862D01*
X017645Y022726D01*
X017645Y020706D01*
X017354Y020706D01*
X017255Y020606D01*
X017255Y019812D01*
X016892Y020174D01*
X016892Y020174D01*
X016788Y020278D01*
X016652Y020335D01*
X014507Y020335D01*
X013312Y021530D01*
X013324Y021530D01*
X013366Y021571D01*
X013455Y021482D01*
X013474Y021438D01*
X013583Y021329D01*
X013725Y021270D01*
X013880Y021270D01*
X014022Y021329D01*
X014132Y021438D01*
X014191Y021581D01*
X014191Y021735D01*
X014132Y021878D01*
X014022Y021987D01*
X013979Y022005D01*
X013678Y022306D01*
X013542Y022362D01*
X013444Y022362D01*
X013352Y022454D01*
X013329Y022454D01*
X013011Y022772D01*
X013474Y023236D01*
X013474Y023376D01*
X013021Y023830D01*
X012880Y023830D01*
X012641Y023591D01*
X012633Y023599D01*
X012128Y023599D01*
X012128Y024284D01*
X012277Y024433D01*
X012277Y024508D01*
X012507Y024739D01*
X012668Y024577D01*
X012777Y024532D01*
X012895Y024532D01*
X013003Y024577D01*
X014746Y026320D01*
X014791Y026429D01*
X014791Y026546D01*
X014746Y026655D01*
X014131Y027270D01*
X014022Y027315D01*
X013904Y027315D01*
X013796Y027270D01*
X012053Y025527D01*
X012008Y025419D01*
X012008Y025301D01*
X012012Y025291D01*
X011748Y025027D01*
X011683Y025027D01*
X011174Y024518D01*
X011174Y024377D01*
X011388Y024163D01*
X011388Y023599D01*
X010366Y023599D01*
X010266Y023500D01*
X010266Y021509D01*
X010366Y021409D01*
X011226Y021409D01*
X013119Y019516D01*
X013060Y019456D01*
X013001Y019314D01*
X013001Y019159D01*
X013060Y019017D01*
X013169Y018907D01*
X013312Y018848D01*
X013466Y018848D01*
X013609Y018907D01*
X013718Y019017D01*
X013777Y019159D01*
X013777Y019314D01*
X013718Y019456D01*
X013619Y019555D01*
X013619Y019666D01*
X013484Y019801D01*
X011962Y021323D01*
X012015Y021323D01*
X012443Y021323D01*
X012710Y021056D01*
X012739Y021056D01*
X012229Y021056D01*
X012328Y020958D02*
X012837Y020958D01*
X012739Y021056D02*
X014040Y019755D01*
X014144Y019651D01*
X014280Y019595D01*
X016425Y019595D01*
X016846Y019173D01*
X016327Y019173D01*
X016191Y019117D01*
X016087Y019013D01*
X015772Y018698D01*
X015716Y018562D01*
X015716Y016171D01*
X015772Y016035D01*
X015876Y015931D01*
X015896Y015911D01*
X015915Y015867D01*
X016024Y015758D01*
X016166Y015699D01*
X016321Y015699D01*
X016463Y015758D01*
X016573Y015867D01*
X016632Y016010D01*
X016632Y016164D01*
X016573Y016307D01*
X016463Y016416D01*
X016456Y016419D01*
X016456Y018335D01*
X016554Y018433D01*
X017255Y018433D01*
X017255Y018231D01*
X016894Y017871D01*
X016838Y017735D01*
X016838Y014114D01*
X016181Y013457D01*
X016181Y013515D01*
X016143Y013553D01*
X016223Y013633D01*
X016267Y013652D01*
X016376Y013761D01*
X016435Y013903D01*
X016435Y014058D01*
X016376Y014200D01*
X016267Y014310D01*
X016124Y014369D01*
X015969Y014369D01*
X015827Y014310D01*
X015718Y014200D01*
X015700Y014157D01*
X015343Y013800D01*
X015275Y013772D01*
X015171Y013668D01*
X014969Y013466D01*
X014481Y013954D01*
X014340Y013954D01*
X013887Y013501D01*
X013887Y013360D01*
X014317Y012930D01*
X014244Y012930D01*
X014144Y012831D01*
X014144Y012575D01*
X014003Y012575D01*
X013465Y012575D01*
X013284Y012757D01*
X013213Y012757D01*
X012999Y012971D01*
X013216Y013188D01*
X013261Y013296D01*
X013261Y013414D01*
X013216Y013522D01*
X011473Y015265D01*
X011364Y015310D01*
X011247Y015310D01*
X011138Y015265D01*
X010523Y014650D01*
X010478Y014541D01*
X010478Y014424D01*
X010523Y014315D01*
X012266Y012572D01*
X012374Y012527D01*
X012396Y012527D01*
X012690Y012234D01*
X012690Y012163D01*
X013199Y011654D01*
X013339Y011654D01*
X013521Y011835D01*
X013923Y011835D01*
X014144Y011614D01*
X014144Y010938D01*
X014244Y010838D01*
X014930Y010838D01*
X014948Y010820D01*
X015089Y010820D01*
X015107Y010838D01*
X015970Y010838D01*
X015970Y010557D01*
X016257Y010270D01*
X016109Y010418D02*
X009475Y010418D01*
X009475Y010517D02*
X016010Y010517D01*
X015970Y010615D02*
X009475Y010615D01*
X009475Y010714D02*
X015970Y010714D01*
X015970Y010812D02*
X009475Y010812D01*
X009475Y010911D02*
X014171Y010911D01*
X014144Y011009D02*
X009475Y011009D01*
X009475Y011108D02*
X014144Y011108D01*
X014144Y011206D02*
X009475Y011206D01*
X009475Y011305D02*
X014144Y011305D01*
X014144Y011403D02*
X009475Y011403D01*
X009475Y011502D02*
X014144Y011502D01*
X014144Y011600D02*
X009475Y011600D01*
X009475Y011699D02*
X013154Y011699D01*
X013055Y011797D02*
X009475Y011797D01*
X009475Y011896D02*
X012957Y011896D01*
X012858Y011994D02*
X009475Y011994D01*
X009475Y012093D02*
X012760Y012093D01*
X012690Y012191D02*
X009475Y012191D01*
X009475Y012290D02*
X012633Y012290D01*
X012535Y012388D02*
X009475Y012388D01*
X009475Y012487D02*
X012436Y012487D01*
X012253Y012585D02*
X009475Y012585D01*
X009475Y012684D02*
X012154Y012684D01*
X012056Y012782D02*
X009475Y012782D01*
X009475Y012881D02*
X011957Y012881D01*
X011859Y012979D02*
X009475Y012979D01*
X009475Y013078D02*
X011760Y013078D01*
X011662Y013176D02*
X009475Y013176D01*
X009475Y013275D02*
X011563Y013275D01*
X011465Y013373D02*
X009475Y013373D01*
X009475Y013472D02*
X011366Y013472D01*
X011268Y013570D02*
X009475Y013570D01*
X009475Y013669D02*
X011169Y013669D01*
X011071Y013767D02*
X009475Y013767D01*
X009475Y013866D02*
X010972Y013866D01*
X010874Y013964D02*
X009475Y013964D01*
X009475Y014063D02*
X010775Y014063D01*
X010677Y014161D02*
X009475Y014161D01*
X009475Y014260D02*
X010578Y014260D01*
X010505Y014358D02*
X009475Y014358D01*
X009475Y014457D02*
X010478Y014457D01*
X010484Y014555D02*
X009475Y014555D01*
X009475Y014654D02*
X010527Y014654D01*
X010625Y014752D02*
X009475Y014752D01*
X009475Y014851D02*
X010724Y014851D01*
X010822Y014949D02*
X009475Y014949D01*
X009475Y015048D02*
X010921Y015048D01*
X011019Y015146D02*
X009475Y015146D01*
X009475Y015245D02*
X011118Y015245D01*
X011494Y015245D02*
X011820Y015245D01*
X011722Y015343D02*
X009475Y015343D01*
X009475Y015442D02*
X011631Y015442D01*
X011636Y015429D02*
X013379Y013686D01*
X013488Y013641D01*
X013606Y013641D01*
X013714Y013686D01*
X014330Y014301D01*
X014375Y014410D01*
X014375Y014527D01*
X014330Y014636D01*
X013724Y015242D01*
X014421Y015927D01*
X014424Y015928D01*
X014473Y015978D01*
X014523Y016028D01*
X014525Y016031D01*
X015340Y016863D01*
X015381Y016880D01*
X015490Y016989D01*
X015549Y017132D01*
X015549Y017286D01*
X015490Y017429D01*
X015381Y017538D01*
X015238Y017597D01*
X015084Y017597D01*
X014941Y017538D01*
X014832Y017429D01*
X014812Y017382D01*
X013950Y016501D01*
X013201Y015765D01*
X012587Y016379D01*
X012478Y016424D01*
X012360Y016424D01*
X012252Y016379D01*
X011636Y015763D01*
X011591Y015655D01*
X011591Y015537D01*
X011636Y015429D01*
X011591Y015540D02*
X009475Y015540D01*
X009475Y015639D02*
X011591Y015639D01*
X011626Y015737D02*
X009475Y015737D01*
X009475Y015836D02*
X011709Y015836D01*
X011807Y015934D02*
X009475Y015934D01*
X009475Y016033D02*
X011906Y016033D01*
X012004Y016131D02*
X009475Y016131D01*
X009475Y016230D02*
X012103Y016230D01*
X012201Y016328D02*
X009475Y016328D01*
X009475Y016427D02*
X013874Y016427D01*
X013973Y016525D02*
X009475Y016525D01*
X009475Y016624D02*
X014070Y016624D01*
X014166Y016722D02*
X009475Y016722D01*
X009475Y016821D02*
X014263Y016821D01*
X014359Y016919D02*
X009475Y016919D01*
X009475Y017018D02*
X014456Y017018D01*
X014552Y017116D02*
X009475Y017116D01*
X009475Y017215D02*
X014649Y017215D01*
X014745Y017313D02*
X009475Y017313D01*
X009475Y017412D02*
X014825Y017412D01*
X014913Y017510D02*
X009475Y017510D01*
X009475Y017609D02*
X015716Y017609D01*
X015716Y017707D02*
X009475Y017707D01*
X009475Y017806D02*
X015716Y017806D01*
X015716Y017904D02*
X009475Y017904D01*
X009475Y018003D02*
X015716Y018003D01*
X015716Y018101D02*
X009475Y018101D01*
X009475Y018200D02*
X015716Y018200D01*
X015716Y018298D02*
X009475Y018298D01*
X009475Y018397D02*
X015716Y018397D01*
X015716Y018495D02*
X009475Y018495D01*
X009475Y018594D02*
X015729Y018594D01*
X015770Y018692D02*
X009475Y018692D01*
X009475Y018791D02*
X015865Y018791D01*
X015964Y018889D02*
X013565Y018889D01*
X013689Y018988D02*
X016062Y018988D01*
X016161Y019086D02*
X013747Y019086D01*
X013777Y019185D02*
X016835Y019185D01*
X016736Y019283D02*
X013777Y019283D01*
X013749Y019382D02*
X016638Y019382D01*
X016539Y019480D02*
X013694Y019480D01*
X013619Y019579D02*
X016441Y019579D01*
X016995Y020071D02*
X017255Y020071D01*
X017255Y019973D02*
X017093Y019973D01*
X017192Y019874D02*
X017255Y019874D01*
X017255Y020170D02*
X016896Y020170D01*
X016798Y020268D02*
X017255Y020268D01*
X017255Y020367D02*
X014475Y020367D01*
X014376Y020465D02*
X017255Y020465D01*
X017255Y020564D02*
X014278Y020564D01*
X014179Y020662D02*
X017311Y020662D01*
X017645Y020761D02*
X014081Y020761D01*
X013982Y020859D02*
X017645Y020859D01*
X017645Y020958D02*
X013884Y020958D01*
X013785Y021056D02*
X016670Y021056D01*
X016693Y021033D02*
X016584Y021143D01*
X016525Y021285D01*
X016525Y021440D01*
X016543Y021483D01*
X016543Y022649D01*
X014770Y024117D01*
X014117Y023464D01*
X014008Y023419D01*
X013891Y023419D01*
X013782Y023464D01*
X013166Y024079D01*
X013121Y024188D01*
X013121Y024305D01*
X013166Y024414D01*
X014909Y026157D01*
X015018Y026202D01*
X015136Y026202D01*
X015244Y026157D01*
X015860Y025541D01*
X015905Y025433D01*
X015905Y025315D01*
X015860Y025207D01*
X015296Y024643D01*
X017106Y023144D01*
X017122Y023137D01*
X017162Y023097D01*
X017205Y023061D01*
X017214Y023045D01*
X017226Y023033D01*
X017248Y022981D01*
X017274Y022931D01*
X017276Y022913D01*
X017283Y022897D01*
X017283Y022841D01*
X017288Y022785D01*
X017283Y022768D01*
X017283Y021483D01*
X017301Y021440D01*
X017301Y021285D01*
X017242Y021143D01*
X017133Y021033D01*
X016990Y020974D01*
X016836Y020974D01*
X016693Y021033D01*
X016579Y021155D02*
X013687Y021155D01*
X013588Y021253D02*
X016538Y021253D01*
X016525Y021352D02*
X014046Y021352D01*
X014137Y021450D02*
X016529Y021450D01*
X016543Y021549D02*
X014178Y021549D01*
X014191Y021647D02*
X016543Y021647D01*
X016543Y021746D02*
X014186Y021746D01*
X014145Y021844D02*
X016543Y021844D01*
X016543Y021943D02*
X014066Y021943D01*
X013942Y022041D02*
X016543Y022041D01*
X016543Y022140D02*
X013844Y022140D01*
X013745Y022238D02*
X016543Y022238D01*
X016543Y022337D02*
X013603Y022337D01*
X013371Y022435D02*
X016543Y022435D01*
X016543Y022534D02*
X013249Y022534D01*
X013150Y022632D02*
X016543Y022632D01*
X016444Y022731D02*
X013052Y022731D01*
X013068Y022829D02*
X016325Y022829D01*
X016206Y022928D02*
X013166Y022928D01*
X013265Y023026D02*
X016087Y023026D01*
X015968Y023125D02*
X013363Y023125D01*
X013462Y023223D02*
X015849Y023223D01*
X015730Y023322D02*
X013474Y023322D01*
X013430Y023420D02*
X013886Y023420D01*
X014013Y023420D02*
X015611Y023420D01*
X015492Y023519D02*
X014172Y023519D01*
X014271Y023617D02*
X015374Y023617D01*
X015255Y023716D02*
X014369Y023716D01*
X014468Y023814D02*
X015136Y023814D01*
X015017Y023913D02*
X014566Y023913D01*
X014665Y024011D02*
X014898Y024011D01*
X014779Y024110D02*
X014763Y024110D01*
X015344Y024602D02*
X018159Y024602D01*
X018159Y024504D02*
X015463Y024504D01*
X015582Y024405D02*
X018159Y024405D01*
X018159Y024307D02*
X015701Y024307D01*
X015820Y024208D02*
X018068Y024208D01*
X018023Y024110D02*
X015939Y024110D01*
X016058Y024011D02*
X018001Y024011D01*
X018001Y023913D02*
X016177Y023913D01*
X016296Y023814D02*
X018038Y023814D01*
X018105Y023716D02*
X016415Y023716D01*
X016534Y023617D02*
X018252Y023617D01*
X018359Y023519D02*
X016653Y023519D01*
X016772Y023420D02*
X018260Y023420D01*
X018162Y023322D02*
X016891Y023322D01*
X017010Y023223D02*
X018063Y023223D01*
X017965Y023125D02*
X017134Y023125D01*
X017229Y023026D02*
X017866Y023026D01*
X017768Y022928D02*
X017275Y022928D01*
X017284Y022829D02*
X017688Y022829D01*
X017647Y022731D02*
X017283Y022731D01*
X017283Y022632D02*
X017645Y022632D01*
X017645Y022534D02*
X017283Y022534D01*
X017283Y022435D02*
X017645Y022435D01*
X017645Y022337D02*
X017283Y022337D01*
X017283Y022238D02*
X017645Y022238D01*
X017645Y022140D02*
X017283Y022140D01*
X017283Y022041D02*
X017645Y022041D01*
X017645Y021943D02*
X017283Y021943D01*
X017283Y021844D02*
X017645Y021844D01*
X017645Y021746D02*
X017283Y021746D01*
X017283Y021647D02*
X017645Y021647D01*
X017645Y021549D02*
X017283Y021549D01*
X017297Y021450D02*
X017645Y021450D01*
X017645Y021352D02*
X017301Y021352D01*
X017288Y021253D02*
X017645Y021253D01*
X017645Y021155D02*
X017247Y021155D01*
X017156Y021056D02*
X017645Y021056D01*
X018385Y021056D02*
X021143Y021056D01*
X021241Y021155D02*
X018385Y021155D01*
X018385Y021253D02*
X021340Y021253D01*
X021438Y021352D02*
X018385Y021352D01*
X018385Y021450D02*
X021537Y021450D01*
X021635Y021549D02*
X018385Y021549D01*
X018385Y021647D02*
X021734Y021647D01*
X021832Y021746D02*
X018385Y021746D01*
X018385Y021844D02*
X021931Y021844D01*
X022029Y021943D02*
X018385Y021943D01*
X018385Y022041D02*
X022128Y022041D01*
X022226Y022140D02*
X018385Y022140D01*
X018385Y022238D02*
X022325Y022238D01*
X022423Y022337D02*
X018385Y022337D01*
X018385Y022435D02*
X022522Y022435D01*
X022620Y022534D02*
X018420Y022534D01*
X018519Y022632D02*
X022719Y022632D01*
X022817Y022731D02*
X018617Y022731D01*
X018716Y022829D02*
X022916Y022829D01*
X023014Y022928D02*
X018814Y022928D01*
X018913Y023026D02*
X023113Y023026D01*
X023198Y023125D02*
X019011Y023125D01*
X019110Y023223D02*
X023267Y023223D01*
X023335Y023322D02*
X019208Y023322D01*
X019307Y023420D02*
X023404Y023420D01*
X023429Y023519D02*
X019405Y023519D01*
X019504Y023617D02*
X023330Y023617D01*
X023232Y023716D02*
X019602Y023716D01*
X019701Y023814D02*
X023133Y023814D01*
X023035Y023913D02*
X019799Y023913D01*
X019898Y024011D02*
X022936Y024011D01*
X022838Y024110D02*
X020954Y024110D01*
X021115Y024208D02*
X022754Y024208D01*
X022719Y024307D02*
X021188Y024307D01*
X021286Y024405D02*
X022719Y024405D01*
X022757Y024504D02*
X021385Y024504D01*
X021483Y024602D02*
X022847Y024602D01*
X022946Y024701D02*
X021582Y024701D01*
X021656Y024799D02*
X022544Y024799D01*
X022446Y024898D02*
X021754Y024898D01*
X021829Y024996D02*
X022347Y024996D01*
X022249Y025095D02*
X021928Y025095D01*
X022026Y025193D02*
X022150Y025193D01*
X022700Y024799D02*
X023044Y024799D01*
X023143Y024898D02*
X022798Y024898D01*
X022897Y024996D02*
X023241Y024996D01*
X023340Y025095D02*
X022995Y025095D01*
X023094Y025193D02*
X023981Y025193D01*
X024080Y025095D02*
X023753Y025095D01*
X023852Y024996D02*
X024178Y024996D01*
X024277Y024898D02*
X023950Y024898D01*
X024049Y024799D02*
X024375Y024799D01*
X024474Y024701D02*
X024147Y024701D01*
X024246Y024602D02*
X024572Y024602D01*
X024671Y024504D02*
X024344Y024504D01*
X024443Y024405D02*
X024769Y024405D01*
X024868Y024307D02*
X024541Y024307D01*
X024640Y024208D02*
X024966Y024208D01*
X025065Y024110D02*
X024738Y024110D01*
X024837Y024011D02*
X025163Y024011D01*
X025262Y023913D02*
X024935Y023913D01*
X025034Y023814D02*
X025360Y023814D01*
X025459Y023716D02*
X025132Y023716D01*
X025231Y023617D02*
X025557Y023617D01*
X025706Y023519D02*
X025329Y023519D01*
X025428Y023420D02*
X028327Y023420D01*
X028327Y023322D02*
X025486Y023322D01*
X025502Y023223D02*
X028327Y023223D01*
X028327Y023125D02*
X025485Y023125D01*
X025427Y023026D02*
X028327Y023026D01*
X028327Y022928D02*
X025328Y022928D01*
X025230Y022829D02*
X028327Y022829D01*
X028327Y022731D02*
X025131Y022731D01*
X025033Y022632D02*
X028327Y022632D01*
X028327Y022534D02*
X024934Y022534D01*
X024828Y022435D02*
X028327Y022435D01*
X028327Y022337D02*
X023470Y022337D01*
X023568Y022435D02*
X024520Y022435D01*
X024414Y022534D02*
X023667Y022534D01*
X023765Y022632D02*
X024315Y022632D01*
X024217Y022731D02*
X023825Y022731D01*
X023894Y022829D02*
X024118Y022829D01*
X024020Y022928D02*
X023962Y022928D01*
X023371Y022238D02*
X028327Y022238D01*
X028327Y022140D02*
X023273Y022140D01*
X023174Y022041D02*
X028327Y022041D01*
X028327Y021943D02*
X023076Y021943D01*
X022977Y021844D02*
X028327Y021844D01*
X028327Y021746D02*
X022879Y021746D01*
X022780Y021647D02*
X028327Y021647D01*
X028327Y021549D02*
X022682Y021549D01*
X022583Y021450D02*
X028327Y021450D01*
X028327Y021352D02*
X022485Y021352D01*
X022386Y021253D02*
X028327Y021253D01*
X028327Y021155D02*
X022288Y021155D01*
X022189Y021056D02*
X028327Y021056D01*
X028327Y020958D02*
X022091Y020958D01*
X021992Y020859D02*
X028327Y020859D01*
X028327Y020761D02*
X021894Y020761D01*
X021795Y020662D02*
X028327Y020662D01*
X028327Y020564D02*
X021697Y020564D01*
X021598Y020465D02*
X028327Y020465D01*
X028327Y020367D02*
X021500Y020367D01*
X021401Y020268D02*
X028327Y020268D01*
X028327Y020170D02*
X021303Y020170D01*
X021204Y020071D02*
X028327Y020071D01*
X028327Y019973D02*
X021106Y019973D01*
X021765Y019874D02*
X028327Y019874D01*
X028327Y019776D02*
X021854Y019776D01*
X021895Y019677D02*
X028327Y019677D01*
X028327Y019579D02*
X021907Y019579D01*
X021902Y019480D02*
X028327Y019480D01*
X028327Y019382D02*
X027734Y019382D01*
X027726Y019396D02*
X027746Y019361D01*
X027756Y019323D01*
X027756Y019078D01*
X027065Y019078D01*
X026965Y019078D01*
X026965Y018978D01*
X026275Y018978D01*
X026275Y018732D01*
X026285Y018694D01*
X026305Y018660D01*
X026333Y018632D01*
X026367Y018612D01*
X026405Y018602D01*
X026965Y018602D01*
X026965Y018978D01*
X027065Y018978D01*
X027065Y018602D01*
X027625Y018602D01*
X027664Y018612D01*
X027698Y018632D01*
X027726Y018660D01*
X027746Y018694D01*
X027756Y018732D01*
X027756Y018978D01*
X027065Y018978D01*
X027065Y019078D01*
X027065Y019453D01*
X027625Y019453D01*
X027664Y019443D01*
X027698Y019423D01*
X027726Y019396D01*
X027756Y019283D02*
X028327Y019283D01*
X028327Y019185D02*
X027756Y019185D01*
X027756Y019086D02*
X028327Y019086D01*
X028327Y018988D02*
X027065Y018988D01*
X027065Y019086D02*
X026965Y019086D01*
X026965Y019078D02*
X026965Y019453D01*
X026405Y019453D01*
X026367Y019443D01*
X026333Y019423D01*
X026305Y019396D01*
X026285Y019361D01*
X026275Y019323D01*
X026275Y019078D01*
X026965Y019078D01*
X026965Y018988D02*
X025886Y018988D01*
X025886Y019086D02*
X026275Y019086D01*
X026275Y019185D02*
X025886Y019185D01*
X025886Y019283D02*
X026275Y019283D01*
X026297Y019382D02*
X025878Y019382D01*
X025886Y019374D02*
X025786Y019473D01*
X024464Y019473D01*
X024389Y019398D01*
X023953Y019398D01*
X023817Y019341D01*
X023804Y019328D01*
X023760Y019310D01*
X023651Y019200D01*
X023592Y019058D01*
X023592Y018903D01*
X023651Y018761D01*
X023760Y018652D01*
X023903Y018592D01*
X024057Y018592D01*
X024200Y018652D01*
X024206Y018658D01*
X024389Y018658D01*
X024464Y018582D01*
X025786Y018582D01*
X025886Y018682D01*
X025886Y019374D01*
X025886Y018889D02*
X026275Y018889D01*
X026275Y018791D02*
X025886Y018791D01*
X025886Y018692D02*
X026286Y018692D01*
X025798Y018594D02*
X028327Y018594D01*
X028327Y018692D02*
X027744Y018692D01*
X027756Y018791D02*
X028327Y018791D01*
X028327Y018889D02*
X027756Y018889D01*
X027065Y018889D02*
X026965Y018889D01*
X026965Y018791D02*
X027065Y018791D01*
X027065Y018692D02*
X026965Y018692D01*
X026965Y019185D02*
X027065Y019185D01*
X027065Y019283D02*
X026965Y019283D01*
X026965Y019382D02*
X027065Y019382D01*
X028327Y018495D02*
X021287Y018495D01*
X021336Y018397D02*
X028327Y018397D01*
X028327Y018298D02*
X021358Y018298D01*
X021358Y018200D02*
X028327Y018200D01*
X028327Y018101D02*
X021358Y018101D01*
X021358Y018003D02*
X028327Y018003D01*
X028327Y017904D02*
X021358Y017904D01*
X021358Y017806D02*
X028327Y017806D01*
X028327Y017707D02*
X021358Y017707D01*
X021358Y017609D02*
X028327Y017609D01*
X028327Y017510D02*
X021358Y017510D01*
X021358Y017412D02*
X022394Y017412D01*
X022421Y017440D02*
X022312Y017330D01*
X022253Y017188D01*
X022253Y017033D01*
X022312Y016891D01*
X022421Y016781D01*
X022564Y016722D01*
X022718Y016722D01*
X022762Y016740D01*
X023514Y016740D01*
X023474Y016700D01*
X023414Y016558D01*
X023414Y016403D01*
X023474Y016261D01*
X023583Y016152D01*
X023725Y016092D01*
X023880Y016092D01*
X023924Y016111D01*
X023955Y016111D01*
X024012Y016054D01*
X024012Y016030D01*
X024390Y015652D01*
X024413Y015652D01*
X024731Y015334D01*
X024268Y014871D01*
X024268Y014730D01*
X024721Y014277D01*
X024862Y014277D01*
X025284Y014699D01*
X025327Y014657D01*
X025614Y014657D01*
X025614Y013823D01*
X025465Y013674D01*
X025465Y013598D01*
X025229Y013363D01*
X024949Y013363D01*
X024752Y013560D01*
X024643Y013605D01*
X024526Y013605D01*
X024417Y013560D01*
X022674Y011817D01*
X022629Y011709D01*
X022629Y011591D01*
X022674Y011482D01*
X023290Y010867D01*
X023398Y010822D01*
X023516Y010822D01*
X023624Y010867D01*
X025367Y012610D01*
X025373Y012623D01*
X025456Y012623D01*
X025514Y012647D01*
X025592Y012679D01*
X025592Y012679D01*
X025592Y012679D01*
X025598Y012685D01*
X025696Y012783D01*
X025993Y013080D01*
X026059Y013080D01*
X026568Y013589D01*
X026568Y013730D01*
X026354Y013944D01*
X026354Y014572D01*
X026439Y014657D01*
X027180Y014657D01*
X027280Y014757D01*
X027280Y016964D01*
X027180Y017064D01*
X027095Y017064D01*
X027034Y017125D01*
X026892Y017184D01*
X026737Y017184D01*
X026595Y017125D01*
X026534Y017064D01*
X025327Y017064D01*
X025227Y016964D01*
X025227Y016855D01*
X025032Y017050D01*
X025008Y017050D01*
X024739Y017320D01*
X024635Y017424D01*
X024499Y017480D01*
X022762Y017480D01*
X022718Y017499D01*
X022564Y017499D01*
X022421Y017440D01*
X022305Y017313D02*
X021358Y017313D01*
X021358Y017215D02*
X022264Y017215D01*
X022253Y017116D02*
X021358Y017116D01*
X021358Y017018D02*
X022259Y017018D01*
X022300Y016919D02*
X021358Y016919D01*
X021358Y016821D02*
X022382Y016821D01*
X021358Y016722D02*
X023495Y016722D01*
X023442Y016624D02*
X021358Y016624D01*
X021358Y016525D02*
X023414Y016525D01*
X023414Y016427D02*
X021358Y016427D01*
X021358Y016328D02*
X023446Y016328D01*
X023504Y016230D02*
X021358Y016230D01*
X021358Y016131D02*
X023632Y016131D01*
X024012Y016033D02*
X021358Y016033D01*
X021358Y015934D02*
X024108Y015934D01*
X024207Y015836D02*
X021358Y015836D01*
X021358Y015737D02*
X024305Y015737D01*
X024427Y015639D02*
X021358Y015639D01*
X021358Y015540D02*
X024525Y015540D01*
X024624Y015442D02*
X021358Y015442D01*
X021358Y015343D02*
X024722Y015343D01*
X024642Y015245D02*
X021401Y015245D01*
X021506Y015146D02*
X024543Y015146D01*
X024445Y015048D02*
X021611Y015048D01*
X021716Y014949D02*
X024346Y014949D01*
X024268Y014851D02*
X021821Y014851D01*
X021927Y014752D02*
X024268Y014752D01*
X024345Y014654D02*
X023658Y014654D01*
X023757Y014555D02*
X024443Y014555D01*
X024542Y014457D02*
X023855Y014457D01*
X023954Y014358D02*
X024640Y014358D01*
X024943Y014358D02*
X025614Y014358D01*
X025614Y014260D02*
X024052Y014260D01*
X024151Y014161D02*
X025614Y014161D01*
X025614Y014063D02*
X024249Y014063D01*
X024293Y013964D02*
X025614Y013964D01*
X025614Y013866D02*
X024299Y013866D01*
X024272Y013767D02*
X025558Y013767D01*
X025465Y013669D02*
X024199Y013669D01*
X024101Y013570D02*
X024442Y013570D01*
X024329Y013472D02*
X024002Y013472D01*
X023904Y013373D02*
X024230Y013373D01*
X024132Y013275D02*
X023805Y013275D01*
X023707Y013176D02*
X024033Y013176D01*
X023935Y013078D02*
X023608Y013078D01*
X023510Y012979D02*
X023836Y012979D01*
X023738Y012881D02*
X023411Y012881D01*
X023313Y012782D02*
X023639Y012782D01*
X023541Y012684D02*
X023214Y012684D01*
X023116Y012585D02*
X023442Y012585D01*
X023344Y012487D02*
X023017Y012487D01*
X022919Y012388D02*
X023245Y012388D01*
X023147Y012290D02*
X022820Y012290D01*
X022722Y012191D02*
X023048Y012191D01*
X022950Y012093D02*
X022623Y012093D01*
X022525Y011994D02*
X022851Y011994D01*
X022753Y011896D02*
X020690Y011896D01*
X020690Y011994D02*
X022162Y011994D01*
X022064Y012093D02*
X020690Y012093D01*
X020690Y012191D02*
X021965Y012191D01*
X021867Y012290D02*
X020612Y012290D01*
X020513Y012388D02*
X021768Y012388D01*
X021670Y012487D02*
X020415Y012487D01*
X020316Y012585D02*
X021571Y012585D01*
X021524Y012684D02*
X020218Y012684D01*
X020119Y012782D02*
X021516Y012782D01*
X021540Y012881D02*
X020021Y012881D01*
X019922Y012979D02*
X021609Y012979D01*
X021708Y013078D02*
X019824Y013078D01*
X019750Y013176D02*
X021806Y013176D01*
X021905Y013275D02*
X019750Y013275D01*
X019670Y013373D02*
X022003Y013373D01*
X022102Y013472D02*
X019735Y013472D01*
X019750Y013570D02*
X022106Y013570D01*
X022001Y013669D02*
X020674Y013669D01*
X020831Y013767D02*
X021896Y013767D01*
X021791Y013866D02*
X020903Y013866D01*
X020943Y013964D02*
X021685Y013964D01*
X021580Y014063D02*
X020943Y014063D01*
X020924Y014161D02*
X021475Y014161D01*
X021370Y014260D02*
X020883Y014260D01*
X020785Y014358D02*
X021265Y014358D01*
X021160Y014457D02*
X019407Y014457D01*
X019407Y014555D02*
X021054Y014555D01*
X020949Y014654D02*
X019407Y014654D01*
X019407Y014752D02*
X020844Y014752D01*
X020738Y014851D02*
X019407Y014851D01*
X019407Y014949D02*
X020660Y014949D01*
X020619Y015048D02*
X019407Y015048D01*
X019407Y015146D02*
X020617Y015146D01*
X020618Y015245D02*
X019407Y015245D01*
X019407Y015343D02*
X020618Y015343D01*
X020618Y015442D02*
X019407Y015442D01*
X019407Y015540D02*
X020618Y015540D01*
X020618Y015639D02*
X019408Y015639D01*
X019507Y015737D02*
X020618Y015737D01*
X020618Y015836D02*
X019605Y015836D01*
X019704Y015934D02*
X020618Y015934D01*
X020618Y016033D02*
X019802Y016033D01*
X019901Y016131D02*
X020618Y016131D01*
X020618Y016230D02*
X019999Y016230D01*
X020098Y016328D02*
X020618Y016328D01*
X020479Y016486D02*
X020336Y016427D01*
X020196Y016427D01*
X020600Y016624D02*
X020618Y016624D01*
X021189Y018594D02*
X023899Y018594D01*
X024060Y018594D02*
X024453Y018594D01*
X023915Y019382D02*
X021861Y019382D01*
X021780Y019283D02*
X023734Y019283D01*
X023644Y019185D02*
X021601Y019185D01*
X021437Y019185D02*
X021144Y019185D01*
X021046Y019086D02*
X023603Y019086D01*
X023592Y018988D02*
X020872Y018988D01*
X020893Y018889D02*
X023597Y018889D01*
X023638Y018791D02*
X020992Y018791D01*
X021090Y018692D02*
X023719Y018692D01*
X024647Y017412D02*
X028327Y017412D01*
X028327Y017313D02*
X024745Y017313D01*
X024844Y017215D02*
X028327Y017215D01*
X028327Y017116D02*
X027042Y017116D01*
X027226Y017018D02*
X028327Y017018D01*
X028327Y016919D02*
X027280Y016919D01*
X027280Y016821D02*
X028327Y016821D01*
X028327Y016722D02*
X027280Y016722D01*
X027280Y016624D02*
X028327Y016624D01*
X028327Y016525D02*
X027280Y016525D01*
X027280Y016427D02*
X028327Y016427D01*
X028327Y016328D02*
X027280Y016328D01*
X027280Y016230D02*
X028327Y016230D01*
X028327Y016131D02*
X027280Y016131D01*
X027280Y016033D02*
X028327Y016033D01*
X028327Y015934D02*
X027280Y015934D01*
X027280Y015836D02*
X028327Y015836D01*
X028327Y015737D02*
X027280Y015737D01*
X027280Y015639D02*
X028327Y015639D01*
X028327Y015540D02*
X027280Y015540D01*
X027280Y015442D02*
X028327Y015442D01*
X028327Y015343D02*
X027280Y015343D01*
X027280Y015245D02*
X028327Y015245D01*
X028327Y015146D02*
X027280Y015146D01*
X027280Y015048D02*
X028327Y015048D01*
X028327Y014949D02*
X027280Y014949D01*
X027280Y014851D02*
X028327Y014851D01*
X028327Y014752D02*
X027275Y014752D01*
X026436Y014654D02*
X028327Y014654D01*
X028327Y014555D02*
X026354Y014555D01*
X026354Y014457D02*
X028327Y014457D01*
X028327Y014358D02*
X026354Y014358D01*
X026354Y014260D02*
X028327Y014260D01*
X028327Y014161D02*
X026354Y014161D01*
X026354Y014063D02*
X028327Y014063D01*
X028327Y013964D02*
X026354Y013964D01*
X026432Y013866D02*
X028327Y013866D01*
X028327Y013767D02*
X026530Y013767D01*
X026568Y013669D02*
X028327Y013669D01*
X028327Y013570D02*
X026549Y013570D01*
X026451Y013472D02*
X028327Y013472D01*
X028327Y013373D02*
X026352Y013373D01*
X026254Y013275D02*
X028327Y013275D01*
X028327Y013176D02*
X026155Y013176D01*
X025991Y013078D02*
X028327Y013078D01*
X028327Y012979D02*
X025893Y012979D01*
X025794Y012881D02*
X028327Y012881D01*
X028327Y012782D02*
X025696Y012782D01*
X025696Y012783D02*
X025696Y012783D01*
X025597Y012684D02*
X028327Y012684D01*
X028327Y012585D02*
X025343Y012585D01*
X025244Y012487D02*
X028327Y012487D01*
X028327Y012388D02*
X025146Y012388D01*
X025047Y012290D02*
X028327Y012290D01*
X028327Y012191D02*
X024949Y012191D01*
X024850Y012093D02*
X028327Y012093D01*
X028327Y011994D02*
X024752Y011994D01*
X024653Y011896D02*
X028327Y011896D01*
X028327Y011797D02*
X024555Y011797D01*
X024456Y011699D02*
X028327Y011699D01*
X028327Y011600D02*
X024358Y011600D01*
X024259Y011502D02*
X028327Y011502D01*
X028327Y011403D02*
X024161Y011403D01*
X024062Y011305D02*
X028327Y011305D01*
X028327Y011206D02*
X023964Y011206D01*
X023865Y011108D02*
X028327Y011108D01*
X028327Y011009D02*
X023767Y011009D01*
X023668Y010911D02*
X028327Y010911D01*
X028327Y010812D02*
X021930Y010812D01*
X021930Y010810D02*
X021930Y010955D01*
X021655Y011230D01*
X021510Y011230D01*
X021510Y010810D01*
X021930Y010810D01*
X021930Y010710D02*
X021510Y010710D01*
X021510Y010290D01*
X021655Y010290D01*
X021930Y010565D01*
X021930Y010710D01*
X021930Y010615D02*
X028327Y010615D01*
X028327Y010517D02*
X021881Y010517D01*
X021783Y010418D02*
X028327Y010418D01*
X028327Y010320D02*
X021684Y010320D01*
X021510Y010320D02*
X021410Y010320D01*
X021410Y010290D02*
X021410Y010710D01*
X021510Y010710D01*
X021510Y010810D01*
X021410Y010810D01*
X021410Y010710D01*
X020990Y010710D01*
X020990Y010565D01*
X021265Y010290D01*
X021410Y010290D01*
X021410Y010418D02*
X021510Y010418D01*
X021510Y010517D02*
X021410Y010517D01*
X021410Y010615D02*
X021510Y010615D01*
X021510Y010714D02*
X028327Y010714D01*
X025437Y013570D02*
X024727Y013570D01*
X024840Y013472D02*
X025339Y013472D01*
X025240Y013373D02*
X024939Y013373D01*
X025042Y014457D02*
X025614Y014457D01*
X025614Y014555D02*
X025140Y014555D01*
X025239Y014654D02*
X025614Y014654D01*
X026028Y016271D02*
X025735Y016563D01*
X024972Y016563D01*
X024948Y016588D01*
X025163Y016919D02*
X025227Y016919D01*
X025281Y017018D02*
X025064Y017018D01*
X024942Y017116D02*
X026586Y017116D01*
X023284Y014654D02*
X022032Y014654D01*
X022137Y014555D02*
X023185Y014555D01*
X023087Y014457D02*
X022242Y014457D01*
X022347Y014358D02*
X022988Y014358D01*
X022890Y014260D02*
X022452Y014260D01*
X022558Y014161D02*
X022791Y014161D01*
X022693Y014063D02*
X022663Y014063D01*
X020436Y013669D02*
X019791Y013669D01*
X019889Y013767D02*
X020278Y013767D01*
X020324Y014358D02*
X019407Y014358D01*
X019407Y014260D02*
X019731Y014260D01*
X019632Y014161D02*
X019407Y014161D01*
X019407Y014063D02*
X019534Y014063D01*
X019567Y012684D02*
X019407Y012684D01*
X019499Y012585D02*
X019666Y012585D01*
X019598Y012487D02*
X019764Y012487D01*
X019690Y012388D02*
X019863Y012388D01*
X019961Y012290D02*
X019690Y012290D01*
X019690Y012191D02*
X020060Y012191D01*
X020158Y012093D02*
X019690Y012093D01*
X019690Y011994D02*
X020230Y011994D01*
X020230Y011896D02*
X019690Y011896D01*
X019690Y011797D02*
X020230Y011797D01*
X020230Y011699D02*
X019690Y011699D01*
X019690Y011600D02*
X020230Y011600D01*
X020230Y011502D02*
X019690Y011502D01*
X019690Y011403D02*
X020230Y011403D01*
X020230Y011305D02*
X019690Y011305D01*
X019707Y011206D02*
X020213Y011206D01*
X020115Y011108D02*
X019805Y011108D01*
X019904Y011009D02*
X020016Y011009D01*
X019970Y010911D02*
X019950Y010911D01*
X019950Y010812D02*
X019970Y010812D01*
X019970Y010714D02*
X019950Y010714D01*
X019950Y010615D02*
X019970Y010615D01*
X020010Y010517D02*
X019910Y010517D01*
X019811Y010418D02*
X020109Y010418D01*
X020207Y010320D02*
X019713Y010320D01*
X019207Y010320D02*
X018713Y010320D01*
X018811Y010418D02*
X019109Y010418D01*
X019010Y010517D02*
X018910Y010517D01*
X018950Y010615D02*
X018970Y010615D01*
X018970Y010714D02*
X018950Y010714D01*
X018950Y010812D02*
X018970Y010812D01*
X018970Y010911D02*
X018950Y010911D01*
X018904Y011009D02*
X019016Y011009D01*
X019115Y011108D02*
X018805Y011108D01*
X018707Y011206D02*
X019213Y011206D01*
X019230Y011305D02*
X018690Y011305D01*
X018690Y011403D02*
X019230Y011403D01*
X019230Y011502D02*
X018690Y011502D01*
X018690Y011600D02*
X019230Y011600D01*
X019230Y011699D02*
X018690Y011699D01*
X018690Y011797D02*
X019230Y011797D01*
X019230Y011896D02*
X018690Y011896D01*
X018690Y011994D02*
X019230Y011994D01*
X019230Y012093D02*
X018690Y012093D01*
X018690Y012191D02*
X019230Y012191D01*
X019144Y012290D02*
X018736Y012290D01*
X018835Y012388D02*
X019046Y012388D01*
X018947Y012487D02*
X018933Y012487D01*
X018480Y012684D02*
X018471Y012684D01*
X018381Y012585D02*
X018372Y012585D01*
X018283Y012487D02*
X018274Y012487D01*
X018230Y012388D02*
X018175Y012388D01*
X018230Y012290D02*
X018077Y012290D01*
X017978Y012191D02*
X018230Y012191D01*
X018230Y012093D02*
X017880Y012093D01*
X017781Y011994D02*
X018230Y011994D01*
X018230Y011896D02*
X017690Y011896D01*
X017690Y011797D02*
X018230Y011797D01*
X018230Y011699D02*
X017690Y011699D01*
X017690Y011600D02*
X018230Y011600D01*
X018230Y011502D02*
X017690Y011502D01*
X017690Y011403D02*
X018230Y011403D01*
X018230Y011305D02*
X017690Y011305D01*
X017707Y011206D02*
X018213Y011206D01*
X018115Y011108D02*
X017805Y011108D01*
X017904Y011009D02*
X018016Y011009D01*
X017970Y010911D02*
X017950Y010911D01*
X017950Y010812D02*
X017970Y010812D01*
X017970Y010714D02*
X017950Y010714D01*
X017950Y010615D02*
X017970Y010615D01*
X018010Y010517D02*
X017910Y010517D01*
X017811Y010418D02*
X018109Y010418D01*
X018207Y010320D02*
X017713Y010320D01*
X017207Y010320D02*
X016713Y010320D01*
X016811Y010418D02*
X017109Y010418D01*
X017010Y010517D02*
X016910Y010517D01*
X016950Y010615D02*
X016970Y010615D01*
X016970Y010714D02*
X016950Y010714D01*
X016950Y010812D02*
X016970Y010812D01*
X016970Y010911D02*
X016950Y010911D01*
X016904Y011009D02*
X017016Y011009D01*
X017115Y011108D02*
X016805Y011108D01*
X016707Y011206D02*
X017213Y011206D01*
X017230Y011305D02*
X016276Y011305D01*
X016580Y011403D02*
X017230Y011403D01*
X017230Y011502D02*
X016679Y011502D01*
X016777Y011600D02*
X017230Y011600D01*
X017230Y011699D02*
X016876Y011699D01*
X016974Y011797D02*
X017230Y011797D01*
X017230Y011896D02*
X017073Y011896D01*
X017171Y011994D02*
X017230Y011994D01*
X016192Y012317D02*
X016192Y012985D01*
X016181Y013472D02*
X016196Y013472D01*
X016160Y013570D02*
X016294Y013570D01*
X016284Y013669D02*
X016393Y013669D01*
X016378Y013767D02*
X016491Y013767D01*
X016419Y013866D02*
X016590Y013866D01*
X016688Y013964D02*
X016435Y013964D01*
X016433Y014063D02*
X016787Y014063D01*
X016838Y014161D02*
X016392Y014161D01*
X016316Y014260D02*
X016838Y014260D01*
X016838Y014358D02*
X016149Y014358D01*
X015945Y014358D02*
X014353Y014358D01*
X014375Y014457D02*
X016838Y014457D01*
X016838Y014555D02*
X014363Y014555D01*
X014312Y014654D02*
X016838Y014654D01*
X016838Y014752D02*
X014213Y014752D01*
X014115Y014851D02*
X016838Y014851D01*
X016838Y014949D02*
X014016Y014949D01*
X013918Y015048D02*
X016838Y015048D01*
X016838Y015146D02*
X013819Y015146D01*
X013727Y015245D02*
X016838Y015245D01*
X016838Y015343D02*
X013827Y015343D01*
X013927Y015442D02*
X016838Y015442D01*
X016838Y015540D02*
X014028Y015540D01*
X014128Y015639D02*
X016838Y015639D01*
X016838Y015737D02*
X016414Y015737D01*
X016541Y015836D02*
X016838Y015836D01*
X016838Y015934D02*
X016600Y015934D01*
X016632Y016033D02*
X016838Y016033D01*
X016838Y016131D02*
X016632Y016131D01*
X016604Y016230D02*
X016838Y016230D01*
X016838Y016328D02*
X016551Y016328D01*
X016456Y016427D02*
X016838Y016427D01*
X016838Y016525D02*
X016456Y016525D01*
X016456Y016624D02*
X016838Y016624D01*
X016838Y016722D02*
X016456Y016722D01*
X016456Y016821D02*
X016838Y016821D01*
X016838Y016919D02*
X016456Y016919D01*
X016456Y017018D02*
X016838Y017018D01*
X016838Y017116D02*
X016456Y017116D01*
X016456Y017215D02*
X016838Y017215D01*
X016838Y017313D02*
X016456Y017313D01*
X016456Y017412D02*
X016838Y017412D01*
X016838Y017510D02*
X016456Y017510D01*
X016456Y017609D02*
X016838Y017609D01*
X016838Y017707D02*
X016456Y017707D01*
X016456Y017806D02*
X016867Y017806D01*
X016928Y017904D02*
X016456Y017904D01*
X016456Y018003D02*
X017026Y018003D01*
X017125Y018101D02*
X016456Y018101D01*
X016456Y018200D02*
X017223Y018200D01*
X017255Y018298D02*
X016456Y018298D01*
X016518Y018397D02*
X017255Y018397D01*
X015716Y017510D02*
X015408Y017510D01*
X015497Y017412D02*
X015716Y017412D01*
X015716Y017313D02*
X015538Y017313D01*
X015549Y017215D02*
X015716Y017215D01*
X015716Y017116D02*
X015543Y017116D01*
X015502Y017018D02*
X015716Y017018D01*
X015716Y016919D02*
X015420Y016919D01*
X015299Y016821D02*
X015716Y016821D01*
X015716Y016722D02*
X015202Y016722D01*
X015106Y016624D02*
X015716Y016624D01*
X015716Y016525D02*
X015009Y016525D01*
X014913Y016427D02*
X015716Y016427D01*
X015716Y016328D02*
X014816Y016328D01*
X014720Y016230D02*
X015716Y016230D01*
X015732Y016131D02*
X014623Y016131D01*
X014527Y016033D02*
X015774Y016033D01*
X015873Y015934D02*
X014430Y015934D01*
X014328Y015836D02*
X015946Y015836D01*
X016073Y015737D02*
X014228Y015737D01*
X013673Y016230D02*
X012736Y016230D01*
X012834Y016131D02*
X013573Y016131D01*
X013473Y016033D02*
X012933Y016033D01*
X013031Y015934D02*
X013373Y015934D01*
X013273Y015836D02*
X013130Y015836D01*
X012637Y016328D02*
X013774Y016328D01*
X012214Y014851D02*
X011888Y014851D01*
X011986Y014752D02*
X012313Y014752D01*
X012411Y014654D02*
X012085Y014654D01*
X012183Y014555D02*
X012510Y014555D01*
X012608Y014457D02*
X012282Y014457D01*
X012380Y014358D02*
X012707Y014358D01*
X012805Y014260D02*
X012479Y014260D01*
X012577Y014161D02*
X012904Y014161D01*
X013002Y014063D02*
X012676Y014063D01*
X012774Y013964D02*
X013101Y013964D01*
X013199Y013866D02*
X012873Y013866D01*
X012971Y013767D02*
X013298Y013767D01*
X013420Y013669D02*
X013070Y013669D01*
X013168Y013570D02*
X013956Y013570D01*
X013887Y013472D02*
X013237Y013472D01*
X013261Y013373D02*
X013887Y013373D01*
X013972Y013275D02*
X013252Y013275D01*
X013205Y013176D02*
X014070Y013176D01*
X014169Y013078D02*
X013106Y013078D01*
X013008Y012979D02*
X014267Y012979D01*
X014195Y012881D02*
X013089Y012881D01*
X013187Y012782D02*
X014144Y012782D01*
X014144Y012684D02*
X013357Y012684D01*
X013455Y012585D02*
X014144Y012585D01*
X013961Y011797D02*
X013483Y011797D01*
X013384Y011699D02*
X014060Y011699D01*
X014963Y013472D02*
X014975Y013472D01*
X015074Y013570D02*
X014864Y013570D01*
X014766Y013669D02*
X015172Y013669D01*
X015171Y013668D02*
X015171Y013668D01*
X015271Y013767D02*
X014667Y013767D01*
X014569Y013866D02*
X015409Y013866D01*
X015507Y013964D02*
X013993Y013964D01*
X013894Y013866D02*
X014252Y013866D01*
X014153Y013767D02*
X013796Y013767D01*
X013674Y013669D02*
X014055Y013669D01*
X014091Y014063D02*
X015606Y014063D01*
X015701Y014161D02*
X014190Y014161D01*
X014288Y014260D02*
X015777Y014260D01*
X016192Y012317D02*
X015833Y011958D01*
X012116Y014949D02*
X011789Y014949D01*
X011691Y015048D02*
X012017Y015048D01*
X011919Y015146D02*
X011592Y015146D01*
X013213Y018889D02*
X009475Y018889D01*
X009475Y018988D02*
X013089Y018988D01*
X013031Y019086D02*
X009475Y019086D01*
X009475Y019185D02*
X013001Y019185D01*
X013001Y019283D02*
X009475Y019283D01*
X009475Y019382D02*
X013029Y019382D01*
X013084Y019480D02*
X009475Y019480D01*
X009475Y019579D02*
X013056Y019579D01*
X012958Y019677D02*
X009475Y019677D01*
X009475Y019776D02*
X012859Y019776D01*
X012761Y019874D02*
X009475Y019874D01*
X009475Y019973D02*
X012662Y019973D01*
X012564Y020071D02*
X009475Y020071D01*
X009475Y020170D02*
X012465Y020170D01*
X012367Y020268D02*
X009475Y020268D01*
X009475Y020367D02*
X012268Y020367D01*
X012170Y020465D02*
X009475Y020465D01*
X009475Y020564D02*
X012071Y020564D01*
X011973Y020662D02*
X009475Y020662D01*
X009475Y020761D02*
X011874Y020761D01*
X011776Y020859D02*
X009475Y020859D01*
X009475Y020958D02*
X011677Y020958D01*
X011579Y021056D02*
X009475Y021056D01*
X009475Y021155D02*
X011480Y021155D01*
X011382Y021253D02*
X009475Y021253D01*
X009475Y021352D02*
X011283Y021352D01*
X011714Y021836D02*
X012007Y021543D01*
X012770Y021543D01*
X012794Y021519D01*
X012513Y021253D02*
X012032Y021253D01*
X012131Y021155D02*
X012612Y021155D01*
X012426Y020859D02*
X012936Y020859D01*
X013034Y020761D02*
X012525Y020761D01*
X012623Y020662D02*
X013133Y020662D01*
X013231Y020564D02*
X012722Y020564D01*
X012820Y020465D02*
X013330Y020465D01*
X013428Y020367D02*
X012919Y020367D01*
X013017Y020268D02*
X013527Y020268D01*
X013625Y020170D02*
X013116Y020170D01*
X013214Y020071D02*
X013724Y020071D01*
X013822Y019973D02*
X013313Y019973D01*
X013411Y019874D02*
X013921Y019874D01*
X014019Y019776D02*
X013510Y019776D01*
X013484Y019801D02*
X013484Y019801D01*
X013608Y019677D02*
X014118Y019677D01*
X013560Y021352D02*
X013490Y021352D01*
X013468Y021450D02*
X013391Y021450D01*
X013388Y021549D02*
X013343Y021549D01*
X013331Y023519D02*
X013727Y023519D01*
X013628Y023617D02*
X013233Y023617D01*
X013134Y023716D02*
X013530Y023716D01*
X013431Y023814D02*
X013036Y023814D01*
X012865Y023814D02*
X012128Y023814D01*
X012128Y023716D02*
X012766Y023716D01*
X012668Y023617D02*
X012128Y023617D01*
X012128Y023913D02*
X013333Y023913D01*
X013234Y024011D02*
X012128Y024011D01*
X012128Y024110D02*
X013154Y024110D01*
X013121Y024208D02*
X012128Y024208D01*
X012151Y024307D02*
X013122Y024307D01*
X013163Y024405D02*
X012249Y024405D01*
X012277Y024504D02*
X013256Y024504D01*
X013355Y024602D02*
X013028Y024602D01*
X013127Y024701D02*
X013453Y024701D01*
X013552Y024799D02*
X013225Y024799D01*
X013324Y024898D02*
X013650Y024898D01*
X013749Y024996D02*
X013422Y024996D01*
X013521Y025095D02*
X013847Y025095D01*
X013946Y025193D02*
X013619Y025193D01*
X013718Y025292D02*
X014044Y025292D01*
X014143Y025390D02*
X013816Y025390D01*
X013915Y025489D02*
X014241Y025489D01*
X014340Y025587D02*
X014013Y025587D01*
X014112Y025686D02*
X014438Y025686D01*
X014537Y025784D02*
X014210Y025784D01*
X014309Y025883D02*
X014635Y025883D01*
X014734Y025981D02*
X014407Y025981D01*
X014506Y026080D02*
X014832Y026080D01*
X014961Y026178D02*
X014604Y026178D01*
X014703Y026277D02*
X019199Y026277D01*
X019297Y026375D02*
X014769Y026375D01*
X014791Y026474D02*
X019396Y026474D01*
X019494Y026572D02*
X014780Y026572D01*
X014730Y026671D02*
X019593Y026671D01*
X019691Y026769D02*
X014632Y026769D01*
X014533Y026868D02*
X019790Y026868D01*
X019888Y026966D02*
X014435Y026966D01*
X014336Y027065D02*
X019987Y027065D01*
X020085Y027163D02*
X014238Y027163D01*
X014139Y027262D02*
X020184Y027262D01*
X020282Y027360D02*
X009475Y027360D01*
X009475Y027262D02*
X013787Y027262D01*
X013689Y027163D02*
X009475Y027163D01*
X009475Y027065D02*
X013590Y027065D01*
X013492Y026966D02*
X009475Y026966D01*
X009475Y026868D02*
X013393Y026868D01*
X013295Y026769D02*
X009475Y026769D01*
X009475Y026671D02*
X013196Y026671D01*
X013098Y026572D02*
X009475Y026572D01*
X009475Y026474D02*
X012999Y026474D01*
X012901Y026375D02*
X009475Y026375D01*
X009475Y026277D02*
X012802Y026277D01*
X012704Y026178D02*
X009475Y026178D01*
X009475Y026080D02*
X012605Y026080D01*
X012507Y025981D02*
X009475Y025981D01*
X009475Y025883D02*
X012408Y025883D01*
X012310Y025784D02*
X009475Y025784D01*
X009475Y025686D02*
X012211Y025686D01*
X012113Y025587D02*
X009475Y025587D01*
X009475Y025489D02*
X012037Y025489D01*
X012008Y025390D02*
X009475Y025390D01*
X009475Y025292D02*
X012012Y025292D01*
X011915Y025193D02*
X009475Y025193D01*
X009475Y025095D02*
X011817Y025095D01*
X011652Y024996D02*
X009475Y024996D01*
X009475Y024898D02*
X011554Y024898D01*
X011455Y024799D02*
X009475Y024799D01*
X009475Y024701D02*
X011357Y024701D01*
X011258Y024602D02*
X009475Y024602D01*
X009475Y024504D02*
X011174Y024504D01*
X011174Y024405D02*
X009475Y024405D01*
X009475Y024307D02*
X011244Y024307D01*
X011342Y024208D02*
X009475Y024208D01*
X009475Y024110D02*
X011388Y024110D01*
X011388Y024011D02*
X009475Y024011D01*
X009475Y023913D02*
X011388Y023913D01*
X011388Y023814D02*
X009475Y023814D01*
X009475Y023716D02*
X011388Y023716D01*
X011388Y023617D02*
X009475Y023617D01*
X009475Y023519D02*
X010286Y023519D01*
X010266Y023420D02*
X009475Y023420D01*
X009475Y023322D02*
X010266Y023322D01*
X010266Y023223D02*
X009475Y023223D01*
X009475Y023125D02*
X010266Y023125D01*
X010266Y023026D02*
X009475Y023026D01*
X009475Y022928D02*
X010266Y022928D01*
X010266Y022829D02*
X009475Y022829D01*
X009475Y022731D02*
X010266Y022731D01*
X010266Y022632D02*
X009475Y022632D01*
X009475Y022534D02*
X010266Y022534D01*
X010266Y022435D02*
X009475Y022435D01*
X009475Y022337D02*
X010266Y022337D01*
X010266Y022238D02*
X009475Y022238D01*
X009475Y022140D02*
X010266Y022140D01*
X010266Y022041D02*
X009475Y022041D01*
X009475Y021943D02*
X010266Y021943D01*
X010266Y021844D02*
X009475Y021844D01*
X009475Y021746D02*
X010266Y021746D01*
X010266Y021647D02*
X009475Y021647D01*
X009475Y021549D02*
X010266Y021549D01*
X010325Y021450D02*
X009475Y021450D01*
X010990Y022560D02*
X010990Y022560D01*
X012371Y024602D02*
X012643Y024602D01*
X012545Y024701D02*
X012469Y024701D01*
X015192Y026178D02*
X019100Y026178D01*
X019002Y026080D02*
X015321Y026080D01*
X015420Y025981D02*
X018903Y025981D01*
X018805Y025883D02*
X015518Y025883D01*
X015617Y025784D02*
X018706Y025784D01*
X018608Y025686D02*
X015715Y025686D01*
X015814Y025587D02*
X018509Y025587D01*
X018411Y025489D02*
X015881Y025489D01*
X015905Y025390D02*
X018312Y025390D01*
X018214Y025292D02*
X015895Y025292D01*
X015847Y025193D02*
X018159Y025193D01*
X018159Y025095D02*
X015748Y025095D01*
X015650Y024996D02*
X018159Y024996D01*
X018159Y024898D02*
X015551Y024898D01*
X015453Y024799D02*
X018159Y024799D01*
X018159Y024701D02*
X015354Y024701D01*
X018385Y020958D02*
X018776Y020958D01*
X018647Y020859D02*
X018385Y020859D01*
X018385Y020761D02*
X018549Y020761D01*
X019184Y020958D02*
X021044Y020958D01*
X020946Y020859D02*
X019312Y020859D01*
X019382Y020761D02*
X020847Y020761D01*
X020749Y020662D02*
X020294Y020662D01*
X020351Y020564D02*
X020650Y020564D01*
X020552Y020465D02*
X020351Y020465D01*
X020351Y020367D02*
X020453Y020367D01*
X020355Y020268D02*
X020351Y020268D01*
X019996Y024110D02*
X020726Y024110D01*
X020565Y024208D02*
X020095Y024208D01*
X020193Y024307D02*
X020493Y024307D01*
X020452Y024405D02*
X020292Y024405D01*
X020390Y024504D02*
X020452Y024504D01*
X020835Y025471D02*
X020859Y025496D01*
X020859Y026259D01*
X021152Y026552D01*
X020381Y027459D02*
X009475Y027459D01*
X009475Y027557D02*
X020463Y027557D01*
X020463Y027656D02*
X009475Y027656D01*
X009475Y027754D02*
X020463Y027754D01*
X020545Y027853D02*
X009475Y027853D01*
X009475Y027951D02*
X028327Y027951D01*
X028327Y027853D02*
X022927Y027853D01*
X023008Y027754D02*
X028327Y027754D01*
X028327Y027656D02*
X023008Y027656D01*
X023008Y027557D02*
X028327Y027557D01*
X028327Y027459D02*
X023008Y027459D01*
X023008Y027360D02*
X028327Y027360D01*
X028327Y027262D02*
X023008Y027262D01*
X023008Y027163D02*
X028327Y027163D01*
X028327Y027065D02*
X023861Y027065D01*
X023959Y026966D02*
X028327Y026966D01*
X028327Y026868D02*
X024058Y026868D01*
X024156Y026769D02*
X028327Y026769D01*
X028327Y026671D02*
X024255Y026671D01*
X024343Y026572D02*
X028327Y026572D01*
X028327Y026474D02*
X024386Y026474D01*
X024484Y026375D02*
X028327Y026375D01*
X028327Y026277D02*
X024757Y026277D01*
X024897Y026178D02*
X028327Y026178D01*
X028327Y026080D02*
X024995Y026080D01*
X025094Y025981D02*
X028327Y025981D01*
X028327Y025883D02*
X025192Y025883D01*
X025291Y025784D02*
X028327Y025784D01*
X028327Y025686D02*
X025389Y025686D01*
X025488Y025587D02*
X028327Y025587D01*
X028327Y025489D02*
X025586Y025489D01*
X025685Y025390D02*
X028327Y025390D01*
X028327Y025292D02*
X025783Y025292D01*
X025882Y025193D02*
X028327Y025193D01*
X028327Y025095D02*
X025980Y025095D01*
X026079Y024996D02*
X028327Y024996D01*
X028327Y024898D02*
X026177Y024898D01*
X026276Y024799D02*
X028327Y024799D01*
X028327Y024701D02*
X026374Y024701D01*
X026473Y024602D02*
X028327Y024602D01*
X028327Y024504D02*
X026571Y024504D01*
X026612Y024405D02*
X028327Y024405D01*
X028327Y024307D02*
X026615Y024307D01*
X026586Y024208D02*
X028327Y024208D01*
X028327Y024110D02*
X026510Y024110D01*
X026412Y024011D02*
X028327Y024011D01*
X028327Y023913D02*
X026313Y023913D01*
X026215Y023814D02*
X028327Y023814D01*
X028327Y023716D02*
X026116Y023716D01*
X026018Y023617D02*
X028327Y023617D01*
X028327Y023519D02*
X025869Y023519D01*
X023883Y025292D02*
X023145Y025292D01*
X023141Y025390D02*
X023839Y025390D01*
X023832Y025489D02*
X023043Y025489D01*
X022944Y025587D02*
X023859Y025587D01*
X023931Y025686D02*
X023008Y025686D01*
X023008Y025784D02*
X024029Y025784D01*
X023930Y025883D02*
X023008Y025883D01*
X023008Y025981D02*
X023832Y025981D01*
X023658Y026080D02*
X023008Y026080D01*
X023008Y026966D02*
X023567Y026966D01*
X023666Y027065D02*
X023008Y027065D01*
X028327Y028050D02*
X009475Y028050D01*
X009475Y028148D02*
X028327Y028148D01*
X028327Y028247D02*
X009475Y028247D01*
X009475Y028345D02*
X028327Y028345D01*
X028327Y028444D02*
X009475Y028444D01*
X020690Y011797D02*
X022666Y011797D01*
X022629Y011699D02*
X020690Y011699D01*
X020690Y011600D02*
X022629Y011600D01*
X022666Y011502D02*
X020690Y011502D01*
X020690Y011403D02*
X022753Y011403D01*
X022852Y011305D02*
X020690Y011305D01*
X020707Y011206D02*
X021242Y011206D01*
X021265Y011230D02*
X020990Y010955D01*
X020990Y010810D01*
X021410Y010810D01*
X021410Y011230D01*
X021265Y011230D01*
X021410Y011206D02*
X021510Y011206D01*
X021510Y011108D02*
X021410Y011108D01*
X021410Y011009D02*
X021510Y011009D01*
X021510Y010911D02*
X021410Y010911D01*
X021410Y010812D02*
X021510Y010812D01*
X021410Y010714D02*
X020950Y010714D01*
X020950Y010812D02*
X020990Y010812D01*
X020990Y010911D02*
X020950Y010911D01*
X020904Y011009D02*
X021045Y011009D01*
X021143Y011108D02*
X020805Y011108D01*
X020950Y010615D02*
X020990Y010615D01*
X021039Y010517D02*
X020910Y010517D01*
X020811Y010418D02*
X021137Y010418D01*
X021236Y010320D02*
X020713Y010320D01*
X021679Y011206D02*
X022950Y011206D01*
X023049Y011108D02*
X021777Y011108D01*
X021876Y011009D02*
X023147Y011009D01*
X023246Y010911D02*
X021930Y010911D01*
D11*
G36*
X024766Y016128D02*
X024461Y015823D01*
X024182Y016102D01*
X024487Y016407D01*
X024766Y016128D01*
G37*
G36*
X025240Y016601D02*
X024935Y016296D01*
X024656Y016575D01*
X024961Y016880D01*
X025240Y016601D01*
G37*
G36*
X021295Y025290D02*
X021600Y024985D01*
X021321Y024706D01*
X021016Y025011D01*
X021295Y025290D01*
G37*
G36*
X020822Y025763D02*
X021127Y025458D01*
X020848Y025179D01*
X020543Y025484D01*
X020822Y025763D01*
G37*
G36*
X012976Y021979D02*
X013281Y022284D01*
X013560Y022005D01*
X013255Y021700D01*
X012976Y021979D01*
G37*
G36*
X012502Y021506D02*
X012807Y021811D01*
X013086Y021532D01*
X012781Y021227D01*
X012502Y021506D01*
G37*
G36*
X015732Y013166D02*
X015427Y013471D01*
X015706Y013750D01*
X016011Y013445D01*
X015732Y013166D01*
G37*
G36*
X016205Y012693D02*
X015900Y012998D01*
X016179Y013277D01*
X016484Y012972D01*
X016205Y012693D01*
G37*
D12*
G36*
X014819Y013376D02*
X014465Y013022D01*
X014057Y013430D01*
X014411Y013784D01*
X014819Y013376D01*
G37*
G36*
X012860Y012232D02*
X013214Y012586D01*
X013622Y012178D01*
X013268Y011824D01*
X012860Y012232D01*
G37*
G36*
X012895Y022897D02*
X012541Y023251D01*
X012949Y023659D01*
X013303Y023305D01*
X012895Y022897D01*
G37*
G36*
X011752Y024856D02*
X012106Y024502D01*
X011698Y024094D01*
X011344Y024448D01*
X011752Y024856D01*
G37*
G36*
X022213Y025370D02*
X022567Y025724D01*
X022975Y025316D01*
X022621Y024962D01*
X022213Y025370D01*
G37*
G36*
X024172Y026513D02*
X023818Y026159D01*
X023410Y026567D01*
X023764Y026921D01*
X024172Y026513D01*
G37*
G36*
X024846Y015210D02*
X025200Y014856D01*
X024792Y014448D01*
X024438Y014802D01*
X024846Y015210D01*
G37*
G36*
X025990Y013251D02*
X025636Y013605D01*
X026044Y014013D01*
X026398Y013659D01*
X025990Y013251D01*
G37*
D13*
X024584Y013309D02*
X022925Y011650D01*
X024584Y013309D02*
X025117Y012776D01*
X023458Y011117D01*
X022925Y011650D01*
X023208Y011367D02*
X023708Y011367D01*
X023958Y011617D02*
X022958Y011617D01*
X023142Y011867D02*
X024208Y011867D01*
X024458Y012117D02*
X023392Y012117D01*
X023642Y012367D02*
X024708Y012367D01*
X024958Y012617D02*
X023892Y012617D01*
X024142Y012867D02*
X025026Y012867D01*
X024776Y013117D02*
X024392Y013117D01*
X024003Y013890D02*
X022344Y012231D01*
X021811Y012764D01*
X023470Y014423D01*
X024003Y013890D01*
X022594Y012481D02*
X022094Y012481D01*
X021844Y012731D02*
X022844Y012731D01*
X023094Y012981D02*
X022028Y012981D01*
X022278Y013231D02*
X023344Y013231D01*
X023594Y013481D02*
X022528Y013481D01*
X022778Y013731D02*
X023844Y013731D01*
X023912Y013981D02*
X023028Y013981D01*
X023278Y014231D02*
X023662Y014231D01*
X025206Y023225D02*
X023547Y024884D01*
X025206Y023225D02*
X024673Y022692D01*
X023014Y024351D01*
X023547Y024884D01*
X024423Y022942D02*
X024923Y022942D01*
X025173Y023192D02*
X024173Y023192D01*
X023923Y023442D02*
X024989Y023442D01*
X024739Y023692D02*
X023673Y023692D01*
X023423Y023942D02*
X024489Y023942D01*
X024239Y024192D02*
X023173Y024192D01*
X023105Y024442D02*
X023989Y024442D01*
X023739Y024692D02*
X023355Y024692D01*
X024128Y025464D02*
X025787Y023805D01*
X024128Y025464D02*
X024661Y025997D01*
X026320Y024338D01*
X025787Y023805D01*
X026037Y024055D02*
X025537Y024055D01*
X025287Y024305D02*
X026287Y024305D01*
X026103Y024555D02*
X025037Y024555D01*
X024787Y024805D02*
X025853Y024805D01*
X025603Y025055D02*
X024537Y025055D01*
X024287Y025305D02*
X025353Y025305D01*
X025103Y025555D02*
X024219Y025555D01*
X024469Y025805D02*
X024853Y025805D01*
X015076Y025906D02*
X013417Y024247D01*
X015076Y025906D02*
X015609Y025373D01*
X013950Y023714D01*
X013417Y024247D01*
X013700Y023964D02*
X014200Y023964D01*
X014450Y024214D02*
X013450Y024214D01*
X013634Y024464D02*
X014700Y024464D01*
X014950Y024714D02*
X013884Y024714D01*
X014134Y024964D02*
X015200Y024964D01*
X015450Y025214D02*
X014384Y025214D01*
X014634Y025464D02*
X015518Y025464D01*
X015268Y025714D02*
X014884Y025714D01*
X014495Y026487D02*
X012836Y024828D01*
X012303Y025361D01*
X013962Y027020D01*
X014495Y026487D01*
X013086Y025078D02*
X012586Y025078D01*
X012336Y025328D02*
X013336Y025328D01*
X013586Y025578D02*
X012520Y025578D01*
X012770Y025828D02*
X013836Y025828D01*
X014086Y026078D02*
X013020Y026078D01*
X013270Y026328D02*
X014336Y026328D01*
X014404Y026578D02*
X013520Y026578D01*
X013770Y026828D02*
X014154Y026828D01*
X011887Y015595D02*
X013546Y013936D01*
X011887Y015595D02*
X012420Y016128D01*
X014079Y014469D01*
X013546Y013936D01*
X013796Y014186D02*
X013296Y014186D01*
X013046Y014436D02*
X014046Y014436D01*
X013862Y014686D02*
X012796Y014686D01*
X012546Y014936D02*
X013612Y014936D01*
X013362Y015186D02*
X012296Y015186D01*
X012046Y015436D02*
X013112Y015436D01*
X012862Y015686D02*
X011978Y015686D01*
X012228Y015936D02*
X012612Y015936D01*
X011306Y015015D02*
X012965Y013356D01*
X012432Y012823D01*
X010773Y014482D01*
X011306Y015015D01*
X012182Y013073D02*
X012682Y013073D01*
X012932Y013323D02*
X011932Y013323D01*
X011682Y013573D02*
X012748Y013573D01*
X012498Y013823D02*
X011432Y013823D01*
X011182Y014073D02*
X012248Y014073D01*
X011998Y014323D02*
X010932Y014323D01*
X010864Y014573D02*
X011748Y014573D01*
X011498Y014823D02*
X011114Y014823D01*
D14*
X025125Y019028D03*
X027015Y019028D03*
D15*
G36*
X026271Y016181D02*
X026118Y016028D01*
X025785Y016361D01*
X025938Y016514D01*
X026271Y016181D01*
G37*
G36*
X026995Y015457D02*
X026842Y015304D01*
X026509Y015637D01*
X026662Y015790D01*
X026995Y015457D01*
G37*
G36*
X026730Y015192D02*
X026577Y015039D01*
X026244Y015372D01*
X026397Y015525D01*
X026730Y015192D01*
G37*
G36*
X026466Y014928D02*
X026313Y014775D01*
X025980Y015108D01*
X026133Y015261D01*
X026466Y014928D01*
G37*
G36*
X025742Y015652D02*
X025589Y015499D01*
X025256Y015832D01*
X025409Y015985D01*
X025742Y015652D01*
G37*
G36*
X015743Y011715D02*
X015590Y011868D01*
X015923Y012201D01*
X016076Y012048D01*
X015743Y011715D01*
G37*
G36*
X015019Y010991D02*
X014866Y011144D01*
X015199Y011477D01*
X015352Y011324D01*
X015019Y010991D01*
G37*
G36*
X014755Y011255D02*
X014602Y011408D01*
X014935Y011741D01*
X015088Y011588D01*
X014755Y011255D01*
G37*
G36*
X014490Y011520D02*
X014337Y011673D01*
X014670Y012006D01*
X014823Y011853D01*
X014490Y011520D01*
G37*
G36*
X015214Y012244D02*
X015061Y012397D01*
X015394Y012730D01*
X015547Y012577D01*
X015214Y012244D01*
G37*
G36*
X011471Y021926D02*
X011624Y022079D01*
X011957Y021746D01*
X011804Y021593D01*
X011471Y021926D01*
G37*
G36*
X010747Y022650D02*
X010900Y022803D01*
X011233Y022470D01*
X011080Y022317D01*
X010747Y022650D01*
G37*
G36*
X011012Y022914D02*
X011165Y023067D01*
X011498Y022734D01*
X011345Y022581D01*
X011012Y022914D01*
G37*
G36*
X011276Y023179D02*
X011429Y023332D01*
X011762Y022999D01*
X011609Y022846D01*
X011276Y023179D01*
G37*
G36*
X012000Y022455D02*
X012153Y022608D01*
X012486Y022275D01*
X012333Y022122D01*
X012000Y022455D01*
G37*
G36*
X021242Y026795D02*
X021395Y026642D01*
X021062Y026309D01*
X020909Y026462D01*
X021242Y026795D01*
G37*
G36*
X021966Y027518D02*
X022119Y027365D01*
X021786Y027032D01*
X021633Y027185D01*
X021966Y027518D01*
G37*
G36*
X022230Y027254D02*
X022383Y027101D01*
X022050Y026768D01*
X021897Y026921D01*
X022230Y027254D01*
G37*
G36*
X022495Y026989D02*
X022648Y026836D01*
X022315Y026503D01*
X022162Y026656D01*
X022495Y026989D01*
G37*
G36*
X021771Y026266D02*
X021924Y026113D01*
X021591Y025780D01*
X021438Y025933D01*
X021771Y026266D01*
G37*
D16*
X018901Y019079D03*
D17*
X018055Y018843D03*
X018055Y019315D03*
X018055Y019866D03*
X018055Y018292D03*
X019747Y018292D03*
X019747Y018843D03*
X019747Y019315D03*
X019747Y019866D03*
D18*
X019460Y010760D03*
X018460Y010760D03*
X017460Y010760D03*
X016460Y010760D03*
X020460Y010760D03*
X021460Y010760D03*
D19*
X019492Y013085D03*
X019177Y013085D03*
X018862Y013085D03*
X018547Y013085D03*
X018547Y013695D03*
X018862Y013695D03*
X019177Y013695D03*
X019492Y013695D03*
D20*
X014845Y011498D02*
X014217Y010870D01*
X014157Y010870D01*
X011255Y022824D02*
X010909Y023170D01*
X010909Y023646D01*
X022140Y027011D02*
X022956Y027827D01*
X022956Y027859D01*
X027015Y019028D02*
X027023Y019020D01*
X027897Y019020D01*
X027582Y018705D01*
X027582Y014492D01*
X027385Y014689D01*
X027080Y014689D01*
X026487Y015282D01*
D21*
X026160Y014902D02*
X025984Y014725D01*
X025984Y013664D01*
X026017Y013632D01*
X026017Y013626D01*
X025383Y012993D01*
X024888Y012993D01*
X024021Y012213D01*
X022907Y013327D02*
X020988Y015125D01*
X020988Y018272D01*
X020417Y018843D01*
X019964Y018843D01*
X019944Y019315D02*
X019984Y019355D01*
X020791Y019355D01*
X021007Y019571D01*
X021519Y019571D01*
X020495Y019886D02*
X019944Y019886D01*
X020495Y019886D02*
X023453Y022843D01*
X024110Y023788D01*
X025224Y024901D02*
X024430Y025412D01*
X024430Y025907D01*
X023796Y026540D01*
X023791Y026540D01*
X023758Y026508D01*
X022698Y026508D01*
X022521Y026684D01*
X021778Y025942D02*
X022026Y025694D01*
X022132Y025694D01*
X022004Y025694D01*
X021308Y024998D01*
X021308Y024950D01*
X020840Y024483D01*
X020835Y025471D02*
X018015Y022652D01*
X018015Y020103D01*
X017858Y019335D02*
X017208Y019335D01*
X016578Y019965D01*
X014354Y019965D01*
X012800Y021519D01*
X012794Y021519D01*
X013268Y021992D02*
X013468Y021992D01*
X013803Y021658D01*
X013268Y021992D02*
X012571Y022688D01*
X012571Y022816D01*
X012571Y022710D01*
X012324Y022462D01*
X012571Y022816D02*
X012571Y022927D01*
X012922Y023278D01*
X011758Y023382D02*
X011758Y024442D01*
X011725Y024475D01*
X011725Y024480D01*
X012359Y025114D01*
X012854Y025114D01*
X013399Y025924D01*
X014513Y024810D02*
X016913Y022823D01*
X016913Y021362D01*
X016401Y018803D02*
X017858Y018803D01*
X017838Y018292D02*
X017208Y017662D01*
X017208Y013961D01*
X016232Y012985D01*
X016192Y012985D01*
X015719Y013458D02*
X015524Y013458D01*
X016047Y013981D01*
X015524Y013458D02*
X015485Y013458D01*
X014962Y012935D01*
X015304Y012592D01*
X015304Y012487D01*
X014962Y012935D02*
X014906Y012935D01*
X014438Y013403D01*
X014076Y012205D02*
X013241Y012205D01*
X012567Y012879D01*
X012567Y013352D01*
X012467Y013335D01*
X011869Y013919D01*
X012983Y015032D02*
X014211Y016240D01*
X015161Y017209D01*
X016086Y016244D02*
X016086Y018488D01*
X016401Y018803D01*
X018173Y017209D02*
X019413Y017209D01*
X019807Y017603D01*
X019807Y018055D01*
X022641Y017110D02*
X024425Y017110D01*
X024948Y016588D01*
X024474Y016115D02*
X024108Y016481D01*
X023803Y016481D01*
X024474Y016115D02*
X025171Y015418D01*
X025171Y015397D01*
X025418Y015644D01*
X025171Y015397D02*
X025171Y015180D01*
X024819Y014829D01*
X025125Y019028D02*
X024027Y019028D01*
X023980Y018981D01*
X022594Y025343D02*
X022243Y025694D01*
X022132Y025694D01*
X016086Y016244D02*
X016244Y016087D01*
X014076Y012205D02*
X014419Y011863D01*
X011581Y023205D02*
X011758Y023382D01*
D22*
X011581Y023205D02*
X011519Y023143D01*
X011519Y023089D01*
X012243Y022382D02*
X012243Y022365D01*
X012243Y022382D02*
X012324Y022462D01*
X021681Y026023D02*
X021698Y026023D01*
X021778Y025942D01*
X022405Y026746D02*
X022459Y026746D01*
X022521Y026684D01*
X025499Y015742D02*
X025499Y015725D01*
X025418Y015644D01*
X026223Y015018D02*
X026223Y014964D01*
X026160Y014902D01*
D23*
X026814Y016796D03*
X023980Y018981D03*
X022641Y017110D03*
X023803Y016481D03*
X021519Y019571D03*
X018960Y020575D03*
X016913Y021362D03*
X018389Y023981D03*
X020840Y024483D03*
X018960Y017780D03*
X018173Y017209D03*
X020259Y016815D03*
X018173Y014827D03*
X016244Y016087D03*
X015161Y017209D03*
X013389Y019236D03*
X013803Y021658D03*
X016047Y013981D03*
X020555Y014040D03*
D24*
X019836Y014040D01*
X019492Y013695D01*
X019177Y013695D02*
X019177Y015733D01*
X020259Y016815D01*
X018173Y014827D02*
X018862Y014138D01*
X018862Y013695D01*
X018547Y013695D02*
X016431Y011579D01*
X015988Y011579D01*
X015642Y011234D01*
X015109Y011234D01*
X017460Y010760D02*
X017460Y011998D01*
X018547Y013085D01*
X018803Y013026D02*
X018862Y013085D01*
X018803Y013026D02*
X018803Y012681D01*
X018460Y012339D01*
X018460Y010760D01*
X019460Y010760D02*
X019460Y012299D01*
X019177Y012583D01*
X019177Y013085D01*
X019492Y013085D02*
X020460Y012116D01*
X020460Y010760D01*
X026752Y015547D02*
X026814Y015610D01*
X026814Y016796D01*
X018389Y023981D02*
X018389Y025142D01*
X020751Y027504D01*
X021647Y027504D01*
X021876Y027275D01*
X013389Y019571D02*
X013389Y019236D01*
X013389Y019571D02*
X010771Y022189D01*
X010771Y022341D01*
X010990Y022560D01*
D25*
X018921Y020496D02*
X018921Y018508D01*
X018960Y018469D01*
X018960Y017780D01*
X018921Y020496D02*
X018980Y020555D01*
M02*
