G75*
G70*
%OFA0B0*%
%FSLAX24Y24*%
%IPPOS*%
%LPD*%
%AMOC8*
5,1,8,0,0,1.08239X$1,22.5*
%
%ADD10C,0.0100*%
%ADD11C,0.0160*%
%ADD12C,0.0010*%
%ADD13R,0.0180X0.0300*%
%ADD14C,0.0080*%
%ADD15C,0.0079*%
%ADD16C,0.0060*%
%ADD17C,0.0040*%
%ADD18C,0.0030*%
%ADD19C,0.0050*%
D10*
X028547Y019079D02*
X028536Y019538D01*
X028503Y019996D01*
X028449Y020452D01*
X028373Y020905D01*
X028275Y021353D01*
X028156Y021797D01*
X028016Y022234D01*
X027856Y022664D01*
X027675Y023086D01*
X027475Y023499D01*
X027255Y023902D01*
X027016Y024294D01*
X026758Y024674D01*
X026483Y025042D01*
X026191Y025396D01*
X025882Y025736D01*
X025558Y026060D01*
X025218Y026369D01*
X024864Y026661D01*
X024496Y026936D01*
X024116Y027194D01*
X023724Y027433D01*
X023321Y027653D01*
X022908Y027853D01*
X022486Y028034D01*
X022056Y028194D01*
X021619Y028334D01*
X021175Y028453D01*
X020727Y028551D01*
X020274Y028627D01*
X019818Y028681D01*
X019360Y028714D01*
X018901Y028725D01*
X028547Y019079D02*
X028536Y018620D01*
X028503Y018162D01*
X028449Y017706D01*
X028373Y017253D01*
X028275Y016805D01*
X028156Y016361D01*
X028016Y015924D01*
X027856Y015494D01*
X027675Y015072D01*
X027475Y014659D01*
X027255Y014256D01*
X027016Y013864D01*
X026758Y013484D01*
X026483Y013116D01*
X026191Y012762D01*
X025882Y012422D01*
X025558Y012098D01*
X025218Y011789D01*
X024864Y011497D01*
X024496Y011222D01*
X024116Y010964D01*
X023724Y010725D01*
X023321Y010505D01*
X022908Y010305D01*
X022486Y010124D01*
X022056Y009964D01*
X021619Y009824D01*
X021175Y009705D01*
X020727Y009607D01*
X020274Y009531D01*
X019818Y009477D01*
X019360Y009444D01*
X018901Y009433D01*
X018442Y009444D01*
X017984Y009477D01*
X017528Y009531D01*
X017075Y009607D01*
X016627Y009705D01*
X016183Y009824D01*
X015746Y009964D01*
X015316Y010124D01*
X014894Y010305D01*
X014481Y010505D01*
X014078Y010725D01*
X013686Y010964D01*
X013306Y011222D01*
X012938Y011497D01*
X012584Y011789D01*
X012244Y012098D01*
X011920Y012422D01*
X011611Y012762D01*
X011319Y013116D01*
X011044Y013484D01*
X010786Y013864D01*
X010547Y014256D01*
X010327Y014659D01*
X010127Y015072D01*
X009946Y015494D01*
X009786Y015924D01*
X009646Y016361D01*
X009527Y016805D01*
X009429Y017253D01*
X009353Y017706D01*
X009299Y018162D01*
X009266Y018620D01*
X009255Y019079D01*
X009266Y019538D01*
X009299Y019996D01*
X009353Y020452D01*
X009429Y020905D01*
X009527Y021353D01*
X009646Y021797D01*
X009786Y022234D01*
X009946Y022664D01*
X010127Y023086D01*
X010327Y023499D01*
X010547Y023902D01*
X010786Y024294D01*
X011044Y024674D01*
X011319Y025042D01*
X011611Y025396D01*
X011920Y025736D01*
X012244Y026060D01*
X012584Y026369D01*
X012938Y026661D01*
X013306Y026936D01*
X013686Y027194D01*
X014078Y027433D01*
X014481Y027653D01*
X014894Y027853D01*
X015316Y028034D01*
X015746Y028194D01*
X016183Y028334D01*
X016627Y028453D01*
X017075Y028551D01*
X017528Y028627D01*
X017984Y028681D01*
X018442Y028714D01*
X018901Y028725D01*
D11*
X017129Y010319D02*
X020673Y010319D01*
X020673Y009610D01*
X017129Y009591D02*
X017129Y010319D01*
D12*
X015795Y012587D02*
X015724Y012658D01*
X015831Y012658D01*
X015724Y012552D01*
X015656Y012656D02*
X015744Y012744D01*
X015673Y012815D02*
X015585Y012726D01*
X015585Y012691D01*
X015620Y012656D01*
X015656Y012656D01*
X016084Y013524D02*
X016191Y013630D01*
X016084Y013630D01*
X016155Y013559D01*
X016051Y013663D02*
X016016Y013663D01*
X015963Y013717D01*
X015998Y013681D02*
X015998Y013610D01*
X016051Y013663D02*
X016086Y013699D01*
X016086Y013734D01*
X016033Y013787D01*
X015927Y013681D01*
X012901Y012792D02*
X012795Y012898D01*
X012795Y012792D01*
X012866Y012862D01*
X012797Y012723D02*
X012726Y012793D01*
X012691Y012793D01*
X012638Y012740D01*
X012744Y012634D01*
X012797Y012687D01*
X012797Y012723D01*
X013395Y021476D02*
X013289Y021582D01*
X013342Y021636D01*
X013378Y021636D01*
X013413Y021600D01*
X013413Y021565D01*
X013360Y021512D01*
X013395Y021547D02*
X013466Y021547D01*
X013500Y021580D02*
X013500Y021722D01*
X013482Y021740D01*
X013446Y021740D01*
X013411Y021704D01*
X013411Y021669D01*
X013500Y021580D02*
X013570Y021651D01*
X012545Y021969D02*
X012474Y021899D01*
X012474Y022040D01*
X012457Y022058D01*
X012421Y022058D01*
X012386Y022023D01*
X012386Y021987D01*
X012335Y021971D02*
X012423Y021883D01*
X012423Y021848D01*
X012388Y021812D01*
X012352Y021812D01*
X012264Y021901D01*
X012329Y024798D02*
X012258Y024869D01*
X012400Y024869D01*
X012418Y024886D01*
X012418Y024922D01*
X012382Y024957D01*
X012347Y024957D01*
X012313Y024990D02*
X012313Y025026D01*
X012260Y025079D01*
X012154Y024973D01*
X012207Y024920D01*
X012243Y024920D01*
X012313Y024990D01*
X020792Y024870D02*
X020898Y024977D01*
X020951Y024923D01*
X020951Y024888D01*
X020916Y024853D01*
X020881Y024853D01*
X020828Y024906D01*
X020863Y024870D02*
X020863Y024800D01*
X020914Y024784D02*
X020914Y024749D01*
X020949Y024713D01*
X020985Y024713D01*
X021003Y024731D01*
X021003Y024766D01*
X020985Y024784D01*
X021003Y024766D02*
X021038Y024766D01*
X021056Y024784D01*
X021056Y024819D01*
X021020Y024855D01*
X020985Y024855D01*
X021268Y025738D02*
X021232Y025774D01*
X021232Y025809D01*
X021199Y025843D02*
X021287Y025931D01*
X021303Y025880D02*
X021338Y025880D01*
X021374Y025845D01*
X021374Y025809D01*
X021356Y025792D01*
X021321Y025792D01*
X021321Y025756D01*
X021303Y025738D01*
X021268Y025738D01*
X021321Y025792D02*
X021303Y025809D01*
X021199Y025843D02*
X021164Y025843D01*
X021128Y025878D01*
X021128Y025913D01*
X021217Y026002D01*
X024087Y025910D02*
X024140Y025963D01*
X024176Y025963D01*
X024246Y025893D01*
X024246Y025857D01*
X024193Y025804D01*
X024087Y025910D01*
X024209Y025997D02*
X024209Y026032D01*
X024244Y026068D01*
X024280Y026068D01*
X024298Y026050D01*
X024298Y026015D01*
X024333Y026015D01*
X024351Y025997D01*
X024351Y025962D01*
X024315Y025926D01*
X024280Y025926D01*
X024280Y025997D02*
X024298Y026015D01*
X024285Y016569D02*
X024391Y016463D01*
X024426Y016498D02*
X024355Y016427D01*
X024322Y016394D02*
X024251Y016394D01*
X024269Y016412D02*
X024216Y016358D01*
X024251Y016323D02*
X024145Y016429D01*
X024198Y016482D01*
X024234Y016482D01*
X024269Y016447D01*
X024269Y016412D01*
X024285Y016498D02*
X024285Y016569D01*
X025170Y016111D02*
X025259Y016023D01*
X025294Y016023D01*
X025330Y016058D01*
X025330Y016093D01*
X025241Y016182D01*
X025310Y016180D02*
X025310Y016251D01*
X025416Y016144D01*
X025381Y016109D02*
X025452Y016180D01*
X025387Y013335D02*
X025440Y013282D01*
X025440Y013247D01*
X025369Y013176D01*
X025333Y013176D01*
X025280Y013229D01*
X025387Y013335D01*
X025455Y013196D02*
X025526Y013196D01*
X025420Y013090D01*
X025385Y013125D02*
X025455Y013054D01*
D13*
G36*
X024880Y016309D02*
X024753Y016182D01*
X024542Y016393D01*
X024669Y016520D01*
X024880Y016309D01*
G37*
G36*
X015913Y013053D02*
X015786Y013180D01*
X015997Y013391D01*
X016124Y013264D01*
X015913Y013053D01*
G37*
G36*
X012862Y021797D02*
X012989Y021924D01*
X013200Y021713D01*
X013073Y021586D01*
X012862Y021797D01*
G37*
G36*
X021113Y025404D02*
X021240Y025277D01*
X021029Y025066D01*
X020902Y025193D01*
X021113Y025404D01*
G37*
D14*
X022055Y026133D02*
X022294Y026373D01*
X022636Y025942D02*
X023193Y025385D01*
X022831Y025023D02*
X022956Y024898D01*
X024237Y026179D01*
X024111Y026304D01*
X023555Y026861D02*
X023429Y026986D01*
X022149Y025705D01*
X022274Y025580D01*
X021628Y026349D02*
X021478Y026498D01*
X021263Y026925D02*
X021502Y027165D01*
X013368Y023640D02*
X013243Y023515D01*
X013368Y023640D02*
X012087Y024921D01*
X011962Y024795D01*
X011405Y024239D02*
X011280Y024113D01*
X012560Y022833D01*
X012686Y022958D01*
X012324Y023320D02*
X012881Y023877D01*
X011893Y022978D02*
X012132Y022739D01*
X011917Y022312D02*
X011768Y022162D01*
X011340Y021947D02*
X011101Y022186D01*
X014076Y013848D02*
X014202Y013723D01*
X014076Y013848D02*
X012796Y012567D01*
X012921Y012442D01*
X013478Y011885D02*
X013603Y011760D01*
X014884Y013041D01*
X014758Y013166D01*
X014396Y012804D02*
X013840Y013361D01*
X014930Y012376D02*
X014691Y012137D01*
X015357Y012161D02*
X015507Y012011D01*
X015722Y011584D02*
X015483Y011345D01*
X017110Y010260D02*
X020692Y010260D01*
X020476Y010221D02*
X020476Y009670D01*
X021047Y009630D02*
X021047Y009433D01*
X021007Y009394D01*
X016795Y009394D01*
X016755Y009433D01*
X016755Y009630D01*
X021047Y009630D01*
X020141Y010319D02*
X020141Y011205D01*
X020142Y011205D02*
X020141Y011214D01*
X020136Y011223D01*
X020130Y011229D01*
X020121Y011234D01*
X020112Y011235D01*
X020103Y011234D01*
X020094Y011229D01*
X020088Y011223D01*
X020083Y011214D01*
X020082Y011205D01*
X020082Y010319D01*
X017720Y010319D02*
X017720Y011205D01*
X017719Y011214D01*
X017714Y011223D01*
X017708Y011229D01*
X017699Y011234D01*
X017690Y011235D01*
X017681Y011234D01*
X017672Y011229D01*
X017666Y011223D01*
X017661Y011214D01*
X017660Y011205D01*
X017661Y011205D02*
X017661Y010319D01*
X017326Y010221D02*
X017326Y009670D01*
X024374Y014467D02*
X024499Y014592D01*
X024374Y014467D02*
X025655Y013186D01*
X025780Y013311D01*
X026337Y013868D02*
X026462Y013993D01*
X025181Y015274D01*
X025056Y015149D01*
X025418Y014787D02*
X024861Y014230D01*
X025849Y015129D02*
X025610Y015368D01*
X025825Y015795D02*
X025974Y015945D01*
X026402Y016160D02*
X026641Y015921D01*
D15*
X024410Y013383D02*
X024076Y013717D01*
X023854Y013494D02*
X023900Y013468D01*
X023945Y013439D01*
X023988Y013407D01*
X024028Y013372D01*
X024066Y013334D01*
X024101Y013294D01*
X024133Y013251D01*
X024162Y013206D01*
X024188Y013160D01*
X023074Y012046D02*
X023028Y012072D01*
X022983Y012101D01*
X022940Y012133D01*
X022900Y012168D01*
X022862Y012206D01*
X022827Y012246D01*
X022795Y012289D01*
X022766Y012334D01*
X022740Y012380D01*
X022517Y012158D02*
X022852Y011824D01*
X013373Y013863D02*
X013039Y013529D01*
X012816Y013752D02*
X012862Y013778D01*
X012907Y013807D01*
X012950Y013839D01*
X012990Y013874D01*
X013028Y013912D01*
X013063Y013952D01*
X013095Y013995D01*
X013124Y014040D01*
X013150Y014086D01*
X012036Y015199D02*
X011990Y015173D01*
X011945Y015144D01*
X011902Y015112D01*
X011862Y015077D01*
X011824Y015039D01*
X011789Y014999D01*
X011757Y014956D01*
X011728Y014911D01*
X011702Y014865D01*
X011480Y015088D02*
X011814Y015422D01*
X013344Y024420D02*
X013010Y024754D01*
X013232Y024977D02*
X013258Y024931D01*
X013287Y024886D01*
X013319Y024843D01*
X013354Y024803D01*
X013392Y024765D01*
X013432Y024730D01*
X013475Y024698D01*
X013520Y024669D01*
X013566Y024643D01*
X014680Y025757D02*
X014654Y025803D01*
X014625Y025848D01*
X014593Y025891D01*
X014558Y025931D01*
X014520Y025969D01*
X014480Y026004D01*
X014437Y026036D01*
X014392Y026065D01*
X014346Y026091D01*
X014569Y026313D02*
X014903Y025979D01*
X023721Y024957D02*
X024055Y025291D01*
X024277Y025068D02*
X024231Y025042D01*
X024186Y025013D01*
X024143Y024981D01*
X024103Y024946D01*
X024065Y024908D01*
X024030Y024868D01*
X023998Y024825D01*
X023969Y024780D01*
X023943Y024734D01*
X025057Y023621D02*
X025103Y023647D01*
X025148Y023676D01*
X025191Y023708D01*
X025231Y023743D01*
X025269Y023781D01*
X025304Y023821D01*
X025336Y023864D01*
X025365Y023909D01*
X025391Y023955D01*
X025614Y023732D02*
X025279Y023398D01*
D16*
X012211Y012728D02*
X011758Y012275D01*
X012060Y012426D02*
X011758Y012728D01*
X012211Y012728D01*
X011378Y012655D02*
X011076Y012957D01*
X011529Y013410D01*
X012021Y025395D02*
X012323Y025697D01*
X012477Y025851D02*
X012477Y026455D01*
X012402Y026531D01*
X012251Y026531D01*
X012100Y026380D01*
X012100Y026229D01*
X012477Y025851D02*
X012779Y026153D01*
X012021Y025395D02*
X011569Y025848D01*
X024696Y026279D02*
X024998Y025977D01*
X025227Y025899D02*
X025227Y025748D01*
X025378Y025597D01*
X025529Y025597D01*
X025604Y025672D01*
X025604Y025823D01*
X025529Y025899D01*
X025604Y025823D02*
X025755Y025823D01*
X025831Y025899D01*
X025831Y026050D01*
X025680Y026201D01*
X025529Y026201D01*
X025148Y026732D02*
X024696Y026279D01*
X025136Y012480D02*
X025589Y012027D01*
X025438Y011876D02*
X025740Y012178D01*
X025136Y012178D02*
X025136Y012480D01*
X024529Y011873D02*
X024982Y011420D01*
X025284Y011722D01*
D17*
X019905Y009591D02*
X019905Y009433D01*
X019807Y009532D01*
X019807Y009591D01*
X017995Y009532D02*
X017995Y009591D01*
X017995Y009532D02*
X017897Y009433D01*
X017897Y009591D01*
X017818Y010319D02*
X018015Y010319D01*
X018015Y010339D01*
X017917Y010477D01*
X017818Y010339D01*
X017818Y010319D01*
X017832Y010357D02*
X018002Y010357D01*
X017974Y010396D02*
X017859Y010396D01*
X017887Y010434D02*
X017947Y010434D01*
X017919Y010473D02*
X017914Y010473D01*
X017491Y012119D02*
X017185Y012119D01*
X017338Y012119D02*
X017338Y012579D01*
X017185Y012426D01*
X017031Y012579D02*
X016724Y012119D01*
X017031Y012119D02*
X016724Y012579D01*
X018409Y013095D02*
X018409Y013685D01*
X018414Y013910D02*
X018414Y014370D01*
X018644Y014370D01*
X018721Y014294D01*
X018721Y014140D01*
X018644Y014063D01*
X018414Y014063D01*
X018568Y014063D02*
X018721Y013910D01*
X018875Y013910D02*
X018875Y014370D01*
X019181Y013910D01*
X019181Y014370D01*
X019335Y014217D02*
X019488Y014370D01*
X019488Y013910D01*
X019335Y013910D02*
X019642Y013910D01*
X019629Y013685D02*
X019629Y013095D01*
X024791Y018418D02*
X024791Y018654D01*
X024791Y018418D02*
X025460Y017748D01*
X027350Y017748D01*
X027350Y018654D01*
X027350Y019402D02*
X027350Y020307D01*
X025460Y020307D01*
X024791Y019638D01*
X024791Y019402D01*
X024909Y018654D02*
X024931Y018590D01*
X024958Y018527D01*
X024988Y018465D01*
X025021Y018406D01*
X025057Y018348D01*
X025097Y018292D01*
X025140Y018239D01*
X025185Y018188D01*
X025233Y018140D01*
X025284Y018095D01*
X025338Y018052D01*
X025394Y018013D01*
X025451Y017976D01*
X025511Y017943D01*
X025573Y017914D01*
X025636Y017888D01*
X025700Y017865D01*
X025766Y017846D01*
X025833Y017831D01*
X025900Y017820D01*
X025968Y017812D01*
X026036Y017808D01*
X026104Y017808D01*
X026172Y017812D01*
X026240Y017820D01*
X026307Y017831D01*
X026374Y017846D01*
X026440Y017865D01*
X026504Y017888D01*
X026567Y017914D01*
X026629Y017943D01*
X026689Y017976D01*
X026746Y018013D01*
X026802Y018052D01*
X026856Y018095D01*
X026907Y018140D01*
X026955Y018188D01*
X027000Y018239D01*
X027043Y018292D01*
X027083Y018348D01*
X027119Y018406D01*
X027152Y018465D01*
X027182Y018527D01*
X027209Y018590D01*
X027231Y018654D01*
X027231Y019402D02*
X027209Y019466D01*
X027182Y019529D01*
X027152Y019591D01*
X027119Y019650D01*
X027083Y019708D01*
X027043Y019764D01*
X027000Y019817D01*
X026955Y019868D01*
X026907Y019916D01*
X026856Y019961D01*
X026802Y020004D01*
X026746Y020043D01*
X026689Y020080D01*
X026629Y020113D01*
X026567Y020142D01*
X026504Y020168D01*
X026440Y020191D01*
X026374Y020210D01*
X026307Y020225D01*
X026240Y020236D01*
X026172Y020244D01*
X026104Y020248D01*
X026036Y020248D01*
X025968Y020244D01*
X025900Y020236D01*
X025833Y020225D01*
X025766Y020210D01*
X025700Y020191D01*
X025636Y020168D01*
X025573Y020142D01*
X025511Y020113D01*
X025451Y020080D01*
X025394Y020043D01*
X025338Y020004D01*
X025284Y019961D01*
X025233Y019916D01*
X025185Y019868D01*
X025140Y019817D01*
X025097Y019764D01*
X025057Y019708D01*
X025021Y019650D01*
X024988Y019591D01*
X024958Y019529D01*
X024931Y019466D01*
X024909Y019402D01*
D18*
X026038Y018558D02*
X026038Y018311D01*
X026099Y018249D01*
X026223Y018249D01*
X026285Y018311D01*
X026406Y018249D02*
X026653Y018249D01*
X026529Y018249D02*
X026529Y018619D01*
X026406Y018496D01*
X026285Y018558D02*
X026223Y018619D01*
X026099Y018619D01*
X026038Y018558D01*
X020564Y013937D02*
X020516Y013937D01*
X020322Y014131D01*
X020274Y014131D01*
X020274Y013937D01*
X020322Y013836D02*
X020274Y013788D01*
X020274Y013642D01*
X020564Y013642D01*
X020564Y013788D01*
X020516Y013836D01*
X020322Y013836D01*
X018753Y013788D02*
X018705Y013836D01*
X018511Y013836D01*
X018463Y013788D01*
X018463Y013642D01*
X018753Y013642D01*
X018753Y013788D01*
X018705Y013937D02*
X018753Y013986D01*
X018753Y014082D01*
X018705Y014131D01*
X018608Y014131D01*
X018560Y014082D01*
X018560Y014034D01*
X018608Y013937D01*
X018463Y013937D01*
X018463Y014131D01*
X018085Y013164D02*
X017989Y013115D01*
X017892Y013019D01*
X018037Y013019D01*
X018085Y012970D01*
X018085Y012922D01*
X018037Y012874D01*
X017940Y012874D01*
X017892Y012922D01*
X017892Y013019D01*
X017791Y013115D02*
X017742Y013164D01*
X017597Y013164D01*
X017597Y012874D01*
X017742Y012874D01*
X017791Y012922D01*
X017791Y013115D01*
X019902Y012135D02*
X019902Y011845D01*
X020047Y011845D01*
X020095Y011893D01*
X020095Y012087D01*
X020047Y012135D01*
X019902Y012135D01*
X020196Y012087D02*
X020196Y012038D01*
X020245Y011990D01*
X020341Y011990D01*
X020390Y011942D01*
X020390Y011893D01*
X020341Y011845D01*
X020245Y011845D01*
X020196Y011893D01*
X020196Y011942D01*
X020245Y011990D01*
X020341Y011990D02*
X020390Y012038D01*
X020390Y012087D01*
X020341Y012135D01*
X020245Y012135D01*
X020196Y012087D01*
D19*
X020102Y012248D02*
X020102Y012760D01*
X019433Y012760D01*
X019433Y012248D01*
X020102Y012248D01*
X019649Y012268D02*
X019649Y012740D01*
X019610Y012740D01*
X019610Y012268D01*
X019649Y013173D02*
X019649Y013843D01*
X020161Y013843D01*
X020161Y013173D01*
X019649Y013173D01*
X019669Y013351D02*
X019669Y013390D01*
X020141Y013390D01*
X020141Y013351D02*
X019669Y013351D01*
X018625Y012760D02*
X018625Y012248D01*
X017956Y012248D01*
X017956Y012760D01*
X018625Y012760D01*
X018448Y012740D02*
X018448Y012268D01*
X018409Y012268D01*
X018409Y012740D01*
X018350Y013173D02*
X017838Y013173D01*
X017838Y013843D01*
X018350Y013843D01*
X018350Y013173D01*
X018330Y013351D02*
X017858Y013351D01*
X017858Y013390D01*
X018330Y013390D01*
M02*
