%
M48
M72
T01C0.0236
T02C0.0400
%
T01
X16047Y13981
X16244Y16087
X15161Y17209
X13389Y19236
X13803Y21658
X16913Y21362
X18960Y20575
X21519Y19571
X22641Y17110
X23803Y16481
X23980Y18981
X26814Y16796
X20555Y14040
X18173Y14827
X20259Y16815
X18960Y17780
X18173Y17209
X18389Y23981
X20840Y24483
T02
X20460Y10760
X21460Y10760
X19460Y10760
X18460Y10760
X17460Y10760
X16460Y10760
M30
