G75*
G70*
%OFA0B0*%
%FSLAX24Y24*%
%IPPOS*%
%LPD*%
%AMOC8*
5,1,8,0,0,1.08239X$1,22.5*
%
%ADD10C,0.0100*%
%ADD11C,0.0160*%
%ADD12R,0.0513X0.0474*%
%ADD13R,0.0580X0.0659*%
%ADD14C,0.0271*%
%ADD15R,0.1261X0.0631*%
%ADD16R,0.0297X0.0552*%
%ADD17R,0.1222X0.2049*%
%ADD18R,0.0356X0.0474*%
%ADD19R,0.0257X0.0356*%
%ADD20R,0.0395X0.0474*%
%ADD21R,0.0474X0.0395*%
%ADD22R,0.0198X0.0395*%
%ADD23R,0.0453X0.0866*%
%ADD24R,0.0512X0.1201*%
D10*
X028547Y019079D02*
X028536Y019538D01*
X028503Y019996D01*
X028449Y020452D01*
X028373Y020905D01*
X028275Y021353D01*
X028156Y021797D01*
X028016Y022234D01*
X027856Y022664D01*
X027675Y023086D01*
X027475Y023499D01*
X027255Y023902D01*
X027016Y024294D01*
X026758Y024674D01*
X026483Y025042D01*
X026191Y025396D01*
X025882Y025736D01*
X025558Y026060D01*
X025218Y026369D01*
X024864Y026661D01*
X024496Y026936D01*
X024116Y027194D01*
X023724Y027433D01*
X023321Y027653D01*
X022908Y027853D01*
X022486Y028034D01*
X022056Y028194D01*
X021619Y028334D01*
X021175Y028453D01*
X020727Y028551D01*
X020274Y028627D01*
X019818Y028681D01*
X019360Y028714D01*
X018901Y028725D01*
X028547Y019079D02*
X028536Y018620D01*
X028503Y018162D01*
X028449Y017706D01*
X028373Y017253D01*
X028275Y016805D01*
X028156Y016361D01*
X028016Y015924D01*
X027856Y015494D01*
X027675Y015072D01*
X027475Y014659D01*
X027255Y014256D01*
X027016Y013864D01*
X026758Y013484D01*
X026483Y013116D01*
X026191Y012762D01*
X025882Y012422D01*
X025558Y012098D01*
X025218Y011789D01*
X024864Y011497D01*
X024496Y011222D01*
X024116Y010964D01*
X023724Y010725D01*
X023321Y010505D01*
X022908Y010305D01*
X022486Y010124D01*
X022056Y009964D01*
X021619Y009824D01*
X021175Y009705D01*
X020727Y009607D01*
X020274Y009531D01*
X019818Y009477D01*
X019360Y009444D01*
X018901Y009433D01*
X018442Y009444D01*
X017984Y009477D01*
X017528Y009531D01*
X017075Y009607D01*
X016627Y009705D01*
X016183Y009824D01*
X015746Y009964D01*
X015316Y010124D01*
X014894Y010305D01*
X014481Y010505D01*
X014078Y010725D01*
X013686Y010964D01*
X013306Y011222D01*
X012938Y011497D01*
X012584Y011789D01*
X012244Y012098D01*
X011920Y012422D01*
X011611Y012762D01*
X011319Y013116D01*
X011044Y013484D01*
X010786Y013864D01*
X010547Y014256D01*
X010327Y014659D01*
X010127Y015072D01*
X009946Y015494D01*
X009786Y015924D01*
X009646Y016361D01*
X009527Y016805D01*
X009429Y017253D01*
X009353Y017706D01*
X009299Y018162D01*
X009266Y018620D01*
X009255Y019079D01*
X009266Y019538D01*
X009299Y019996D01*
X009353Y020452D01*
X009429Y020905D01*
X009527Y021353D01*
X009646Y021797D01*
X009786Y022234D01*
X009946Y022664D01*
X010127Y023086D01*
X010327Y023499D01*
X010547Y023902D01*
X010786Y024294D01*
X011044Y024674D01*
X011319Y025042D01*
X011611Y025396D01*
X011920Y025736D01*
X012244Y026060D01*
X012584Y026369D01*
X012938Y026661D01*
X013306Y026936D01*
X013686Y027194D01*
X014078Y027433D01*
X014481Y027653D01*
X014894Y027853D01*
X015316Y028034D01*
X015746Y028194D01*
X016183Y028334D01*
X016627Y028453D01*
X017075Y028551D01*
X017528Y028627D01*
X017984Y028681D01*
X018442Y028714D01*
X018901Y028725D01*
D11*
X017129Y010319D02*
X020673Y010319D01*
X020673Y009610D01*
X017129Y009591D02*
X017129Y010319D01*
D12*
G36*
X016205Y012637D02*
X015844Y012998D01*
X016179Y013333D01*
X016540Y012972D01*
X016205Y012637D01*
G37*
G36*
X015732Y013110D02*
X015371Y013471D01*
X015706Y013806D01*
X016067Y013445D01*
X015732Y013110D01*
G37*
G36*
X012446Y021506D02*
X012807Y021867D01*
X013142Y021532D01*
X012781Y021171D01*
X012446Y021506D01*
G37*
G36*
X012920Y021979D02*
X013281Y022340D01*
X013616Y022005D01*
X013255Y021644D01*
X012920Y021979D01*
G37*
G36*
X020822Y025819D02*
X021183Y025458D01*
X020848Y025123D01*
X020487Y025484D01*
X020822Y025819D01*
G37*
G36*
X021295Y025346D02*
X021656Y024985D01*
X021321Y024650D01*
X020960Y025011D01*
X021295Y025346D01*
G37*
G36*
X025296Y016601D02*
X024935Y016240D01*
X024600Y016575D01*
X024961Y016936D01*
X025296Y016601D01*
G37*
G36*
X024822Y016128D02*
X024461Y015767D01*
X024126Y016102D01*
X024487Y016463D01*
X024822Y016128D01*
G37*
D13*
G36*
X012804Y012232D02*
X013214Y012642D01*
X013678Y012178D01*
X013268Y011768D01*
X012804Y012232D01*
G37*
G36*
X014875Y013376D02*
X014465Y012966D01*
X014001Y013430D01*
X014411Y013840D01*
X014875Y013376D01*
G37*
G36*
X012895Y022841D02*
X012485Y023251D01*
X012949Y023715D01*
X013359Y023305D01*
X012895Y022841D01*
G37*
G36*
X011752Y024912D02*
X012162Y024502D01*
X011698Y024038D01*
X011288Y024448D01*
X011752Y024912D01*
G37*
G36*
X022157Y025370D02*
X022567Y025780D01*
X023031Y025316D01*
X022621Y024906D01*
X022157Y025370D01*
G37*
G36*
X024228Y026513D02*
X023818Y026103D01*
X023354Y026567D01*
X023764Y026977D01*
X024228Y026513D01*
G37*
G36*
X024846Y015266D02*
X025256Y014856D01*
X024792Y014392D01*
X024382Y014802D01*
X024846Y015266D01*
G37*
G36*
X025990Y013195D02*
X025580Y013605D01*
X026044Y014069D01*
X026454Y013659D01*
X025990Y013195D01*
G37*
D14*
X024584Y013352D02*
X022882Y011650D01*
X024584Y013352D02*
X025160Y012776D01*
X023458Y011074D01*
X022882Y011650D01*
X023188Y011344D02*
X023728Y011344D01*
X023998Y011614D02*
X022918Y011614D01*
X023116Y011884D02*
X024268Y011884D01*
X024538Y012154D02*
X023386Y012154D01*
X023656Y012424D02*
X024808Y012424D01*
X025078Y012694D02*
X023926Y012694D01*
X024196Y012964D02*
X024972Y012964D01*
X024702Y013234D02*
X024466Y013234D01*
X024046Y013890D02*
X022344Y012188D01*
X021768Y012764D01*
X023470Y014466D01*
X024046Y013890D01*
X022614Y012458D02*
X022074Y012458D01*
X021804Y012728D02*
X022884Y012728D01*
X023154Y012998D02*
X022002Y012998D01*
X022272Y013268D02*
X023424Y013268D01*
X023694Y013538D02*
X022542Y013538D01*
X022812Y013808D02*
X023964Y013808D01*
X023858Y014078D02*
X023082Y014078D01*
X023352Y014348D02*
X023588Y014348D01*
X025249Y023225D02*
X023547Y024927D01*
X025249Y023225D02*
X024673Y022649D01*
X022971Y024351D01*
X023547Y024927D01*
X024403Y022919D02*
X024943Y022919D01*
X025213Y023189D02*
X024133Y023189D01*
X023863Y023459D02*
X025015Y023459D01*
X024745Y023729D02*
X023593Y023729D01*
X023323Y023999D02*
X024475Y023999D01*
X024205Y024269D02*
X023053Y024269D01*
X023159Y024539D02*
X023935Y024539D01*
X023665Y024809D02*
X023429Y024809D01*
X024085Y025464D02*
X025787Y023762D01*
X024085Y025464D02*
X024661Y026040D01*
X026363Y024338D01*
X025787Y023762D01*
X026057Y024032D02*
X025517Y024032D01*
X025247Y024302D02*
X026327Y024302D01*
X026129Y024572D02*
X024977Y024572D01*
X024707Y024842D02*
X025859Y024842D01*
X025589Y025112D02*
X024437Y025112D01*
X024167Y025382D02*
X025319Y025382D01*
X025049Y025652D02*
X024273Y025652D01*
X024543Y025922D02*
X024779Y025922D01*
X015076Y025949D02*
X013374Y024247D01*
X015076Y025949D02*
X015652Y025373D01*
X013950Y023671D01*
X013374Y024247D01*
X013680Y023941D02*
X014220Y023941D01*
X014490Y024211D02*
X013410Y024211D01*
X013608Y024481D02*
X014760Y024481D01*
X015030Y024751D02*
X013878Y024751D01*
X014148Y025021D02*
X015300Y025021D01*
X015570Y025291D02*
X014418Y025291D01*
X014688Y025561D02*
X015464Y025561D01*
X015194Y025831D02*
X014958Y025831D01*
X014538Y026487D02*
X012836Y024785D01*
X012260Y025361D01*
X013962Y027063D01*
X014538Y026487D01*
X013106Y025055D02*
X012566Y025055D01*
X012296Y025325D02*
X013376Y025325D01*
X013646Y025595D02*
X012494Y025595D01*
X012764Y025865D02*
X013916Y025865D01*
X014186Y026135D02*
X013034Y026135D01*
X013304Y026405D02*
X014456Y026405D01*
X014350Y026675D02*
X013574Y026675D01*
X013844Y026945D02*
X014080Y026945D01*
X011844Y015595D02*
X013546Y013893D01*
X011844Y015595D02*
X012420Y016171D01*
X014122Y014469D01*
X013546Y013893D01*
X013816Y014163D02*
X013276Y014163D01*
X013006Y014433D02*
X014086Y014433D01*
X013888Y014703D02*
X012736Y014703D01*
X012466Y014973D02*
X013618Y014973D01*
X013348Y015243D02*
X012196Y015243D01*
X011926Y015513D02*
X013078Y015513D01*
X012808Y015783D02*
X012032Y015783D01*
X012302Y016053D02*
X012538Y016053D01*
X011306Y015058D02*
X013008Y013356D01*
X012432Y012780D01*
X010730Y014482D01*
X011306Y015058D01*
X012162Y013050D02*
X012702Y013050D01*
X012972Y013320D02*
X011892Y013320D01*
X011622Y013590D02*
X012774Y013590D01*
X012504Y013860D02*
X011352Y013860D01*
X011082Y014130D02*
X012234Y014130D01*
X011964Y014400D02*
X010812Y014400D01*
X010918Y014670D02*
X011694Y014670D01*
X011424Y014940D02*
X011188Y014940D01*
D15*
X025125Y019028D03*
X027015Y019028D03*
D16*
G36*
X026327Y016181D02*
X026118Y015972D01*
X025729Y016361D01*
X025938Y016570D01*
X026327Y016181D01*
G37*
G36*
X027051Y015457D02*
X026842Y015248D01*
X026453Y015637D01*
X026662Y015846D01*
X027051Y015457D01*
G37*
G36*
X026786Y015192D02*
X026577Y014983D01*
X026188Y015372D01*
X026397Y015581D01*
X026786Y015192D01*
G37*
G36*
X026522Y014928D02*
X026313Y014719D01*
X025924Y015108D01*
X026133Y015317D01*
X026522Y014928D01*
G37*
G36*
X025798Y015652D02*
X025589Y015443D01*
X025200Y015832D01*
X025409Y016041D01*
X025798Y015652D01*
G37*
G36*
X015743Y011659D02*
X015534Y011868D01*
X015923Y012257D01*
X016132Y012048D01*
X015743Y011659D01*
G37*
G36*
X015019Y010935D02*
X014810Y011144D01*
X015199Y011533D01*
X015408Y011324D01*
X015019Y010935D01*
G37*
G36*
X014755Y011199D02*
X014546Y011408D01*
X014935Y011797D01*
X015144Y011588D01*
X014755Y011199D01*
G37*
G36*
X014490Y011464D02*
X014281Y011673D01*
X014670Y012062D01*
X014879Y011853D01*
X014490Y011464D01*
G37*
G36*
X015214Y012188D02*
X015005Y012397D01*
X015394Y012786D01*
X015603Y012577D01*
X015214Y012188D01*
G37*
G36*
X011415Y021926D02*
X011624Y022135D01*
X012013Y021746D01*
X011804Y021537D01*
X011415Y021926D01*
G37*
G36*
X010691Y022650D02*
X010900Y022859D01*
X011289Y022470D01*
X011080Y022261D01*
X010691Y022650D01*
G37*
G36*
X010956Y022914D02*
X011165Y023123D01*
X011554Y022734D01*
X011345Y022525D01*
X010956Y022914D01*
G37*
G36*
X011220Y023179D02*
X011429Y023388D01*
X011818Y022999D01*
X011609Y022790D01*
X011220Y023179D01*
G37*
G36*
X011944Y022455D02*
X012153Y022664D01*
X012542Y022275D01*
X012333Y022066D01*
X011944Y022455D01*
G37*
G36*
X021242Y026851D02*
X021451Y026642D01*
X021062Y026253D01*
X020853Y026462D01*
X021242Y026851D01*
G37*
G36*
X021966Y027574D02*
X022175Y027365D01*
X021786Y026976D01*
X021577Y027185D01*
X021966Y027574D01*
G37*
G36*
X022230Y027310D02*
X022439Y027101D01*
X022050Y026712D01*
X021841Y026921D01*
X022230Y027310D01*
G37*
G36*
X022495Y027045D02*
X022704Y026836D01*
X022315Y026447D01*
X022106Y026656D01*
X022495Y027045D01*
G37*
G36*
X021771Y026322D02*
X021980Y026113D01*
X021591Y025724D01*
X021382Y025933D01*
X021771Y026322D01*
G37*
D17*
X018901Y019079D03*
D18*
X018055Y018843D03*
X018055Y019315D03*
X018055Y019866D03*
X018055Y018292D03*
X019747Y018292D03*
X019747Y018843D03*
X019747Y019315D03*
X019747Y019866D03*
D19*
X019492Y013695D03*
X019177Y013695D03*
X018862Y013695D03*
X018547Y013695D03*
X018547Y013085D03*
X018862Y013085D03*
X019177Y013085D03*
X019492Y013085D03*
D20*
X019905Y013114D03*
X019905Y013902D03*
X018094Y013902D03*
X018094Y013114D03*
D21*
X017897Y012504D03*
X018684Y012504D03*
X019373Y012504D03*
X020161Y012504D03*
D22*
X019787Y011796D03*
X019590Y011796D03*
X019393Y011796D03*
X019196Y011796D03*
X018999Y011796D03*
X018803Y011796D03*
X018606Y011796D03*
X018409Y011796D03*
X018212Y011796D03*
X018015Y011796D03*
D23*
X016805Y011166D03*
X020997Y011166D03*
D24*
X020535Y010998D03*
X017267Y010998D03*
M02*
