%
M48
M72
T01C0.0236
%
T01
X26342Y21736
X10712Y19335
X23803Y16481
X23980Y18981
X20840Y24483
X13803Y21658
X16047Y13981
X17976Y11087
X22641Y17110
X16244Y16087
X16913Y21362
X21519Y19571
X18389Y23981
X20102Y16796
X18665Y14827
X13389Y19236
X15161Y17209
X18173Y17209
X18960Y17780
X18960Y20575
X26814Y16796
X19216Y14453
M30
