G75*
G70*
%OFA0B0*%
%FSLAX24Y24*%
%IPPOS*%
%LPD*%
%AMOC8*
5,1,8,0,0,1.08239X$1,22.5*
%
%ADD10C,0.0110*%
%ADD11C,0.0100*%
%ADD12C,0.0160*%
%ADD13R,0.0436X0.0436*%
%ADD14C,0.0400*%
%ADD15C,0.0436*%
%ADD16C,0.0120*%
D10*
X022923Y011512D02*
X023480Y011512D01*
X023480Y011373D01*
X023341Y011234D01*
X023202Y011234D01*
X022923Y011512D01*
X022923Y011652D01*
X023063Y011791D01*
X023202Y011791D01*
X023480Y011512D01*
X023727Y011620D02*
X024005Y011899D01*
X023866Y011759D02*
X023449Y012177D01*
X023727Y012177D01*
X023765Y012494D02*
X024461Y012354D01*
X024569Y012601D02*
X024708Y012601D01*
X024847Y012741D01*
X024847Y012880D01*
X024708Y013019D02*
X024499Y013228D01*
X024221Y012949D01*
X024430Y012880D02*
X024430Y012741D01*
X024569Y012601D01*
X024430Y012880D02*
X024499Y012949D01*
X024708Y013019D01*
X025094Y012988D02*
X025373Y013266D01*
X025234Y013127D02*
X024816Y013544D01*
X025094Y013544D01*
X025133Y013861D02*
X025828Y013722D01*
X026075Y013969D02*
X025658Y014386D01*
X026075Y014386D01*
X025797Y014108D01*
D11*
X012236Y012414D02*
X011481Y013266D01*
X010835Y014203D01*
X010306Y015211D01*
X009902Y016275D01*
X009630Y017380D01*
X009493Y018510D01*
X009475Y019079D01*
X009493Y019648D01*
X009630Y020778D01*
X009902Y021883D01*
X010306Y022947D01*
X010835Y023955D01*
X011481Y024892D01*
X012236Y025744D01*
X013088Y026499D01*
X014025Y027145D01*
X015033Y027674D01*
X016097Y028078D01*
X017202Y028350D01*
X018332Y028487D01*
X018901Y028505D01*
X019470Y028487D01*
X020600Y028350D01*
X021705Y028078D01*
X022769Y027674D01*
X023777Y027145D01*
X024714Y026499D01*
X025566Y025744D01*
X026321Y024892D01*
X026967Y023955D01*
X027496Y022947D01*
X027900Y021883D01*
X028172Y020778D01*
X028309Y019648D01*
X028327Y019079D01*
X028309Y018510D01*
X028172Y017380D01*
X027900Y016275D01*
X027900Y016275D01*
X027496Y015211D01*
X026967Y014203D01*
X026321Y013266D01*
X025566Y012414D01*
X024714Y011659D01*
X023777Y011013D01*
X022769Y010484D01*
X021705Y010080D01*
X020923Y009887D01*
X020923Y010369D01*
X020885Y010461D01*
X020814Y010531D01*
X020722Y010569D01*
X017080Y010569D01*
X016988Y010531D01*
X016917Y010461D01*
X016879Y010369D01*
X016879Y009887D01*
X016097Y010080D01*
X015033Y010484D01*
X014025Y011013D01*
X013088Y011659D01*
X012236Y012414D01*
X012265Y012388D02*
X017116Y012388D01*
X017214Y012290D02*
X012376Y012290D01*
X012487Y012191D02*
X017313Y012191D01*
X017411Y012093D02*
X012599Y012093D01*
X012710Y011994D02*
X017510Y011994D01*
X017606Y011898D02*
X017606Y011394D01*
X017588Y011375D01*
X017588Y010798D01*
X017687Y010699D01*
X018264Y010699D01*
X018364Y010798D01*
X018364Y011375D01*
X018346Y011394D01*
X018346Y012125D01*
X018289Y012261D01*
X016394Y014157D01*
X016376Y014200D01*
X016267Y014310D01*
X016223Y014328D01*
X015865Y014685D01*
X015865Y015176D01*
X015809Y015312D01*
X012814Y018307D01*
X012814Y018364D01*
X012940Y018239D01*
X016581Y014597D01*
X018346Y014597D01*
X018445Y014498D01*
X018588Y014439D01*
X018742Y014439D01*
X018828Y014474D01*
X018828Y014376D01*
X018887Y014233D01*
X018996Y014124D01*
X019139Y014065D01*
X019293Y014065D01*
X019436Y014124D01*
X019545Y014233D01*
X021059Y014233D01*
X021188Y014362D01*
X021994Y015168D01*
X024193Y015168D01*
X025591Y016566D01*
X026496Y016566D01*
X026595Y016467D01*
X026737Y016407D01*
X026892Y016407D01*
X027034Y016467D01*
X027143Y016576D01*
X027203Y016718D01*
X027203Y016873D01*
X027143Y017015D01*
X027034Y017125D01*
X026892Y017184D01*
X026737Y017184D01*
X026595Y017125D01*
X026496Y017026D01*
X025400Y017026D01*
X025265Y016891D01*
X024003Y015628D01*
X021818Y015628D01*
X021683Y015493D01*
X021683Y015479D01*
X020877Y014673D01*
X019545Y014673D01*
X019436Y014782D01*
X019293Y014841D01*
X019139Y014841D01*
X019053Y014806D01*
X019053Y014904D01*
X018994Y015047D01*
X018885Y015156D01*
X018742Y015215D01*
X018588Y015215D01*
X018445Y015156D01*
X018346Y015057D01*
X016772Y015057D01*
X016105Y015724D01*
X016166Y015699D01*
X016321Y015699D01*
X016364Y015717D01*
X021691Y015717D01*
X021827Y015773D01*
X021931Y015877D01*
X022817Y016763D01*
X022861Y016781D01*
X022970Y016891D01*
X023029Y017033D01*
X023029Y017188D01*
X022970Y017330D01*
X022861Y017440D01*
X022718Y017499D01*
X022564Y017499D01*
X022421Y017440D01*
X022312Y017330D01*
X022294Y017287D01*
X021464Y016457D01*
X020298Y016457D01*
X020322Y016467D01*
X020431Y016576D01*
X021079Y016576D01*
X021088Y016585D01*
X021103Y016585D01*
X023091Y018573D01*
X023225Y018708D01*
X023225Y019470D01*
X018777Y023918D01*
X018777Y024058D01*
X018718Y024200D01*
X018609Y024310D01*
X018491Y024359D01*
X020441Y024359D01*
X020493Y024306D01*
X020511Y024263D01*
X020620Y024154D01*
X020664Y024135D01*
X023610Y021190D01*
X023610Y019101D01*
X023592Y019058D01*
X023592Y018903D01*
X023610Y018860D01*
X023610Y016821D01*
X022900Y016821D01*
X022982Y016919D02*
X023610Y016919D01*
X023610Y016821D02*
X023583Y016810D01*
X023474Y016700D01*
X023414Y016558D01*
X023414Y016403D01*
X023474Y016261D01*
X023583Y016152D01*
X023725Y016092D01*
X023880Y016092D01*
X024022Y016152D01*
X024132Y016261D01*
X024150Y016304D01*
X024293Y016448D01*
X024350Y016584D01*
X024350Y018860D01*
X024368Y018903D01*
X024368Y019058D01*
X024350Y019101D01*
X024350Y021416D01*
X024293Y021552D01*
X024189Y021656D01*
X021187Y024659D01*
X021169Y024702D01*
X021060Y024812D01*
X021016Y024830D01*
X020804Y025042D01*
X020668Y025099D01*
X016800Y025099D01*
X016664Y025042D01*
X016560Y024938D01*
X013626Y022005D01*
X013583Y021987D01*
X013474Y021878D01*
X013455Y021834D01*
X012131Y020509D01*
X012074Y020373D01*
X012074Y018080D01*
X012131Y017944D01*
X012235Y017840D01*
X015125Y014949D01*
X010443Y014949D01*
X010495Y014851D02*
X015125Y014851D01*
X015125Y014949D02*
X015125Y014458D01*
X015182Y014322D01*
X015286Y014218D01*
X015700Y013804D01*
X015718Y013761D01*
X015827Y013652D01*
X015871Y013633D01*
X017606Y011898D01*
X017606Y011896D02*
X012821Y011896D01*
X012932Y011797D02*
X017606Y011797D01*
X017606Y011699D02*
X013043Y011699D01*
X013173Y011600D02*
X017606Y011600D01*
X017606Y011502D02*
X013316Y011502D01*
X013459Y011403D02*
X017606Y011403D01*
X017588Y011305D02*
X013602Y011305D01*
X013744Y011206D02*
X017588Y011206D01*
X017588Y011108D02*
X013887Y011108D01*
X014031Y011009D02*
X017588Y011009D01*
X017588Y010911D02*
X014219Y010911D01*
X014406Y010812D02*
X017588Y010812D01*
X017672Y010714D02*
X014594Y010714D01*
X014782Y010615D02*
X023020Y010615D01*
X022832Y010517D02*
X020829Y010517D01*
X020902Y010418D02*
X022597Y010418D01*
X022337Y010320D02*
X020923Y010320D01*
X020923Y010221D02*
X022078Y010221D01*
X021818Y010123D02*
X020923Y010123D01*
X020923Y010024D02*
X021479Y010024D01*
X021079Y009926D02*
X020923Y009926D01*
X022698Y011419D02*
X022754Y011363D01*
X022977Y011141D01*
X023109Y011009D01*
X023434Y011009D01*
X023573Y011148D01*
X023705Y011280D01*
X023705Y011395D01*
X023820Y011395D01*
X023959Y011534D01*
X024091Y011666D01*
X024091Y011666D01*
X024230Y011805D01*
X024230Y011992D01*
X024099Y012124D01*
X023952Y012124D01*
X023952Y012227D01*
X024508Y012115D01*
X024664Y012219D01*
X024695Y012376D01*
X024801Y012376D01*
X024941Y012516D01*
X025072Y012647D01*
X025072Y012763D01*
X025188Y012763D01*
X025327Y012902D01*
X025459Y013034D01*
X025598Y013173D01*
X025598Y013359D01*
X025466Y013491D01*
X025319Y013491D01*
X025319Y013594D01*
X025876Y013483D01*
X026031Y013586D01*
X026062Y013744D01*
X026169Y013744D01*
X026300Y013875D01*
X026300Y014062D01*
X026185Y014177D01*
X026300Y014293D01*
X026300Y014479D01*
X026169Y014611D01*
X025565Y014611D01*
X025433Y014479D01*
X025433Y014293D01*
X025441Y014285D01*
X025572Y014154D01*
X025572Y014015D01*
X025587Y013999D01*
X025085Y014100D01*
X024930Y013996D01*
X024894Y013814D01*
X024923Y013769D01*
X024909Y013769D01*
X024909Y013769D01*
X024723Y013769D01*
X024656Y013702D01*
X024591Y013637D01*
X024591Y013453D01*
X024406Y013453D01*
X024274Y013321D01*
X023996Y013043D01*
X023996Y012856D01*
X024128Y012724D01*
X024205Y012724D01*
X024205Y012647D01*
X024220Y012632D01*
X023718Y012732D01*
X023563Y012629D01*
X023526Y012446D01*
X023556Y012402D01*
X023542Y012402D01*
X023355Y012402D01*
X023289Y012335D01*
X023224Y012270D01*
X023224Y012084D01*
X023283Y012024D01*
X023292Y012016D01*
X022969Y012016D01*
X022880Y011927D01*
X022830Y011877D01*
X022774Y011820D01*
X022698Y011745D01*
X022698Y011745D01*
X022698Y011635D01*
X022698Y011558D01*
X022698Y011558D01*
X022698Y011419D01*
X022698Y011419D01*
X022698Y011419D01*
X022714Y011403D02*
X018346Y011403D01*
X018346Y011502D02*
X022698Y011502D01*
X022698Y011600D02*
X018346Y011600D01*
X018346Y011699D02*
X022698Y011699D01*
X022698Y011745D02*
X022698Y011745D01*
X022751Y011797D02*
X018346Y011797D01*
X018346Y011896D02*
X022849Y011896D01*
X022830Y011877D02*
X022830Y011877D01*
X022948Y011994D02*
X018346Y011994D01*
X018346Y012093D02*
X023224Y012093D01*
X023224Y012191D02*
X018318Y012191D01*
X018261Y012290D02*
X023243Y012290D01*
X023342Y012388D02*
X018162Y012388D01*
X018064Y012487D02*
X023534Y012487D01*
X023542Y012402D02*
X023542Y012402D01*
X023554Y012585D02*
X017965Y012585D01*
X017867Y012684D02*
X023645Y012684D01*
X023961Y012684D02*
X024205Y012684D01*
X024070Y012782D02*
X017768Y012782D01*
X017670Y012881D02*
X023996Y012881D01*
X023996Y012979D02*
X017571Y012979D01*
X017473Y013078D02*
X024031Y013078D01*
X024130Y013176D02*
X017374Y013176D01*
X017276Y013275D02*
X024228Y013275D01*
X024327Y013373D02*
X017177Y013373D01*
X017079Y013472D02*
X024591Y013472D01*
X024591Y013570D02*
X016980Y013570D01*
X016882Y013669D02*
X024622Y013669D01*
X024721Y013767D02*
X016783Y013767D01*
X016685Y013866D02*
X024904Y013866D01*
X024924Y013964D02*
X016586Y013964D01*
X016488Y014063D02*
X025030Y014063D01*
X025270Y014063D02*
X025572Y014063D01*
X025565Y014161D02*
X019473Y014161D01*
X019216Y014453D02*
X020968Y014453D01*
X021913Y015398D01*
X021730Y015540D02*
X016289Y015540D01*
X016387Y015442D02*
X021646Y015442D01*
X021547Y015343D02*
X016486Y015343D01*
X016584Y015245D02*
X021449Y015245D01*
X021350Y015146D02*
X018894Y015146D01*
X018993Y015048D02*
X021252Y015048D01*
X021153Y014949D02*
X019034Y014949D01*
X019053Y014851D02*
X021055Y014851D01*
X020956Y014752D02*
X019466Y014752D01*
X018828Y014457D02*
X018785Y014457D01*
X018835Y014358D02*
X016192Y014358D01*
X016094Y014457D02*
X018544Y014457D01*
X018388Y014555D02*
X015995Y014555D01*
X015897Y014654D02*
X016525Y014654D01*
X016426Y014752D02*
X015865Y014752D01*
X015865Y014851D02*
X016328Y014851D01*
X016229Y014949D02*
X015865Y014949D01*
X015865Y015048D02*
X016131Y015048D01*
X016032Y015146D02*
X015865Y015146D01*
X015837Y015245D02*
X015934Y015245D01*
X015835Y015343D02*
X015778Y015343D01*
X015737Y015442D02*
X015680Y015442D01*
X015638Y015540D02*
X015581Y015540D01*
X015540Y015639D02*
X015483Y015639D01*
X015441Y015737D02*
X015384Y015737D01*
X015343Y015836D02*
X015286Y015836D01*
X015244Y015934D02*
X015187Y015934D01*
X015146Y016033D02*
X015089Y016033D01*
X015047Y016131D02*
X014990Y016131D01*
X014949Y016230D02*
X014892Y016230D01*
X014850Y016328D02*
X014793Y016328D01*
X014752Y016427D02*
X014695Y016427D01*
X014653Y016525D02*
X014596Y016525D01*
X014555Y016624D02*
X014498Y016624D01*
X014456Y016722D02*
X014399Y016722D01*
X014358Y016821D02*
X014301Y016821D01*
X014259Y016919D02*
X014202Y016919D01*
X014161Y017018D02*
X014104Y017018D01*
X014062Y017116D02*
X014005Y017116D01*
X013964Y017215D02*
X013907Y017215D01*
X013865Y017313D02*
X013808Y017313D01*
X013767Y017412D02*
X013710Y017412D01*
X013668Y017510D02*
X013611Y017510D01*
X013570Y017609D02*
X013513Y017609D01*
X013471Y017707D02*
X013414Y017707D01*
X013373Y017806D02*
X013316Y017806D01*
X013274Y017904D02*
X013217Y017904D01*
X013176Y018003D02*
X013119Y018003D01*
X013077Y018101D02*
X013020Y018101D01*
X012979Y018200D02*
X012922Y018200D01*
X012880Y018298D02*
X012823Y018298D01*
X012269Y017806D02*
X009578Y017806D01*
X009566Y017904D02*
X012171Y017904D01*
X012106Y018003D02*
X009554Y018003D01*
X009542Y018101D02*
X012074Y018101D01*
X012074Y018200D02*
X009530Y018200D01*
X009518Y018298D02*
X012074Y018298D01*
X012074Y018397D02*
X009506Y018397D01*
X009494Y018495D02*
X012074Y018495D01*
X012074Y018594D02*
X009490Y018594D01*
X009487Y018692D02*
X012074Y018692D01*
X012074Y018791D02*
X009484Y018791D01*
X009481Y018889D02*
X012074Y018889D01*
X012074Y018988D02*
X009478Y018988D01*
X009476Y019086D02*
X012074Y019086D01*
X012074Y019185D02*
X009479Y019185D01*
X009482Y019283D02*
X012074Y019283D01*
X012074Y019382D02*
X009484Y019382D01*
X009487Y019480D02*
X012074Y019480D01*
X012074Y019579D02*
X009490Y019579D01*
X009496Y019677D02*
X012074Y019677D01*
X012074Y019776D02*
X009508Y019776D01*
X009520Y019874D02*
X012074Y019874D01*
X012074Y019973D02*
X009532Y019973D01*
X009544Y020071D02*
X012074Y020071D01*
X012074Y020170D02*
X009556Y020170D01*
X009568Y020268D02*
X012074Y020268D01*
X012074Y020367D02*
X009580Y020367D01*
X009592Y020465D02*
X012113Y020465D01*
X012185Y020564D02*
X009604Y020564D01*
X009616Y020662D02*
X012284Y020662D01*
X012382Y020761D02*
X009628Y020761D01*
X009650Y020859D02*
X012481Y020859D01*
X012579Y020958D02*
X009674Y020958D01*
X009698Y021056D02*
X012678Y021056D01*
X012776Y021155D02*
X009723Y021155D01*
X009747Y021253D02*
X012875Y021253D01*
X012973Y021352D02*
X009771Y021352D01*
X009795Y021450D02*
X013072Y021450D01*
X013170Y021549D02*
X009820Y021549D01*
X009844Y021647D02*
X013269Y021647D01*
X013367Y021746D02*
X009868Y021746D01*
X009893Y021844D02*
X013460Y021844D01*
X013539Y021943D02*
X009925Y021943D01*
X009962Y022041D02*
X013663Y022041D01*
X013761Y022140D02*
X009999Y022140D01*
X010037Y022238D02*
X013860Y022238D01*
X013958Y022337D02*
X010074Y022337D01*
X010112Y022435D02*
X014057Y022435D01*
X014155Y022534D02*
X010149Y022534D01*
X010186Y022632D02*
X014254Y022632D01*
X014352Y022731D02*
X010224Y022731D01*
X010261Y022829D02*
X014451Y022829D01*
X014549Y022928D02*
X010298Y022928D01*
X010347Y023026D02*
X014648Y023026D01*
X014746Y023125D02*
X010399Y023125D01*
X010451Y023223D02*
X014845Y023223D01*
X014943Y023322D02*
X010502Y023322D01*
X010554Y023420D02*
X015042Y023420D01*
X015140Y023519D02*
X010606Y023519D01*
X010657Y023617D02*
X015239Y023617D01*
X015337Y023716D02*
X010709Y023716D01*
X010761Y023814D02*
X015436Y023814D01*
X015534Y023913D02*
X010812Y023913D01*
X010873Y024011D02*
X015633Y024011D01*
X015731Y024110D02*
X010941Y024110D01*
X011009Y024208D02*
X015830Y024208D01*
X015928Y024307D02*
X011077Y024307D01*
X011145Y024405D02*
X016027Y024405D01*
X016125Y024504D02*
X011213Y024504D01*
X011281Y024602D02*
X016224Y024602D01*
X016322Y024701D02*
X011349Y024701D01*
X011417Y024799D02*
X016421Y024799D01*
X016519Y024898D02*
X011486Y024898D01*
X011574Y024996D02*
X016618Y024996D01*
X016791Y025095D02*
X011661Y025095D01*
X011748Y025193D02*
X026054Y025193D01*
X026141Y025095D02*
X020677Y025095D01*
X020849Y024996D02*
X026228Y024996D01*
X026316Y024898D02*
X020948Y024898D01*
X021072Y024799D02*
X026385Y024799D01*
X026453Y024701D02*
X021170Y024701D01*
X021243Y024602D02*
X026521Y024602D01*
X026589Y024504D02*
X021342Y024504D01*
X021440Y024405D02*
X026657Y024405D01*
X026725Y024307D02*
X021539Y024307D01*
X021637Y024208D02*
X026793Y024208D01*
X026861Y024110D02*
X021736Y024110D01*
X021834Y024011D02*
X026929Y024011D01*
X026990Y023913D02*
X021933Y023913D01*
X022031Y023814D02*
X027041Y023814D01*
X027093Y023716D02*
X022130Y023716D01*
X022228Y023617D02*
X027145Y023617D01*
X027196Y023519D02*
X022327Y023519D01*
X022425Y023420D02*
X027248Y023420D01*
X027300Y023322D02*
X022524Y023322D01*
X022622Y023223D02*
X027351Y023223D01*
X027403Y023125D02*
X022721Y023125D01*
X022819Y023026D02*
X027455Y023026D01*
X027504Y022928D02*
X022918Y022928D01*
X023016Y022829D02*
X027541Y022829D01*
X027578Y022731D02*
X023115Y022731D01*
X023213Y022632D02*
X027616Y022632D01*
X027653Y022534D02*
X023312Y022534D01*
X023410Y022435D02*
X027690Y022435D01*
X027728Y022337D02*
X023509Y022337D01*
X023607Y022238D02*
X027765Y022238D01*
X027803Y022140D02*
X023706Y022140D01*
X023804Y022041D02*
X027840Y022041D01*
X027877Y021943D02*
X023903Y021943D01*
X024001Y021844D02*
X027909Y021844D01*
X027934Y021746D02*
X024100Y021746D01*
X024198Y021647D02*
X027958Y021647D01*
X027982Y021549D02*
X024295Y021549D01*
X024336Y021450D02*
X028007Y021450D01*
X028031Y021352D02*
X024350Y021352D01*
X024350Y021253D02*
X028055Y021253D01*
X028079Y021155D02*
X024350Y021155D01*
X024350Y021056D02*
X028104Y021056D01*
X028128Y020958D02*
X024350Y020958D01*
X024350Y020859D02*
X028152Y020859D01*
X028174Y020761D02*
X024350Y020761D01*
X024350Y020662D02*
X028186Y020662D01*
X028198Y020564D02*
X024350Y020564D01*
X024350Y020465D02*
X028210Y020465D01*
X028222Y020367D02*
X024350Y020367D01*
X024350Y020268D02*
X028234Y020268D01*
X028246Y020170D02*
X024350Y020170D01*
X024350Y020071D02*
X028258Y020071D01*
X028270Y019973D02*
X024350Y019973D01*
X024350Y019874D02*
X028282Y019874D01*
X028294Y019776D02*
X024350Y019776D01*
X024350Y019677D02*
X028306Y019677D01*
X028312Y019579D02*
X024350Y019579D01*
X024350Y019480D02*
X028315Y019480D01*
X028318Y019382D02*
X024350Y019382D01*
X024350Y019283D02*
X028321Y019283D01*
X028323Y019185D02*
X024350Y019185D01*
X024356Y019086D02*
X028326Y019086D01*
X028324Y018988D02*
X024368Y018988D01*
X024362Y018889D02*
X028321Y018889D01*
X028318Y018791D02*
X024350Y018791D01*
X024350Y018692D02*
X028315Y018692D01*
X028312Y018594D02*
X024350Y018594D01*
X024350Y018495D02*
X028308Y018495D01*
X028296Y018397D02*
X024350Y018397D01*
X024350Y018298D02*
X028284Y018298D01*
X028272Y018200D02*
X024350Y018200D01*
X024350Y018101D02*
X028260Y018101D01*
X028248Y018003D02*
X024350Y018003D01*
X024350Y017904D02*
X028236Y017904D01*
X028224Y017806D02*
X024350Y017806D01*
X024350Y017707D02*
X028212Y017707D01*
X028200Y017609D02*
X024350Y017609D01*
X024350Y017510D02*
X028188Y017510D01*
X028176Y017412D02*
X024350Y017412D01*
X024350Y017313D02*
X028156Y017313D01*
X028132Y017215D02*
X024350Y017215D01*
X024350Y017116D02*
X026586Y017116D01*
X027042Y017116D02*
X028107Y017116D01*
X028083Y017018D02*
X027141Y017018D01*
X027183Y016919D02*
X028059Y016919D01*
X028034Y016821D02*
X027203Y016821D01*
X027203Y016722D02*
X028010Y016722D01*
X027986Y016624D02*
X027163Y016624D01*
X027093Y016525D02*
X027962Y016525D01*
X027937Y016427D02*
X026938Y016427D01*
X026690Y016427D02*
X025452Y016427D01*
X025551Y016525D02*
X026536Y016525D01*
X025354Y016328D02*
X027913Y016328D01*
X027883Y016230D02*
X025255Y016230D01*
X025157Y016131D02*
X027845Y016131D01*
X027808Y016033D02*
X025058Y016033D01*
X024960Y015934D02*
X027771Y015934D01*
X027733Y015836D02*
X024861Y015836D01*
X024763Y015737D02*
X027696Y015737D01*
X027659Y015639D02*
X024664Y015639D01*
X024566Y015540D02*
X027621Y015540D01*
X027584Y015442D02*
X024467Y015442D01*
X024369Y015343D02*
X027547Y015343D01*
X027509Y015245D02*
X024270Y015245D01*
X024014Y015639D02*
X016190Y015639D01*
X016683Y015146D02*
X018435Y015146D01*
X018876Y014260D02*
X016316Y014260D01*
X016392Y014161D02*
X018959Y014161D01*
X017017Y012487D02*
X012172Y012487D01*
X012084Y012585D02*
X016919Y012585D01*
X016820Y012684D02*
X011997Y012684D01*
X011910Y012782D02*
X016722Y012782D01*
X016623Y012881D02*
X011823Y012881D01*
X011735Y012979D02*
X016525Y012979D01*
X016426Y013078D02*
X011648Y013078D01*
X011561Y013176D02*
X016328Y013176D01*
X016229Y013275D02*
X011475Y013275D01*
X011407Y013373D02*
X016131Y013373D01*
X016032Y013472D02*
X011339Y013472D01*
X011271Y013570D02*
X015934Y013570D01*
X015810Y013669D02*
X011203Y013669D01*
X011135Y013767D02*
X015715Y013767D01*
X015638Y013866D02*
X011067Y013866D01*
X010999Y013964D02*
X015540Y013964D01*
X015441Y014063D02*
X010931Y014063D01*
X010863Y014161D02*
X015343Y014161D01*
X015244Y014260D02*
X010805Y014260D01*
X010753Y014358D02*
X015167Y014358D01*
X015126Y014457D02*
X010701Y014457D01*
X010650Y014555D02*
X015125Y014555D01*
X015125Y014654D02*
X010598Y014654D01*
X010546Y014752D02*
X015125Y014752D01*
X015027Y015048D02*
X010391Y015048D01*
X010339Y015146D02*
X014929Y015146D01*
X014830Y015245D02*
X010293Y015245D01*
X010255Y015343D02*
X014732Y015343D01*
X014633Y015442D02*
X010218Y015442D01*
X010181Y015540D02*
X014535Y015540D01*
X014436Y015639D02*
X010143Y015639D01*
X010106Y015737D02*
X014338Y015737D01*
X014239Y015836D02*
X010069Y015836D01*
X010031Y015934D02*
X014141Y015934D01*
X014042Y016033D02*
X009994Y016033D01*
X009957Y016131D02*
X013944Y016131D01*
X013845Y016230D02*
X009919Y016230D01*
X009889Y016328D02*
X013747Y016328D01*
X013648Y016427D02*
X009865Y016427D01*
X009840Y016525D02*
X013550Y016525D01*
X013451Y016624D02*
X009816Y016624D01*
X009792Y016722D02*
X013353Y016722D01*
X013254Y016821D02*
X009768Y016821D01*
X009743Y016919D02*
X013156Y016919D01*
X013057Y017018D02*
X009719Y017018D01*
X009695Y017116D02*
X012959Y017116D01*
X012860Y017215D02*
X009670Y017215D01*
X009646Y017313D02*
X012762Y017313D01*
X012663Y017412D02*
X009626Y017412D01*
X009614Y017510D02*
X012565Y017510D01*
X012466Y017609D02*
X009602Y017609D01*
X009590Y017707D02*
X012368Y017707D01*
X018901Y028725D02*
X019360Y028714D01*
X019818Y028681D01*
X020274Y028627D01*
X020727Y028551D01*
X021175Y028453D01*
X021619Y028334D01*
X022056Y028194D01*
X022486Y028034D01*
X022908Y027853D01*
X023321Y027653D01*
X023724Y027433D01*
X024116Y027194D01*
X024496Y026936D01*
X024864Y026661D01*
X025218Y026369D01*
X025558Y026060D01*
X025882Y025736D01*
X026191Y025396D01*
X026483Y025042D01*
X026758Y024674D01*
X027016Y024294D01*
X027255Y023902D01*
X027475Y023499D01*
X027675Y023086D01*
X027856Y022664D01*
X028016Y022234D01*
X028156Y021797D01*
X028275Y021353D01*
X028373Y020905D01*
X028449Y020452D01*
X028503Y019996D01*
X028536Y019538D01*
X028547Y019079D01*
X025393Y017018D02*
X024350Y017018D01*
X024350Y016919D02*
X025294Y016919D01*
X025196Y016821D02*
X024350Y016821D01*
X024350Y016722D02*
X025097Y016722D01*
X024999Y016624D02*
X024350Y016624D01*
X024325Y016525D02*
X024900Y016525D01*
X024802Y016427D02*
X024272Y016427D01*
X024174Y016328D02*
X024703Y016328D01*
X024605Y016230D02*
X024101Y016230D01*
X023974Y016131D02*
X024506Y016131D01*
X024408Y016033D02*
X022087Y016033D01*
X022185Y016131D02*
X023632Y016131D01*
X023504Y016230D02*
X022284Y016230D01*
X022382Y016328D02*
X023446Y016328D01*
X023414Y016427D02*
X022481Y016427D01*
X022579Y016525D02*
X023414Y016525D01*
X023442Y016624D02*
X022678Y016624D01*
X022776Y016722D02*
X023495Y016722D01*
X023610Y017018D02*
X023023Y017018D01*
X023029Y017116D02*
X023610Y017116D01*
X023610Y017215D02*
X023018Y017215D01*
X022977Y017313D02*
X023610Y017313D01*
X023610Y017412D02*
X022889Y017412D01*
X022394Y017412D02*
X021929Y017412D01*
X021831Y017313D02*
X022305Y017313D01*
X022222Y017215D02*
X021732Y017215D01*
X021634Y017116D02*
X022124Y017116D01*
X022025Y017018D02*
X021535Y017018D01*
X021437Y016919D02*
X021927Y016919D01*
X021828Y016821D02*
X021338Y016821D01*
X021240Y016722D02*
X021730Y016722D01*
X021631Y016624D02*
X021141Y016624D01*
X020988Y016796D02*
X020102Y016796D01*
X020380Y016525D02*
X021533Y016525D01*
X021007Y016815D02*
X020988Y016796D01*
X022028Y017510D02*
X023610Y017510D01*
X023610Y017609D02*
X022126Y017609D01*
X022225Y017707D02*
X023610Y017707D01*
X023610Y017806D02*
X022323Y017806D01*
X022422Y017904D02*
X023610Y017904D01*
X023610Y018003D02*
X022520Y018003D01*
X022619Y018101D02*
X023610Y018101D01*
X023610Y018200D02*
X022717Y018200D01*
X022816Y018298D02*
X023610Y018298D01*
X023610Y018397D02*
X022914Y018397D01*
X023013Y018495D02*
X023610Y018495D01*
X023610Y018594D02*
X023111Y018594D01*
X023210Y018692D02*
X023610Y018692D01*
X023610Y018791D02*
X023225Y018791D01*
X023225Y018889D02*
X023597Y018889D01*
X023592Y018988D02*
X023225Y018988D01*
X023225Y019086D02*
X023603Y019086D01*
X023610Y019185D02*
X023225Y019185D01*
X023225Y019283D02*
X023610Y019283D01*
X023610Y019382D02*
X023225Y019382D01*
X023215Y019480D02*
X023610Y019480D01*
X023610Y019579D02*
X023116Y019579D01*
X023018Y019677D02*
X023610Y019677D01*
X023610Y019776D02*
X022919Y019776D01*
X022821Y019874D02*
X023610Y019874D01*
X023610Y019973D02*
X022722Y019973D01*
X022624Y020071D02*
X023610Y020071D01*
X023610Y020170D02*
X022525Y020170D01*
X022427Y020268D02*
X023610Y020268D01*
X023610Y020367D02*
X022328Y020367D01*
X022230Y020465D02*
X023610Y020465D01*
X023610Y020564D02*
X022131Y020564D01*
X022033Y020662D02*
X023610Y020662D01*
X023610Y020761D02*
X021934Y020761D01*
X021836Y020859D02*
X023610Y020859D01*
X023610Y020958D02*
X021737Y020958D01*
X021639Y021056D02*
X023610Y021056D01*
X023610Y021155D02*
X021540Y021155D01*
X021442Y021253D02*
X023546Y021253D01*
X023447Y021352D02*
X021343Y021352D01*
X021245Y021450D02*
X023349Y021450D01*
X023250Y021549D02*
X021146Y021549D01*
X021048Y021647D02*
X023152Y021647D01*
X023053Y021746D02*
X020949Y021746D01*
X020851Y021844D02*
X022955Y021844D01*
X022856Y021943D02*
X020752Y021943D01*
X020654Y022041D02*
X022758Y022041D01*
X022659Y022140D02*
X020555Y022140D01*
X020457Y022238D02*
X022561Y022238D01*
X022462Y022337D02*
X020358Y022337D01*
X020260Y022435D02*
X022364Y022435D01*
X022265Y022534D02*
X020161Y022534D01*
X020063Y022632D02*
X022167Y022632D01*
X022068Y022731D02*
X019964Y022731D01*
X019866Y022829D02*
X021970Y022829D01*
X021871Y022928D02*
X019767Y022928D01*
X019669Y023026D02*
X021773Y023026D01*
X021674Y023125D02*
X019570Y023125D01*
X019472Y023223D02*
X021576Y023223D01*
X021477Y023322D02*
X019373Y023322D01*
X019275Y023420D02*
X021379Y023420D01*
X021280Y023519D02*
X019176Y023519D01*
X019078Y023617D02*
X021182Y023617D01*
X021083Y023716D02*
X018979Y023716D01*
X018881Y023814D02*
X020985Y023814D01*
X020886Y023913D02*
X018782Y023913D01*
X018777Y024011D02*
X020788Y024011D01*
X020689Y024110D02*
X018756Y024110D01*
X018710Y024208D02*
X020565Y024208D01*
X020492Y024307D02*
X018612Y024307D01*
X015244Y027754D02*
X022558Y027754D01*
X022804Y027656D02*
X014998Y027656D01*
X014810Y027557D02*
X022992Y027557D01*
X023180Y027459D02*
X014622Y027459D01*
X014435Y027360D02*
X023367Y027360D01*
X023555Y027262D02*
X014247Y027262D01*
X014059Y027163D02*
X023743Y027163D01*
X023894Y027065D02*
X013908Y027065D01*
X013766Y026966D02*
X024036Y026966D01*
X024179Y026868D02*
X013623Y026868D01*
X013480Y026769D02*
X024322Y026769D01*
X024465Y026671D02*
X013337Y026671D01*
X013195Y026572D02*
X024607Y026572D01*
X024742Y026474D02*
X013060Y026474D01*
X012949Y026375D02*
X024853Y026375D01*
X024964Y026277D02*
X012838Y026277D01*
X012726Y026178D02*
X025076Y026178D01*
X025187Y026080D02*
X012615Y026080D01*
X012504Y025981D02*
X025298Y025981D01*
X025409Y025883D02*
X012393Y025883D01*
X012282Y025784D02*
X025520Y025784D01*
X025617Y025686D02*
X012185Y025686D01*
X012097Y025587D02*
X025705Y025587D01*
X025792Y025489D02*
X012010Y025489D01*
X011923Y025390D02*
X025879Y025390D01*
X025966Y025292D02*
X011836Y025292D01*
X015504Y027853D02*
X022298Y027853D01*
X022039Y027951D02*
X015763Y027951D01*
X016023Y028050D02*
X021779Y028050D01*
X021419Y028148D02*
X016383Y028148D01*
X016782Y028247D02*
X021020Y028247D01*
X020620Y028345D02*
X017182Y028345D01*
X017973Y028444D02*
X019829Y028444D01*
X018901Y028505D02*
X018901Y028505D01*
X028547Y019079D02*
X028536Y018620D01*
X028503Y018162D01*
X028449Y017706D01*
X028373Y017253D01*
X028275Y016805D01*
X028156Y016361D01*
X028016Y015924D01*
X027856Y015494D01*
X027675Y015072D01*
X027475Y014659D01*
X027255Y014256D01*
X027016Y013864D01*
X026758Y013484D01*
X026483Y013116D01*
X026191Y012762D01*
X025882Y012422D01*
X025558Y012098D01*
X025218Y011789D01*
X024864Y011497D01*
X024496Y011222D01*
X024116Y010964D01*
X023724Y010725D01*
X023321Y010505D01*
X022908Y010305D01*
X022486Y010124D01*
X022056Y009964D01*
X021619Y009824D01*
X021175Y009705D01*
X020727Y009607D01*
X020274Y009531D01*
X019818Y009477D01*
X019360Y009444D01*
X018901Y009433D01*
X018279Y010714D02*
X023208Y010714D01*
X023396Y010812D02*
X018364Y010812D01*
X018364Y010911D02*
X023583Y010911D01*
X023434Y011009D02*
X023771Y011009D01*
X023915Y011108D02*
X023533Y011108D01*
X023631Y011206D02*
X024058Y011206D01*
X024201Y011305D02*
X023705Y011305D01*
X023828Y011403D02*
X024343Y011403D01*
X024486Y011502D02*
X023927Y011502D01*
X023959Y011534D02*
X023959Y011534D01*
X024025Y011600D02*
X024629Y011600D01*
X024759Y011699D02*
X024124Y011699D01*
X024222Y011797D02*
X024870Y011797D01*
X024981Y011896D02*
X024230Y011896D01*
X024228Y011994D02*
X025092Y011994D01*
X025203Y012093D02*
X024129Y012093D01*
X024129Y012191D02*
X023952Y012191D01*
X024622Y012191D02*
X025315Y012191D01*
X025426Y012290D02*
X024678Y012290D01*
X024813Y012388D02*
X025537Y012388D01*
X025630Y012487D02*
X024912Y012487D01*
X025010Y012585D02*
X025718Y012585D01*
X025805Y012684D02*
X025072Y012684D01*
X025207Y012782D02*
X025892Y012782D01*
X025980Y012881D02*
X025306Y012881D01*
X025327Y012902D02*
X025327Y012902D01*
X025404Y012979D02*
X026067Y012979D01*
X026154Y013078D02*
X025503Y013078D01*
X025459Y013034D02*
X025459Y013034D01*
X025598Y013176D02*
X026241Y013176D01*
X026327Y013275D02*
X025598Y013275D01*
X025583Y013373D02*
X026395Y013373D01*
X026463Y013472D02*
X025485Y013472D01*
X025438Y013570D02*
X025319Y013570D01*
X026007Y013570D02*
X026531Y013570D01*
X026599Y013669D02*
X026047Y013669D01*
X026192Y013767D02*
X026667Y013767D01*
X026735Y013866D02*
X026291Y013866D01*
X026300Y013964D02*
X026803Y013964D01*
X026871Y014063D02*
X026299Y014063D01*
X026201Y014161D02*
X026939Y014161D01*
X026997Y014260D02*
X026267Y014260D01*
X026300Y014358D02*
X027049Y014358D01*
X027101Y014457D02*
X026300Y014457D01*
X026225Y014555D02*
X027152Y014555D01*
X027204Y014654D02*
X021480Y014654D01*
X021578Y014752D02*
X027256Y014752D01*
X027307Y014851D02*
X021677Y014851D01*
X021775Y014949D02*
X027359Y014949D01*
X027411Y015048D02*
X021874Y015048D01*
X021972Y015146D02*
X027463Y015146D01*
X025509Y014555D02*
X021381Y014555D01*
X021283Y014457D02*
X025433Y014457D01*
X025433Y014358D02*
X021184Y014358D01*
X021188Y014362D02*
X021188Y014362D01*
X021086Y014260D02*
X025466Y014260D01*
X024112Y015737D02*
X021741Y015737D01*
X021890Y015836D02*
X024211Y015836D01*
X024309Y015934D02*
X021988Y015934D01*
X018901Y009433D02*
X018442Y009444D01*
X017984Y009477D01*
X017528Y009531D01*
X017075Y009607D01*
X016627Y009705D01*
X016183Y009824D01*
X015746Y009964D01*
X015316Y010124D01*
X014894Y010305D01*
X014481Y010505D01*
X014078Y010725D01*
X013686Y010964D01*
X013306Y011222D01*
X012938Y011497D01*
X012584Y011789D01*
X012244Y012098D01*
X011920Y012422D01*
X011611Y012762D01*
X011319Y013116D01*
X011044Y013484D01*
X010786Y013864D01*
X010547Y014256D01*
X010327Y014659D01*
X010127Y015072D01*
X009946Y015494D01*
X009786Y015924D01*
X009646Y016361D01*
X009527Y016805D01*
X009429Y017253D01*
X009353Y017706D01*
X009299Y018162D01*
X009266Y018620D01*
X009255Y019079D01*
X014970Y010517D02*
X016973Y010517D01*
X016900Y010418D02*
X015205Y010418D01*
X015465Y010320D02*
X016879Y010320D01*
X016879Y010221D02*
X015724Y010221D01*
X015984Y010123D02*
X016879Y010123D01*
X016879Y010024D02*
X016323Y010024D01*
X016723Y009926D02*
X016879Y009926D01*
X018364Y011009D02*
X023108Y011009D01*
X023010Y011108D02*
X018364Y011108D01*
X018364Y011206D02*
X022911Y011206D01*
X022977Y011141D02*
X022977Y011141D01*
X022813Y011305D02*
X018364Y011305D01*
X009255Y019079D02*
X009266Y019538D01*
X009299Y019996D01*
X009353Y020452D01*
X009429Y020905D01*
X009527Y021353D01*
X009646Y021797D01*
X009786Y022234D01*
X009946Y022664D01*
X010127Y023086D01*
X010327Y023499D01*
X010547Y023902D01*
X010786Y024294D01*
X011044Y024674D01*
X011319Y025042D01*
X011611Y025396D01*
X011920Y025736D01*
X012244Y026060D01*
X012584Y026369D01*
X012938Y026661D01*
X013306Y026936D01*
X013686Y027194D01*
X014078Y027433D01*
X014481Y027653D01*
X014894Y027853D01*
X015316Y028034D01*
X015746Y028194D01*
X016183Y028334D01*
X016627Y028453D01*
X017075Y028551D01*
X017528Y028627D01*
X017984Y028681D01*
X018442Y028714D01*
X018901Y028725D01*
D12*
X017129Y010319D02*
X020673Y010319D01*
X020673Y009610D01*
X017129Y009591D02*
X017129Y010319D01*
D13*
X017976Y011087D03*
X010712Y019335D03*
X026342Y021736D03*
D14*
X023980Y021343D02*
X023980Y018981D01*
X023980Y016658D01*
X023803Y016481D01*
X022641Y017110D02*
X021618Y016087D01*
X016244Y016087D01*
X015495Y015103D02*
X012444Y018154D01*
X012444Y020299D01*
X013803Y021658D01*
X016873Y024729D01*
X020594Y024729D01*
X020840Y024483D01*
X023980Y021343D01*
X021519Y019571D02*
X019728Y021362D01*
X016913Y021362D01*
X018173Y017209D02*
X015161Y017209D01*
X015495Y015103D02*
X015495Y014532D01*
X016047Y013981D01*
X017976Y012051D01*
X017976Y011087D01*
D15*
X016047Y013981D03*
X016244Y016087D03*
X015161Y017209D03*
X013389Y019236D03*
X013803Y021658D03*
X016913Y021362D03*
X018960Y020575D03*
X021519Y019571D03*
X022641Y017110D03*
X023803Y016481D03*
X023980Y018981D03*
X026814Y016796D03*
X020102Y016796D03*
X018960Y017780D03*
X018173Y017209D03*
X018665Y014827D03*
X019216Y014453D03*
X018389Y023981D03*
X020840Y024483D03*
D16*
X019263Y022824D02*
X015450Y022824D01*
X015568Y022942D02*
X019145Y022942D01*
X019026Y023061D02*
X015687Y023061D01*
X015805Y023179D02*
X018908Y023179D01*
X018789Y023298D02*
X015924Y023298D01*
X016042Y023416D02*
X018671Y023416D01*
X018552Y023535D02*
X016161Y023535D01*
X016279Y023653D02*
X018243Y023653D01*
X018186Y023677D02*
X018318Y023622D01*
X018460Y023622D01*
X018463Y023624D01*
X022795Y019291D01*
X022795Y018886D01*
X020895Y016986D01*
X020411Y016986D01*
X020405Y016998D01*
X020305Y017099D01*
X020173Y017154D01*
X020031Y017154D01*
X019899Y017099D01*
X019798Y016998D01*
X019744Y016867D01*
X019744Y016724D01*
X019798Y016593D01*
X019899Y016492D01*
X020031Y016437D01*
X020173Y016437D01*
X020305Y016492D01*
X020405Y016593D01*
X020411Y016606D01*
X021066Y016606D01*
X021076Y016615D01*
X021090Y016615D01*
X022976Y018501D01*
X022976Y017238D01*
X022945Y017313D01*
X022844Y017414D01*
X022712Y017469D01*
X022570Y017469D01*
X022438Y017414D01*
X022338Y017313D01*
X022319Y017270D01*
X021477Y016427D01*
X016358Y016427D01*
X016315Y016445D01*
X016172Y016445D01*
X016041Y016390D01*
X015940Y016290D01*
X015885Y016158D01*
X015885Y016016D01*
X015940Y015884D01*
X016041Y015783D01*
X016172Y015729D01*
X016315Y015729D01*
X016358Y015747D01*
X021685Y015747D01*
X021810Y015799D01*
X021906Y015894D01*
X022800Y016789D01*
X022844Y016807D01*
X022945Y016908D01*
X022976Y016983D01*
X022976Y015598D01*
X021830Y015598D01*
X021713Y015481D01*
X021713Y015467D01*
X021152Y014906D01*
X019020Y014906D01*
X018968Y015030D01*
X018868Y015131D01*
X018736Y015185D01*
X018594Y015185D01*
X018462Y015131D01*
X018361Y015030D01*
X018360Y015027D01*
X016759Y015027D01*
X014078Y017708D01*
X014078Y021427D01*
X014106Y021455D01*
X014124Y021499D01*
X016587Y023961D01*
X018031Y023961D01*
X018031Y023909D01*
X018086Y023778D01*
X018186Y023677D01*
X018091Y023772D02*
X016398Y023772D01*
X016516Y023890D02*
X018039Y023890D01*
X018389Y023981D02*
X022995Y019374D01*
X022995Y018803D01*
X021007Y016815D01*
X021137Y016662D02*
X021712Y016662D01*
X021830Y016780D02*
X021255Y016780D01*
X021374Y016899D02*
X021949Y016899D01*
X022067Y017017D02*
X021492Y017017D01*
X021611Y017136D02*
X022186Y017136D01*
X022304Y017254D02*
X021729Y017254D01*
X021848Y017373D02*
X022397Y017373D01*
X022085Y017610D02*
X022976Y017610D01*
X022976Y017728D02*
X022203Y017728D01*
X022322Y017847D02*
X022976Y017847D01*
X022976Y017965D02*
X022440Y017965D01*
X022559Y018084D02*
X022976Y018084D01*
X022976Y018202D02*
X022677Y018202D01*
X022796Y018321D02*
X022976Y018321D01*
X022976Y018439D02*
X022914Y018439D01*
X022586Y018676D02*
X014078Y018676D01*
X014078Y018558D02*
X022467Y018558D01*
X022349Y018439D02*
X014078Y018439D01*
X014078Y018321D02*
X022230Y018321D01*
X022112Y018202D02*
X014078Y018202D01*
X014078Y018084D02*
X021993Y018084D01*
X021875Y017965D02*
X014078Y017965D01*
X014078Y017847D02*
X021756Y017847D01*
X021638Y017728D02*
X014078Y017728D01*
X014177Y017610D02*
X021519Y017610D01*
X021401Y017491D02*
X018397Y017491D01*
X018376Y017513D02*
X018244Y017567D01*
X018101Y017567D01*
X018058Y017549D01*
X015276Y017549D01*
X015232Y017567D01*
X015090Y017567D01*
X014958Y017513D01*
X014857Y017412D01*
X014803Y017280D01*
X014803Y017138D01*
X014857Y017006D01*
X014958Y016905D01*
X015090Y016851D01*
X015232Y016851D01*
X015276Y016869D01*
X018058Y016869D01*
X018101Y016851D01*
X018244Y016851D01*
X018376Y016905D01*
X018476Y017006D01*
X018531Y017138D01*
X018531Y017280D01*
X018476Y017412D01*
X018376Y017513D01*
X018492Y017373D02*
X021282Y017373D01*
X021164Y017254D02*
X018531Y017254D01*
X018530Y017136D02*
X019988Y017136D01*
X019817Y017017D02*
X018481Y017017D01*
X018360Y016899D02*
X019757Y016899D01*
X019744Y016780D02*
X015006Y016780D01*
X014974Y016899D02*
X014888Y016899D01*
X014853Y017017D02*
X014769Y017017D01*
X014804Y017136D02*
X014651Y017136D01*
X014532Y017254D02*
X014803Y017254D01*
X014841Y017373D02*
X014414Y017373D01*
X014295Y017491D02*
X014937Y017491D01*
X015125Y016662D02*
X019770Y016662D01*
X019848Y016543D02*
X015243Y016543D01*
X015362Y016425D02*
X016124Y016425D01*
X015957Y016306D02*
X015480Y016306D01*
X015599Y016188D02*
X015898Y016188D01*
X015885Y016069D02*
X015717Y016069D01*
X015836Y015951D02*
X015912Y015951D01*
X015954Y015832D02*
X015992Y015832D01*
X016073Y015714D02*
X022976Y015714D01*
X022976Y015832D02*
X021844Y015832D01*
X021962Y015951D02*
X022976Y015951D01*
X022976Y016069D02*
X022081Y016069D01*
X022199Y016188D02*
X022976Y016188D01*
X022976Y016306D02*
X022318Y016306D01*
X022436Y016425D02*
X022976Y016425D01*
X022976Y016543D02*
X022555Y016543D01*
X022673Y016662D02*
X022976Y016662D01*
X022976Y016780D02*
X022792Y016780D01*
X022936Y016899D02*
X022976Y016899D01*
X022969Y017254D02*
X022976Y017254D01*
X022976Y017373D02*
X022885Y017373D01*
X022976Y017491D02*
X021966Y017491D01*
X021045Y017136D02*
X020216Y017136D01*
X020386Y017017D02*
X020927Y017017D01*
X020356Y016543D02*
X021593Y016543D01*
X021827Y015595D02*
X016191Y015595D01*
X016310Y015477D02*
X021713Y015477D01*
X021605Y015358D02*
X016428Y015358D01*
X016547Y015240D02*
X021486Y015240D01*
X021368Y015121D02*
X018877Y015121D01*
X018980Y015003D02*
X021249Y015003D01*
X021913Y015398D02*
X024098Y015398D01*
X025495Y016796D01*
X026814Y016796D01*
X022795Y018913D02*
X014078Y018913D01*
X014078Y018795D02*
X022704Y018795D01*
X022795Y019032D02*
X014078Y019032D01*
X014078Y019150D02*
X022795Y019150D01*
X022795Y019269D02*
X021723Y019269D01*
X021722Y019268D02*
X021823Y019368D01*
X021877Y019500D01*
X021877Y019642D01*
X021823Y019774D01*
X021722Y019875D01*
X021678Y019893D01*
X019920Y021651D01*
X019795Y021702D01*
X017028Y021702D01*
X016984Y021721D01*
X016842Y021721D01*
X016710Y021666D01*
X016609Y021565D01*
X016555Y021434D01*
X016555Y021291D01*
X016609Y021160D01*
X016710Y021059D01*
X016842Y021004D01*
X016984Y021004D01*
X017028Y021022D01*
X019587Y021022D01*
X021197Y019412D01*
X021216Y019368D01*
X021316Y019268D01*
X021448Y019213D01*
X021590Y019213D01*
X021722Y019268D01*
X021831Y019387D02*
X022700Y019387D01*
X022581Y019506D02*
X021877Y019506D01*
X021877Y019624D02*
X022463Y019624D01*
X022344Y019743D02*
X021836Y019743D01*
X021735Y019861D02*
X022226Y019861D01*
X022107Y019980D02*
X021591Y019980D01*
X021473Y020098D02*
X021989Y020098D01*
X021870Y020217D02*
X021354Y020217D01*
X021236Y020335D02*
X021752Y020335D01*
X021633Y020454D02*
X021117Y020454D01*
X020999Y020572D02*
X021515Y020572D01*
X021396Y020691D02*
X020880Y020691D01*
X020762Y020809D02*
X021278Y020809D01*
X021159Y020928D02*
X020643Y020928D01*
X020525Y021046D02*
X021041Y021046D01*
X020922Y021165D02*
X020406Y021165D01*
X020288Y021283D02*
X020804Y021283D01*
X020685Y021402D02*
X020169Y021402D01*
X020051Y021520D02*
X020567Y021520D01*
X020448Y021639D02*
X019932Y021639D01*
X020211Y021876D02*
X014502Y021876D01*
X014620Y021994D02*
X020093Y021994D01*
X019974Y022113D02*
X014739Y022113D01*
X014857Y022231D02*
X019856Y022231D01*
X019737Y022350D02*
X014976Y022350D01*
X015094Y022468D02*
X019619Y022468D01*
X019500Y022587D02*
X015213Y022587D01*
X015331Y022705D02*
X019382Y022705D01*
X020330Y021757D02*
X014383Y021757D01*
X014265Y021639D02*
X016683Y021639D01*
X016591Y021520D02*
X014146Y021520D01*
X014078Y021402D02*
X016555Y021402D01*
X016558Y021283D02*
X014078Y021283D01*
X014078Y021165D02*
X016607Y021165D01*
X016740Y021046D02*
X014078Y021046D01*
X014078Y020928D02*
X019682Y020928D01*
X019800Y020809D02*
X014078Y020809D01*
X014078Y020691D02*
X019919Y020691D01*
X020037Y020572D02*
X014078Y020572D01*
X014078Y020454D02*
X020156Y020454D01*
X020274Y020335D02*
X014078Y020335D01*
X014078Y020217D02*
X020393Y020217D01*
X020511Y020098D02*
X014078Y020098D01*
X014078Y019980D02*
X020630Y019980D01*
X020748Y019861D02*
X014078Y019861D01*
X014078Y019743D02*
X020867Y019743D01*
X020985Y019624D02*
X014078Y019624D01*
X014078Y019506D02*
X021104Y019506D01*
X021208Y019387D02*
X014078Y019387D01*
X014078Y019269D02*
X021315Y019269D01*
X018453Y015121D02*
X016665Y015121D01*
X016677Y014827D02*
X013035Y018469D01*
X013035Y018882D01*
X013389Y019236D01*
X016677Y014827D02*
X018665Y014827D01*
M02*
