G75*
G70*
%OFA0B0*%
%FSLAX24Y24*%
%IPPOS*%
%LPD*%
%AMOC8*
5,1,8,0,0,1.08239X$1,22.5*
%
%ADD10C,0.0100*%
%ADD11C,0.0160*%
%ADD12R,0.0433X0.0394*%
%ADD13R,0.0500X0.0579*%
%ADD14C,0.0251*%
%ADD15R,0.1181X0.0551*%
%ADD16R,0.0217X0.0472*%
%ADD17R,0.1142X0.1969*%
%ADD18R,0.0276X0.0394*%
%ADD19R,0.0177X0.0276*%
%ADD20R,0.0315X0.0394*%
%ADD21R,0.0394X0.0315*%
%ADD22R,0.0118X0.0315*%
%ADD23R,0.0787X0.0748*%
D10*
X028547Y019079D02*
X028536Y019538D01*
X028503Y019996D01*
X028449Y020452D01*
X028373Y020905D01*
X028275Y021353D01*
X028156Y021797D01*
X028016Y022234D01*
X027856Y022664D01*
X027675Y023086D01*
X027475Y023499D01*
X027255Y023902D01*
X027016Y024294D01*
X026758Y024674D01*
X026483Y025042D01*
X026191Y025396D01*
X025882Y025736D01*
X025558Y026060D01*
X025218Y026369D01*
X024864Y026661D01*
X024496Y026936D01*
X024116Y027194D01*
X023724Y027433D01*
X023321Y027653D01*
X022908Y027853D01*
X022486Y028034D01*
X022056Y028194D01*
X021619Y028334D01*
X021175Y028453D01*
X020727Y028551D01*
X020274Y028627D01*
X019818Y028681D01*
X019360Y028714D01*
X018901Y028725D01*
X028547Y019079D02*
X028536Y018620D01*
X028503Y018162D01*
X028449Y017706D01*
X028373Y017253D01*
X028275Y016805D01*
X028156Y016361D01*
X028016Y015924D01*
X027856Y015494D01*
X027675Y015072D01*
X027475Y014659D01*
X027255Y014256D01*
X027016Y013864D01*
X026758Y013484D01*
X026483Y013116D01*
X026191Y012762D01*
X025882Y012422D01*
X025558Y012098D01*
X025218Y011789D01*
X024864Y011497D01*
X024496Y011222D01*
X024116Y010964D01*
X023724Y010725D01*
X023321Y010505D01*
X022908Y010305D01*
X022486Y010124D01*
X022056Y009964D01*
X021619Y009824D01*
X021175Y009705D01*
X020727Y009607D01*
X020274Y009531D01*
X019818Y009477D01*
X019360Y009444D01*
X018901Y009433D01*
X018442Y009444D01*
X017984Y009477D01*
X017528Y009531D01*
X017075Y009607D01*
X016627Y009705D01*
X016183Y009824D01*
X015746Y009964D01*
X015316Y010124D01*
X014894Y010305D01*
X014481Y010505D01*
X014078Y010725D01*
X013686Y010964D01*
X013306Y011222D01*
X012938Y011497D01*
X012584Y011789D01*
X012244Y012098D01*
X011920Y012422D01*
X011611Y012762D01*
X011319Y013116D01*
X011044Y013484D01*
X010786Y013864D01*
X010547Y014256D01*
X010327Y014659D01*
X010127Y015072D01*
X009946Y015494D01*
X009786Y015924D01*
X009646Y016361D01*
X009527Y016805D01*
X009429Y017253D01*
X009353Y017706D01*
X009299Y018162D01*
X009266Y018620D01*
X009255Y019079D01*
X009266Y019538D01*
X009299Y019996D01*
X009353Y020452D01*
X009429Y020905D01*
X009527Y021353D01*
X009646Y021797D01*
X009786Y022234D01*
X009946Y022664D01*
X010127Y023086D01*
X010327Y023499D01*
X010547Y023902D01*
X010786Y024294D01*
X011044Y024674D01*
X011319Y025042D01*
X011611Y025396D01*
X011920Y025736D01*
X012244Y026060D01*
X012584Y026369D01*
X012938Y026661D01*
X013306Y026936D01*
X013686Y027194D01*
X014078Y027433D01*
X014481Y027653D01*
X014894Y027853D01*
X015316Y028034D01*
X015746Y028194D01*
X016183Y028334D01*
X016627Y028453D01*
X017075Y028551D01*
X017528Y028627D01*
X017984Y028681D01*
X018442Y028714D01*
X018901Y028725D01*
D11*
X017129Y010319D02*
X020673Y010319D01*
X020673Y009610D01*
X017129Y009591D02*
X017129Y010319D01*
D12*
G36*
X016205Y012693D02*
X015900Y012998D01*
X016179Y013277D01*
X016484Y012972D01*
X016205Y012693D01*
G37*
G36*
X015732Y013166D02*
X015427Y013471D01*
X015706Y013750D01*
X016011Y013445D01*
X015732Y013166D01*
G37*
G36*
X012502Y021506D02*
X012807Y021811D01*
X013086Y021532D01*
X012781Y021227D01*
X012502Y021506D01*
G37*
G36*
X012976Y021979D02*
X013281Y022284D01*
X013560Y022005D01*
X013255Y021700D01*
X012976Y021979D01*
G37*
G36*
X020822Y025763D02*
X021127Y025458D01*
X020848Y025179D01*
X020543Y025484D01*
X020822Y025763D01*
G37*
G36*
X021295Y025290D02*
X021600Y024985D01*
X021321Y024706D01*
X021016Y025011D01*
X021295Y025290D01*
G37*
G36*
X025240Y016601D02*
X024935Y016296D01*
X024656Y016575D01*
X024961Y016880D01*
X025240Y016601D01*
G37*
G36*
X024766Y016128D02*
X024461Y015823D01*
X024182Y016102D01*
X024487Y016407D01*
X024766Y016128D01*
G37*
D13*
G36*
X012860Y012232D02*
X013214Y012586D01*
X013622Y012178D01*
X013268Y011824D01*
X012860Y012232D01*
G37*
G36*
X014819Y013376D02*
X014465Y013022D01*
X014057Y013430D01*
X014411Y013784D01*
X014819Y013376D01*
G37*
G36*
X012895Y022897D02*
X012541Y023251D01*
X012949Y023659D01*
X013303Y023305D01*
X012895Y022897D01*
G37*
G36*
X011752Y024856D02*
X012106Y024502D01*
X011698Y024094D01*
X011344Y024448D01*
X011752Y024856D01*
G37*
G36*
X022213Y025370D02*
X022567Y025724D01*
X022975Y025316D01*
X022621Y024962D01*
X022213Y025370D01*
G37*
G36*
X024172Y026513D02*
X023818Y026159D01*
X023410Y026567D01*
X023764Y026921D01*
X024172Y026513D01*
G37*
G36*
X024846Y015210D02*
X025200Y014856D01*
X024792Y014448D01*
X024438Y014802D01*
X024846Y015210D01*
G37*
G36*
X025990Y013251D02*
X025636Y013605D01*
X026044Y014013D01*
X026398Y013659D01*
X025990Y013251D01*
G37*
D14*
X024584Y013309D02*
X022925Y011650D01*
X024584Y013309D02*
X025117Y012776D01*
X023458Y011117D01*
X022925Y011650D01*
X023208Y011367D02*
X023708Y011367D01*
X023958Y011617D02*
X022958Y011617D01*
X023142Y011867D02*
X024208Y011867D01*
X024458Y012117D02*
X023392Y012117D01*
X023642Y012367D02*
X024708Y012367D01*
X024958Y012617D02*
X023892Y012617D01*
X024142Y012867D02*
X025026Y012867D01*
X024776Y013117D02*
X024392Y013117D01*
X024003Y013890D02*
X022344Y012231D01*
X021811Y012764D01*
X023470Y014423D01*
X024003Y013890D01*
X022594Y012481D02*
X022094Y012481D01*
X021844Y012731D02*
X022844Y012731D01*
X023094Y012981D02*
X022028Y012981D01*
X022278Y013231D02*
X023344Y013231D01*
X023594Y013481D02*
X022528Y013481D01*
X022778Y013731D02*
X023844Y013731D01*
X023912Y013981D02*
X023028Y013981D01*
X023278Y014231D02*
X023662Y014231D01*
X025206Y023225D02*
X023547Y024884D01*
X025206Y023225D02*
X024673Y022692D01*
X023014Y024351D01*
X023547Y024884D01*
X024423Y022942D02*
X024923Y022942D01*
X025173Y023192D02*
X024173Y023192D01*
X023923Y023442D02*
X024989Y023442D01*
X024739Y023692D02*
X023673Y023692D01*
X023423Y023942D02*
X024489Y023942D01*
X024239Y024192D02*
X023173Y024192D01*
X023105Y024442D02*
X023989Y024442D01*
X023739Y024692D02*
X023355Y024692D01*
X024128Y025464D02*
X025787Y023805D01*
X024128Y025464D02*
X024661Y025997D01*
X026320Y024338D01*
X025787Y023805D01*
X026037Y024055D02*
X025537Y024055D01*
X025287Y024305D02*
X026287Y024305D01*
X026103Y024555D02*
X025037Y024555D01*
X024787Y024805D02*
X025853Y024805D01*
X025603Y025055D02*
X024537Y025055D01*
X024287Y025305D02*
X025353Y025305D01*
X025103Y025555D02*
X024219Y025555D01*
X024469Y025805D02*
X024853Y025805D01*
X015076Y025906D02*
X013417Y024247D01*
X015076Y025906D02*
X015609Y025373D01*
X013950Y023714D01*
X013417Y024247D01*
X013700Y023964D02*
X014200Y023964D01*
X014450Y024214D02*
X013450Y024214D01*
X013634Y024464D02*
X014700Y024464D01*
X014950Y024714D02*
X013884Y024714D01*
X014134Y024964D02*
X015200Y024964D01*
X015450Y025214D02*
X014384Y025214D01*
X014634Y025464D02*
X015518Y025464D01*
X015268Y025714D02*
X014884Y025714D01*
X014495Y026487D02*
X012836Y024828D01*
X012303Y025361D01*
X013962Y027020D01*
X014495Y026487D01*
X013086Y025078D02*
X012586Y025078D01*
X012336Y025328D02*
X013336Y025328D01*
X013586Y025578D02*
X012520Y025578D01*
X012770Y025828D02*
X013836Y025828D01*
X014086Y026078D02*
X013020Y026078D01*
X013270Y026328D02*
X014336Y026328D01*
X014404Y026578D02*
X013520Y026578D01*
X013770Y026828D02*
X014154Y026828D01*
X011887Y015595D02*
X013546Y013936D01*
X011887Y015595D02*
X012420Y016128D01*
X014079Y014469D01*
X013546Y013936D01*
X013796Y014186D02*
X013296Y014186D01*
X013046Y014436D02*
X014046Y014436D01*
X013862Y014686D02*
X012796Y014686D01*
X012546Y014936D02*
X013612Y014936D01*
X013362Y015186D02*
X012296Y015186D01*
X012046Y015436D02*
X013112Y015436D01*
X012862Y015686D02*
X011978Y015686D01*
X012228Y015936D02*
X012612Y015936D01*
X011306Y015015D02*
X012965Y013356D01*
X012432Y012823D01*
X010773Y014482D01*
X011306Y015015D01*
X012182Y013073D02*
X012682Y013073D01*
X012932Y013323D02*
X011932Y013323D01*
X011682Y013573D02*
X012748Y013573D01*
X012498Y013823D02*
X011432Y013823D01*
X011182Y014073D02*
X012248Y014073D01*
X011998Y014323D02*
X010932Y014323D01*
X010864Y014573D02*
X011748Y014573D01*
X011498Y014823D02*
X011114Y014823D01*
D15*
X025125Y019028D03*
X027015Y019028D03*
D16*
G36*
X026271Y016181D02*
X026118Y016028D01*
X025785Y016361D01*
X025938Y016514D01*
X026271Y016181D01*
G37*
G36*
X026995Y015457D02*
X026842Y015304D01*
X026509Y015637D01*
X026662Y015790D01*
X026995Y015457D01*
G37*
G36*
X026730Y015192D02*
X026577Y015039D01*
X026244Y015372D01*
X026397Y015525D01*
X026730Y015192D01*
G37*
G36*
X026466Y014928D02*
X026313Y014775D01*
X025980Y015108D01*
X026133Y015261D01*
X026466Y014928D01*
G37*
G36*
X025742Y015652D02*
X025589Y015499D01*
X025256Y015832D01*
X025409Y015985D01*
X025742Y015652D01*
G37*
G36*
X015743Y011715D02*
X015590Y011868D01*
X015923Y012201D01*
X016076Y012048D01*
X015743Y011715D01*
G37*
G36*
X015019Y010991D02*
X014866Y011144D01*
X015199Y011477D01*
X015352Y011324D01*
X015019Y010991D01*
G37*
G36*
X014755Y011255D02*
X014602Y011408D01*
X014935Y011741D01*
X015088Y011588D01*
X014755Y011255D01*
G37*
G36*
X014490Y011520D02*
X014337Y011673D01*
X014670Y012006D01*
X014823Y011853D01*
X014490Y011520D01*
G37*
G36*
X015214Y012244D02*
X015061Y012397D01*
X015394Y012730D01*
X015547Y012577D01*
X015214Y012244D01*
G37*
G36*
X011471Y021926D02*
X011624Y022079D01*
X011957Y021746D01*
X011804Y021593D01*
X011471Y021926D01*
G37*
G36*
X010747Y022650D02*
X010900Y022803D01*
X011233Y022470D01*
X011080Y022317D01*
X010747Y022650D01*
G37*
G36*
X011012Y022914D02*
X011165Y023067D01*
X011498Y022734D01*
X011345Y022581D01*
X011012Y022914D01*
G37*
G36*
X011276Y023179D02*
X011429Y023332D01*
X011762Y022999D01*
X011609Y022846D01*
X011276Y023179D01*
G37*
G36*
X012000Y022455D02*
X012153Y022608D01*
X012486Y022275D01*
X012333Y022122D01*
X012000Y022455D01*
G37*
G36*
X021242Y026795D02*
X021395Y026642D01*
X021062Y026309D01*
X020909Y026462D01*
X021242Y026795D01*
G37*
G36*
X021966Y027518D02*
X022119Y027365D01*
X021786Y027032D01*
X021633Y027185D01*
X021966Y027518D01*
G37*
G36*
X022230Y027254D02*
X022383Y027101D01*
X022050Y026768D01*
X021897Y026921D01*
X022230Y027254D01*
G37*
G36*
X022495Y026989D02*
X022648Y026836D01*
X022315Y026503D01*
X022162Y026656D01*
X022495Y026989D01*
G37*
G36*
X021771Y026266D02*
X021924Y026113D01*
X021591Y025780D01*
X021438Y025933D01*
X021771Y026266D01*
G37*
D17*
X018901Y019079D03*
D18*
X018055Y018843D03*
X018055Y019315D03*
X018055Y019866D03*
X018055Y018292D03*
X019747Y018292D03*
X019747Y018843D03*
X019747Y019315D03*
X019747Y019866D03*
D19*
X019492Y013695D03*
X019177Y013695D03*
X018862Y013695D03*
X018547Y013695D03*
X018547Y013085D03*
X018862Y013085D03*
X019177Y013085D03*
X019492Y013085D03*
D20*
X019905Y013114D03*
X019905Y013902D03*
X018094Y013902D03*
X018094Y013114D03*
D21*
X017897Y012504D03*
X018684Y012504D03*
X019373Y012504D03*
X020161Y012504D03*
D22*
X019787Y011796D03*
X019590Y011796D03*
X019393Y011796D03*
X019196Y011796D03*
X018999Y011796D03*
X018803Y011796D03*
X018606Y011796D03*
X018409Y011796D03*
X018212Y011796D03*
X018015Y011796D03*
D23*
X017051Y011166D03*
X020751Y011166D03*
M02*
