G75*
G70*
%OFA0B0*%
%FSLAX24Y24*%
%IPPOS*%
%LPD*%
%AMOC8*
5,1,8,0,0,1.08239X$1,22.5*
%
%ADD10C,0.0040*%
%ADD11C,0.0030*%
%ADD12R,0.0760X0.1500*%
%ADD13R,0.0790X0.0590*%
%ADD14R,0.1500X0.0760*%
%ADD15R,0.0590X0.0790*%
%ADD16C,0.0555*%
%ADD17R,0.1063X0.0630*%
%ADD18R,0.0512X0.0394*%
%ADD19R,0.0787X0.1181*%
%ADD20C,0.0160*%
%ADD21C,0.0436*%
D10*
X005070Y012700D02*
X005417Y012700D01*
X005586Y012700D02*
X005672Y012700D01*
X005672Y012787D01*
X005586Y012787D01*
X005586Y012700D01*
X005843Y012787D02*
X005930Y012700D01*
X006104Y012700D01*
X006190Y012787D01*
X006190Y012960D01*
X006104Y013047D01*
X006017Y013047D01*
X005843Y012960D01*
X005843Y013220D01*
X006190Y013220D01*
X006359Y013047D02*
X006359Y012787D01*
X006446Y012700D01*
X006533Y012787D01*
X006619Y012700D01*
X006706Y012787D01*
X006706Y013047D01*
X007390Y013220D02*
X007390Y012700D01*
X007737Y012700D01*
X007906Y012700D02*
X008253Y012700D01*
X008422Y012700D02*
X008682Y012700D01*
X008769Y012787D01*
X008769Y013134D01*
X008682Y013220D01*
X008422Y013220D01*
X008422Y012700D01*
X008079Y012960D02*
X007906Y012960D01*
X007906Y013220D02*
X007906Y012700D01*
X007906Y013220D02*
X008253Y013220D01*
X005243Y013220D02*
X005243Y012700D01*
X005070Y013047D02*
X005243Y013220D01*
D11*
X005765Y012488D02*
X005862Y012295D01*
X005958Y012488D01*
X006060Y012488D02*
X006108Y012488D01*
X006108Y012295D01*
X006060Y012295D02*
X006156Y012295D01*
X006256Y012295D02*
X006401Y012295D01*
X006450Y012343D01*
X006401Y012392D01*
X006304Y012392D01*
X006256Y012440D01*
X006304Y012488D01*
X006450Y012488D01*
X006551Y012488D02*
X006551Y012343D01*
X006599Y012295D01*
X006744Y012295D01*
X006744Y012488D01*
X006845Y012343D02*
X006894Y012392D01*
X007039Y012392D01*
X007039Y012440D02*
X007039Y012295D01*
X006894Y012295D01*
X006845Y012343D01*
X006894Y012488D02*
X006991Y012488D01*
X007039Y012440D01*
X007140Y012295D02*
X007237Y012295D01*
X007188Y012295D02*
X007188Y012585D01*
X007140Y012585D01*
X007336Y012488D02*
X007385Y012488D01*
X007385Y012295D01*
X007433Y012295D02*
X007336Y012295D01*
X007533Y012343D02*
X007581Y012295D01*
X007726Y012295D01*
X007726Y012247D02*
X007726Y012488D01*
X007581Y012488D01*
X007533Y012440D01*
X007533Y012343D01*
X007630Y012198D02*
X007678Y012198D01*
X007726Y012247D01*
X007828Y012295D02*
X007828Y012585D01*
X007876Y012488D02*
X007828Y012440D01*
X007876Y012488D02*
X007973Y012488D01*
X008021Y012440D01*
X008021Y012295D01*
X008122Y012488D02*
X008219Y012488D01*
X008171Y012537D02*
X008171Y012343D01*
X008219Y012295D01*
X008319Y012295D02*
X008367Y012295D01*
X008367Y012343D01*
X008319Y012343D01*
X008319Y012295D01*
X008466Y012343D02*
X008514Y012295D01*
X008611Y012295D01*
X008659Y012343D01*
X008659Y012440D01*
X008611Y012488D01*
X008514Y012488D01*
X008466Y012440D01*
X008466Y012343D01*
X008339Y012065D02*
X008401Y012004D01*
X008154Y011757D01*
X008216Y011695D01*
X008339Y011695D01*
X008401Y011757D01*
X008401Y012004D01*
X008339Y012065D02*
X008216Y012065D01*
X008154Y012004D01*
X008154Y011757D01*
X008032Y011757D02*
X008032Y011695D01*
X007970Y011695D01*
X007970Y011757D01*
X008032Y011757D01*
X007849Y011757D02*
X007849Y012004D01*
X007602Y011757D01*
X007663Y011695D01*
X007787Y011695D01*
X007849Y011757D01*
X007849Y012004D02*
X007787Y012065D01*
X007663Y012065D01*
X007602Y012004D01*
X007602Y011757D01*
X007112Y011818D02*
X007112Y012065D01*
X007112Y011818D02*
X006988Y011695D01*
X006865Y011818D01*
X006865Y012065D01*
X007385Y012585D02*
X007385Y012634D01*
X008522Y011942D02*
X008646Y012065D01*
X008646Y011695D01*
X008769Y011695D02*
X008522Y011695D01*
X008761Y012295D02*
X008761Y012488D01*
X008761Y012392D02*
X008857Y012488D01*
X008906Y012488D01*
X009006Y012440D02*
X009006Y012343D01*
X009055Y012295D01*
X009200Y012295D01*
X009200Y012247D02*
X009200Y012488D01*
X009055Y012488D01*
X009006Y012440D01*
X009200Y012247D02*
X009151Y012198D01*
X009103Y012198D01*
X006108Y012585D02*
X006108Y012634D01*
D12*
X001500Y012080D03*
D13*
X004024Y012080D03*
X004024Y011174D03*
X004024Y012986D03*
D14*
X007150Y010830D03*
X005650Y005230D03*
D15*
X005650Y002706D03*
X004744Y002706D03*
X006556Y002706D03*
X006244Y008306D03*
X007150Y008306D03*
X008056Y008306D03*
D16*
X002959Y004255D03*
X002959Y003467D03*
X002959Y002680D03*
X002959Y001893D03*
X002959Y001105D03*
D17*
X004450Y000629D03*
X004450Y001731D03*
X005750Y001731D03*
X005750Y000629D03*
X007050Y000629D03*
X007050Y001731D03*
X006650Y006229D03*
X006650Y007331D03*
X007950Y007331D03*
X007950Y006229D03*
X005250Y006229D03*
X005250Y007331D03*
X004050Y008929D03*
X004050Y010031D03*
X002750Y010031D03*
X002750Y008929D03*
X001450Y008929D03*
X001450Y010031D03*
D18*
X001370Y007410D03*
X001370Y006780D03*
X001370Y006150D03*
X003930Y006150D03*
X003930Y006780D03*
X003930Y007410D03*
D19*
X002650Y006780D03*
D20*
X000930Y008434D02*
X000930Y000360D01*
X003739Y000360D01*
X003739Y000551D01*
X004373Y000551D01*
X004373Y000706D01*
X004373Y001124D01*
X003895Y001124D01*
X003849Y001112D01*
X003808Y001088D01*
X003774Y001054D01*
X003751Y001013D01*
X003739Y000967D01*
X003739Y000706D01*
X004373Y000706D01*
X004527Y000706D01*
X004527Y001124D01*
X005005Y001124D01*
X005051Y001112D01*
X005092Y001088D01*
X005100Y001080D01*
X005108Y001088D01*
X005149Y001112D01*
X005195Y001124D01*
X005673Y001124D01*
X005673Y000706D01*
X005827Y000706D01*
X005827Y001124D01*
X006305Y001124D01*
X006351Y001112D01*
X006392Y001088D01*
X006400Y001080D01*
X006408Y001088D01*
X006449Y001112D01*
X006495Y001124D01*
X006973Y001124D01*
X006973Y000706D01*
X007127Y000706D01*
X007127Y001124D01*
X007605Y001124D01*
X007651Y001112D01*
X007692Y001088D01*
X007726Y001054D01*
X007749Y001013D01*
X007761Y000967D01*
X007761Y000706D01*
X007127Y000706D01*
X007127Y000551D01*
X007761Y000551D01*
X007761Y000360D01*
X008640Y000360D01*
X008640Y005829D01*
X008626Y005803D01*
X008592Y005770D01*
X008551Y005746D01*
X008505Y005734D01*
X008027Y005734D01*
X008027Y006151D01*
X007873Y006151D01*
X007873Y005734D01*
X007395Y005734D01*
X007349Y005746D01*
X007308Y005770D01*
X007300Y005778D01*
X007292Y005770D01*
X007251Y005746D01*
X007205Y005734D01*
X006727Y005734D01*
X006727Y006151D01*
X006573Y006151D01*
X006573Y005734D01*
X006502Y005734D01*
X006560Y005676D01*
X006560Y004784D01*
X006466Y004690D01*
X004890Y004690D01*
X004890Y003819D01*
X005448Y003261D01*
X006011Y003261D01*
X006103Y003170D01*
X006194Y003261D01*
X006917Y003261D01*
X007011Y003168D01*
X007011Y002539D01*
X007186Y002363D01*
X007253Y002296D01*
X007290Y002208D01*
X007290Y002206D01*
X007648Y002206D01*
X007741Y002112D01*
X007741Y001350D01*
X007648Y001256D01*
X006452Y001256D01*
X006400Y001308D01*
X006348Y001256D01*
X005152Y001256D01*
X005100Y001308D01*
X005048Y001256D01*
X003852Y001256D01*
X003759Y001350D01*
X003759Y002112D01*
X003852Y002206D01*
X004328Y002206D01*
X004289Y002245D01*
X004289Y002520D01*
X003366Y002520D01*
X003330Y002432D01*
X003206Y002309D01*
X003151Y002286D01*
X003206Y002263D01*
X003330Y002140D01*
X003396Y001980D01*
X003396Y001806D01*
X003330Y001645D01*
X003206Y001522D01*
X003175Y001509D01*
X003198Y001496D01*
X003257Y001454D01*
X003308Y001403D01*
X003350Y001345D01*
X003383Y001281D01*
X003405Y001212D01*
X003416Y001141D01*
X003416Y001105D01*
X002959Y001105D01*
X002959Y001105D01*
X002959Y000648D01*
X002995Y000648D01*
X003066Y000659D01*
X003134Y000681D01*
X003198Y000714D01*
X003257Y000756D01*
X003308Y000807D01*
X003350Y000865D01*
X003383Y000930D01*
X003405Y000998D01*
X003416Y001069D01*
X003416Y001105D01*
X002959Y001105D01*
X002959Y001105D01*
X002959Y000648D01*
X002923Y000648D01*
X002852Y000659D01*
X002783Y000681D01*
X002719Y000714D01*
X002661Y000756D01*
X002610Y000807D01*
X002567Y000865D01*
X002535Y000930D01*
X002512Y000998D01*
X002501Y001069D01*
X002501Y001105D01*
X002959Y001105D01*
X002959Y001105D01*
X002501Y001105D01*
X002501Y001141D01*
X002512Y001212D01*
X002535Y001281D01*
X002567Y001345D01*
X002610Y001403D01*
X002661Y001454D01*
X002719Y001496D01*
X002743Y001509D01*
X002711Y001522D01*
X002588Y001645D01*
X002521Y001806D01*
X002521Y001909D01*
X002287Y002144D01*
X002250Y002232D01*
X002250Y004941D01*
X001397Y005793D01*
X001048Y005793D01*
X000955Y005887D01*
X000955Y006413D01*
X001006Y006465D01*
X000955Y006517D01*
X000955Y007043D01*
X001006Y007095D01*
X000955Y007147D01*
X000955Y007673D01*
X001048Y007767D01*
X001693Y007767D01*
X001786Y007673D01*
X001786Y007147D01*
X001735Y007095D01*
X001786Y007043D01*
X001786Y006517D01*
X001735Y006465D01*
X001786Y006413D01*
X001786Y006083D01*
X002626Y005243D01*
X002693Y005176D01*
X002730Y005088D01*
X002730Y004634D01*
X002872Y004692D01*
X003046Y004692D01*
X003206Y004626D01*
X003330Y004503D01*
X003396Y004342D01*
X003396Y004168D01*
X003330Y004007D01*
X003206Y003884D01*
X003151Y003861D01*
X003206Y003838D01*
X003330Y003715D01*
X003396Y003554D01*
X003396Y003380D01*
X003330Y003220D01*
X003206Y003097D01*
X003151Y003074D01*
X003206Y003051D01*
X003257Y003000D01*
X004289Y003000D01*
X004289Y003168D01*
X004383Y003261D01*
X004769Y003261D01*
X004447Y003584D01*
X004410Y003672D01*
X004410Y005301D01*
X003917Y005793D01*
X003607Y005793D01*
X003514Y005887D01*
X003514Y006413D01*
X003565Y006465D01*
X003514Y006517D01*
X003514Y006797D01*
X003314Y006997D01*
X003247Y007064D01*
X003210Y007152D01*
X003210Y007728D01*
X003247Y007816D01*
X003864Y008434D01*
X003495Y008434D01*
X003449Y008446D01*
X003408Y008470D01*
X003400Y008478D01*
X003392Y008470D01*
X003351Y008446D01*
X003305Y008434D01*
X002827Y008434D01*
X002827Y008851D01*
X002673Y008851D01*
X002673Y008434D01*
X002195Y008434D01*
X002149Y008446D01*
X002108Y008470D01*
X002100Y008478D01*
X002092Y008470D01*
X002051Y008446D01*
X002005Y008434D01*
X001527Y008434D01*
X001527Y008851D01*
X001373Y008851D01*
X001373Y008434D01*
X000930Y008434D01*
X000930Y008372D02*
X003802Y008372D01*
X003644Y008213D02*
X000930Y008213D01*
X000930Y008055D02*
X003485Y008055D01*
X003327Y007896D02*
X000930Y007896D01*
X000930Y007738D02*
X001019Y007738D01*
X000955Y007579D02*
X000930Y007579D01*
X000930Y007421D02*
X000955Y007421D01*
X000955Y007262D02*
X000930Y007262D01*
X000930Y007104D02*
X000998Y007104D01*
X000955Y006945D02*
X000930Y006945D01*
X000930Y006787D02*
X000955Y006787D01*
X000955Y006628D02*
X000930Y006628D01*
X000930Y006470D02*
X001002Y006470D01*
X000955Y006311D02*
X000930Y006311D01*
X000930Y006153D02*
X000955Y006153D01*
X000955Y005994D02*
X000930Y005994D01*
X000930Y005836D02*
X001006Y005836D01*
X000930Y005677D02*
X001514Y005677D01*
X001672Y005519D02*
X000930Y005519D01*
X000930Y005360D02*
X001831Y005360D01*
X001989Y005202D02*
X000930Y005202D01*
X000930Y005043D02*
X002148Y005043D01*
X002250Y004885D02*
X000930Y004885D01*
X000930Y004726D02*
X002250Y004726D01*
X002250Y004568D02*
X000930Y004568D01*
X000930Y004409D02*
X002250Y004409D01*
X002250Y004251D02*
X000930Y004251D01*
X000930Y004092D02*
X002250Y004092D01*
X002250Y003934D02*
X000930Y003934D01*
X000930Y003775D02*
X002250Y003775D01*
X002250Y003617D02*
X000930Y003617D01*
X000930Y003458D02*
X002250Y003458D01*
X002250Y003300D02*
X000930Y003300D01*
X000930Y003141D02*
X002250Y003141D01*
X002250Y002983D02*
X000930Y002983D01*
X000930Y002824D02*
X002250Y002824D01*
X002250Y002666D02*
X000930Y002666D01*
X000930Y002507D02*
X002250Y002507D01*
X002250Y002349D02*
X000930Y002349D01*
X000930Y002190D02*
X002267Y002190D01*
X002399Y002032D02*
X000930Y002032D01*
X000930Y001873D02*
X002521Y001873D01*
X002559Y001715D02*
X000930Y001715D01*
X000930Y001556D02*
X002677Y001556D01*
X002606Y001398D02*
X000930Y001398D01*
X000930Y001239D02*
X002521Y001239D01*
X002501Y001081D02*
X000930Y001081D01*
X000930Y000922D02*
X002539Y000922D01*
X002653Y000764D02*
X000930Y000764D01*
X000930Y000605D02*
X004373Y000605D01*
X004373Y000764D02*
X004527Y000764D01*
X004527Y000706D02*
X005039Y000706D01*
X005673Y000706D01*
X005673Y000551D01*
X004527Y000551D01*
X004527Y000706D01*
X004527Y000605D02*
X005673Y000605D01*
X005673Y000764D02*
X005827Y000764D01*
X005827Y000706D02*
X006461Y000706D01*
X006973Y000706D01*
X006973Y000551D01*
X005827Y000551D01*
X005827Y000706D01*
X005827Y000605D02*
X006973Y000605D01*
X007127Y000605D02*
X008640Y000605D01*
X008640Y000447D02*
X007761Y000447D01*
X007761Y000764D02*
X008640Y000764D01*
X008640Y000922D02*
X007761Y000922D01*
X007699Y001081D02*
X008640Y001081D01*
X008640Y001239D02*
X003396Y001239D01*
X003312Y001398D02*
X003759Y001398D01*
X003759Y001556D02*
X003241Y001556D01*
X003358Y001715D02*
X003759Y001715D01*
X003759Y001873D02*
X003396Y001873D01*
X003375Y002032D02*
X003759Y002032D01*
X003836Y002190D02*
X003280Y002190D01*
X003246Y002349D02*
X004289Y002349D01*
X004289Y002507D02*
X003361Y002507D01*
X003251Y003141D02*
X004289Y003141D01*
X004573Y003458D02*
X003396Y003458D01*
X003370Y003617D02*
X004433Y003617D01*
X004410Y003775D02*
X003270Y003775D01*
X003256Y003934D02*
X004410Y003934D01*
X004410Y004092D02*
X003365Y004092D01*
X003396Y004251D02*
X004410Y004251D01*
X004410Y004409D02*
X003368Y004409D01*
X003265Y004568D02*
X004410Y004568D01*
X004410Y004726D02*
X002730Y004726D01*
X002730Y004885D02*
X004410Y004885D01*
X004410Y005043D02*
X002730Y005043D01*
X002668Y005202D02*
X004410Y005202D01*
X004351Y005360D02*
X002509Y005360D01*
X002351Y005519D02*
X004192Y005519D01*
X004034Y005677D02*
X002192Y005677D01*
X002034Y005836D02*
X003565Y005836D01*
X003514Y005994D02*
X001875Y005994D01*
X001786Y006153D02*
X002096Y006153D01*
X002096Y006123D02*
X002190Y006029D01*
X003110Y006029D01*
X003204Y006123D01*
X003204Y007437D01*
X003110Y007531D01*
X002190Y007531D01*
X002096Y007437D01*
X002096Y006123D01*
X002096Y006311D02*
X001786Y006311D01*
X001739Y006470D02*
X002096Y006470D01*
X002096Y006628D02*
X001786Y006628D01*
X001786Y006787D02*
X002096Y006787D01*
X002096Y006945D02*
X001786Y006945D01*
X001743Y007104D02*
X002096Y007104D01*
X002096Y007262D02*
X001786Y007262D01*
X001786Y007421D02*
X002096Y007421D01*
X001786Y007579D02*
X003210Y007579D01*
X003214Y007738D02*
X001722Y007738D01*
X001370Y007410D02*
X001410Y007320D01*
X001410Y006840D01*
X001370Y006780D01*
X001410Y006720D01*
X001410Y006240D01*
X001370Y006150D01*
X001410Y006120D01*
X002490Y005040D01*
X002490Y002280D01*
X002850Y001920D01*
X002959Y001893D01*
X002959Y002680D02*
X002970Y002760D01*
X004650Y002760D01*
X004744Y002706D01*
X004731Y003300D02*
X003363Y003300D01*
X004530Y001800D02*
X004450Y001731D01*
X004530Y001800D02*
X005730Y001800D01*
X005750Y001731D01*
X005850Y001680D01*
X007050Y001680D01*
X007050Y001731D01*
X007050Y002160D01*
X006570Y002640D01*
X006556Y002706D01*
X007011Y002666D02*
X008640Y002666D01*
X008640Y002824D02*
X007011Y002824D01*
X007011Y002983D02*
X008640Y002983D01*
X008640Y003141D02*
X007011Y003141D01*
X007042Y002507D02*
X008640Y002507D01*
X008640Y002349D02*
X007201Y002349D01*
X007664Y002190D02*
X008640Y002190D01*
X008640Y002032D02*
X007741Y002032D01*
X007741Y001873D02*
X008640Y001873D01*
X008640Y001715D02*
X007741Y001715D01*
X007741Y001556D02*
X008640Y001556D01*
X008640Y001398D02*
X007741Y001398D01*
X007127Y001081D02*
X006973Y001081D01*
X006973Y000922D02*
X007127Y000922D01*
X007127Y000764D02*
X006973Y000764D01*
X006401Y001081D02*
X006399Y001081D01*
X005827Y001081D02*
X005673Y001081D01*
X005673Y000922D02*
X005827Y000922D01*
X005101Y001081D02*
X005099Y001081D01*
X004527Y001081D02*
X004373Y001081D01*
X004373Y000922D02*
X004527Y000922D01*
X003801Y001081D02*
X003416Y001081D01*
X003379Y000922D02*
X003739Y000922D01*
X003739Y000764D02*
X003264Y000764D01*
X002959Y000764D02*
X002959Y000764D01*
X002959Y000922D02*
X002959Y000922D01*
X002959Y001081D02*
X002959Y001081D01*
X003739Y000447D02*
X000930Y000447D01*
X004559Y005831D02*
X004345Y006044D01*
X004345Y006413D01*
X004294Y006465D01*
X004345Y006517D01*
X004345Y007043D01*
X004294Y007095D01*
X004345Y007147D01*
X004345Y007516D01*
X004749Y007920D01*
X005250Y007920D01*
X005289Y007826D01*
X005309Y007806D01*
X004652Y007806D01*
X004559Y007712D01*
X004559Y006950D01*
X004652Y006856D01*
X005848Y006856D01*
X005941Y006950D01*
X005941Y007200D01*
X005959Y007200D01*
X005959Y006950D01*
X006052Y006856D01*
X007248Y006856D01*
X007300Y006908D01*
X007352Y006856D01*
X008548Y006856D01*
X008640Y006949D01*
X008640Y006629D01*
X008626Y006654D01*
X008592Y006688D01*
X008551Y006712D01*
X008505Y006724D01*
X008027Y006724D01*
X008027Y006306D01*
X007873Y006306D01*
X007873Y006724D01*
X007395Y006724D01*
X007349Y006712D01*
X007308Y006688D01*
X007300Y006680D01*
X007292Y006688D01*
X007251Y006712D01*
X007205Y006724D01*
X006727Y006724D01*
X006727Y006306D01*
X006573Y006306D01*
X006573Y006724D01*
X006095Y006724D01*
X006049Y006712D01*
X006008Y006688D01*
X005974Y006654D01*
X005951Y006613D01*
X005950Y006610D01*
X005949Y006613D01*
X005926Y006654D01*
X005892Y006688D01*
X005851Y006712D01*
X005805Y006724D01*
X005327Y006724D01*
X005327Y006306D01*
X005173Y006306D01*
X005173Y006724D01*
X004695Y006724D01*
X004649Y006712D01*
X004608Y006688D01*
X004574Y006654D01*
X004551Y006613D01*
X004539Y006567D01*
X004539Y006306D01*
X005173Y006306D01*
X005173Y006151D01*
X004539Y006151D01*
X004539Y005890D01*
X004551Y005844D01*
X004559Y005831D01*
X004556Y005836D02*
X004554Y005836D01*
X004539Y005994D02*
X004395Y005994D01*
X004345Y006153D02*
X005173Y006153D01*
X005327Y006153D02*
X006573Y006153D01*
X006573Y006151D02*
X005327Y006151D01*
X005327Y006306D01*
X005961Y006306D01*
X006573Y006306D01*
X006573Y006151D01*
X006573Y005994D02*
X006727Y005994D01*
X006727Y006151D02*
X006727Y006306D01*
X007239Y006306D01*
X007873Y006306D01*
X007873Y006151D01*
X006727Y006151D01*
X006727Y006153D02*
X007873Y006153D01*
X007873Y006311D02*
X008027Y006311D01*
X008027Y006470D02*
X007873Y006470D01*
X007873Y006628D02*
X008027Y006628D01*
X008027Y005994D02*
X007873Y005994D01*
X007873Y005836D02*
X008027Y005836D01*
X008640Y005677D02*
X006559Y005677D01*
X006560Y005519D02*
X008640Y005519D01*
X008640Y005360D02*
X006560Y005360D01*
X006560Y005202D02*
X008640Y005202D01*
X008640Y005043D02*
X006560Y005043D01*
X006560Y004885D02*
X008640Y004885D01*
X008640Y004726D02*
X006502Y004726D01*
X006573Y005836D02*
X006727Y005836D01*
X006727Y006311D02*
X006573Y006311D01*
X006573Y006470D02*
X006727Y006470D01*
X006727Y006628D02*
X006573Y006628D01*
X006650Y007331D02*
X006690Y007440D01*
X007890Y007440D01*
X007950Y007331D01*
X008010Y007440D01*
X008010Y008280D01*
X008056Y008306D01*
X007150Y008306D02*
X007050Y008400D01*
X007050Y008880D01*
X005850Y008880D01*
X005250Y008280D01*
X005250Y008160D01*
X004650Y008160D01*
X003930Y007440D01*
X003930Y007410D01*
X004302Y007104D02*
X004559Y007104D01*
X004559Y007262D02*
X004345Y007262D01*
X004345Y007421D02*
X004559Y007421D01*
X004559Y007579D02*
X004408Y007579D01*
X004567Y007738D02*
X004584Y007738D01*
X004725Y007896D02*
X005260Y007896D01*
X005250Y007440D02*
X005250Y007331D01*
X005250Y007440D02*
X006570Y007440D01*
X006650Y007331D01*
X006210Y008280D02*
X006244Y008306D01*
X006210Y008280D02*
X005610Y008280D01*
X005610Y008040D01*
X005941Y007104D02*
X005959Y007104D01*
X005963Y006945D02*
X005937Y006945D01*
X005941Y006628D02*
X005959Y006628D01*
X005327Y006628D02*
X005173Y006628D01*
X005173Y006470D02*
X005327Y006470D01*
X005327Y006311D02*
X005173Y006311D01*
X004650Y005400D02*
X004650Y003720D01*
X005610Y002760D01*
X005650Y002706D01*
X005410Y003300D02*
X008640Y003300D01*
X008640Y003458D02*
X005251Y003458D01*
X005093Y003617D02*
X008640Y003617D01*
X008640Y003775D02*
X004934Y003775D01*
X004890Y003934D02*
X008640Y003934D01*
X008640Y004092D02*
X004890Y004092D01*
X004890Y004251D02*
X008640Y004251D01*
X008640Y004409D02*
X004890Y004409D01*
X004890Y004568D02*
X008640Y004568D01*
X008640Y006787D02*
X004345Y006787D01*
X004345Y006945D02*
X004563Y006945D01*
X004559Y006628D02*
X004345Y006628D01*
X004298Y006470D02*
X004539Y006470D01*
X004539Y006311D02*
X004345Y006311D01*
X003930Y006150D02*
X003930Y006120D01*
X004650Y005400D01*
X003930Y006780D02*
X003810Y006840D01*
X003450Y007200D01*
X003450Y007680D01*
X004170Y008400D01*
X004770Y008400D01*
X004770Y011400D01*
X004050Y012120D01*
X004024Y012080D01*
X004024Y011174D02*
X003930Y011160D01*
X003330Y011160D01*
X003330Y010680D01*
X002850Y010080D02*
X002750Y010031D01*
X002730Y010080D01*
X001530Y010080D01*
X001450Y010031D01*
X001373Y009424D02*
X000930Y009424D01*
X000930Y009556D01*
X002048Y009556D01*
X002100Y009608D01*
X002152Y009556D01*
X003348Y009556D01*
X003400Y009608D01*
X003452Y009556D01*
X004530Y009556D01*
X004530Y009424D01*
X004127Y009424D01*
X004127Y009006D01*
X003973Y009006D01*
X003973Y009424D01*
X003495Y009424D01*
X003449Y009412D01*
X003408Y009388D01*
X003400Y009380D01*
X003392Y009388D01*
X003351Y009412D01*
X003305Y009424D01*
X002827Y009424D01*
X002827Y009006D01*
X002673Y009006D01*
X002673Y009424D01*
X002195Y009424D01*
X002149Y009412D01*
X002108Y009388D01*
X002100Y009380D01*
X002092Y009388D01*
X002051Y009412D01*
X002005Y009424D01*
X001527Y009424D01*
X001527Y009006D01*
X001373Y009006D01*
X001373Y009424D01*
X001373Y009323D02*
X001527Y009323D01*
X001527Y009164D02*
X001373Y009164D01*
X001527Y009006D02*
X002161Y009006D01*
X002673Y009006D01*
X002673Y008851D01*
X001527Y008851D01*
X001527Y009006D01*
X002673Y009006D01*
X002673Y009164D02*
X002827Y009164D01*
X002827Y009006D02*
X003339Y009006D01*
X003973Y009006D01*
X003973Y008851D01*
X002827Y008851D01*
X002827Y009006D01*
X003973Y009006D01*
X003973Y009164D02*
X004127Y009164D01*
X004127Y009323D02*
X003973Y009323D01*
X004050Y010031D02*
X004050Y010080D01*
X002850Y010080D01*
X002850Y011880D01*
X003930Y012960D01*
X004024Y012986D01*
X004530Y009481D02*
X000930Y009481D01*
X001373Y008847D02*
X001527Y008847D01*
X001527Y008689D02*
X001373Y008689D01*
X001373Y008530D02*
X001527Y008530D01*
X002673Y008530D02*
X002827Y008530D01*
X002827Y008689D02*
X002673Y008689D01*
X002673Y008847D02*
X002827Y008847D01*
X002827Y009323D02*
X002673Y009323D01*
X003204Y007421D02*
X003210Y007421D01*
X003204Y007262D02*
X003210Y007262D01*
X003204Y007104D02*
X003230Y007104D01*
X003204Y006945D02*
X003366Y006945D01*
X003514Y006787D02*
X003204Y006787D01*
X003204Y006628D02*
X003514Y006628D01*
X003561Y006470D02*
X003204Y006470D01*
X003204Y006311D02*
X003514Y006311D01*
X003514Y006153D02*
X003204Y006153D01*
X008637Y006945D02*
X008640Y006945D01*
D21*
X005610Y008040D03*
X003330Y010680D03*
M02*
