G75*
G70*
%OFA0B0*%
%FSLAX24Y24*%
%IPPOS*%
%LPD*%
%AMOC8*
5,1,8,0,0,1.08239X$1,22.5*
%
%ADD10C,0.0555*%
%ADD11C,0.0160*%
%ADD12C,0.0436*%
D10*
X002959Y001105D03*
X002959Y001893D03*
X002959Y002680D03*
X002959Y003467D03*
X002959Y004255D03*
D11*
X000930Y000360D02*
X000930Y013396D01*
X008640Y013396D01*
X008640Y000360D01*
X000930Y000360D01*
X000930Y000447D02*
X008640Y000447D01*
X008640Y000605D02*
X000930Y000605D01*
X000930Y000764D02*
X002653Y000764D01*
X002661Y000756D02*
X002719Y000714D01*
X002783Y000681D01*
X002852Y000659D01*
X002923Y000648D01*
X002959Y000648D01*
X002995Y000648D01*
X003066Y000659D01*
X003134Y000681D01*
X003198Y000714D01*
X003257Y000756D01*
X003308Y000807D01*
X003350Y000865D01*
X003383Y000930D01*
X003405Y000998D01*
X003416Y001069D01*
X003416Y001105D01*
X002959Y001105D01*
X002959Y001105D01*
X002959Y000648D01*
X002959Y001105D01*
X002959Y001105D01*
X003416Y001105D01*
X003416Y001141D01*
X003405Y001212D01*
X003383Y001281D01*
X003350Y001345D01*
X003308Y001403D01*
X003257Y001454D01*
X003198Y001496D01*
X003175Y001509D01*
X003206Y001522D01*
X003330Y001645D01*
X003396Y001806D01*
X003396Y001980D01*
X003330Y002140D01*
X003206Y002263D01*
X003151Y002286D01*
X003206Y002309D01*
X003330Y002432D01*
X003396Y002593D01*
X003396Y002767D01*
X003330Y002928D01*
X003206Y003051D01*
X003151Y003074D01*
X003206Y003097D01*
X003330Y003220D01*
X003338Y003240D01*
X003738Y003240D01*
X003826Y003277D01*
X003893Y003344D01*
X003930Y003432D01*
X003930Y006021D01*
X005571Y007662D01*
X005685Y007662D01*
X005824Y007719D01*
X005931Y007826D01*
X005988Y007965D01*
X005988Y008115D01*
X005931Y008254D01*
X005824Y008361D01*
X005685Y008418D01*
X005535Y008418D01*
X005396Y008361D01*
X005289Y008254D01*
X005232Y008115D01*
X005232Y008001D01*
X003570Y006339D01*
X003570Y010385D01*
X003651Y010466D01*
X003708Y010605D01*
X003708Y010755D01*
X003651Y010894D01*
X003544Y011001D01*
X003405Y011058D01*
X003255Y011058D01*
X003116Y011001D01*
X003009Y010894D01*
X002952Y010755D01*
X002952Y010605D01*
X003009Y010466D01*
X003090Y010385D01*
X003090Y004800D01*
X003042Y004800D01*
X002954Y004763D01*
X002883Y004692D01*
X002872Y004692D01*
X002711Y004626D01*
X002588Y004503D01*
X002521Y004342D01*
X002521Y004168D01*
X002588Y004007D01*
X002711Y003884D01*
X002766Y003861D01*
X002711Y003838D01*
X002588Y003715D01*
X002521Y003554D01*
X002521Y003380D01*
X002588Y003220D01*
X002711Y003097D01*
X002766Y003074D01*
X002711Y003051D01*
X002588Y002928D01*
X002521Y002767D01*
X002521Y002593D01*
X002588Y002432D01*
X002711Y002309D01*
X002766Y002286D01*
X002711Y002263D01*
X002588Y002140D01*
X002521Y001980D01*
X002521Y001806D01*
X002588Y001645D01*
X002711Y001522D01*
X002743Y001509D01*
X002719Y001496D01*
X002661Y001454D01*
X002610Y001403D01*
X002567Y001345D01*
X002535Y001281D01*
X002512Y001212D01*
X002501Y001141D01*
X002501Y001105D01*
X002501Y001069D01*
X002512Y000998D01*
X002535Y000930D01*
X002567Y000865D01*
X002610Y000807D01*
X002661Y000756D01*
X002539Y000922D02*
X000930Y000922D01*
X000930Y001081D02*
X002501Y001081D01*
X002501Y001105D02*
X002959Y001105D01*
X002959Y001105D01*
X002501Y001105D01*
X002521Y001239D02*
X000930Y001239D01*
X000930Y001398D02*
X002606Y001398D01*
X002677Y001556D02*
X000930Y001556D01*
X000930Y001715D02*
X002559Y001715D01*
X002521Y001873D02*
X000930Y001873D01*
X000930Y002032D02*
X002543Y002032D01*
X002637Y002190D02*
X000930Y002190D01*
X000930Y002349D02*
X002671Y002349D01*
X002557Y002507D02*
X000930Y002507D01*
X000930Y002666D02*
X002521Y002666D01*
X002545Y002824D02*
X000930Y002824D01*
X000930Y002983D02*
X002642Y002983D01*
X002666Y003141D02*
X000930Y003141D01*
X000930Y003300D02*
X002555Y003300D01*
X002521Y003458D02*
X000930Y003458D01*
X000930Y003617D02*
X002547Y003617D01*
X002648Y003775D02*
X000930Y003775D01*
X000930Y003934D02*
X002661Y003934D01*
X002553Y004092D02*
X000930Y004092D01*
X000930Y004251D02*
X002521Y004251D01*
X002549Y004409D02*
X000930Y004409D01*
X000930Y004568D02*
X002653Y004568D01*
X002850Y004320D02*
X002959Y004255D01*
X002850Y004320D02*
X003090Y004560D01*
X003330Y004560D01*
X003330Y010680D01*
X003617Y010432D02*
X008640Y010432D01*
X008640Y010274D02*
X003570Y010274D01*
X003570Y010115D02*
X008640Y010115D01*
X008640Y009957D02*
X003570Y009957D01*
X003570Y009798D02*
X008640Y009798D01*
X008640Y009640D02*
X003570Y009640D01*
X003570Y009481D02*
X008640Y009481D01*
X008640Y009323D02*
X003570Y009323D01*
X003570Y009164D02*
X008640Y009164D01*
X008640Y009006D02*
X003570Y009006D01*
X003570Y008847D02*
X008640Y008847D01*
X008640Y008689D02*
X003570Y008689D01*
X003570Y008530D02*
X008640Y008530D01*
X008640Y008372D02*
X005798Y008372D01*
X005948Y008213D02*
X008640Y008213D01*
X008640Y008055D02*
X005988Y008055D01*
X005960Y007896D02*
X008640Y007896D01*
X008640Y007738D02*
X005842Y007738D01*
X005610Y008040D02*
X003690Y006120D01*
X003690Y003480D01*
X002970Y003480D01*
X002959Y003467D01*
X003251Y003141D02*
X008640Y003141D01*
X008640Y002983D02*
X003275Y002983D01*
X003373Y002824D02*
X008640Y002824D01*
X008640Y002666D02*
X003396Y002666D01*
X003361Y002507D02*
X008640Y002507D01*
X008640Y002349D02*
X003246Y002349D01*
X003280Y002190D02*
X008640Y002190D01*
X008640Y002032D02*
X003375Y002032D01*
X003396Y001873D02*
X008640Y001873D01*
X008640Y001715D02*
X003358Y001715D01*
X003241Y001556D02*
X008640Y001556D01*
X008640Y001398D02*
X003312Y001398D01*
X003396Y001239D02*
X008640Y001239D01*
X008640Y001081D02*
X003416Y001081D01*
X003379Y000922D02*
X008640Y000922D01*
X008640Y000764D02*
X003264Y000764D01*
X002959Y000764D02*
X002959Y000764D01*
X002959Y000922D02*
X002959Y000922D01*
X002959Y001081D02*
X002959Y001081D01*
X003849Y003300D02*
X008640Y003300D01*
X008640Y003458D02*
X003930Y003458D01*
X003930Y003617D02*
X008640Y003617D01*
X008640Y003775D02*
X003930Y003775D01*
X003930Y003934D02*
X008640Y003934D01*
X008640Y004092D02*
X003930Y004092D01*
X003930Y004251D02*
X008640Y004251D01*
X008640Y004409D02*
X003930Y004409D01*
X003930Y004568D02*
X008640Y004568D01*
X008640Y004726D02*
X003930Y004726D01*
X003930Y004885D02*
X008640Y004885D01*
X008640Y005043D02*
X003930Y005043D01*
X003930Y005202D02*
X008640Y005202D01*
X008640Y005360D02*
X003930Y005360D01*
X003930Y005519D02*
X008640Y005519D01*
X008640Y005677D02*
X003930Y005677D01*
X003930Y005836D02*
X008640Y005836D01*
X008640Y005994D02*
X003930Y005994D01*
X004062Y006153D02*
X008640Y006153D01*
X008640Y006311D02*
X004220Y006311D01*
X004379Y006470D02*
X008640Y006470D01*
X008640Y006628D02*
X004537Y006628D01*
X004696Y006787D02*
X008640Y006787D01*
X008640Y006945D02*
X004854Y006945D01*
X005013Y007104D02*
X008640Y007104D01*
X008640Y007262D02*
X005171Y007262D01*
X005330Y007421D02*
X008640Y007421D01*
X008640Y007579D02*
X005488Y007579D01*
X005232Y008055D02*
X003570Y008055D01*
X003570Y008213D02*
X005272Y008213D01*
X005422Y008372D02*
X003570Y008372D01*
X003570Y007896D02*
X005127Y007896D01*
X004968Y007738D02*
X003570Y007738D01*
X003570Y007579D02*
X004810Y007579D01*
X004651Y007421D02*
X003570Y007421D01*
X003570Y007262D02*
X004493Y007262D01*
X004334Y007104D02*
X003570Y007104D01*
X003570Y006945D02*
X004176Y006945D01*
X004017Y006787D02*
X003570Y006787D01*
X003570Y006628D02*
X003859Y006628D01*
X003700Y006470D02*
X003570Y006470D01*
X003090Y006470D02*
X000930Y006470D01*
X000930Y006628D02*
X003090Y006628D01*
X003090Y006787D02*
X000930Y006787D01*
X000930Y006945D02*
X003090Y006945D01*
X003090Y007104D02*
X000930Y007104D01*
X000930Y007262D02*
X003090Y007262D01*
X003090Y007421D02*
X000930Y007421D01*
X000930Y007579D02*
X003090Y007579D01*
X003090Y007738D02*
X000930Y007738D01*
X000930Y007896D02*
X003090Y007896D01*
X003090Y008055D02*
X000930Y008055D01*
X000930Y008213D02*
X003090Y008213D01*
X003090Y008372D02*
X000930Y008372D01*
X000930Y008530D02*
X003090Y008530D01*
X003090Y008689D02*
X000930Y008689D01*
X000930Y008847D02*
X003090Y008847D01*
X003090Y009006D02*
X000930Y009006D01*
X000930Y009164D02*
X003090Y009164D01*
X003090Y009323D02*
X000930Y009323D01*
X000930Y009481D02*
X003090Y009481D01*
X003090Y009640D02*
X000930Y009640D01*
X000930Y009798D02*
X003090Y009798D01*
X003090Y009957D02*
X000930Y009957D01*
X000930Y010115D02*
X003090Y010115D01*
X003090Y010274D02*
X000930Y010274D01*
X000930Y010432D02*
X003043Y010432D01*
X002958Y010591D02*
X000930Y010591D01*
X000930Y010749D02*
X002952Y010749D01*
X003023Y010908D02*
X000930Y010908D01*
X000930Y011066D02*
X008640Y011066D01*
X008640Y010908D02*
X003637Y010908D01*
X003708Y010749D02*
X008640Y010749D01*
X008640Y010591D02*
X003702Y010591D01*
X000930Y011225D02*
X008640Y011225D01*
X008640Y011383D02*
X000930Y011383D01*
X000930Y011542D02*
X008640Y011542D01*
X008640Y011700D02*
X000930Y011700D01*
X000930Y011859D02*
X008640Y011859D01*
X008640Y012017D02*
X000930Y012017D01*
X000930Y012176D02*
X008640Y012176D01*
X008640Y012334D02*
X000930Y012334D01*
X000930Y012493D02*
X008640Y012493D01*
X008640Y012651D02*
X000930Y012651D01*
X000930Y012810D02*
X008640Y012810D01*
X008640Y012968D02*
X000930Y012968D01*
X000930Y013127D02*
X008640Y013127D01*
X008640Y013285D02*
X000930Y013285D01*
X000930Y006311D02*
X003090Y006311D01*
X003090Y006153D02*
X000930Y006153D01*
X000930Y005994D02*
X003090Y005994D01*
X003090Y005836D02*
X000930Y005836D01*
X000930Y005677D02*
X003090Y005677D01*
X003090Y005519D02*
X000930Y005519D01*
X000930Y005360D02*
X003090Y005360D01*
X003090Y005202D02*
X000930Y005202D01*
X000930Y005043D02*
X003090Y005043D01*
X003090Y004885D02*
X000930Y004885D01*
X000930Y004726D02*
X002917Y004726D01*
D12*
X005610Y008040D03*
X003330Y010680D03*
M02*
