G75*
G70*
%OFA0B0*%
%FSLAX24Y24*%
%IPPOS*%
%LPD*%
%AMOC8*
5,1,8,0,0,1.08239X$1,22.5*
%
%ADD10C,0.0720*%
%ADD11C,0.0360*%
%ADD12R,0.0415X0.0946*%
%ADD13R,0.0474X0.0493*%
%ADD14C,0.0820*%
D10*
X006960Y012276D03*
X006960Y013276D03*
X007960Y013276D03*
X007960Y012276D03*
X008960Y012276D03*
X008960Y013276D03*
D11*
X009120Y010986D02*
X009120Y010866D01*
X008500Y010866D01*
X008500Y010986D01*
X009120Y010986D01*
X009120Y010486D02*
X009120Y010366D01*
X008500Y010366D01*
X008500Y010486D01*
X009120Y010486D01*
X009120Y009986D02*
X009120Y009866D01*
X008500Y009866D01*
X008500Y009986D01*
X009120Y009986D01*
X009120Y009486D02*
X009120Y009366D01*
X008500Y009366D01*
X008500Y009486D01*
X009120Y009486D01*
X009120Y008986D02*
X009120Y008866D01*
X008500Y008866D01*
X008500Y008986D01*
X009120Y008986D01*
X009120Y008486D02*
X009120Y008366D01*
X008500Y008366D01*
X008500Y008486D01*
X009120Y008486D01*
X009120Y007986D02*
X009120Y007866D01*
X008500Y007866D01*
X008500Y007986D01*
X009120Y007986D01*
X009120Y007486D02*
X009120Y007366D01*
X008500Y007366D01*
X008500Y007486D01*
X009120Y007486D01*
X009120Y006986D02*
X009120Y006866D01*
X008500Y006866D01*
X008500Y006986D01*
X009120Y006986D01*
X009120Y006486D02*
X009120Y006366D01*
X008500Y006366D01*
X008500Y006486D01*
X009120Y006486D01*
X009120Y005986D02*
X009120Y005866D01*
X008500Y005866D01*
X008500Y005986D01*
X009120Y005986D01*
X009120Y005486D02*
X009120Y005366D01*
X008500Y005366D01*
X008500Y005486D01*
X009120Y005486D01*
X009120Y004986D02*
X009120Y004866D01*
X008500Y004866D01*
X008500Y004986D01*
X009120Y004986D01*
X009120Y004486D02*
X009120Y004366D01*
X008500Y004366D01*
X008500Y004486D01*
X009120Y004486D01*
X009120Y003986D02*
X009120Y003866D01*
X008500Y003866D01*
X008500Y003986D01*
X009120Y003986D01*
X009120Y003486D02*
X009120Y003366D01*
X008500Y003366D01*
X008500Y003486D01*
X009120Y003486D01*
X009120Y002986D02*
X009120Y002866D01*
X008500Y002866D01*
X008500Y002986D01*
X009120Y002986D01*
X009120Y002486D02*
X009120Y002366D01*
X008500Y002366D01*
X008500Y002486D01*
X009120Y002486D01*
X009120Y001986D02*
X009120Y001866D01*
X008500Y001866D01*
X008500Y001986D01*
X009120Y001986D01*
X009120Y001486D02*
X009120Y001366D01*
X008500Y001366D01*
X008500Y001486D01*
X009120Y001486D01*
X005020Y000766D02*
X004900Y000766D01*
X004900Y001386D01*
X005020Y001386D01*
X005020Y000766D01*
X005020Y001125D02*
X004900Y001125D01*
X003520Y000766D02*
X003400Y000766D01*
X003400Y001386D01*
X003520Y001386D01*
X003520Y000766D01*
X003520Y001125D02*
X003400Y001125D01*
X002420Y001366D02*
X002420Y001486D01*
X002420Y001366D02*
X001800Y001366D01*
X001800Y001486D01*
X002420Y001486D01*
X002420Y001866D02*
X002420Y001986D01*
X002420Y001866D02*
X001800Y001866D01*
X001800Y001986D01*
X002420Y001986D01*
X002420Y002366D02*
X002420Y002486D01*
X002420Y002366D02*
X001800Y002366D01*
X001800Y002486D01*
X002420Y002486D01*
X002420Y002866D02*
X002420Y002986D01*
X002420Y002866D02*
X001800Y002866D01*
X001800Y002986D01*
X002420Y002986D01*
X002420Y003366D02*
X002420Y003486D01*
X002420Y003366D02*
X001800Y003366D01*
X001800Y003486D01*
X002420Y003486D01*
X002420Y003866D02*
X002420Y003986D01*
X002420Y003866D02*
X001800Y003866D01*
X001800Y003986D01*
X002420Y003986D01*
X002420Y004366D02*
X002420Y004486D01*
X002420Y004366D02*
X001800Y004366D01*
X001800Y004486D01*
X002420Y004486D01*
X002420Y004866D02*
X002420Y004986D01*
X002420Y004866D02*
X001800Y004866D01*
X001800Y004986D01*
X002420Y004986D01*
X002420Y005366D02*
X002420Y005486D01*
X002420Y005366D02*
X001800Y005366D01*
X001800Y005486D01*
X002420Y005486D01*
X002420Y005866D02*
X002420Y005986D01*
X002420Y005866D02*
X001800Y005866D01*
X001800Y005986D01*
X002420Y005986D01*
X002420Y006366D02*
X002420Y006486D01*
X002420Y006366D02*
X001800Y006366D01*
X001800Y006486D01*
X002420Y006486D01*
X002420Y006866D02*
X002420Y006986D01*
X002420Y006866D02*
X001800Y006866D01*
X001800Y006986D01*
X002420Y006986D01*
X002420Y007366D02*
X002420Y007486D01*
X002420Y007366D02*
X001800Y007366D01*
X001800Y007486D01*
X002420Y007486D01*
X002420Y007866D02*
X002420Y007986D01*
X002420Y007866D02*
X001800Y007866D01*
X001800Y007986D01*
X002420Y007986D01*
X002420Y008366D02*
X002420Y008486D01*
X002420Y008366D02*
X001800Y008366D01*
X001800Y008486D01*
X002420Y008486D01*
X002420Y008866D02*
X002420Y008986D01*
X002420Y008866D02*
X001800Y008866D01*
X001800Y008986D01*
X002420Y008986D01*
X002420Y009366D02*
X002420Y009486D01*
X002420Y009366D02*
X001800Y009366D01*
X001800Y009486D01*
X002420Y009486D01*
X002420Y009866D02*
X002420Y009986D01*
X002420Y009866D02*
X001800Y009866D01*
X001800Y009986D01*
X002420Y009986D01*
X002420Y010366D02*
X002420Y010486D01*
X002420Y010366D02*
X001800Y010366D01*
X001800Y010486D01*
X002420Y010486D01*
X002420Y010866D02*
X002420Y010986D01*
X002420Y010866D02*
X001800Y010866D01*
X001800Y010986D01*
X002420Y010986D01*
X003900Y011586D02*
X004020Y011586D01*
X004020Y010966D01*
X003900Y010966D01*
X003900Y011586D01*
X003900Y011325D02*
X004020Y011325D01*
X004400Y011586D02*
X004520Y011586D01*
X004520Y010966D01*
X004400Y010966D01*
X004400Y011586D01*
X004400Y011325D02*
X004520Y011325D01*
X004900Y011586D02*
X005020Y011586D01*
X005020Y010966D01*
X004900Y010966D01*
X004900Y011586D01*
X004900Y011325D02*
X005020Y011325D01*
X005400Y011586D02*
X005520Y011586D01*
X005520Y010966D01*
X005400Y010966D01*
X005400Y011586D01*
X005400Y011325D02*
X005520Y011325D01*
X005900Y011286D02*
X006020Y011286D01*
X006020Y010966D01*
X005900Y010966D01*
X005900Y011286D01*
X006400Y011286D02*
X006520Y011286D01*
X006520Y010966D01*
X006400Y010966D01*
X006400Y011286D01*
X006900Y011586D02*
X007020Y011586D01*
X007020Y010966D01*
X006900Y010966D01*
X006900Y011586D01*
X006900Y011325D02*
X007020Y011325D01*
D12*
X006001Y012876D03*
X004919Y012876D03*
D13*
X005460Y012276D03*
X005460Y013477D03*
D14*
X000860Y002076D03*
X000860Y003076D03*
M02*
