G75*
G70*
%OFA0B0*%
%FSLAX24Y24*%
%IPPOS*%
%LPD*%
%AMOC8*
5,1,8,0,0,1.08239X$1,22.5*
%
%ADD10C,0.0160*%
%ADD11C,0.0080*%
%ADD12C,0.0050*%
%ADD13R,0.0160X0.0280*%
%ADD14C,0.0010*%
%ADD15C,0.0100*%
%ADD16C,0.0040*%
D10*
X000948Y006076D02*
X000972Y006076D01*
X002160Y007664D02*
X002160Y007688D01*
X002160Y008164D02*
X002160Y008188D01*
X005848Y001676D02*
X005872Y001676D01*
X009148Y001576D02*
X009172Y001576D01*
X008172Y008176D02*
X008148Y008176D01*
X006872Y010176D02*
X006848Y010176D01*
D11*
X001110Y001576D02*
X000610Y001576D01*
X000360Y001826D01*
X000360Y002326D01*
X000610Y002576D01*
X000360Y002826D01*
X000360Y003326D01*
X000610Y003576D01*
X001110Y003576D01*
X001360Y003326D01*
X001360Y002826D01*
X001110Y002576D01*
X001360Y002326D01*
X001360Y001826D01*
X001110Y001576D01*
X002860Y000886D02*
X002860Y003467D01*
X004260Y003467D01*
X004260Y000886D01*
X002860Y000886D01*
X002120Y004307D02*
X002120Y004645D01*
X001666Y004795D02*
X001454Y004795D01*
X001000Y004645D02*
X001000Y004307D01*
X001445Y005392D02*
X002075Y005392D01*
X002232Y005550D01*
X002232Y005983D01*
X002232Y006770D02*
X002232Y007361D01*
X001288Y007361D01*
X001288Y006770D01*
X001288Y005983D02*
X001288Y005550D01*
X001445Y005392D01*
X002899Y006061D02*
X002899Y006283D01*
X005344Y008737D01*
X005567Y008738D01*
X008021Y006292D01*
X008021Y006069D01*
X005576Y003615D01*
X005353Y003615D01*
X002899Y006061D01*
X005310Y009576D02*
X005810Y009576D01*
X005810Y010176D02*
X005310Y010176D01*
X005100Y011983D02*
X005100Y012868D01*
X005041Y012868D02*
X005041Y011983D01*
X005042Y011974D01*
X005047Y011965D01*
X005053Y011959D01*
X005062Y011954D01*
X005071Y011953D01*
X005080Y011954D01*
X005089Y011959D01*
X005095Y011965D01*
X005100Y011974D01*
X005101Y011983D01*
X005651Y012928D02*
X002069Y012928D01*
X002285Y012967D02*
X002285Y013518D01*
X002620Y012868D02*
X002620Y011983D01*
X002619Y011983D02*
X002620Y011974D01*
X002625Y011965D01*
X002631Y011959D01*
X002640Y011954D01*
X002649Y011953D01*
X002658Y011954D01*
X002667Y011959D01*
X002673Y011965D01*
X002678Y011974D01*
X002679Y011983D01*
X002679Y012868D01*
X001714Y013557D02*
X006006Y013557D01*
X006006Y013754D01*
X005966Y013794D01*
X001754Y013794D01*
X001714Y013754D01*
X001714Y013557D01*
X005435Y013518D02*
X005435Y012967D01*
X007445Y010861D02*
X007288Y010703D01*
X007288Y010270D01*
X007445Y010861D02*
X008075Y010861D01*
X008232Y010703D01*
X008232Y010270D01*
X008232Y009483D02*
X008232Y008892D01*
X007288Y008892D01*
X007288Y009483D01*
X008327Y011195D02*
X008327Y011376D01*
X008205Y011284D01*
X008327Y011376D02*
X008327Y011557D01*
X008205Y011462D02*
X008321Y011386D01*
X007696Y002406D02*
X007224Y002406D01*
X006476Y001894D02*
X006476Y001658D01*
X007224Y001146D02*
X007696Y001146D01*
X008444Y001658D02*
X008444Y001894D01*
D12*
X008160Y010026D02*
X007360Y010026D01*
X002160Y006226D02*
X001360Y006226D01*
D13*
X002860Y004076D03*
X003260Y008776D03*
X003260Y009276D03*
X007160Y011376D03*
X008860Y004476D03*
X008860Y003976D03*
X008860Y003476D03*
X008860Y002976D03*
D14*
X008715Y001959D02*
X008715Y001859D01*
X008865Y001859D01*
X008840Y001812D02*
X008865Y001787D01*
X008865Y001712D01*
X008865Y001664D02*
X008865Y001564D01*
X008765Y001664D01*
X008740Y001664D01*
X008715Y001639D01*
X008715Y001589D01*
X008740Y001564D01*
X008740Y001517D02*
X008715Y001492D01*
X008715Y001442D01*
X008740Y001417D01*
X008740Y001517D02*
X008765Y001517D01*
X008865Y001417D01*
X008865Y001517D01*
X008915Y001712D02*
X008765Y001712D01*
X008765Y001787D01*
X008790Y001812D01*
X008840Y001812D01*
X008790Y001859D02*
X008790Y001909D01*
X009440Y001859D02*
X009440Y001809D01*
X009465Y001784D01*
X009465Y001737D02*
X009440Y001712D01*
X009440Y001662D01*
X009465Y001637D01*
X009565Y001637D01*
X009590Y001662D01*
X009590Y001712D01*
X009565Y001737D01*
X009590Y001784D02*
X009490Y001884D01*
X009465Y001884D01*
X009440Y001859D01*
X009590Y001884D02*
X009590Y001784D01*
X007154Y000881D02*
X007054Y000781D01*
X007154Y000781D01*
X007154Y000881D02*
X007054Y000881D01*
X007007Y000856D02*
X006907Y000856D01*
X006907Y000781D02*
X006907Y000931D01*
X006860Y000931D02*
X006860Y000781D01*
X006760Y000781D02*
X006760Y000931D01*
X006810Y000881D01*
X006860Y000931D01*
X006712Y000931D02*
X006662Y000906D01*
X006612Y000856D01*
X006687Y000856D01*
X006712Y000831D01*
X006712Y000806D01*
X006687Y000781D01*
X006637Y000781D01*
X006612Y000806D01*
X006612Y000856D01*
X006565Y000781D02*
X006465Y000781D01*
X006515Y000781D02*
X006515Y000931D01*
X006465Y000881D01*
X007007Y000931D02*
X007007Y000781D01*
X006265Y001737D02*
X006290Y001762D01*
X006290Y001812D01*
X006265Y001837D01*
X006215Y001884D02*
X006215Y001984D01*
X006290Y001959D02*
X006140Y001959D01*
X006215Y001884D01*
X006165Y001837D02*
X006140Y001812D01*
X006140Y001762D01*
X006165Y001737D01*
X006265Y001737D01*
X005615Y001812D02*
X005465Y001812D01*
X005465Y001887D01*
X005490Y001912D01*
X005540Y001912D01*
X005565Y001887D01*
X005565Y001812D01*
X005565Y001764D02*
X005565Y001664D01*
X005465Y001764D01*
X005440Y001764D01*
X005415Y001739D01*
X005415Y001689D01*
X005440Y001664D01*
X005440Y001617D02*
X005415Y001592D01*
X005415Y001542D01*
X005440Y001517D01*
X005440Y001617D02*
X005465Y001617D01*
X005565Y001517D01*
X005565Y001617D01*
X005565Y001959D02*
X005415Y001959D01*
X005415Y002059D01*
X005490Y002009D02*
X005490Y001959D01*
X006103Y007096D02*
X006209Y007202D01*
X006102Y007202D01*
X006173Y007132D01*
X006034Y007200D02*
X006122Y007289D01*
X006051Y007359D02*
X005963Y007271D01*
X005963Y007235D01*
X005998Y007200D01*
X006034Y007200D01*
X005912Y007286D02*
X005841Y007357D01*
X005982Y007357D01*
X006000Y007375D01*
X006000Y007410D01*
X005964Y007446D01*
X005929Y007446D01*
X005896Y007479D02*
X005878Y007461D01*
X005842Y007461D01*
X005843Y007426D01*
X005825Y007408D01*
X005789Y007408D01*
X005754Y007443D01*
X005754Y007479D01*
X005703Y007494D02*
X005774Y007565D01*
X005773Y007636D01*
X005703Y007636D01*
X005632Y007565D01*
X005616Y007616D02*
X005581Y007616D01*
X005545Y007651D01*
X005545Y007687D01*
X005616Y007758D01*
X005651Y007758D01*
X005687Y007722D01*
X005687Y007687D01*
X005651Y007651D02*
X005616Y007687D01*
X005651Y007651D02*
X005616Y007616D01*
X005685Y007618D02*
X005756Y007547D01*
X005825Y007550D02*
X005860Y007550D01*
X005895Y007514D01*
X005896Y007479D01*
X005842Y007461D02*
X005825Y007479D01*
X005600Y007809D02*
X005529Y007879D01*
X005423Y007773D01*
X005494Y007702D01*
X005512Y007791D02*
X005476Y007826D01*
X005390Y007806D02*
X005496Y007913D01*
X005425Y007913D01*
X005425Y007983D01*
X005319Y007877D01*
X005250Y007946D02*
X005356Y008052D01*
X005321Y008087D02*
X005391Y008017D01*
X005252Y008085D02*
X005181Y008014D01*
X005234Y008067D02*
X005163Y008138D01*
X005181Y008156D02*
X005252Y008156D01*
X005252Y008085D01*
X005181Y008156D02*
X005110Y008085D01*
X007915Y010956D02*
X007915Y011106D01*
X007990Y011106D01*
X008015Y011081D01*
X008015Y011031D01*
X007990Y011006D01*
X007915Y011006D01*
X008062Y010981D02*
X008062Y011081D01*
X008087Y011106D01*
X008137Y011106D01*
X008162Y011081D01*
X008162Y010981D01*
X008137Y010956D01*
X008087Y010956D01*
X008062Y010981D01*
X008210Y010956D02*
X008260Y011006D01*
X008310Y010956D01*
X008310Y011106D01*
X008357Y011106D02*
X008357Y010956D01*
X008457Y010956D01*
X008504Y010956D02*
X008504Y011106D01*
X008579Y011106D01*
X008604Y011081D01*
X008604Y011031D01*
X008579Y011006D01*
X008504Y011006D01*
X008554Y011006D02*
X008604Y010956D01*
X008457Y011106D02*
X008357Y011106D01*
X008357Y011031D02*
X008407Y011031D01*
X008210Y011106D02*
X008210Y010956D01*
D15*
X005345Y008403D02*
X005347Y008423D01*
X005352Y008443D01*
X005362Y008461D01*
X005374Y008478D01*
X005389Y008492D01*
X005407Y008502D01*
X005426Y008510D01*
X005446Y008514D01*
X005466Y008514D01*
X005486Y008510D01*
X005505Y008502D01*
X005523Y008492D01*
X005538Y008478D01*
X005550Y008461D01*
X005560Y008443D01*
X005565Y008423D01*
X005567Y008403D01*
X005565Y008383D01*
X005560Y008363D01*
X005550Y008345D01*
X005538Y008328D01*
X005523Y008314D01*
X005505Y008304D01*
X005486Y008296D01*
X005466Y008292D01*
X005446Y008292D01*
X005426Y008296D01*
X005407Y008304D01*
X005389Y008314D01*
X005374Y008328D01*
X005362Y008345D01*
X005352Y008363D01*
X005347Y008383D01*
X005345Y008403D01*
D16*
X004844Y012711D02*
X004746Y012849D01*
X004746Y012868D01*
X004943Y012868D01*
X004943Y012849D01*
X004844Y012711D01*
X004840Y012717D02*
X004849Y012717D01*
X004876Y012756D02*
X004812Y012756D01*
X004785Y012794D02*
X004904Y012794D01*
X004931Y012833D02*
X004757Y012833D01*
X004766Y013597D02*
X004766Y013656D01*
X004864Y013754D01*
X004864Y013597D01*
X002954Y013597D02*
X002954Y013656D01*
X002856Y013754D01*
X002856Y013597D01*
M02*
