G75*
G70*
%OFA0B0*%
%FSLAX24Y24*%
%IPPOS*%
%LPD*%
%AMOC8*
5,1,8,0,0,1.08239X$1,22.5*
%
%ADD10R,0.0434X0.0356*%
%ADD11R,0.0710X0.0631*%
%ADD12R,0.0356X0.0434*%
%ADD13R,0.0395X0.0395*%
%ADD14R,0.0671X0.0277*%
%ADD15R,0.0277X0.0671*%
%ADD16R,0.0828X0.0513*%
%ADD17R,0.0474X0.0789*%
%ADD18R,0.0297X0.0552*%
%ADD19C,0.0720*%
%ADD20R,0.0198X0.0395*%
%ADD21R,0.0453X0.0866*%
%ADD22R,0.0512X0.1201*%
%ADD23R,0.0867X0.0671*%
%ADD24R,0.0867X0.1576*%
%ADD25C,0.0820*%
D10*
X000960Y005820D03*
X000960Y006332D03*
X005860Y001932D03*
X005860Y001420D03*
X009160Y001320D03*
X009160Y001832D03*
X008160Y007920D03*
X008160Y008432D03*
X006860Y009920D03*
X006860Y010432D03*
D11*
X007760Y010428D03*
X007760Y009325D03*
X001760Y006928D03*
X001760Y005825D03*
D12*
X001904Y007676D03*
X001904Y008176D03*
X002416Y008176D03*
X002416Y007676D03*
X003004Y008776D03*
X003004Y009276D03*
X003516Y009276D03*
X003516Y008776D03*
X003116Y004076D03*
X002604Y004076D03*
X006904Y011376D03*
X007416Y011376D03*
X008604Y004476D03*
X008604Y003976D03*
X008604Y003476D03*
X008604Y002976D03*
X009116Y002976D03*
X009116Y003476D03*
X009116Y003976D03*
X009116Y004476D03*
D13*
X008555Y011376D03*
X007965Y011376D03*
D14*
G36*
X005093Y008570D02*
X004620Y009042D01*
X004815Y009238D01*
X005288Y008766D01*
X005093Y008570D01*
G37*
G36*
X004871Y008347D02*
X004398Y008819D01*
X004593Y009015D01*
X005066Y008543D01*
X004871Y008347D01*
G37*
G36*
X004648Y008123D02*
X004175Y008595D01*
X004370Y008791D01*
X004843Y008319D01*
X004648Y008123D01*
G37*
G36*
X004426Y007900D02*
X003953Y008372D01*
X004148Y008568D01*
X004621Y008096D01*
X004426Y007900D01*
G37*
G36*
X004204Y007677D02*
X003731Y008149D01*
X003926Y008345D01*
X004399Y007873D01*
X004204Y007677D01*
G37*
G36*
X003982Y007454D02*
X003509Y007926D01*
X003704Y008122D01*
X004177Y007650D01*
X003982Y007454D01*
G37*
G36*
X003759Y007231D02*
X003286Y007703D01*
X003481Y007899D01*
X003954Y007427D01*
X003759Y007231D01*
G37*
G36*
X003537Y007008D02*
X003064Y007480D01*
X003259Y007676D01*
X003732Y007204D01*
X003537Y007008D01*
G37*
G36*
X003315Y006785D02*
X002842Y007257D01*
X003037Y007453D01*
X003510Y006981D01*
X003315Y006785D01*
G37*
G36*
X003092Y006562D02*
X002619Y007034D01*
X002814Y007230D01*
X003287Y006758D01*
X003092Y006562D01*
G37*
G36*
X002870Y006339D02*
X002397Y006811D01*
X002592Y007007D01*
X003065Y006535D01*
X002870Y006339D01*
G37*
G36*
X006105Y003115D02*
X005632Y003587D01*
X005827Y003783D01*
X006300Y003311D01*
X006105Y003115D01*
G37*
G36*
X006327Y003338D02*
X005854Y003810D01*
X006049Y004006D01*
X006522Y003534D01*
X006327Y003338D01*
G37*
G36*
X006550Y003561D02*
X006077Y004033D01*
X006272Y004229D01*
X006745Y003757D01*
X006550Y003561D01*
G37*
G36*
X006772Y003784D02*
X006299Y004256D01*
X006494Y004452D01*
X006967Y003980D01*
X006772Y003784D01*
G37*
G36*
X006994Y004007D02*
X006521Y004479D01*
X006716Y004675D01*
X007189Y004203D01*
X006994Y004007D01*
G37*
G36*
X007216Y004231D02*
X006743Y004703D01*
X006938Y004899D01*
X007411Y004427D01*
X007216Y004231D01*
G37*
G36*
X007439Y004454D02*
X006966Y004926D01*
X007161Y005122D01*
X007634Y004650D01*
X007439Y004454D01*
G37*
G36*
X007661Y004677D02*
X007188Y005149D01*
X007383Y005345D01*
X007856Y004873D01*
X007661Y004677D01*
G37*
G36*
X007883Y004900D02*
X007410Y005372D01*
X007605Y005568D01*
X008078Y005096D01*
X007883Y004900D01*
G37*
G36*
X008106Y005123D02*
X007633Y005595D01*
X007828Y005791D01*
X008301Y005319D01*
X008106Y005123D01*
G37*
G36*
X008328Y005346D02*
X007855Y005818D01*
X008050Y006014D01*
X008523Y005542D01*
X008328Y005346D01*
G37*
D15*
G36*
X008049Y006348D02*
X007853Y006543D01*
X008325Y007016D01*
X008521Y006821D01*
X008049Y006348D01*
G37*
G36*
X007826Y006571D02*
X007630Y006766D01*
X008102Y007239D01*
X008298Y007044D01*
X007826Y006571D01*
G37*
G36*
X007603Y006793D02*
X007407Y006988D01*
X007879Y007461D01*
X008075Y007266D01*
X007603Y006793D01*
G37*
G36*
X007380Y007015D02*
X007184Y007210D01*
X007656Y007683D01*
X007852Y007488D01*
X007380Y007015D01*
G37*
G36*
X007157Y007238D02*
X006961Y007433D01*
X007433Y007906D01*
X007629Y007711D01*
X007157Y007238D01*
G37*
G36*
X006934Y007460D02*
X006738Y007655D01*
X007210Y008128D01*
X007406Y007933D01*
X006934Y007460D01*
G37*
G36*
X006711Y007682D02*
X006515Y007877D01*
X006987Y008350D01*
X007183Y008155D01*
X006711Y007682D01*
G37*
G36*
X006488Y007904D02*
X006292Y008099D01*
X006764Y008572D01*
X006960Y008377D01*
X006488Y007904D01*
G37*
G36*
X006265Y008127D02*
X006069Y008322D01*
X006541Y008795D01*
X006737Y008600D01*
X006265Y008127D01*
G37*
G36*
X006041Y008349D02*
X005845Y008544D01*
X006317Y009017D01*
X006513Y008822D01*
X006041Y008349D01*
G37*
G36*
X005818Y008571D02*
X005622Y008766D01*
X006094Y009239D01*
X006290Y009044D01*
X005818Y008571D01*
G37*
G36*
X003264Y004670D02*
X003068Y004865D01*
X003540Y005338D01*
X003736Y005143D01*
X003264Y004670D01*
G37*
G36*
X003487Y004447D02*
X003291Y004642D01*
X003763Y005115D01*
X003959Y004920D01*
X003487Y004447D01*
G37*
G36*
X003710Y004225D02*
X003514Y004420D01*
X003986Y004893D01*
X004182Y004698D01*
X003710Y004225D01*
G37*
G36*
X003933Y004003D02*
X003737Y004198D01*
X004209Y004671D01*
X004405Y004476D01*
X003933Y004003D01*
G37*
G36*
X004156Y003780D02*
X003960Y003975D01*
X004432Y004448D01*
X004628Y004253D01*
X004156Y003780D01*
G37*
G36*
X004379Y003558D02*
X004183Y003753D01*
X004655Y004226D01*
X004851Y004031D01*
X004379Y003558D01*
G37*
G36*
X004603Y003336D02*
X004407Y003531D01*
X004879Y004004D01*
X005075Y003809D01*
X004603Y003336D01*
G37*
G36*
X004826Y003113D02*
X004630Y003308D01*
X005102Y003781D01*
X005298Y003586D01*
X004826Y003113D01*
G37*
G36*
X003041Y004892D02*
X002845Y005087D01*
X003317Y005560D01*
X003513Y005365D01*
X003041Y004892D01*
G37*
G36*
X002818Y005114D02*
X002622Y005309D01*
X003094Y005782D01*
X003290Y005587D01*
X002818Y005114D01*
G37*
G36*
X002595Y005336D02*
X002399Y005531D01*
X002871Y006004D01*
X003067Y005809D01*
X002595Y005336D01*
G37*
D16*
X006732Y002229D03*
X006732Y001324D03*
X008188Y001324D03*
X008188Y002229D03*
D17*
X006111Y009876D03*
X005009Y009876D03*
D18*
X001934Y004988D03*
X001934Y003965D03*
X001560Y003965D03*
X001186Y003965D03*
X001186Y004988D03*
D19*
X006960Y012276D03*
X006960Y013276D03*
X007960Y013276D03*
X007960Y012276D03*
X008960Y012276D03*
X008960Y013276D03*
D20*
X004746Y011392D03*
X004549Y011392D03*
X004352Y011392D03*
X004155Y011392D03*
X003958Y011392D03*
X003762Y011392D03*
X003565Y011392D03*
X003368Y011392D03*
X003171Y011392D03*
X002974Y011392D03*
D21*
X001764Y012022D03*
X005956Y012022D03*
D22*
X005494Y012189D03*
X002226Y012189D03*
D23*
X002320Y003082D03*
X002320Y002176D03*
X002320Y001271D03*
D24*
X004800Y002176D03*
D25*
X000860Y002076D03*
X000860Y003076D03*
M02*
