G75*
G70*
%OFA0B0*%
%FSLAX24Y24*%
%IPPOS*%
%LPD*%
%AMOC8*
5,1,8,0,0,1.08239X$1,22.5*
%
%ADD10C,0.0700*%
%ADD11C,0.0555*%
%ADD12C,0.0320*%
%ADD13C,0.0160*%
%ADD14R,0.0436X0.0436*%
D10*
X001545Y005975D03*
X001545Y007385D03*
X002955Y007385D03*
X002955Y005975D03*
D11*
X002959Y004255D03*
X002959Y003467D03*
X002959Y002680D03*
X002959Y001893D03*
X002959Y001105D03*
D12*
X002959Y001893D02*
X001545Y003306D01*
X001545Y005975D01*
X001545Y007385D02*
X001545Y010475D01*
X003050Y011980D01*
X003876Y008306D02*
X005250Y008306D01*
X006150Y009380D01*
X003876Y008306D02*
X002955Y007385D01*
D13*
X000930Y013396D02*
X000930Y000360D01*
X007540Y000360D01*
X007540Y013396D01*
X000930Y013396D01*
X000930Y013285D02*
X007540Y013285D01*
X007540Y013127D02*
X000930Y013127D01*
X000930Y012968D02*
X007540Y012968D01*
X007540Y012810D02*
X000930Y012810D01*
X000930Y012651D02*
X007540Y012651D01*
X007540Y012493D02*
X000930Y012493D01*
X000930Y012334D02*
X002742Y012334D01*
X002766Y012358D02*
X002672Y012264D01*
X002672Y012054D01*
X001364Y010747D01*
X001274Y010657D01*
X001225Y010539D01*
X001225Y007786D01*
X001113Y007674D01*
X001035Y007486D01*
X001035Y007283D01*
X001113Y007096D01*
X001256Y006952D01*
X001444Y006875D01*
X001647Y006875D01*
X001834Y006952D01*
X001978Y007096D01*
X002010Y007174D01*
X002010Y006186D01*
X001978Y006264D01*
X001834Y006408D01*
X001647Y006485D01*
X001444Y006485D01*
X001256Y006408D01*
X001113Y006264D01*
X001035Y006077D01*
X001035Y005874D01*
X001113Y005686D01*
X001225Y005574D01*
X001225Y003242D01*
X001274Y003125D01*
X002521Y001878D01*
X002521Y001806D01*
X002588Y001645D01*
X002711Y001522D01*
X002743Y001509D01*
X002719Y001496D01*
X002661Y001454D01*
X002610Y001403D01*
X002567Y001345D01*
X002535Y001281D01*
X002512Y001212D01*
X002501Y001141D01*
X002501Y001105D01*
X002501Y001069D01*
X002512Y000998D01*
X002535Y000930D01*
X002567Y000865D01*
X002610Y000807D01*
X002661Y000756D01*
X002719Y000714D01*
X002783Y000681D01*
X002852Y000659D01*
X002923Y000648D01*
X002959Y000648D01*
X002995Y000648D01*
X003066Y000659D01*
X003134Y000681D01*
X003198Y000714D01*
X003257Y000756D01*
X003308Y000807D01*
X003350Y000865D01*
X003383Y000930D01*
X003405Y000998D01*
X003416Y001069D01*
X003416Y001105D01*
X002959Y001105D01*
X002959Y001105D01*
X002959Y000648D01*
X002959Y001105D01*
X002959Y001105D01*
X003416Y001105D01*
X003416Y001141D01*
X003405Y001212D01*
X003383Y001281D01*
X003350Y001345D01*
X003308Y001403D01*
X003257Y001454D01*
X003198Y001496D01*
X003175Y001509D01*
X003206Y001522D01*
X003330Y001645D01*
X003396Y001806D01*
X003396Y001980D01*
X003330Y002140D01*
X003206Y002263D01*
X003151Y002286D01*
X003206Y002309D01*
X003330Y002432D01*
X003396Y002593D01*
X003396Y002767D01*
X003330Y002928D01*
X003206Y003051D01*
X003151Y003074D01*
X003206Y003097D01*
X003330Y003220D01*
X003396Y003380D01*
X003396Y003554D01*
X003393Y003562D01*
X006686Y006855D01*
X006753Y006923D01*
X006790Y007011D01*
X006790Y009602D01*
X006834Y009602D01*
X006928Y009696D01*
X006928Y010264D01*
X006834Y010358D01*
X006266Y010358D01*
X006172Y010264D01*
X006172Y009758D01*
X005866Y009758D01*
X005772Y009664D01*
X005772Y009427D01*
X005101Y008626D01*
X003813Y008626D01*
X003695Y008578D01*
X003605Y008488D01*
X003012Y007895D01*
X002853Y007895D01*
X002666Y007817D01*
X002522Y007674D01*
X002490Y007595D01*
X002490Y008281D01*
X004186Y009977D01*
X004253Y010044D01*
X004290Y010132D01*
X004290Y010202D01*
X004334Y010202D01*
X004428Y010296D01*
X004428Y010864D01*
X004334Y010958D01*
X003766Y010958D01*
X003672Y010864D01*
X003672Y010296D01*
X003749Y010218D01*
X002047Y008516D01*
X002010Y008428D01*
X002010Y007595D01*
X001978Y007674D01*
X001865Y007786D01*
X001865Y010343D01*
X003124Y011602D01*
X003334Y011602D01*
X003428Y011696D01*
X003428Y012264D01*
X003334Y012358D01*
X002766Y012358D01*
X002672Y012176D02*
X000930Y012176D01*
X000930Y012017D02*
X002634Y012017D01*
X002476Y011859D02*
X000930Y011859D01*
X000930Y011700D02*
X002317Y011700D01*
X002159Y011542D02*
X000930Y011542D01*
X000930Y011383D02*
X002000Y011383D01*
X001842Y011225D02*
X000930Y011225D01*
X000930Y011066D02*
X001683Y011066D01*
X001525Y010908D02*
X000930Y010908D01*
X000930Y010749D02*
X001366Y010749D01*
X001247Y010591D02*
X000930Y010591D01*
X000930Y010432D02*
X001225Y010432D01*
X001225Y010274D02*
X000930Y010274D01*
X000930Y010115D02*
X001225Y010115D01*
X001225Y009957D02*
X000930Y009957D01*
X000930Y009798D02*
X001225Y009798D01*
X001225Y009640D02*
X000930Y009640D01*
X000930Y009481D02*
X001225Y009481D01*
X001225Y009323D02*
X000930Y009323D01*
X000930Y009164D02*
X001225Y009164D01*
X001225Y009006D02*
X000930Y009006D01*
X000930Y008847D02*
X001225Y008847D01*
X001225Y008689D02*
X000930Y008689D01*
X000930Y008530D02*
X001225Y008530D01*
X001225Y008372D02*
X000930Y008372D01*
X000930Y008213D02*
X001225Y008213D01*
X001225Y008055D02*
X000930Y008055D01*
X000930Y007896D02*
X001225Y007896D01*
X001177Y007738D02*
X000930Y007738D01*
X000930Y007579D02*
X001074Y007579D01*
X001035Y007421D02*
X000930Y007421D01*
X000930Y007262D02*
X001044Y007262D01*
X001110Y007104D02*
X000930Y007104D01*
X000930Y006945D02*
X001274Y006945D01*
X001406Y006470D02*
X000930Y006470D01*
X000930Y006628D02*
X002010Y006628D01*
X002010Y006470D02*
X001685Y006470D01*
X001931Y006311D02*
X002010Y006311D01*
X002010Y006787D02*
X000930Y006787D01*
X000930Y006311D02*
X001160Y006311D01*
X001067Y006153D02*
X000930Y006153D01*
X000930Y005994D02*
X001035Y005994D01*
X001051Y005836D02*
X000930Y005836D01*
X000930Y005677D02*
X001122Y005677D01*
X001225Y005519D02*
X000930Y005519D01*
X000930Y005360D02*
X001225Y005360D01*
X001225Y005202D02*
X000930Y005202D01*
X000930Y005043D02*
X001225Y005043D01*
X001225Y004885D02*
X000930Y004885D01*
X000930Y004726D02*
X001225Y004726D01*
X001225Y004568D02*
X000930Y004568D01*
X000930Y004409D02*
X001225Y004409D01*
X001225Y004251D02*
X000930Y004251D01*
X000930Y004092D02*
X001225Y004092D01*
X001225Y003934D02*
X000930Y003934D01*
X000930Y003775D02*
X001225Y003775D01*
X001225Y003617D02*
X000930Y003617D01*
X000930Y003458D02*
X001225Y003458D01*
X001225Y003300D02*
X000930Y003300D01*
X000930Y003141D02*
X001267Y003141D01*
X001416Y002983D02*
X000930Y002983D01*
X000930Y002824D02*
X001575Y002824D01*
X001733Y002666D02*
X000930Y002666D01*
X000930Y002507D02*
X001892Y002507D01*
X002050Y002349D02*
X000930Y002349D01*
X000930Y002190D02*
X002209Y002190D01*
X002367Y002032D02*
X000930Y002032D01*
X000930Y001873D02*
X002521Y001873D01*
X002559Y001715D02*
X000930Y001715D01*
X000930Y001556D02*
X002677Y001556D01*
X002606Y001398D02*
X000930Y001398D01*
X000930Y001239D02*
X002521Y001239D01*
X002501Y001105D02*
X002959Y001105D01*
X002501Y001105D01*
X002501Y001081D02*
X000930Y001081D01*
X000930Y000922D02*
X002539Y000922D01*
X002653Y000764D02*
X000930Y000764D01*
X000930Y000605D02*
X007540Y000605D01*
X007540Y000447D02*
X000930Y000447D01*
X002959Y000764D02*
X002959Y000764D01*
X002959Y000922D02*
X002959Y000922D01*
X002959Y001081D02*
X002959Y001081D01*
X002959Y001105D02*
X002959Y001105D01*
X003241Y001556D02*
X007540Y001556D01*
X007540Y001398D02*
X003312Y001398D01*
X003396Y001239D02*
X007540Y001239D01*
X007540Y001081D02*
X003416Y001081D01*
X003379Y000922D02*
X007540Y000922D01*
X007540Y000764D02*
X003264Y000764D01*
X003358Y001715D02*
X007540Y001715D01*
X007540Y001873D02*
X003396Y001873D01*
X003375Y002032D02*
X007540Y002032D01*
X007540Y002190D02*
X003280Y002190D01*
X003246Y002349D02*
X007540Y002349D01*
X007540Y002507D02*
X003361Y002507D01*
X003396Y002666D02*
X007540Y002666D01*
X007540Y002824D02*
X003373Y002824D01*
X003275Y002983D02*
X007540Y002983D01*
X007540Y003141D02*
X003251Y003141D01*
X003363Y003300D02*
X007540Y003300D01*
X007540Y003458D02*
X003396Y003458D01*
X003447Y003617D02*
X007540Y003617D01*
X007540Y003775D02*
X003606Y003775D01*
X003764Y003934D02*
X007540Y003934D01*
X007540Y004092D02*
X003923Y004092D01*
X004081Y004251D02*
X007540Y004251D01*
X007540Y004409D02*
X004240Y004409D01*
X004398Y004568D02*
X007540Y004568D01*
X007540Y004726D02*
X004557Y004726D01*
X004715Y004885D02*
X007540Y004885D01*
X007540Y005043D02*
X004874Y005043D01*
X005032Y005202D02*
X007540Y005202D01*
X007540Y005360D02*
X005191Y005360D01*
X005349Y005519D02*
X007540Y005519D01*
X007540Y005677D02*
X005508Y005677D01*
X005666Y005836D02*
X007540Y005836D01*
X007540Y005994D02*
X005825Y005994D01*
X005983Y006153D02*
X007540Y006153D01*
X007540Y006311D02*
X006142Y006311D01*
X006300Y006470D02*
X007540Y006470D01*
X007540Y006628D02*
X006459Y006628D01*
X006617Y006787D02*
X007540Y006787D01*
X007540Y006945D02*
X006763Y006945D01*
X006790Y007104D02*
X007540Y007104D01*
X007540Y007262D02*
X006790Y007262D01*
X006790Y007421D02*
X007540Y007421D01*
X007540Y007579D02*
X006790Y007579D01*
X006790Y007738D02*
X007540Y007738D01*
X007540Y007896D02*
X006790Y007896D01*
X006790Y008055D02*
X007540Y008055D01*
X007540Y008213D02*
X006790Y008213D01*
X006790Y008372D02*
X007540Y008372D01*
X007540Y008530D02*
X006790Y008530D01*
X006790Y008689D02*
X007540Y008689D01*
X007540Y008847D02*
X006790Y008847D01*
X006790Y009006D02*
X007540Y009006D01*
X007540Y009164D02*
X006790Y009164D01*
X006790Y009323D02*
X007540Y009323D01*
X007540Y009481D02*
X006790Y009481D01*
X006872Y009640D02*
X007540Y009640D01*
X007540Y009798D02*
X006928Y009798D01*
X006928Y009957D02*
X007540Y009957D01*
X007540Y010115D02*
X006928Y010115D01*
X006919Y010274D02*
X007540Y010274D01*
X007540Y010432D02*
X004428Y010432D01*
X004428Y010591D02*
X007540Y010591D01*
X007540Y010749D02*
X004428Y010749D01*
X004385Y010908D02*
X007540Y010908D01*
X007540Y011066D02*
X002589Y011066D01*
X002747Y011225D02*
X007540Y011225D01*
X007540Y011383D02*
X002906Y011383D01*
X003064Y011542D02*
X007540Y011542D01*
X007540Y011700D02*
X003428Y011700D01*
X003428Y011859D02*
X007540Y011859D01*
X007540Y012017D02*
X003428Y012017D01*
X003428Y012176D02*
X007540Y012176D01*
X007540Y012334D02*
X003358Y012334D01*
X003715Y010908D02*
X002430Y010908D01*
X002272Y010749D02*
X003672Y010749D01*
X003672Y010591D02*
X002113Y010591D01*
X001955Y010432D02*
X003672Y010432D01*
X003694Y010274D02*
X001865Y010274D01*
X001865Y010115D02*
X003646Y010115D01*
X003487Y009957D02*
X001865Y009957D01*
X001865Y009798D02*
X003329Y009798D01*
X003170Y009640D02*
X001865Y009640D01*
X001865Y009481D02*
X003012Y009481D01*
X002853Y009323D02*
X001865Y009323D01*
X001865Y009164D02*
X002695Y009164D01*
X002536Y009006D02*
X001865Y009006D01*
X001865Y008847D02*
X002378Y008847D01*
X002219Y008689D02*
X001865Y008689D01*
X001865Y008530D02*
X002061Y008530D01*
X002010Y008372D02*
X001865Y008372D01*
X001865Y008213D02*
X002010Y008213D01*
X002010Y008055D02*
X001865Y008055D01*
X001865Y007896D02*
X002010Y007896D01*
X002010Y007738D02*
X001914Y007738D01*
X002250Y008380D02*
X004050Y010180D01*
X004050Y010580D01*
X004283Y010115D02*
X006172Y010115D01*
X006172Y009957D02*
X004166Y009957D01*
X004007Y009798D02*
X006172Y009798D01*
X006181Y010274D02*
X004406Y010274D01*
X003849Y009640D02*
X005772Y009640D01*
X005772Y009481D02*
X003690Y009481D01*
X003532Y009323D02*
X005684Y009323D01*
X005551Y009164D02*
X003373Y009164D01*
X003215Y009006D02*
X005419Y009006D01*
X005286Y008847D02*
X003056Y008847D01*
X002898Y008689D02*
X005153Y008689D01*
X006550Y009980D02*
X006550Y007059D01*
X002959Y003467D01*
X002959Y004255D02*
X002250Y004963D01*
X002250Y008380D01*
X002490Y008213D02*
X003330Y008213D01*
X003172Y008055D02*
X002490Y008055D01*
X002490Y007896D02*
X003013Y007896D01*
X002739Y008530D02*
X003647Y008530D01*
X003489Y008372D02*
X002581Y008372D01*
X002586Y007738D02*
X002490Y007738D01*
X002010Y007104D02*
X001981Y007104D01*
X002010Y006945D02*
X001816Y006945D01*
D14*
X004050Y010580D03*
X003050Y011980D03*
X006150Y009380D03*
X006550Y009980D03*
M02*
