G75*
G70*
%OFA0B0*%
%FSLAX24Y24*%
%IPPOS*%
%LPD*%
%AMOC8*
5,1,8,0,0,1.08239X$1,22.5*
%
%ADD10R,0.0276X0.0354*%
%ADD11R,0.0551X0.0630*%
%ADD12R,0.0354X0.0276*%
%ADD13R,0.0315X0.0315*%
%ADD14R,0.0591X0.0197*%
%ADD15R,0.0197X0.0591*%
%ADD16R,0.0748X0.0433*%
%ADD17R,0.0709X0.0394*%
%ADD18R,0.0472X0.0217*%
%ADD19R,0.2953X0.0591*%
%ADD20R,0.2559X0.0394*%
%ADD21R,0.0669X0.0335*%
D10*
X004944Y006401D03*
X005456Y006401D03*
X005456Y007201D03*
X004944Y007201D03*
X004944Y007801D03*
X005456Y007801D03*
X006044Y008201D03*
X006556Y008201D03*
X008644Y008701D03*
X009156Y008701D03*
X009156Y009201D03*
X008644Y009201D03*
X009844Y010301D03*
X010356Y010301D03*
X010356Y010801D03*
X009844Y010801D03*
X012444Y009601D03*
X012956Y009601D03*
X012744Y011601D03*
X013256Y011601D03*
X009256Y004301D03*
X008744Y004301D03*
X010344Y002701D03*
X010856Y002701D03*
D11*
X012449Y010701D03*
X013551Y010701D03*
X009851Y011601D03*
X008749Y011601D03*
D12*
X013300Y012245D03*
X013300Y012757D03*
X013700Y009857D03*
X013700Y009345D03*
X014600Y002257D03*
X014600Y001745D03*
X011400Y001757D03*
X011400Y001245D03*
D13*
X010700Y001496D03*
X010700Y000905D03*
X009495Y012501D03*
X008905Y012501D03*
D14*
G36*
X011733Y008351D02*
X011316Y008766D01*
X011455Y008905D01*
X011872Y008490D01*
X011733Y008351D01*
G37*
G36*
X011511Y008128D02*
X011094Y008543D01*
X011233Y008682D01*
X011650Y008267D01*
X011511Y008128D01*
G37*
G36*
X011288Y007905D02*
X010871Y008320D01*
X011010Y008459D01*
X011427Y008044D01*
X011288Y007905D01*
G37*
G36*
X011066Y007682D02*
X010649Y008097D01*
X010788Y008236D01*
X011205Y007821D01*
X011066Y007682D01*
G37*
G36*
X010844Y007459D02*
X010427Y007874D01*
X010566Y008013D01*
X010983Y007598D01*
X010844Y007459D01*
G37*
G36*
X010622Y007235D02*
X010205Y007650D01*
X010344Y007789D01*
X010761Y007374D01*
X010622Y007235D01*
G37*
G36*
X010399Y007012D02*
X009982Y007427D01*
X010121Y007566D01*
X010538Y007151D01*
X010399Y007012D01*
G37*
G36*
X010177Y006789D02*
X009760Y007204D01*
X009899Y007343D01*
X010316Y006928D01*
X010177Y006789D01*
G37*
G36*
X009955Y006566D02*
X009538Y006981D01*
X009677Y007120D01*
X010094Y006705D01*
X009955Y006566D01*
G37*
G36*
X009732Y006343D02*
X009315Y006758D01*
X009454Y006897D01*
X009871Y006482D01*
X009732Y006343D01*
G37*
G36*
X009510Y006120D02*
X009093Y006535D01*
X009232Y006674D01*
X009649Y006259D01*
X009510Y006120D01*
G37*
G36*
X013190Y003342D02*
X012773Y003757D01*
X012912Y003896D01*
X013329Y003481D01*
X013190Y003342D01*
G37*
G36*
X012967Y003119D02*
X012550Y003534D01*
X012689Y003673D01*
X013106Y003258D01*
X012967Y003119D01*
G37*
G36*
X012745Y002896D02*
X012328Y003311D01*
X012467Y003450D01*
X012884Y003035D01*
X012745Y002896D01*
G37*
G36*
X013412Y003566D02*
X012995Y003981D01*
X013134Y004120D01*
X013551Y003705D01*
X013412Y003566D01*
G37*
G36*
X013634Y003789D02*
X013217Y004204D01*
X013356Y004343D01*
X013773Y003928D01*
X013634Y003789D01*
G37*
G36*
X013856Y004012D02*
X013439Y004427D01*
X013578Y004566D01*
X013995Y004151D01*
X013856Y004012D01*
G37*
G36*
X014079Y004235D02*
X013662Y004650D01*
X013801Y004789D01*
X014218Y004374D01*
X014079Y004235D01*
G37*
G36*
X014301Y004458D02*
X013884Y004873D01*
X014023Y005012D01*
X014440Y004597D01*
X014301Y004458D01*
G37*
G36*
X014523Y004681D02*
X014106Y005096D01*
X014245Y005235D01*
X014662Y004820D01*
X014523Y004681D01*
G37*
G36*
X014746Y004904D02*
X014329Y005319D01*
X014468Y005458D01*
X014885Y005043D01*
X014746Y004904D01*
G37*
G36*
X014968Y005127D02*
X014551Y005542D01*
X014690Y005681D01*
X015107Y005266D01*
X014968Y005127D01*
G37*
D15*
G36*
X014689Y006128D02*
X014550Y006267D01*
X014965Y006684D01*
X015104Y006545D01*
X014689Y006128D01*
G37*
G36*
X014466Y006351D02*
X014327Y006490D01*
X014742Y006907D01*
X014881Y006768D01*
X014466Y006351D01*
G37*
G36*
X014243Y006573D02*
X014104Y006712D01*
X014519Y007129D01*
X014658Y006990D01*
X014243Y006573D01*
G37*
G36*
X014020Y006795D02*
X013881Y006934D01*
X014296Y007351D01*
X014435Y007212D01*
X014020Y006795D01*
G37*
G36*
X013797Y007018D02*
X013658Y007157D01*
X014073Y007574D01*
X014212Y007435D01*
X013797Y007018D01*
G37*
G36*
X013574Y007240D02*
X013435Y007379D01*
X013850Y007796D01*
X013989Y007657D01*
X013574Y007240D01*
G37*
G36*
X013351Y007462D02*
X013212Y007601D01*
X013627Y008018D01*
X013766Y007879D01*
X013351Y007462D01*
G37*
G36*
X013128Y007685D02*
X012989Y007824D01*
X013404Y008241D01*
X013543Y008102D01*
X013128Y007685D01*
G37*
G36*
X012905Y007907D02*
X012766Y008046D01*
X013181Y008463D01*
X013320Y008324D01*
X012905Y007907D01*
G37*
G36*
X012681Y008129D02*
X012542Y008268D01*
X012957Y008685D01*
X013096Y008546D01*
X012681Y008129D01*
G37*
G36*
X012458Y008352D02*
X012319Y008491D01*
X012734Y008908D01*
X012873Y008769D01*
X012458Y008352D01*
G37*
G36*
X009235Y005117D02*
X009096Y005256D01*
X009511Y005673D01*
X009650Y005534D01*
X009235Y005117D01*
G37*
G36*
X009458Y004894D02*
X009319Y005033D01*
X009734Y005450D01*
X009873Y005311D01*
X009458Y004894D01*
G37*
G36*
X009681Y004672D02*
X009542Y004811D01*
X009957Y005228D01*
X010096Y005089D01*
X009681Y004672D01*
G37*
G36*
X009904Y004450D02*
X009765Y004589D01*
X010180Y005006D01*
X010319Y004867D01*
X009904Y004450D01*
G37*
G36*
X010127Y004227D02*
X009988Y004366D01*
X010403Y004783D01*
X010542Y004644D01*
X010127Y004227D01*
G37*
G36*
X010350Y004005D02*
X010211Y004144D01*
X010626Y004561D01*
X010765Y004422D01*
X010350Y004005D01*
G37*
G36*
X010573Y003783D02*
X010434Y003922D01*
X010849Y004339D01*
X010988Y004200D01*
X010573Y003783D01*
G37*
G36*
X010796Y003561D02*
X010657Y003700D01*
X011072Y004117D01*
X011211Y003978D01*
X010796Y003561D01*
G37*
G36*
X011019Y003338D02*
X010880Y003477D01*
X011295Y003894D01*
X011434Y003755D01*
X011019Y003338D01*
G37*
G36*
X011243Y003116D02*
X011104Y003255D01*
X011519Y003672D01*
X011658Y003533D01*
X011243Y003116D01*
G37*
G36*
X011466Y002894D02*
X011327Y003033D01*
X011742Y003450D01*
X011881Y003311D01*
X011466Y002894D01*
G37*
D16*
X012272Y002153D03*
X012272Y001248D03*
X013728Y001248D03*
X013728Y002153D03*
D17*
X011300Y009549D03*
X011300Y010652D03*
D18*
X010788Y011627D03*
X010788Y012375D03*
X011812Y012375D03*
X011812Y012001D03*
X011812Y011627D03*
D19*
X002021Y008179D03*
X002021Y005423D03*
D20*
X002218Y006407D03*
X002218Y007194D03*
D21*
X007079Y004175D03*
X008260Y003388D03*
X008260Y004963D03*
X007079Y005750D03*
X008260Y006538D03*
X007079Y007325D03*
X008260Y008112D03*
X007079Y008900D03*
X008260Y009687D03*
X007079Y010475D03*
X015740Y010475D03*
X016921Y009687D03*
X015740Y008900D03*
X016921Y008112D03*
X015740Y007325D03*
X016921Y006538D03*
X015740Y005750D03*
X016921Y004963D03*
X015740Y004175D03*
X016921Y003388D03*
M02*
