G75*
G70*
%OFA0B0*%
%FSLAX24Y24*%
%IPPOS*%
%LPD*%
%AMOC8*
5,1,8,0,0,1.08239X$1,22.5*
%
%ADD10C,0.0640*%
%ADD11C,0.0740*%
%ADD12C,0.0476*%
%ADD13C,0.0866*%
%ADD14C,0.0669*%
%ADD15C,0.0160*%
%ADD16C,0.0436*%
%ADD17C,0.0240*%
D10*
X007600Y001000D03*
X008600Y001000D03*
X009600Y001000D03*
X009600Y002000D03*
X008600Y002000D03*
X007600Y002000D03*
D11*
X018900Y002100D03*
X018900Y003100D03*
X018900Y004100D03*
X018900Y005100D03*
X018900Y001100D03*
D12*
X018906Y009525D03*
X018906Y010313D03*
X018906Y011100D03*
X018906Y011887D03*
X018906Y012675D03*
D13*
X017178Y012316D03*
X014422Y012316D03*
D14*
X014816Y013300D03*
X016784Y013300D03*
D15*
X006100Y004683D02*
X006100Y000600D01*
X007265Y000600D01*
X007159Y000705D01*
X007080Y000897D01*
X007080Y001103D01*
X007159Y001295D01*
X007305Y001441D01*
X007480Y001513D01*
X007408Y001537D01*
X007338Y001572D01*
X007274Y001619D01*
X007219Y001674D01*
X007172Y001738D01*
X007137Y001808D01*
X007112Y001883D01*
X007100Y001961D01*
X007100Y001991D01*
X007591Y001991D01*
X007591Y002009D01*
X007591Y002500D01*
X007561Y002500D01*
X007483Y002488D01*
X007408Y002463D01*
X007338Y002428D01*
X007274Y002381D01*
X007219Y002326D01*
X007172Y002262D01*
X007137Y002192D01*
X007112Y002117D01*
X007100Y002039D01*
X007100Y002009D01*
X007591Y002009D01*
X007609Y002009D01*
X007609Y002500D01*
X007639Y002500D01*
X007717Y002488D01*
X007792Y002463D01*
X007820Y002449D01*
X007820Y002456D01*
X007863Y002559D01*
X007941Y002637D01*
X008020Y002716D01*
X008020Y004189D01*
X007946Y004263D01*
X007882Y004417D01*
X007882Y004583D01*
X007946Y004737D01*
X008063Y004854D01*
X008217Y004918D01*
X008383Y004918D01*
X008537Y004854D01*
X008620Y004771D01*
X008620Y005789D01*
X008546Y005863D01*
X008482Y006017D01*
X008482Y006183D01*
X008546Y006337D01*
X008663Y006454D01*
X008817Y006518D01*
X008983Y006518D01*
X009137Y006454D01*
X009254Y006337D01*
X009318Y006183D01*
X009318Y006017D01*
X009254Y005863D01*
X009180Y005789D01*
X009180Y002315D01*
X009305Y002441D01*
X009320Y002447D01*
X009320Y003689D01*
X009246Y003763D01*
X009182Y003917D01*
X009182Y004083D01*
X009246Y004237D01*
X009363Y004354D01*
X009517Y004418D01*
X009683Y004418D01*
X009837Y004354D01*
X009920Y004271D01*
X009920Y006189D01*
X009846Y006263D01*
X009782Y006417D01*
X009782Y006583D01*
X009846Y006737D01*
X009963Y006854D01*
X010117Y006918D01*
X010283Y006918D01*
X010415Y006863D01*
X010446Y006937D01*
X010563Y007054D01*
X010717Y007118D01*
X010883Y007118D01*
X011037Y007054D01*
X011154Y006937D01*
X011218Y006783D01*
X011218Y006617D01*
X011154Y006463D01*
X011037Y006346D01*
X010883Y006282D01*
X010880Y006282D01*
X010880Y005776D01*
X011041Y005937D01*
X011144Y005980D01*
X011489Y005980D01*
X011563Y006054D01*
X011717Y006118D01*
X011883Y006118D01*
X012037Y006054D01*
X012154Y005937D01*
X012218Y005783D01*
X012218Y005617D01*
X012199Y005570D01*
X012237Y005554D01*
X012354Y005437D01*
X012418Y005283D01*
X012418Y005178D01*
X013552Y004044D01*
X013663Y004154D01*
X013817Y004218D01*
X013983Y004218D01*
X014137Y004154D01*
X014211Y004080D01*
X014597Y004080D01*
X014582Y004117D01*
X014582Y004283D01*
X014601Y004330D01*
X014563Y004346D01*
X014446Y004463D01*
X014382Y004617D01*
X014382Y004783D01*
X014446Y004937D01*
X014563Y005054D01*
X014717Y005118D01*
X014883Y005118D01*
X015037Y005054D01*
X015111Y004980D01*
X015229Y004980D01*
X015146Y005063D01*
X015082Y005217D01*
X015082Y005383D01*
X015146Y005537D01*
X015263Y005654D01*
X015417Y005718D01*
X015522Y005718D01*
X015920Y006116D01*
X015920Y007767D01*
X015571Y007419D01*
X015571Y007419D01*
X015481Y007329D01*
X015364Y007280D01*
X011671Y007280D01*
X011637Y007246D01*
X011483Y007182D01*
X011317Y007182D01*
X011163Y007246D01*
X011046Y007363D01*
X010982Y007517D01*
X010982Y007683D01*
X011046Y007837D01*
X011163Y007954D01*
X011317Y008018D01*
X011483Y008018D01*
X011637Y007954D01*
X011671Y007920D01*
X015167Y007920D01*
X015580Y008333D01*
X015580Y009845D01*
X015629Y009962D01*
X017381Y011715D01*
X017304Y011683D01*
X017052Y011683D01*
X016819Y011779D01*
X016641Y011957D01*
X016545Y012190D01*
X016545Y012442D01*
X016641Y012674D01*
X016732Y012765D01*
X016678Y012765D01*
X016666Y012770D01*
X015159Y011263D01*
X015056Y011220D01*
X014416Y011220D01*
X012418Y009222D01*
X012418Y009117D01*
X012354Y008963D01*
X012237Y008846D01*
X012083Y008782D01*
X011917Y008782D01*
X011763Y008846D01*
X011646Y008963D01*
X011582Y009117D01*
X011582Y009283D01*
X011646Y009437D01*
X011763Y009554D01*
X011917Y009618D01*
X012022Y009618D01*
X014063Y011659D01*
X014141Y011737D01*
X014153Y011742D01*
X014063Y011779D01*
X013885Y011957D01*
X013789Y012190D01*
X013789Y012442D01*
X013885Y012674D01*
X014063Y012852D01*
X014296Y012949D01*
X014439Y012949D01*
X014423Y012965D01*
X014376Y013030D01*
X014339Y013102D01*
X014314Y013179D01*
X014301Y013259D01*
X014301Y013300D01*
X014816Y013300D01*
X015330Y013300D01*
X015330Y013341D01*
X015318Y013421D01*
X015293Y013498D01*
X015256Y013570D01*
X015237Y013596D01*
X016328Y013596D01*
X016250Y013406D01*
X016250Y013194D01*
X016264Y013160D01*
X014884Y011780D01*
X014782Y011780D01*
X014959Y011957D01*
X015055Y012190D01*
X015055Y012442D01*
X014959Y012674D01*
X014848Y012785D01*
X014856Y012785D01*
X014936Y012798D01*
X015013Y012823D01*
X015085Y012860D01*
X015151Y012907D01*
X015208Y012965D01*
X015256Y013030D01*
X015293Y013102D01*
X015318Y013179D01*
X015330Y013259D01*
X015330Y013300D01*
X014816Y013300D01*
X014816Y013300D01*
X014816Y013300D01*
X014301Y013300D01*
X014301Y013341D01*
X014314Y013421D01*
X014339Y013498D01*
X014376Y013570D01*
X014395Y013596D01*
X006100Y013596D01*
X006100Y009317D01*
X005983Y009200D01*
X005900Y009200D01*
X005900Y008096D01*
X007463Y009659D01*
X007541Y009737D01*
X007644Y009780D01*
X010289Y009780D01*
X010363Y009854D01*
X010517Y009918D01*
X010683Y009918D01*
X010837Y009854D01*
X010954Y009737D01*
X011018Y009583D01*
X011018Y009417D01*
X010954Y009263D01*
X010837Y009146D01*
X010702Y009090D01*
X010754Y009037D01*
X010818Y008883D01*
X010818Y008717D01*
X010754Y008563D01*
X010637Y008446D01*
X010483Y008382D01*
X010317Y008382D01*
X010163Y008446D01*
X010089Y008520D01*
X007622Y008520D01*
X006518Y007338D01*
X006518Y007217D01*
X006454Y007063D01*
X006341Y006950D01*
X006454Y006837D01*
X006738Y006837D01*
X006904Y006996D02*
X006387Y006996D01*
X006454Y006837D02*
X006518Y006683D01*
X006518Y006629D01*
X007677Y007729D01*
X007719Y007771D01*
X007723Y007773D01*
X007726Y007776D01*
X007781Y007797D01*
X007836Y007820D01*
X007841Y007820D01*
X007845Y007822D01*
X007904Y007820D01*
X008029Y007820D01*
X008063Y007854D01*
X008217Y007918D01*
X008383Y007918D01*
X008537Y007854D01*
X008654Y007737D01*
X008718Y007583D01*
X008718Y007417D01*
X008654Y007263D01*
X008537Y007146D01*
X008383Y007082D01*
X008217Y007082D01*
X008063Y007146D01*
X008029Y007180D01*
X008028Y007180D01*
X006318Y005556D01*
X006318Y005517D01*
X006254Y005363D01*
X006137Y005246D01*
X005983Y005182D01*
X005900Y005182D01*
X005900Y004800D01*
X005983Y004800D01*
X006100Y004683D01*
X006100Y004618D02*
X007896Y004618D01*
X007882Y004460D02*
X006100Y004460D01*
X006100Y004301D02*
X007930Y004301D01*
X008020Y004143D02*
X006100Y004143D01*
X006100Y003984D02*
X008020Y003984D01*
X008020Y003826D02*
X006100Y003826D01*
X006100Y003667D02*
X008020Y003667D01*
X008020Y003509D02*
X006100Y003509D01*
X006100Y003350D02*
X008020Y003350D01*
X008020Y003192D02*
X006100Y003192D01*
X006100Y003033D02*
X008020Y003033D01*
X008020Y002875D02*
X006100Y002875D01*
X006100Y002716D02*
X008020Y002716D01*
X007862Y002558D02*
X006100Y002558D01*
X006100Y002399D02*
X007299Y002399D01*
X007161Y002241D02*
X006100Y002241D01*
X006100Y002082D02*
X007107Y002082D01*
X007106Y001924D02*
X006100Y001924D01*
X006100Y001765D02*
X007159Y001765D01*
X007291Y001607D02*
X006100Y001607D01*
X006100Y001448D02*
X007323Y001448D01*
X007157Y001290D02*
X006100Y001290D01*
X006100Y001131D02*
X007091Y001131D01*
X007080Y000973D02*
X006100Y000973D01*
X006100Y000814D02*
X007114Y000814D01*
X007209Y000656D02*
X006100Y000656D01*
X007600Y001000D02*
X008100Y001500D01*
X008100Y002400D01*
X008300Y002600D01*
X008300Y004500D01*
X007985Y004777D02*
X006006Y004777D01*
X005900Y004935D02*
X008620Y004935D01*
X008620Y005094D02*
X005900Y005094D01*
X006143Y005252D02*
X008620Y005252D01*
X008620Y005411D02*
X006274Y005411D01*
X006332Y005569D02*
X008620Y005569D01*
X008620Y005728D02*
X006499Y005728D01*
X006666Y005886D02*
X008536Y005886D01*
X008482Y006045D02*
X006833Y006045D01*
X006999Y006203D02*
X008490Y006203D01*
X008570Y006362D02*
X007166Y006362D01*
X007333Y006520D02*
X009782Y006520D01*
X009805Y006362D02*
X009230Y006362D01*
X009310Y006203D02*
X009906Y006203D01*
X009920Y006045D02*
X009318Y006045D01*
X009264Y005886D02*
X009920Y005886D01*
X009920Y005728D02*
X009180Y005728D01*
X009180Y005569D02*
X009920Y005569D01*
X009920Y005411D02*
X009180Y005411D01*
X009180Y005252D02*
X009920Y005252D01*
X009920Y005094D02*
X009180Y005094D01*
X009180Y004935D02*
X009920Y004935D01*
X009920Y004777D02*
X009180Y004777D01*
X009180Y004618D02*
X009920Y004618D01*
X009920Y004460D02*
X009180Y004460D01*
X009180Y004301D02*
X009310Y004301D01*
X009206Y004143D02*
X009180Y004143D01*
X009180Y003984D02*
X009182Y003984D01*
X009180Y003826D02*
X009220Y003826D01*
X009180Y003667D02*
X009320Y003667D01*
X009320Y003509D02*
X009180Y003509D01*
X009180Y003350D02*
X009320Y003350D01*
X009320Y003192D02*
X009180Y003192D01*
X009180Y003033D02*
X009320Y003033D01*
X009320Y002875D02*
X009180Y002875D01*
X009180Y002716D02*
X009320Y002716D01*
X009320Y002558D02*
X009180Y002558D01*
X009180Y002399D02*
X009264Y002399D01*
X008900Y002300D02*
X008600Y002000D01*
X008900Y002300D02*
X008900Y006100D01*
X009821Y006679D02*
X007500Y006679D01*
X007667Y006837D02*
X009946Y006837D01*
X010200Y006500D02*
X010200Y001700D01*
X010000Y001500D01*
X009100Y001500D01*
X008600Y001000D01*
X009600Y001000D02*
X009900Y001000D01*
X010600Y001700D01*
X010600Y006600D01*
X010800Y006700D01*
X010504Y006996D02*
X007834Y006996D01*
X008000Y007154D02*
X008055Y007154D01*
X008545Y007154D02*
X015920Y007154D01*
X015920Y006996D02*
X011096Y006996D01*
X011196Y006837D02*
X015920Y006837D01*
X015920Y006679D02*
X011218Y006679D01*
X011178Y006520D02*
X015920Y006520D01*
X015920Y006362D02*
X011053Y006362D01*
X010880Y006203D02*
X015920Y006203D01*
X015849Y006045D02*
X012047Y006045D01*
X012176Y005886D02*
X015690Y005886D01*
X015532Y005728D02*
X012218Y005728D01*
X012202Y005569D02*
X015178Y005569D01*
X015093Y005411D02*
X012365Y005411D01*
X012418Y005252D02*
X015082Y005252D01*
X015133Y005094D02*
X014943Y005094D01*
X014657Y005094D02*
X012502Y005094D01*
X012661Y004935D02*
X014445Y004935D01*
X014382Y004777D02*
X012819Y004777D01*
X012978Y004618D02*
X014382Y004618D01*
X014449Y004460D02*
X013136Y004460D01*
X013295Y004301D02*
X014589Y004301D01*
X014582Y004143D02*
X014149Y004143D01*
X013900Y003800D02*
X016200Y003800D01*
X017500Y005100D01*
X018900Y005100D01*
X018399Y005380D02*
X017444Y005380D01*
X017341Y005337D01*
X017263Y005259D01*
X016084Y004080D01*
X016076Y004080D01*
X017159Y005163D01*
X017237Y005241D01*
X017280Y005344D01*
X017280Y008784D01*
X017741Y009245D01*
X018567Y009245D01*
X018658Y009154D01*
X018819Y009087D01*
X018993Y009087D01*
X019154Y009154D01*
X019278Y009277D01*
X019344Y009438D01*
X019344Y009612D01*
X019278Y009773D01*
X019154Y009897D01*
X019101Y009919D01*
X019154Y009941D01*
X019278Y010064D01*
X019344Y010225D01*
X019344Y010400D01*
X019278Y010561D01*
X019154Y010684D01*
X019101Y010706D01*
X019154Y010729D01*
X019278Y010852D01*
X019344Y011013D01*
X019344Y011187D01*
X019278Y011348D01*
X019154Y011471D01*
X019101Y011494D01*
X019154Y011516D01*
X019278Y011639D01*
X019344Y011800D01*
X019344Y011975D01*
X019278Y012136D01*
X019154Y012259D01*
X019075Y012292D01*
X019125Y012317D01*
X019179Y012356D01*
X019225Y012402D01*
X019264Y012456D01*
X019294Y012514D01*
X019314Y012577D01*
X019324Y012642D01*
X019324Y012675D01*
X019324Y012708D01*
X019314Y012773D01*
X019294Y012835D01*
X019264Y012894D01*
X019225Y012947D01*
X019179Y012994D01*
X019125Y013032D01*
X019067Y013062D01*
X019004Y013083D01*
X018939Y013093D01*
X018906Y013093D01*
X018873Y013093D01*
X018808Y013083D01*
X018746Y013062D01*
X018687Y013032D01*
X018634Y012994D01*
X018587Y012947D01*
X018549Y012894D01*
X018519Y012835D01*
X018498Y012773D01*
X018488Y012708D01*
X018488Y012675D01*
X018906Y012675D01*
X018906Y012675D01*
X018906Y013093D01*
X018906Y012675D01*
X018906Y012675D01*
X018488Y012675D01*
X018488Y012642D01*
X018498Y012577D01*
X018519Y012514D01*
X018549Y012456D01*
X018587Y012402D01*
X018634Y012356D01*
X018687Y012317D01*
X018737Y012292D01*
X018658Y012259D01*
X018607Y012207D01*
X017943Y012207D01*
X017825Y012159D01*
X017779Y012113D01*
X017811Y012190D01*
X017811Y012442D01*
X017715Y012674D01*
X017537Y012852D01*
X017304Y012949D01*
X017189Y012949D01*
X017238Y012997D01*
X017319Y013194D01*
X017319Y013406D01*
X017240Y013596D01*
X019370Y013596D01*
X019370Y005436D01*
X019223Y005583D01*
X019013Y005670D01*
X018787Y005670D01*
X018577Y005583D01*
X018417Y005423D01*
X018399Y005380D01*
X018412Y005411D02*
X017280Y005411D01*
X017280Y005569D02*
X018563Y005569D01*
X019237Y005569D02*
X019370Y005569D01*
X019370Y005728D02*
X017280Y005728D01*
X017280Y005886D02*
X019370Y005886D01*
X019370Y006045D02*
X017280Y006045D01*
X017280Y006203D02*
X019370Y006203D01*
X019370Y006362D02*
X017280Y006362D01*
X017280Y006520D02*
X019370Y006520D01*
X019370Y006679D02*
X017280Y006679D01*
X017280Y006837D02*
X019370Y006837D01*
X019370Y006996D02*
X017280Y006996D01*
X017280Y007154D02*
X019370Y007154D01*
X019370Y007313D02*
X017280Y007313D01*
X017280Y007471D02*
X019370Y007471D01*
X019370Y007630D02*
X017280Y007630D01*
X017280Y007788D02*
X019370Y007788D01*
X019370Y007947D02*
X017280Y007947D01*
X017280Y008105D02*
X019370Y008105D01*
X019370Y008264D02*
X017280Y008264D01*
X017280Y008422D02*
X019370Y008422D01*
X019370Y008581D02*
X017280Y008581D01*
X017280Y008739D02*
X019370Y008739D01*
X019370Y008898D02*
X017394Y008898D01*
X017552Y009056D02*
X019370Y009056D01*
X019370Y009215D02*
X019215Y009215D01*
X019317Y009373D02*
X019370Y009373D01*
X019370Y009532D02*
X019344Y009532D01*
X019370Y009690D02*
X019312Y009690D01*
X019370Y009849D02*
X019203Y009849D01*
X019220Y010007D02*
X019370Y010007D01*
X019370Y010166D02*
X019320Y010166D01*
X019344Y010324D02*
X019370Y010324D01*
X019370Y010483D02*
X019310Y010483D01*
X019370Y010641D02*
X019197Y010641D01*
X019225Y010800D02*
X019370Y010800D01*
X019370Y010958D02*
X019322Y010958D01*
X019344Y011117D02*
X019370Y011117D01*
X019370Y011275D02*
X019308Y011275D01*
X019370Y011434D02*
X019192Y011434D01*
X019231Y011592D02*
X019370Y011592D01*
X019370Y011751D02*
X019324Y011751D01*
X019344Y011909D02*
X019370Y011909D01*
X019370Y012068D02*
X019306Y012068D01*
X019370Y012226D02*
X019187Y012226D01*
X019207Y012385D02*
X019370Y012385D01*
X019370Y012543D02*
X019303Y012543D01*
X019324Y012675D02*
X018906Y012675D01*
X019324Y012675D01*
X019324Y012702D02*
X019370Y012702D01*
X019370Y012860D02*
X019281Y012860D01*
X019370Y013019D02*
X019145Y013019D01*
X018906Y013019D02*
X018906Y013019D01*
X018906Y012860D02*
X018906Y012860D01*
X018906Y012702D02*
X018906Y012702D01*
X018906Y012675D02*
X018906Y012675D01*
X018531Y012860D02*
X017518Y012860D01*
X017687Y012702D02*
X018488Y012702D01*
X018509Y012543D02*
X017769Y012543D01*
X017811Y012385D02*
X018605Y012385D01*
X018625Y012226D02*
X017811Y012226D01*
X017258Y011592D02*
X015488Y011592D01*
X015330Y011434D02*
X017100Y011434D01*
X016941Y011275D02*
X015171Y011275D01*
X015000Y011500D02*
X016784Y013284D01*
X016784Y013300D01*
X016286Y013494D02*
X015294Y013494D01*
X015330Y013336D02*
X016250Y013336D01*
X016256Y013177D02*
X015317Y013177D01*
X015247Y013019D02*
X016123Y013019D01*
X015964Y012860D02*
X015086Y012860D01*
X014932Y012702D02*
X015806Y012702D01*
X015647Y012543D02*
X015013Y012543D01*
X015055Y012385D02*
X015489Y012385D01*
X015330Y012226D02*
X015055Y012226D01*
X015004Y012068D02*
X015172Y012068D01*
X015013Y011909D02*
X014911Y011909D01*
X015000Y011500D02*
X014300Y011500D01*
X012000Y009200D01*
X011711Y008898D02*
X010812Y008898D01*
X010818Y008739D02*
X015580Y008739D01*
X015580Y008581D02*
X010762Y008581D01*
X010580Y008422D02*
X015580Y008422D01*
X015511Y008264D02*
X007382Y008264D01*
X007530Y008422D02*
X010220Y008422D01*
X010400Y008800D02*
X007500Y008800D01*
X006100Y007300D01*
X006518Y007313D02*
X007238Y007313D01*
X007071Y007154D02*
X006492Y007154D01*
X006643Y007471D02*
X007405Y007471D01*
X007572Y007630D02*
X006791Y007630D01*
X006939Y007788D02*
X007757Y007788D01*
X007234Y008105D02*
X015352Y008105D01*
X015194Y007947D02*
X011645Y007947D01*
X011155Y007947D02*
X007086Y007947D01*
X006385Y008581D02*
X005900Y008581D01*
X005900Y008739D02*
X006543Y008739D01*
X006702Y008898D02*
X005900Y008898D01*
X005900Y009056D02*
X006860Y009056D01*
X007019Y009215D02*
X005997Y009215D01*
X006100Y009373D02*
X007177Y009373D01*
X007336Y009532D02*
X006100Y009532D01*
X006100Y009690D02*
X007494Y009690D01*
X007700Y009500D02*
X010600Y009500D01*
X010906Y009215D02*
X011582Y009215D01*
X011607Y009056D02*
X010735Y009056D01*
X011000Y009373D02*
X011619Y009373D01*
X011740Y009532D02*
X011018Y009532D01*
X010974Y009690D02*
X012094Y009690D01*
X012253Y009849D02*
X010843Y009849D01*
X010357Y009849D02*
X006100Y009849D01*
X006100Y010007D02*
X012411Y010007D01*
X012570Y010166D02*
X006100Y010166D01*
X006100Y010324D02*
X012728Y010324D01*
X012887Y010483D02*
X006100Y010483D01*
X006100Y010641D02*
X013045Y010641D01*
X013204Y010800D02*
X006100Y010800D01*
X006100Y010958D02*
X013362Y010958D01*
X013521Y011117D02*
X006100Y011117D01*
X006100Y011275D02*
X013679Y011275D01*
X013838Y011434D02*
X006100Y011434D01*
X006100Y011592D02*
X013996Y011592D01*
X014132Y011751D02*
X006100Y011751D01*
X006100Y011909D02*
X013933Y011909D01*
X013840Y012068D02*
X006100Y012068D01*
X006100Y012226D02*
X013789Y012226D01*
X013789Y012385D02*
X006100Y012385D01*
X006100Y012543D02*
X013831Y012543D01*
X013913Y012702D02*
X006100Y012702D01*
X006100Y012860D02*
X014082Y012860D01*
X014384Y013019D02*
X006100Y013019D01*
X006100Y013177D02*
X014315Y013177D01*
X014301Y013336D02*
X006100Y013336D01*
X006100Y013494D02*
X014338Y013494D01*
X016122Y012226D02*
X016545Y012226D01*
X016545Y012385D02*
X016281Y012385D01*
X016439Y012543D02*
X016587Y012543D01*
X016598Y012702D02*
X016668Y012702D01*
X017246Y013019D02*
X018668Y013019D01*
X019370Y013177D02*
X017312Y013177D01*
X017319Y013336D02*
X019370Y013336D01*
X019370Y013494D02*
X017283Y013494D01*
X016596Y012068D02*
X015964Y012068D01*
X015805Y011909D02*
X016689Y011909D01*
X016888Y011751D02*
X015647Y011751D01*
X016624Y010958D02*
X014154Y010958D01*
X013996Y010800D02*
X016466Y010800D01*
X016307Y010641D02*
X013837Y010641D01*
X013679Y010483D02*
X016149Y010483D01*
X015990Y010324D02*
X013520Y010324D01*
X013362Y010166D02*
X015832Y010166D01*
X015673Y010007D02*
X013203Y010007D01*
X013045Y009849D02*
X015582Y009849D01*
X015580Y009690D02*
X012886Y009690D01*
X012728Y009532D02*
X015580Y009532D01*
X015580Y009373D02*
X012569Y009373D01*
X012418Y009215D02*
X015580Y009215D01*
X015580Y009056D02*
X012393Y009056D01*
X012289Y008898D02*
X015580Y008898D01*
X016200Y009294D02*
X018006Y011100D01*
X018906Y011100D01*
X018906Y010313D02*
X017813Y010313D01*
X016600Y009100D01*
X016600Y005700D01*
X015600Y004700D01*
X014800Y004700D01*
X015000Y004200D02*
X015800Y004200D01*
X017000Y005400D01*
X017000Y008900D01*
X017625Y009525D01*
X018906Y009525D01*
X018597Y009215D02*
X017711Y009215D01*
X016200Y009294D02*
X016200Y006000D01*
X015500Y005300D01*
X016614Y004618D02*
X016622Y004618D01*
X016773Y004777D02*
X016781Y004777D01*
X016931Y004935D02*
X016939Y004935D01*
X017090Y005094D02*
X017098Y005094D01*
X017242Y005252D02*
X017256Y005252D01*
X016464Y004460D02*
X016456Y004460D01*
X016305Y004301D02*
X016297Y004301D01*
X016147Y004143D02*
X016139Y004143D01*
X016800Y003400D02*
X017500Y004100D01*
X018900Y004100D01*
X018900Y003100D02*
X013200Y003100D01*
X011900Y004400D01*
X011680Y004039D02*
X011817Y003982D01*
X011922Y003982D01*
X012963Y002941D01*
X013041Y002863D01*
X013144Y002820D01*
X018399Y002820D01*
X018417Y002777D01*
X018577Y002617D01*
X018646Y002588D01*
X018612Y002570D01*
X018542Y002520D01*
X018480Y002458D01*
X018430Y002388D01*
X018390Y002311D01*
X018364Y002229D01*
X018350Y002143D01*
X018350Y002120D01*
X018880Y002120D01*
X018880Y002080D01*
X018350Y002080D01*
X018350Y002057D01*
X018364Y001971D01*
X018390Y001889D01*
X018430Y001812D01*
X018480Y001742D01*
X018542Y001680D01*
X018612Y001630D01*
X018646Y001612D01*
X018577Y001583D01*
X018417Y001423D01*
X018330Y001213D01*
X018330Y000987D01*
X018417Y000777D01*
X018577Y000617D01*
X018618Y000600D01*
X009935Y000600D01*
X010041Y000705D01*
X010069Y000773D01*
X010137Y000841D01*
X010837Y001541D01*
X010880Y001644D01*
X010880Y002624D01*
X010982Y002522D01*
X010982Y002417D01*
X011046Y002263D01*
X011163Y002146D01*
X011317Y002082D01*
X011483Y002082D01*
X011637Y002146D01*
X011754Y002263D01*
X011818Y002417D01*
X011818Y002583D01*
X011754Y002737D01*
X011637Y002854D01*
X011483Y002918D01*
X011378Y002918D01*
X011180Y003116D01*
X011180Y003524D01*
X011682Y003022D01*
X011682Y002917D01*
X011746Y002763D01*
X011863Y002646D01*
X012017Y002582D01*
X012183Y002582D01*
X012337Y002646D01*
X012454Y002763D01*
X012518Y002917D01*
X012518Y003083D01*
X012454Y003237D01*
X012337Y003354D01*
X012183Y003418D01*
X012078Y003418D01*
X011680Y003816D01*
X011680Y004039D01*
X011680Y003984D02*
X011812Y003984D01*
X011680Y003826D02*
X012078Y003826D01*
X012237Y003667D02*
X011829Y003667D01*
X011987Y003509D02*
X012395Y003509D01*
X012341Y003350D02*
X012554Y003350D01*
X012473Y003192D02*
X012712Y003192D01*
X012871Y003033D02*
X012518Y003033D01*
X012501Y002875D02*
X013029Y002875D01*
X012407Y002716D02*
X018478Y002716D01*
X018594Y002558D02*
X011818Y002558D01*
X011811Y002399D02*
X018437Y002399D01*
X018367Y002241D02*
X011732Y002241D01*
X011483Y002082D02*
X018880Y002082D01*
X018464Y001765D02*
X010880Y001765D01*
X010880Y001924D02*
X018379Y001924D01*
X018633Y001607D02*
X010864Y001607D01*
X010744Y001448D02*
X018442Y001448D01*
X018362Y001290D02*
X010586Y001290D01*
X010427Y001131D02*
X018330Y001131D01*
X018336Y000973D02*
X010269Y000973D01*
X010110Y000814D02*
X018401Y000814D01*
X018538Y000656D02*
X009991Y000656D01*
X009600Y002000D02*
X009600Y004000D01*
X009890Y004301D02*
X009920Y004301D01*
X011180Y003509D02*
X011195Y003509D01*
X011180Y003350D02*
X011354Y003350D01*
X011512Y003192D02*
X011180Y003192D01*
X011263Y003033D02*
X011671Y003033D01*
X011699Y002875D02*
X011588Y002875D01*
X011763Y002716D02*
X011793Y002716D01*
X012100Y003000D02*
X011400Y003700D01*
X011400Y005200D01*
X010900Y005400D02*
X010900Y003000D01*
X011400Y002500D01*
X011068Y002241D02*
X010880Y002241D01*
X010880Y002399D02*
X010989Y002399D01*
X010946Y002558D02*
X010880Y002558D01*
X010880Y002082D02*
X011317Y002082D01*
X013400Y003400D02*
X013400Y003800D01*
X012000Y005200D01*
X011800Y005700D02*
X011200Y005700D01*
X010900Y005400D01*
X010880Y005886D02*
X010990Y005886D01*
X010880Y006045D02*
X011553Y006045D01*
X011096Y007313D02*
X008675Y007313D01*
X008718Y007471D02*
X011001Y007471D01*
X010982Y007630D02*
X008699Y007630D01*
X008603Y007788D02*
X011025Y007788D01*
X007700Y009500D02*
X005700Y007500D01*
X005700Y007000D01*
X006100Y006600D01*
X006518Y006679D02*
X006571Y006679D01*
X005909Y008105D02*
X005900Y008105D01*
X005900Y008264D02*
X006068Y008264D01*
X006226Y008422D02*
X005900Y008422D01*
X008615Y004777D02*
X008620Y004777D01*
X007609Y002399D02*
X007591Y002399D01*
X007591Y002241D02*
X007609Y002241D01*
X007609Y002082D02*
X007591Y002082D01*
X013400Y003400D02*
X016800Y003400D01*
X013651Y004143D02*
X013453Y004143D01*
X015442Y007313D02*
X015920Y007313D01*
X015920Y007471D02*
X015624Y007471D01*
X015782Y007630D02*
X015920Y007630D01*
X016783Y011117D02*
X014313Y011117D01*
D16*
X012000Y009200D03*
X010600Y009500D03*
X010400Y008800D03*
X011400Y007600D03*
X010800Y006700D03*
X010200Y006500D03*
X008900Y006100D03*
X008300Y007500D03*
X006100Y007300D03*
X006100Y006600D03*
X005900Y005600D03*
X008300Y004500D03*
X009600Y004000D03*
X011400Y005200D03*
X012000Y005200D03*
X011800Y005700D03*
X012700Y005700D03*
X011900Y004400D03*
X012100Y003000D03*
X011400Y002500D03*
X013900Y003800D03*
X015000Y004200D03*
X014800Y004700D03*
X015500Y005300D03*
X006400Y003500D03*
D17*
X005900Y005600D02*
X007900Y007500D01*
X008300Y007500D01*
X011400Y007600D02*
X015300Y007600D01*
X015900Y008200D01*
X015900Y009781D01*
X018006Y011887D01*
X018906Y011887D01*
M02*
