G75*
G70*
%OFA0B0*%
%FSLAX24Y24*%
%IPPOS*%
%LPD*%
%AMOC8*
5,1,8,0,0,1.08239X$1,22.5*
%
%ADD10C,0.0555*%
%ADD11C,0.0160*%
%ADD12C,0.0436*%
%ADD13C,0.0400*%
D10*
X002959Y001105D03*
X002959Y001893D03*
X002959Y002680D03*
X002959Y003467D03*
X002959Y004255D03*
D11*
X000930Y000360D02*
X000930Y013396D01*
X007640Y013396D01*
X007640Y000360D01*
X000930Y000360D01*
X000930Y000447D02*
X007640Y000447D01*
X007640Y000605D02*
X000930Y000605D01*
X000930Y000764D02*
X002653Y000764D01*
X002661Y000756D02*
X002719Y000714D01*
X002783Y000681D01*
X002852Y000659D01*
X002923Y000648D01*
X002959Y000648D01*
X002995Y000648D01*
X003066Y000659D01*
X003134Y000681D01*
X003198Y000714D01*
X003257Y000756D01*
X003308Y000807D01*
X003350Y000865D01*
X003383Y000930D01*
X003405Y000998D01*
X003416Y001069D01*
X003416Y001105D01*
X002959Y001105D01*
X002959Y001105D01*
X002959Y000648D01*
X002959Y001105D01*
X002959Y001105D01*
X003416Y001105D01*
X003416Y001141D01*
X003405Y001212D01*
X003383Y001281D01*
X003350Y001345D01*
X003308Y001403D01*
X003257Y001454D01*
X003198Y001496D01*
X003175Y001509D01*
X003206Y001522D01*
X003330Y001645D01*
X003396Y001806D01*
X003396Y001980D01*
X003330Y002140D01*
X003206Y002263D01*
X003151Y002286D01*
X003206Y002309D01*
X003330Y002432D01*
X003396Y002593D01*
X003396Y002767D01*
X003330Y002928D01*
X003206Y003051D01*
X003151Y003074D01*
X003206Y003097D01*
X003330Y003220D01*
X003343Y003252D01*
X003436Y003159D01*
X003575Y003102D01*
X003725Y003102D01*
X003864Y003159D01*
X003971Y003266D01*
X004028Y003405D01*
X004028Y003480D01*
X004098Y003480D01*
X004186Y003517D01*
X004253Y003584D01*
X004290Y003672D01*
X004290Y009741D01*
X005349Y010800D01*
X005442Y010800D01*
X005574Y010855D01*
X005675Y010956D01*
X005730Y011088D01*
X005730Y011232D01*
X005675Y011364D01*
X005574Y011465D01*
X005442Y011520D01*
X005298Y011520D01*
X005166Y011465D01*
X005065Y011364D01*
X005010Y011232D01*
X005010Y011139D01*
X003914Y010043D01*
X003847Y009976D01*
X003810Y009888D01*
X003810Y003960D01*
X003762Y003960D01*
X003674Y003923D01*
X003609Y003858D01*
X003575Y003858D01*
X003436Y003801D01*
X003336Y003700D01*
X003330Y003715D01*
X003206Y003838D01*
X003151Y003861D01*
X003206Y003884D01*
X003330Y004007D01*
X003396Y004168D01*
X003396Y004342D01*
X003330Y004503D01*
X003206Y004626D01*
X003046Y004692D01*
X002872Y004692D01*
X002711Y004626D01*
X002588Y004503D01*
X002521Y004342D01*
X002521Y004168D01*
X002588Y004007D01*
X002711Y003884D01*
X002766Y003861D01*
X002711Y003838D01*
X002588Y003715D01*
X002521Y003554D01*
X002521Y003380D01*
X002588Y003220D01*
X002711Y003097D01*
X002766Y003074D01*
X002711Y003051D01*
X002588Y002928D01*
X002521Y002767D01*
X002521Y002593D01*
X002588Y002432D01*
X002711Y002309D01*
X002766Y002286D01*
X002711Y002263D01*
X002588Y002140D01*
X002521Y001980D01*
X002521Y001806D01*
X002588Y001645D01*
X002711Y001522D01*
X002743Y001509D01*
X002719Y001496D01*
X002661Y001454D01*
X002610Y001403D01*
X002567Y001345D01*
X002535Y001281D01*
X002512Y001212D01*
X002501Y001141D01*
X002501Y001105D01*
X002501Y001069D01*
X002512Y000998D01*
X002535Y000930D01*
X002567Y000865D01*
X002610Y000807D01*
X002661Y000756D01*
X002539Y000922D02*
X000930Y000922D01*
X000930Y001081D02*
X002501Y001081D01*
X002501Y001105D02*
X002959Y001105D01*
X002959Y001105D01*
X002501Y001105D01*
X002521Y001239D02*
X000930Y001239D01*
X000930Y001398D02*
X002606Y001398D01*
X002677Y001556D02*
X000930Y001556D01*
X000930Y001715D02*
X002559Y001715D01*
X002521Y001873D02*
X000930Y001873D01*
X000930Y002032D02*
X002543Y002032D01*
X002637Y002190D02*
X000930Y002190D01*
X000930Y002349D02*
X002671Y002349D01*
X002557Y002507D02*
X000930Y002507D01*
X000930Y002666D02*
X002521Y002666D01*
X002545Y002824D02*
X000930Y002824D01*
X000930Y002983D02*
X002642Y002983D01*
X002666Y003141D02*
X000930Y003141D01*
X000930Y003300D02*
X002555Y003300D01*
X002521Y003458D02*
X000930Y003458D01*
X000930Y003617D02*
X002547Y003617D01*
X002648Y003775D02*
X000930Y003775D01*
X000930Y003934D02*
X002661Y003934D01*
X002553Y004092D02*
X000930Y004092D01*
X000930Y004251D02*
X002521Y004251D01*
X002549Y004409D02*
X000930Y004409D01*
X000930Y004568D02*
X002653Y004568D01*
X003116Y005039D02*
X003009Y005146D01*
X002952Y005285D01*
X002952Y005435D01*
X003009Y005574D01*
X003090Y005655D01*
X003090Y010411D01*
X003025Y010476D01*
X002970Y010608D01*
X002970Y010752D01*
X003025Y010884D01*
X003126Y010985D01*
X003258Y011040D01*
X003402Y011040D01*
X003534Y010985D01*
X003635Y010884D01*
X003690Y010752D01*
X003690Y010608D01*
X003635Y010476D01*
X003570Y010411D01*
X003570Y005655D01*
X003651Y005574D01*
X003708Y005435D01*
X003708Y005285D01*
X003651Y005146D01*
X003544Y005039D01*
X003405Y004982D01*
X003255Y004982D01*
X003116Y005039D01*
X003112Y005043D02*
X000930Y005043D01*
X000930Y004885D02*
X003810Y004885D01*
X003810Y005043D02*
X003548Y005043D01*
X003674Y005202D02*
X003810Y005202D01*
X003810Y005360D02*
X003708Y005360D01*
X003674Y005519D02*
X003810Y005519D01*
X003810Y005677D02*
X003570Y005677D01*
X003570Y005836D02*
X003810Y005836D01*
X003810Y005994D02*
X003570Y005994D01*
X003570Y006153D02*
X003810Y006153D01*
X003810Y006311D02*
X003570Y006311D01*
X003570Y006470D02*
X003810Y006470D01*
X003810Y006628D02*
X003570Y006628D01*
X003570Y006787D02*
X003810Y006787D01*
X003810Y006945D02*
X003570Y006945D01*
X003570Y007104D02*
X003810Y007104D01*
X003810Y007262D02*
X003570Y007262D01*
X003570Y007421D02*
X003810Y007421D01*
X003810Y007579D02*
X003570Y007579D01*
X003570Y007738D02*
X003810Y007738D01*
X003810Y007896D02*
X003570Y007896D01*
X003570Y008055D02*
X003810Y008055D01*
X003810Y008213D02*
X003570Y008213D01*
X003570Y008372D02*
X003810Y008372D01*
X003810Y008530D02*
X003570Y008530D01*
X003570Y008689D02*
X003810Y008689D01*
X003810Y008847D02*
X003570Y008847D01*
X003570Y009006D02*
X003810Y009006D01*
X003810Y009164D02*
X003570Y009164D01*
X003570Y009323D02*
X003810Y009323D01*
X003810Y009481D02*
X003570Y009481D01*
X003570Y009640D02*
X003810Y009640D01*
X003810Y009798D02*
X003570Y009798D01*
X003570Y009957D02*
X003838Y009957D01*
X003986Y010115D02*
X003570Y010115D01*
X003570Y010274D02*
X004144Y010274D01*
X004303Y010432D02*
X003591Y010432D01*
X003683Y010591D02*
X004461Y010591D01*
X004620Y010749D02*
X003690Y010749D01*
X003612Y010908D02*
X004778Y010908D01*
X004937Y011066D02*
X000930Y011066D01*
X000930Y010908D02*
X003048Y010908D01*
X002970Y010749D02*
X000930Y010749D01*
X000930Y010591D02*
X002977Y010591D01*
X003069Y010432D02*
X000930Y010432D01*
X000930Y010274D02*
X003090Y010274D01*
X003090Y010115D02*
X000930Y010115D01*
X000930Y009957D02*
X003090Y009957D01*
X003090Y009798D02*
X000930Y009798D01*
X000930Y009640D02*
X003090Y009640D01*
X003090Y009481D02*
X000930Y009481D01*
X000930Y009323D02*
X003090Y009323D01*
X003090Y009164D02*
X000930Y009164D01*
X000930Y009006D02*
X003090Y009006D01*
X003090Y008847D02*
X000930Y008847D01*
X000930Y008689D02*
X003090Y008689D01*
X003090Y008530D02*
X000930Y008530D01*
X000930Y008372D02*
X003090Y008372D01*
X003090Y008213D02*
X000930Y008213D01*
X000930Y008055D02*
X003090Y008055D01*
X003090Y007896D02*
X000930Y007896D01*
X000930Y007738D02*
X003090Y007738D01*
X003090Y007579D02*
X000930Y007579D01*
X000930Y007421D02*
X003090Y007421D01*
X003090Y007262D02*
X000930Y007262D01*
X000930Y007104D02*
X003090Y007104D01*
X003090Y006945D02*
X000930Y006945D01*
X000930Y006787D02*
X003090Y006787D01*
X003090Y006628D02*
X000930Y006628D01*
X000930Y006470D02*
X003090Y006470D01*
X003090Y006311D02*
X000930Y006311D01*
X000930Y006153D02*
X003090Y006153D01*
X003090Y005994D02*
X000930Y005994D01*
X000930Y005836D02*
X003090Y005836D01*
X003090Y005677D02*
X000930Y005677D01*
X000930Y005519D02*
X002986Y005519D01*
X002952Y005360D02*
X000930Y005360D01*
X000930Y005202D02*
X002986Y005202D01*
X003330Y005360D02*
X003330Y010680D01*
X004050Y009840D02*
X004050Y003720D01*
X003810Y003720D01*
X003570Y003480D01*
X003650Y003480D01*
X003820Y003141D02*
X007640Y003141D01*
X007640Y002983D02*
X003275Y002983D01*
X003251Y003141D02*
X003480Y003141D01*
X003373Y002824D02*
X007640Y002824D01*
X007640Y002666D02*
X003396Y002666D01*
X003361Y002507D02*
X007640Y002507D01*
X007640Y002349D02*
X003246Y002349D01*
X003280Y002190D02*
X007640Y002190D01*
X007640Y002032D02*
X003375Y002032D01*
X003396Y001873D02*
X007640Y001873D01*
X007640Y001715D02*
X003358Y001715D01*
X003241Y001556D02*
X007640Y001556D01*
X007640Y001398D02*
X003312Y001398D01*
X003396Y001239D02*
X007640Y001239D01*
X007640Y001081D02*
X003416Y001081D01*
X003379Y000922D02*
X007640Y000922D01*
X007640Y000764D02*
X003264Y000764D01*
X002959Y000764D02*
X002959Y000764D01*
X002959Y000922D02*
X002959Y000922D01*
X002959Y001081D02*
X002959Y001081D01*
X003985Y003300D02*
X007640Y003300D01*
X007640Y003458D02*
X004028Y003458D01*
X004267Y003617D02*
X007640Y003617D01*
X007640Y003775D02*
X004290Y003775D01*
X004290Y003934D02*
X007640Y003934D01*
X007640Y004092D02*
X004290Y004092D01*
X004290Y004251D02*
X007640Y004251D01*
X007640Y004409D02*
X004290Y004409D01*
X004290Y004568D02*
X007640Y004568D01*
X007640Y004726D02*
X004290Y004726D01*
X004290Y004885D02*
X007640Y004885D01*
X007640Y005043D02*
X004290Y005043D01*
X004290Y005202D02*
X007640Y005202D01*
X007640Y005360D02*
X004290Y005360D01*
X004290Y005519D02*
X007640Y005519D01*
X007640Y005677D02*
X004290Y005677D01*
X004290Y005836D02*
X007640Y005836D01*
X007640Y005994D02*
X004290Y005994D01*
X004290Y006153D02*
X007640Y006153D01*
X007640Y006311D02*
X004290Y006311D01*
X004290Y006470D02*
X007640Y006470D01*
X007640Y006628D02*
X004290Y006628D01*
X004290Y006787D02*
X007640Y006787D01*
X007640Y006945D02*
X004290Y006945D01*
X004290Y007104D02*
X007640Y007104D01*
X007640Y007262D02*
X004290Y007262D01*
X004290Y007421D02*
X007640Y007421D01*
X007640Y007579D02*
X004290Y007579D01*
X004290Y007738D02*
X007640Y007738D01*
X007640Y007896D02*
X004290Y007896D01*
X004290Y008055D02*
X007640Y008055D01*
X007640Y008213D02*
X004290Y008213D01*
X004290Y008372D02*
X007640Y008372D01*
X007640Y008530D02*
X004290Y008530D01*
X004290Y008689D02*
X007640Y008689D01*
X007640Y008847D02*
X004290Y008847D01*
X004290Y009006D02*
X007640Y009006D01*
X007640Y009164D02*
X004290Y009164D01*
X004290Y009323D02*
X007640Y009323D01*
X007640Y009481D02*
X004290Y009481D01*
X004290Y009640D02*
X007640Y009640D01*
X007640Y009798D02*
X004347Y009798D01*
X004506Y009957D02*
X007640Y009957D01*
X007640Y010115D02*
X004664Y010115D01*
X004823Y010274D02*
X007640Y010274D01*
X007640Y010432D02*
X004981Y010432D01*
X005140Y010591D02*
X007640Y010591D01*
X007640Y010749D02*
X005298Y010749D01*
X005370Y011160D02*
X004050Y009840D01*
X005010Y011225D02*
X000930Y011225D01*
X000930Y011383D02*
X005084Y011383D01*
X005656Y011383D02*
X007640Y011383D01*
X007640Y011225D02*
X005730Y011225D01*
X005721Y011066D02*
X007640Y011066D01*
X007640Y010908D02*
X005627Y010908D01*
X007640Y011542D02*
X000930Y011542D01*
X000930Y011700D02*
X007640Y011700D01*
X007640Y011859D02*
X000930Y011859D01*
X000930Y012017D02*
X007640Y012017D01*
X007640Y012176D02*
X000930Y012176D01*
X000930Y012334D02*
X007640Y012334D01*
X007640Y012493D02*
X000930Y012493D01*
X000930Y012651D02*
X007640Y012651D01*
X007640Y012810D02*
X000930Y012810D01*
X000930Y012968D02*
X007640Y012968D01*
X007640Y013127D02*
X000930Y013127D01*
X000930Y013285D02*
X007640Y013285D01*
X003810Y004726D02*
X000930Y004726D01*
X003265Y004568D02*
X003810Y004568D01*
X003810Y004409D02*
X003368Y004409D01*
X003396Y004251D02*
X003810Y004251D01*
X003810Y004092D02*
X003365Y004092D01*
X003256Y003934D02*
X003698Y003934D01*
X003410Y003775D02*
X003270Y003775D01*
D12*
X003650Y003480D03*
X003330Y005360D03*
X007150Y004180D03*
D13*
X003330Y010680D03*
X005370Y011160D03*
M02*
