G75*
G70*
%OFA0B0*%
%FSLAX24Y24*%
%IPPOS*%
%LPD*%
%AMOC8*
5,1,8,0,0,1.08239X$1,22.5*
%
%ADD10R,0.0276X0.0354*%
%ADD11R,0.0551X0.0630*%
%ADD12R,0.0315X0.0315*%
%ADD13R,0.0591X0.0197*%
%ADD14R,0.0197X0.0591*%
%ADD15R,0.0748X0.0433*%
%ADD16R,0.0354X0.0276*%
%ADD17R,0.0709X0.0394*%
%ADD18R,0.0472X0.0217*%
%ADD19R,0.2953X0.0591*%
%ADD20R,0.2559X0.0394*%
%ADD21R,0.0669X0.0335*%
%ADD22R,0.0394X0.0394*%
D10*
X008744Y004500D03*
X009256Y004500D03*
X010344Y002900D03*
X010856Y002900D03*
X005056Y006600D03*
X004544Y006600D03*
X004544Y007400D03*
X005056Y007400D03*
X005056Y008000D03*
X004544Y008000D03*
X006044Y008400D03*
X006556Y008400D03*
X009044Y009200D03*
X009556Y009200D03*
X009556Y009900D03*
X009044Y009900D03*
X012644Y009800D03*
X013156Y009800D03*
X013256Y011800D03*
X012744Y011800D03*
X013244Y012300D03*
X013756Y012300D03*
D11*
X013551Y010900D03*
X012449Y010900D03*
X010251Y010900D03*
X009149Y010900D03*
D12*
X006400Y002305D03*
X006400Y002895D03*
X016405Y011900D03*
X016995Y011900D03*
D13*
G36*
X011733Y008550D02*
X011316Y008965D01*
X011455Y009104D01*
X011872Y008689D01*
X011733Y008550D01*
G37*
G36*
X011511Y008327D02*
X011094Y008742D01*
X011233Y008881D01*
X011650Y008466D01*
X011511Y008327D01*
G37*
G36*
X011288Y008104D02*
X010871Y008519D01*
X011010Y008658D01*
X011427Y008243D01*
X011288Y008104D01*
G37*
G36*
X011066Y007881D02*
X010649Y008296D01*
X010788Y008435D01*
X011205Y008020D01*
X011066Y007881D01*
G37*
G36*
X010844Y007658D02*
X010427Y008073D01*
X010566Y008212D01*
X010983Y007797D01*
X010844Y007658D01*
G37*
G36*
X010622Y007435D02*
X010205Y007850D01*
X010344Y007989D01*
X010761Y007574D01*
X010622Y007435D01*
G37*
G36*
X010399Y007212D02*
X009982Y007627D01*
X010121Y007766D01*
X010538Y007351D01*
X010399Y007212D01*
G37*
G36*
X010177Y006989D02*
X009760Y007404D01*
X009899Y007543D01*
X010316Y007128D01*
X010177Y006989D01*
G37*
G36*
X009955Y006766D02*
X009538Y007181D01*
X009677Y007320D01*
X010094Y006905D01*
X009955Y006766D01*
G37*
G36*
X009732Y006542D02*
X009315Y006957D01*
X009454Y007096D01*
X009871Y006681D01*
X009732Y006542D01*
G37*
G36*
X009510Y006319D02*
X009093Y006734D01*
X009232Y006873D01*
X009649Y006458D01*
X009510Y006319D01*
G37*
G36*
X013190Y003542D02*
X012773Y003957D01*
X012912Y004096D01*
X013329Y003681D01*
X013190Y003542D01*
G37*
G36*
X012967Y003319D02*
X012550Y003734D01*
X012689Y003873D01*
X013106Y003458D01*
X012967Y003319D01*
G37*
G36*
X012745Y003096D02*
X012328Y003511D01*
X012467Y003650D01*
X012884Y003235D01*
X012745Y003096D01*
G37*
G36*
X013412Y003765D02*
X012995Y004180D01*
X013134Y004319D01*
X013551Y003904D01*
X013412Y003765D01*
G37*
G36*
X013634Y003988D02*
X013217Y004403D01*
X013356Y004542D01*
X013773Y004127D01*
X013634Y003988D01*
G37*
G36*
X013856Y004211D02*
X013439Y004626D01*
X013578Y004765D01*
X013995Y004350D01*
X013856Y004211D01*
G37*
G36*
X014079Y004434D02*
X013662Y004849D01*
X013801Y004988D01*
X014218Y004573D01*
X014079Y004434D01*
G37*
G36*
X014301Y004657D02*
X013884Y005072D01*
X014023Y005211D01*
X014440Y004796D01*
X014301Y004657D01*
G37*
G36*
X014523Y004880D02*
X014106Y005295D01*
X014245Y005434D01*
X014662Y005019D01*
X014523Y004880D01*
G37*
G36*
X014746Y005104D02*
X014329Y005519D01*
X014468Y005658D01*
X014885Y005243D01*
X014746Y005104D01*
G37*
G36*
X014968Y005327D02*
X014551Y005742D01*
X014690Y005881D01*
X015107Y005466D01*
X014968Y005327D01*
G37*
D14*
G36*
X014689Y006328D02*
X014550Y006467D01*
X014965Y006884D01*
X015104Y006745D01*
X014689Y006328D01*
G37*
G36*
X014466Y006550D02*
X014327Y006689D01*
X014742Y007106D01*
X014881Y006967D01*
X014466Y006550D01*
G37*
G36*
X014243Y006773D02*
X014104Y006912D01*
X014519Y007329D01*
X014658Y007190D01*
X014243Y006773D01*
G37*
G36*
X014020Y006995D02*
X013881Y007134D01*
X014296Y007551D01*
X014435Y007412D01*
X014020Y006995D01*
G37*
G36*
X013797Y007217D02*
X013658Y007356D01*
X014073Y007773D01*
X014212Y007634D01*
X013797Y007217D01*
G37*
G36*
X013574Y007439D02*
X013435Y007578D01*
X013850Y007995D01*
X013989Y007856D01*
X013574Y007439D01*
G37*
G36*
X013351Y007662D02*
X013212Y007801D01*
X013627Y008218D01*
X013766Y008079D01*
X013351Y007662D01*
G37*
G36*
X013128Y007884D02*
X012989Y008023D01*
X013404Y008440D01*
X013543Y008301D01*
X013128Y007884D01*
G37*
G36*
X012905Y008106D02*
X012766Y008245D01*
X013181Y008662D01*
X013320Y008523D01*
X012905Y008106D01*
G37*
G36*
X012681Y008329D02*
X012542Y008468D01*
X012957Y008885D01*
X013096Y008746D01*
X012681Y008329D01*
G37*
G36*
X012458Y008551D02*
X012319Y008690D01*
X012734Y009107D01*
X012873Y008968D01*
X012458Y008551D01*
G37*
G36*
X009235Y005316D02*
X009096Y005455D01*
X009511Y005872D01*
X009650Y005733D01*
X009235Y005316D01*
G37*
G36*
X009458Y005094D02*
X009319Y005233D01*
X009734Y005650D01*
X009873Y005511D01*
X009458Y005094D01*
G37*
G36*
X009681Y004871D02*
X009542Y005010D01*
X009957Y005427D01*
X010096Y005288D01*
X009681Y004871D01*
G37*
G36*
X009904Y004649D02*
X009765Y004788D01*
X010180Y005205D01*
X010319Y005066D01*
X009904Y004649D01*
G37*
G36*
X010127Y004427D02*
X009988Y004566D01*
X010403Y004983D01*
X010542Y004844D01*
X010127Y004427D01*
G37*
G36*
X010350Y004205D02*
X010211Y004344D01*
X010626Y004761D01*
X010765Y004622D01*
X010350Y004205D01*
G37*
G36*
X010573Y003982D02*
X010434Y004121D01*
X010849Y004538D01*
X010988Y004399D01*
X010573Y003982D01*
G37*
G36*
X010796Y003760D02*
X010657Y003899D01*
X011072Y004316D01*
X011211Y004177D01*
X010796Y003760D01*
G37*
G36*
X011019Y003538D02*
X010880Y003677D01*
X011295Y004094D01*
X011434Y003955D01*
X011019Y003538D01*
G37*
G36*
X011243Y003315D02*
X011104Y003454D01*
X011519Y003871D01*
X011658Y003732D01*
X011243Y003315D01*
G37*
G36*
X011466Y003093D02*
X011327Y003232D01*
X011742Y003649D01*
X011881Y003510D01*
X011466Y003093D01*
G37*
D15*
X012272Y002353D03*
X012272Y001447D03*
X013728Y001447D03*
X013728Y002353D03*
D16*
X014600Y002456D03*
X014600Y001944D03*
X011400Y001956D03*
X011400Y001444D03*
X009100Y007944D03*
X009100Y008456D03*
D17*
X011300Y009749D03*
X011300Y010851D03*
D18*
X010788Y011826D03*
X011812Y011826D03*
X011812Y012200D03*
X011812Y012574D03*
X010788Y012574D03*
D19*
X002021Y008378D03*
X002021Y005622D03*
D20*
X002218Y006606D03*
X002218Y007394D03*
D21*
X007079Y007524D03*
X008260Y006737D03*
X007079Y005950D03*
X008260Y005162D03*
X007079Y004375D03*
X008260Y003587D03*
X008260Y008312D03*
X007079Y009099D03*
X008260Y009887D03*
X007079Y010674D03*
X015740Y010674D03*
X016921Y009887D03*
X015740Y009099D03*
X016921Y008312D03*
X015740Y007524D03*
X016921Y006737D03*
X015740Y005950D03*
X016921Y005162D03*
X015740Y004375D03*
X016921Y003587D03*
D22*
X017187Y012685D03*
X017187Y013315D03*
X015613Y013315D03*
X015613Y012685D03*
M02*
