G75*
G70*
%OFA0B0*%
%FSLAX24Y24*%
%IPPOS*%
%LPD*%
%AMOC8*
5,1,8,0,0,1.08239X$1,22.5*
%
%ADD10C,0.0555*%
%ADD11R,0.1100X0.1500*%
%ADD12R,0.1500X0.1100*%
%ADD13R,0.0551X0.0394*%
%ADD14R,0.0256X0.0197*%
%ADD15R,0.0276X0.0354*%
%ADD16R,0.1142X0.1969*%
%ADD17R,0.0276X0.0394*%
%ADD18C,0.0320*%
%ADD19C,0.0160*%
%ADD20C,0.0436*%
%ADD21C,0.0120*%
%ADD22C,0.0860*%
D10*
X002989Y001105D03*
X002989Y001893D03*
X002989Y002680D03*
X002989Y003467D03*
X002989Y004255D03*
D11*
X002080Y009680D03*
X002080Y012180D03*
X004890Y012180D03*
X004890Y009680D03*
D12*
X006180Y004090D03*
X006180Y001280D03*
D13*
X005313Y005606D03*
X005313Y006354D03*
X005213Y007406D03*
X005213Y008154D03*
X004347Y007780D03*
X004447Y005980D03*
X006147Y006880D03*
X007013Y006506D03*
X007013Y007254D03*
D14*
X004326Y003752D03*
X004326Y003437D03*
X004326Y003123D03*
X004326Y002808D03*
X003834Y002808D03*
X003834Y003123D03*
X003834Y003437D03*
X003834Y003752D03*
D15*
X004024Y005180D03*
X004536Y005180D03*
X005824Y007580D03*
X006336Y007580D03*
X006624Y005580D03*
X007136Y005580D03*
D16*
X002480Y006780D03*
D17*
X001634Y006544D03*
X001634Y007016D03*
X001634Y007567D03*
X001634Y005993D03*
X003326Y005993D03*
X003326Y006544D03*
X003326Y007016D03*
X003326Y007567D03*
D18*
X003363Y007080D02*
X003380Y007080D01*
X003326Y007026D01*
X003326Y007016D01*
X003380Y007080D02*
X003880Y007080D01*
X004347Y007547D01*
X004347Y007780D01*
X004890Y008477D02*
X005213Y008154D01*
X004890Y008477D02*
X004890Y009680D01*
X004880Y011780D02*
X004880Y012180D01*
X004890Y012180D01*
X004880Y011780D02*
X007013Y009647D01*
X007013Y007254D01*
X006147Y006880D02*
X004680Y006880D01*
X004380Y006580D01*
X003363Y006580D01*
X003326Y006544D01*
X003326Y005993D02*
X003339Y005980D01*
X003439Y005980D01*
X003580Y005980D01*
X004447Y005980D01*
X005313Y006354D02*
X005706Y006354D01*
X005880Y006180D01*
X005880Y004190D01*
X006180Y004090D01*
X002989Y001893D02*
X002976Y001880D01*
X002080Y001880D01*
X001634Y002326D01*
X001634Y005993D01*
X001634Y006544D01*
X001634Y007016D01*
D19*
X000960Y005480D02*
X000960Y000360D01*
X007270Y000360D01*
X007270Y003131D01*
X007058Y002919D01*
X006970Y002883D01*
X004634Y002883D01*
X004634Y002647D01*
X004706Y002618D01*
X004818Y002506D01*
X004878Y002359D01*
X004878Y002201D01*
X004818Y002054D01*
X004706Y001942D01*
X004559Y001882D01*
X004401Y001882D01*
X004254Y001942D01*
X004142Y002054D01*
X004082Y002201D01*
X004082Y002359D01*
X004090Y002378D01*
X004086Y002386D01*
X004086Y002567D01*
X004080Y002573D01*
X004036Y002529D01*
X003631Y002529D01*
X003593Y002568D01*
X003437Y002568D01*
X003376Y002421D01*
X003248Y002292D01*
X003234Y002286D01*
X003248Y002280D01*
X003376Y002152D01*
X003446Y001984D01*
X003446Y001802D01*
X003376Y001633D01*
X003248Y001505D01*
X003228Y001497D01*
X003228Y001496D01*
X003287Y001454D01*
X003338Y001403D01*
X003380Y001345D01*
X003413Y001281D01*
X003435Y001212D01*
X003446Y001141D01*
X003446Y001105D01*
X002989Y001105D01*
X002989Y001105D01*
X002989Y000648D01*
X003025Y000648D01*
X003096Y000659D01*
X003164Y000681D01*
X003228Y000714D01*
X003287Y000756D01*
X003338Y000807D01*
X003380Y000865D01*
X003413Y000930D01*
X003435Y000998D01*
X003446Y001069D01*
X003446Y001105D01*
X002989Y001105D01*
X002989Y001105D01*
X002989Y000648D01*
X002953Y000648D01*
X002882Y000659D01*
X002813Y000681D01*
X002749Y000714D01*
X002691Y000756D01*
X002640Y000807D01*
X002597Y000865D01*
X002565Y000930D01*
X002542Y000998D01*
X002531Y001069D01*
X002531Y001105D01*
X002989Y001105D01*
X002989Y001105D01*
X002531Y001105D01*
X002531Y001141D01*
X002542Y001212D01*
X002565Y001281D01*
X002597Y001345D01*
X002640Y001403D01*
X002691Y001454D01*
X002749Y001496D01*
X002749Y001497D01*
X002730Y001505D01*
X002694Y001540D01*
X002012Y001540D01*
X001887Y001592D01*
X001441Y002038D01*
X001345Y002134D01*
X001294Y002259D01*
X001294Y005480D01*
X000960Y005480D01*
X000960Y005360D02*
X001294Y005360D01*
X001294Y005202D02*
X000960Y005202D01*
X000960Y005043D02*
X001294Y005043D01*
X001294Y004885D02*
X000960Y004885D01*
X000960Y004726D02*
X001294Y004726D01*
X001294Y004568D02*
X000960Y004568D01*
X000960Y004409D02*
X001294Y004409D01*
X001294Y004251D02*
X000960Y004251D01*
X000960Y004092D02*
X001294Y004092D01*
X001294Y003934D02*
X000960Y003934D01*
X000960Y003775D02*
X001294Y003775D01*
X001294Y003617D02*
X000960Y003617D01*
X000960Y003458D02*
X001294Y003458D01*
X001294Y003300D02*
X000960Y003300D01*
X000960Y003141D02*
X001294Y003141D01*
X001294Y002983D02*
X000960Y002983D01*
X000960Y002824D02*
X001294Y002824D01*
X001294Y002666D02*
X000960Y002666D01*
X000960Y002507D02*
X001294Y002507D01*
X001294Y002349D02*
X000960Y002349D01*
X000960Y002190D02*
X001322Y002190D01*
X001448Y002032D02*
X000960Y002032D01*
X000960Y001873D02*
X001606Y001873D01*
X001765Y001715D02*
X000960Y001715D01*
X000960Y001556D02*
X001974Y001556D01*
X002221Y002220D02*
X001974Y002467D01*
X001974Y005480D01*
X003755Y005480D01*
X003742Y005468D01*
X003719Y005427D01*
X003706Y005381D01*
X003706Y005180D01*
X003706Y004979D01*
X003719Y004933D01*
X003742Y004892D01*
X003776Y004859D01*
X003817Y004835D01*
X003863Y004823D01*
X004024Y004823D01*
X004024Y005180D01*
X003706Y005180D01*
X004024Y005180D01*
X004024Y005180D01*
X004024Y005180D01*
X004024Y004823D01*
X004186Y004823D01*
X004231Y004835D01*
X004272Y004859D01*
X004280Y004866D01*
X004324Y004823D01*
X004538Y004823D01*
X004538Y004701D01*
X004598Y004554D01*
X004710Y004442D01*
X004857Y004382D01*
X005015Y004382D01*
X005161Y004442D01*
X005250Y004531D01*
X005250Y003465D01*
X005353Y003363D01*
X004634Y003363D01*
X004634Y003925D01*
X004558Y004002D01*
X004530Y004070D01*
X004478Y004121D01*
X004478Y004259D01*
X004418Y004406D01*
X004306Y004518D01*
X004159Y004578D01*
X004001Y004578D01*
X003854Y004518D01*
X003742Y004406D01*
X003682Y004259D01*
X003682Y004101D01*
X003711Y004031D01*
X003631Y004031D01*
X003593Y003992D01*
X003590Y003992D01*
X003438Y004145D01*
X003446Y004164D01*
X003446Y004346D01*
X003376Y004514D01*
X003248Y004643D01*
X003080Y004712D01*
X002898Y004712D01*
X002730Y004643D01*
X002601Y004514D01*
X002531Y004346D01*
X002531Y004164D01*
X002601Y003996D01*
X002730Y003867D01*
X002744Y003861D01*
X002730Y003855D01*
X002601Y003727D01*
X002531Y003558D01*
X002531Y003376D01*
X002601Y003208D01*
X002730Y003080D01*
X002744Y003074D01*
X002730Y003068D01*
X002601Y002939D01*
X002531Y002771D01*
X002531Y002589D01*
X002601Y002421D01*
X002730Y002292D01*
X002744Y002286D01*
X002730Y002280D01*
X002669Y002220D01*
X002221Y002220D01*
X002092Y002349D02*
X002673Y002349D01*
X002565Y002507D02*
X001974Y002507D01*
X001974Y002666D02*
X002531Y002666D01*
X002553Y002824D02*
X001974Y002824D01*
X001974Y002983D02*
X002644Y002983D01*
X002668Y003141D02*
X001974Y003141D01*
X001974Y003300D02*
X002563Y003300D01*
X002531Y003458D02*
X001974Y003458D01*
X001974Y003617D02*
X002555Y003617D01*
X002649Y003775D02*
X001974Y003775D01*
X001974Y003934D02*
X002663Y003934D01*
X002561Y004092D02*
X001974Y004092D01*
X001974Y004251D02*
X002531Y004251D01*
X002557Y004409D02*
X001974Y004409D01*
X001974Y004568D02*
X002654Y004568D01*
X003323Y004568D02*
X003975Y004568D01*
X003746Y004409D02*
X003420Y004409D01*
X003446Y004251D02*
X003682Y004251D01*
X003686Y004092D02*
X003491Y004092D01*
X003750Y004885D02*
X001974Y004885D01*
X001974Y005043D02*
X003706Y005043D01*
X003706Y005202D02*
X001974Y005202D01*
X001974Y005360D02*
X003706Y005360D01*
X004024Y005043D02*
X004024Y005043D01*
X004024Y004885D02*
X004024Y004885D01*
X004185Y004568D02*
X004593Y004568D01*
X004538Y004726D02*
X001974Y004726D01*
X001980Y005780D02*
X001980Y008080D01*
X001180Y008080D01*
X001180Y008480D01*
X003880Y008480D01*
X003880Y008080D01*
X002980Y008080D01*
X002980Y005780D01*
X001980Y005780D01*
X001980Y005836D02*
X002980Y005836D01*
X002980Y005994D02*
X001980Y005994D01*
X001980Y006153D02*
X002980Y006153D01*
X002980Y006311D02*
X001980Y006311D01*
X001980Y006470D02*
X002980Y006470D01*
X002980Y006628D02*
X001980Y006628D01*
X001980Y006787D02*
X002980Y006787D01*
X002980Y006945D02*
X001980Y006945D01*
X001980Y007104D02*
X002980Y007104D01*
X002980Y007262D02*
X001980Y007262D01*
X001980Y007421D02*
X002980Y007421D01*
X002980Y007579D02*
X001980Y007579D01*
X001980Y007738D02*
X002980Y007738D01*
X002980Y007896D02*
X001980Y007896D01*
X001980Y008055D02*
X002980Y008055D01*
X002803Y008880D02*
X002810Y008906D01*
X002810Y009600D01*
X002160Y009600D01*
X002160Y009760D01*
X002810Y009760D01*
X002810Y010454D01*
X002798Y010499D01*
X002774Y010541D01*
X002741Y010574D01*
X002699Y010598D01*
X002654Y010610D01*
X002160Y010610D01*
X002160Y009760D01*
X002000Y009760D01*
X002000Y010610D01*
X001506Y010610D01*
X001461Y010598D01*
X001419Y010574D01*
X001386Y010541D01*
X001362Y010499D01*
X001350Y010454D01*
X001350Y009760D01*
X002000Y009760D01*
X002000Y009600D01*
X001350Y009600D01*
X001350Y008906D01*
X001357Y008880D01*
X000960Y008880D01*
X000960Y013396D01*
X007270Y013396D01*
X007270Y009871D01*
X005620Y011521D01*
X005620Y013005D01*
X005515Y013110D01*
X004265Y013110D01*
X004160Y013005D01*
X004160Y011355D01*
X004265Y011250D01*
X004929Y011250D01*
X006673Y009506D01*
X006673Y007631D01*
X006663Y007631D01*
X006654Y007622D01*
X006654Y007781D01*
X006641Y007827D01*
X006618Y007868D01*
X006584Y007901D01*
X006543Y007925D01*
X006497Y007937D01*
X006336Y007937D01*
X006336Y007580D01*
X006336Y007580D01*
X006336Y007937D01*
X006174Y007937D01*
X006129Y007925D01*
X006120Y007920D01*
X006120Y007957D01*
X006218Y008054D01*
X006278Y008201D01*
X006278Y008359D01*
X006218Y008506D01*
X006106Y008618D01*
X005959Y008678D01*
X005801Y008678D01*
X005654Y008618D01*
X005566Y008529D01*
X005563Y008531D01*
X005317Y008531D01*
X005230Y008618D01*
X005230Y008750D01*
X005515Y008750D01*
X005620Y008855D01*
X005620Y010505D01*
X005515Y010610D01*
X004265Y010610D01*
X004160Y010505D01*
X004160Y008880D01*
X002803Y008880D01*
X002810Y009006D02*
X004160Y009006D01*
X004160Y009164D02*
X002810Y009164D01*
X002810Y009323D02*
X004160Y009323D01*
X004160Y009481D02*
X002810Y009481D01*
X002810Y009798D02*
X004160Y009798D01*
X004160Y009640D02*
X002160Y009640D01*
X002160Y009798D02*
X002000Y009798D01*
X002000Y009640D02*
X000960Y009640D01*
X000960Y009798D02*
X001350Y009798D01*
X001350Y009957D02*
X000960Y009957D01*
X000960Y010115D02*
X001350Y010115D01*
X001350Y010274D02*
X000960Y010274D01*
X000960Y010432D02*
X001350Y010432D01*
X001448Y010591D02*
X000960Y010591D01*
X000960Y010749D02*
X005430Y010749D01*
X005272Y010908D02*
X000960Y010908D01*
X000960Y011066D02*
X005113Y011066D01*
X004955Y011225D02*
X000960Y011225D01*
X000960Y011383D02*
X001356Y011383D01*
X001362Y011361D02*
X001350Y011406D01*
X001350Y012100D01*
X002000Y012100D01*
X002160Y012100D01*
X002160Y012260D01*
X002810Y012260D01*
X002810Y012954D01*
X002798Y012999D01*
X002774Y013041D01*
X002741Y013074D01*
X002699Y013098D01*
X002654Y013110D01*
X002160Y013110D01*
X002160Y012260D01*
X002000Y012260D01*
X002000Y013110D01*
X001506Y013110D01*
X001461Y013098D01*
X001419Y013074D01*
X001386Y013041D01*
X001362Y012999D01*
X001350Y012954D01*
X001350Y012260D01*
X002000Y012260D01*
X002000Y012100D01*
X002000Y011250D01*
X001506Y011250D01*
X001461Y011262D01*
X001419Y011286D01*
X001386Y011319D01*
X001362Y011361D01*
X001350Y011542D02*
X000960Y011542D01*
X000960Y011700D02*
X001350Y011700D01*
X001350Y011859D02*
X000960Y011859D01*
X000960Y012017D02*
X001350Y012017D01*
X001350Y012334D02*
X000960Y012334D01*
X000960Y012176D02*
X002000Y012176D01*
X002000Y012334D02*
X002160Y012334D01*
X002160Y012176D02*
X004160Y012176D01*
X004160Y012334D02*
X002810Y012334D01*
X002810Y012493D02*
X004160Y012493D01*
X004160Y012651D02*
X002810Y012651D01*
X002810Y012810D02*
X004160Y012810D01*
X004160Y012968D02*
X002806Y012968D01*
X002160Y012968D02*
X002000Y012968D01*
X002000Y012810D02*
X002160Y012810D01*
X002160Y012651D02*
X002000Y012651D01*
X002000Y012493D02*
X002160Y012493D01*
X002160Y012100D02*
X002810Y012100D01*
X002810Y011406D01*
X002798Y011361D01*
X002774Y011319D01*
X002741Y011286D01*
X002699Y011262D01*
X002654Y011250D01*
X002160Y011250D01*
X002160Y012100D01*
X002160Y012017D02*
X002000Y012017D01*
X002000Y011859D02*
X002160Y011859D01*
X002160Y011700D02*
X002000Y011700D01*
X002000Y011542D02*
X002160Y011542D01*
X002160Y011383D02*
X002000Y011383D01*
X002000Y010591D02*
X002160Y010591D01*
X002160Y010432D02*
X002000Y010432D01*
X002000Y010274D02*
X002160Y010274D01*
X002160Y010115D02*
X002000Y010115D01*
X002000Y009957D02*
X002160Y009957D01*
X002712Y010591D02*
X004246Y010591D01*
X004160Y010432D02*
X002810Y010432D01*
X002810Y010274D02*
X004160Y010274D01*
X004160Y010115D02*
X002810Y010115D01*
X002810Y009957D02*
X004160Y009957D01*
X004160Y011383D02*
X002804Y011383D01*
X002810Y011542D02*
X004160Y011542D01*
X004160Y011700D02*
X002810Y011700D01*
X002810Y011859D02*
X004160Y011859D01*
X004160Y012017D02*
X002810Y012017D01*
X001350Y012493D02*
X000960Y012493D01*
X000960Y012651D02*
X001350Y012651D01*
X001350Y012810D02*
X000960Y012810D01*
X000960Y012968D02*
X001354Y012968D01*
X000960Y013127D02*
X007270Y013127D01*
X007270Y013285D02*
X000960Y013285D01*
X000960Y009481D02*
X001350Y009481D01*
X001350Y009323D02*
X000960Y009323D01*
X000960Y009164D02*
X001350Y009164D01*
X001350Y009006D02*
X000960Y009006D01*
X001180Y008372D02*
X003880Y008372D01*
X003880Y008213D02*
X001180Y008213D01*
X004414Y004409D02*
X004791Y004409D01*
X004478Y004251D02*
X005250Y004251D01*
X005250Y004092D02*
X004507Y004092D01*
X004626Y003934D02*
X005250Y003934D01*
X005250Y003775D02*
X004634Y003775D01*
X004634Y003617D02*
X005250Y003617D01*
X005257Y003458D02*
X004634Y003458D01*
X004634Y002824D02*
X007270Y002824D01*
X007270Y002666D02*
X004634Y002666D01*
X004816Y002507D02*
X007270Y002507D01*
X007270Y002349D02*
X004878Y002349D01*
X004874Y002190D02*
X007270Y002190D01*
X007270Y002032D02*
X004795Y002032D01*
X005262Y001899D02*
X005250Y001854D01*
X005250Y001360D01*
X006100Y001360D01*
X006100Y002010D01*
X005406Y002010D01*
X005361Y001998D01*
X005319Y001974D01*
X005286Y001941D01*
X005262Y001899D01*
X005255Y001873D02*
X003446Y001873D01*
X003426Y002032D02*
X004165Y002032D01*
X004086Y002190D02*
X003338Y002190D01*
X003304Y002349D02*
X004082Y002349D01*
X004086Y002507D02*
X003412Y002507D01*
X003410Y001715D02*
X005250Y001715D01*
X005250Y001556D02*
X003299Y001556D01*
X003342Y001398D02*
X005250Y001398D01*
X005250Y001200D02*
X005250Y000706D01*
X005262Y000661D01*
X005286Y000619D01*
X005319Y000586D01*
X005361Y000562D01*
X005406Y000550D01*
X006100Y000550D01*
X006100Y001200D01*
X006260Y001200D01*
X006260Y001360D01*
X006100Y001360D01*
X006100Y001200D01*
X005250Y001200D01*
X005250Y001081D02*
X003446Y001081D01*
X003409Y000922D02*
X005250Y000922D01*
X005250Y000764D02*
X003294Y000764D01*
X002989Y000764D02*
X002989Y000764D01*
X002989Y000922D02*
X002989Y000922D01*
X002989Y001081D02*
X002989Y001081D01*
X002683Y000764D02*
X000960Y000764D01*
X000960Y000922D02*
X002569Y000922D01*
X002531Y001081D02*
X000960Y001081D01*
X000960Y001239D02*
X002551Y001239D01*
X002636Y001398D02*
X000960Y001398D01*
X000960Y000605D02*
X005300Y000605D01*
X006100Y000605D02*
X006260Y000605D01*
X006260Y000550D02*
X006954Y000550D01*
X006999Y000562D01*
X007041Y000586D01*
X007074Y000619D01*
X007098Y000661D01*
X007110Y000706D01*
X007110Y001200D01*
X006260Y001200D01*
X006260Y000550D01*
X006260Y000764D02*
X006100Y000764D01*
X006100Y000922D02*
X006260Y000922D01*
X006260Y001081D02*
X006100Y001081D01*
X006100Y001239D02*
X003426Y001239D01*
X005081Y004409D02*
X005250Y004409D01*
X006220Y004820D02*
X006220Y006248D01*
X006168Y006373D01*
X006073Y006468D01*
X006038Y006503D01*
X006497Y006503D01*
X006557Y006564D01*
X006557Y006235D01*
X006663Y006129D01*
X006888Y006129D01*
X006891Y005905D01*
X006880Y005894D01*
X006872Y005901D01*
X006831Y005925D01*
X006786Y005937D01*
X006624Y005937D01*
X006463Y005937D01*
X006417Y005925D01*
X006376Y005901D01*
X006342Y005868D01*
X006319Y005827D01*
X006306Y005781D01*
X006306Y005580D01*
X006306Y005379D01*
X006319Y005333D01*
X006342Y005292D01*
X006376Y005259D01*
X006417Y005235D01*
X006463Y005223D01*
X006624Y005223D01*
X006624Y005580D01*
X006306Y005580D01*
X006624Y005580D01*
X006624Y005580D01*
X006624Y005580D01*
X006624Y005937D01*
X006624Y005580D01*
X006624Y005580D01*
X006624Y005223D01*
X006786Y005223D01*
X006831Y005235D01*
X006872Y005259D01*
X006880Y005266D01*
X006924Y005223D01*
X006940Y005223D01*
X006940Y004820D01*
X006220Y004820D01*
X006220Y004885D02*
X006940Y004885D01*
X006940Y005043D02*
X006220Y005043D01*
X006220Y005202D02*
X006940Y005202D01*
X006624Y005360D02*
X006624Y005360D01*
X006624Y005519D02*
X006624Y005519D01*
X006624Y005677D02*
X006624Y005677D01*
X006624Y005836D02*
X006624Y005836D01*
X006640Y006153D02*
X006220Y006153D01*
X006220Y005994D02*
X006890Y005994D01*
X006557Y006311D02*
X006194Y006311D01*
X006071Y006470D02*
X006557Y006470D01*
X006324Y005836D02*
X006220Y005836D01*
X006220Y005677D02*
X006306Y005677D01*
X006306Y005519D02*
X006220Y005519D01*
X006220Y005360D02*
X006311Y005360D01*
X007122Y002983D02*
X007270Y002983D01*
X006999Y001998D02*
X006954Y002010D01*
X006260Y002010D01*
X006260Y001360D01*
X007110Y001360D01*
X007110Y001854D01*
X007098Y001899D01*
X007074Y001941D01*
X007041Y001974D01*
X006999Y001998D01*
X007105Y001873D02*
X007270Y001873D01*
X007270Y001715D02*
X007110Y001715D01*
X007110Y001556D02*
X007270Y001556D01*
X007270Y001398D02*
X007110Y001398D01*
X007270Y001239D02*
X006260Y001239D01*
X006260Y001398D02*
X006100Y001398D01*
X006100Y001556D02*
X006260Y001556D01*
X006260Y001715D02*
X006100Y001715D01*
X006100Y001873D02*
X006260Y001873D01*
X007110Y001081D02*
X007270Y001081D01*
X007270Y000922D02*
X007110Y000922D01*
X007110Y000764D02*
X007270Y000764D01*
X007270Y000605D02*
X007060Y000605D01*
X007270Y000447D02*
X000960Y000447D01*
X006218Y008055D02*
X006673Y008055D01*
X006673Y008213D02*
X006278Y008213D01*
X006273Y008372D02*
X006673Y008372D01*
X006673Y008530D02*
X006193Y008530D01*
X006336Y007896D02*
X006336Y007896D01*
X006336Y007738D02*
X006336Y007738D01*
X006589Y007896D02*
X006673Y007896D01*
X006673Y007738D02*
X006654Y007738D01*
X006673Y008689D02*
X005230Y008689D01*
X005564Y008530D02*
X005567Y008530D01*
X005612Y008847D02*
X006673Y008847D01*
X006673Y009006D02*
X005620Y009006D01*
X005620Y009164D02*
X006673Y009164D01*
X006673Y009323D02*
X005620Y009323D01*
X005620Y009481D02*
X006673Y009481D01*
X006540Y009640D02*
X005620Y009640D01*
X005620Y009798D02*
X006381Y009798D01*
X006223Y009957D02*
X005620Y009957D01*
X005620Y010115D02*
X006064Y010115D01*
X005906Y010274D02*
X005620Y010274D01*
X005620Y010432D02*
X005747Y010432D01*
X005589Y010591D02*
X005534Y010591D01*
X005916Y011225D02*
X007270Y011225D01*
X007270Y011383D02*
X005758Y011383D01*
X005620Y011542D02*
X007270Y011542D01*
X007270Y011700D02*
X005620Y011700D01*
X005620Y011859D02*
X007270Y011859D01*
X007270Y012017D02*
X005620Y012017D01*
X005620Y012176D02*
X007270Y012176D01*
X007270Y012334D02*
X005620Y012334D01*
X005620Y012493D02*
X007270Y012493D01*
X007270Y012651D02*
X005620Y012651D01*
X005620Y012810D02*
X007270Y012810D01*
X007270Y012968D02*
X005620Y012968D01*
X006075Y011066D02*
X007270Y011066D01*
X007270Y010908D02*
X006233Y010908D01*
X006392Y010749D02*
X007270Y010749D01*
X007270Y010591D02*
X006550Y010591D01*
X006709Y010432D02*
X007270Y010432D01*
X007270Y010274D02*
X006867Y010274D01*
X007026Y010115D02*
X007270Y010115D01*
X007270Y009957D02*
X007184Y009957D01*
D20*
X006280Y009280D03*
X005880Y008280D03*
X006380Y006180D03*
X004936Y004780D03*
X004080Y004180D03*
X003080Y005280D03*
X004480Y002280D03*
D21*
X004326Y002434D01*
X004326Y002808D01*
X004326Y003123D02*
X006923Y003123D01*
X007180Y003380D01*
X007180Y005536D01*
X007136Y005580D01*
X007124Y006395D01*
X007013Y006506D01*
X005880Y007636D02*
X005880Y008280D01*
X005880Y007636D02*
X005824Y007580D01*
X005387Y007580D01*
X005213Y007406D01*
X005313Y005606D02*
X005313Y005157D01*
X004936Y004780D01*
X004980Y004780D01*
X004936Y004780D02*
X004536Y005180D01*
X004080Y004180D02*
X004326Y003934D01*
X004326Y003752D01*
X003834Y003752D02*
X003491Y003752D01*
X002989Y004255D01*
X002989Y003467D02*
X003334Y003123D01*
X003834Y003123D01*
X003834Y002808D02*
X003116Y002808D01*
X002989Y002680D01*
D22*
X002480Y006780D02*
X002480Y008180D01*
M02*
