G75*
G70*
%OFA0B0*%
%FSLAX24Y24*%
%IPPOS*%
%LPD*%
%AMOC8*
5,1,8,0,0,1.08239X$1,22.5*
%
%ADD10C,0.0640*%
%ADD11C,0.0120*%
%ADD12C,0.0300*%
%ADD13R,0.0335X0.0866*%
%ADD14R,0.0394X0.0413*%
%ADD15C,0.0740*%
%ADD16C,0.0300*%
%ADD17C,0.0100*%
%ADD18C,0.0160*%
D10*
X006960Y012276D03*
X006960Y013276D03*
X007960Y013276D03*
X007960Y012276D03*
X008960Y012276D03*
X008960Y013276D03*
D11*
X000320Y013716D02*
X000320Y000636D01*
X003154Y000636D01*
X003120Y000719D01*
X003120Y001434D01*
X003164Y001541D01*
X003246Y001622D01*
X003352Y001666D01*
X003568Y001666D01*
X003674Y001622D01*
X003756Y001541D01*
X003800Y001434D01*
X003800Y000719D01*
X003766Y000636D01*
X004654Y000636D01*
X004620Y000719D01*
X004620Y001434D01*
X004664Y001541D01*
X004746Y001622D01*
X004760Y001628D01*
X004760Y001994D01*
X003677Y003076D01*
X003560Y003194D01*
X003560Y004694D01*
X002977Y005276D01*
X002860Y005394D01*
X002860Y005694D01*
X002827Y005726D01*
X002662Y005726D01*
X002656Y005712D01*
X002620Y005676D01*
X002656Y005641D01*
X002700Y005534D01*
X002700Y005319D01*
X002656Y005212D01*
X002620Y005176D01*
X002656Y005141D01*
X002700Y005034D01*
X002700Y004819D01*
X002656Y004712D01*
X002620Y004676D01*
X002656Y004641D01*
X002700Y004534D01*
X002700Y004319D01*
X002656Y004212D01*
X002620Y004176D01*
X002656Y004141D01*
X002700Y004034D01*
X002700Y003819D01*
X002656Y003712D01*
X002620Y003676D01*
X002656Y003641D01*
X002700Y003534D01*
X002700Y003319D01*
X002656Y003212D01*
X002620Y003176D01*
X002656Y003141D01*
X002700Y003034D01*
X002700Y002819D01*
X002656Y002712D01*
X002620Y002676D01*
X002656Y002641D01*
X002700Y002534D01*
X002700Y002319D01*
X002656Y002212D01*
X002620Y002176D01*
X002656Y002141D01*
X002700Y002034D01*
X002700Y001819D01*
X002656Y001712D01*
X002620Y001676D01*
X002656Y001641D01*
X002700Y001534D01*
X002700Y001319D01*
X002656Y001212D01*
X002574Y001131D01*
X002468Y001086D01*
X001752Y001086D01*
X001646Y001131D01*
X001564Y001212D01*
X001520Y001319D01*
X001520Y001534D01*
X001564Y001641D01*
X001600Y001676D01*
X001564Y001712D01*
X001520Y001819D01*
X001520Y002034D01*
X001564Y002141D01*
X001600Y002176D01*
X001564Y002212D01*
X001520Y002319D01*
X001520Y002534D01*
X001564Y002641D01*
X001600Y002676D01*
X001564Y002712D01*
X001520Y002819D01*
X001520Y003034D01*
X001564Y003141D01*
X001600Y003176D01*
X001564Y003212D01*
X001520Y003319D01*
X001520Y003534D01*
X001564Y003641D01*
X001600Y003676D01*
X001564Y003712D01*
X001520Y003819D01*
X001520Y004034D01*
X001564Y004141D01*
X001600Y004176D01*
X001564Y004212D01*
X001520Y004319D01*
X001520Y004534D01*
X001564Y004641D01*
X001600Y004676D01*
X001564Y004712D01*
X001520Y004819D01*
X001520Y005034D01*
X001564Y005141D01*
X001600Y005176D01*
X001564Y005212D01*
X001520Y005319D01*
X001520Y005534D01*
X001534Y005567D01*
X001360Y005394D01*
X001360Y004686D01*
X001406Y004641D01*
X001450Y004534D01*
X001450Y004419D01*
X001406Y004312D01*
X001324Y004231D01*
X001218Y004186D01*
X001102Y004186D01*
X000996Y004231D01*
X000914Y004312D01*
X000870Y004419D01*
X000870Y004534D01*
X000914Y004641D01*
X000960Y004686D01*
X000960Y005559D01*
X001360Y005959D01*
X001477Y006076D01*
X001538Y006076D01*
X001564Y006141D01*
X001600Y006176D01*
X001564Y006212D01*
X001520Y006319D01*
X001520Y006534D01*
X001564Y006641D01*
X001600Y006676D01*
X001564Y006712D01*
X001520Y006819D01*
X001520Y007034D01*
X001564Y007141D01*
X001600Y007176D01*
X001564Y007212D01*
X001520Y007319D01*
X001520Y007534D01*
X001564Y007641D01*
X001600Y007676D01*
X001564Y007712D01*
X001520Y007819D01*
X001520Y008034D01*
X001564Y008141D01*
X001600Y008176D01*
X001564Y008212D01*
X001520Y008319D01*
X001520Y008534D01*
X001564Y008641D01*
X001600Y008676D01*
X001564Y008712D01*
X001520Y008819D01*
X001520Y009034D01*
X001564Y009141D01*
X001600Y009176D01*
X001564Y009212D01*
X001520Y009319D01*
X001520Y009534D01*
X001564Y009641D01*
X001600Y009676D01*
X001564Y009712D01*
X001520Y009819D01*
X001520Y010034D01*
X001564Y010141D01*
X001600Y010176D01*
X001564Y010212D01*
X001520Y010319D01*
X001520Y010534D01*
X001564Y010641D01*
X001600Y010676D01*
X001564Y010712D01*
X001520Y010819D01*
X001520Y011034D01*
X001564Y011141D01*
X001646Y011222D01*
X001752Y011266D01*
X002468Y011266D01*
X002570Y011224D01*
X002570Y012355D01*
X002681Y012466D01*
X002889Y012674D01*
X002870Y012719D01*
X002870Y012834D01*
X002914Y012941D01*
X002996Y013022D01*
X003102Y013066D01*
X003218Y013066D01*
X003324Y013022D01*
X003406Y012941D01*
X003420Y012905D01*
X003494Y012979D01*
X003505Y013011D01*
X003547Y013033D01*
X003581Y013066D01*
X003583Y013066D01*
X003614Y013141D01*
X003696Y013222D01*
X003802Y013266D01*
X003918Y013266D01*
X004024Y013222D01*
X004106Y013141D01*
X004150Y013034D01*
X004150Y012966D01*
X004218Y012966D01*
X004324Y012922D01*
X004406Y012841D01*
X004450Y012734D01*
X004450Y012666D01*
X004518Y012666D01*
X004591Y012636D01*
X004591Y012853D01*
X004895Y012853D01*
X004895Y012900D01*
X004591Y012900D01*
X004591Y013330D01*
X004602Y013371D01*
X004623Y013408D01*
X004653Y013437D01*
X004690Y013459D01*
X004730Y013469D01*
X004895Y013469D01*
X004895Y012900D01*
X004942Y012900D01*
X004942Y013469D01*
X005107Y013469D01*
X005123Y013465D01*
X005123Y013716D01*
X000320Y013716D01*
X000320Y013646D02*
X005123Y013646D01*
X005123Y013528D02*
X000320Y013528D01*
X000320Y013409D02*
X004625Y013409D01*
X004591Y013291D02*
X000320Y013291D01*
X000320Y013172D02*
X003646Y013172D01*
X003569Y013054D02*
X003248Y013054D01*
X003072Y013054D02*
X000320Y013054D01*
X000320Y012935D02*
X002912Y012935D01*
X002870Y012817D02*
X000320Y012817D01*
X000320Y012698D02*
X002878Y012698D01*
X002795Y012580D02*
X000320Y012580D01*
X000320Y012461D02*
X002676Y012461D01*
X002570Y012343D02*
X000320Y012343D01*
X000320Y012224D02*
X002570Y012224D01*
X002570Y012106D02*
X000320Y012106D01*
X000320Y011987D02*
X002570Y011987D01*
X002570Y011869D02*
X000320Y011869D01*
X000320Y011750D02*
X002570Y011750D01*
X002570Y011632D02*
X000320Y011632D01*
X000320Y011513D02*
X002570Y011513D01*
X002570Y011395D02*
X000320Y011395D01*
X000320Y011276D02*
X002570Y011276D01*
X001581Y011158D02*
X000320Y011158D01*
X000320Y011039D02*
X001522Y011039D01*
X001520Y010921D02*
X000320Y010921D01*
X000320Y010802D02*
X001527Y010802D01*
X001592Y010684D02*
X000320Y010684D01*
X000320Y010565D02*
X001533Y010565D01*
X001520Y010447D02*
X000320Y010447D01*
X000320Y010328D02*
X001520Y010328D01*
X001566Y010210D02*
X000320Y010210D01*
X000320Y010091D02*
X001544Y010091D01*
X001520Y009973D02*
X000320Y009973D01*
X000320Y009854D02*
X001520Y009854D01*
X001554Y009736D02*
X000320Y009736D01*
X000320Y009617D02*
X001555Y009617D01*
X001520Y009499D02*
X000320Y009499D01*
X000320Y009380D02*
X001520Y009380D01*
X001544Y009262D02*
X000320Y009262D01*
X000320Y009143D02*
X001567Y009143D01*
X001520Y009025D02*
X000320Y009025D01*
X000320Y008906D02*
X001520Y008906D01*
X001533Y008788D02*
X000320Y008788D01*
X000320Y008669D02*
X001593Y008669D01*
X001527Y008551D02*
X000320Y008551D01*
X000320Y008432D02*
X001520Y008432D01*
X001522Y008314D02*
X000320Y008314D01*
X000320Y008195D02*
X001581Y008195D01*
X001538Y008077D02*
X000320Y008077D01*
X000320Y007958D02*
X001520Y007958D01*
X001520Y007840D02*
X000320Y007840D01*
X000320Y007721D02*
X001560Y007721D01*
X001549Y007603D02*
X000320Y007603D01*
X000320Y007484D02*
X001520Y007484D01*
X001520Y007366D02*
X000320Y007366D01*
X000320Y007247D02*
X001550Y007247D01*
X001559Y007129D02*
X000320Y007129D01*
X000320Y007010D02*
X001520Y007010D01*
X001520Y006892D02*
X000320Y006892D01*
X000320Y006773D02*
X001539Y006773D01*
X001578Y006655D02*
X000320Y006655D01*
X000320Y006536D02*
X001521Y006536D01*
X001520Y006418D02*
X000320Y006418D01*
X000320Y006299D02*
X001528Y006299D01*
X001595Y006181D02*
X000320Y006181D01*
X000320Y006062D02*
X001463Y006062D01*
X001345Y005944D02*
X000320Y005944D01*
X000320Y005825D02*
X001226Y005825D01*
X001108Y005707D02*
X000320Y005707D01*
X000320Y005588D02*
X000989Y005588D01*
X000960Y005470D02*
X000320Y005470D01*
X000320Y005351D02*
X000960Y005351D01*
X000960Y005233D02*
X000320Y005233D01*
X000320Y005114D02*
X000960Y005114D01*
X000960Y004996D02*
X000320Y004996D01*
X000320Y004877D02*
X000960Y004877D01*
X000960Y004759D02*
X000320Y004759D01*
X000320Y004640D02*
X000914Y004640D01*
X000870Y004522D02*
X000320Y004522D01*
X000320Y004403D02*
X000876Y004403D01*
X000941Y004285D02*
X000320Y004285D01*
X000320Y004166D02*
X001590Y004166D01*
X001534Y004285D02*
X001379Y004285D01*
X001444Y004403D02*
X001520Y004403D01*
X001520Y004522D02*
X001450Y004522D01*
X001406Y004640D02*
X001564Y004640D01*
X001545Y004759D02*
X001360Y004759D01*
X001360Y004877D02*
X001520Y004877D01*
X001520Y004996D02*
X001360Y004996D01*
X001360Y005114D02*
X001553Y005114D01*
X001556Y005233D02*
X001360Y005233D01*
X001360Y005351D02*
X001520Y005351D01*
X001520Y005470D02*
X001436Y005470D01*
X001160Y005476D02*
X001560Y005876D01*
X002060Y005876D01*
X002110Y005926D01*
X002910Y005926D01*
X003060Y005776D01*
X003060Y005476D01*
X003760Y004776D01*
X003760Y003276D01*
X004960Y002076D01*
X004960Y001076D01*
X004620Y001085D02*
X003800Y001085D01*
X003800Y000967D02*
X004620Y000967D01*
X004620Y000848D02*
X003800Y000848D01*
X003800Y000730D02*
X004620Y000730D01*
X004620Y001204D02*
X003800Y001204D01*
X003800Y001322D02*
X004620Y001322D01*
X004623Y001441D02*
X003797Y001441D01*
X003737Y001559D02*
X004683Y001559D01*
X004760Y001678D02*
X002622Y001678D01*
X002690Y001559D02*
X003183Y001559D01*
X003123Y001441D02*
X002700Y001441D01*
X002700Y001322D02*
X003120Y001322D01*
X003120Y001204D02*
X002648Y001204D01*
X002691Y001796D02*
X004760Y001796D01*
X004760Y001915D02*
X002700Y001915D01*
X002700Y002033D02*
X004720Y002033D01*
X004602Y002152D02*
X002645Y002152D01*
X002680Y002270D02*
X004483Y002270D01*
X004365Y002389D02*
X002700Y002389D01*
X002700Y002507D02*
X004246Y002507D01*
X004128Y002626D02*
X002662Y002626D01*
X002669Y002744D02*
X004009Y002744D01*
X003891Y002863D02*
X002700Y002863D01*
X002700Y002981D02*
X003772Y002981D01*
X003654Y003100D02*
X002673Y003100D01*
X002658Y003218D02*
X003560Y003218D01*
X003560Y003337D02*
X002700Y003337D01*
X002700Y003455D02*
X003560Y003455D01*
X003560Y003574D02*
X002683Y003574D01*
X002636Y003692D02*
X003560Y003692D01*
X003560Y003811D02*
X002697Y003811D01*
X002700Y003929D02*
X003560Y003929D01*
X003560Y004048D02*
X002694Y004048D01*
X002630Y004166D02*
X003560Y004166D01*
X003560Y004285D02*
X002686Y004285D01*
X002700Y004403D02*
X003560Y004403D01*
X003560Y004522D02*
X002700Y004522D01*
X002656Y004640D02*
X003560Y004640D01*
X003495Y004759D02*
X002675Y004759D01*
X002700Y004877D02*
X003376Y004877D01*
X003258Y004996D02*
X002700Y004996D01*
X002667Y005114D02*
X003139Y005114D01*
X003021Y005233D02*
X002664Y005233D01*
X002700Y005351D02*
X002902Y005351D01*
X002860Y005470D02*
X002700Y005470D01*
X002677Y005588D02*
X002860Y005588D01*
X002847Y005707D02*
X002651Y005707D01*
X003060Y005776D02*
X003360Y005776D01*
X003560Y005976D01*
X005760Y005976D01*
X005960Y005776D01*
X006560Y005776D01*
X008160Y007376D01*
X008160Y007876D01*
X008210Y007926D01*
X008810Y007926D01*
X007170Y007955D02*
X007170Y010455D01*
X007370Y010655D01*
X007370Y011798D01*
X007251Y011917D01*
X007221Y011886D01*
X007146Y011856D01*
X007157Y011851D01*
X007208Y011817D01*
X007251Y011774D01*
X007285Y011723D01*
X007308Y011667D01*
X007320Y011607D01*
X007320Y011316D01*
X007000Y011316D01*
X007000Y011236D01*
X007000Y010666D01*
X007041Y010666D01*
X007100Y010678D01*
X007157Y010702D01*
X007208Y010736D01*
X007251Y010779D01*
X007285Y010830D01*
X007308Y010886D01*
X007320Y010946D01*
X007320Y011236D01*
X007000Y011236D01*
X006920Y011236D01*
X006920Y010666D01*
X006879Y010666D01*
X006820Y010678D01*
X006763Y010702D01*
X006712Y010736D01*
X006710Y010738D01*
X006708Y010736D01*
X006657Y010702D01*
X006600Y010678D01*
X006541Y010666D01*
X006500Y010666D01*
X006500Y011086D01*
X006420Y011086D01*
X006420Y010666D01*
X006379Y010666D01*
X006320Y010678D01*
X006263Y010702D01*
X006212Y010736D01*
X006210Y010738D01*
X006208Y010736D01*
X006157Y010702D01*
X006100Y010678D01*
X006041Y010666D01*
X006000Y010666D01*
X006000Y011086D01*
X005920Y011086D01*
X005920Y010666D01*
X005879Y010666D01*
X005820Y010678D01*
X005763Y010702D01*
X005712Y010736D01*
X005696Y010752D01*
X005674Y010731D01*
X005568Y010686D01*
X005352Y010686D01*
X005246Y010731D01*
X005224Y010752D01*
X005208Y010736D01*
X005157Y010702D01*
X005100Y010678D01*
X005041Y010666D01*
X005000Y010666D01*
X005000Y011236D01*
X004920Y011236D01*
X004920Y010666D01*
X004879Y010666D01*
X004820Y010678D01*
X004763Y010702D01*
X004712Y010736D01*
X004710Y010738D01*
X004708Y010736D01*
X004657Y010702D01*
X004600Y010678D01*
X004541Y010666D01*
X004500Y010666D01*
X004500Y011236D01*
X004420Y011236D01*
X004420Y010666D01*
X004379Y010666D01*
X004320Y010678D01*
X004263Y010702D01*
X004212Y010736D01*
X004210Y010738D01*
X004208Y010736D01*
X004157Y010702D01*
X004100Y010678D01*
X004041Y010666D01*
X004039Y010666D01*
X006439Y008266D01*
X006550Y008155D01*
X006550Y007496D01*
X006606Y007441D01*
X006620Y007405D01*
X007170Y007955D01*
X007170Y007958D02*
X006550Y007958D01*
X006550Y007840D02*
X007055Y007840D01*
X006936Y007721D02*
X006550Y007721D01*
X006550Y007603D02*
X006818Y007603D01*
X006699Y007484D02*
X006562Y007484D01*
X006550Y008077D02*
X007170Y008077D01*
X007170Y008195D02*
X006510Y008195D01*
X006391Y008314D02*
X007170Y008314D01*
X007170Y008432D02*
X006273Y008432D01*
X006154Y008551D02*
X007170Y008551D01*
X007170Y008669D02*
X006036Y008669D01*
X005917Y008788D02*
X007170Y008788D01*
X007170Y008906D02*
X005799Y008906D01*
X005680Y009025D02*
X007170Y009025D01*
X007170Y009143D02*
X005562Y009143D01*
X005443Y009262D02*
X007170Y009262D01*
X007170Y009380D02*
X005325Y009380D01*
X005206Y009499D02*
X007170Y009499D01*
X007170Y009617D02*
X005088Y009617D01*
X004969Y009736D02*
X007170Y009736D01*
X007170Y009854D02*
X004851Y009854D01*
X004732Y009973D02*
X007170Y009973D01*
X007170Y010091D02*
X004614Y010091D01*
X004495Y010210D02*
X007170Y010210D01*
X007170Y010328D02*
X004377Y010328D01*
X004258Y010447D02*
X007170Y010447D01*
X007280Y010565D02*
X004140Y010565D01*
X004114Y010684D02*
X004306Y010684D01*
X004420Y010684D02*
X004500Y010684D01*
X004614Y010684D02*
X004806Y010684D01*
X004920Y010684D02*
X005000Y010684D01*
X005114Y010684D02*
X005806Y010684D01*
X005920Y010684D02*
X006000Y010684D01*
X006114Y010684D02*
X006306Y010684D01*
X006420Y010684D02*
X006500Y010684D01*
X006614Y010684D02*
X006806Y010684D01*
X006920Y010684D02*
X007000Y010684D01*
X007114Y010684D02*
X007370Y010684D01*
X007370Y010802D02*
X007267Y010802D01*
X007315Y010921D02*
X007370Y010921D01*
X007370Y011039D02*
X007320Y011039D01*
X007320Y011158D02*
X007370Y011158D01*
X007370Y011276D02*
X007000Y011276D01*
X007000Y011158D02*
X006920Y011158D01*
X006920Y011039D02*
X007000Y011039D01*
X007000Y010921D02*
X006920Y010921D01*
X006920Y010802D02*
X007000Y010802D01*
X007320Y011395D02*
X007370Y011395D01*
X007370Y011513D02*
X007320Y011513D01*
X007315Y011632D02*
X007370Y011632D01*
X007370Y011750D02*
X007267Y011750D01*
X007299Y011869D02*
X007178Y011869D01*
X007500Y012205D02*
X007420Y012285D01*
X007420Y012368D01*
X007350Y012537D01*
X007221Y012666D01*
X007051Y012736D01*
X006868Y012736D01*
X006699Y012666D01*
X006570Y012537D01*
X006500Y012368D01*
X006500Y012185D01*
X006570Y012016D01*
X006699Y011886D01*
X006774Y011856D01*
X006763Y011851D01*
X006712Y011817D01*
X006669Y011774D01*
X006635Y011723D01*
X006612Y011667D01*
X006600Y011607D01*
X006600Y011575D01*
X006541Y011586D01*
X006500Y011586D01*
X006500Y011166D01*
X006420Y011166D01*
X006420Y011086D01*
X006320Y011086D01*
X006000Y011086D01*
X006000Y011166D01*
X006420Y011166D01*
X006420Y011586D01*
X006379Y011586D01*
X006320Y011574D01*
X006263Y011551D01*
X006212Y011517D01*
X006210Y011515D01*
X006208Y011517D01*
X006157Y011551D01*
X006100Y011574D01*
X006041Y011586D01*
X006000Y011586D01*
X006000Y011166D01*
X005920Y011166D01*
X005920Y011586D01*
X005879Y011586D01*
X005820Y011574D01*
X005800Y011566D01*
X005800Y011634D01*
X005756Y011741D01*
X005674Y011822D01*
X005660Y011828D01*
X005660Y011929D01*
X005715Y011929D01*
X005797Y012011D01*
X005797Y012288D01*
X005813Y012283D01*
X005978Y012283D01*
X005978Y012853D01*
X006025Y012853D01*
X006025Y012900D01*
X006329Y012900D01*
X006329Y013330D01*
X006318Y013371D01*
X006297Y013408D01*
X006267Y013437D01*
X006230Y013459D01*
X006190Y013469D01*
X006025Y013469D01*
X006025Y012900D01*
X005978Y012900D01*
X005978Y013469D01*
X005813Y013469D01*
X005797Y013465D01*
X005797Y013716D01*
X006766Y013716D01*
X006708Y013687D01*
X006647Y013642D01*
X006594Y013589D01*
X006549Y013528D01*
X005797Y013528D01*
X005797Y013646D02*
X006653Y013646D01*
X006549Y013528D02*
X006515Y013461D01*
X006492Y013389D01*
X006480Y013314D01*
X006480Y013305D01*
X006931Y013305D01*
X006931Y013248D01*
X006480Y013248D01*
X006480Y013239D01*
X006492Y013164D01*
X006515Y013092D01*
X006549Y013025D01*
X006594Y012964D01*
X006647Y012910D01*
X006708Y012866D01*
X006776Y012832D01*
X006848Y012808D01*
X006922Y012796D01*
X006931Y012796D01*
X006931Y013248D01*
X006989Y013248D01*
X006989Y013305D01*
X007440Y013305D01*
X007440Y013314D01*
X007428Y013389D01*
X007405Y013461D01*
X007371Y013528D01*
X007566Y013528D01*
X007570Y013537D02*
X007500Y013368D01*
X007500Y013185D01*
X007570Y013016D01*
X007699Y012886D01*
X007868Y012816D01*
X008051Y012816D01*
X008122Y012846D01*
X008270Y012698D01*
X008270Y012617D01*
X008221Y012666D01*
X008051Y012736D01*
X007868Y012736D01*
X007699Y012666D01*
X007570Y012537D01*
X007500Y012368D01*
X007500Y012205D01*
X007500Y012224D02*
X007481Y012224D01*
X007500Y012343D02*
X007420Y012343D01*
X007381Y012461D02*
X007539Y012461D01*
X007613Y012580D02*
X007307Y012580D01*
X007143Y012698D02*
X007777Y012698D01*
X007867Y012817D02*
X007099Y012817D01*
X007072Y012808D02*
X007144Y012832D01*
X007212Y012866D01*
X007273Y012910D01*
X007326Y012964D01*
X007371Y013025D01*
X007405Y013092D01*
X007428Y013164D01*
X007440Y013239D01*
X007440Y013248D01*
X006989Y013248D01*
X006989Y012796D01*
X006998Y012796D01*
X007072Y012808D01*
X006989Y012817D02*
X006931Y012817D01*
X006821Y012817D02*
X006329Y012817D01*
X006329Y012853D02*
X006025Y012853D01*
X006025Y012283D01*
X006190Y012283D01*
X006230Y012294D01*
X006267Y012315D01*
X006297Y012345D01*
X006318Y012382D01*
X006329Y012422D01*
X006329Y012853D01*
X006329Y012935D02*
X006622Y012935D01*
X006535Y013054D02*
X006329Y013054D01*
X006329Y013172D02*
X006490Y013172D01*
X006329Y013291D02*
X006931Y013291D01*
X006989Y013291D02*
X007500Y013291D01*
X007505Y013172D02*
X007430Y013172D01*
X007385Y013054D02*
X007554Y013054D01*
X007650Y012935D02*
X007298Y012935D01*
X006989Y012935D02*
X006931Y012935D01*
X006931Y013054D02*
X006989Y013054D01*
X006989Y013172D02*
X006931Y013172D01*
X006777Y012698D02*
X006329Y012698D01*
X006329Y012580D02*
X006613Y012580D01*
X006539Y012461D02*
X006329Y012461D01*
X006295Y012343D02*
X006500Y012343D01*
X006500Y012224D02*
X005797Y012224D01*
X005797Y012106D02*
X006533Y012106D01*
X006598Y011987D02*
X005773Y011987D01*
X005660Y011869D02*
X006742Y011869D01*
X006653Y011750D02*
X005746Y011750D01*
X005800Y011632D02*
X006605Y011632D01*
X006500Y011513D02*
X006420Y011513D01*
X006420Y011395D02*
X006500Y011395D01*
X006500Y011276D02*
X006420Y011276D01*
X006420Y011158D02*
X006000Y011158D01*
X006000Y011276D02*
X005920Y011276D01*
X005920Y011395D02*
X006000Y011395D01*
X006000Y011513D02*
X005920Y011513D01*
X005920Y011039D02*
X006000Y011039D01*
X006000Y010921D02*
X005920Y010921D01*
X005920Y010802D02*
X006000Y010802D01*
X006420Y010802D02*
X006500Y010802D01*
X006500Y010921D02*
X006420Y010921D01*
X006420Y011039D02*
X006500Y011039D01*
X006025Y012343D02*
X005978Y012343D01*
X005978Y012461D02*
X006025Y012461D01*
X006025Y012580D02*
X005978Y012580D01*
X005978Y012698D02*
X006025Y012698D01*
X006025Y012817D02*
X005978Y012817D01*
X005978Y012853D02*
X005674Y012853D01*
X005674Y012623D01*
X005246Y012623D01*
X005246Y012853D01*
X004942Y012853D01*
X004942Y012900D01*
X005246Y012900D01*
X005246Y013130D01*
X005674Y013130D01*
X005674Y012900D01*
X005978Y012900D01*
X005978Y012853D01*
X005978Y012935D02*
X006025Y012935D01*
X006025Y013054D02*
X005978Y013054D01*
X005978Y013172D02*
X006025Y013172D01*
X006025Y013291D02*
X005978Y013291D01*
X005978Y013409D02*
X006025Y013409D01*
X006295Y013409D02*
X006499Y013409D01*
X007154Y013716D02*
X007820Y013716D01*
X007699Y013666D01*
X007570Y013537D01*
X007517Y013409D02*
X007421Y013409D01*
X007371Y013528D02*
X007326Y013589D01*
X007273Y013642D01*
X007212Y013687D01*
X007154Y013716D01*
X007267Y013646D02*
X007680Y013646D01*
X008053Y012817D02*
X008151Y012817D01*
X008143Y012698D02*
X008269Y012698D01*
X005674Y012698D02*
X005246Y012698D01*
X005246Y012817D02*
X005674Y012817D01*
X005674Y012935D02*
X005246Y012935D01*
X005246Y013054D02*
X005674Y013054D01*
X005460Y012276D02*
X005460Y011276D01*
X005460Y011356D02*
X005460Y011176D01*
X005000Y011158D02*
X004920Y011158D01*
X004920Y011236D02*
X004600Y011236D01*
X004500Y011236D01*
X004500Y011316D01*
X004920Y011316D01*
X004920Y011236D01*
X004920Y011276D02*
X004500Y011276D01*
X004500Y011316D02*
X004420Y011316D01*
X004420Y011236D01*
X004100Y011236D01*
X004000Y011236D01*
X004000Y011316D01*
X004420Y011316D01*
X004420Y011886D01*
X004379Y011886D01*
X004320Y011874D01*
X004263Y011851D01*
X004212Y011817D01*
X004210Y011815D01*
X004208Y011817D01*
X004157Y011851D01*
X004100Y011874D01*
X004041Y011886D01*
X004000Y011886D01*
X004000Y011316D01*
X003920Y011316D01*
X003920Y011886D01*
X003879Y011886D01*
X003829Y011876D01*
X003839Y011886D01*
X004640Y011886D01*
X004696Y011831D01*
X004718Y011821D01*
X004712Y011817D01*
X004710Y011815D01*
X004708Y011817D01*
X004657Y011851D01*
X004600Y011874D01*
X004541Y011886D01*
X004500Y011886D01*
X004500Y011316D01*
X004500Y011395D02*
X004420Y011395D01*
X004420Y011513D02*
X004500Y011513D01*
X004500Y011632D02*
X004420Y011632D01*
X004420Y011750D02*
X004500Y011750D01*
X004500Y011869D02*
X004420Y011869D01*
X004306Y011869D02*
X004114Y011869D01*
X004000Y011869D02*
X003920Y011869D01*
X003920Y011750D02*
X004000Y011750D01*
X004000Y011632D02*
X003920Y011632D01*
X003920Y011513D02*
X004000Y011513D01*
X004000Y011395D02*
X003920Y011395D01*
X004000Y011276D02*
X004420Y011276D01*
X004420Y011158D02*
X004500Y011158D01*
X004500Y011039D02*
X004420Y011039D01*
X004420Y010921D02*
X004500Y010921D01*
X004500Y010802D02*
X004420Y010802D01*
X004920Y010802D02*
X005000Y010802D01*
X005000Y010921D02*
X004920Y010921D01*
X004920Y011039D02*
X005000Y011039D01*
X004657Y011869D02*
X004614Y011869D01*
X004591Y012698D02*
X004450Y012698D01*
X004416Y012817D02*
X004591Y012817D01*
X004591Y012935D02*
X004292Y012935D01*
X004142Y013054D02*
X004591Y013054D01*
X004591Y013172D02*
X004074Y013172D01*
X003450Y012935D02*
X003408Y012935D01*
X004895Y012935D02*
X004942Y012935D01*
X004942Y013054D02*
X004895Y013054D01*
X004895Y013172D02*
X004942Y013172D01*
X004942Y013291D02*
X004895Y013291D01*
X004895Y013409D02*
X004942Y013409D01*
X001160Y005476D02*
X001160Y004476D01*
X001526Y004048D02*
X000320Y004048D01*
X000320Y003929D02*
X001520Y003929D01*
X001523Y003811D02*
X000320Y003811D01*
X000320Y003692D02*
X001584Y003692D01*
X001537Y003574D02*
X000992Y003574D01*
X000961Y003586D02*
X000759Y003586D01*
X000571Y003509D01*
X000428Y003365D01*
X000350Y003178D01*
X000350Y002975D01*
X000428Y002787D01*
X000571Y002644D01*
X000712Y002586D01*
X000657Y002568D01*
X000582Y002530D01*
X000515Y002481D01*
X000456Y002422D01*
X000407Y002354D01*
X000369Y002280D01*
X000343Y002200D01*
X000330Y002118D01*
X000330Y002116D01*
X000820Y002116D01*
X000820Y002036D01*
X000900Y002036D01*
X000900Y001546D01*
X000902Y001546D01*
X000984Y001559D01*
X001530Y001559D01*
X001520Y001441D02*
X000320Y001441D01*
X000320Y001559D02*
X000736Y001559D01*
X000818Y001546D01*
X000820Y001546D01*
X000820Y002036D01*
X000330Y002036D01*
X000330Y002035D01*
X000343Y001952D01*
X000369Y001873D01*
X000407Y001799D01*
X000456Y001731D01*
X000515Y001672D01*
X000582Y001623D01*
X000657Y001585D01*
X000736Y001559D01*
X000820Y001559D02*
X000900Y001559D01*
X000984Y001559D02*
X001063Y001585D01*
X001138Y001623D01*
X001205Y001672D01*
X001264Y001731D01*
X001313Y001799D01*
X001351Y001873D01*
X001377Y001952D01*
X001390Y002035D01*
X001390Y002036D01*
X000900Y002036D01*
X000900Y002116D01*
X001390Y002116D01*
X001390Y002118D01*
X001377Y002200D01*
X001351Y002280D01*
X001313Y002354D01*
X001264Y002422D01*
X001205Y002481D01*
X001138Y002530D01*
X001063Y002568D01*
X001008Y002586D01*
X001149Y002644D01*
X001292Y002787D01*
X001370Y002975D01*
X001370Y003178D01*
X001292Y003365D01*
X001149Y003509D01*
X000961Y003586D01*
X000728Y003574D02*
X000320Y003574D01*
X000320Y003455D02*
X000518Y003455D01*
X000416Y003337D02*
X000320Y003337D01*
X000320Y003218D02*
X000367Y003218D01*
X000350Y003100D02*
X000320Y003100D01*
X000320Y002981D02*
X000350Y002981D01*
X000320Y002863D02*
X000396Y002863D01*
X000471Y002744D02*
X000320Y002744D01*
X000320Y002626D02*
X000615Y002626D01*
X000552Y002507D02*
X000320Y002507D01*
X000320Y002389D02*
X000432Y002389D01*
X000366Y002270D02*
X000320Y002270D01*
X000320Y002152D02*
X000335Y002152D01*
X000320Y002033D02*
X000330Y002033D01*
X000320Y001915D02*
X000355Y001915D01*
X000320Y001796D02*
X000408Y001796D01*
X000320Y001678D02*
X000509Y001678D01*
X000820Y001678D02*
X000900Y001678D01*
X000900Y001796D02*
X000820Y001796D01*
X000820Y001915D02*
X000900Y001915D01*
X000900Y002033D02*
X000820Y002033D01*
X001168Y002507D02*
X001520Y002507D01*
X001520Y002389D02*
X001288Y002389D01*
X001354Y002270D02*
X001540Y002270D01*
X001575Y002152D02*
X001385Y002152D01*
X001390Y002033D02*
X001520Y002033D01*
X001520Y001915D02*
X001365Y001915D01*
X001312Y001796D02*
X001529Y001796D01*
X001598Y001678D02*
X001211Y001678D01*
X001520Y001322D02*
X000320Y001322D01*
X000320Y001204D02*
X001572Y001204D01*
X001558Y002626D02*
X001105Y002626D01*
X001249Y002744D02*
X001551Y002744D01*
X001520Y002863D02*
X001324Y002863D01*
X001370Y002981D02*
X001520Y002981D01*
X001547Y003100D02*
X001370Y003100D01*
X001353Y003218D02*
X001562Y003218D01*
X001520Y003337D02*
X001304Y003337D01*
X001202Y003455D02*
X001520Y003455D01*
X000320Y001085D02*
X003120Y001085D01*
X003120Y000967D02*
X000320Y000967D01*
X000320Y000848D02*
X003120Y000848D01*
X003120Y000730D02*
X000320Y000730D01*
X004360Y004776D02*
X003960Y005276D01*
X004360Y004776D02*
X004360Y003176D01*
X005060Y002476D01*
X005860Y002476D01*
X006260Y002776D02*
X005260Y002776D01*
X004660Y003376D01*
X004660Y004876D01*
X004560Y005076D01*
X005160Y004576D02*
X007710Y001926D01*
X008810Y001926D01*
D12*
X009110Y001976D02*
X009110Y001876D01*
X008510Y001876D01*
X008510Y001976D01*
X009110Y001976D01*
X009110Y002376D02*
X009110Y002476D01*
X009110Y002376D02*
X008510Y002376D01*
X008510Y002476D01*
X009110Y002476D01*
X009110Y002876D02*
X009110Y002976D01*
X009110Y002876D02*
X008510Y002876D01*
X008510Y002976D01*
X009110Y002976D01*
X009110Y003376D02*
X009110Y003476D01*
X009110Y003376D02*
X008510Y003376D01*
X008510Y003476D01*
X009110Y003476D01*
X009110Y003876D02*
X009110Y003976D01*
X009110Y003876D02*
X008510Y003876D01*
X008510Y003976D01*
X009110Y003976D01*
X009110Y004376D02*
X009110Y004476D01*
X009110Y004376D02*
X008510Y004376D01*
X008510Y004476D01*
X009110Y004476D01*
X009110Y004876D02*
X009110Y004976D01*
X009110Y004876D02*
X008510Y004876D01*
X008510Y004976D01*
X009110Y004976D01*
X009110Y005376D02*
X009110Y005476D01*
X009110Y005376D02*
X008510Y005376D01*
X008510Y005476D01*
X009110Y005476D01*
X009110Y005876D02*
X009110Y005976D01*
X009110Y005876D02*
X008510Y005876D01*
X008510Y005976D01*
X009110Y005976D01*
X009110Y006376D02*
X009110Y006476D01*
X009110Y006376D02*
X008510Y006376D01*
X008510Y006476D01*
X009110Y006476D01*
X009110Y006876D02*
X009110Y006976D01*
X009110Y006876D02*
X008510Y006876D01*
X008510Y006976D01*
X009110Y006976D01*
X009110Y007376D02*
X009110Y007476D01*
X009110Y007376D02*
X008510Y007376D01*
X008510Y007476D01*
X009110Y007476D01*
X009110Y007876D02*
X009110Y007976D01*
X009110Y007876D02*
X008510Y007876D01*
X008510Y007976D01*
X009110Y007976D01*
X009110Y008376D02*
X009110Y008476D01*
X009110Y008376D02*
X008510Y008376D01*
X008510Y008476D01*
X009110Y008476D01*
X009110Y008876D02*
X009110Y008976D01*
X009110Y008876D02*
X008510Y008876D01*
X008510Y008976D01*
X009110Y008976D01*
X009110Y009376D02*
X009110Y009476D01*
X009110Y009376D02*
X008510Y009376D01*
X008510Y009476D01*
X009110Y009476D01*
X009110Y009876D02*
X009110Y009976D01*
X009110Y009876D02*
X008510Y009876D01*
X008510Y009976D01*
X009110Y009976D01*
X009110Y010376D02*
X009110Y010476D01*
X009110Y010376D02*
X008510Y010376D01*
X008510Y010476D01*
X009110Y010476D01*
X009110Y010876D02*
X009110Y010976D01*
X009110Y010876D02*
X008510Y010876D01*
X008510Y010976D01*
X009110Y010976D01*
X007010Y011576D02*
X006910Y011576D01*
X007010Y011576D02*
X007010Y010976D01*
X006910Y010976D01*
X006910Y011576D01*
X006910Y011275D02*
X007010Y011275D01*
X007010Y011574D02*
X006910Y011574D01*
X006510Y011276D02*
X006410Y011276D01*
X006510Y011276D02*
X006510Y010976D01*
X006410Y010976D01*
X006410Y011276D01*
X006410Y011275D02*
X006510Y011275D01*
X006010Y011276D02*
X005910Y011276D01*
X006010Y011276D02*
X006010Y010976D01*
X005910Y010976D01*
X005910Y011276D01*
X005910Y011275D02*
X006010Y011275D01*
X005510Y011576D02*
X005410Y011576D01*
X005510Y011576D02*
X005510Y010976D01*
X005410Y010976D01*
X005410Y011576D01*
X005410Y011275D02*
X005510Y011275D01*
X005510Y011574D02*
X005410Y011574D01*
X005010Y011576D02*
X004910Y011576D01*
X005010Y011576D02*
X005010Y010976D01*
X004910Y010976D01*
X004910Y011576D01*
X004910Y011275D02*
X005010Y011275D01*
X005010Y011574D02*
X004910Y011574D01*
X004510Y011576D02*
X004410Y011576D01*
X004510Y011576D02*
X004510Y010976D01*
X004410Y010976D01*
X004410Y011576D01*
X004410Y011275D02*
X004510Y011275D01*
X004510Y011574D02*
X004410Y011574D01*
X004010Y011576D02*
X003910Y011576D01*
X004010Y011576D02*
X004010Y010976D01*
X003910Y010976D01*
X003910Y011576D01*
X003910Y011275D02*
X004010Y011275D01*
X004010Y011574D02*
X003910Y011574D01*
X002410Y010976D02*
X002410Y010876D01*
X001810Y010876D01*
X001810Y010976D01*
X002410Y010976D01*
X002410Y010476D02*
X002410Y010376D01*
X001810Y010376D01*
X001810Y010476D01*
X002410Y010476D01*
X002410Y009976D02*
X002410Y009876D01*
X001810Y009876D01*
X001810Y009976D01*
X002410Y009976D01*
X002410Y009476D02*
X002410Y009376D01*
X001810Y009376D01*
X001810Y009476D01*
X002410Y009476D01*
X002410Y008976D02*
X002410Y008876D01*
X001810Y008876D01*
X001810Y008976D01*
X002410Y008976D01*
X002410Y008476D02*
X002410Y008376D01*
X001810Y008376D01*
X001810Y008476D01*
X002410Y008476D01*
X002410Y007976D02*
X002410Y007876D01*
X001810Y007876D01*
X001810Y007976D01*
X002410Y007976D01*
X002410Y007476D02*
X002410Y007376D01*
X001810Y007376D01*
X001810Y007476D01*
X002410Y007476D01*
X002410Y006976D02*
X002410Y006876D01*
X001810Y006876D01*
X001810Y006976D01*
X002410Y006976D01*
X002410Y006476D02*
X002410Y006376D01*
X001810Y006376D01*
X001810Y006476D01*
X002410Y006476D01*
X002410Y005976D02*
X002410Y005876D01*
X001810Y005876D01*
X001810Y005976D01*
X002410Y005976D01*
X002410Y005476D02*
X002410Y005376D01*
X001810Y005376D01*
X001810Y005476D01*
X002410Y005476D01*
X002410Y004976D02*
X002410Y004876D01*
X001810Y004876D01*
X001810Y004976D01*
X002410Y004976D01*
X002410Y004476D02*
X002410Y004376D01*
X001810Y004376D01*
X001810Y004476D01*
X002410Y004476D01*
X002410Y003976D02*
X002410Y003876D01*
X001810Y003876D01*
X001810Y003976D01*
X002410Y003976D01*
X002410Y003476D02*
X002410Y003376D01*
X001810Y003376D01*
X001810Y003476D01*
X002410Y003476D01*
X002410Y002976D02*
X002410Y002876D01*
X001810Y002876D01*
X001810Y002976D01*
X002410Y002976D01*
X002410Y002476D02*
X002410Y002376D01*
X001810Y002376D01*
X001810Y002476D01*
X002410Y002476D01*
X002410Y001976D02*
X002410Y001876D01*
X001810Y001876D01*
X001810Y001976D01*
X002410Y001976D01*
X002410Y001476D02*
X002410Y001376D01*
X001810Y001376D01*
X001810Y001476D01*
X002410Y001476D01*
X003410Y000776D02*
X003510Y000776D01*
X003410Y000776D02*
X003410Y001376D01*
X003510Y001376D01*
X003510Y000776D01*
X003510Y001075D02*
X003410Y001075D01*
X003410Y001374D02*
X003510Y001374D01*
X004910Y000776D02*
X005010Y000776D01*
X004910Y000776D02*
X004910Y001376D01*
X005010Y001376D01*
X005010Y000776D01*
X005010Y001075D02*
X004910Y001075D01*
X004910Y001374D02*
X005010Y001374D01*
X009110Y001376D02*
X009110Y001476D01*
X009110Y001376D02*
X008510Y001376D01*
X008510Y001476D01*
X009110Y001476D01*
D13*
X006001Y012876D03*
X004919Y012876D03*
D14*
X005460Y012276D03*
X005460Y013477D03*
D15*
X000860Y003076D03*
X000860Y002076D03*
D16*
X001160Y004476D03*
X003160Y006176D03*
X003460Y006476D03*
X003760Y006776D03*
X004460Y007076D03*
X005060Y007376D03*
X005460Y007576D03*
X005760Y007276D03*
X006060Y007576D03*
X006360Y007276D03*
X007660Y006176D03*
X007960Y004576D03*
X007660Y003776D03*
X007760Y003076D03*
X006360Y005076D03*
X005560Y004676D03*
X005160Y004576D03*
X004560Y005076D03*
X005060Y005576D03*
X003960Y005276D03*
X005260Y003276D03*
X005860Y002476D03*
X006260Y002776D03*
X001160Y008776D03*
X001060Y012176D03*
X003160Y012776D03*
X003860Y012976D03*
X004160Y012676D03*
X004460Y012376D03*
X004860Y012076D03*
D17*
X003760Y012076D01*
X003560Y011876D01*
X003560Y010776D01*
X003660Y010776D01*
X006360Y008076D01*
X006360Y007276D01*
X006460Y006976D02*
X007360Y007876D01*
X007360Y010376D01*
X007560Y010576D01*
X007560Y011876D01*
X007160Y012276D01*
X006960Y012276D01*
X007760Y012076D02*
X007960Y012276D01*
X007760Y012076D02*
X007760Y010476D01*
X007560Y010276D01*
X007560Y007776D01*
X006560Y006776D01*
X003760Y006776D01*
X003460Y006476D02*
X006560Y006476D01*
X007760Y007676D01*
X007760Y010176D01*
X007960Y010376D01*
X007960Y011576D01*
X008460Y012076D01*
X008460Y012776D01*
X007960Y013276D01*
X008960Y012276D02*
X008160Y011476D01*
X008160Y010276D01*
X007960Y010076D01*
X007960Y007576D01*
X006560Y006176D01*
X003160Y006176D01*
X004460Y007076D02*
X004560Y006976D01*
X006460Y006976D01*
X006060Y007576D02*
X006060Y008076D01*
X003560Y010576D01*
X003460Y010576D01*
X003360Y010676D01*
X003360Y011976D01*
X003660Y012276D01*
X004360Y012276D01*
X004460Y012376D01*
X004060Y012476D02*
X004160Y012676D01*
X004060Y012476D02*
X003560Y012476D01*
X003160Y012076D01*
X003160Y010576D01*
X003460Y010276D01*
X003560Y010276D01*
X005760Y008076D01*
X005760Y007276D01*
X005460Y007576D02*
X005460Y008076D01*
X003560Y009976D01*
X003460Y009976D01*
X002960Y010476D01*
X002960Y012176D01*
X003660Y012876D01*
X003860Y012976D01*
X003160Y012776D02*
X003160Y012676D01*
X002760Y012276D01*
X002760Y010376D01*
X003460Y009676D01*
X003560Y009676D01*
X005060Y008176D01*
X005060Y007376D01*
X005060Y005576D02*
X005060Y004876D01*
X004860Y004676D01*
X004860Y003676D01*
X005260Y003276D01*
X006460Y003676D02*
X005560Y004576D01*
X005560Y004676D01*
X006460Y003676D02*
X007560Y003676D01*
X007660Y003776D01*
X007760Y003076D02*
X008410Y002426D01*
X008810Y002426D01*
X007960Y004576D02*
X008310Y004926D01*
X008810Y004926D01*
D18*
X007660Y006176D02*
X007460Y006176D01*
X006360Y005076D01*
M02*
