%
M48
M72
T01C0.0236
T02C0.0354
T03C0.0470
T04C0.1180
%
T01
X13580Y12180
X7480Y8080
X9380Y10080
X9980Y10280
X8380Y10980
X8780Y7580
X10980Y9280
X10580Y6080
X10580Y8780
X12880Y6780
X16280Y14080
X11180Y12780
X13580Y15280
X10080Y14680
X16280Y14980
X9980Y13780
X7280Y12480
X6280Y11780
X17980Y5580
X17580Y10480
T02
X4680Y6180
X3680Y6180
X3680Y5180
X4680Y5180
X4680Y7180
X3680Y7180
T03
X7127Y1780
X9096Y1780
X11064Y1780
X13033Y1780
T04
X3380Y13086
X3380Y15449
X1530Y14267
M30
