%
M48
M72
T01C0.0236
T02C0.0354
T03C0.0470
T04C0.1180
%
T01
X2380Y7180
X6280Y11780
X7280Y12480
X8380Y10980
X9380Y10080
X9980Y10280
X10980Y9280
X10580Y8780
X8780Y7580
X7480Y8080
X10580Y6080
X12880Y6780
X17580Y10480
X16280Y14080
X16280Y14980
X13580Y15280
X10880Y13880
X9980Y13780
X10080Y14680
X11180Y12680
X13580Y12180
X17980Y5580
T02
X3680Y5180
X3680Y6180
X3680Y7180
X4680Y7180
X4680Y6180
X4680Y5180
T03
X7127Y1780
X9096Y1780
X11064Y1780
X13033Y1780
T04
X3380Y13086
X1530Y14267
X3380Y15449
M30
