G75*
G70*
%OFA0B0*%
%FSLAX24Y24*%
%IPPOS*%
%LPD*%
%AMOC8*
5,1,8,0,0,1.08239X$1,22.5*
%
%ADD10C,0.0000*%
%ADD11C,0.0030*%
D10*
X000963Y000480D02*
X018988Y000480D01*
X018988Y000481D02*
X019039Y000486D01*
X019089Y000495D01*
X019138Y000508D01*
X019187Y000524D01*
X019234Y000543D01*
X019279Y000566D01*
X019323Y000592D01*
X019365Y000621D01*
X019405Y000653D01*
X019442Y000687D01*
X019477Y000725D01*
X019509Y000764D01*
X019538Y000806D01*
X019564Y000850D01*
X019587Y000896D01*
X019607Y000943D01*
X019623Y000991D01*
X019635Y001040D01*
X019645Y001090D01*
X019650Y001141D01*
X019652Y001192D01*
X019650Y001243D01*
X019650Y016717D01*
X019656Y016764D01*
X019659Y016810D01*
X019658Y016857D01*
X019652Y016904D01*
X019643Y016950D01*
X019630Y016995D01*
X019614Y017039D01*
X019594Y017082D01*
X019570Y017122D01*
X019543Y017161D01*
X019513Y017197D01*
X019480Y017230D01*
X019445Y017261D01*
X019407Y017289D01*
X019367Y017313D01*
X019325Y017335D01*
X019282Y017352D01*
X019237Y017366D01*
X019191Y017376D01*
X000760Y017376D01*
X000718Y017374D01*
X000677Y017369D01*
X000636Y017360D01*
X000596Y017347D01*
X000557Y017331D01*
X000520Y017312D01*
X000485Y017289D01*
X000451Y017264D01*
X000421Y017235D01*
X000392Y017205D01*
X000367Y017171D01*
X000344Y017136D01*
X000325Y017099D01*
X000309Y017060D01*
X000296Y017020D01*
X000287Y016979D01*
X000282Y016938D01*
X000280Y016896D01*
X000280Y001263D01*
X000278Y001211D01*
X000280Y001158D01*
X000286Y001106D01*
X000295Y001054D01*
X000308Y001004D01*
X000325Y000954D01*
X000345Y000905D01*
X000369Y000859D01*
X000396Y000814D01*
X000426Y000771D01*
X000459Y000730D01*
X000495Y000692D01*
X000534Y000656D01*
X000574Y000623D01*
X000618Y000593D01*
X000663Y000567D01*
X000710Y000543D01*
X000758Y000524D01*
X000808Y000507D01*
X000859Y000494D01*
X000911Y000485D01*
X000963Y000480D01*
D11*
X001218Y000895D02*
X001342Y001018D01*
X001342Y001265D01*
X001463Y001265D02*
X001587Y001265D01*
X001525Y001265D02*
X001525Y000895D01*
X001463Y000895D02*
X001587Y000895D01*
X001709Y000957D02*
X001771Y000895D01*
X001894Y000895D01*
X001956Y000957D01*
X001956Y001018D01*
X001894Y001080D01*
X001771Y001080D01*
X001709Y001142D01*
X001709Y001204D01*
X001771Y001265D01*
X001894Y001265D01*
X001956Y001204D01*
X002077Y001265D02*
X002077Y000957D01*
X002139Y000895D01*
X002262Y000895D01*
X002324Y000957D01*
X002324Y001265D01*
X002445Y001142D02*
X002569Y001265D01*
X002692Y001142D01*
X002692Y000895D01*
X002814Y000895D02*
X003061Y000895D01*
X003182Y000895D02*
X003306Y000895D01*
X003244Y000895D02*
X003244Y001265D01*
X003182Y001265D02*
X003306Y001265D01*
X003428Y001204D02*
X003428Y000957D01*
X003489Y000895D01*
X003613Y000895D01*
X003675Y000957D01*
X003675Y001080D01*
X003551Y001080D01*
X003428Y001204D02*
X003489Y001265D01*
X003613Y001265D01*
X003675Y001204D01*
X003796Y001265D02*
X003796Y000895D01*
X003796Y001080D02*
X004043Y001080D01*
X004043Y001265D02*
X004043Y000895D01*
X004288Y000895D02*
X004288Y001265D01*
X004411Y001265D02*
X004164Y001265D01*
X003920Y001495D02*
X003735Y001495D01*
X003612Y001495D02*
X003489Y001495D01*
X003551Y001495D02*
X003551Y001742D01*
X003489Y001742D01*
X003367Y001742D02*
X003306Y001742D01*
X003182Y001618D01*
X003182Y001495D02*
X003182Y001742D01*
X003060Y001742D02*
X002937Y001742D01*
X002998Y001804D02*
X002998Y001557D01*
X003060Y001495D01*
X002815Y001557D02*
X002753Y001495D01*
X002630Y001495D01*
X002568Y001557D01*
X002630Y001680D02*
X002568Y001742D01*
X002568Y001804D01*
X002630Y001865D01*
X002753Y001865D01*
X002815Y001804D01*
X002753Y001680D02*
X002815Y001618D01*
X002815Y001557D01*
X002753Y001680D02*
X002630Y001680D01*
X002814Y001265D02*
X002814Y000895D01*
X002692Y001080D02*
X002445Y001080D01*
X002445Y001142D02*
X002445Y000895D01*
X002017Y001495D02*
X001832Y001495D01*
X001832Y001865D01*
X002017Y001865D01*
X002079Y001804D01*
X002079Y001557D01*
X002017Y001495D01*
X001710Y001495D02*
X001463Y001495D01*
X001463Y001865D01*
X001710Y001865D01*
X001587Y001680D02*
X001463Y001680D01*
X001342Y001495D02*
X001095Y001495D01*
X001095Y001865D01*
X001095Y001265D02*
X001095Y001018D01*
X001218Y000895D01*
X003551Y001865D02*
X003551Y001927D01*
X003735Y001742D02*
X003920Y001742D01*
X003981Y001680D01*
X003981Y001557D01*
X003920Y001495D01*
X003735Y001372D02*
X003735Y001742D01*
X004533Y000957D02*
X004594Y000957D01*
X004594Y000895D01*
X004533Y000895D01*
X004533Y000957D01*
X004717Y000957D02*
X004717Y001204D01*
X004778Y001265D01*
X004902Y001265D01*
X004964Y001204D01*
X004964Y000957D01*
X004902Y000895D01*
X004778Y000895D01*
X004717Y000957D01*
X005085Y001018D02*
X005270Y001018D01*
X005332Y001080D01*
X005332Y001204D01*
X005270Y001265D01*
X005085Y001265D01*
X005085Y000895D01*
X005209Y001018D02*
X005332Y000895D01*
X005453Y000957D02*
X005515Y000895D01*
X005639Y000895D01*
X005700Y000957D01*
X005700Y001080D01*
X005577Y001080D01*
X005700Y001204D02*
X005639Y001265D01*
X005515Y001265D01*
X005453Y001204D01*
X005453Y000957D01*
M02*
